<?xml version="1.0" encoding="UTF-8"?>
<svg width="818px" height="59px" viewBox="0 0 818 59" version="1.1" xmlns="http://www.w3.org/2000/svg" xmlns:xlink="http://www.w3.org/1999/xlink">
    <title>Group 4</title>
    <g id="Page-1" stroke="none" stroke-width="1" fill="none" fill-rule="evenodd">
        <g id="Footer-Desktop" transform="translate(-445.000000, -47.000000)">
            <g id="Group-79" transform="translate(-192.132812, -5.000000)">
                <g id="Group-4" transform="translate(637.442000, 52.656000)">
                    <g id="Motherhood" transform="translate(0.664000, 1.000000)" fill="#000000" fill-rule="nonzero">
                        <path d="M3.224,19.344 L3.224,12.532 C3.224,10.166 3.198,8.372 3.016,7.228 L7.826,19.344 L10.894,19.344 L15.73,7.202 C15.548,8.554 15.548,9.672 15.548,13.494 L15.548,19.344 L18.772,19.344 L18.772,0.338 L15.496,0.338 L9.36,15.47 L3.224,0.338 L0,0.338 L0,19.344 L3.224,19.344 Z" id="Path"></path>
                        <path d="M21.71,12.896 C21.71,16.9 24.596,19.656 28.574,19.656 C32.552,19.656 35.438,16.9 35.438,12.896 C35.438,8.892 32.552,6.136 28.574,6.136 C24.596,6.136 21.71,8.892 21.71,12.896 Z M24.882,12.896 C24.882,10.556 26.39,8.97 28.574,8.97 C30.758,8.97 32.266,10.556 32.266,12.896 C32.266,15.236 30.758,16.822 28.574,16.822 C26.39,16.822 24.882,15.236 24.882,12.896 Z" id="Shape"></path>
                        <polygon id="Path" points="42.12 19.344 42.12 9.152 44.616 9.152 44.616 6.5 42.12 6.5 42.12 2.496 38.948 2.496 38.948 6.5 36.478 6.5 36.478 9.152 38.948 9.152 38.948 19.344"></polygon>
                        <path d="M49.452,19.344 L49.452,12.324 C49.452,10.4 50.622,8.996 52.624,8.996 C54.236,8.996 55.302,10.036 55.302,12.194 L55.302,19.344 L58.474,19.344 L58.474,11.44 C58.474,8.112 56.81,6.11 53.638,6.11 C51.792,6.11 50.284,6.916 49.478,8.164 L49.478,0 L46.28,0 L46.28,19.344 L49.452,19.344 Z" id="Path"></path>
                        <path d="M67.34,19.682 C70.694,19.682 73.034,17.992 73.58,15.184 L70.642,15.184 C70.278,16.406 69.134,17.082 67.392,17.082 C65.286,17.082 64.09,15.938 63.856,13.676 L73.528,13.65 L73.528,12.688 C73.528,8.684 71.084,6.11 67.236,6.11 C63.466,6.11 60.84,8.892 60.84,12.922 C60.84,16.9 63.518,19.682 67.34,19.682 Z M67.262,8.71 C69.16,8.71 70.382,9.88 70.382,11.648 L63.934,11.648 C64.246,9.724 65.39,8.71 67.262,8.71 Z" id="Shape"></path>
                        <path d="M84.136,6.448 C83.616,6.318 83.174,6.266 82.732,6.266 C81.016,6.266 79.794,7.124 79.248,8.398 L79.066,6.526 L76.076,6.526 L76.076,19.344 L79.248,19.344 L79.248,13.104 C79.248,10.608 80.678,9.386 82.966,9.386 L84.136,9.386 L84.136,6.448 Z" id="Path"></path>
                        <path d="M89.518,19.344 L89.518,12.324 C89.518,10.4 90.688,8.996 92.69,8.996 C94.302,8.996 95.368,10.036 95.368,12.194 L95.368,19.344 L98.54,19.344 L98.54,11.44 C98.54,8.112 96.876,6.11 93.704,6.11 C91.858,6.11 90.35,6.916 89.544,8.164 L89.544,0 L86.346,0 L86.346,19.344 L89.518,19.344 Z" id="Path"></path>
                        <path d="M100.906,12.896 C100.906,16.9 103.792,19.656 107.77,19.656 C111.748,19.656 114.634,16.9 114.634,12.896 C114.634,8.892 111.748,6.136 107.77,6.136 C103.792,6.136 100.906,8.892 100.906,12.896 Z M104.078,12.896 C104.078,10.556 105.586,8.97 107.77,8.97 C109.954,8.97 111.462,10.556 111.462,12.896 C111.462,15.236 109.954,16.822 107.77,16.822 C105.586,16.822 104.078,15.236 104.078,12.896 Z" id="Shape"></path>
                        <path d="M116.402,12.896 C116.402,16.9 119.288,19.656 123.266,19.656 C127.244,19.656 130.13,16.9 130.13,12.896 C130.13,8.892 127.244,6.136 123.266,6.136 C119.288,6.136 116.402,8.892 116.402,12.896 Z M119.574,12.896 C119.574,10.556 121.082,8.97 123.266,8.97 C125.45,8.97 126.958,10.556 126.958,12.896 C126.958,15.236 125.45,16.822 123.266,16.822 C121.082,16.822 119.574,15.236 119.574,12.896 Z" id="Shape"></path>
                        <path d="M137.93,19.682 C139.88,19.682 141.544,18.824 142.324,17.342 L142.532,19.344 L145.444,19.344 L145.444,0 L142.298,0 L142.298,8.138 C141.492,6.864 139.906,6.11 138.112,6.11 C134.238,6.11 131.898,8.97 131.898,12.974 C131.898,16.952 134.212,19.682 137.93,19.682 Z M138.632,16.77 C136.422,16.77 135.07,15.158 135.07,12.87 C135.07,10.582 136.422,8.944 138.632,8.944 C140.842,8.944 142.272,10.556 142.272,12.87 C142.272,15.184 140.842,16.77 138.632,16.77 Z" id="Shape"></path>
                    </g>
                    <g id="Tracker" transform="translate(-0.000000, 32.000000)" fill="#000000" fill-rule="nonzero">
                        <polygon id="Path" points="-1.42108547e-14 3.406 5.564 3.406 5.564 19.344 8.892 19.344 8.892 3.406 14.456 3.406 14.456 0.338 -1.42108547e-14 0.338"></polygon>
                        <path d="M21.294,6.448 C20.774,6.318 20.332,6.266 19.89,6.266 C18.174,6.266 16.952,7.124 16.406,8.398 L16.224,6.526 L13.234,6.526 L13.234,19.344 L16.406,19.344 L16.406,13.104 C16.406,10.608 17.836,9.386 20.124,9.386 L21.294,9.386 L21.294,6.448 Z" id="Path"></path>
                        <path d="M26.832,19.682 C28.834,19.682 30.576,18.772 31.122,17.446 L31.356,19.344 L34.138,19.344 L34.138,11.544 C34.138,7.982 32.006,6.11 28.548,6.11 C25.064,6.11 22.776,7.93 22.776,10.712 L25.48,10.712 C25.48,9.36 26.52,8.58 28.392,8.58 C30.004,8.58 31.044,9.282 31.044,11.024 L31.044,11.31 L27.196,11.596 C24.154,11.83 22.438,13.312 22.438,15.678 C22.438,18.096 24.102,19.682 26.832,19.682 Z M27.872,17.29 C26.442,17.29 25.662,16.718 25.662,15.548 C25.662,14.508 26.416,13.858 28.392,13.676 L31.07,13.468 L31.07,14.144 C31.07,16.12 29.822,17.29 27.872,17.29 Z" id="Shape"></path>
                        <path d="M36.478,12.896 C36.478,16.978 39.026,19.682 42.926,19.682 C46.28,19.682 48.776,17.628 49.166,14.638 L45.968,14.638 C45.63,16.042 44.512,16.822 42.926,16.822 C40.898,16.822 39.65,15.314 39.65,12.896 C39.65,10.478 41.002,8.944 43.03,8.944 C44.538,8.944 45.604,9.698 45.968,11.154 L49.14,11.154 C48.802,8.06 46.41,6.11 42.9,6.11 C39.104,6.11 36.478,8.918 36.478,12.896 Z" id="Path"></path>
                        <polygon id="Path" points="54.73 19.344 54.73 15.886 56.602 13.936 59.956 19.344 63.596 19.344 58.812 11.596 63.7 6.5 59.722 6.5 54.73 11.882 54.73 0 51.584 0 51.584 19.344"></polygon>
                        <path d="M70.096,19.682 C73.45,19.682 75.79,17.992 76.336,15.184 L73.398,15.184 C73.034,16.406 71.89,17.082 70.148,17.082 C68.042,17.082 66.846,15.938 66.612,13.676 L76.284,13.65 L76.284,12.688 C76.284,8.684 73.84,6.11 69.992,6.11 C66.222,6.11 63.596,8.892 63.596,12.922 C63.596,16.9 66.274,19.682 70.096,19.682 Z M70.018,8.71 C71.916,8.71 73.138,9.88 73.138,11.648 L66.69,11.648 C67.002,9.724 68.146,8.71 70.018,8.71 Z" id="Shape"></path>
                        <path d="M86.892,6.448 C86.372,6.318 85.93,6.266 85.488,6.266 C83.772,6.266 82.55,7.124 82.004,8.398 L81.822,6.526 L78.832,6.526 L78.832,19.344 L82.004,19.344 L82.004,13.104 C82.004,10.608 83.434,9.386 85.722,9.386 L86.892,9.386 L86.892,6.448 Z" id="Path"></path>
                    </g>
                    <g id="Effortless" transform="translate(349.664000, 1.000000)" fill="#000000" fill-rule="nonzero">
                        <polygon id="Path" points="11.804 19.344 11.804 16.276 3.328 16.276 3.328 11.232 10.92 11.232 10.92 8.294 3.328 8.294 3.328 3.406 11.804 3.406 11.804 0.338 0 0.338 0 19.344"></polygon>
                        <path d="M12.766,6.5 L12.766,9.152 L14.612,9.152 L14.612,19.344 L17.758,19.344 L17.758,9.152 L23.01,9.152 L23.01,19.344 L26.156,19.344 L26.156,9.152 L29.224,9.152 L29.224,6.5 L26.156,6.5 L26.156,4.94 C26.156,3.666 26.546,2.834 28.158,2.834 L29.25,2.834 L29.25,0.13 C28.704,0.026 28.132,0 27.612,0 C24.83,0 23.01,1.456 23.01,4.94 L23.01,6.5 L17.758,6.5 L17.758,4.94 C17.758,3.666 18.122,2.834 19.734,2.834 L20.852,2.834 L20.852,0.13 C20.306,0.026 19.708,0 19.214,0 C16.432,0 14.612,1.456 14.612,4.94 L14.612,6.5 L12.766,6.5 Z" id="Path"></path>
                        <path d="M29.198,12.896 C29.198,16.9 32.084,19.656 36.062,19.656 C40.04,19.656 42.926,16.9 42.926,12.896 C42.926,8.892 40.04,6.136 36.062,6.136 C32.084,6.136 29.198,8.892 29.198,12.896 Z M32.37,12.896 C32.37,10.556 33.878,8.97 36.062,8.97 C38.246,8.97 39.754,10.556 39.754,12.896 C39.754,15.236 38.246,16.822 36.062,16.822 C33.878,16.822 32.37,15.236 32.37,12.896 Z" id="Shape"></path>
                        <path d="M52.598,6.448 C52.078,6.318 51.636,6.266 51.194,6.266 C49.478,6.266 48.256,7.124 47.71,8.398 L47.528,6.526 L44.538,6.526 L44.538,19.344 L47.71,19.344 L47.71,13.104 C47.71,10.608 49.14,9.386 51.428,9.386 L52.598,9.386 L52.598,6.448 Z" id="Path"></path>
                        <polygon id="Path" points="58.734 19.344 58.734 9.152 61.23 9.152 61.23 6.5 58.734 6.5 58.734 2.496 55.562 2.496 55.562 6.5 53.092 6.5 53.092 9.152 55.562 9.152 55.562 19.344"></polygon>
                        <polygon id="Path" points="65.494 19.344 65.494 0 62.348 0 62.348 19.344"></polygon>
                        <path d="M73.658,19.682 C77.012,19.682 79.352,17.992 79.898,15.184 L76.96,15.184 C76.596,16.406 75.452,17.082 73.71,17.082 C71.604,17.082 70.408,15.938 70.174,13.676 L79.846,13.65 L79.846,12.688 C79.846,8.684 77.402,6.11 73.554,6.11 C69.784,6.11 67.158,8.892 67.158,12.922 C67.158,16.9 69.836,19.682 73.658,19.682 Z M73.58,8.71 C75.478,8.71 76.7,9.88 76.7,11.648 L70.252,11.648 C70.564,9.724 71.708,8.71 73.58,8.71 Z" id="Shape"></path>
                        <path d="M80.496,15.444 C80.496,17.966 82.524,19.682 85.722,19.682 C88.894,19.682 91.104,18.07 91.104,15.47 C91.104,13.494 90.012,12.506 87.854,12.012 L85.54,11.466 C84.448,11.206 83.876,10.738 83.876,10.01 C83.876,9.048 84.604,8.476 85.852,8.476 C87.074,8.476 87.802,9.178 87.828,10.27 L90.844,10.27 C90.818,7.774 88.868,6.11 85.982,6.11 C83.018,6.11 80.886,7.618 80.886,10.14 C80.886,12.194 82.004,13.286 84.318,13.806 L86.632,14.352 C87.776,14.612 88.114,15.08 88.114,15.73 C88.114,16.666 87.308,17.264 85.826,17.264 C84.37,17.264 83.538,16.562 83.512,15.444 L80.496,15.444 Z" id="Path"></path>
                        <path d="M91.624,15.444 C91.624,17.966 93.652,19.682 96.85,19.682 C100.022,19.682 102.232,18.07 102.232,15.47 C102.232,13.494 101.14,12.506 98.982,12.012 L96.668,11.466 C95.576,11.206 95.004,10.738 95.004,10.01 C95.004,9.048 95.732,8.476 96.98,8.476 C98.202,8.476 98.93,9.178 98.956,10.27 L101.972,10.27 C101.946,7.774 99.996,6.11 97.11,6.11 C94.146,6.11 92.014,7.618 92.014,10.14 C92.014,12.194 93.132,13.286 95.446,13.806 L97.76,14.352 C98.904,14.612 99.242,15.08 99.242,15.73 C99.242,16.666 98.436,17.264 96.954,17.264 C95.498,17.264 94.666,16.562 94.64,15.444 L91.624,15.444 Z" id="Path"></path>
                    </g>
                    <g id="Shopping" transform="translate(348.312000, 32.000000)" fill="#000000" fill-rule="nonzero">
                        <path d="M0.26,5.642 C0.26,8.554 1.95,10.4 5.174,11.102 L8.19,11.778 C9.75,12.116 10.4,12.87 10.4,14.144 C10.4,15.73 8.996,16.692 6.786,16.692 C4.654,16.692 3.354,15.73 3.328,14.118 L0,14.118 C0.078,17.524 2.73,19.682 6.786,19.682 C10.972,19.682 13.728,17.394 13.728,13.858 C13.728,11.024 12.142,9.36 8.892,8.658 L5.902,8.008 C4.316,7.644 3.588,6.89 3.588,5.538 C3.588,3.952 4.914,2.964 6.968,2.964 C8.84,2.964 10.01,3.926 10.088,5.564 L13.416,5.564 C13.312,2.132 10.868,0 7.02,0 C3.016,0 0.26,2.314 0.26,5.642 Z" id="Path"></path>
                        <path d="M19.448,19.344 L19.448,12.324 C19.448,10.4 20.618,8.996 22.62,8.996 C24.232,8.996 25.298,10.036 25.298,12.194 L25.298,19.344 L28.47,19.344 L28.47,11.44 C28.47,8.112 26.806,6.11 23.634,6.11 C21.788,6.11 20.28,6.916 19.474,8.164 L19.474,0 L16.276,0 L16.276,19.344 L19.448,19.344 Z" id="Path"></path>
                        <path d="M30.836,12.896 C30.836,16.9 33.722,19.656 37.7,19.656 C41.678,19.656 44.564,16.9 44.564,12.896 C44.564,8.892 41.678,6.136 37.7,6.136 C33.722,6.136 30.836,8.892 30.836,12.896 Z M34.008,12.896 C34.008,10.556 35.516,8.97 37.7,8.97 C39.884,8.97 41.392,10.556 41.392,12.896 C41.392,15.236 39.884,16.822 37.7,16.822 C35.516,16.822 34.008,15.236 34.008,12.896 Z" id="Shape"></path>
                        <path d="M47.086,25.298 L50.258,25.298 L50.258,17.628 C51.064,18.928 52.728,19.682 54.652,19.682 C58.474,19.682 60.658,16.77 60.658,12.766 C60.658,8.736 58.266,6.11 54.652,6.11 C52.702,6.11 51.012,6.968 50.232,8.45 L50.024,6.5 L47.086,6.5 L47.086,25.298 Z M50.284,12.922 C50.284,10.608 51.714,8.996 53.898,8.996 C56.134,8.996 57.46,10.634 57.46,12.922 C57.46,15.21 56.134,16.822 53.898,16.822 C51.714,16.822 50.284,15.236 50.284,12.922 Z" id="Shape"></path>
                        <path d="M63.18,25.298 L66.352,25.298 L66.352,17.628 C67.158,18.928 68.822,19.682 70.746,19.682 C74.568,19.682 76.752,16.77 76.752,12.766 C76.752,8.736 74.36,6.11 70.746,6.11 C68.796,6.11 67.106,6.968 66.326,8.45 L66.118,6.5 L63.18,6.5 L63.18,25.298 Z M66.378,12.922 C66.378,10.608 67.808,8.996 69.992,8.996 C72.228,8.996 73.554,10.634 73.554,12.922 C73.554,15.21 72.228,16.822 69.992,16.822 C67.808,16.822 66.378,15.236 66.378,12.922 Z" id="Shape"></path>
                        <path d="M80.86,3.926 C81.9,3.926 82.758,3.068 82.758,2.002 C82.758,0.936 81.9,0.104 80.86,0.104 C79.768,0.104 78.91,0.936 78.91,2.002 C78.91,3.068 79.768,3.926 80.86,3.926 Z M79.274,19.344 L82.446,19.344 L82.446,6.5 L79.274,6.5 L79.274,19.344 Z" id="Shape"></path>
                        <path d="M88.894,19.344 L88.894,12.428 C88.894,10.348 90.09,8.996 92.04,8.996 C93.678,8.996 94.744,10.036 94.744,12.194 L94.744,19.344 L97.916,19.344 L97.916,11.44 C97.916,8.112 96.252,6.11 93.028,6.11 C91.286,6.11 89.726,6.864 88.92,8.164 L88.66,6.5 L85.722,6.5 L85.722,19.344 L88.894,19.344 Z" id="Path"></path>
                        <path d="M100.308,12.636 C100.308,16.354 102.7,19.084 106.34,19.084 C108.186,19.084 109.772,18.33 110.578,17.134 L110.578,19.266 C110.578,21.398 109.174,22.776 106.99,22.776 C105.04,22.776 103.766,21.788 103.558,20.124 L100.386,20.124 C100.776,23.556 103.298,25.662 106.99,25.662 C111.15,25.662 113.724,22.984 113.724,18.694 L113.724,6.5 L110.786,6.5 L110.604,8.268 C109.85,6.89 108.342,6.084 106.418,6.084 C102.752,6.084 100.308,8.892 100.308,12.636 Z M103.506,12.558 C103.506,10.452 104.858,8.866 106.964,8.866 C109.174,8.866 110.5,10.374 110.5,12.558 C110.5,14.794 109.148,16.328 106.964,16.328 C104.884,16.328 103.506,14.716 103.506,12.558 Z" id="Shape"></path>
                    </g>
                    <g id="Personalized" transform="translate(667.664000, 0.000000)" fill="#000000" fill-rule="nonzero">
                        <path d="M7.514,12.792 C11.31,12.792 13.806,10.218 13.806,6.552 C13.806,2.834 11.336,0.338 7.514,0.338 L0,0.338 L0,19.344 L3.328,19.344 L3.328,12.792 L7.514,12.792 Z M6.864,3.302 C9.074,3.302 10.322,4.446 10.322,6.526 C10.322,8.606 9.1,9.828 6.812,9.828 L3.328,9.828 L3.328,3.302 L6.864,3.302 Z" id="Shape"></path>
                        <path d="M21.2495727,19.682 C24.6035727,19.682 26.9435727,17.992 27.4895727,15.184 L24.5515727,15.184 C24.1875727,16.406 23.0435727,17.082 21.3015727,17.082 C19.1955727,17.082 17.9995727,15.938 17.7655727,13.676 L27.4375727,13.65 L27.4375727,12.688 C27.4375727,8.684 24.9935727,6.11 21.1455727,6.11 C17.3755727,6.11 14.7495727,8.892 14.7495727,12.922 C14.7495727,16.9 17.4275727,19.682 21.2495727,19.682 Z M21.1715727,8.71 C23.0695727,8.71 24.2915727,9.88 24.2915727,11.648 L17.8435727,11.648 C18.1555727,9.724 19.2995727,8.71 21.1715727,8.71 Z" id="Shape"></path>
                        <path d="M38.0271454,6.448 C37.5071454,6.318 37.0651454,6.266 36.6231454,6.266 C34.9071454,6.266 33.6851454,7.124 33.1391454,8.398 L32.9571454,6.526 L29.9671454,6.526 L29.9671454,19.344 L33.1391454,19.344 L33.1391454,13.104 C33.1391454,10.608 34.5691454,9.386 36.8571454,9.386 L38.0271454,9.386 L38.0271454,6.448 Z" id="Path"></path>
                        <path d="M39.1787181,15.444 C39.1787181,17.966 41.2067181,19.682 44.4047181,19.682 C47.5767181,19.682 49.7867181,18.07 49.7867181,15.47 C49.7867181,13.494 48.6947181,12.506 46.5367181,12.012 L44.2227181,11.466 C43.1307181,11.206 42.5587181,10.738 42.5587181,10.01 C42.5587181,9.048 43.2867181,8.476 44.5347181,8.476 C45.7567181,8.476 46.4847181,9.178 46.5107181,10.27 L49.5267181,10.27 C49.5007181,7.774 47.5507181,6.11 44.6647181,6.11 C41.7007181,6.11 39.5687181,7.618 39.5687181,10.14 C39.5687181,12.194 40.6867181,13.286 43.0007181,13.806 L45.3147181,14.352 C46.4587181,14.612 46.7967181,15.08 46.7967181,15.73 C46.7967181,16.666 45.9907181,17.264 44.5087181,17.264 C43.0527181,17.264 42.2207181,16.562 42.1947181,15.444 L39.1787181,15.444 Z" id="Path"></path>
                        <path d="M51.4322908,12.896 C51.4322908,16.9 54.3182908,19.656 58.2962908,19.656 C62.2742908,19.656 65.1602908,16.9 65.1602908,12.896 C65.1602908,8.892 62.2742908,6.136 58.2962908,6.136 C54.3182908,6.136 51.4322908,8.892 51.4322908,12.896 Z M54.6042908,12.896 C54.6042908,10.556 56.1122908,8.97 58.2962908,8.97 C60.4802908,8.97 61.9882908,10.556 61.9882908,12.896 C61.9882908,15.236 60.4802908,16.822 58.2962908,16.822 C56.1122908,16.822 54.6042908,15.236 54.6042908,12.896 Z" id="Shape"></path>
                        <path d="M70.8358635,19.344 L70.8358635,12.428 C70.8358635,10.348 72.0318635,8.996 73.9818635,8.996 C75.6198635,8.996 76.6858635,10.036 76.6858635,12.194 L76.6858635,19.344 L79.8578635,19.344 L79.8578635,11.44 C79.8578635,8.112 78.1938635,6.11 74.9698635,6.11 C73.2278635,6.11 71.6678635,6.864 70.8618635,8.164 L70.6018635,6.5 L67.6638635,6.5 L67.6638635,19.344 L70.8358635,19.344 Z" id="Path"></path>
                        <path d="M86.7814362,19.682 C88.7834362,19.682 90.5254362,18.772 91.0714362,17.446 L91.3054362,19.344 L94.0874362,19.344 L94.0874362,11.544 C94.0874362,7.982 91.9554362,6.11 88.4974362,6.11 C85.0134362,6.11 82.7254362,7.93 82.7254362,10.712 L85.4294362,10.712 C85.4294362,9.36 86.4694362,8.58 88.3414362,8.58 C89.9534362,8.58 90.9934362,9.282 90.9934362,11.024 L90.9934362,11.31 L87.1454362,11.596 C84.1034362,11.83 82.3874362,13.312 82.3874362,15.678 C82.3874362,18.096 84.0514362,19.682 86.7814362,19.682 Z M87.8214362,17.29 C86.3914362,17.29 85.6114362,16.718 85.6114362,15.548 C85.6114362,14.508 86.3654362,13.858 88.3414362,13.676 L91.0194362,13.468 L91.0194362,14.144 C91.0194362,16.12 89.7714362,17.29 87.8214362,17.29 Z" id="Shape"></path>
                        <polygon id="Path" points="100.387009 19.344 100.387009 0 97.2410089 0 97.2410089 19.344"></polygon>
                        <path d="M105.282582,3.926 C106.322582,3.926 107.180582,3.068 107.180582,2.002 C107.180582,0.936 106.322582,0.104 105.282582,0.104 C104.190582,0.104 103.332582,0.936 103.332582,2.002 C103.332582,3.068 104.190582,3.926 105.282582,3.926 Z M103.696582,19.344 L106.868582,19.344 L106.868582,6.5 L103.696582,6.5 L103.696582,19.344 Z" id="Shape"></path>
                        <polygon id="Path" points="119.824154 19.344 119.824154 16.692 113.324154 16.692 119.824154 9.126 119.824154 6.5 109.450154 6.5 109.450154 9.152 115.846154 9.152 109.450154 16.744 109.450154 19.344"></polygon>
                        <path d="M127.995727,19.682 C131.349727,19.682 133.689727,17.992 134.235727,15.184 L131.297727,15.184 C130.933727,16.406 129.789727,17.082 128.047727,17.082 C125.941727,17.082 124.745727,15.938 124.511727,13.676 L134.183727,13.65 L134.183727,12.688 C134.183727,8.684 131.739727,6.11 127.891727,6.11 C124.121727,6.11 121.495727,8.892 121.495727,12.922 C121.495727,16.9 124.173727,19.682 127.995727,19.682 Z M127.917727,8.71 C129.815727,8.71 131.037727,9.88 131.037727,11.648 L124.589727,11.648 C124.901727,9.724 126.045727,8.71 127.917727,8.71 Z" id="Shape"></path>
                        <path d="M141.9913,19.682 C143.9413,19.682 145.6053,18.824 146.3853,17.342 L146.5933,19.344 L149.5053,19.344 L149.5053,0 L146.3593,0 L146.3593,8.138 C145.5533,6.864 143.9673,6.11 142.1733,6.11 C138.2993,6.11 135.9593,8.97 135.9593,12.974 C135.9593,16.952 138.2733,19.682 141.9913,19.682 Z M142.6933,16.77 C140.4833,16.77 139.1313,15.158 139.1313,12.87 C139.1313,10.582 140.4833,8.944 142.6933,8.944 C144.9033,8.944 146.3333,10.556 146.3333,12.87 C146.3333,15.184 144.9033,16.77 142.6933,16.77 Z" id="Shape"></path>
                    </g>
                    <g id="Experience" transform="translate(667.664000, 31.104000)" fill="#000000" fill-rule="nonzero">
                        <polygon id="Path" points="11.804 19.24 11.804 16.172 3.328 16.172 3.328 11.128 10.92 11.128 10.92 8.19 3.328 8.19 3.328 3.302 11.804 3.302 11.804 0.234 0 0.234 0 19.24"></polygon>
                        <polygon id="Path" points="17.056 19.24 19.76 15.002 22.49 19.24 26.13 19.24 21.892 12.896 26.26 6.396 22.698 6.396 19.968 10.764 17.134 6.396 13.442 6.396 17.862 12.948 13.442 19.24"></polygon>
                        <path d="M28.028,25.194 L31.2,25.194 L31.2,17.524 C32.006,18.824 33.67,19.578 35.594,19.578 C39.416,19.578 41.6,16.666 41.6,12.662 C41.6,8.632 39.208,6.006 35.594,6.006 C33.644,6.006 31.954,6.864 31.174,8.346 L30.966,6.396 L28.028,6.396 L28.028,25.194 Z M31.226,12.818 C31.226,10.504 32.656,8.892 34.84,8.892 C37.076,8.892 38.402,10.53 38.402,12.818 C38.402,15.106 37.076,16.718 34.84,16.718 C32.656,16.718 31.226,15.132 31.226,12.818 Z" id="Shape"></path>
                        <path d="M49.738,19.578 C53.092,19.578 55.432,17.888 55.978,15.08 L53.04,15.08 C52.676,16.302 51.532,16.978 49.79,16.978 C47.684,16.978 46.488,15.834 46.254,13.572 L55.926,13.546 L55.926,12.584 C55.926,8.58 53.482,6.006 49.634,6.006 C45.864,6.006 43.238,8.788 43.238,12.818 C43.238,16.796 45.916,19.578 49.738,19.578 Z M49.66,8.606 C51.558,8.606 52.78,9.776 52.78,11.544 L46.332,11.544 C46.644,9.62 47.788,8.606 49.66,8.606 Z" id="Shape"></path>
                        <path d="M66.404,6.344 C65.884,6.214 65.442,6.162 65,6.162 C63.284,6.162 62.062,7.02 61.516,8.294 L61.334,6.422 L58.344,6.422 L58.344,19.24 L61.516,19.24 L61.516,13 C61.516,10.504 62.946,9.282 65.234,9.282 L66.404,9.282 L66.404,6.344 Z" id="Path"></path>
                        <path d="M70.018,3.822 C71.058,3.822 71.916,2.964 71.916,1.898 C71.916,0.832 71.058,0 70.018,0 C68.926,0 68.068,0.832 68.068,1.898 C68.068,2.964 68.926,3.822 70.018,3.822 Z M68.432,19.24 L71.604,19.24 L71.604,6.396 L68.432,6.396 L68.432,19.24 Z" id="Shape"></path>
                        <path d="M80.496,19.578 C83.85,19.578 86.19,17.888 86.736,15.08 L83.798,15.08 C83.434,16.302 82.29,16.978 80.548,16.978 C78.442,16.978 77.246,15.834 77.012,13.572 L86.684,13.546 L86.684,12.584 C86.684,8.58 84.24,6.006 80.392,6.006 C76.622,6.006 73.996,8.788 73.996,12.818 C73.996,16.796 76.674,19.578 80.496,19.578 Z M80.418,8.606 C82.316,8.606 83.538,9.776 83.538,11.544 L77.09,11.544 C77.402,9.62 78.546,8.606 80.418,8.606 Z" id="Shape"></path>
                        <path d="M92.274,19.24 L92.274,12.324 C92.274,10.244 93.47,8.892 95.42,8.892 C97.058,8.892 98.124,9.932 98.124,12.09 L98.124,19.24 L101.296,19.24 L101.296,11.336 C101.296,8.008 99.632,6.006 96.408,6.006 C94.666,6.006 93.106,6.76 92.3,8.06 L92.04,6.396 L89.102,6.396 L89.102,19.24 L92.274,19.24 Z" id="Path"></path>
                        <path d="M103.532,12.792 C103.532,16.874 106.08,19.578 109.98,19.578 C113.334,19.578 115.83,17.524 116.22,14.534 L113.022,14.534 C112.684,15.938 111.566,16.718 109.98,16.718 C107.952,16.718 106.704,15.21 106.704,12.792 C106.704,10.374 108.056,8.84 110.084,8.84 C111.592,8.84 112.658,9.594 113.022,11.05 L116.194,11.05 C115.856,7.956 113.464,6.006 109.954,6.006 C106.158,6.006 103.532,8.814 103.532,12.792 Z" id="Path"></path>
                        <path d="M124.202,19.578 C127.556,19.578 129.896,17.888 130.442,15.08 L127.504,15.08 C127.14,16.302 125.996,16.978 124.254,16.978 C122.148,16.978 120.952,15.834 120.718,13.572 L130.39,13.546 L130.39,12.584 C130.39,8.58 127.946,6.006 124.098,6.006 C120.328,6.006 117.702,8.788 117.702,12.818 C117.702,16.796 120.38,19.578 124.202,19.578 Z M124.124,8.606 C126.022,8.606 127.244,9.776 127.244,11.544 L120.796,11.544 C121.108,9.62 122.252,8.606 124.124,8.606 Z" id="Shape"></path>
                    </g>
                    <g id="Group-78" transform="translate(231.558000, 16.344000)" fill="#FFFFFF">
                        <path d="M11.9347053,20.8490207 C11.6570777,20.8490207 11.3794501,20.7755065 11.1318841,20.6267276 L10.8807815,20.4761983 C9.79149105,19.8215712 0.223065079,13.8791672 0.223065079,7.01783479 C0.223065079,3.21959718 3.34416503,0.128496905 7.18143806,0.128496905 C8.97452324,0.128496905 10.663277,0.81112947 11.9347053,1.98735789 C13.2043652,0.81112947 14.8948873,0.128496905 16.6879725,0.128496905 C20.5252456,0.128496905 23.6463455,3.21959718 23.6463455,7.01783479 C23.6463455,13.8791672 14.0779195,19.8215712 12.9868608,20.4761983 L12.7357581,20.6267276 C12.4899605,20.7755065 12.2123329,20.8490207 11.9347053,20.8490207" id="Fill-74"></path>
                        <path d="M333.278621,20.8490207 C333.000993,20.8490207 332.723365,20.7755065 332.477568,20.6267276 L332.226465,20.4761983 C331.135406,19.8215712 321.56698,13.8791672 321.56698,7.01783479 C321.56698,3.21959718 324.68808,0.128496905 328.525353,0.128496905 C330.318439,0.128496905 332.008961,0.81112947 333.278621,1.98735789 C334.548281,0.81112947 336.238803,0.128496905 338.031888,0.128496905 C341.869161,0.128496905 344.990261,3.21959718 344.990261,7.01783479 C344.990261,13.8791672 335.423603,19.8215712 334.332544,20.4761983 L334.081442,20.6267276 C333.833876,20.7755065 333.556248,20.8490207 333.278621,20.8490207" id="Fill-76"></path>
                    </g>
                </g>
            </g>
        </g>
    </g>
</svg>