<?xml version="1.0" encoding="UTF-8"?>
<svg width="160px" height="37px" viewBox="0 0 160 37" version="1.1" xmlns="http://www.w3.org/2000/svg" xmlns:xlink="http://www.w3.org/1999/xlink">
    <title>Group 31</title>
    <g id="First---Phase-one" stroke="none" stroke-width="1" fill="none" fill-rule="evenodd">
        <g id="Home-page---template-Copy" transform="translate(-53.000000, -3640.000000)" fill="#A775C8">
            <g id="Group-22" transform="translate(-1.000000, 3594.213270)">
                <g id="Group-40" transform="translate(1.000000, 3.786730)">
                    <g id="Group-31" transform="translate(53.000000, 42.000000)">
                        <path d="M35.0136793,6.44545811 C35.0136793,9.99964505 37.9029773,12.8909162 41.4561408,12.8909162 C45.0093044,12.8909162 47.8997431,9.99964505 47.8997431,6.44545811 C47.8997431,2.89127117 45.0093044,0 41.4561408,0 C37.9029773,0 35.0136793,2.89127117 35.0136793,6.44545811" id="Fill-14"></path>
                        <path d="M0,5.1465486 L0,36.0639815 L26.4416965,36.0639815 C27.4865433,36.0639815 28.3329149,35.2162252 28.3329149,34.1710774 L28.3329149,23.1810522 C25.0306971,22.9015094 22.3535623,22.9471491 20.2011322,23.5107986 C14.6198708,24.9689851 11.9644086,28.7582162 10.9264057,32.0830639 C10.4564528,33.588031 10.3024634,34.6400247 10.3024634,34.6400247 L10.3024634,5.1465486 L0,5.1465486 Z" id="Fill-4"></path>
                        <path d="M55.3845236,5.1465486 L55.3845236,36.0639815 L81.8273608,36.0639815 C82.8722076,36.0639815 83.7197198,35.2162252 83.7197198,34.1710774 L83.7197198,23.1810522 C80.4163613,22.9015094 77.7380859,22.9471491 75.5856558,23.5107986 C70.005535,24.9689851 67.3489322,28.7582162 66.31207,32.0830639 C65.8421171,33.588031 65.6881276,34.6400247 65.6881276,34.6400247 L65.6881276,5.1465486 L55.3845236,5.1465486 Z" id="Fill-6"></path>
                        <path d="M91.435731,5.1465486 L91.435731,36.0639815 L117.878568,36.0639815 C118.922274,36.0639815 119.768646,35.2162252 119.768646,34.1710774 L119.768646,23.1810522 C116.467569,22.9015094 113.789293,22.9471491 111.636863,23.5107986 C106.056742,24.9689851 103.40014,28.7582162 102.363277,32.0830639 C101.892184,33.588031 101.739335,34.6400247 101.739335,34.6400247 L101.739335,5.1465486 L91.435731,5.1465486 Z" id="Fill-8"></path>
                        <path d="M36.0687736,18.0870979 L36.0391164,36.063411 L44.4845813,36.0474371 C45.5271468,36.0462961 46.3723776,35.2008218 46.3723776,34.159097 L46.3723776,18.0870979 L36.0687736,18.0870979 Z" id="Fill-10"></path>
                        <path d="M124.941778,20.8925666 C124.941778,30.9081855 129.742827,36.4648116 138.287529,36.4648116 C143.573359,36.4648116 147.202947,34.9324607 149.111275,29.327913 L149.219638,29.0129995 L149.408988,29.0129995 L149.405566,36.0631828 L159.69206,36.0631828 L159.717155,5.14460892 L157.122148,5.14460892 C153.323742,5.17313369 150.691093,7.74492739 149.881222,10.1855071 C149.418113,11.5820801 149.416973,12.7230711 149.416973,12.7230711 L149.239029,12.7230711 L149.129526,12.3990296 C147.206369,6.85609541 143.412526,4.74298009 138.292092,4.74298009 C129.523819,4.74298009 124.941778,10.70694 124.941778,20.8925666 M135.319525,20.9153864 C135.319525,15.6554179 137.831264,12.2746616 142.273004,12.2746616 C146.701055,12.2746616 149.390738,15.5515877 149.390738,20.4293242 L149.390738,21.3991666 C149.390738,26.2015977 146.60638,29.5549702 142.210267,29.5549702 C137.808451,29.5549702 135.319525,26.152535 135.319525,20.9153864" id="Fill-12"></path>
                    </g>
                </g>
            </g>
        </g>
    </g>
</svg>