<?xml version="1.0" encoding="UTF-8"?>
<svg width="1781px" height="158px" viewBox="0 0 1781 158" version="1.1" xmlns="http://www.w3.org/2000/svg" xmlns:xlink="http://www.w3.org/1999/xlink">
    <title>Group 73</title>
    <defs>
        <polygon id="path-1" points="0.82889216 1.30341222 76.1615138 1.30341222 76.1615138 76.53125 0.82889216 76.53125"></polygon>
        <polygon id="path-3" points="0.147826389 1.21720109 146.927549 1.21720109 146.927549 77.0518718 0.147826389 77.0518718"></polygon>
        <polygon id="path-5" points="0.147826389 0.640481528 147.756903 0.640481528 147.756903 75.588385 0.147826389 75.588385"></polygon>
    </defs>
    <g id="Page-1" stroke="none" stroke-width="1" fill="none" fill-rule="evenodd" opacity="0.15">
        <g id="Footer-Desktop" transform="translate(193.000000, 5.000000)">
            <g id="Group-73" transform="translate(-192.132812, -4.736745)">
                <g id="Group-30" transform="translate(0.000000, 4.604043)">
                    <path d="M295.430556,76.2553327 L326.801804,76.2553327 C349.071766,76.2553327 367.125,58.2274544 367.125,35.9887704 L367.125,4.66158267 L337.284056,4.66158267 C314.170078,4.66158267 295.430556,23.3731095 295.430556,46.4563004 L295.430556,76.2553327 Z" id="Fill-1" fill="#FFFFFF"></path>
                    <path d="M147.097222,76.2553327 C147.097222,33.9872485 180.02652,-0.275917328 220.645833,-0.275917328 L220.645833,-0.275917328 C261.266831,-0.275917328 294.194444,33.9872485 294.194444,76.2553327 L147.097222,76.2553327 Z" id="Fill-3" fill="#FFFFFF"></path>
                    <path d="M105.301072,150.317833 L75.4027778,150.317833 L75.4027778,42.3115615 C75.4027778,20.8357407 92.6962308,3.42720767 114.030085,3.42720767 L147.097222,3.42720767 L147.097222,108.243549 C147.097222,131.480847 128.384759,150.317833 105.301072,150.317833" id="Fill-5" fill="#FFFFFF"></path>
                    <g id="Group-9" transform="translate(295.430556, 75.020958)">
                        <mask id="mask-2" fill="white">
                            <use xlink:href="#path-1"></use>
                        </mask>
                        <g id="Clip-8"></g>
                        <path d="M76.1615138,38.9176713 C76.1615138,59.6916539 59.297552,76.5319303 38.4943514,76.5319303 C17.6928539,76.5319303 0.82889216,59.6916539 0.82889216,38.9176713 C0.82889216,18.1436886 17.6928539,1.30341222 38.4943514,1.30341222 C59.297552,1.30341222 76.1615138,18.1436886 76.1615138,38.9176713" id="Fill-7" fill="#FFFFFF" mask="url(#mask-2)"></path>
                    </g>
                    <path d="M273.621499,75.0209577 C246.322181,75.0209577 223.881516,96.0556947 221.263889,122.980022 C218.646262,96.0556947 196.205597,75.0209577 168.906279,75.0209577 L147.097222,75.0209577 L147.097222,101.726582 C147.097222,128.562061 168.600607,150.317833 195.12477,150.317833 L221.007193,150.317833 L221.520585,150.317833 L247.403007,150.317833 C273.92717,150.317833 295.430556,128.562061 295.430556,101.726582 L295.430556,75.0209577 L273.621499,75.0209577 Z" id="Fill-10" fill="#FFFFFF"></path>
                    <path d="M1.23611111,75.0209577 L72.9305556,75.0209577 L72.9305556,3.42720767 L43.0896119,3.42720767 C19.9756331,3.42720767 1.23611111,22.1387345 1.23611111,45.2219254 L1.23611111,75.0209577 Z" id="Fill-12" fill="#FFFFFF"></path>
                    <path d="M75.4027778,112.669395 C75.4027778,133.462254 58.5231109,150.317833 37.7005366,150.317833 C16.8796669,150.317833 0,133.462254 0,112.669395 C0,91.8765361 16.8796669,75.0209577 37.7005366,75.0209577 C58.5231109,75.0209577 75.4027778,91.8765361 75.4027778,112.669395" id="Fill-14" fill="#FFFFFF"></path>
                    <path d="M446.236111,76.2553327 L414.864863,76.2553327 C392.594901,76.2553327 374.541667,94.2827891 374.541667,116.520953 L374.541667,147.849083 L404.38261,147.849083 C427.496589,147.849083 446.236111,129.136318 446.236111,106.053667 L446.236111,76.2553327 Z" id="Fill-16" fill="#FFFFFF"></path>
                    <path d="M593.333333,76.2553327 C593.333333,118.523417 560.404035,152.786583 519.784722,152.786583 L519.784722,152.786583 C479.163725,152.786583 446.236111,118.523417 446.236111,76.2553327 L593.333333,76.2553327 Z" id="Fill-18" fill="#FFFFFF"></path>
                    <path d="M635.129483,2.19283267 L665.027778,2.19283267 L665.027778,110.199104 C665.027778,131.674925 647.734325,149.083458 626.400471,149.083458 L593.333333,149.083458 L593.333333,44.2671167 C593.333333,21.0298188 612.045797,2.19283267 635.129483,2.19283267" id="Fill-20" fill="#FFFFFF"></path>
                    <path d="M369.597222,37.3725202 C369.597222,16.5796611 386.476889,-0.275917328 407.299463,-0.275917328 C428.120333,-0.275917328 445,16.5796611 445,37.3725202 C445,58.1653792 428.120333,75.0209577 407.299463,75.0209577 C386.476889,75.0209577 369.597222,58.1653792 369.597222,37.3725202" id="Fill-22" fill="#FFFFFF"></path>
                    <path d="M468.045168,76.2553327 C495.344486,76.2553327 517.785151,55.2205956 520.402778,28.2962688 C523.020405,55.2205956 545.46107,76.2553327 572.760388,76.2553327 L594.569444,76.2553327 L594.569444,49.5497084 C594.569444,22.7142295 573.066059,0.958457672 546.541896,0.958457672 L520.659474,0.958457672 L520.146081,0.958457672 L494.263659,0.958457672 C467.739496,0.958457672 446.236111,22.7142295 446.236111,49.5497084 L446.236111,76.2553327 L468.045168,76.2553327 Z" id="Fill-24" fill="#FFFFFF"></path>
                    <path d="M739.194444,76.2553327 L666.263889,76.2553327 L666.263889,147.849083 L697.513873,147.849083 C720.53235,147.849083 739.194444,129.137556 739.194444,106.054365 L739.194444,76.2553327 Z" id="Fill-26" fill="#FFFFFF"></path>
                    <path d="M665.027778,38.6068952 C665.027778,17.8140361 681.907445,0.958457672 702.730019,0.958457672 C723.550889,0.958457672 740.430556,17.8140361 740.430556,38.6068952 C740.430556,59.3997542 723.550889,76.2553327 702.730019,76.2553327 C681.907445,76.2553327 665.027778,59.3997542 665.027778,38.6068952" id="Fill-28" fill="#FFFFFF"></path>
                </g>
                <g id="Group-59" transform="translate(93.944444, 2.919209)" fill="#FFFFFF">
                    <path d="M943.152778,76.7057918 L975.064163,76.7057918 C997.71756,76.7057918 1016.08333,58.6779135 1016.08333,36.4392295 L1016.08333,5.1120418 L985.726894,5.1120418 C962.214949,5.1120418 943.152778,23.8235686 943.152778,46.9067596 L943.152778,76.7057918 Z" id="Fill-31"></path>
                    <path d="M794.819444,76.7057918 C794.819444,34.4377076 827.748742,0.174541795 868.368056,0.174541795 L868.368056,0.174541795 C908.989053,0.174541795 941.916667,34.4377076 941.916667,76.7057918 L794.819444,76.7057918 Z" id="Fill-33"></path>
                    <path d="M752.302671,150.768292 L721.888889,150.768292 L721.888889,42.7620206 C721.888889,21.2861998 739.480505,3.8776668 761.182184,3.8776668 L794.819444,3.8776668 L794.819444,108.694008 C794.819444,131.931306 775.784352,150.768292 752.302671,150.768292 L0,85.5416686" id="Fill-35"></path>
                    <path d="M1019.79167,115.588604 C1019.79167,136.381463 1002.912,153.237042 982.089425,153.237042 C961.268556,153.237042 944.388889,136.381463 944.388889,115.588604 C944.388889,94.7957452 961.268556,77.9401668 982.089425,77.9401668 C1002.912,77.9401668 1019.79167,94.7957452 1019.79167,115.588604" id="Fill-37"></path>
                    <path d="M921.343721,75.4714168 C894.044403,75.4714168 871.603738,96.5061539 868.986111,123.430481 C866.368484,96.5061539 843.927819,75.4714168 816.628501,75.4714168 L794.819444,75.4714168 L794.819444,102.177041 C794.819444,129.01252 816.32283,150.768292 842.846993,150.768292 L868.729415,150.768292 L869.242807,150.768292 L895.12523,150.768292 C921.649393,150.768292 943.152778,129.01252 943.152778,102.177041 L943.152778,75.4714168 L921.343721,75.4714168 Z" id="Fill-39"></path>
                    <path d="M648.958333,75.4714168 L721.888889,75.4714168 L721.888889,3.8776668 L691.53245,3.8776668 C668.020504,3.8776668 648.958333,22.5891936 648.958333,45.6723846 L648.958333,75.4714168 Z" id="Fill-41"></path>
                    <path d="M723.125,113.119854 C723.125,133.912713 706.245333,150.768292 685.422759,150.768292 C664.601889,150.768292 647.722222,133.912713 647.722222,113.119854 C647.722222,92.3269952 664.601889,75.4714168 685.422759,75.4714168 C706.245333,75.4714168 723.125,92.3269952 723.125,113.119854" id="Fill-43"></path>
                    <path d="M1095.19444,76.7057918 L1063.28306,76.7057918 C1040.62966,76.7057918 1022.26389,94.7336701 1022.26389,116.972354 L1022.26389,148.299542 L1052.62033,148.299542 C1076.13227,148.299542 1095.19444,129.588015 1095.19444,106.504824 L1095.19444,76.7057918 Z" id="Fill-45"></path>
                    <path d="M1243.52778,76.7057918 C1243.52778,118.973876 1210.59848,153.237042 1169.97917,153.237042 L1169.97917,153.237042 C1129.35817,153.237042 1096.43056,118.973876 1096.43056,76.7057918 L1243.52778,76.7057918 Z" id="Fill-47"></path>
                    <path d="M1286.04455,1.4089168 L1316.45833,1.4089168 L1316.45833,109.415188 C1316.45833,130.891009 1298.86672,148.299542 1277.16504,148.299542 L1243.52778,148.299542 L1243.52778,43.4832009 C1243.52778,20.2459029 1262.56287,1.4089168 1286.04455,1.4089168" id="Fill-49"></path>
                    <path d="M1018.55556,37.8229793 C1018.55556,17.0301202 1035.43522,0.174541795 1056.2578,0.174541795 C1077.07867,0.174541795 1093.95833,17.0301202 1093.95833,37.8229793 C1093.95833,58.6158384 1077.07867,75.4714168 1056.2578,75.4714168 C1035.43522,75.4714168 1018.55556,58.6158384 1018.55556,37.8229793" id="Fill-51"></path>
                    <path d="M1117.0035,76.7057918 C1144.30282,76.7057918 1166.74348,55.6710547 1169.36111,28.746728 C1171.97874,55.6710547 1194.4194,76.7057918 1221.71872,76.7057918 L1243.52778,76.7057918 L1243.52778,50.0001675 C1243.52778,23.1646886 1222.02439,1.4089168 1195.50023,1.4089168 L1169.61781,1.4089168 L1169.10441,1.4089168 L1143.22199,1.4089168 C1116.69783,1.4089168 1095.19444,23.1646886 1095.19444,50.0001675 L1095.19444,76.7057918 L1117.0035,76.7057918 Z" id="Fill-53"></path>
                    <path d="M1389.38889,77.9401668 L1315.22222,77.9401668 L1315.22222,149.533917 L1347.00187,149.533917 C1370.41049,149.533917 1389.38889,130.82239 1389.38889,107.739199 L1389.38889,77.9401668 Z" id="Fill-55"></path>
                    <path d="M1315.22222,39.0573543 C1315.22222,18.2644952 1332.10189,1.4089168 1352.92446,1.4089168 C1373.74533,1.4089168 1390.625,18.2644952 1390.625,39.0573543 C1390.625,59.8502134 1373.74533,76.7057918 1352.92446,76.7057918 C1332.10189,76.7057918 1315.22222,59.8502134 1315.22222,39.0573543" id="Fill-57"></path>
                </g>
                <g id="Group-72" transform="translate(1484.569444, 0.000000)">
                    <g id="Group-62" transform="translate(147.097222, 0.625001)">
                        <mask id="mask-4" fill="white">
                            <use xlink:href="#path-3"></use>
                        </mask>
                        <g id="Clip-61"></g>
                        <path d="M0.147826389,77.0518718 C0.147826389,35.1683205 33.0060486,1.21686298 73.5376875,1.21686298 L73.5376875,1.21686298 C114.071007,1.21686298 146.927549,35.1683205 146.927549,77.0518718 L0.147826389,77.0518718 Z" id="Fill-60" fill="#FFFFFF" mask="url(#mask-4)"></path>
                    </g>
                    <path d="M105.301072,151.218751 L75.4027778,151.218751 L75.4027778,43.2124797 C75.4027778,21.7366589 92.6962308,4.32812592 114.030085,4.32812592 L147.097222,4.32812592 L147.097222,109.144467 C147.097222,132.381765 128.384759,151.218751 105.301072,151.218751" id="Fill-63" fill="#FFFFFF"></path>
                    <g id="Group-67" transform="translate(147.097222, 77.156251)">
                        <mask id="mask-6" fill="white">
                            <use xlink:href="#path-5"></use>
                        </mask>
                        <g id="Clip-66"></g>
                        <path d="M126.055049,0.640481528 C98.8888681,0.640481528 76.5576458,21.5777308 73.9527847,48.3772739 C71.3479236,21.5777308 49.0167014,0.640481528 21.8505208,0.640481528 L0.147826389,0.640481528 L0.147826389,27.2223357 C0.147826389,53.9334426 21.5446597,75.588385 47.9411458,75.588385 L73.6973403,75.588385 L74.2082292,75.588385 L99.9644236,75.588385 C126.359229,75.588385 147.757743,53.9334426 147.757743,27.2223357 L147.757743,0.640481528 L126.055049,0.640481528 Z" id="Fill-65" fill="#FFFFFF" mask="url(#mask-6)"></path>
                    </g>
                    <path d="M1.23611111,77.1562509 L72.9305556,77.1562509 L72.9305556,5.56250092 L43.0886324,5.56250092 C19.9751945,5.56250092 1.23611111,24.2740277 1.23611111,47.3572187 L1.23611111,77.1562509 Z" id="Fill-68" fill="#FFFFFF"></path>
                    <path d="M75.4027778,114.804688 C75.4027778,135.597547 58.5231109,152.453126 37.7005366,152.453126 C16.8796669,152.453126 0,135.597547 0,114.804688 C0,94.0118293 16.8796669,77.1562509 37.7005366,77.1562509 C58.5231109,77.1562509 75.4027778,94.0118293 75.4027778,114.804688" id="Fill-70" fill="#FFFFFF"></path>
                </g>
            </g>
        </g>
    </g>
</svg>