<svg width="120" height="120" viewBox="0 0 120 120" fill="none" xmlns="http://www.w3.org/2000/svg">
<path d="M0.5 0.5H104C112.56 0.5 119.5 7.43959 119.5 16V119.5H16C7.43959 119.5 0.5 112.56 0.5 104V0.5Z" fill="white"/>
<rect x="11" y="11" width="98" height="14" rx="7" fill="#25182E"/>
<path d="M22.1036 21C23.7996 21 24.9676 19.808 24.9676 18.088C24.9676 16.344 23.7756 15.152 22.0476 15.152H19.9996V21H22.1036ZM21.9516 16.096C23.1596 16.096 23.8876 16.848 23.8876 18.088C23.8876 19.304 23.1756 20.056 22.0076 20.056H21.0236V16.096H21.9516ZM32.2574 18.072C32.2574 16.288 31.0894 15.048 29.4174 15.048C27.7454 15.048 26.5854 16.296 26.5854 18.072C26.5854 19.856 27.7374 21.096 29.4094 21.096C31.0894 21.096 32.2574 19.848 32.2574 18.072ZM31.1774 18.072C31.1774 19.304 30.4894 20.112 29.4174 20.112C28.3454 20.112 27.6574 19.32 27.6574 18.072C27.6574 16.824 28.3454 16.032 29.4174 16.032C30.4894 16.032 31.1774 16.824 31.1774 18.072ZM35.2078 21H36.2158L37.4878 16.744L38.7358 21H39.7278L41.5038 15.152H40.4638L39.5198 18.248C39.4318 18.544 39.3518 18.856 39.2398 19.4C39.1438 18.904 39.0558 18.568 38.9598 18.24L38.0558 15.152H36.9278L36.0078 18.24C35.9038 18.576 35.8158 18.88 35.7198 19.4C35.6318 18.888 35.5438 18.56 35.4557 18.24L34.5278 15.152H33.4638L35.2078 21ZM44.281 21V16.856L47.033 21H48.041V15.152H47.033V19.296L44.289 15.152H43.273V21H44.281ZM51.3595 15.152H50.3355V21H53.8075V20.056H51.3595V15.152ZM60.6949 18.072C60.6949 16.288 59.5269 15.048 57.8549 15.048C56.1829 15.048 55.0229 16.296 55.0229 18.072C55.0229 19.856 56.1749 21.096 57.8469 21.096C59.5269 21.096 60.6949 19.848 60.6949 18.072ZM59.6149 18.072C59.6149 19.304 58.9269 20.112 57.8549 20.112C56.7829 20.112 56.0949 19.32 56.0949 18.072C56.0949 16.824 56.7829 16.032 57.8549 16.032C58.9269 16.032 59.6149 16.824 59.6149 18.072ZM62.8629 21L63.3349 19.648H65.5189L65.9909 21H67.0709L64.9589 15.152H63.9109L61.7989 21H62.8629ZM64.3029 16.896C64.3589 16.736 64.4069 16.56 64.4309 16.448C64.4469 16.568 64.5029 16.744 64.5509 16.896L65.2229 18.784H63.6389L64.3029 16.896ZM70.9083 21C72.6043 21 73.7723 19.808 73.7723 18.088C73.7723 16.344 72.5803 15.152 70.8523 15.152H68.8043V21H70.9083ZM70.7563 16.096C71.9643 16.096 72.6923 16.848 72.6923 18.088C72.6923 19.304 71.9803 20.056 70.8123 20.056H69.8283V16.096H70.7563ZM79.8904 21V16.856L82.6424 21H83.6504V15.152H82.6424V19.296L79.8984 15.152H78.8824V21H79.8904ZM91.2809 18.072C91.2809 16.288 90.1129 15.048 88.4409 15.048C86.7689 15.048 85.6089 16.296 85.6089 18.072C85.6089 19.856 86.7609 21.096 88.4329 21.096C90.1129 21.096 91.2809 19.848 91.2809 18.072ZM90.2009 18.072C90.2009 19.304 89.5129 20.112 88.4409 20.112C87.3689 20.112 86.6809 19.32 86.6809 18.072C86.6809 16.824 87.3689 16.032 88.4409 16.032C89.5129 16.032 90.2009 16.824 90.2009 18.072ZM94.2312 21H95.2392L96.5112 16.744L97.7592 21H98.7512L100.527 15.152H99.4872L98.5432 18.248C98.4552 18.544 98.3752 18.856 98.2632 19.4C98.1672 18.904 98.0792 18.568 97.9832 18.24L97.0792 15.152H95.9512L95.0312 18.24C94.9272 18.576 94.8392 18.88 94.7432 19.4C94.6552 18.888 94.5672 18.56 94.4792 18.24L93.5512 15.152H92.4872L94.2312 21Z" fill="white"/>
<path fill-rule="evenodd" clip-rule="evenodd" d="M77.1328 95.9063H84.916V88.1267H77.1328V95.9063ZM87.4821 80.2152V77.5774H85.0171V80.1943H87.5022V85.352H90.1144V80.2152C89.2027 80.2152 88.342 80.2152 87.4821 80.2152ZM95.3691 93.2519H92.8623V90.6358H90.1514V95.9482L90.1748 95.9264H87.5408V98.4714H90.1748L90.1514 98.4497C90.1514 99.3476 90.1514 100.246 90.1514 101.143L90.1748 101.122H84.9562V103.815L84.9771 103.794H82.2829L82.3063 103.815V98.514H77.071V101.145H74.4328C74.4328 102.089 74.4328 102.95 74.4328 103.812C73.5554 103.812 72.6771 103.812 71.7972 103.812V106.277H74.4128V103.791H77.0961V109H69.2251V103.858H66.5267V106.339H63.8785V109H61.3542V103.773H63.8451V101.123H61.4102V98.4497H66.5619V101.078H71.7763V98.4463H74.3684V93.3012H71.7336V95.9473H69.2142V90.5631H71.7144V88.11H66.5309V93.2544H63.8685L63.8894 93.2761V85.3644H66.5142V82.7709H61.3215V88.0264H56.1414V85.4079H53.4731C53.4731 84.5108 53.4731 83.6137 53.4731 82.7166H56.1849V80.1658H58.6717V72.3251H63.8978V67.1934H69.236C69.236 68.0537 69.236 68.8638 69.236 69.674H66.5192V74.8751H61.3943V77.5547H63.9154V80.1649H66.5711V77.5213H69.236V82.7559H71.7637V85.3594H74.4437V82.7158H77.1053V85.346H82.2837V72.3251H85.0047V74.8952H90.1882V77.497H92.7954V72.3076H90.148V67.1256H87.5015V64.4578L87.4806 64.4812H92.8163V67.1139H97.9721V72.3126H95.3649V80.1833H92.8882V88.054H97.9905V90.5572H95.3465V93.2744L95.3691 93.2519Z" fill="#25182E"/>
<path fill-rule="evenodd" clip-rule="evenodd" d="M24.7095 48.7022H37.6936V35.7273H24.7095V48.7022ZM22 51.406H40.36V33H22V51.406Z" fill="#25182E"/>
<path fill-rule="evenodd" clip-rule="evenodd" d="M24.7041 106.278H37.6849V93.3021H24.7041V106.278ZM22 108.999H40.4144V90.5931H22V108.999Z" fill="#25182E"/>
<path fill-rule="evenodd" clip-rule="evenodd" d="M45.6065 103.817H48.2681V98.4702H50.7967V95.967H53.4733C53.4733 94.1193 53.4733 92.3519 53.4733 90.5836H56.1834V93.2089H58.7078V90.643H61.3786V93.2757H63.8896L63.8687 93.2548V95.962H56.1684C56.1684 96.8474 56.1684 97.6584 56.1684 98.4694C55.2901 98.4694 54.4127 98.4694 53.531 98.4694V101.081H56.1483V98.4485H58.6233V103.844H53.521V106.343H56.1566V109H50.8109V106.376H48.2865V109H42.9399V106.351H45.6291V103.794L45.6065 103.817Z" fill="#25182E"/>
<path fill-rule="evenodd" clip-rule="evenodd" d="M22.0005 53.9294H24.6504V56.614H27.209L27.1873 56.5906V59.2836L27.209 59.2602C25.4726 59.2644 23.737 59.2686 22.0005 59.2736V53.9294Z" fill="#25182E"/>
<path fill-rule="evenodd" clip-rule="evenodd" d="M90.1517 103.794V106.298H87.4918V109H84.9666C84.9708 107.264 84.9741 105.529 84.9775 103.794L84.9565 103.815C86.6955 103.815 88.4353 103.815 90.1751 103.815L90.1517 103.794Z" fill="#25182E"/>
<path fill-rule="evenodd" clip-rule="evenodd" d="M79.6206 109V103.815C80.5491 103.815 81.4273 103.815 82.3064 103.815L82.283 103.793C82.2864 105.529 82.2897 107.264 82.2939 109H79.6206Z" fill="#25182E"/>
<path fill-rule="evenodd" clip-rule="evenodd" d="M92.8372 109C92.8338 107.265 92.8305 105.529 92.8271 103.794C93.6753 103.803 94.5226 103.811 95.3708 103.819L95.3482 103.797C95.3524 105.531 95.3574 107.266 95.3616 109H92.8372Z" fill="#25182E"/>
<path fill-rule="evenodd" clip-rule="evenodd" d="M24.6838 77.541C23.7896 77.5377 22.8947 77.5343 22.0005 77.531V74.8589L24.6838 74.8489C24.6838 75.7468 24.6838 76.6439 24.6838 77.541Z" fill="#25182E"/>
<path fill-rule="evenodd" clip-rule="evenodd" d="M22.0005 61.7968H24.6838V64.4789L22.0005 64.4688V61.7968Z" fill="#25182E"/>
<path fill-rule="evenodd" clip-rule="evenodd" d="M22.0005 80.2027C22.8947 80.1993 23.7896 80.196 24.6838 80.1926V82.7259H22.0005V80.2027Z" fill="#25182E"/>
<path fill-rule="evenodd" clip-rule="evenodd" d="M77.1523 61.7606H82.2622V59.3226H77.1523V61.7606ZM71.737 48.7239V53.9117H69.2619V56.5461H79.5996V53.9752H82.2561V56.6163H87.4998L87.4772 56.5938V59.2566H85.003V61.764H87.4806C87.4806 62.7221 87.4806 63.6017 87.4806 64.4812L87.5015 64.4578C83.1386 64.4653 78.7757 64.472 74.4128 64.4795V59.3235H71.7595V64.4795H69.19V59.2433H63.8635V56.6122H61.3441C61.3441 54.874 61.3441 53.135 61.3433 51.3968H63.9053V48.7239H66.5619V51.3566H69.2151V48.7239C70.0632 48.7306 70.9122 48.7381 71.7604 48.7448L71.737 48.7239Z" fill="#25182E"/>
<path fill-rule="evenodd" clip-rule="evenodd" d="M82.3306 48.7039H95.3114V35.729H82.3306V48.7039ZM79.6836 51.3632H98.0001V33.0559H79.6836V51.3632Z" fill="#25182E"/>
<path fill-rule="evenodd" clip-rule="evenodd" d="M27.2109 64.4792C27.2101 62.7394 27.2092 61.0004 27.2084 59.2605L27.1875 59.2839H32.555V56.5909L32.5332 56.6144C33.3822 56.6144 34.2312 56.6144 35.0794 56.6144L35.0585 56.5909V61.8239H32.6035V64.5026H35.0877V67.1295H37.7518V69.6143H40.405V67.1295C41.2532 67.1304 42.1022 67.1304 42.9503 67.1304V72.2856H32.5199V67.1295H29.8608L29.8817 67.1513V64.4575H27.1875L27.2109 64.4792Z" fill="#25182E"/>
<path fill-rule="evenodd" clip-rule="evenodd" d="M48.2988 51.4168V43.562H50.7847V40.9292H53.4655V43.5168H56.1213V46.0752H58.6917L58.6708 46.0518C58.6774 46.9497 58.6841 47.8476 58.6908 48.7447H56.1171V51.3574H53.458V46.0978H50.7956V51.3951H48.2754L48.2988 51.4168Z" fill="#25182E"/>
<path fill-rule="evenodd" clip-rule="evenodd" d="M58.6917 46.0751V40.9066H61.3298V38.2077H63.8894L63.8676 38.1843V40.9024H69.1807V43.5544H66.5626V46.0718C63.932 46.0651 61.3014 46.0584 58.6699 46.0517L58.6917 46.0751Z" fill="#25182E"/>
<path fill-rule="evenodd" clip-rule="evenodd" d="M66.5644 35.6824V33.0513H77.0518V35.6372H71.7362V38.2056L71.7596 38.1847H69.1992V35.6606H66.541L66.5644 35.6824Z" fill="#25182E"/>
<path fill-rule="evenodd" clip-rule="evenodd" d="M74.4297 48.7209C73.5322 48.7217 72.6347 48.7226 71.7363 48.7234L71.7597 48.7452C71.7597 45.2245 71.7597 41.7046 71.7597 38.1848L71.7363 38.2057H74.4071V48.7435L74.4297 48.7209Z" fill="#25182E"/>
<path fill-rule="evenodd" clip-rule="evenodd" d="M95.4034 59.3065V56.6411H92.894V53.9774H97.9939V59.2856C97.1315 59.2856 96.2557 59.2856 95.3791 59.2856C95.3783 59.2848 95.4034 59.3065 95.4034 59.3065Z" fill="#25182E"/>
<path fill-rule="evenodd" clip-rule="evenodd" d="M35.0794 56.6142V53.9421H42.9503L42.9286 53.9187L42.9495 56.6125C40.3189 56.605 37.6882 56.5975 35.0576 56.5908L35.0794 56.6142Z" fill="#25182E"/>
<path fill-rule="evenodd" clip-rule="evenodd" d="M42.9505 53.9423V48.7938H45.5886V51.4166H48.2987L48.2753 51.3957C48.282 52.2434 48.2895 53.0912 48.297 53.939C46.5079 53.9323 44.7179 53.9256 42.9287 53.9189L42.9505 53.9423Z" fill="#25182E"/>
<path fill-rule="evenodd" clip-rule="evenodd" d="M27.2088 56.6143V53.984H32.5336C32.5336 54.8594 32.5336 55.7364 32.5336 56.6143L32.5553 56.5909C30.7653 56.5909 28.9762 56.5909 27.187 56.5909L27.2088 56.6143Z" fill="#25182E"/>
<path fill-rule="evenodd" clip-rule="evenodd" d="M95.3707 103.819V98.5211H97.983V103.797C97.1038 103.797 96.2256 103.797 95.3481 103.797L95.3707 103.819Z" fill="#25182E"/>
<path fill-rule="evenodd" clip-rule="evenodd" d="M45.6212 38.1809H42.9897V33.0391H45.5986V38.2034L45.6212 38.1809Z" fill="#25182E"/>
<path fill-rule="evenodd" clip-rule="evenodd" d="M95.3695 61.7828H90.2153V59.3047C91.9577 59.3047 93.6791 59.3047 95.4021 59.3055C95.403 59.3063 95.3779 59.2846 95.3787 59.2854C95.3687 60.1257 95.3578 60.9651 95.3469 61.8053L95.3695 61.7828Z" fill="#25182E"/>
<path fill-rule="evenodd" clip-rule="evenodd" d="M56.1978 38.1576H58.6268V33.0618H56.1978V38.1576Z" fill="#25182E"/>
<path fill-rule="evenodd" clip-rule="evenodd" d="M45.5717 40.8339V43.4792H42.9888V40.8548C43.8411 40.8548 44.7177 40.8548 45.596 40.8548C45.5968 40.8556 45.5717 40.8339 45.5717 40.8339Z" fill="#25182E"/>
<path fill-rule="evenodd" clip-rule="evenodd" d="M95.3467 93.2745H97.9773V95.8847H95.3693C95.3693 95.0035 95.3693 94.1281 95.3693 93.252L95.3467 93.2745Z" fill="#25182E"/>
<path fill-rule="evenodd" clip-rule="evenodd" d="M74.4077 48.7433H77.0383V51.3535H74.4303C74.4303 50.4723 74.4303 49.5969 74.4303 48.7207L74.4077 48.7433Z" fill="#25182E"/>
<path fill-rule="evenodd" clip-rule="evenodd" d="M87.4996 56.616V53.9874H90.1119V56.5934C89.2294 56.5934 88.3536 56.5934 87.4771 56.5934L87.4996 56.616Z" fill="#25182E"/>
<path fill-rule="evenodd" clip-rule="evenodd" d="M45.5987 38.2035H48.2335V40.8354C47.336 40.8354 46.4552 40.8354 45.5728 40.8346C45.5719 40.8337 45.597 40.8563 45.5962 40.8555C45.6037 39.9634 45.6129 39.0722 45.6213 38.1809L45.5987 38.2035Z" fill="#25182E"/>
<path fill-rule="evenodd" clip-rule="evenodd" d="M92.8472 103.814C91.9489 103.808 91.0497 103.8 90.1514 103.794L90.1748 103.815V101.121L90.1514 101.143H92.8472V103.814Z" fill="#25182E"/>
<path fill-rule="evenodd" clip-rule="evenodd" d="M95.3472 61.8052H97.977V64.4162H95.3698C95.3698 63.5341 95.3698 62.6588 95.3698 61.7826L95.3472 61.8052Z" fill="#25182E"/>
<path fill-rule="evenodd" clip-rule="evenodd" d="M63.9125 35.6295H61.4141V33.0486H63.8925C63.8925 33.8997 63.8925 34.7767 63.8916 35.6538C63.8908 35.6546 63.9125 35.6295 63.9125 35.6295Z" fill="#25182E"/>
<path fill-rule="evenodd" clip-rule="evenodd" d="M90.1514 95.9479H92.782V98.4502C91.9054 98.4502 91.0288 98.4502 90.1514 98.4502L90.1748 98.4711C90.1748 97.6234 90.1748 96.7748 90.1748 95.9261L90.1514 95.9479Z" fill="#25182E"/>
<path fill-rule="evenodd" clip-rule="evenodd" d="M50.8481 38.1425H53.4236V35.712H50.8481V38.1425Z" fill="#25182E"/>
<path fill-rule="evenodd" clip-rule="evenodd" d="M63.8894 38.208C63.897 37.3493 63.9036 36.4899 63.912 35.6304C63.9128 35.6296 63.8903 35.6546 63.8911 35.6538C64.7827 35.663 65.6736 35.673 66.5644 35.6822L66.541 35.6613V38.1846H63.8677L63.8894 38.208Z" fill="#25182E"/>
<path fill-rule="evenodd" clip-rule="evenodd" d="M29.8838 82.7369C29.8838 80.1075 29.8838 77.4781 29.8838 74.8486L29.8604 74.8695H40.4021C40.4021 75.8193 40.4021 76.6805 40.4021 77.5416L40.4255 77.5199H32.5211V82.7152H29.8604L29.8838 82.7369Z" fill="#25182E"/>
<path fill-rule="evenodd" clip-rule="evenodd" d="M42.9265 82.7156C42.934 84.5039 42.9416 86.2914 42.9491 88.0798H29.8838C29.8838 87.1467 29.8838 86.2672 29.8838 85.3876L29.8604 85.4085H40.4038C40.4038 84.4404 40.4038 83.5784 40.4038 82.7164C41.2528 82.7231 42.1009 82.7298 42.9499 82.7373L42.9265 82.7156Z" fill="#25182E"/>
<path fill-rule="evenodd" clip-rule="evenodd" d="M42.9297 88.0599H45.5862V93.2552H48.2955V95.8847H42.9297V88.0599Z" fill="#25182E"/>
<path fill-rule="evenodd" clip-rule="evenodd" d="M53.4933 85.3879C53.4933 87.1261 53.4933 88.8651 53.4933 90.6033C52.5958 90.6033 51.6982 90.6033 50.7999 90.6033V88.0968H48.3374V85.3879H53.4933Z" fill="#25182E"/>
<path fill-rule="evenodd" clip-rule="evenodd" d="M24.6636 74.869V69.6762H27.2089L27.1871 69.6528V72.3625H29.8604V74.8699L29.8838 74.8481C28.144 74.8548 26.4034 74.8624 24.6636 74.869Z" fill="#25182E"/>
<path fill-rule="evenodd" clip-rule="evenodd" d="M45.6287 103.795H42.9956V98.5132H45.6062C45.6062 100.287 45.6062 102.052 45.6062 103.817L45.6287 103.795Z" fill="#25182E"/>
<path fill-rule="evenodd" clip-rule="evenodd" d="M27.2111 85.405V82.7371H29.8843L29.8609 82.7153V85.4091L29.8843 85.3874C28.986 85.3857 28.0877 85.3841 27.1885 85.3824L27.2111 85.405Z" fill="#25182E"/>
<path fill-rule="evenodd" clip-rule="evenodd" d="M48.2754 93.2753H50.8199V90.5831H48.2754V93.2753Z" fill="#25182E"/>
<path fill-rule="evenodd" clip-rule="evenodd" d="M27.1891 85.3823V88.0117H24.7266V85.4049C25.558 85.4049 26.3844 85.4049 27.2116 85.4049L27.1891 85.3823Z" fill="#25182E"/>
<path fill-rule="evenodd" clip-rule="evenodd" d="M24.6631 80.2132H27.1423V77.5211H24.6631V80.2132Z" fill="#25182E"/>
<path fill-rule="evenodd" clip-rule="evenodd" d="M66.5415 98.4707H69.2349V95.9274H66.5415V98.4707Z" fill="#25182E"/>
<path fill-rule="evenodd" clip-rule="evenodd" d="M27.2088 69.6767C27.2096 68.8281 27.2104 67.9786 27.2113 67.13L27.187 67.1509H29.882L29.8603 67.13V69.6532H27.187L27.2088 69.6767Z" fill="#25182E"/>
<path fill-rule="evenodd" clip-rule="evenodd" d="M24.6636 64.4584C25.5126 64.465 26.3616 64.4726 27.2114 64.4793L27.1871 64.4575C27.1871 65.3555 27.1871 66.2534 27.1871 67.1513L27.2114 67.1296H24.6636V64.4584Z" fill="#25182E"/>
<path fill-rule="evenodd" clip-rule="evenodd" d="M42.9296 56.5913H48.2762V53.9192H50.7838V56.6138H53.4939L53.473 56.5904V59.2842L53.4939 59.26H50.8324V61.7841H48.3213V64.4344H50.783V69.6765H53.4939L53.473 69.6531V72.3461H56.1672L56.1438 72.3252V77.5012H50.8206V80.2126H45.6405V82.7158H42.9271L42.9505 82.7367V80.2126H40.4044L40.4261 77.5205L40.4019 77.5414C42.9948 77.5414 45.587 77.5414 48.2611 77.5414V74.8718H50.7763V72.3645H48.3029V69.6849H45.6481V67.1499H42.9296V64.4862H45.5753V61.8292H42.9296V56.5913Z" fill="#25182E"/>
<path fill-rule="evenodd" clip-rule="evenodd" d="M71.7392 64.4585C72.6367 64.4585 73.5343 64.4585 74.4326 64.4585V67.1172H82.3027V72.3459H79.6102V69.7123H74.4318V72.3108H71.7802V77.5412H69.2148C69.2148 74.9118 69.2148 72.2832 69.2148 69.6538H71.7392V64.4585Z" fill="#25182E"/>
<path fill-rule="evenodd" clip-rule="evenodd" d="M53.4944 56.6142V53.9847H58.6561V56.5916H61.3645V59.2545H58.7046V61.7359H53.4944V59.2603L53.4727 59.2837H56.1075V56.5908H53.4727L53.4944 56.6142Z" fill="#25182E"/>
<path fill-rule="evenodd" clip-rule="evenodd" d="M58.7245 69.6984V64.483H61.3626L61.34 64.4604V69.6783C60.4492 69.6783 59.5751 69.6783 58.7002 69.6775C58.6994 69.6767 58.7245 69.6984 58.7245 69.6984Z" fill="#25182E"/>
<path fill-rule="evenodd" clip-rule="evenodd" d="M61.3624 64.4828V61.8542H63.8266V64.4603C62.9935 64.4603 62.1671 64.4603 61.3398 64.4603L61.3624 64.4828Z" fill="#25182E"/>
<path fill-rule="evenodd" clip-rule="evenodd" d="M53.4944 69.6767V67.196H56.1443C56.1443 68.0212 56.1443 68.8481 56.1443 69.6741L56.1677 69.6532H53.4727L53.4944 69.6767Z" fill="#25182E"/>
<path fill-rule="evenodd" clip-rule="evenodd" d="M58.6914 72.3458C57.8424 72.3391 56.9934 72.3316 56.1436 72.3249L56.1678 72.3466V69.6528L56.1436 69.6746C57.0034 69.6821 57.8633 69.6896 58.7232 69.698C58.724 69.6988 58.6989 69.6762 58.6997 69.6771C58.6981 70.5675 58.6947 71.4562 58.6914 72.3458Z" fill="#25182E"/>
<path fill-rule="evenodd" clip-rule="evenodd" d="M79.6306 72.3256V82.7362H77.0861V80.223H74.4697V77.5761H77.0686V72.3256H79.6306Z" fill="#25182E"/>
<path fill-rule="evenodd" clip-rule="evenodd" d="M50.8008 82.7357H53.4941V80.1924H50.8008V82.7357Z" fill="#25182E"/>
<path fill-rule="evenodd" clip-rule="evenodd" d="M79.6748 93.204H82.2511V90.6298H79.6748V93.204Z" fill="#25182E"/>
<path fill-rule="evenodd" clip-rule="evenodd" d="M27.251 46.0033H35.0291V38.2338H27.251V46.0033Z" fill="#25182E"/>
<path fill-rule="evenodd" clip-rule="evenodd" d="M27.2329 103.748H35.006V95.9799H27.2329V103.748Z" fill="#25182E"/>
<path fill-rule="evenodd" clip-rule="evenodd" d="M58.6709 48.7241H61.3643C61.3643 49.6597 61.3643 50.5375 61.3643 51.4163H58.6709V48.7241Z" fill="#25182E"/>
<path fill-rule="evenodd" clip-rule="evenodd" d="M69.2349 48.7443H66.5415C66.5415 47.8472 66.5415 46.9501 66.5415 46.0521H69.2349V48.7443Z" fill="#25182E"/>
<path fill-rule="evenodd" clip-rule="evenodd" d="M85.022 45.9999H92.7934V38.2303H85.022V45.9999Z" fill="#25182E"/>
<path fill-rule="evenodd" clip-rule="evenodd" d="M37.7324 67.1506H40.4258V64.5245H37.7324V67.1506Z" fill="#25182E"/>
<path fill-rule="evenodd" clip-rule="evenodd" d="M37.8052 61.7539H40.3664V59.3033H37.8052V61.7539Z" fill="#25182E"/>
<path fill-rule="evenodd" clip-rule="evenodd" d="M40.4252 80.1926C40.4252 81.0404 40.4252 81.8882 40.4252 82.7359H35.1255V80.1926H40.4252Z" fill="#25182E"/>
<path d="M0.5 0.5H104C112.56 0.5 119.5 7.43959 119.5 16V119.5H16C7.43959 119.5 0.5 112.56 0.5 104V0.5Z" stroke="#A775C8"/>
</svg>
