<?xml version="1.0" encoding="UTF-8"?>
<svg width="27px" height="27px" viewBox="0 0 27 27" version="1.1" xmlns="http://www.w3.org/2000/svg" xmlns:xlink="http://www.w3.org/1999/xlink">
    <title>Fill 3</title>
    <g id="Symbols" stroke="none" stroke-width="1" fill="none" fill-rule="evenodd">
        <g id="Elements-/-Footer" transform="translate(-1050.000000, -340.000000)" fill="#282828">
            <path d="M1055.28995,340.519402 C1052.39515,340.519402 1050.04925,342.843845 1050.04925,345.712162 L1050.04925,361.290443 C1050.04925,364.157393 1052.39515,366.481836 1055.28995,366.481836 L1071.01204,366.481836 C1073.90546,366.481836 1076.25274,364.157393 1076.25274,361.290443 L1076.25274,345.712162 C1076.25274,342.843845 1073.90546,340.519402 1071.01204,340.519402 L1055.28995,340.519402 Z M1062.60762,361.928605 C1062.22698,361.875311 1061.9677,361.61294 1061.88909,361.186587 C1061.81324,360.772533 1061.90978,360.394008 1062.00494,360.030515 C1062.01735,359.984053 1062.02976,359.938958 1062.03941,359.892497 C1062.05321,359.844669 1062.06976,359.753112 1062.03804,359.706651 C1062.02149,359.682053 1061.95667,359.62056 1061.71394,359.575465 L1061.61188,359.556334 C1060.72924,359.390986 1059.89762,359.235203 1059.05635,358.907239 C1057.68826,358.368832 1056.50082,357.547556 1055.6237,356.529501 C1054.6914,355.447221 1054.1301,354.162696 1054.00322,352.811212 C1053.75773,350.201167 1055.42096,347.59932 1058.23853,346.184976 C1059.70179,345.449791 1061.39674,345.063067 1063.14134,345.063067 C1064.43359,345.063067 1065.68997,345.270777 1066.87465,345.680732 C1068.25516,346.160379 1069.48672,346.924262 1070.43419,347.894488 C1071.38579,348.868814 1072.00088,350.009854 1072.2243,351.212388 L1072.23257,351.211022 L1072.23809,351.245185 C1072.24361,351.29028 1072.24912,351.327176 1072.25188,351.361338 L1072.27395,351.528053 L1072.27395,351.530786 L1072.27395,351.533519 L1072.28084,351.577248 L1072.30843,351.903845 C1072.41462,353.536832 1071.85469,355.194415 1070.74311,356.502171 C1069.56533,357.886452 1067.99588,358.9578 1066.61123,359.902062 C1065.97683,360.333881 1065.13556,360.892786 1064.24327,361.387465 L1064.19362,361.416162 C1063.81849,361.623872 1063.25443,361.939538 1062.75656,361.939538 L1062.60762,361.928605 Z M1066.26921,350.187501 C1066.02924,350.187501 1065.83616,350.370614 1065.83616,350.597456 L1065.83616,353.734976 C1065.83616,353.960452 1066.02924,354.143565 1066.26921,354.143565 L1068.411,354.143565 C1068.65097,354.143565 1068.84543,353.960452 1068.84543,353.734976 C1068.84543,353.509501 1068.65097,353.325022 1068.411,353.325022 L1066.70088,353.325022 L1066.70088,352.576171 L1068.03588,352.576171 C1068.27447,352.576171 1068.46754,352.391691 1068.46754,352.166216 C1068.46754,351.939375 1068.27447,351.756262 1068.03588,351.756262 L1066.70088,351.756262 L1066.70088,351.006044 L1068.34618,351.006044 C1068.58477,351.006044 1068.77785,350.822931 1068.77785,350.597456 C1068.77785,350.370614 1068.58477,350.187501 1068.34618,350.187501 L1066.26921,350.187501 Z M1064.39083,350.660316 L1064.39083,352.539275 L1062.83104,350.509999 C1062.72071,350.367881 1062.52625,350.307755 1062.34696,350.361049 C1062.16767,350.41571 1062.04769,350.574225 1062.04769,350.751872 L1062.04769,353.799203 C1062.04769,354.024678 1062.24215,354.209157 1062.48212,354.209157 C1062.71933,354.209157 1062.91378,354.024678 1062.91378,353.799203 L1062.91378,352.010433 L1064.47358,354.03971 C1064.55633,354.147664 1064.68735,354.209157 1064.8225,354.209157 C1064.86801,354.209157 1064.91352,354.200958 1064.95766,354.18866 C1065.13556,354.133999 1065.25831,353.978216 1065.25831,353.799203 L1065.25831,350.660316 C1065.25831,350.434841 1065.06247,350.251728 1064.8225,350.251728 C1064.58529,350.251728 1064.39083,350.434841 1064.39083,350.660316 L1064.39083,350.660316 Z M1060.47686,350.660316 L1060.47686,353.799203 C1060.47686,354.024678 1060.67132,354.209157 1060.90991,354.209157 C1061.1485,354.209157 1061.34295,354.024678 1061.34295,353.799203 L1061.34295,350.660316 C1061.34295,350.434841 1061.1485,350.251728 1060.90991,350.251728 C1060.67132,350.251728 1060.47686,350.434841 1060.47686,350.660316 L1060.47686,350.660316 Z M1057.67584,350.672614 L1057.67584,353.810135 C1057.67584,354.03561 1057.8703,354.218723 1058.10889,354.218723 L1059.69213,354.218723 C1059.93072,354.218723 1060.12518,354.03561 1060.12381,353.810135 C1060.12381,353.58466 1059.93072,353.401547 1059.69213,353.401547 L1058.54332,353.401547 L1058.54332,350.672614 C1058.54332,350.447139 1058.34748,350.264026 1058.10889,350.264026 C1057.8703,350.264026 1057.67584,350.447139 1057.67584,350.672614 L1057.67584,350.672614 Z" id="Fill-3"></path>
        </g>
    </g>
</svg>