<?xml version="1.0" encoding="UTF-8"?>
<svg width="28px" height="27px" viewBox="0 0 28 27" version="1.1" xmlns="http://www.w3.org/2000/svg" xmlns:xlink="http://www.w3.org/1999/xlink">
    <title>Fill 5</title>
    <g id="Symbols" stroke="none" stroke-width="1" fill="none" fill-rule="evenodd">
        <g id="Elements-/-Footer" transform="translate(-1002.000000, -340.000000)" fill="#282828">
            <path d="M1015.9876,340.519402 L1015.7366,340.519402 C1013.77548,340.519402 1011.9564,340.571329 1010.1856,340.677918 C1008.4934,340.77904 1006.94878,341.359809 1005.71859,342.3519 C1004.53116,343.311194 1003.72023,344.609384 1003.30925,346.208207 C1002.95205,347.59932 1002.93137,348.965836 1002.91482,350.28589 C1002.90103,351.231519 1002.88723,352.356162 1002.88448,353.502669 C1002.88723,354.645076 1002.90103,355.768352 1002.91482,356.715348 C1002.93137,358.036768 1002.95205,359.403284 1003.30925,360.794397 C1003.72023,362.391854 1004.53116,363.690044 1005.71859,364.649338 C1006.94878,365.642795 1008.4934,366.222198 1010.1856,366.324687 C1012.03087,366.435375 1013.92994,366.487302 1015.98209,366.481836 L1016.24274,366.481836 C1018.20111,366.481836 1020.01742,366.431275 1021.78547,366.324687 C1023.47766,366.222198 1025.02229,365.642795 1026.2511,364.649338 C1027.43991,363.690044 1028.24946,362.391854 1028.66182,360.794397 C1029.02177,359.403284 1029.03832,358.036768 1029.05763,356.715348 C1029.07004,355.768352 1029.08383,354.645076 1029.08659,353.502669 L1029.08659,353.498569 C1029.08383,352.356162 1029.07004,351.231519 1029.05763,350.28589 C1029.03832,348.965836 1029.02039,347.597954 1028.66182,346.208207 C1028.24946,344.609384 1027.43991,343.311194 1026.2511,342.3519 C1025.02229,341.359809 1023.47766,340.77904 1021.78547,340.677918 C1019.9995,340.569963 1018.16387,340.518035 1016.18482,340.518035 C1016.11862,340.518035 1016.0538,340.518035 1015.9876,340.519402 M1010.30972,364.29951 C1009.03126,364.222986 1007.92106,363.811664 1007.01222,363.076479 C1006.17233,362.39732 1005.59309,361.461257 1005.29244,360.292886 C1004.99455,359.134081 1004.978,357.891918 1004.96145,356.688017 C1004.94766,355.745121 1004.93387,354.630044 1004.93249,353.502669 C1004.93387,352.369827 1004.94766,351.25475 1004.96145,350.313221 C1004.978,349.10932 1004.99455,347.867157 1005.29244,346.709719 C1005.59309,345.541348 1006.17233,344.603918 1007.01222,343.924759 C1007.92106,343.19094 1009.03126,342.779619 1010.30972,342.703094 C1012.11224,342.593773 1013.96718,342.541845 1015.9876,342.547311 C1018.00389,342.543212 1019.85882,342.593773 1021.65997,342.703094 C1022.94118,342.779619 1024.04862,343.19094 1024.95885,343.924759 C1025.80012,344.603918 1026.3766,345.541348 1026.67725,346.709719 C1026.97652,347.867157 1026.99445,349.110687 1027.00962,350.313221 C1027.02341,351.25475 1027.03582,352.369827 1027.03996,353.499936 C1027.03582,354.631411 1027.02341,355.746488 1027.00962,356.688017 C1026.99445,357.891918 1026.97652,359.134081 1026.67725,360.292886 C1026.3766,361.461257 1025.80012,362.39732 1024.95885,363.076479 C1024.04862,363.811664 1022.94118,364.222986 1021.65997,364.29951 C1019.85882,364.408832 1018.00389,364.459393 1015.98209,364.453927 L1015.72695,364.453927 C1013.80995,364.453927 1012.03501,364.403366 1010.30972,364.29951 M1021.5124,346.655058 C1021.5124,347.494099 1022.20059,348.17599 1023.04875,348.17599 C1023.89554,348.17599 1024.58373,347.494099 1024.58373,346.655058 C1024.58373,345.814651 1023.89554,345.132759 1023.04875,345.132759 C1022.20059,345.132759 1021.5124,345.814651 1021.5124,346.655058 M1009.53603,353.499936 C1009.53603,356.995483 1012.40738,359.840569 1015.93382,359.840569 C1019.46025,359.840569 1022.33161,356.995483 1022.33161,353.499936 C1022.33161,350.007121 1019.46025,347.162035 1015.93382,347.162035 C1012.40738,347.162035 1009.53603,350.007121 1009.53603,353.499936 M1011.58404,353.499936 C1011.58404,351.123565 1013.53689,349.189945 1015.93382,349.189945 C1018.3335,349.189945 1020.28498,351.123565 1020.28498,353.499936 C1020.28498,355.876307 1018.3335,357.811293 1015.93382,357.811293 C1013.53689,357.811293 1011.58404,355.876307 1011.58404,353.499936" id="Fill-5"></path>
        </g>
    </g>
</svg>