<?xml version="1.0" encoding="UTF-8"?>
<svg width="27px" height="27px" viewBox="0 0 27 27" version="1.1" xmlns="http://www.w3.org/2000/svg" xmlns:xlink="http://www.w3.org/1999/xlink">
    <title>Group 4</title>
    <g id="Symbols" stroke="none" stroke-width="1" fill="none" fill-rule="evenodd">
        <g id="Elements-/-Footer" transform="translate(-1096.000000, -340.000000)" fill="#282828">
            <g id="Group-4" transform="translate(1096.143399, 340.519402)">
                <path d="M7.24443841,10.0235303 C7.24443841,8.93441719 7.67748562,8.03798281 8.47324433,7.3041638 C8.7366584,7.06092398 9.05523771,6.95706878 9.41519096,6.98986516 C9.6068902,7.00626335 9.79996857,7.01582896 9.99166781,7.00626335 C10.1750923,6.99533122 10.3130054,7.07185611 10.4205776,7.21124072 C10.5019464,7.31646244 10.561249,7.43398281 10.6122769,7.55560271 C10.9570597,8.36867964 11.3046007,9.18312308 11.6493835,9.9962 C11.7210984,10.165648 11.7155818,10.3282633 11.6383505,10.4990778 C11.4494095,10.9213312 11.1335885,11.2506615 10.8232839,11.5813584 C10.5584907,11.8642271 10.5336664,11.9913131 10.7350195,12.3192769 C11.6480044,13.8087792 12.8547442,14.9867158 14.4503991,15.7478652 C14.6972636,15.8653855 14.9468863,15.9733403 15.1978882,16.0799285 C15.490264,16.205648 15.6488641,16.168752 15.8543546,15.9296118 C16.2018957,15.5278561 16.5508159,15.127467 16.8638787,14.698381 C17.0335118,14.4660733 17.1783206,14.4168787 17.4527677,14.5070688 C17.8996063,14.653286 18.3133456,14.8773946 18.7367389,15.0755394 C19.2180557,15.3010145 19.693856,15.5415213 20.1765519,15.7669964 C20.387559,15.866752 20.4951312,16.0102362 20.4882356,16.2521095 C20.4772025,16.7112588 20.3806633,17.1499104 20.2096511,17.5721638 C20.1448319,17.7306796 20.0345014,17.8632317 19.9131378,17.9834851 C19.4221671,18.4754308 18.8415529,18.8143267 18.1630203,18.9892407 C17.5051747,19.1573222 16.8583622,19.1204262 16.2101705,18.9181819 C15.2654656,18.6230145 14.3248981,18.319648 13.4353585,17.8850959 C12.3196413,17.3412226 11.3625242,16.5800733 10.4922924,15.7082362 C9.83582598,15.0495756 9.25383261,14.3307882 8.71735056,13.575105 C8.31050685,13.0039014 7.91331706,12.4299647 7.63886994,11.7808697 C7.40165937,11.2178652 7.24581754,10.6370959 7.24443841,10.0235303" id="Fill-142"></path>
                <path d="M13.6271956,0 C6.40468541,0 0.550273359,5.80085973 0.550273359,12.9573032 C0.550273359,15.274914 1.16674502,17.4490407 2.24246737,19.330733 L0,25.9624344 L7.17561976,24.2269593 C9.08019998,25.2996742 11.2799143,25.9159729 13.6271956,25.9159729 C20.8497059,25.9159729 26.7041179,20.1137466 26.7041179,12.9573032 C26.7041179,5.80085973 20.8497059,0 13.6271956,0 M13.6271956,2.25338462 C19.5836634,2.25338462 24.4299305,7.05532127 24.4299305,12.9573032 C24.4299305,18.8592851 19.5836634,23.6612217 13.6271956,23.6612217 C11.7612311,23.6612217 9.91871177,23.1802081 8.29961171,22.2687421 L7.51488604,21.825991 L6.63637945,22.0378009 L3.4671359,22.8044163 L4.39942861,20.0467873 L4.72076618,19.0943258 L4.22152068,18.2211222 C3.30715668,16.6209321 2.82446075,14.800733 2.82446075,12.9573032 C2.82446075,7.05532127 7.67072787,2.25338462 13.6271956,2.25338462" id="Fill-143"></path>
            </g>
        </g>
    </g>
</svg>