<?xml version="1.0" encoding="UTF-8"?>
<svg width="27px" height="27px" viewBox="0 0 27 27" version="1.1" xmlns="http://www.w3.org/2000/svg" xmlns:xlink="http://www.w3.org/1999/xlink">
    <title>Fill 7</title>
    <g id="Symbols" stroke="none" stroke-width="1" fill="none" fill-rule="evenodd">
        <g id="Elements-/-Footer" transform="translate(-955.000000, -340.000000)" fill="#282828">
            <path d="M960.959301,340.519402 C958.064505,340.519402 955.718602,342.843845 955.718602,345.712162 L955.718602,361.290443 C955.718602,364.157393 958.064505,366.481836 960.959301,366.481836 L969.606454,366.481836 L969.606454,357.807194 L966.790268,357.807194 C966.54892,357.807194 966.350325,357.611782 966.350325,357.369909 L966.350325,353.852497 C966.350325,353.613357 966.54892,353.416578 966.790268,353.416578 L969.606454,353.416578 L969.606454,350.989646 C969.606454,347.790633 971.637914,345.724461 974.783712,345.724461 L977.584728,345.72856 C977.826076,345.72856 978.02605,345.925338 978.02605,346.165845 L978.02605,349.431818 C978.02605,349.670958 977.826076,349.86637 977.583349,349.86637 L975.696697,349.867737 C974.397556,349.867737 974.158966,350.370614 974.158966,351.358605 L974.158966,353.416578 L977.452331,353.416578 C977.569558,353.416578 977.681267,353.46304 977.765394,353.545031 C977.846763,353.627022 977.893653,353.73771 977.893653,353.852497 L977.892274,357.371275 C977.892274,357.611782 977.695058,357.807194 977.452331,357.807194 L974.158966,357.807194 L974.158966,366.481836 L976.680018,366.481836 C979.574814,366.481836 981.922096,364.157393 981.922096,361.290443 L981.922096,345.712162 C981.922096,342.843845 979.574814,340.519402 976.680018,340.519402 L960.959301,340.519402 Z" id="Fill-7"></path>
        </g>
    </g>
</svg>