<?xml version="1.0" encoding="UTF-8"?>
<svg width="41px" height="41px" viewBox="0 0 41 41" version="1.1" xmlns="http://www.w3.org/2000/svg" xmlns:xlink="http://www.w3.org/1999/xlink">
    <title>Group 2</title>
    <g id="First---Phase-one" stroke="none" stroke-width="1" fill="none" fill-rule="evenodd">
        <g id="Home-page---template-Copy" transform="translate(-998.000000, -3777.000000)">
            <g id="Group-22" transform="translate(-1.000000, 3594.213270)">
                <g id="Elements-/-Footer" transform="translate(0.027397, 124.163558)">
                    <g id="Group-4" transform="translate(856.000000, 52.000000)">
                        <g id="Group-2" transform="translate(143.000000, 7.194745)">
                            <path d="M3.95180401,40 C1.76963386,40 0,38.2303661 0,36.048196 L0,3.95180401 C0,1.76963386 1.76963386,0 3.95180401,0 L36.048196,0 C38.2310337,0 40,1.76963386 40,3.95180401 L40,36.048196 C40,38.2303661 38.2310337,40 36.048196,40 L3.95180401,40 Z" id="Fill-57" fill="#C9ABDD"></path>
                            <path d="M29.04616,29.690531 L29.04616,22.6740763 C26.9374186,22.4965121 25.2278629,22.5258836 23.8534094,22.8850172 C20.2901105,23.8162278 18.5932379,26.2347051 17.9310437,28.3581322 C17.6313207,29.3180468 17.5331932,29.9895865 17.5331932,29.9895865 L17.5331932,11.161777 L10.9539735,11.161777 L10.9539735,30.8981009 L27.8385902,30.8981009 C28.5054571,30.8981009 29.04616,30.357398 29.04616,29.690531" id="Fill-58" fill="#FFFFFF"></path>
                            <path d="M29.04616,7.0468943 C26.7778779,7.0468943 24.9321451,8.89262708 24.9321451,11.1615767 C24.9321451,13.4298588 26.7778779,15.2755916 29.04616,15.2755916 C31.3144421,15.2755916 33.1601749,13.4298588 33.1601749,11.1615767 C33.1601749,8.89262708 31.3144421,7.0468943 29.04616,7.0468943" id="Fill-59" fill="#FFFFFF"></path>
                        </g>
                    </g>
                </g>
            </g>
        </g>
    </g>
</svg>