<?xml version="1.0" encoding="UTF-8"?>
<svg width="360px" height="413px" viewBox="0 0 360 413" version="1.1" xmlns="http://www.w3.org/2000/svg" xmlns:xlink="http://www.w3.org/1999/xlink">
    <!-- Generator: Sketch 64 (93537) - https://sketch.com -->
    <title>elements</title>
    <desc>Created with Sketch.</desc>
    <defs>
        <polygon id="path-1" points="0 0.00495810345 359.746669 0.00495810345 359.746669 359.796556 0 359.796556"></polygon>
        <polygon id="path-3" points="0.321271719 0.328765517 48.8670388 0.328765517 48.8670388 24.6044053 0.321271719 24.6044053"></polygon>
        <polygon id="path-5" points="0.13888 0.183725884 31.2792941 0.183725884 31.2792941 23.9035058 0.13888 23.9035058"></polygon>
        <polygon id="path-7" points="0.13888 0.307379895 31.2792941 0.307379895 31.2792941 24.0271599 0.13888 24.0271599"></polygon>
        <polygon id="path-9" points="0.281844706 0.229226851 41.4910588 0.229226851 41.4910588 64.3412154 0.281844706 64.3412154"></polygon>
        <polygon id="path-11" points="0.193101176 0.301352839 21.0675294 0.301352839 21.0675294 26.5170628 0.193101176 26.5170628"></polygon>
        <polygon id="path-13" points="0 127 275.453594 127 275.453594 0.00267368421 0 0.00267368421"></polygon>
    </defs>
    <g id="Page-1" stroke="none" stroke-width="1" fill="none" fill-rule="evenodd">
        <g id="elements">
            <g id="Group-9">
                <g id="Group-3" transform="translate(0.000000, 25.955172)">
                    <mask id="mask-2" fill="white">
                        <use xlink:href="#path-1"></use>
                    </mask>
                    <g id="Clip-2"></g>
                    <path d="M359.746669,359.796556 L153.447372,359.796556 C68.7006433,359.796556 -0.000133086876,291.087225 -0.000133086876,206.329944 L-0.000133086876,0.00495810345 L206.299165,0.00495810345 C291.045893,0.00495810345 359.746669,68.7142891 359.746669,153.47157 L359.746669,359.796556 Z" id="Fill-1" fill="#FFE9DB" mask="url(#mask-2)"></path>
                </g>
                <g id="Group-6" transform="translate(73.863216, 0.000000)">
                    <mask id="mask-4" fill="white">
                        <use xlink:href="#path-3"></use>
                    </mask>
                    <g id="Clip-5"></g>
                    <path d="M0.321271719,0.32866569 C0.321271719,13.7358433 11.1884806,24.6044053 24.5939889,24.6044053 L24.5939889,24.6044053 C37.9994972,24.6044053 48.8670388,13.7358433 48.8670388,0.32866569 L0.321271719,0.32866569 Z" id="Fill-4" fill="#FFFFFF" mask="url(#mask-4)"></path>
                </g>
                <path d="M74.184488,24.6045052 C74.184488,38.0116828 85.0516969,48.8802448 98.4572052,48.8802448 L98.4572052,48.8802448 C111.862713,48.8802448 122.730255,38.0116828 122.730255,24.6045052 L74.184488,24.6045052 Z" id="Fill-7" fill="#FFFFFF"></path>
            </g>
            <g id="Group-22" transform="translate(318.000000, 286.000000)">
                <g id="Group-12" transform="translate(10.211765, 23.843302)">
                    <mask id="mask-6" fill="white">
                        <use xlink:href="#path-5"></use>
                    </mask>
                    <g id="Clip-11"></g>
                    <path d="M49.0486212,23.9035058 C49.0486212,10.8035986 38.0999624,0.183725884 24.5937506,0.183725884 L24.5937506,0.183725884 C11.0878682,0.183725884 0.13888,10.8035986 0.13888,23.9035058 L49.0486212,23.9035058 Z" id="Fill-10" fill="#FFFFFF" mask="url(#mask-6)"></path>
                </g>
                <g id="Group-15" transform="translate(10.211765, 0.000000)">
                    <mask id="mask-8" fill="white">
                        <use xlink:href="#path-7"></use>
                    </mask>
                    <g id="Clip-14"></g>
                    <path d="M49.0486212,24.0271599 C49.0486212,10.9272526 38.0999624,0.307379895 24.5937506,0.307379895 L24.5937506,0.307379895 C11.0878682,0.307379895 0.13888,10.9272526 0.13888,24.0271599 L49.0486212,24.0271599 Z" id="Fill-13" fill="#FFFFFF" mask="url(#mask-8)"></path>
                </g>
                <g id="Group-18" transform="translate(0.000000, 61.926353)">
                    <mask id="mask-10" fill="white">
                        <use xlink:href="#path-9"></use>
                    </mask>
                    <g id="Clip-17"></g>
                    <path d="M64.0559624,0.229226851 L35.1270212,0.229226851 C15.8827859,0.229226851 0.281844706,15.9124896 0.281844706,35.2586795 L0.281844706,64.3412154 L29.2111153,64.3412154 C48.4553506,64.3412154 64.0559624,48.6579526 64.0559624,29.3114316 L64.0559624,0.229226851 Z" id="Fill-16" fill="#9B79BF" mask="url(#mask-10)"></path>
                </g>
                <g id="Group-21" transform="translate(20.423529, 80.802300)">
                    <mask id="mask-12" fill="white">
                        <use xlink:href="#path-11"></use>
                    </mask>
                    <g id="Clip-20"></g>
                    <path d="M0.193101176,13.4092078 C0.193101176,20.6482991 6.03060706,26.5170628 13.2318776,26.5170628 C20.4328188,26.5170628 26.2703247,20.6482991 26.2703247,13.4092078 C26.2703247,6.17011658 20.4328188,0.301352839 13.2318776,0.301352839 C6.03060706,0.301352839 0.193101176,6.17011658 0.193101176,13.4092078" id="Fill-19" fill="#DACDE7" mask="url(#mask-12)"></path>
                </g>
            </g>
        </g>
        <g id="texts" transform="translate(39.000000, 139.000000)">
            <polygon id="Fill-1" fill="#B287CE" points="33.4728682 29.5348837 26.8124506 53.1289883 21.1767125 53.1289883 16.7022781 36.3291746 12.0229078 53.1289883 6.42132574 53.1627907 0 29.5348837 5.1233982 29.5348837 9.32458472 47.8558073 14.174735 29.5348837 19.5030691 29.5348837 24.0799715 47.7544 28.315314 29.5348837"></polygon>
            <g id="Group-61">
                <path d="M48.8009059,42.1774353 C48.7784646,40.9739432 48.3430374,40.0107484 47.4946242,39.2865142 C46.6458761,38.5626142 45.6075497,38.20033 44.379645,38.20033 C43.2183942,38.20033 42.2413625,38.5509168 41.448885,39.2530932 C40.6560725,39.9549353 40.1704037,40.9298274 39.9918786,42.1774353 L48.8009059,42.1774353 Z M53.5236163,45.31868 L39.9583842,45.31868 C40.0699205,46.6555221 40.5388421,47.7032721 41.365149,48.4605932 C42.1911209,49.2179142 43.207341,49.5965747 44.4131394,49.5965747 C46.1548482,49.5965747 47.394141,48.8506168 48.1310178,47.3576984 L53.1886723,47.3576984 C52.6527619,49.1403774 51.6254886,50.6052221 50.1071875,51.7522326 C48.5885514,52.9002458 46.724253,53.4737511 44.5136226,53.4737511 C42.7270313,53.4737511 41.1249941,53.07838 39.7071762,52.2873037 C38.2890233,51.4965616 37.183708,50.3769563 36.3912305,48.9281537 C35.5984181,47.4803537 35.2021793,45.8093011 35.2021793,43.9149958 C35.2021793,41.9993011 35.592724,40.3172195 36.3744833,38.8687511 C37.1559077,37.4206168 38.2501698,36.3066932 39.6569346,35.5266458 C41.0636994,34.7469326 42.6824837,34.3569089 44.5136226,34.3569089 C46.2774377,34.3569089 47.8573686,34.7359037 49.2530803,35.4932247 C50.648457,36.25088 51.7316659,37.3260353 52.5020371,38.7180221 C53.2724083,40.1106774 53.6575939,41.7095405 53.6575939,43.5142774 C53.6575939,44.1826984 53.6127114,44.7842774 53.5236163,45.31868 L53.5236163,45.31868 Z" id="Fill-2" fill="#B287CE"></path>
                <mask id="mask-14" fill="white">
                    <use xlink:href="#path-13"></use>
                </mask>
                <g id="Clip-5"></g>
                <polygon id="Fill-4" fill="#B287CE" mask="url(#mask-14)" points="57.0734533 53.1728947 61.7626694 53.1728947 61.7626694 28.4413158 57.0734533 28.4413158"></polygon>
                <path d="M66.3514692,38.8852611 C67.1328936,37.4481558 68.2157675,36.3342321 69.600426,35.5431558 C70.9847496,34.7527479 72.5700396,34.3567084 74.3566309,34.3567084 C76.6563564,34.3567084 78.5601781,34.9305479 80.0674261,36.0782268 C81.5746742,37.2255716 82.5848653,38.8354637 83.0986694,40.9072347 L78.0410149,40.9072347 C77.7730597,40.1051295 77.3208853,39.4761453 76.6844917,39.0189453 C76.0480981,38.5624137 75.2609797,38.3341479 74.3231365,38.3341479 C72.9833605,38.3341479 71.9225928,38.8184189 71.1411685,39.7876295 C70.3594092,40.7571742 69.9688644,42.1331189 69.9688644,43.9151295 C69.9688644,45.6754163 70.3594092,47.0399979 71.1411685,48.0092084 C71.9225928,48.9784189 72.9833605,49.4630242 74.3231365,49.4630242 C76.2209292,49.4630242 77.460222,48.6164689 78.0410149,46.9230242 L83.0986694,46.9230242 C82.5848653,48.9282874 81.5689801,50.5214689 80.0506789,51.7025689 C78.5320428,52.8836689 76.6342501,53.4735505 74.3566309,53.4735505 C72.5700396,53.4735505 70.9847496,53.0785137 69.600426,52.2874374 C68.2157675,51.4963611 67.1328936,50.3821032 66.3514692,48.9453321 C65.5697099,47.5078926 65.1791652,45.8314926 65.1791652,43.9151295 C65.1791652,41.9991005 65.5697099,40.3223663 66.3514692,38.8852611" id="Fill-6" fill="#B287CE" mask="url(#mask-14)"></path>
                <path d="M97.1826628,48.7780932 C97.9305927,48.3660116 98.5277979,47.7477221 98.9746132,46.9228905 C99.4210936,46.0990616 99.6445012,45.09643 99.6445012,43.9149958 C99.6445012,42.1553774 99.1809387,40.8018247 98.2544836,39.8546721 C97.3276935,38.9078537 96.194578,38.4342774 94.854802,38.4342774 C93.5150259,38.4342774 92.3929635,38.9078537 91.4886147,39.8546721 C90.5842659,40.8018247 90.1320915,42.1553774 90.1320915,43.9149958 C90.1320915,45.6756168 90.5728778,47.0291695 91.4551203,47.9759879 C92.3370279,48.9231405 93.4480371,49.3963826 94.7878132,49.3963826 C95.6362263,49.3963826 96.4343979,49.1905089 97.1826628,48.7780932 M89.9646195,52.2873037 C88.5354135,51.4965616 87.413351,50.3769563 86.5984323,48.9281537 C85.7831786,47.4803537 85.3758867,45.8093011 85.3758867,43.9149958 C85.3758867,42.0216932 85.7945667,40.3506405 86.6319267,38.9018379 C87.4692867,37.4540379 88.6134554,36.3344326 90.0651027,35.5430221 C91.5164151,34.7526142 93.1351994,34.3569089 94.9217908,34.3569089 C96.7080471,34.3569089 98.3268315,34.7526142 99.7784788,35.5430221 C101.229791,36.3344326 102.374295,37.4540379 103.211655,38.9018379 C104.049015,40.3506405 104.467695,42.0216932 104.467695,43.9149958 C104.467695,45.8093011 104.037292,47.4803537 103.17816,48.9281537 C102.318359,50.3769563 101.157108,51.4965616 99.6947428,52.2873037 C98.2320423,53.07838 96.5965108,53.4737511 94.7878132,53.4737511 C93.0012218,53.4737511 91.3934906,53.07838 89.9646195,52.2873037" id="Fill-7" fill="#B287CE" mask="url(#mask-14)"></path>
                <path d="M136.47136,36.4788784 C137.866402,37.8718679 138.56476,39.8156363 138.56476,42.3108521 L138.56476,53.1726942 L133.875544,53.1726942 L133.875544,42.9461863 C133.875544,41.4980521 133.506771,40.3891416 132.769894,39.6204574 C132.033352,38.8521074 131.02852,38.4674311 129.755398,38.4674311 C128.48261,38.4674311 127.472419,38.8521074 126.724154,39.6204574 C125.97589,40.3891416 125.602427,41.4980521 125.602427,42.9461863 L125.602427,53.1726942 L120.913211,53.1726942 L120.913211,42.9461863 C120.913211,41.4980521 120.544438,40.3891416 119.807896,39.6204574 C119.071019,38.8521074 118.066187,38.4674311 116.7934,38.4674311 C115.498171,38.4674311 114.476257,38.8521074 113.728662,39.6204574 C112.980062,40.3891416 112.6066,41.4980521 112.6066,42.9461863 L112.6066,53.1726942 L107.917384,53.1726942 L107.917384,34.6577653 L112.6066,34.6577653 L112.6066,36.8966416 C113.209499,36.1172626 113.984894,35.5046547 114.934126,35.0584837 C115.883022,34.6133153 116.927042,34.3900626 118.066187,34.3900626 C119.517499,34.3900626 120.812728,34.6968679 121.951202,35.3091416 C123.090347,35.9224179 123.972255,36.7963784 124.597595,37.9330284 C125.200494,36.8632205 126.076373,36.0059705 127.22657,35.3592732 C128.376433,34.7135784 129.621755,34.3900626 130.961531,34.3900626 C133.23915,34.3900626 135.075313,35.0868916 136.47136,36.4788784" id="Fill-8" fill="#B287CE" mask="url(#mask-14)"></path>
                <path d="M155.412041,42.1774353 C155.3896,40.9739432 154.954173,40.0107484 154.10576,39.2865142 C153.256677,38.5626142 152.21835,38.20033 150.990781,38.20033 C149.829195,38.20033 148.852163,38.5509168 148.06002,39.2530932 C147.267208,39.9549353 146.781204,40.9298274 146.602679,42.1774353 L155.412041,42.1774353 Z M160.134752,45.31868 L146.56952,45.31868 C146.681056,46.6555221 147.149643,47.7032721 147.976284,48.4605932 C148.802256,49.2179142 149.818477,49.5965747 151.02394,49.5965747 C152.765984,49.5965747 154.005277,48.8506168 154.742153,47.3576984 L159.799808,47.3576984 C159.263897,49.1403774 158.236624,50.6052221 156.717988,51.7522326 C155.199352,52.9002458 153.335389,53.4737511 151.124423,53.4737511 C149.337832,53.4737511 147.735795,53.07838 146.318312,52.2873037 C144.899824,51.4965616 143.794509,50.3769563 143.002031,48.9281537 C142.209219,47.4803537 141.81298,45.8093011 141.81298,43.9149958 C141.81298,41.9993011 142.203525,40.3172195 142.985284,38.8687511 C143.766708,37.4206168 144.861305,36.3066932 146.267735,35.5266458 C147.6745,34.7469326 149.293284,34.3569089 151.124423,34.3569089 C152.888238,34.3569089 154.468504,34.7359037 155.864216,35.4932247 C157.259592,36.25088 158.342801,37.3260353 159.113173,38.7180221 C159.883544,40.1106774 160.268729,41.7095405 160.268729,43.5142774 C160.268729,44.1826984 160.223512,44.7842774 160.134752,45.31868 L160.134752,45.31868 Z" id="Fill-9" fill="#B287CE" mask="url(#mask-14)"></path>
                <path d="M177.115709,38.5011195 L177.115709,47.4579616 C177.115709,48.0819326 177.266434,48.5331168 177.567884,48.8115142 C177.869333,49.0902458 178.377109,49.2292774 179.091544,49.2292774 L181.26868,49.2292774 L181.26868,53.1726274 L178.321508,53.1726274 C174.369169,53.1726274 172.392664,51.2569326 172.392664,47.4242063 L172.392664,38.5011195 L170.182369,38.5011195 L170.182369,34.6576984 L172.392664,34.6576984 L172.392664,30.0790142 L177.115709,30.0790142 L177.115709,34.6576984 L181.26868,34.6576984 L181.26868,38.5011195 L177.115709,38.5011195 Z" id="Fill-10" fill="#B287CE" mask="url(#mask-14)"></path>
                <path d="M195.286087,48.7780932 C196.033682,48.3660116 196.631222,47.7477221 197.078037,46.9228905 C197.524517,46.0990616 197.747925,45.09643 197.747925,43.9149958 C197.747925,42.1553774 197.284028,40.8018247 196.357573,39.8546721 C195.431117,38.9078537 194.298002,38.4342774 192.958226,38.4342774 C191.61845,38.4342774 190.496052,38.9078537 189.592039,39.8546721 C188.68769,40.8018247 188.23518,42.1553774 188.23518,43.9149958 C188.23518,45.6756168 188.676302,47.0291695 189.558209,47.9759879 C190.440117,48.9231405 191.551461,49.3963826 192.891237,49.3963826 C193.73965,49.3963826 194.537822,49.1905089 195.286087,48.7780932 M188.067708,52.2873037 C186.638837,51.4965616 185.51644,50.3769563 184.701521,48.9281537 C183.886267,47.4803537 183.479311,45.8093011 183.479311,43.9149958 C183.479311,42.0216932 183.897991,40.3506405 184.735351,38.9018379 C185.572711,37.4540379 186.716544,36.3344326 188.168527,35.5430221 C189.619504,34.7526142 191.238288,34.3569089 193.025215,34.3569089 C194.811136,34.3569089 196.42992,34.7526142 197.881903,35.5430221 C199.33288,36.3344326 200.477719,37.4540379 201.315079,38.9018379 C202.152439,40.3506405 202.571119,42.0216932 202.571119,43.9149958 C202.571119,45.8093011 202.140716,47.4803537 201.281249,48.9281537 C200.421448,50.3769563 199.260197,51.4965616 197.798167,52.2873037 C196.335466,53.07838 194.699935,53.4737511 192.891237,53.4737511 C191.104646,53.4737511 189.49658,53.07838 188.067708,52.2873037" id="Fill-11" fill="#B287CE" mask="url(#mask-14)"></path>
                <path d="M219.451459,38.5011195 L219.451459,47.4579616 C219.451459,48.0819326 219.602184,48.5331168 219.903634,48.8115142 C220.205083,49.0902458 220.712858,49.2292774 221.427294,49.2292774 L223.60443,49.2292774 L223.60443,53.1726274 L220.657258,53.1726274 C216.704918,53.1726274 214.728414,51.2569326 214.728414,47.4242063 L214.728414,38.5011195 L212.518118,38.5011195 L212.518118,34.6576984 L214.728414,34.6576984 L214.728414,30.0790142 L219.451459,30.0790142 L219.451459,34.6576984 L223.60443,34.6576984 L223.60443,38.5011195 L219.451459,38.5011195 Z" id="Fill-12" fill="#B287CE" mask="url(#mask-14)"></path>
                <path d="M241.188789,35.3091416 C242.282716,35.9224179 243.136488,36.8247863 243.751111,38.0165811 C244.365063,39.20871 244.672207,40.6397995 244.672207,42.3108521 L244.672207,53.1726942 L239.982991,53.1726942 L239.982991,42.9461863 C239.982991,41.4753258 239.614552,40.3446916 238.87801,39.5536153 C238.140799,38.7632074 237.135967,38.3671679 235.863514,38.3671679 C234.567951,38.3671679 233.546372,38.7632074 232.798442,39.5536153 C232.050177,40.3446916 231.676714,41.4753258 231.676714,42.9461863 L231.676714,53.1726942 L226.987498,53.1726942 L226.987498,28.4411153 L231.676714,28.4411153 L231.676714,36.9634837 C232.279279,36.1617126 233.083144,35.5323942 234.087976,35.0755284 C235.092808,34.6189968 236.209177,34.3900626 237.437416,34.3900626 C238.844181,34.3900626 240.094527,34.6968679 241.188789,35.3091416" id="Fill-13" fill="#B287CE" mask="url(#mask-14)"></path>
                <path d="M261.519957,42.1774353 C261.497516,40.9739432 261.062089,40.0107484 260.213675,39.2865142 C259.364592,38.5626142 258.326266,38.20033 257.098696,38.20033 C255.93711,38.20033 254.960079,38.5509168 254.167936,39.2530932 C253.375124,39.9549353 252.88912,40.9298274 252.710595,42.1774353 L261.519957,42.1774353 Z M266.242667,45.31868 L252.677435,45.31868 C252.788972,46.6555221 253.257558,47.7032721 254.0842,48.4605932 C254.910172,49.2179142 255.926392,49.5965747 257.131856,49.5965747 C258.873899,49.5965747 260.113192,48.8506168 260.850069,47.3576984 L265.907723,47.3576984 C265.371813,49.1403774 264.34454,50.6052221 262.825904,51.7522326 C261.307268,52.9002458 259.443304,53.4737511 257.232339,53.4737511 C255.445748,53.4737511 253.84371,53.07838 252.426227,52.2873037 C251.007739,51.4965616 249.902424,50.3769563 249.109947,48.9281537 C248.317134,47.4803537 247.920896,45.8093011 247.920896,43.9149958 C247.920896,41.9993011 248.31144,40.3172195 249.0932,38.8687511 C249.874624,37.4206168 250.969221,36.3066932 252.375651,35.5266458 C253.782416,34.7469326 255.4012,34.3569089 257.232339,34.3569089 C258.996154,34.3569089 260.57642,34.7359037 261.972131,35.4932247 C263.367508,36.25088 264.450717,37.3260353 265.221088,38.7180221 C265.991459,40.1106774 266.376645,41.7095405 266.376645,43.5142774 C266.376645,44.1826984 266.331428,44.7842774 266.242667,45.31868 L266.242667,45.31868 Z" id="Fill-14" fill="#B287CE" mask="url(#mask-14)"></path>
                <path d="M10.6176244,75.2642774 L7.36866759,75.2642774 L7.36866759,89.9357853 L2.61246274,89.9357853 L2.61246274,75.2642774 L0.502315522,75.2642774 L0.502315522,71.4208563 L2.61246274,71.4208563 L2.61246274,70.4847326 C2.61246274,68.2121011 3.2599095,66.5410484 4.55513796,65.4715747 C5.85003148,64.4024353 7.80409479,63.9011195 10.416658,63.9676274 L10.416658,67.9116458 C9.27784841,67.8895879 8.48503595,68.0787511 8.0385556,68.4794695 C7.5917403,68.8805221 7.36866759,69.6047563 7.36866759,70.6518379 L7.36866759,71.4208563 L10.6176244,71.4208563 L10.6176244,75.2642774 Z" id="Fill-15" fill="#B287CE" mask="url(#mask-14)"></path>
                <path d="M13.6650454,89.9360526 L18.3542615,89.9360526 L18.3542615,71.4211237 L13.6650454,71.4211237 L13.6650454,89.9360526 Z M13.9835772,68.4296053 C13.4359437,67.9065658 13.1626294,67.2545211 13.1626294,66.4741395 C13.1626294,65.6947605 13.4359437,65.04305 13.9835772,64.5193421 C14.5302058,63.9959684 15.216841,63.7339474 16.0431479,63.7339474 C16.8691198,63.7339474 17.555755,63.9959684 18.1030535,64.5193421 C18.650017,65.04305 18.9240012,65.6947605 18.9240012,66.4741395 C18.9240012,67.2545211 18.650017,67.9065658 18.1030535,68.4296053 C17.555755,68.9533132 16.8691198,69.215 16.0431479,69.215 C15.216841,69.215 14.5302058,68.9533132 13.9835772,68.4296053 L13.9835772,68.4296053 Z" id="Fill-16" fill="#B287CE" mask="url(#mask-14)"></path>
                <path d="M30.027194,71.9887468 C30.9985316,71.4322863 32.108871,71.1532205 33.3598868,71.1532205 L33.3598868,76.0661153 L32.120594,76.0661153 C30.6468404,76.0661153 29.5358311,76.4116889 28.7879012,77.1025021 C28.0393013,77.7929811 27.6658388,78.9964732 27.6658388,80.7119758 L27.6658388,89.9358521 L22.9766227,89.9358521 L22.9766227,71.4209232 L27.6658388,71.4209232 L27.6658388,74.2947995 C28.268738,73.3148942 29.0558564,72.54621 30.027194,71.9887468" id="Fill-17" fill="#B287CE" mask="url(#mask-14)"></path>
                <path d="M39.5225885,89.4179595 C38.3167901,88.8721937 37.3621997,88.1312489 36.6588173,87.1954595 C35.9554349,86.25967 35.5702493,85.2236174 35.5032605,84.0873016 L40.2259709,84.0873016 C40.315066,84.8008411 40.6667572,85.3907226 41.2810445,85.8586174 C41.8949969,86.3265121 42.6596741,86.5604595 43.575411,86.5604595 C44.4683717,86.5604595 45.166395,86.3823253 45.668811,86.0257226 C46.171227,85.6694542 46.422435,85.2125884 46.422435,84.6554595 C46.422435,84.0538805 46.1152913,83.6026963 45.501339,83.3019068 C44.8870517,83.0011174 43.910355,82.6725884 42.570579,82.3159858 C41.1859204,81.9817753 40.0528049,81.6365358 39.1708973,81.2799332 C38.2886548,80.9236647 37.5296717,80.3775647 36.8932781,79.6423016 C36.2568845,78.9070384 35.9386877,77.91577 35.9386877,76.6678279 C35.9386877,75.6431384 36.2344432,74.7073489 36.8262893,73.8604595 C37.4178004,73.0139042 38.2665485,72.3454832 39.3718637,71.8551963 C40.4771789,71.3652437 41.7777665,71.1199332 43.2739614,71.1199332 C45.4845918,71.1199332 47.2484069,71.6713805 48.5660766,72.7742753 C49.8834114,73.87717 50.609235,75.3644068 50.7432126,77.2359858 L46.254963,77.2359858 C46.1879742,76.5007226 45.8808305,75.9158542 45.333867,75.4813805 C44.7865685,75.0469068 44.0553857,74.82967 43.1399838,74.82967 C42.2912357,74.82967 41.6380949,74.9857463 41.1805613,75.2975647 C40.7226929,75.6100516 40.4939261,76.0441911 40.4939261,76.6009858 C40.4939261,77.2252911 40.8064289,77.6988674 41.4317693,78.0213805 C42.0567749,78.3445621 43.0281125,78.6730911 44.3457822,79.0073016 C45.6855582,79.3415121 46.7908734,79.68742 47.6617278,80.0433542 C48.5325822,80.4002911 49.2862062,80.9514042 49.9225998,81.6976963 C50.5589934,82.4446568 50.8882434,83.4302437 50.9106846,84.6554595 C50.9106846,85.7249332 50.6145941,86.6831147 50.023083,87.52967 C49.431237,88.3768937 48.5828238,89.0392989 47.4775086,89.5182226 C46.3721934,89.9968121 45.082659,90.2367753 43.6089054,90.2367753 C42.0902693,90.2367753 40.7283869,89.9637253 39.5225885,89.4179595" id="Fill-18" fill="#B287CE" mask="url(#mask-14)"></path>
                <path d="M60.2222284,75.2642774 L60.2222284,84.2211195 C60.2222284,84.8450905 60.3729532,85.2962747 60.6744028,85.5746721 C60.9758524,85.8534037 61.4836275,85.9924353 62.198398,85.9924353 L64.3755341,85.9924353 L64.3755341,89.9357853 L61.4280268,89.9357853 C57.4756876,89.9357853 55.499518,88.0200905 55.499518,84.1873642 L55.499518,75.2642774 L53.2888875,75.2642774 L53.2888875,71.4208563 L55.499518,71.4208563 L55.499518,66.8421721 L60.2222284,66.8421721 L60.2222284,71.4208563 L64.3755341,71.4208563 L64.3755341,75.2642774 L60.2222284,75.2642774 Z" id="Fill-19" fill="#B287CE" mask="url(#mask-14)"></path>
                <path d="M88.1221595,78.9405932 C88.0997183,77.7371011 87.6642911,76.7739063 86.8158779,76.0496721 C85.9671298,75.3257721 84.9288034,74.9634879 83.7008987,74.9634879 C82.5396478,74.9634879 81.5626162,75.3140747 80.7701387,76.0162511 C79.9773262,76.7180932 79.4916574,77.6929853 79.3131323,78.9405932 L88.1221595,78.9405932 Z M92.84487,82.0818379 L79.2796379,82.0818379 C79.3911742,83.41868 79.8600958,84.46643 80.6864027,85.2237511 C81.5123746,85.9810721 82.5285947,86.3597326 83.7343931,86.3597326 C85.4761019,86.3597326 86.7153947,85.6137747 87.4522715,84.1208563 L92.509926,84.1208563 C91.9740156,85.9035353 90.9467423,87.36838 89.4284412,88.5153905 C87.909805,89.6634037 86.0455067,90.2369089 83.8348763,90.2369089 C82.048285,90.2369089 80.4462478,89.8415379 79.0284299,89.0504616 C77.6102769,88.2597195 76.5049617,87.1401142 75.7124842,85.6913116 C74.9196718,84.2435116 74.523433,82.5724589 74.523433,80.6781537 C74.523433,78.7624589 74.9139777,77.0803774 75.695737,75.6319089 C76.4771614,74.1837747 77.5714234,73.0698511 78.9781883,72.2898037 C80.3849531,71.5100905 82.0037374,71.1200668 83.8348763,71.1200668 C85.5986914,71.1200668 87.1786223,71.4990616 88.5743339,72.2563826 C89.9697107,73.0140379 91.0529196,74.0891932 91.8232908,75.48118 C92.593662,76.8738353 92.9788476,78.4726984 92.9788476,80.2774353 C92.9788476,80.9458563 92.9339651,81.5474353 92.84487,82.0818379 L92.84487,82.0818379 Z" id="Fill-20" fill="#B287CE" mask="url(#mask-14)"></path>
                <polygon id="Fill-21" fill="#B287CE" mask="url(#mask-14)" points="104.132248 85.6248037 108.821464 71.4208563 113.81213 71.4208563 106.945778 89.9357853 101.25173 89.9357853 94.4188723 71.4208563 99.4430324 71.4208563"></polygon>
                <path d="M128.851049,78.9405932 C128.828608,77.7371011 128.39318,76.7739063 127.544767,76.0496721 C126.695684,75.3257721 125.657358,74.9634879 124.429788,74.9634879 C123.268202,74.9634879 122.291171,75.3140747 121.499028,76.0162511 C120.706216,76.7180932 120.220212,77.6929853 120.041687,78.9405932 L128.851049,78.9405932 Z M133.573759,82.0818379 L120.008527,82.0818379 C120.120064,83.41868 120.58865,84.46643 121.415292,85.2237511 C122.241264,85.9810721 123.257484,86.3597326 124.462948,86.3597326 C126.204991,86.3597326 127.444284,85.6137747 128.181161,84.1208563 L133.238815,84.1208563 C132.702905,85.9035353 131.675632,87.36838 130.156996,88.5153905 C128.638359,89.6634037 126.774396,90.2369089 124.563431,90.2369089 C122.776839,90.2369089 121.174802,89.8415379 119.757319,89.0504616 C118.338831,88.2597195 117.233516,87.1401142 116.441039,85.6913116 C115.648226,84.2435116 115.251987,82.5724589 115.251987,80.6781537 C115.251987,78.7624589 115.642532,77.0803774 116.424291,75.6319089 C117.205716,74.1837747 118.300313,73.0698511 119.706743,72.2898037 C121.113507,71.5100905 122.732292,71.1200668 124.563431,71.1200668 C126.327246,71.1200668 127.907512,71.4990616 129.303223,72.2563826 C130.6986,73.0140379 131.781809,74.0891932 132.55218,75.48118 C133.322551,76.8738353 133.707737,78.4726984 133.707737,80.2774353 C133.707737,80.9458563 133.66252,81.5474353 133.573759,82.0818379 L133.573759,82.0818379 Z" id="Fill-22" fill="#B287CE" mask="url(#mask-14)"></path>
                <path d="M144.174436,71.9887468 C145.145438,71.4322863 146.256448,71.1532205 147.507128,71.1532205 L147.507128,76.0661153 L146.267836,76.0661153 C144.794082,76.0661153 143.682738,76.4116889 142.935143,77.1025021 C142.186543,77.7929811 141.81308,78.9964732 141.81308,80.7119758 L141.81308,89.9358521 L137.123864,89.9358521 L137.123864,71.4209232 L141.81308,71.4209232 L141.81308,74.2947995 C142.41598,73.3148942 143.203098,72.54621 144.174436,71.9887468" id="Fill-23" fill="#B287CE" mask="url(#mask-14)"></path>
                <path d="M171.354606,77.7538784 C170.907455,76.9407442 170.304556,76.3167732 169.545908,75.8822995 C168.786255,75.44816 167.971336,75.2305889 167.100817,75.2305889 C166.229627,75.2305889 165.426097,75.4428126 164.68922,75.8659232 C163.952008,76.2890337 163.354468,76.9076574 162.897269,77.7204574 C162.439401,78.53426 162.210299,79.4977889 162.210299,80.6117126 C162.210299,81.7259705 162.439401,82.7005284 162.897269,83.5360547 C163.354468,84.3715811 163.957367,85.0122626 164.705632,85.4577653 C165.453897,85.9036021 166.252069,86.1261863 167.100817,86.1261863 C167.971336,86.1261863 168.786255,85.9086153 169.545908,85.4744758 C170.304556,85.0400021 170.907455,84.4163653 171.354606,83.6025626 C171.800751,82.7894284 172.024494,81.8145363 172.024494,80.6782205 C172.024494,79.5422389 171.800751,78.5676811 171.354606,77.7538784 M158.542997,75.6316416 C159.290592,74.1835074 160.306813,73.0695837 161.590988,72.2895363 C162.874828,71.5098232 164.309058,71.1197995 165.894683,71.1197995 C167.279007,71.1197995 168.490499,71.3985311 169.529161,71.9553258 C170.567152,72.5124547 171.399153,73.2146311 172.024494,74.0608521 L172.024494,71.4209232 L176.747204,71.4209232 L176.747204,89.9358521 L172.024494,89.9358521 L172.024494,87.2290811 C171.421259,88.0976942 170.589259,88.8165811 169.529161,89.3847389 C168.468393,89.9525626 167.245513,90.2369758 165.861524,90.2369758 C164.29834,90.2369758 162.874828,89.8355889 161.590988,89.0334837 C160.306813,88.2317126 159.290592,87.1010784 158.542997,85.6415811 C157.794733,84.1820837 157.4206,82.5056837 157.4206,80.6117126 C157.4206,78.7397995 157.794733,77.08011 158.542997,75.6316416" id="Fill-24" fill="#B287CE" mask="url(#mask-14)"></path>
                <path d="M195.15231,77.7205911 C194.694442,76.9074568 194.091207,76.2891674 193.343612,75.8657226 C192.595013,75.4429463 191.785788,75.2307226 190.915268,75.2307226 C190.066185,75.2307226 189.268349,75.4479595 188.520084,75.8824332 C187.771819,76.3169068 187.16892,76.9468937 186.711721,77.7707226 C186.253853,78.59522 186.025086,79.5647647 186.025086,80.6783542 C186.025086,81.7929463 186.253853,82.7618226 186.711721,83.5859858 C187.16892,84.4108174 187.771819,85.0398016 188.520084,85.4742753 C189.268349,85.9087489 190.066185,86.1259858 190.915268,86.1259858 C191.785788,86.1259858 192.595013,85.9034016 193.343612,85.4575647 C194.091207,85.0120621 194.694442,84.3770621 195.15231,83.5525647 C195.609509,82.7284016 195.838945,81.7478279 195.838945,80.6115121 C195.838945,79.4975884 195.609509,78.5343937 195.15231,77.7205911 M188.520084,71.97217 C189.580517,71.4040121 190.792009,71.1199332 192.154561,71.1199332 C193.739516,71.1199332 195.174081,71.5099568 196.458257,72.28967 C197.742097,73.0697174 198.758317,74.1779595 199.506582,75.6150647 C200.254177,77.05217 200.628644,78.7178753 200.628644,80.6115121 C200.628644,82.5054832 200.254177,84.1822174 199.506582,85.6413805 C198.758317,87.1008779 197.742097,88.2315121 196.458257,89.0336174 C195.174081,89.8357226 193.739516,90.2367753 192.154561,90.2367753 C190.792009,90.2367753 189.591905,89.9577095 188.553913,89.4012489 C187.515252,88.8444542 186.672533,88.1429463 186.025086,87.2957226 L186.025086,98.7591437 L181.33587,98.7591437 L181.33587,71.4207226 L186.025086,71.4207226 L186.025086,74.0944068 C186.627985,73.2478516 187.459316,72.5403279 188.520084,71.97217" id="Fill-25" fill="#B287CE" mask="url(#mask-14)"></path>
                <path d="M217.861446,77.7205911 C217.403578,76.9074568 216.800344,76.2891674 216.052749,75.8657226 C215.304149,75.4429463 214.494924,75.2307226 213.624405,75.2307226 C212.775322,75.2307226 211.977485,75.4479595 211.22922,75.8824332 C210.480955,76.3169068 209.878056,76.9468937 209.420858,77.7707226 C208.962989,78.59522 208.734222,79.5647647 208.734222,80.6783542 C208.734222,81.7929463 208.962989,82.7618226 209.420858,83.5859858 C209.878056,84.4108174 210.480955,85.0398016 211.22922,85.4742753 C211.977485,85.9087489 212.775322,86.1259858 213.624405,86.1259858 C214.494924,86.1259858 215.304149,85.9034016 216.052749,85.4575647 C216.800344,85.0120621 217.403578,84.3770621 217.861446,83.5525647 C218.318645,82.7284016 218.548082,81.7478279 218.548082,80.6115121 C218.548082,79.4975884 218.318645,78.5343937 217.861446,77.7205911 M211.22922,71.97217 C212.289653,71.4040121 213.501145,71.1199332 214.863698,71.1199332 C216.448653,71.1199332 217.883218,71.5099568 219.167393,72.28967 C220.451233,73.0697174 221.467454,74.1779595 222.215718,75.6150647 C222.963313,77.05217 223.337781,78.7178753 223.337781,80.6115121 C223.337781,82.5054832 222.963313,84.1822174 222.215718,85.6413805 C221.467454,87.1008779 220.451233,88.2315121 219.167393,89.0336174 C217.883218,89.8357226 216.448653,90.2367753 214.863698,90.2367753 C213.501145,90.2367753 212.301041,89.9577095 211.26305,89.4012489 C210.224388,88.8444542 209.381669,88.1429463 208.734222,87.2957226 L208.734222,98.7591437 L204.045006,98.7591437 L204.045006,71.4207226 L208.734222,71.4207226 L208.734222,74.0944068 C209.337122,73.2478516 210.168453,72.5403279 211.22922,71.97217" id="Fill-26" fill="#B287CE" mask="url(#mask-14)"></path>
                <path d="M30.6640565,110.005194 C32.0594332,111.398184 32.7574565,113.341952 32.7574565,115.837168 L32.7574565,126.69901 L28.0682405,126.69901 L28.0682405,116.472502 C28.0682405,115.024368 27.6998021,113.915457 26.9629253,113.146773 C26.2260485,112.378423 25.2212165,111.993747 23.9484292,111.993747 C22.675642,111.993747 21.665116,112.378423 20.917186,113.146773 C20.1689211,113.915457 19.7951236,115.024368 19.7951236,116.472502 L19.7951236,126.69901 L15.1059076,126.69901 L15.1059076,116.472502 C15.1059076,115.024368 14.7374692,113.915457 14.0005923,113.146773 C13.2637155,112.378423 12.2588835,111.993747 10.9860963,111.993747 C9.69086786,111.993747 8.66928865,112.378423 7.92135869,113.146773 C7.17309379,113.915457 6.79929628,115.024368 6.79929628,116.472502 L6.79929628,126.69901 L2.11008023,126.69901 L2.11008023,108.184081 L6.79929628,108.184081 L6.79929628,110.422957 C7.40219548,109.643578 8.1779258,109.030971 9.1271571,108.584799 C10.0760535,108.139631 11.1200739,107.916378 12.2588835,107.916378 C13.7101959,107.916378 15.0054244,108.223184 16.144234,108.835457 C17.2830436,109.448734 18.1649511,110.322694 18.7902916,111.459344 C19.3931908,110.389536 20.2694043,109.532286 21.419602,108.885589 C22.5694648,108.239894 23.8144516,107.916378 25.1542277,107.916378 C27.4318469,107.916378 29.2683449,108.613207 30.6640565,110.005194" id="Fill-27" fill="#B287CE" mask="url(#mask-14)"></path>
                <path d="M49.939682,114.517036 C49.4928667,113.703902 48.8899675,113.079931 48.1309844,112.645457 C47.3716663,112.211318 46.5567475,111.993747 45.6858931,111.993747 C44.8150387,111.993747 44.0111731,112.205971 43.2742963,112.629081 C42.5374195,113.052192 41.9398794,113.670815 41.4823459,114.483615 C41.0244774,115.297418 40.7957107,116.260947 40.7957107,117.374871 C40.7957107,118.489128 41.0244774,119.463686 41.4823459,120.299213 C41.9398794,121.134739 42.5427786,121.775421 43.2910435,122.220923 C44.0389735,122.66676 44.837145,122.889344 45.6858931,122.889344 C46.5567475,122.889344 47.3716663,122.671773 48.1309844,122.237634 C48.8899675,121.80316 49.4928667,121.179523 49.939682,120.365721 C50.3861623,119.552586 50.60957,118.577694 50.60957,117.441378 C50.60957,116.305397 50.3861623,115.330839 49.939682,114.517036 M37.1280738,112.394799 C37.8760038,110.946665 38.891889,109.832742 40.1760643,109.052694 C41.4599046,108.272981 42.8944698,107.882957 44.4800947,107.882957 C45.8644183,107.882957 47.0759107,108.161689 48.1142372,108.718484 C49.1525636,109.275613 49.9842295,109.977789 50.60957,110.82401 L50.60957,108.184081 L55.3322804,108.184081 L55.3322804,126.69901 L50.60957,126.69901 L50.60957,123.992239 C50.0066708,124.860852 49.1746699,125.579739 48.1142372,126.147897 C47.0534695,126.715721 45.8309239,127.000134 44.4466003,127.000134 C42.8834167,127.000134 41.4599046,126.598747 40.1760643,125.796642 C38.891889,124.994871 37.8760038,123.864236 37.1280738,122.404739 C36.3798089,120.945242 36.0060114,119.268842 36.0060114,117.374871 C36.0060114,115.502957 36.3798089,113.843268 37.1280738,112.394799" id="Fill-28" fill="#B287CE" mask="url(#mask-14)"></path>
                <path d="M72.6486509,114.517036 C72.2018356,113.703902 71.5989364,113.079931 70.8399533,112.645457 C70.0806353,112.211318 69.2657165,111.993747 68.3948621,111.993747 C67.5240077,111.993747 66.7201421,112.205971 65.9832653,112.629081 C65.2463885,113.052192 64.6488484,113.670815 64.1913149,114.483615 C63.7334464,115.297418 63.5046796,116.260947 63.5046796,117.374871 C63.5046796,118.489128 63.7334464,119.463686 64.1913149,120.299213 C64.6488484,121.134739 65.2517476,121.775421 66.0000125,122.220923 C66.7479424,122.66676 67.546114,122.889344 68.3948621,122.889344 C69.2657165,122.889344 70.0806353,122.671773 70.8399533,122.237634 C71.5989364,121.80316 72.2018356,121.179523 72.6486509,120.365721 C73.0951313,119.552586 73.3185389,118.577694 73.3185389,117.441378 C73.3185389,116.305397 73.0951313,115.330839 72.6486509,114.517036 M59.8370428,112.394799 C60.5849728,110.946665 61.606552,109.832742 62.9017804,109.052694 C64.196674,108.272981 65.6369332,107.882957 67.2225581,107.882957 C68.4283565,107.882957 69.5782193,108.145313 70.6724813,108.668352 C71.7664084,109.19206 72.6372628,109.888221 73.2850445,110.757168 L73.2850445,101.967431 L78.0412494,101.967431 L78.0412494,126.69901 L73.2850445,126.69901 L73.2850445,123.958484 C72.7042516,124.872215 71.8893329,125.607813 70.8399533,126.164607 C69.7902388,126.721068 68.5733872,127.000134 67.1890637,127.000134 C65.62588,127.000134 64.196674,126.598747 62.9017804,125.796642 C61.606552,124.994871 60.5849728,123.864236 59.8370428,122.404739 C59.0887779,120.945242 58.7149804,119.268842 58.7149804,117.374871 C58.7149804,115.502957 59.0887779,113.843268 59.8370428,112.394799" id="Fill-29" fill="#B287CE" mask="url(#mask-14)"></path>
                <path d="M95.0227094,115.703751 C95.0002681,114.500259 94.5648409,113.537064 93.7164278,112.81283 C92.8676797,112.08893 91.8293533,111.726646 90.6014485,111.726646 C89.4401977,111.726646 88.463166,112.077233 87.6706885,112.779409 C86.8778761,113.481251 86.3922073,114.456143 86.2136821,115.703751 L95.0227094,115.703751 Z M99.7454198,118.844996 L86.1801877,118.844996 C86.2917241,120.181838 86.7606457,121.229588 87.5869525,121.986909 C88.4129244,122.74423 89.4291445,123.122891 90.6349429,123.122891 C92.3766518,123.122891 93.6159446,122.376933 94.3528214,120.884014 L99.4104758,120.884014 C98.8745654,122.666693 97.8472922,124.131538 96.328991,125.278548 C94.8103549,126.426562 92.9460566,127.000067 90.7354261,127.000067 C88.9488348,127.000067 87.3467977,126.604696 85.9289797,125.813619 C84.5108268,125.022877 83.4055116,123.903272 82.6130341,122.454469 C81.8202216,121.006669 81.4239829,119.335617 81.4239829,117.441312 C81.4239829,115.525617 81.8145276,113.843535 82.5962869,112.395067 C83.3777112,110.946933 84.4719733,109.833009 85.8787381,109.052962 C87.2855029,108.273248 88.9042873,107.883225 90.7354261,107.883225 C92.4992413,107.883225 94.0791721,108.262219 95.4748838,109.019541 C96.8702605,109.777196 97.9534694,110.852351 98.7238406,112.244338 C99.4942118,113.636993 99.8793974,115.235856 99.8793974,117.040593 C99.8793974,117.709014 99.83418,118.310593 99.7454198,118.844996 L99.7454198,118.844996 Z" id="Fill-30" fill="#B287CE" mask="url(#mask-14)"></path>
                <path d="M119.7742,112.027435 L116.525244,112.027435 L116.525244,126.698943 L111.769374,126.698943 L111.769374,112.027435 L109.658891,112.027435 L109.658891,108.184014 L111.769374,108.184014 L111.769374,107.247891 C111.769374,104.975259 112.416485,103.304206 113.711714,102.234733 C115.006607,101.165593 116.961006,100.664277 119.573234,100.730785 L119.573234,104.674804 C118.434424,104.652746 117.641612,104.841909 117.195132,105.242627 C116.748316,105.64368 116.525244,106.367914 116.525244,107.414996 L116.525244,108.184014 L119.7742,108.184014 L119.7742,112.027435 Z" id="Fill-31" fill="#B287CE" mask="url(#mask-14)"></path>
                <path d="M133.456529,122.304409 C134.204124,121.892327 134.801664,121.274038 135.248479,120.449206 C135.69496,119.625377 135.918367,118.622746 135.918367,117.441312 C135.918367,115.681693 135.45447,114.328141 134.528015,113.380988 C133.60156,112.434169 132.468444,111.960593 131.128668,111.960593 C129.788892,111.960593 128.666495,112.434169 127.762481,113.380988 C126.858132,114.328141 126.405623,115.681693 126.405623,117.441312 C126.405623,119.201933 126.846744,120.555485 127.728652,121.502304 C128.610559,122.449456 129.721903,122.922698 131.061679,122.922698 C131.910092,122.922698 132.708264,122.716825 133.456529,122.304409 M126.238151,125.813619 C124.80928,125.022877 123.686882,123.903272 122.871963,122.454469 C122.05671,121.006669 121.649753,119.335617 121.649753,117.441312 C121.649753,115.548009 122.068433,113.876956 122.905793,112.428154 C123.743153,110.980354 124.886987,109.860748 126.338969,109.069338 C127.789946,108.27893 129.408731,107.883225 131.195657,107.883225 C132.981578,107.883225 134.600363,108.27893 136.052345,109.069338 C137.503322,109.860748 138.648161,110.980354 139.485521,112.428154 C140.322881,113.876956 140.741561,115.548009 140.741561,117.441312 C140.741561,119.335617 140.311158,121.006669 139.451692,122.454469 C138.59189,123.903272 137.43064,125.022877 135.968609,125.813619 C134.505909,126.604696 132.870377,127.000067 131.061679,127.000067 C129.275088,127.000067 127.667022,126.604696 126.238151,125.813619" id="Fill-32" fill="#B287CE" mask="url(#mask-14)"></path>
                <path d="M151.24162,108.751905 C152.212623,108.195444 153.323632,107.916378 154.574313,107.916378 L154.574313,112.829273 L153.33502,112.829273 C151.861266,112.829273 150.749922,113.174847 150.002327,113.86566 C149.253727,114.556139 148.880265,115.759631 148.880265,117.475134 L148.880265,126.69901 L144.191049,126.69901 L144.191049,108.184081 L148.880265,108.184081 L148.880265,111.057957 C149.483164,110.078052 150.270282,109.309368 151.24162,108.751905" id="Fill-33" fill="#B287CE" mask="url(#mask-14)"></path>
                <polygon id="Fill-34" fill="#B287CE" mask="url(#mask-14)" points="191.183023 103.371249 191.183023 126.699144 186.493807 126.699144 186.493807 111.525986 180.230354 126.699144 176.679947 126.699144 170.383 111.525986 170.383 126.699144 165.693784 126.699144 165.693784 103.371249 171.019394 103.371249 178.45515 120.716775 185.890907 103.371249"></polygon>
                <path d="M206.43932,122.304409 C207.186915,121.892327 207.784455,121.274038 208.23127,120.449206 C208.677751,119.625377 208.901158,118.622746 208.901158,117.441312 C208.901158,115.681693 208.437261,114.328141 207.510806,113.380988 C206.584351,112.434169 205.451235,111.960593 204.111459,111.960593 C202.771683,111.960593 201.649286,112.434169 200.745272,113.380988 C199.840923,114.328141 199.388414,115.681693 199.388414,117.441312 C199.388414,119.201933 199.829535,120.555485 200.711443,121.502304 C201.59335,122.449456 202.704694,122.922698 204.04447,122.922698 C204.892884,122.922698 205.691055,122.716825 206.43932,122.304409 M199.220942,125.813619 C197.792071,125.022877 196.669673,123.903272 195.854755,122.454469 C195.039501,121.006669 194.632544,119.335617 194.632544,117.441312 C194.632544,115.548009 195.051224,113.876956 195.888584,112.428154 C196.725944,110.980354 197.869778,109.860748 199.32176,109.069338 C200.772737,108.27893 202.391522,107.883225 204.178448,107.883225 C205.964369,107.883225 207.583154,108.27893 209.035136,109.069338 C210.486113,109.860748 211.630952,110.980354 212.468312,112.428154 C213.305672,113.876956 213.724352,115.548009 213.724352,117.441312 C213.724352,119.335617 213.293949,121.006669 212.434483,122.454469 C211.574681,123.903272 210.413431,125.022877 208.9514,125.813619 C207.4887,126.604696 205.853168,127.000067 204.04447,127.000067 C202.257879,127.000067 200.649813,126.604696 199.220942,125.813619" id="Fill-35" fill="#B287CE" mask="url(#mask-14)"></path>
                <path d="M245.727883,110.005194 C247.122925,111.398184 247.821283,113.341952 247.821283,115.837168 L247.821283,126.69901 L243.132067,126.69901 L243.132067,116.472502 C243.132067,115.024368 242.763294,113.915457 242.026417,113.146773 C241.289875,112.378423 240.285043,111.993747 239.011921,111.993747 C237.739134,111.993747 236.728943,112.378423 235.980678,113.146773 C235.232413,113.915457 234.85895,115.024368 234.85895,116.472502 L234.85895,126.69901 L230.169734,126.69901 L230.169734,116.472502 C230.169734,115.024368 229.800961,113.915457 229.064419,113.146773 C228.327542,112.378423 227.32271,111.993747 226.049923,111.993747 C224.754695,111.993747 223.73278,112.378423 222.985185,113.146773 C222.236585,113.915457 221.863123,115.024368 221.863123,116.472502 L221.863123,126.69901 L217.173907,126.69901 L217.173907,108.184081 L221.863123,108.184081 L221.863123,110.422957 C222.466022,109.643578 223.241418,109.030971 224.190649,108.584799 C225.139545,108.139631 226.183566,107.916378 227.32271,107.916378 C228.774023,107.916378 230.069251,108.223184 231.207726,108.835457 C232.34687,109.448734 233.228778,110.322694 233.854118,111.459344 C234.457017,110.389536 235.332896,109.532286 236.483094,108.885589 C237.632956,108.239894 238.878278,107.916378 240.218054,107.916378 C242.495674,107.916378 244.331837,108.613207 245.727883,110.005194" id="Fill-36" fill="#B287CE" mask="url(#mask-14)"></path>
                <path d="M255.290133,126.181117 C254.083999,125.635352 253.129744,124.894407 252.426026,123.958617 C251.722979,123.022828 251.337458,121.986775 251.270804,120.850459 L255.993515,120.850459 C256.082275,121.563999 256.433966,122.153881 257.048589,122.621775 C257.662206,123.08967 258.426883,123.323617 259.342955,123.323617 C260.235916,123.323617 260.933939,123.145483 261.436355,122.788881 C261.938771,122.432612 262.189979,121.975746 262.189979,121.418617 C262.189979,120.817038 261.882835,120.365854 261.268883,120.065065 C260.654596,119.764275 259.677899,119.435746 258.338123,119.079144 C256.95313,118.744933 255.820014,118.399694 254.938106,118.043091 C254.055864,117.686823 253.297216,117.140723 252.660487,116.405459 C252.024428,115.670196 251.706232,114.678928 251.706232,113.430986 C251.706232,112.406296 252.001987,111.470507 252.593498,110.623617 C253.185009,109.777062 254.034093,109.108641 255.139408,108.618354 C256.244723,108.128402 257.544976,107.883091 259.04117,107.883091 C261.252136,107.883091 263.015616,108.434538 264.333621,109.537433 C265.650955,110.640328 266.376779,112.127565 266.510757,113.999144 L262.022507,113.999144 C261.955183,113.263881 261.64804,112.679012 261.101411,112.244538 C260.553778,111.810065 259.822595,111.592828 258.907528,111.592828 C258.05878,111.592828 257.405304,111.748904 256.94777,112.060723 C256.489902,112.373209 256.261135,112.807349 256.261135,113.364144 C256.261135,113.988449 256.573638,114.462025 257.198978,114.784538 C257.823984,115.10772 258.795322,115.436249 260.112991,115.770459 C261.452767,116.10467 262.558082,116.450578 263.429272,116.806512 C264.299791,117.163449 265.053415,117.714562 265.690144,118.460854 C266.326202,119.207815 266.655787,120.193402 266.678229,121.418617 C266.678229,122.488091 266.381803,123.446273 265.790627,124.292828 C265.198446,125.140052 264.350368,125.802457 263.245053,126.281381 C262.139402,126.75997 260.850203,126.999933 259.376114,126.999933 C257.857478,126.999933 256.495931,126.726883 255.290133,126.181117" id="Fill-37" fill="#B287CE" mask="url(#mask-14)"></path>
                <path d="M270.51307,126.14783 C269.965771,125.624456 269.692792,124.972746 269.692792,124.192364 C269.692792,123.412651 269.965771,122.761275 270.51307,122.237567 C271.060033,121.714193 271.757721,121.451838 272.60647,121.451838 C273.432441,121.451838 274.113718,121.714193 274.649963,122.237567 C275.185538,122.761275 275.453494,123.412651 275.453494,124.192364 C275.453494,124.972746 275.185538,125.624456 274.649963,126.14783 C274.113718,126.671204 273.432441,126.933225 272.60647,126.933225 C271.757721,126.933225 271.060033,126.671204 270.51307,126.14783" id="Fill-38" fill="#B287CE" mask="url(#mask-14)"></path>
                <polygon id="Fill-39" fill="#26182F" mask="url(#mask-14)" points="14.4369239 0.253264737 16.7982791 0.253264737 13.5158279 12.1016963 11.1373905 12.1016963 8.4243441 3.66221211 5.71096273 12.1016963 3.2993659 12.1016963 -0.000167472002 0.253264737 2.4452587 0.253264737 4.62239472 8.40833579 7.25204009 0.253264737 9.64688971 0.253264737 12.2932823 8.44175684"></polygon>
                <path d="M22.8602632,7.05464947 C22.8267688,6.23583368 22.2908584,5.43372842 21.0180712,5.43372842 C19.8621794,5.43372842 19.2257858,6.30267579 19.1755442,7.05464947 L22.8602632,7.05464947 Z M24.936916,9.74537842 C24.518236,11.1657732 23.2119544,12.3525547 21.1855432,12.3525547 C18.9243362,12.3525547 16.9314194,10.7312995 16.9314194,7.95701789 C16.9314194,5.33346526 18.8740946,3.62899158 20.9842418,3.62899158 C23.5301512,3.62899158 25.0541464,5.24991263 25.0541464,7.89051 C25.0541464,8.20767579 25.020652,8.54188632 25.020652,8.57564158 L19.1253026,8.57564158 C19.1755442,9.66182579 20.0969751,10.4472205 21.2019554,10.4472205 C22.2406168,10.4472205 22.8100216,9.92919421 23.0779768,9.19359684 L24.936916,9.74537842 Z" id="Fill-40" fill="#26182F" mask="url(#mask-14)"></path>
                <path d="M26.8625761,0.136090526 C27.7501777,0.136090526 28.3199174,0.871353684 28.3199174,1.75734579 C28.3199174,3.99655632 26.7788401,4.81537211 25.7237664,4.91563526 L25.7237664,3.89629316 C26.36016,3.79603 27.0635425,3.24458263 27.0970369,2.47589842 C27.0133009,2.52569579 26.8960705,2.55945105 26.7453457,2.55945105 C25.9917216,2.55945105 25.5228,2.05813526 25.5228,1.35595895 C25.5228,0.704248421 26.0754576,0.136090526 26.8625761,0.136090526" id="Fill-41" fill="#26182F" mask="url(#mask-14)"></path>
                <path d="M34.6333439,6.08563947 C34.3821359,6.03550789 34.1644223,6.01879737 33.9634559,6.01879737 C32.8246463,6.01879737 31.8362265,6.57024474 31.8362265,8.34156053 L31.8362265,12.1017632 L29.6088489,12.1017632 L29.6088489,3.87951579 L31.7692377,3.87951579 L31.7692377,5.09971842 C32.2716538,4.0132 33.4107983,3.81267368 34.1141807,3.81267368 C34.2983999,3.81267368 34.4658719,3.82938421 34.6333439,3.84609474 L34.6333439,6.08563947 Z" id="Fill-42" fill="#26182F" mask="url(#mask-14)"></path>
                <path d="M41.4326402,7.05464947 C41.3991458,6.23583368 40.8632354,5.43372842 39.5904482,5.43372842 C38.4345564,5.43372842 37.7981628,6.30267579 37.7479212,7.05464947 L41.4326402,7.05464947 Z M43.509293,9.74537842 C43.090613,11.1657732 41.7843314,12.3525547 39.7579202,12.3525547 C37.4967132,12.3525547 35.5037964,10.7312995 35.5037964,7.95701789 C35.5037964,5.33346526 37.4464716,3.62899158 39.5566188,3.62899158 C42.1025282,3.62899158 43.6265234,5.24991263 43.6265234,7.89051 C43.6265234,8.20767579 43.593029,8.54188632 43.593029,8.57564158 L37.6976796,8.57564158 C37.7479212,9.66182579 38.6693522,10.4472205 39.7743324,10.4472205 C40.8129938,10.4472205 41.3823986,9.92919421 41.6503538,9.19359684 L43.509293,9.74537842 Z" id="Fill-43" fill="#26182F" mask="url(#mask-14)"></path>
                <path d="M50.7268339,9.39445737 C50.7770755,10.0461679 51.2627443,10.6477468 52.2340819,10.6477468 C52.9712936,10.6477468 53.3226499,10.2634047 53.3226499,9.82893105 C53.3226499,9.46129947 53.0714419,9.16051 52.4353832,9.02649158 L51.3464803,8.77583368 C49.7554963,8.42524684 49.0353667,7.47241263 49.0353667,6.31938632 C49.0353667,4.84886 50.3416483,3.62899158 52.1168515,3.62899158 C54.4617945,3.62899158 55.2489129,5.11622842 55.3493961,6.00222053 L53.4901219,6.41998368 C53.4231331,5.93504421 53.0714419,5.31675474 52.1335987,5.31675474 C51.5474467,5.31675474 51.0785251,5.66801 51.0785251,6.13557053 C51.0785251,6.53662316 51.3799747,6.78728105 51.8321491,6.87083368 L53.0044531,7.12149158 C54.6292665,7.45570211 55.4498793,8.44162316 55.4498793,9.64511526 C55.4498793,10.9819574 54.4112179,12.3525547 52.2508291,12.3525547 C49.7722435,12.3525547 48.9181363,10.74801 48.8176531,9.81222053 L50.7268339,9.39445737 Z" id="Fill-44" fill="#26182F" mask="url(#mask-14)"></path>
                <path d="M63.0026656,7.99070632 C63.0026656,6.43662737 61.9978336,5.65089842 60.9092656,5.65089842 C59.8206975,5.65089842 58.8158655,6.43662737 58.8158655,7.99070632 C58.8158655,9.52807474 59.8206975,10.33018 60.9092656,10.33018 C61.9978336,10.33018 63.0026656,9.54478526 63.0026656,7.99070632 M65.2300432,7.99070632 C65.2300432,10.5139958 63.371104,12.3524879 60.9092656,12.3524879 C58.4470922,12.3524879 56.588153,10.5139958 56.588153,7.99070632 C56.588153,5.45037211 58.4470922,3.62892474 60.9092656,3.62892474 C63.371104,3.62892474 65.2300432,5.45037211 65.2300432,7.99070632" id="Fill-45" fill="#26182F" mask="url(#mask-14)"></path>
                <path d="M73.3522343,12.1017632 L71.1248567,12.1017632 L71.1248567,0.00267368421 L73.3522343,0.00267368421 L73.3522343,4.56464737 C73.8881447,3.92964737 74.7924935,3.66227895 75.5796119,3.66227895 C77.6733469,3.66227895 78.6446845,5.11642895 78.6446845,6.92116579 L78.6446845,12.1017632 L76.4169719,12.1017632 L76.4169719,7.30517368 C76.4169719,6.38609474 75.9647975,5.66787632 74.8929767,5.66787632 C73.9551335,5.66787632 73.4024759,6.36971842 73.3522343,7.27208684 L73.3522343,12.1017632 Z" id="Fill-46" fill="#26182F" mask="url(#mask-14)"></path>
                <path d="M85.5109696,8.77596737 L85.5109696,8.40833579 L83.6516954,8.69241474 C83.0826256,8.77596737 82.6301162,9.09346737 82.6301162,9.72880158 C82.6301162,10.2134068 82.9818074,10.6809674 83.702272,10.6809674 C84.6397802,10.6809674 85.5109696,10.2301174 85.5109696,8.77596737 M82.864577,7.37228316 L84.8913232,7.07149368 C85.3602448,7.00465158 85.5109696,6.77070421 85.5109696,6.48662526 C85.5109696,5.90142263 85.0587952,5.41715158 84.120952,5.41715158 C83.1492794,5.41715158 82.613369,6.03544105 82.5463802,6.75399368 L80.5702106,6.33623053 C80.7041882,5.04952 81.8932394,3.62912526 84.1038698,3.62912526 C86.716768,3.62912526 87.6881056,5.09965158 87.6881056,6.75399368 L87.6881056,10.7982753 C87.6881056,11.2327489 87.7383472,11.8176174 87.7885888,12.1016963 L85.7454304,12.1016963 C85.6951888,11.8844595 85.6616944,11.4332753 85.6616944,11.1157753 C85.2430144,11.7674858 84.455896,12.3356437 83.2330154,12.3356437 C81.4745594,12.3356437 80.4027386,11.1491963 80.4027386,9.86248579 C80.4027386,8.39195947 81.4913066,7.57280947 82.864577,7.37228316" id="Fill-47" fill="#26182F" mask="url(#mask-14)"></path>
                <path d="M94.1856508,5.68452 C93.0468412,5.68452 92.1257452,6.53675684 92.1257452,7.99057263 C92.1257452,9.44438842 93.0468412,10.31367 94.1856508,10.31367 C95.3244604,10.31367 96.2291442,9.46143316 96.2291442,7.99057263 C96.2291442,6.53675684 95.3244604,5.68452 94.1856508,5.68452 L94.1856508,5.68452 Z M89.931527,15.2766963 L89.931527,3.87978316 L92.0922508,3.87978316 L92.0922508,4.88241474 C92.4606892,4.24708053 93.3817852,3.69596737 94.621078,3.69596737 C97.0326749,3.69596737 98.4230274,5.53412526 98.4230274,7.97419632 C98.4230274,10.4640647 96.8652029,12.3022226 94.537342,12.3022226 C93.3985324,12.3022226 92.5611724,11.8510384 92.1592396,11.2995911 L92.1592396,15.2766963 L89.931527,15.2766963 Z" id="Fill-48" fill="#26182F" mask="url(#mask-14)"></path>
                <path d="M104.435138,5.68452 C103.296329,5.68452 102.375233,6.53675684 102.375233,7.99057263 C102.375233,9.44438842 103.296329,10.31367 104.435138,10.31367 C105.573948,10.31367 106.478632,9.46143316 106.478632,7.99057263 C106.478632,6.53675684 105.573948,5.68452 104.435138,5.68452 L104.435138,5.68452 Z M100.181015,15.2766963 L100.181015,3.87978316 L102.341738,3.87978316 L102.341738,4.88241474 C102.710177,4.24708053 103.631273,3.69596737 104.870566,3.69596737 C107.282497,3.69596737 108.67218,5.53412526 108.67218,7.97419632 C108.67218,10.4640647 107.115025,12.3022226 104.78683,12.3022226 C103.647685,12.3022226 102.810325,11.8510384 102.408392,11.2995911 L102.408392,15.2766963 L100.181015,15.2766963 Z" id="Fill-49" fill="#26182F" mask="url(#mask-14)"></path>
                <polygon id="Fill-50" fill="#26182F" mask="url(#mask-14)" points="110.53055 15.3436721 112.47356 11.0654432 108.97306 3.87958263 111.468728 3.87958263 113.662611 8.69254842 115.689022 3.87958263 118.06746 3.87958263 112.89224 15.3436721"></polygon>
                <path d="M126.306613,3.87964947 L127.964586,3.87964947 L127.964586,5.85149158 L126.306613,5.85149158 L126.306613,9.29419421 C126.306613,10.0127468 126.641557,10.2466942 127.277951,10.2466942 C127.545906,10.2466942 127.847356,10.2132732 127.964586,10.1798521 L127.964586,12.0183442 C127.76362,12.1018968 127.361687,12.2185363 126.708546,12.2185363 C125.10048,12.2185363 124.095648,11.2663705 124.095648,9.67853632 L124.095648,5.85149158 L122.605147,5.85149158 L122.605147,3.87964947 L123.023827,3.87964947 C123.894682,3.87964947 124.296614,3.31149158 124.296614,2.57622842 L124.296614,1.42286789 L126.306613,1.42286789 L126.306613,3.87964947 Z" id="Fill-51" fill="#26182F" mask="url(#mask-14)"></path>
                <path d="M135.567915,7.99070632 C135.567915,6.43662737 134.563083,5.65089842 133.47418,5.65089842 C132.385612,5.65089842 131.38078,6.43662737 131.38078,7.99070632 C131.38078,9.52807474 132.385612,10.33018 133.47418,10.33018 C134.563083,10.33018 135.567915,9.54478526 135.567915,7.99070632 M137.795293,7.99070632 C137.795293,10.5139958 135.936354,12.3524879 133.47418,12.3524879 C131.012007,12.3524879 129.153403,10.5139958 129.153403,7.99070632 C129.153403,5.45037211 131.012007,3.62892474 133.47418,3.62892474 C135.936354,3.62892474 137.795293,5.45037211 137.795293,7.99070632" id="Fill-52" fill="#26182F" mask="url(#mask-14)"></path>
                <path d="M143.689671,12.1017632 L143.689671,3.87951579 L145.816901,3.87951579 L145.816901,4.88214737 C146.269075,4.08004211 147.324483,3.64556842 148.228497,3.64556842 C149.35056,3.64556842 150.255243,4.13017368 150.673923,5.01616579 C151.327064,4.0132 152.197919,3.64556842 153.286487,3.64556842 C154.810482,3.64556842 156.267823,4.56464737 156.267823,6.77077105 L156.267823,12.1017632 L154.107434,12.1017632 L154.107434,7.22162105 C154.107434,6.33629737 153.671672,5.66787632 152.650093,5.66787632 C151.695503,5.66787632 151.126098,6.40280526 151.126098,7.28879737 L151.126098,12.1017632 L148.915467,12.1017632 L148.915467,7.22162105 C148.915467,6.33629737 148.462958,5.66787632 147.458126,5.66787632 C146.486789,5.66787632 145.917049,6.38609474 145.917049,7.28879737 L145.917049,12.1017632 L143.689671,12.1017632 Z" id="Fill-53" fill="#26182F" mask="url(#mask-14)"></path>
                <path d="M163.836687,7.05464947 C163.802858,6.23583368 163.267282,5.43372842 161.99416,5.43372842 C160.838603,5.43372842 160.20221,6.30267579 160.151968,7.05464947 L163.836687,7.05464947 Z M165.91334,9.74537842 C165.49466,11.1657732 164.188378,12.3525547 162.161967,12.3525547 C159.90076,12.3525547 157.907843,10.7312995 157.907843,7.95701789 C157.907843,5.33346526 159.850518,3.62899158 161.960666,3.62899158 C164.506575,3.62899158 166.03057,5.24991263 166.03057,7.89051 C166.03057,8.20767579 165.997076,8.54188632 165.997076,8.57564158 L160.102061,8.57564158 C160.151968,9.66182579 161.073064,10.4472205 162.178714,10.4472205 C163.216706,10.4472205 163.786445,9.92919421 164.054066,9.19359684 L165.91334,9.74537842 Z" id="Fill-54" fill="#26182F" mask="url(#mask-14)"></path>
                <path d="M173.097688,7.05464947 C173.063858,6.23583368 172.528283,5.43372842 171.255161,5.43372842 C170.099604,5.43372842 169.46321,6.30267579 169.412969,7.05464947 L173.097688,7.05464947 Z M175.17434,9.74537842 C174.75566,11.1657732 173.449379,12.3525547 171.422633,12.3525547 C169.161761,12.3525547 167.168844,10.7312995 167.168844,7.95701789 C167.168844,5.33346526 169.111519,3.62899158 171.221666,3.62899158 C173.767576,3.62899158 175.291571,5.24991263 175.291571,7.89051 C175.291571,8.20767579 175.258076,8.54188632 175.258076,8.57564158 L169.363062,8.57564158 C169.412969,9.66182579 170.334065,10.4472205 171.439715,10.4472205 C172.477706,10.4472205 173.047446,9.92919421 173.315066,9.19359684 L175.17434,9.74537842 Z" id="Fill-55" fill="#26182F" mask="url(#mask-14)"></path>
                <path d="M179.796233,3.87964947 L181.454206,3.87964947 L181.454206,5.85149158 L179.796233,5.85149158 L179.796233,9.29419421 C179.796233,10.0127468 180.131177,10.2466942 180.76757,10.2466942 C181.035526,10.2466942 181.336975,10.2132732 181.454206,10.1798521 L181.454206,12.0183442 C181.253239,12.1018968 180.851306,12.2185363 180.198166,12.2185363 C178.590099,12.2185363 177.585267,11.2663705 177.585267,9.67853632 L177.585267,5.85149158 L176.094767,5.85149158 L176.094767,3.87964947 L176.513447,3.87964947 C177.384301,3.87964947 177.786234,3.31149158 177.786234,2.57622842 L177.786234,1.42286789 L179.796233,1.42286789 L179.796233,3.87964947 Z" id="Fill-56" fill="#26182F" mask="url(#mask-14)"></path>
                <polygon id="Fill-57" fill="#26182F" mask="url(#mask-14)" points="187.917988 15.3436721 189.860999 11.0654432 186.360499 3.87958263 188.856167 3.87958263 191.05005 8.69254842 193.076461 3.87958263 195.454898 3.87958263 190.279679 15.3436721"></polygon>
                <path d="M202.220801,7.99070632 C202.220801,6.43662737 201.215969,5.65089842 200.127066,5.65089842 C199.038498,5.65089842 198.033666,6.43662737 198.033666,7.99070632 C198.033666,9.52807474 199.038498,10.33018 200.127066,10.33018 C201.215969,10.33018 202.220801,9.54478526 202.220801,7.99070632 M204.448178,7.99070632 C204.448178,10.5139958 202.589239,12.3524879 200.127066,12.3524879 C197.664892,12.3524879 195.806288,10.5139958 195.806288,7.99070632 C195.806288,5.45037211 197.664892,3.62892474 200.127066,3.62892474 C202.589239,3.62892474 204.448178,5.45037211 204.448178,7.99070632" id="Fill-58" fill="#26182F" mask="url(#mask-14)"></path>
                <path d="M211.498482,11.2159716 C211.046307,11.9846558 210.091717,12.3188663 209.220528,12.3188663 C207.227611,12.3188663 206.088801,10.8650505 206.088801,9.07702421 L206.088801,3.87971632 L208.316179,3.87971632 L208.316179,8.62584 C208.316179,9.54491895 208.7851,10.2801821 209.823762,10.2801821 C210.811847,10.2801821 211.381251,9.61142684 211.381251,8.65926105 L211.381251,3.87971632 L213.608964,3.87971632 L213.608964,10.6143926 C213.608964,11.2493926 213.658871,11.8175505 213.6927,12.1016295 L211.565471,12.1016295 C211.531976,11.9345242 211.498482,11.5501821 211.498482,11.2159716" id="Fill-59" fill="#26182F" mask="url(#mask-14)"></path>
                <path d="M217.577514,9.57820632 C218.314391,9.57820632 218.91729,10.1797853 218.91729,10.9150484 C218.91729,11.6503116 218.314391,12.23518 217.577514,12.23518 C216.857385,12.23518 216.271233,11.6503116 216.271233,10.9150484 C216.271233,10.1797853 216.857385,9.57820632 217.577514,9.57820632 L217.577514,9.57820632 Z M218.398127,8.49202211 L216.773649,8.49202211 L216.237403,0.253398421 L218.934038,0.253398421 L218.398127,8.49202211 Z" id="Fill-60" fill="#26182F" mask="url(#mask-14)"></path>
            </g>
        </g>
    </g>
</svg>