<?xml version="1.0" encoding="UTF-8"?>
<svg width="93px" height="22px" viewBox="0 0 93 22" version="1.1" xmlns="http://www.w3.org/2000/svg" xmlns:xlink="http://www.w3.org/1999/xlink">
    <!-- Generator: Sketch 64 (93537) - https://sketch.com -->
    <title>logo lilla</title>
    <desc>Created with Sketch.</desc>
    <g id="Page-1" stroke="none" stroke-width="1" fill="none" fill-rule="evenodd">
        <g id="logo-lilla" fill="#C9ABDD">
            <path d="M16.4501,20.5887333 L16.4501,14.2090667 C14.5331,14.0474 12.9784333,14.0744 11.7284333,14.4010667 C8.48843333,15.2477333 6.94576667,17.4467333 6.34343333,19.3770667 C6.0711,20.2500667 5.98176667,20.8604 5.98176667,20.8604 L5.98176667,3.7414 L0.0001,3.7414 L0.0001,21.6864 L15.3524333,21.6864 C15.9587667,21.6864 16.4501,21.1950667 16.4501,20.5887333" id="Fill-1"></path>
            <path d="M48.6076333,20.5887333 L48.6076333,14.2090667 C46.6906333,14.0474 45.1359667,14.0744 43.8859667,14.4010667 C40.6459667,15.2477333 39.1033,17.4467333 38.5009667,19.3770667 C38.2286333,20.2500667 38.1393,20.8604 38.1393,20.8604 L38.1393,3.7414 L32.1576333,3.7414 L32.1576333,21.6864 L47.5099667,21.6864 C48.1163,21.6864 48.6076333,21.1950667 48.6076333,20.5887333" id="Fill-3"></path>
            <path d="M69.5391333,20.5887333 L69.5391333,14.2090667 C67.6221333,14.0474 66.0674667,14.0744 64.8174667,14.4010667 C61.5774667,15.2477333 60.0348,17.4467333 59.4324667,19.3770667 C59.1601333,20.2500667 59.0708,20.8604 59.0708,20.8604 L59.0708,3.7414 L53.0891333,3.7414 L53.0891333,21.6864 L68.4414667,21.6864 C69.0478,21.6864 69.5391333,21.1950667 69.5391333,20.5887333" id="Fill-5"></path>
            <path d="M25.8285667,21.6780667 L20.9245667,21.6864 L20.9419,11.2527333 L26.9235667,11.2527333 L26.9235667,20.5810667 C26.9235667,21.1860667 26.4335667,21.6770667 25.8285667,21.6780667" id="Fill-7"></path>
            <path d="M86.737,13.1754333 C86.737,15.9631 85.121,17.9091 82.5686667,17.9091 C80.0126667,17.9091 78.567,15.9344333 78.567,12.8937667 C78.567,9.8411 80.027,7.8791 82.605,7.8791 C85.1763333,7.8791 86.737,9.78176667 86.737,12.6127667 L86.737,13.1754333 Z M86.753,8.1391 L86.6496667,8.1391 L86.5856667,7.9511 C85.4696667,4.7331 83.2663333,3.50676667 80.2936667,3.50676667 C75.203,3.50676667 72.5416667,6.96943333 72.5416667,12.8817667 C72.5416667,18.6951 75.33,21.9207667 80.2906667,21.9207667 C83.3596667,21.9207667 85.467,21.0314333 86.5753333,17.7771 L86.6386667,17.5954333 L86.7483333,17.5954333 L86.7466667,21.6864333 L92.7186667,21.6864333 L92.7336667,3.7411 L91.2263333,3.7411 C89.0213333,3.75676667 87.4916667,5.2501 87.0216667,6.66743333 C86.7533333,7.47676667 86.753,8.1391 86.753,8.1391 L86.753,8.1391 Z" id="Fill-9"></path>
            <path d="M23.9240667,0 C21.8614,0 20.1834,1.67833333 20.1834,3.741 C20.1834,5.80366667 21.8614,7.48166667 23.9240667,7.48166667 C25.9867333,7.48166667 27.6647333,5.80366667 27.6647333,3.741 C27.6647333,1.67833333 25.9867333,0 23.9240667,0" id="Fill-11"></path>
        </g>
    </g>
</svg>