<svg width="114" height="27" viewBox="0 0 114 27" fill="none" xmlns="http://www.w3.org/2000/svg">
<g clip-path="url(#clip0_1_53)">
<path d="M20.2249 25.3571V17.5003C17.8682 17.3013 15.9564 17.3345 14.4196 17.736C10.4341 18.7784 8.53703 21.4858 7.80171 23.8653C7.61001 24.4679 7.46135 25.0834 7.35684 25.7071V4.60803H0.00366211V26.709H18.8793C19.2371 26.709 19.5803 26.5666 19.8334 26.313C20.0864 26.0595 20.2286 25.7157 20.2286 25.3571" fill="black"/>
<path d="M59.7557 25.3571V17.5003C57.399 17.3013 55.4871 17.3345 53.9503 17.736C49.9686 18.7784 48.0678 21.4858 47.3325 23.8653C47.1408 24.4679 46.9921 25.0834 46.8876 25.7071V4.60803H39.5344V26.709H58.4063C58.7642 26.709 59.1074 26.5666 59.3605 26.313C59.6135 26.0595 59.7557 25.7157 59.7557 25.3571Z" fill="black"/>
<path d="M85.4881 25.3571V17.5003C83.1314 17.3013 81.2196 17.3345 79.6828 17.736C75.701 18.7784 73.8002 21.4858 73.0649 23.8653C72.871 24.4673 72.7223 25.0829 72.62 25.7071V4.60803H65.2668V26.709H84.1425C84.3196 26.709 84.4951 26.674 84.6588 26.6061C84.8225 26.5381 84.9713 26.4386 85.0966 26.313C85.2219 26.1875 85.3212 26.0385 85.3891 25.8745C85.4569 25.7105 85.4918 25.5347 85.4918 25.3571" fill="black"/>
<path d="M31.751 26.698H25.7251L25.7435 13.8463H33.0967V25.3351C33.0967 25.6936 32.9545 26.0374 32.7015 26.291C32.4484 26.5445 32.1052 26.6869 31.7474 26.6869" fill="black"/>
<path d="M106.651 10.0228H106.522L106.445 9.79075C105.073 5.82731 102.364 4.31708 98.7238 4.31708C92.4736 4.31708 89.1941 8.58256 89.1941 15.8648C89.1941 23.0255 92.6207 26.9963 98.7201 26.9963C102.492 26.9963 105.084 25.8913 106.441 21.8947L106.518 21.67H106.654V26.709H114.007L114.026 4.60808H112.187C111.061 4.60485 109.96 4.9492 109.035 5.59435C108.11 6.2395 107.406 7.1542 107.018 8.21421C106.823 8.79948 106.713 9.40981 106.691 10.0265M106.628 16.2148C106.628 19.6478 104.643 22.0457 101.507 22.0457C98.3709 22.0457 96.5877 19.6146 96.5877 15.8685C96.5877 12.1224 98.3819 9.69129 101.551 9.69129C104.72 9.69129 106.628 12.034 106.628 15.5223V16.2148Z" fill="black"/>
<path d="M29.4127 0.00738673C28.5027 0.00665824 27.6129 0.276387 26.856 0.782446C26.099 1.2885 25.509 2.00815 25.1604 2.85031C24.8118 3.69247 24.7204 4.6193 24.8978 5.51352C25.0751 6.40773 25.5132 7.22915 26.1567 7.87382C26.8002 8.51848 27.62 8.95743 28.5126 9.13512C29.4051 9.31281 30.3302 9.22124 31.1708 8.87201C32.0114 8.52278 32.7297 7.93159 33.2348 7.17323C33.7399 6.41488 34.0091 5.52345 34.0084 4.61175C34.0065 3.3912 33.5216 2.22119 32.6602 1.35813C31.7987 0.495062 30.6309 0.00933494 29.4127 0.00738673Z" fill="black"/>
</g>
<defs>
<clipPath id="clip0_1_53">
<rect width="114" height="27" fill="white"/>
</clipPath>
</defs>
</svg>
