<?xml version="1.0" encoding="UTF-8"?>
<svg width="6px" height="12px" viewBox="0 0 6 12" version="1.1" xmlns="http://www.w3.org/2000/svg" xmlns:xlink="http://www.w3.org/1999/xlink">
    <title>001-facebook-letter-logo</title>
    <g id="Desktop" stroke="none" stroke-width="1" fill="none" fill-rule="evenodd">
        <g id="PDP---data-filled" transform="translate(-222.000000, -706.000000)" fill="#8C8582" fill-rule="nonzero">
            <g id="Share-Button" transform="translate(222.000000, 704.000000)">
                <g id="001-facebook-letter-logo" transform="translate(0.000000, 2.000000)">
                    <path d="M1.22731323,2.31925754 C1.22731323,2.62103944 1.22731323,3.96801856 1.22731323,3.96801856 L0.0193781903,3.96801856 L0.0193781903,5.98412993 L1.22731323,5.98412993 L1.22731323,11.9753039 L3.70866821,11.9753039 L3.70866821,5.98429698 L5.37377262,5.98429698 C5.37377262,5.98429698 5.52971694,5.01758701 5.60530858,3.96058469 C5.38858469,3.96058469 3.71805104,3.96058469 3.71805104,3.96058469 C3.71805104,3.96058469 3.71805104,2.78767517 3.71805104,2.58208817 C3.71805104,2.37605568 3.98859397,2.09891415 4.25599072,2.09891415 C4.52288631,2.09891415 5.08619026,2.09891415 5.60792575,2.09891415 C5.60792575,1.82441763 5.60792575,0.875972158 5.60792575,2.78422274e-05 C4.91142459,2.78422274e-05 4.1190348,2.78422274e-05 3.76975406,2.78422274e-05 C1.1659768,-0.00011136891 1.22731323,2.01800464 1.22731323,2.31925754 Z" id="Facebook"></path>
                </g>
            </g>
        </g>
    </g>
</svg>