<?xml version="1.0" encoding="UTF-8"?>
<svg width="18px" height="18px" viewBox="0 0 18 18" version="1.1" xmlns="http://www.w3.org/2000/svg" xmlns:xlink="http://www.w3.org/1999/xlink">
    <title>icon_check_alt</title>
    <g id="Desktop" stroke="none" stroke-width="1" fill="none" fill-rule="evenodd">
        <g id="PDP---design-selected" transform="translate(-774.000000, -311.000000)" fill-rule="nonzero">
            <g id="Group-6" transform="translate(620.000000, 288.000000)">
                <g id="Group-4" transform="translate(8.000000, 0.000000)">
                    <g id="icon_check_alt" transform="translate(147.042000, 24.000000)">
                        <path d="M8,0 C3.582,0 0,3.582 0,8 C0,12.418 3.582,16 8,16 C12.418,16 16,12.418 16,8 C16,3.582 12.418,0 8,0 Z" id="Path" stroke="#FFFFFF" fill="#A775C8"></path>
                        <path d="M11.706,5.787 L7.874,11.644 C7.873,11.645 7.871,11.646 7.871,11.647 C7.851,11.677 7.84,11.711 7.815,11.739 C7.78,11.777 7.735,11.797 7.695,11.826 C7.685,11.833 7.675,11.841 7.664,11.848 C7.602,11.887 7.538,11.913 7.468,11.93 C7.445,11.936 7.424,11.942 7.4,11.946 C7.343,11.954 7.289,11.954 7.232,11.948 C7.192,11.945 7.154,11.94 7.115,11.93 C7.075,11.919 7.038,11.902 7,11.884 C6.968,11.869 6.934,11.865 6.904,11.846 C6.882,11.832 6.87,11.81 6.851,11.793 C6.843,11.786 6.833,11.784 6.825,11.777 L4.594,9.714 C4.31,9.451 4.293,9.008 4.555,8.725 C4.817,8.442 5.26,8.424 5.544,8.686 L7.159,10.18 L10.534,5.021 C10.746,4.698 11.179,4.607 11.503,4.818 C11.827,5.03 11.918,5.464 11.706,5.787 Z" id="Path" fill="#FFFFFF"></path>
                    </g>
                </g>
            </g>
        </g>
    </g>
</svg>