<?xml version="1.0" encoding="UTF-8"?>
<svg width="12px" height="10px" viewBox="0 0 12 10" version="1.1" xmlns="http://www.w3.org/2000/svg" xmlns:xlink="http://www.w3.org/1999/xlink">
    <title>002-twitter-logo-silhouette</title>
    <g id="Desktop" stroke="none" stroke-width="1" fill="none" fill-rule="evenodd">
        <g id="PDP---data-filled" transform="translate(-314.000000, -707.000000)" fill="#8C8582" fill-rule="nonzero">
            <g id="Share-Button" transform="translate(222.000000, 704.000000)">
                <g id="TWIT-SHARE" transform="translate(92.000000, 0.000000)">
                    <g id="002-twitter-logo-silhouette" transform="translate(0.000000, 3.000000)">
                        <path d="M11.7975904,1.18991968 C11.3633735,1.39034137 10.8974651,1.52626506 10.4079422,1.58694779 C10.9077783,1.27516064 11.2903904,0.78062249 11.4717301,0.19315261 C11.0028723,0.48188755 10.4853398,0.691546185 9.9338988,0.805200803 C9.49231807,0.314497992 8.86421205,0.00885542169 8.16753735,0.00885542169 C6.83097831,0.00885542169 5.74727711,1.13771084 5.74727711,2.52919679 C5.74727711,2.72654618 5.76865542,2.91929719 5.80994699,3.10361446 C3.79884337,2.99839357 2.01553735,1.99471888 0.821995181,0.469598394 C0.613359036,0.841285141 0.49466988,1.27437751 0.49466988,1.73668675 C0.49466988,2.61136546 0.922255422,3.38313253 1.57100723,3.83465863 C1.17438072,3.82084337 0.801349398,3.70718876 0.474775904,3.51827309 L0.474775904,3.54975904 C0.474775904,4.77076305 1.3093012,5.7897992 2.41584578,6.02172691 C2.21310843,6.07855422 1.9993253,6.11004016 1.77815904,6.11004016 C1.62187952,6.11004016 1.47074699,6.09391566 1.32256386,6.06319277 C1.63070843,7.06534137 2.52422169,7.79409639 3.58286265,7.81407631 C2.75496867,8.48985944 1.7110747,8.89148594 0.577253012,8.89148594 C0.381898795,8.89148594 0.189474699,8.87919679 1.92771084e-05,8.85692771 C1.07119036,9.57341365 2.34288193,9.99116466 3.70966747,9.99116466 C8.16167711,9.99116466 10.5952193,6.14997992 10.5952193,2.81871486 L10.5871036,2.4923494 C11.0625928,2.13907631 11.473947,1.69522088 11.7975904,1.18991968 Z" id="Shape"></path>
                    </g>
                </g>
            </g>
        </g>
    </g>
</svg>