<?xml version="1.0" encoding="UTF-8"?>
<svg width="17px" height="20px" viewBox="0 0 17 20" version="1.1" xmlns="http://www.w3.org/2000/svg" xmlns:xlink="http://www.w3.org/1999/xlink">
    <!-- Generator: Sketch 64 (93537) - https://sketch.com -->
    <title>Group 10</title>
    <desc>Created with Sketch.</desc>
    <g id="Page-1" stroke="none" stroke-width="1" fill="none" fill-rule="evenodd">
        <g id="Group-10" transform="translate(1.000000, 1.000000)">
            <path d="M10.916332,4.04755979 C10.916332,5.97550825 9.35339381,7.53844639 7.42544536,7.53844639 C5.49749691,7.53844639 3.93455876,5.97550825 3.93455876,4.04755979 C3.93455876,2.11961134 5.49749691,0.556673196 7.42544536,0.556673196 C9.35339381,0.556673196 10.916332,2.11961134 10.916332,4.04755979" id="Fill-1" fill="#FFFFFF"></path>
            <g id="Group-5" transform="translate(3.432990, 0.083598)" fill="#A179C5" stroke="#A179C5" stroke-width="0.3">
                <path d="M3.99245567,0.936983505 C2.3233732,0.936983505 0.965486598,2.2948701 0.965486598,3.96395258 C0.965486598,5.63303505 2.3233732,6.99092165 3.99245567,6.99092165 C5.66153814,6.99092165 7.01942474,5.63303505 7.01942474,3.96395258 C7.01942474,2.2948701 5.66153814,0.936983505 3.99245567,0.936983505 M3.99245567,7.9187567 C1.81176495,7.9187567 0.0376515464,6.1446433 0.0376515464,3.96395258 C0.0376515464,1.78326186 1.81176495,0.00914845361 3.99245567,0.00914845361 C6.17314639,0.00914845361 7.94725979,1.78326186 7.94725979,3.96395258 C7.94725979,6.1446433 6.17314639,7.9187567 3.99245567,7.9187567" id="Fill-3"></path>
            </g>
            <path d="M11.2252175,17.5268969 L0.463908247,17.5268969 L0.463908247,12.8341856 C0.463908247,11.0880928 1.8794134,9.67249485 3.62559897,9.67249485 L14.387001,9.67249485 L14.387001,14.3652062 C14.387001,16.1113918 12.9714031,17.5268969 11.2252175,17.5268969" id="Fill-6" fill="#FFFFFF"></path>
            <path d="M0.927835052,17.0629794 L11.2252268,17.0629794 C12.7128247,17.0629794 13.9230928,15.8528041 13.9230928,14.3652062 L13.9230928,10.1364124 L3.62560825,10.1364124 C2.13801031,10.1364124 0.927835052,11.3466804 0.927835052,12.8341856 L0.927835052,17.0629794 Z M11.2252268,17.9908144 L0.463917526,17.9908144 C0.207742268,17.9908144 0,17.7830722 0,17.5268969 L0,12.8341856 C0,10.8349794 1.62640206,9.20857732 3.62560825,9.20857732 L14.3870103,9.20857732 C14.6431856,9.20857732 14.8509278,9.4162268 14.8509278,9.67249485 L14.8509278,14.3652062 C14.8509278,16.3644124 13.224433,17.9908144 11.2252268,17.9908144 L11.2252268,17.9908144 Z" id="Fill-8" stroke="#A179C5" stroke-width="0.3" fill="#A179C5"></path>
        </g>
    </g>
</svg>