<?xml version="1.0" encoding="UTF-8"?>
<svg width="18px" height="18px" viewBox="0 0 18 18" version="1.1" xmlns="http://www.w3.org/2000/svg" xmlns:xlink="http://www.w3.org/1999/xlink">
    <!-- Generator: Sketch 64 (93537) - https://sketch.com -->
    <title>Group 16</title>
    <desc>Created with Sketch.</desc>
    <defs>
        <polygon id="path-1" points="0 0.0649180328 2.92521639 0.0649180328 2.92521639 12.186777 0 12.186777"></polygon>
    </defs>
    <g id="Page-1" stroke="none" stroke-width="1" fill="none" fill-rule="evenodd">
        <g id="Group-16" transform="translate(0.000000, 0.000000)">
            <g id="Group-3" transform="translate(0.000000, 0.033443)">
                <mask id="mask-2" fill="white">
                    <use xlink:href="#path-1"></use>
                </mask>
                <g id="Clip-2"></g>
                <path d="M2.92521639,12.186777 L1.94160984,12.186777 L1.94160984,1.04851475 L-2.95081967e-05,1.04851475 L-2.95081967e-05,0.0649081967 L2.43341311,0.0649081967 C2.70498689,0.0649081967 2.92521639,0.285137705 2.92521639,0.556711475 L2.92521639,12.186777 Z" id="Fill-1" fill="#A179C5" mask="url(#mask-2)"></path>
            </g>
            <path d="M6.1107541,15.6046328 C6.1107541,16.6201082 5.28757377,17.4432885 4.27209836,17.4432885 C3.25662295,17.4432885 2.43344262,16.6201082 2.43344262,15.6046328 C2.43344262,14.5891574 3.25662295,13.765977 4.27209836,13.765977 C5.28757377,13.765977 6.1107541,14.5891574 6.1107541,15.6046328" id="Fill-4" fill="#FDFDFD"></path>
            <path d="M4.2721082,14.2577508 C3.52938689,14.2577508 2.92525574,14.8619803 2.92525574,15.6046033 C2.92525574,16.3473246 3.52938689,16.9514557 4.2721082,16.9514557 C5.01473115,16.9514557 5.61896066,16.3473246 5.61896066,15.6046033 C5.61896066,14.8619803 5.01473115,14.2577508 4.2721082,14.2577508 M4.2721082,17.9350623 C2.98712459,17.9350623 1.94164918,16.8896852 1.94164918,15.6046033 C1.94164918,14.3196197 2.98712459,13.2741443 4.2721082,13.2741443 C5.5570918,13.2741443 6.60256721,14.3196197 6.60256721,15.6046033 C6.60256721,16.8896852 5.5570918,17.9350623 4.2721082,17.9350623" id="Fill-6" fill="#A179C5"></path>
            <path d="M13.124282,15.6046328 C13.124282,16.6201082 12.3011016,17.4432885 11.2856262,17.4432885 C10.2701508,17.4432885 9.44697049,16.6201082 9.44697049,15.6046328 C9.44697049,14.5891574 10.2701508,13.765977 11.2856262,13.765977 C12.3011016,13.765977 13.124282,14.5891574 13.124282,15.6046328" id="Fill-8" fill="#FFFFFF"></path>
            <path d="M11.2856361,14.2577508 C10.5429148,14.2577508 9.93878361,14.8619803 9.93878361,15.6046033 C9.93878361,16.3473246 10.5429148,16.9514557 11.2856361,16.9514557 C12.028259,16.9514557 12.6324885,16.3473246 12.6324885,15.6046033 C12.6324885,14.8619803 12.028259,14.2577508 11.2856361,14.2577508 M11.2856361,17.9350623 C10.0006525,17.9350623 8.95517705,16.8896852 8.95517705,15.6046033 C8.95517705,14.3196197 10.0006525,13.2741443 11.2856361,13.2741443 C12.5706197,13.2741443 13.6160951,14.3196197 13.6160951,15.6046033 C13.6160951,16.8896852 12.5706197,17.9350623 11.2856361,17.9350623" id="Fill-10" fill="#A179C5"></path>
            <path d="M13.0939279,12.2202197 L2.43340328,12.2202197 L2.43340328,5.8411377 C2.43340328,3.76917049 4.1131082,2.08946557 6.18507541,2.08946557 L16.8456,2.08946557 L16.8456,8.46854754 C16.8456,10.5405148 15.1658951,12.2202197 13.0939279,12.2202197" id="Fill-12" fill="#FFFFFF"></path>
            <path d="M2.92521639,11.7284164 L13.0939377,11.7284164 C14.8913803,11.7284164 16.3537082,10.2659902 16.3537082,8.46854754 L16.3537082,2.58126885 L6.18508525,2.58126885 C4.38754426,2.58126885 2.92521639,4.04369508 2.92521639,5.8411377 L2.92521639,11.7284164 Z M13.0939377,12.712023 L2.43341311,12.712023 C2.16183934,12.712023 1.94160984,12.4917934 1.94160984,12.2202197 L1.94160984,5.8411377 C1.94160984,3.50133443 3.84518361,1.5976623 6.18508525,1.5976623 L16.8455115,1.5976623 C17.1171836,1.5976623 17.3373148,1.8178918 17.3373148,2.08946557 L17.3373148,8.46854754 C17.3373148,10.8083508 15.433741,12.712023 13.0939377,12.712023 L13.0939377,12.712023 Z" id="Fill-14" fill="#A179C5"></path>
        </g>
    </g>
</svg>