<?xml version="1.0" encoding="UTF-8"?>
<svg width="18px" height="18px" viewBox="0 0 18 18" version="1.1" xmlns="http://www.w3.org/2000/svg" xmlns:xlink="http://www.w3.org/1999/xlink">
    <!-- Generator: Sketch 64 (93537) - https://sketch.com -->
    <title>Group 22</title>
    <desc>Created with Sketch.</desc>
    <g id="Page-1" stroke="none" stroke-width="1" fill="none" fill-rule="evenodd">
        <g id="Group-22">
            <path d="M5.25256281,8.42508543 L7.14590955,8.42508543 L7.14590955,6.53173869 L5.25256281,6.53173869 L5.25256281,8.42508543 Z M7.59817085,9.32960804 L4.80030151,9.32960804 C4.55056281,9.32960804 4.3480402,9.12708543 4.3480402,8.87734673 L4.3480402,6.07947739 C4.3480402,5.82964824 4.55056281,5.62721608 4.80030151,5.62721608 L7.59817085,5.62721608 C7.84790955,5.62721608 8.05043216,5.82964824 8.05043216,6.07947739 L8.05043216,8.87734673 C8.05043216,9.12708543 7.84790955,9.32960804 7.59817085,9.32960804 L7.59817085,9.32960804 Z" id="Fill-1" fill="#A179C5"></path>
            <path d="M10.5086533,8.42508543 L12.402,8.42508543 L12.402,6.53173869 L10.5086533,6.53173869 L10.5086533,8.42508543 Z M12.8542613,9.32960804 L10.056392,9.32960804 C9.80665327,9.32960804 9.60413065,9.12708543 9.60413065,8.87734673 L9.60413065,6.07947739 C9.60413065,5.82964824 9.80665327,5.62721608 10.056392,5.62721608 L12.8542613,5.62721608 C13.104,5.62721608 13.3065226,5.82964824 13.3065226,6.07947739 L13.3065226,8.87734673 C13.3065226,9.12708543 13.104,9.32960804 12.8542613,9.32960804 L12.8542613,9.32960804 Z" id="Fill-3" fill="#A179C5"></path>
            <path d="M5.25256281,13.5445025 L7.14590955,13.5445025 L7.14590955,11.6511558 L5.25256281,11.6511558 L5.25256281,13.5445025 Z M7.59817085,14.4490251 L4.80030151,14.4490251 C4.55056281,14.4490251 4.3480402,14.246593 4.3480402,13.9967638 L4.3480402,11.1989849 C4.3480402,10.9491558 4.55056281,10.7467236 4.80030151,10.7467236 L7.59817085,10.7467236 C7.84790955,10.7467236 8.05043216,10.9491558 8.05043216,11.1989849 L8.05043216,13.9967638 C8.05043216,14.246593 7.84790955,14.4490251 7.59817085,14.4490251 L7.59817085,14.4490251 Z" id="Fill-4" fill="#A179C5"></path>
            <path d="M15.7321447,17.5275588 L0.452225126,17.5275588 L0.452225126,1.50321709 L11.439009,1.50321709 L17.2023558,1.50321709 L17.2023558,16.0573477 C17.2023558,16.8693377 16.5441347,17.5275588 15.7321447,17.5275588" id="Fill-5" fill="#A179C5"></path>
            <path d="M0.904522613,17.0753065 L15.7321809,17.0753065 C16.2934372,17.0753065 16.7500402,16.6187035 16.7500402,16.0573568 L16.7500402,1.95548744 L0.904522613,1.95548744 L0.904522613,17.0753065 Z M15.7321809,17.9798291 L0.452261307,17.9798291 C0.202522613,17.9798291 0,17.7773065 0,17.5275678 L0,1.50322613 C0,1.25348744 0.202522613,1.05096482 0.452261307,1.05096482 L17.2023015,1.05096482 C17.4520402,1.05096482 17.6545628,1.25348744 17.6545628,1.50322613 L17.6545628,16.0573568 C17.6545628,17.1173668 16.792191,17.9798291 15.7321809,17.9798291 L15.7321809,17.9798291 Z" id="Fill-6" fill="#A179C5"></path>
            <path d="M5.12908643,1.30633869 C5.12908643,1.82797688 4.70622211,2.25084121 4.18458392,2.25084121 C3.66294573,2.25084121 3.24008141,1.82797688 3.24008141,1.30633869 C3.24008141,0.784700503 3.66294573,0.361836181 4.18458392,0.361836181 C4.70622211,0.361836181 5.12908643,0.784700503 5.12908643,1.30633869" id="Fill-7" fill="#A179C5"></path>
            <path d="M4.18461106,0.723627136 C3.86332462,0.723627136 3.60191759,0.985034171 3.60191759,1.3063206 C3.60191759,1.62769749 3.86332462,1.88901407 4.18461106,1.88901407 C4.50589749,1.88901407 4.76730452,1.62769749 4.76730452,1.3063206 C4.76730452,0.985034171 4.50589749,0.723627136 4.18461106,0.723627136 M4.18461106,2.61263216 C3.4643397,2.61263216 2.8782995,2.02668241 2.8782995,1.3063206 C2.8782995,0.586049246 3.4643397,9.04522613e-06 4.18461106,9.04522613e-06 C4.90488241,9.04522613e-06 5.49092261,0.586049246 5.49092261,1.3063206 C5.49092261,2.02668241 4.90488241,2.61263216 4.18461106,2.61263216" id="Fill-8" fill="#FFFFFF"></path>
            <path d="M9.77178392,1.30633869 C9.77178392,1.82797688 9.3489196,2.25084121 8.82728141,2.25084121 C8.30564322,2.25084121 7.88277889,1.82797688 7.88277889,1.30633869 C7.88277889,0.784700503 8.30564322,0.361836181 8.82728141,0.361836181 C9.3489196,0.361836181 9.77178392,0.784700503 9.77178392,1.30633869" id="Fill-9" fill="#A179C5"></path>
            <path d="M8.82730854,0.723627136 C8.50602211,0.723627136 8.24461508,0.985034171 8.24461508,1.3063206 C8.24461508,1.62769749 8.50602211,1.88901407 8.82730854,1.88901407 C9.14859497,1.88901407 9.41000201,1.62769749 9.41000201,1.3063206 C9.41000201,0.985034171 9.14859497,0.723627136 8.82730854,0.723627136 M8.82730854,2.61263216 C8.10703719,2.61263216 7.52099698,2.02668241 7.52099698,1.3063206 C7.52099698,0.586049246 8.10703719,9.04522613e-06 8.82730854,9.04522613e-06 C9.5475799,9.04522613e-06 10.1336201,0.586049246 10.1336201,1.3063206 C10.1336201,2.02668241 9.5475799,2.61263216 8.82730854,2.61263216" id="Fill-10" fill="#FFFFFF"></path>
            <path d="M14.4144724,1.30633869 C14.4144724,1.82797688 13.991608,2.25084121 13.4699698,2.25084121 C12.9483317,2.25084121 12.5254673,1.82797688 12.5254673,1.30633869 C12.5254673,0.784700503 12.9483317,0.361836181 13.4699698,0.361836181 C13.991608,0.361836181 14.4144724,0.784700503 14.4144724,1.30633869" id="Fill-11" fill="#A179C5"></path>
            <path d="M13.4699698,0.723627136 C13.1486834,0.723627136 12.8872764,0.985034171 12.8872764,1.3063206 C12.8872764,1.62769749 13.1486834,1.88901407 13.4699698,1.88901407 C13.7912563,1.88901407 14.0526633,1.62769749 14.0526633,1.3063206 C14.0526633,0.985034171 13.7912563,0.723627136 13.4699698,0.723627136 M13.4699698,2.61263216 C12.7496985,2.61263216 12.1636583,2.02668241 12.1636583,1.3063206 C12.1636583,0.586049246 12.7496985,9.04522613e-06 13.4699698,9.04522613e-06 C14.1902412,9.04522613e-06 14.7762814,0.586049246 14.7762814,1.3063206 C14.7762814,2.02668241 14.1902412,2.61263216 13.4699698,2.61263216" id="Fill-12" fill="#FFFFFF"></path>
            <path d="M10.7098915,11.6512191 C10.4911779,11.6512191 10.3132583,11.8291387 10.3132583,12.0478523 C10.3132583,12.5148573 10.9502231,13.1099427 11.4553085,13.4592693 C11.9605749,13.1098523 12.5974492,12.5147668 12.5974492,12.0478523 C12.5974492,11.8291387 12.4195296,11.6512191 12.2007256,11.6512191 C12.0556402,11.6512191 11.9220422,11.7306362 11.8522131,11.8585357 C11.7728864,12.0036211 11.6207457,12.0939829 11.4553085,12.0939829 C11.2899618,12.0939829 11.1377307,12.0036211 11.058404,11.8585357 C10.9885749,11.7306362 10.8549769,11.6512191 10.7098915,11.6512191 M11.4553085,14.4490884 C11.373992,14.4490884 11.2926754,14.4271085 11.2205849,14.3834201 L11.1814191,14.3596312 C11.1352884,14.331591 10.7182131,14.074797 10.306203,13.6905558 C9.71066533,13.1351789 9.40873568,12.5824251 9.40873568,12.0478523 C9.40873568,11.3303849 9.99242412,10.7466965 10.7098915,10.7466965 C10.9814291,10.7466965 11.2404844,10.8312693 11.4553085,10.9814201 C11.6702231,10.8312693 11.9291879,10.7466965 12.2007256,10.7466965 C12.9182834,10.7466965 13.5019719,11.3303849 13.5019719,12.0478523 C13.5019719,12.5824251 13.2000422,13.1351789 12.6045045,13.6905558 C12.1924945,14.074797 11.7754191,14.331591 11.729198,14.3596312 L11.6900322,14.3834201 C11.6179417,14.4271085 11.5366251,14.4490884 11.4553085,14.4490884" id="Fill-13" fill="#A179C5"></path>
            <polygon id="Fill-14" fill="#FFFFFF" points="4.80030151 8.87734673 7.59817085 8.87734673 7.59817085 6.07947739 4.80030151 6.07947739"></polygon>
            <path d="M5.25256281,8.42508543 L7.14590955,8.42508543 L7.14590955,6.53173869 L5.25256281,6.53173869 L5.25256281,8.42508543 Z M7.59817085,9.32960804 L4.80030151,9.32960804 C4.55056281,9.32960804 4.3480402,9.12708543 4.3480402,8.87734673 L4.3480402,6.07947739 C4.3480402,5.82964824 4.55056281,5.62721608 4.80030151,5.62721608 L7.59817085,5.62721608 C7.84790955,5.62721608 8.05043216,5.82964824 8.05043216,6.07947739 L8.05043216,8.87734673 C8.05043216,9.12708543 7.84790955,9.32960804 7.59817085,9.32960804 L7.59817085,9.32960804 Z" id="Fill-15" fill="#FFFFFF"></path>
            <polygon id="Fill-16" fill="#FFFFFF" points="10.056392 8.87734673 12.8542613 8.87734673 12.8542613 6.07947739 10.056392 6.07947739"></polygon>
            <path d="M10.5086533,8.42508543 L12.402,8.42508543 L12.402,6.53173869 L10.5086533,6.53173869 L10.5086533,8.42508543 Z M12.8542613,9.32960804 L10.056392,9.32960804 C9.80665327,9.32960804 9.60413065,9.12708543 9.60413065,8.87734673 L9.60413065,6.07947739 C9.60413065,5.82964824 9.80665327,5.62721608 10.056392,5.62721608 L12.8542613,5.62721608 C13.104,5.62721608 13.3065226,5.82964824 13.3065226,6.07947739 L13.3065226,8.87734673 C13.3065226,9.12708543 13.104,9.32960804 12.8542613,9.32960804 L12.8542613,9.32960804 Z" id="Fill-17" fill="#FFFFFF"></path>
            <polygon id="Fill-18" fill="#FFFFFF" points="4.80030151 13.9967638 7.59817085 13.9967638 7.59817085 11.1988945 4.80030151 11.1988945"></polygon>
            <path d="M5.25256281,13.5445025 L7.14590955,13.5445025 L7.14590955,11.6511558 L5.25256281,11.6511558 L5.25256281,13.5445025 Z M7.59817085,14.4490251 L4.80030151,14.4490251 C4.55056281,14.4490251 4.3480402,14.246593 4.3480402,13.9967638 L4.3480402,11.1989849 C4.3480402,10.9491558 4.55056281,10.7467236 4.80030151,10.7467236 L7.59817085,10.7467236 C7.84790955,10.7467236 8.05043216,10.9491558 8.05043216,11.1989849 L8.05043216,13.9967638 C8.05043216,14.246593 7.84790955,14.4490251 7.59817085,14.4490251 L7.59817085,14.4490251 Z" id="Fill-19" fill="#FFFFFF"></path>
            <path d="M11.4159618,13.9728935 C11.3524643,13.9343608 9.86099698,13.0181698 9.86099698,12.0478884 C9.86099698,11.579798 10.241801,11.1989035 10.7098915,11.1989035 C11.0246653,11.1989035 11.3090472,11.3738382 11.4553085,11.6416673 C11.6015698,11.3738382 11.8859518,11.1989035 12.2007256,11.1989035 C12.6689065,11.1989035 13.0497106,11.579798 13.0497106,12.0478884 C13.0497106,13.0181698 11.5582432,13.9343608 11.4946553,13.9728935 L11.4553085,13.9967729 L11.4159618,13.9728935 Z" id="Fill-20" fill="#FFFFFF"></path>
            <path d="M10.7098915,11.6512191 C10.4911779,11.6512191 10.3132583,11.8291387 10.3132583,12.0478523 C10.3132583,12.5148573 10.9502231,13.1099427 11.4553085,13.4592693 C11.9605749,13.1098523 12.5974492,12.5147668 12.5974492,12.0478523 C12.5974492,11.8291387 12.4195296,11.6512191 12.2007256,11.6512191 C12.0556402,11.6512191 11.9220422,11.7306362 11.8522131,11.8585357 C11.7728864,12.0036211 11.6207457,12.0939829 11.4553085,12.0939829 C11.2899618,12.0939829 11.1377307,12.0036211 11.058404,11.8585357 C10.9885749,11.7306362 10.8549769,11.6512191 10.7098915,11.6512191 M11.4553085,14.4490884 C11.373992,14.4490884 11.2926754,14.4271085 11.2205849,14.3834201 L11.1814191,14.3596312 C11.1352884,14.331591 10.7182131,14.074797 10.306203,13.6905558 C9.71066533,13.1351789 9.40873568,12.5824251 9.40873568,12.0478523 C9.40873568,11.3303849 9.99242412,10.7466965 10.7098915,10.7466965 C10.9814291,10.7466965 11.2404844,10.8312693 11.4553085,10.9814201 C11.6702231,10.8312693 11.9291879,10.7466965 12.2007256,10.7466965 C12.9182834,10.7466965 13.5019719,11.3303849 13.5019719,12.0478523 C13.5019719,12.5824251 13.2000422,13.1351789 12.6045045,13.6905558 C12.1924945,14.074797 11.7754191,14.331591 11.729198,14.3596312 L11.6900322,14.3834201 C11.6179417,14.4271085 11.5366251,14.4490884 11.4553085,14.4490884" id="Fill-21" fill="#FFFFFF"></path>
        </g>
    </g>
</svg>