<?xml version="1.0" encoding="UTF-8"?>
<svg width="19px" height="20px" viewBox="0 0 19 20" version="1.1" xmlns="http://www.w3.org/2000/svg" xmlns:xlink="http://www.w3.org/1999/xlink">
    <!-- Generator: Sketch 64 (93537) - https://sketch.com -->
    <title>Group 13</title>
    <desc>Created with Sketch.</desc>
    <g id="Page-1" stroke="none" stroke-width="1" fill="none" fill-rule="evenodd">
        <g id="Group-13" transform="translate(1.000000, 1.000000)">
            <path d="M5.27909091,8.37672727 L7.182,8.37672727 L7.182,6.47381818 L5.27909091,6.47381818 L5.27909091,8.37672727 Z M7.63654545,9.28581818 L4.82454545,9.28581818 C4.57354545,9.28581818 4.37,9.08227273 4.37,8.83127273 L4.37,6.01927273 C4.37,5.76818182 4.57354545,5.56472727 4.82454545,5.56472727 L7.63654545,5.56472727 C7.88763636,5.56472727 8.09109091,5.76818182 8.09109091,6.01927273 L8.09109091,8.83127273 C8.09109091,9.08227273 7.88763636,9.28581818 7.63654545,9.28581818 L7.63654545,9.28581818 Z" id="Fill-1" stroke="#A179C5" stroke-width="0.3" fill="#A179C5"></path>
            <path d="M10.5617273,8.37672727 L12.4646364,8.37672727 L12.4646364,6.47381818 L10.5617273,6.47381818 L10.5617273,8.37672727 Z M12.9191818,9.28581818 L10.1071818,9.28581818 C9.85618182,9.28581818 9.65263636,9.08227273 9.65263636,8.83127273 L9.65263636,6.01927273 C9.65263636,5.76818182 9.85618182,5.56472727 10.1071818,5.56472727 L12.9191818,5.56472727 C13.1702727,5.56472727 13.3737273,5.76818182 13.3737273,6.01927273 L13.3737273,8.83127273 C13.3737273,9.08227273 13.1702727,9.28581818 12.9191818,9.28581818 L12.9191818,9.28581818 Z" id="Fill-3" stroke="#A179C5" stroke-width="0.3" fill="#A179C5"></path>
            <path d="M5.27909091,13.522 L7.182,13.522 L7.182,11.6190909 L5.27909091,11.6190909 L5.27909091,13.522 Z M7.63654545,14.4310909 L4.82454545,14.4310909 C4.57354545,14.4310909 4.37,14.2276364 4.37,13.9765455 L4.37,11.1646364 C4.37,10.9135455 4.57354545,10.7100909 4.82454545,10.7100909 L7.63654545,10.7100909 C7.88763636,10.7100909 8.09109091,10.9135455 8.09109091,11.1646364 L8.09109091,13.9765455 C8.09109091,14.2276364 7.88763636,14.4310909 7.63654545,14.4310909 L7.63654545,14.4310909 Z" id="Fill-4" stroke="#A179C5" stroke-width="0.3" fill="#A179C5"></path>
            <path d="M0.909090909,17.0706364 L15.8116364,17.0706364 C16.3757273,17.0706364 16.8347273,16.6117273 16.8347273,16.0475455 L16.8347273,1.87445455 L0.909090909,1.87445455 L0.909090909,17.0706364 Z M15.8116364,17.9797273 L0.454545455,17.9797273 C0.203545455,17.9797273 0,17.7761818 0,17.5251818 L0,1.41990909 C0,1.16890909 0.203545455,0.965363636 0.454545455,0.965363636 L17.2892727,0.965363636 C17.5402727,0.965363636 17.7438182,1.16890909 17.7438182,1.41990909 L17.7438182,16.0475455 C17.7438182,17.1129091 16.877,17.9797273 15.8116364,17.9797273 L15.8116364,17.9797273 Z" id="Fill-5" stroke="#A179C5" stroke-width="0.3" fill="#A179C5"></path>
            <path d="M5.15500909,1.40381818 C5.15500909,1.92809091 4.73000909,2.35309091 4.20573636,2.35309091 C3.68146364,2.35309091 3.25646364,1.92809091 3.25646364,1.40381818 C3.25646364,0.879545455 3.68146364,0.454545455 4.20573636,0.454545455 C4.73000909,0.454545455 5.15500909,0.879545455 5.15500909,1.40381818" id="Fill-6" fill="#FFFFFF"></path>
            <path d="M4.20574545,0.9091 C3.93301818,0.9091 3.71101818,1.13100909 3.71101818,1.40382727 C3.71101818,1.67655455 3.93301818,1.89855455 4.20574545,1.89855455 C4.47847273,1.89855455 4.70047273,1.67655455 4.70047273,1.40382727 C4.70047273,1.13100909 4.47847273,0.9091 4.20574545,0.9091 M4.20574545,2.80764545 C3.43165455,2.80764545 2.80192727,2.17791818 2.80192727,1.40382727 C2.80192727,0.629736364 3.43165455,9.09090909e-06 4.20574545,9.09090909e-06 C4.97983636,9.09090909e-06 5.60956364,0.629736364 5.60956364,1.40382727 C5.60956364,2.17791818 4.97983636,2.80764545 4.20574545,2.80764545" id="Fill-7" stroke="#A179C5" stroke-width="0.3" fill="#A179C5"></path>
            <path d="M9.82115455,1.40381818 C9.82115455,1.92809091 9.39615455,2.35309091 8.87188182,2.35309091 C8.34760909,2.35309091 7.92260909,1.92809091 7.92260909,1.40381818 C7.92260909,0.879545455 8.34760909,0.454545455 8.87188182,0.454545455 C9.39615455,0.454545455 9.82115455,0.879545455 9.82115455,1.40381818" id="Fill-8" fill="#FFFFFF"></path>
            <path d="M8.87189091,0.9091 C8.59916364,0.9091 8.37716364,1.13100909 8.37716364,1.40382727 C8.37716364,1.67655455 8.59916364,1.89855455 8.87189091,1.89855455 C9.14461818,1.89855455 9.36661818,1.67655455 9.36661818,1.40382727 C9.36661818,1.13100909 9.14461818,0.9091 8.87189091,0.9091 M8.87189091,2.80764545 C8.0978,2.80764545 7.46807273,2.17791818 7.46807273,1.40382727 C7.46807273,0.629736364 8.0978,9.09090909e-06 8.87189091,9.09090909e-06 C9.64598182,9.09090909e-06 10.2757091,0.629736364 10.2757091,1.40382727 C10.2757091,2.17791818 9.64598182,2.80764545 8.87189091,2.80764545" id="Fill-9" stroke="#A179C5" stroke-width="0.3" fill="#A179C5"></path>
            <path d="M14.4873091,1.40381818 C14.4873091,1.92809091 14.0623091,2.35309091 13.5380364,2.35309091 C13.0137636,2.35309091 12.5887636,1.92809091 12.5887636,1.40381818 C12.5887636,0.879545455 13.0137636,0.454545455 13.5380364,0.454545455 C14.0623091,0.454545455 14.4873091,0.879545455 14.4873091,1.40381818" id="Fill-10" fill="#FFFFFF"></path>
            <path d="M13.5380455,0.9091 C13.2652273,0.9091 13.0433182,1.13100909 13.0433182,1.40382727 C13.0433182,1.67655455 13.2652273,1.89855455 13.5380455,1.89855455 C13.8107727,1.89855455 14.0327727,1.67655455 14.0327727,1.40382727 C14.0327727,1.13100909 13.8107727,0.9091 13.5380455,0.9091 M13.5380455,2.80764545 C12.7639545,2.80764545 12.1342273,2.17791818 12.1342273,1.40382727 C12.1342273,0.629736364 12.7639545,9.09090909e-06 13.5380455,9.09090909e-06 C14.3121364,9.09090909e-06 14.9418636,0.629736364 14.9418636,1.40382727 C14.9418636,2.17791818 14.3121364,2.80764545 13.5380455,2.80764545" id="Fill-11" stroke="#A179C5" stroke-width="0.3" fill="#A179C5"></path>
            <path d="M10.7639818,11.6191545 C10.5441636,11.6191545 10.3653455,11.7979727 10.3653455,12.0177909 C10.3653455,12.4871545 11.0055273,13.0852455 11.5131636,13.4363364 C12.0208909,13.0852455 12.6610727,12.4871545 12.6610727,12.0177909 C12.6610727,11.7979727 12.4822545,11.6191545 12.2623455,11.6191545 C12.1165273,11.6191545 11.9822545,11.6989727 11.9120727,11.8275182 C11.8323455,11.9733364 11.6794364,12.0641545 11.5131636,12.0641545 C11.3469818,12.0641545 11.1939818,11.9733364 11.1142545,11.8275182 C11.0440727,11.6989727 10.9098,11.6191545 10.7639818,11.6191545 M11.5131636,14.4311545 C11.4314364,14.4311545 11.3497091,14.4090636 11.2772545,14.3651545 L11.2378909,14.3412455 C11.1915273,14.3130636 10.7723455,14.0549727 10.3582545,13.6687909 C9.75970909,13.1106091 9.45625455,12.5550636 9.45625455,12.0177909 C9.45625455,11.2967 10.0428909,10.7100636 10.7639818,10.7100636 C11.0368909,10.7100636 11.2972545,10.7949727 11.5131636,10.9459727 C11.7291636,10.7949727 11.9894364,10.7100636 12.2623455,10.7100636 C12.9835273,10.7100636 13.5701636,11.2967 13.5701636,12.0177909 C13.5701636,12.5550636 13.2667091,13.1106091 12.6681636,13.6687909 C12.2540727,14.0549727 11.8348909,14.3130636 11.7885273,14.3412455 L11.7488909,14.3652455 C11.6765273,14.4091545 11.5948,14.4311545 11.5131636,14.4311545" id="Fill-12" stroke="#A179C5" stroke-width="0.3" fill="#A179C5"></path>
        </g>
    </g>
</svg>