<?xml version="1.0" encoding="UTF-8"?>
<svg width="25px" height="25px" viewBox="0 0 25 25" version="1.1" xmlns="http://www.w3.org/2000/svg" xmlns:xlink="http://www.w3.org/1999/xlink">
    <title>Group 3</title>
    <g id="Symbols" stroke="none" stroke-width="1" fill="none" fill-rule="evenodd">
        <g id="Components-/-Header-/-Before-Login" transform="translate(-1314.000000, -20.000000)" fill="#A775C8" fill-rule="nonzero">
            <g id="main-header" transform="translate(0.000000, 0.000000)">
                <g id="Group-7" transform="translate(1290.000000, 12.000000)">
                    <g id="log-in" transform="translate(24.000000, 8.000000)">
                        <path d="M12.4993304,0 C7.16925223,0 2.61908482,3.33727679 0.821707589,8.03571429 L2.75479911,8.03571429 C3.27912946,6.89263393 4.00797991,5.83984375 4.92377232,4.92399554 C6.94737723,2.90027902 9.63777902,1.78571429 12.4993304,1.78571429 C15.3612723,1.78571429 18.0520089,2.90027902 20.0758371,4.92405134 C22.099721,6.94782366 23.2142857,9.63833705 23.2142857,12.5 C23.2142857,15.3618862 22.099721,18.0525112 20.0759487,20.0761719 C18.0521205,22.0998326 15.3613281,23.2142857 12.4993304,23.2142857 C9.63766741,23.2142857 6.94726563,22.0998326 4.92371652,20.0762277 C4.0078683,19.1603795 3.27901786,18.1074777 2.75457589,16.9642857 L0.821707589,16.9642857 C2.61891741,21.6630022 7.16914063,25 12.4993862,25 C19.4030692,25 25,19.4037388 25,12.5 C25,5.59698661 19.4030692,0 12.4993304,0 Z" id="Path"></path>
                        <polygon id="Path" points="9.75797991 16.2881138 11.0206473 17.5507812 16.0714286 12.5 11.0206473 7.44921875 9.75792411 8.71194196 12.6531808 11.6071429 0 11.6071429 0 13.3928571 12.6531808 13.3928571"></polygon>
                    </g>
                </g>
            </g>
        </g>
    </g>
</svg>