<?xml version="1.0" encoding="UTF-8"?>
<svg width="128px" height="31px" viewBox="0 0 128 31" version="1.1" xmlns="http://www.w3.org/2000/svg" xmlns:xlink="http://www.w3.org/1999/xlink">
    <title>Group 16</title>
    <defs>
        <polygon id="path-1" points="0 0.255671153 22.4872806 0.255671153 22.4872806 24.7866472 0 24.7866472"></polygon>
        <polygon id="path-3" points="0.230467765 0.291303529 10.4579576 0.291303529 10.4579576 10.51889 0.230467765 10.51889"></polygon>
    </defs>
    <g id="Symbols" stroke="none" stroke-width="1" fill="none" fill-rule="evenodd">
        <g id="Components-/-Header-/-Before-Login" transform="translate(-40.000000, -17.000000)">
            <g id="main-header" transform="translate(0.000000, 0.000000)">
                <g id="Group-16" transform="translate(40.000000, 17.000000)">
                    <g id="Group-3" transform="translate(0.000000, 5.180825)">
                        <mask id="mask-2" fill="white">
                            <use xlink:href="#path-1"></use>
                        </mask>
                        <g id="Clip-2"></g>
                        <path d="M22.4872806,23.2857097 L22.4872806,14.5649512 C19.8665144,14.3434961 17.7414472,14.3805126 16.0328956,14.8272853 C11.6037944,15.9847742 9.49514315,18.9908335 8.67144621,21.6293032 C8.29902833,22.8228429 8.17703492,23.6574839 8.17703492,23.6574839 L8.17703492,0.255671153 L-6.43764706e-05,0.255671153 L-6.43764706e-05,24.7866472 L20.986665,24.7866472 C21.8155121,24.7866472 22.4872806,24.1145568 22.4872806,23.2857097" id="Fill-1" fill="#FFFFFF" mask="url(#mask-2)"></path>
                    </g>
                    <path d="M66.4465282,28.466535 L66.4465282,19.7457764 C63.8257621,19.5243213 61.7006948,19.5613378 59.9921432,20.0081105 C55.5630421,21.1655994 53.4543908,24.1716587 52.6306938,26.8101284 C52.258276,28.0036681 52.1362825,28.8383091 52.1362825,28.8383091 L52.1362825,5.43649638 L43.9591832,5.43649638 L43.9591832,29.9674724 L64.9459127,29.9674724 C65.7747597,29.9674724 66.4465282,29.295382 66.4465282,28.466535" id="Fill-4" fill="#FFFFFF"></path>
                    <path d="M95.0599703,28.466535 L95.0599703,19.7457764 C92.4392041,19.5243213 90.3141368,19.5613378 88.6052634,20.0081105 C84.1761623,21.1655994 82.0678328,24.1716587 81.2441359,26.8101284 C80.871718,28.0036681 80.7497246,28.8383091 80.7497246,28.8383091 L80.7497246,5.43649638 L72.5726253,5.43649638 L72.5726253,29.9674724 L93.5593547,29.9674724 C94.3878799,29.9674724 95.0599703,29.295382 95.0599703,28.466535" id="Fill-6" fill="#FFFFFF"></path>
                    <path d="M35.307565,29.9557237 L28.6037212,29.9673114 L28.6275405,15.7040606 L36.8046398,15.7040606 L36.8046398,28.4560738 C36.8046398,29.2833114 36.1348026,29.9544361 35.307565,29.9557237" id="Fill-8" fill="#FFFFFF"></path>
                    <g id="Group-12" transform="translate(99.139765, 4.858943)" fill="#FFFFFF">
                        <path d="M19.4295592,13.4736412 C19.4295592,17.2840845 17.2204806,19.944764 13.7315977,19.944764 C10.2372429,19.944764 8.26120715,17.2451368 8.26120715,13.0886699 C8.26120715,8.91578711 10.2568777,6.23354146 13.7808457,6.23354146 C17.2961229,6.23354146 19.4295592,8.83435087 19.4295592,12.7043424 L19.4295592,13.4736412 Z M19.4514472,6.58922146 L19.3101408,6.58922146 L19.2225888,6.33203746 C17.6971883,1.93319322 14.6853352,0.256508047 10.6215704,0.256508047 C3.66279586,0.256508047 0.0242377412,4.99010993 0.0242377412,13.0722539 C0.0242377412,21.0192073 3.83629045,25.4286737 10.617386,25.4286737 C14.8124787,25.4286737 17.6933257,24.212924 19.208426,19.764188 L19.2950123,19.5160168 L19.4450095,19.5160168 L19.4427563,25.1084008 L27.6063366,25.1084008 L27.626937,0.576780988 L25.5662462,0.576780988 C22.5521399,0.598347106 20.4611921,2.64004687 19.8187149,4.57713487 C19.451769,5.6837664 19.4514472,6.58922146 19.4514472,6.58922146 L19.4514472,6.58922146 Z" id="Fill-10"></path>
                    </g>
                    <g id="Group-15" transform="translate(27.360000, 0.030708)">
                        <mask id="mask-4" fill="white">
                            <use xlink:href="#path-3"></use>
                        </mask>
                        <g id="Clip-14"></g>
                        <path d="M5.34421271,0.291078212 C2.52452329,0.291078212 0.230467765,2.58513374 0.230467765,5.40514504 C0.230467765,8.22451256 2.52452329,10.51889 5.34421271,10.51889 C8.16390212,10.51889 10.4579576,8.22451256 10.4579576,5.40514504 C10.4579576,2.58513374 8.16390212,0.291078212 5.34421271,0.291078212" id="Fill-13" fill="#FFFFFF" mask="url(#mask-4)"></path>
                    </g>
                </g>
            </g>
        </g>
    </g>
</svg>