<?xml version="1.0" encoding="UTF-8"?>
<svg width="145px" height="32px" viewBox="0 0 145 32" version="1.1" xmlns="http://www.w3.org/2000/svg" xmlns:xlink="http://www.w3.org/1999/xlink">
    <title>lilla-by-sociolla-logo (2)</title>
    <g id="Page-1" stroke="none" stroke-width="1" fill="none" fill-rule="evenodd">
        <g id="LL21---Login" transform="translate(-108.000000, -90.000000)" fill-rule="nonzero">
            <g id="lilla-by-sociolla-logo-(2)" transform="translate(108.000000, 90.000000)">
                <g id="Group" transform="translate(73.846154, 18.233618)" fill="#000000">
                    <path d="M2.72908144,2.8793061 C3.17975544,3.05456821 3.63042944,3.43012988 3.63042944,4.10614088 C3.63042944,4.95741399 2.929381,5.55831265 1.97795811,5.55831265 L0.200299556,5.55831265 C0.125187222,5.55831265 0.0500748888,5.48320032 0.0500748888,5.40808799 L0.0500748888,0.425636555 C0.0500748888,0.350524221 0.100149777,0.275411888 0.200299556,0.275411888 L1.90284578,0.275411888 C2.82923122,0.275411888 3.48020477,0.876310554 3.48020477,1.67750878 C3.45516733,2.22833255 3.15471799,2.6539691 2.72908144,2.8793061 L2.72908144,2.8793061 Z M2.00299556,4.85726421 C2.52878188,4.85726421 2.77915633,4.50673999 2.77915633,4.03102855 C2.77915633,3.58035454 2.4286321,3.22983033 2.00299556,3.22983033 L0.826235665,3.22983033 L0.826235665,4.83222677 L2.00299556,4.83222677 L2.00299556,4.85726421 Z M1.802696,2.55381933 C2.27840744,2.55381933 2.60389422,2.22833255 2.60389422,1.75262111 C2.60389422,1.25187222 2.27840744,0.976460335 1.802696,0.976460335 L0.80119822,0.976460335 L0.80119822,2.55381933 L1.802696,2.55381933 L1.802696,2.55381933 Z" id="Shape"></path>
                    <path d="M8.56280598,2.25336999 L9.91482794,0.350524221 C9.93986544,0.325486777 9.98994033,0.275411888 10.0400152,0.275411888 L10.6158765,0.275411888 C10.7410637,0.275411888 10.7911386,0.40059911 10.7410637,0.500748888 L8.93836764,3.00449333 L8.93836764,5.40808799 C8.93836764,5.48320032 8.86325531,5.55831265 8.78814298,5.55831265 L8.2873941,5.55831265 C8.21228176,5.55831265 8.13716943,5.48320032 8.13716943,5.40808799 L8.13716943,3.00449333 L6.38454832,0.500748888 C6.33447343,0.40059911 6.38454832,0.275411888 6.50973554,0.275411888 L7.06055932,0.275411888 C7.11063421,0.275411888 7.1607091,0.300449333 7.18574654,0.350524221 L8.56280598,2.25336999 L8.56280598,2.25336999 Z" id="Path"></path>
                    <path d="M17.5262111,4.78215188 L17.7265106,4.48170255 C17.7765855,4.38155277 17.9017728,4.35651533 17.9768851,4.43162766 C18.3274093,4.73207699 18.6028212,4.95741399 19.1786824,4.95741399 C19.7044687,4.95741399 20.0299556,4.63192721 20.0299556,4.25636555 C20.0299556,3.80569155 19.6293564,3.53027966 18.8782331,3.20479288 C18.1020723,2.8793061 17.5011736,2.47870699 17.5011736,1.60239644 C17.5011736,1.02653522 17.9518477,0.200299556 19.1536449,0.200299556 C19.9047683,0.200299556 20.4806295,0.600898666 20.5557418,0.650973554 C20.6058167,0.676010999 20.6809291,0.80119822 20.6058167,0.901347998 L20.4055172,1.17675989 C20.3554423,1.27690967 20.2552925,1.32698455 20.1301053,1.25187222 C19.829656,1.05157267 19.5542441,0.876310554 19.1035701,0.876310554 C18.477634,0.876310554 18.2522969,1.27690967 18.2522969,1.55232155 C18.2522969,1.97795811 18.5777837,2.25336999 19.2037198,2.50374444 C20.0800304,2.85426866 20.8311538,3.27990521 20.8311538,4.18125321 C20.8311538,4.95741399 20.1301053,5.60838755 19.1536449,5.60838755 C18.2272595,5.60838755 17.6513983,5.1326761 17.5262111,5.00748888 C17.5011736,4.98245144 17.4260613,4.9073391 17.5262111,4.78215188" id="Path"></path>
                    <path d="M26.7149532,0.200299556 C28.2171999,0.200299556 29.4440346,1.40209688 29.4440346,2.929381 C29.4440346,4.43162766 28.2422373,5.63342498 26.7149532,5.63342498 C25.2127065,5.63342498 23.9858718,4.43162766 23.9858718,2.929381 C23.9858718,1.40209688 25.1876691,0.200299556 26.7149532,0.200299556 M26.7149532,4.9073391 C27.7915633,4.9073391 28.6929113,4.0059911 28.6929113,2.929381 C28.6929113,1.85277088 27.8166007,0.951422888 26.7149532,0.951422888 C25.638343,0.951422888 24.7620325,1.87780833 24.7620325,2.929381 C24.7369951,4.0059911 25.638343,4.9073391 26.7149532,4.9073391" id="Shape"></path>
                    <path d="M35.3027966,0.200299556 C36.0789574,0.200299556 36.6297812,0.450673999 37.13053,0.901347998 C37.2056424,0.951422888 37.2056424,1.05157267 37.13053,1.10164755 L36.8050432,1.45217178 C36.7549683,1.52728411 36.679856,1.52728411 36.6047437,1.45217178 C36.2542195,1.15172244 35.7534706,0.951422888 35.3027966,0.951422888 C34.2261865,0.951422888 33.3999509,1.85277088 33.3999509,2.90434355 C33.3999509,3.95591622 34.2261865,4.85726421 35.3027966,4.85726421 C35.8536203,4.85726421 36.229182,4.63192721 36.6047437,4.35651533 C36.679856,4.30644043 36.7299309,4.30644043 36.7800058,4.35651533 L37.13053,4.70703954 C37.1806049,4.75711444 37.1806049,4.85726421 37.13053,4.9073391 C36.6047437,5.40808799 35.9537701,5.63342498 35.3027966,5.63342498 C33.8005499,5.63342498 32.5737151,4.43162766 32.5737151,2.929381 C32.5737151,1.40209688 33.8005499,0.200299556 35.3027966,0.200299556" id="Path"></path>
                    <path d="M40.6107348,0.425636555 C40.6107348,0.350524221 40.6858472,0.275411888 40.7609595,0.275411888 L41.2617084,0.275411888 C41.3368207,0.275411888 41.411933,0.350524221 41.411933,0.425636555 L41.411933,5.40808799 C41.411933,5.48320032 41.3368207,5.55831265 41.2617084,5.55831265 L40.7609595,5.55831265 C40.6858472,5.55831265 40.6107348,5.48320032 40.6107348,5.40808799 L40.6107348,0.425636555 Z" id="Path"></path>
                    <path d="M47.5711444,0.200299556 C49.073391,0.200299556 50.3002258,1.40209688 50.3002258,2.929381 C50.3002258,4.43162766 49.0984284,5.63342498 47.5711444,5.63342498 C46.0438602,5.63342498 44.842063,4.43162766 44.842063,2.929381 C44.8671004,1.40209688 46.0688976,0.200299556 47.5711444,0.200299556 M47.5711444,4.9073391 C48.6477545,4.9073391 49.5491025,4.0059911 49.5491025,2.929381 C49.5491025,1.85277088 48.6727919,0.951422888 47.5711444,0.951422888 C46.4945342,0.951422888 45.6182237,1.87780833 45.6182237,2.929381 C45.6182237,4.0059911 46.4945342,4.9073391 47.5711444,4.9073391" id="Shape"></path>
                    <path d="M53.7804306,0.425636555 C53.7804306,0.350524221 53.8305055,0.275411888 53.9306552,0.275411888 L54.4314041,0.275411888 C54.5065164,0.275411888 54.5816288,0.350524221 54.5816288,0.425636555 L54.5816288,4.85726421 L56.6346992,4.85726421 C56.7098115,4.85726421 56.7849239,4.93237654 56.7849239,5.00748888 L56.7849239,5.43312543 C56.7849239,5.50823777 56.734849,5.5833501 56.6346992,5.5833501 L53.9306552,5.5833501 C53.8555429,5.5833501 53.7804306,5.50823777 53.7804306,5.43312543 L53.7804306,0.425636555 L53.7804306,0.425636555 Z" id="Path"></path>
                    <path d="M59.9897168,0.425636555 C59.9897168,0.350524221 60.0397917,0.275411888 60.1399415,0.275411888 L60.6406903,0.275411888 C60.7158026,0.275411888 60.790915,0.350524221 60.790915,0.425636555 L60.790915,4.85726421 L62.8439854,4.85726421 C62.9190978,4.85726421 62.9942101,4.93237654 62.9942101,5.00748888 L62.9942101,5.43312543 C62.9942101,5.50823777 62.9441352,5.5833501 62.8439854,5.5833501 L60.1399415,5.5833501 C60.0648291,5.5833501 59.9897168,5.50823777 59.9897168,5.43312543 L59.9897168,0.425636555 Z" id="Path"></path>
                    <path d="M65.5480294,5.3580131 L67.8765117,0.275411888 C67.9015492,0.225336999 67.9766615,0.200299556 68.001699,0.200299556 L68.0768113,0.200299556 C68.1268862,0.200299556 68.1769611,0.225336999 68.2019985,0.275411888 L70.5054434,5.3580131 C70.5555183,5.45816288 70.480406,5.55831265 70.3802562,5.55831265 L69.9045447,5.55831265 C69.8043949,5.55831265 69.75432,5.50823777 69.7292826,5.43312543 L69.2535712,4.40659021 L66.7748642,4.40659021 L66.3241902,5.43312543 C66.2991528,5.48320032 66.2490779,5.55831265 66.1489281,5.55831265 L65.6732166,5.55831265 C65.5730668,5.55831265 65.522992,5.45816288 65.5480294,5.3580131 Z M68.9781593,3.75561666 L68.0517739,1.70254622 L68.001699,1.70254622 L67.100351,3.75561666 L68.9781593,3.75561666 Z" id="Shape"></path>
                </g>
                <g id="Group-15" fill="#1D1D1B">
                    <path d="M0.178645141,30.7120384 L0.3573346,30.7120384 C2.3660842,30.7120384 2.81263058,30.1763246 2.81263058,28.0335579 L2.81263058,4.06178198 C2.81263058,1.91892665 2.3660842,1.38330145 0.3573346,1.38330145 L-4.43178221e-05,1.38330145 L-4.43178221e-05,0.758420158 L5.98188667,0.0886005951 L5.98188667,28.0335579 C5.98188667,30.1763246 6.42843305,30.7120384 8.39215574,30.7120384 L8.74953466,30.7120384 L8.74953466,31.3371855 L0.178645141,31.3371855 L0.178645141,30.7120384 Z" id="Fill-1"></path>
                    <path d="M24.4836907,28.7924828 C24.4836907,27.8102226 24.6620257,27.0066519 25.0187841,25.7120397 L31.223811,4.01713621 C31.4025005,3.39234355 31.5362517,2.85627517 31.5362517,2.45493298 C31.5362517,1.56192886 30.9563087,1.38332804 29.6167582,1.38332804 L28.3224119,1.38332804 L28.5011013,0.758358114 L35.5542827,0.0886271858 L28.3669956,25.3550153 C27.9653875,26.7391495 27.6529468,27.988912 27.6529468,28.5692096 C27.6529468,29.4173641 27.9204492,29.8635559 28.6348525,29.8635559 C29.5279452,29.8635559 30.9563087,28.4351039 32.6972013,25.5337048 L33.1883315,25.8910837 C31.4920225,29.2386747 29.4832729,31.6047146 27.2064005,31.6047146 C25.4210127,31.6047146 24.4836907,30.444208 24.4836907,28.7924828" id="Fill-4"></path>
                    <path d="M35.9493675,28.7924828 C35.9493675,27.8102226 36.1277024,27.0066519 36.4847268,25.7120397 L42.6898424,4.01713621 C42.8682659,3.39234355 43.002283,2.85627517 43.002283,2.45493298 C43.002283,1.56192886 42.4219854,1.38332804 41.0824349,1.38332804 L39.7881773,1.38332804 L39.9667781,0.758358114 L47.0200481,0.0886271858 L39.832761,25.3550153 C39.4310643,26.7391495 39.1186236,27.988912 39.1186236,28.5692096 C39.1186236,29.4173641 39.386126,29.8635559 40.1005293,29.8635559 C40.993622,29.8635559 42.4219854,28.4351039 44.1632327,25.5337048 L44.6540082,25.8910837 C42.9576993,29.2386747 40.9490383,31.6047146 38.6721659,31.6047146 C36.8866895,31.6047146 35.9493675,30.444208 35.9493675,28.7924828" id="Fill-7"></path>
                    <path d="M59.3401721,23.7033342 L59.3401721,20.4894943 C52.5101753,21.873274 51.2604127,24.239048 51.2604127,26.7834228 C51.2604127,28.792527 52.3318404,30.2654741 54.3850851,30.2654741 C56.5724355,30.2654741 59.3401721,28.6584212 59.3401721,23.7033342 M47.5550882,27.5424098 C47.5550882,23.7482724 50.947972,21.7395228 59.3401721,19.7750911 L59.3401721,18.4807447 C59.3401721,14.1952113 57.6438632,12.721821 54.9653826,12.721821 C52.554759,12.721821 50.5014257,13.7485763 50.5014257,14.5517925 C50.5014257,14.6858983 50.5460094,14.7308365 50.7243443,14.7308365 C51.6174371,14.7308365 52.5996086,15.5786365 52.5996086,16.6946479 C52.5996086,17.8555089 51.7069591,18.7486017 50.5909477,18.7486017 C49.429998,18.7486017 48.5815776,17.9000926 48.5815776,16.605835 C48.5815776,14.2842902 51.037494,12.0969397 55.813803,12.0969397 C59.3847559,12.0969397 62.5096941,13.3916406 62.5096941,18.6590797 L62.5096941,27.8102667 C62.5096941,29.6851765 63.0454079,30.2654741 63.6703778,30.2654741 C64.7417169,30.2654741 65.1882633,29.1491968 65.232847,26.6942553 L65.8577283,26.6942553 C65.7682063,30.9352936 64.2951706,31.7388644 62.465199,31.7388644 C60.7239518,31.7388644 59.1172535,30.7566042 59.3401721,27.5424098 L59.2506501,27.5424098 C58.4028502,29.8635114 55.7240151,31.8280318 52.5996086,31.8280318 C49.7425273,31.8280318 47.5550882,30.3995798 47.5550882,27.5424098" id="Fill-10"></path>
                    <path d="M13.9070478,5.16653624 C13.9070478,3.82991073 15.0210205,2.71593795 16.3580006,2.71593795 C17.694892,2.71593795 18.809308,3.82991073 18.809308,5.16653624 C18.809308,6.50378221 17.694892,7.61775499 16.3580006,7.61775499 C15.0210205,7.61775499 13.9070478,6.50378221 13.9070478,5.16653624 L13.9070478,5.16653624 Z M12.4364052,30.6578816 L12.7927205,30.6578816 C14.7535182,30.6578816 15.1994441,30.1677265 15.1994441,28.1619905 L15.1994441,15.7732093 C15.1994441,13.723244 14.7535182,13.2327345 12.7927205,13.2327345 L12.4364052,13.2327345 L12.4364052,12.6537664 L18.3633821,12.2970966 L18.3633821,28.1619905 C18.3633821,30.1677265 18.809308,30.6578816 20.7701057,30.6578816 L21.1264211,30.6578816 L21.1264211,31.2817879 L12.4364052,31.2817879 L12.4364052,30.6578816 Z" id="Fill-13"></path>
                </g>
            </g>
        </g>
    </g>
</svg>