<?xml version="1.0" encoding="UTF-8"?>
<svg width="101px" height="24px" viewBox="0 0 101 24" version="1.1" xmlns="http://www.w3.org/2000/svg" xmlns:xlink="http://www.w3.org/1999/xlink">
    <title>Group</title>
    <g id="Page-1" stroke="none" stroke-width="1" fill="none" fill-rule="evenodd">
        <g id="Group-24" transform="translate(-0.122637, 0.234449)" fill="#A775C8">
            <g id="Group" transform="translate(0.162207, -0.106191)">
                <path d="M78.2215881,13.3767843 C78.2215881,19.5548435 81.2273531,22.9824066 86.5768864,22.9824066 C89.8861558,22.9824066 92.1585113,22.0371875 93.3532475,18.5800643 L93.4210897,18.3858123 L93.539635,18.3858123 L93.5374926,22.7346649 L99.9774994,22.7346649 L99.9932102,3.66277503 L98.3685689,3.66277503 C95.9905224,3.68037033 94.3423149,5.26676193 93.835284,6.77221519 C93.545348,7.63368073 93.5446338,8.33749244 93.5446338,8.33749244 L93.4332299,8.33749244 L93.3646736,8.13760992 C92.1606537,4.71849261 89.7854638,3.41503331 86.5797429,3.41503331 C81.0902405,3.41503331 78.2215881,7.09385714 78.2215881,13.3767843 M84.7187252,13.3908606 C84.7187252,10.1462885 86.2912352,8.06089444 89.0720498,8.06089444 C91.8442949,8.06089444 93.5282089,10.0822417 93.5282089,13.0910368 L93.5282089,13.6892767 C93.5282089,16.6516202 91.7850223,18.7201229 89.0327728,18.7201229 C86.2769526,18.7201229 84.7187252,16.6213563 84.7187252,13.3908606" id="Fill-12"></path>
                <path d="M21.9208149,3.97583237 C21.9208149,6.16820587 23.7297013,7.95166475 25.9542102,7.95166475 C28.1787191,7.95166475 29.9883196,6.16820587 29.9883196,3.97583237 C29.9883196,1.78345888 28.1787191,0 25.9542102,0 C23.7297013,0 21.9208149,1.78345888 21.9208149,3.97583237" id="Fill-14"></path>
                <path d="M0,3.66397151 L0,22.7351575 L16.5542025,22.7351575 C17.2083438,22.7351575 17.7382268,22.2122254 17.7382268,21.5675339 L17.7382268,14.7884195 C15.6708261,14.6159856 13.9947675,14.6441381 12.6472079,14.9918211 C9.1529793,15.8912924 7.49048918,18.2286511 6.84063265,20.2795585 C6.54641189,21.2078861 6.4500046,21.8568005 6.4500046,21.8568005 L6.4500046,3.66397151 L0,3.66397151 Z" id="Fill-4"></path>
                <path d="M34.6742735,3.66397151 L34.6742735,22.7351575 L51.2291901,22.7351575 C51.8833314,22.7351575 52.4139286,22.2122254 52.4139286,21.5675339 L52.4139286,14.7884195 C50.3458137,14.6159856 48.669041,14.6441381 47.3214814,14.9918211 C43.8279669,15.8912924 42.1647627,18.2286511 41.5156203,20.2795585 C41.2213995,21.2078861 41.1249923,21.8568005 41.1249923,21.8568005 L41.1249923,3.66397151 L34.6742735,3.66397151 Z" id="Fill-6"></path>
                <path d="M57.2446478,3.66397151 L57.2446478,22.7351575 L73.7995644,22.7351575 C74.4529916,22.7351575 74.9828746,22.2122254 74.9828746,21.5675339 L74.9828746,14.7884195 C72.916188,14.6159856 71.2394153,14.6441381 69.8918557,14.9918211 C66.3983412,15.8912924 64.735137,18.2286511 64.0859946,20.2795585 C63.7910597,21.2078861 63.6953665,21.8568005 63.6953665,21.8568005 L63.6953665,3.66397151 L57.2446478,3.66397151 Z" id="Fill-8"></path>
                <path d="M22.5813718,11.6462521 L22.5628045,22.7348056 L27.8502086,22.7249523 C28.5029217,22.7242485 29.0320906,22.202724 29.0320906,21.5601439 L29.0320906,11.6462521 L22.5813718,11.6462521 Z" id="Fill-10"></path>
            </g>
        </g>
    </g>
</svg>