<?xml version="1.0" encoding="UTF-8"?>
<svg width="124px" height="28px" viewBox="0 0 124 28" version="1.1" xmlns="http://www.w3.org/2000/svg" xmlns:xlink="http://www.w3.org/1999/xlink">
    <!-- Generator: Sketch 61.2 (89653) - https://sketch.com -->
    <title>lilla-by-sociolla-logo</title>
    <desc>Created with Sketch.</desc>
    <defs>
        <polygon id="path-1" points="0 0.068962963 7.46444676 0.068962963 7.46444676 26.7278818 0 26.7278818"></polygon>
        <polygon id="path-3" points="0.0172785494 0.068962963 9.46187729 0.068962963 9.46187729 26.9561175 0.0172785494 26.9561175"></polygon>
        <polygon id="path-5" points="0.0443041667 0.068962963 9.48897857 0.068962963 9.48897857 26.9561175 0.0443041667 26.9561175"></polygon>
        <polygon id="path-7" points="0.0395705247 0.029596605 15.6540103 0.029596605 15.6540103 16.8626544 0.0395705247 16.8626544"></polygon>
    </defs>
    <g id="Symbols" stroke="none" stroke-width="1" fill="none" fill-rule="evenodd">
        <g id="Mobile-/-Elements/-Header-/-LA-/-Before-login" transform="translate(-58.000000, -16.000000)">
            <g id="lilla-by-sociolla-logo" transform="translate(58.000000, 16.000000)">
                <g id="Group" transform="translate(63.000000, 15.555556)" fill="#000000" fill-rule="nonzero">
                    <path d="M2.3282476,2.45640802 C2.71272886,2.60592851 3.09721011,2.92632955 3.09721011,3.50305144 C3.09721011,4.22929381 2.49912816,4.74193548 1.68744551,4.74193548 L0.170880558,4.74193548 C0.106800349,4.74193548 0.0427201395,4.67785527 0.0427201395,4.61377506 L0.0427201395,0.363121186 C0.0427201395,0.299040976 0.0854402788,0.234960767 0.170880558,0.234960767 L1.6233653,0.234960767 C2.41368788,0.234960767 2.9690497,0.747602441 2.9690497,1.43112468 C2.94768962,1.90104621 2.69136879,2.26416739 2.3282476,2.45640802 L2.3282476,2.45640802 Z M1.70880558,4.14385353 C2.15736705,4.14385353 2.37096774,3.84481256 2.37096774,3.43897123 C2.37096774,3.05448997 2.07192676,2.755449 1.70880558,2.755449 L0.704882302,2.755449 L0.704882302,4.12249346 L1.70880558,4.12249346 L1.70880558,4.14385353 Z M1.53792502,2.17872712 C1.94376635,2.17872712 2.22144725,1.90104621 2.22144725,1.49520488 C2.22144725,1.06800349 1.94376635,0.833042723 1.53792502,0.833042723 L0.683522232,0.833042723 L0.683522232,2.17872712 L1.53792502,2.17872712 L1.53792502,2.17872712 Z" id="Shape"></path>
                    <path d="M7.30514385,1.92240627 L8.45858759,0.299040976 C8.4799477,0.277680907 8.52266784,0.234960767 8.56538799,0.234960767 L9.05666961,0.234960767 C9.16346993,0.234960767 9.20619008,0.341761116 9.16346993,0.427201395 L7.6255449,2.56320837 L7.6255449,4.61377506 C7.6255449,4.67785527 7.56146469,4.74193548 7.49738448,4.74193548 L7.07018309,4.74193548 C7.00610288,4.74193548 6.94202267,4.67785527 6.94202267,4.61377506 L6.94202267,2.56320837 L5.44681779,0.427201395 C5.40409764,0.341761116 5.44681779,0.234960767 5.55361813,0.234960767 L6.02353967,0.234960767 C6.06625981,0.234960767 6.10897995,0.256320837 6.13034002,0.299040976 L7.30514385,1.92240627 L7.30514385,1.92240627 Z" id="Path"></path>
                    <path d="M14.9520488,4.07977332 L15.1229293,3.82345248 C15.1656495,3.7380122 15.2724499,3.71665214 15.3365301,3.78073235 C15.6355711,4.03705318 15.8705318,4.22929381 16.3618135,4.22929381 C16.8103749,4.22929381 17.0880558,3.9516129 17.0880558,3.63121186 C17.0880558,3.2467306 16.7462947,3.01176983 16.1054926,2.73408893 C15.4433304,2.45640802 14.9306887,2.1146469 14.9306887,1.36704447 C14.9306887,0.87576286 15.31517,0.170880558 16.3404533,0.170880558 C16.9812554,0.170880558 17.4725371,0.512641674 17.5366172,0.555361813 C17.5793374,0.576721883 17.6434176,0.683522232 17.5793374,0.768962511 L17.4084569,1.00392328 C17.3657367,1.08936356 17.2802964,1.1320837 17.173496,1.06800349 C16.9171753,0.897122932 16.6822145,0.747602441 16.2977332,0.747602441 C15.7637315,0.747602441 15.5714908,1.08936356 15.5714908,1.32432432 C15.5714908,1.68744551 15.8491717,1.92240627 16.3831735,2.13600697 C17.1307759,2.43504795 17.7715781,2.79816913 17.7715781,3.56713165 C17.7715781,4.22929381 17.173496,4.78465563 16.3404533,4.78465563 C15.5501308,4.78465563 15.0588492,4.3788143 14.9520488,4.27201395 C14.9306887,4.25065388 14.8666086,4.18657367 14.9520488,4.07977332" id="Path"></path>
                    <path d="M22.7911945,0.170880558 C24.0727986,0.170880558 25.1194421,1.1961639 25.1194421,2.49912816 C25.1194421,3.78073235 24.0941587,4.80601569 22.7911945,4.80601569 C21.5095902,4.80601569 20.4629469,3.78073235 20.4629469,2.49912816 C20.4629469,1.1961639 21.4882302,0.170880558 22.7911945,0.170880558 M22.7911945,4.18657367 C23.7096774,4.18657367 24.47864,3.41761116 24.47864,2.49912816 C24.47864,1.58064516 23.7310375,0.811682651 22.7911945,0.811682651 C21.8727114,0.811682651 21.125109,1.60200523 21.125109,2.49912816 C21.1037489,3.41761116 21.8727114,4.18657367 22.7911945,4.18657367" id="Shape"></path>
                    <path d="M30.1176983,0.170880558 C30.7798605,0.170880558 31.249782,0.384481256 31.6769834,0.768962511 C31.7410637,0.811682651 31.7410637,0.897122932 31.6769834,0.939843069 L31.3993025,1.23888405 C31.3565824,1.30296426 31.2925022,1.30296426 31.2284219,1.23888405 C30.929381,0.982563206 30.5021796,0.811682651 30.1176983,0.811682651 C29.1992153,0.811682651 28.4943331,1.58064516 28.4943331,2.47776809 C28.4943331,3.37489102 29.1992153,4.14385353 30.1176983,4.14385353 C30.5876198,4.14385353 30.9080209,3.9516129 31.2284219,3.71665214 C31.2925022,3.67393199 31.3352223,3.67393199 31.3779425,3.71665214 L31.6769834,4.01569311 C31.7197036,4.05841326 31.7197036,4.14385353 31.6769834,4.18657367 C31.2284219,4.61377506 30.6730601,4.80601569 30.1176983,4.80601569 C28.8360942,4.80601569 27.7894507,3.78073235 27.7894507,2.49912816 C27.7894507,1.1961639 28.8360942,0.170880558 30.1176983,0.170880558" id="Path"></path>
                    <path d="M34.6460331,0.363121186 C34.6460331,0.299040976 34.7101134,0.234960767 34.7741935,0.234960767 L35.201395,0.234960767 C35.2654752,0.234960767 35.3295553,0.299040976 35.3295553,0.363121186 L35.3295553,4.61377506 C35.3295553,4.67785527 35.2654752,4.74193548 35.201395,4.74193548 L34.7741935,4.74193548 C34.7101134,4.74193548 34.6460331,4.67785527 34.6460331,4.61377506 L34.6460331,0.363121186 Z" id="Path"></path>
                    <path d="M40.5841326,0.170880558 C41.8657367,0.170880558 42.9123802,1.1961639 42.9123802,2.49912816 C42.9123802,3.78073235 41.8870968,4.80601569 40.5841326,4.80601569 C39.2811683,4.80601569 38.255885,3.78073235 38.255885,2.49912816 C38.277245,1.1961639 39.3025283,0.170880558 40.5841326,0.170880558 M40.5841326,4.18657367 C41.5026155,4.18657367 42.2715781,3.41761116 42.2715781,2.49912816 C42.2715781,1.58064516 41.5239756,0.811682651 40.5841326,0.811682651 C39.6656495,0.811682651 38.9180471,1.60200523 38.9180471,2.49912816 C38.9180471,3.41761116 39.6656495,4.18657367 40.5841326,4.18657367" id="Shape"></path>
                    <path d="M45.8814298,0.363121186 C45.8814298,0.299040976 45.92415,0.234960767 46.0095902,0.234960767 L46.4367916,0.234960767 C46.5008718,0.234960767 46.5649521,0.299040976 46.5649521,0.363121186 L46.5649521,4.14385353 L48.3164778,4.14385353 C48.3805579,4.14385353 48.4446382,4.20793374 48.4446382,4.27201395 L48.4446382,4.63513514 C48.4446382,4.69921534 48.4019181,4.76329555 48.3164778,4.76329555 L46.0095902,4.76329555 C45.94551,4.76329555 45.8814298,4.69921534 45.8814298,4.63513514 L45.8814298,0.363121186 L45.8814298,0.363121186 Z" id="Path"></path>
                    <path d="M51.1787271,0.363121186 C51.1787271,0.299040976 51.2214473,0.234960767 51.3068876,0.234960767 L51.7340889,0.234960767 C51.7981691,0.234960767 51.8622494,0.299040976 51.8622494,0.363121186 L51.8622494,4.14385353 L53.6137751,4.14385353 C53.6778553,4.14385353 53.7419355,4.20793374 53.7419355,4.27201395 L53.7419355,4.63513514 C53.7419355,4.69921534 53.6992153,4.76329555 53.6137751,4.76329555 L51.3068876,4.76329555 C51.2428073,4.76329555 51.1787271,4.69921534 51.1787271,4.63513514 L51.1787271,0.363121186 Z" id="Path"></path>
                    <path d="M55.9206626,4.57105493 L57.9071491,0.234960767 C57.9285092,0.192240627 57.9925894,0.170880558 58.0139495,0.170880558 L58.0780296,0.170880558 C58.1207498,0.170880558 58.1634699,0.192240627 58.18483,0.234960767 L60.1499564,4.57105493 C60.1926765,4.65649521 60.1285963,4.74193548 60.0431561,4.74193548 L59.6373147,4.74193548 C59.5518744,4.74193548 59.5091543,4.69921534 59.4877943,4.63513514 L59.0819529,3.75937228 L56.967306,3.75937228 L56.5828247,4.63513514 C56.5614647,4.67785527 56.5187446,4.74193548 56.4333043,4.74193548 L56.0274629,4.74193548 C55.9420227,4.74193548 55.8993025,4.65649521 55.9206626,4.57105493 Z M58.8469922,3.20401046 L58.0566696,1.45248474 L58.0139495,1.45248474 L57.2449869,3.20401046 L58.8469922,3.20401046 Z" id="Shape"></path>
                </g>
                <g id="Group-15">
                    <g id="Group-3" transform="translate(0.000000, 0.006655)">
                        <g id="Fill-1-Clipped">
                            <mask id="mask-2" fill="white">
                                <use xlink:href="#path-1"></use>
                            </mask>
                            <g id="path-1"></g>
                            <path d="M0.152406636,26.1945531 L0.30485108,26.1945531 C2.01856559,26.1945531 2.39952547,25.7375222 2.39952547,23.9094744 L2.39952547,3.45855309 C2.39952547,1.63042963 2.01856559,1.17347438 0.30485108,1.17347438 L-3.7808642e-05,1.17347438 L-3.7808642e-05,0.640372531 L5.10329706,0.0689327161 L5.10329706,23.9094744 C5.10329706,25.7375222 5.48425694,26.1945531 7.15955787,26.1945531 L7.46444676,26.1945531 L7.46444676,26.7278818 L0.152406636,26.7278818 L0.152406636,26.1945531 Z" id="Fill-1" fill="#1D1D1B" fill-rule="nonzero" mask="url(#mask-2)"></path>
                        </g>
                    </g>
                    <g id="Group-6" transform="translate(20.870370, 0.006655)">
                        <g id="Fill-4-Clipped">
                            <mask id="mask-4" fill="white">
                                <use xlink:href="#path-3"></use>
                            </mask>
                            <g id="path-3"></g>
                            <path d="M0.0172785494,24.5569322 C0.0172785494,23.7189415 0.169420525,23.0333952 0.473780092,21.9289292 L5.76744367,3.42046466 C5.91988812,2.88743842 6.0339946,2.43010509 6.0339946,2.08771003 C6.0339946,1.32586589 5.53923071,1.17349706 4.3964267,1.17349706 L3.2921875,1.17349706 L3.44463194,0.640319599 L9.46187729,0.0689554012 L3.330223,21.6243428 C2.98760108,22.8051822 2.72105016,23.8713859 2.72105016,24.3664523 C2.72105016,25.0900341 2.94926312,25.4706915 3.55873842,25.4706915 C4.32065818,25.4706915 5.53923071,24.2520434 7.02442978,21.7767872 L7.44342516,22.0816761 C5.99626158,24.9375897 4.28254706,26.9561175 2.34009028,26.9561175 C0.816931329,26.9561175 0.0172785494,25.9660603 0.0172785494,24.5569322" id="Fill-4" fill="#1D1D1B" fill-rule="nonzero" mask="url(#mask-4)"></path>
                        </g>
                    </g>
                    <g id="Group-9" transform="translate(30.625000, 0.006655)">
                        <g id="Fill-7-Clipped">
                            <mask id="mask-6" fill="white">
                                <use xlink:href="#path-5"></use>
                            </mask>
                            <g id="path-5"></g>
                            <path d="M0.0443041667,24.5569322 C0.0443041667,23.7189415 0.196446142,23.0333952 0.501032562,21.9289292 L5.79477176,3.42046466 C5.94698935,2.88743842 6.06132269,2.43010509 6.06132269,2.08771003 C6.06132269,1.32586589 5.56625633,1.17349706 4.42345231,1.17349706 L3.31928873,1.17349706 L3.47165756,0.640319599 L9.48897857,0.0689554012 L3.35732423,21.6243428 C3.0146267,22.8051822 2.74807577,23.8713859 2.74807577,24.3664523 C2.74807577,25.0900341 2.97628873,25.4706915 3.58576405,25.4706915 C4.3476838,25.4706915 5.56625633,24.2520434 7.05175787,21.7767872 L7.47045077,22.0816761 C6.02328719,24.9375897 4.3096483,26.9561175 2.36719151,26.9561175 C0.843956944,26.9561175 0.0443041667,25.9660603 0.0443041667,24.5569322" id="Fill-7" fill="#1D1D1B" fill-rule="nonzero" mask="url(#mask-6)"></path>
                        </g>
                    </g>
                    <g id="Group-12" transform="translate(40.530864, 10.290605)">
                        <g id="Fill-10-Clipped">
                            <mask id="mask-8" fill="white">
                                <use xlink:href="#path-7"></use>
                            </mask>
                            <g id="path-7"></g>
                            <path d="M10.0937202,9.93130188 L10.0937202,7.18949475 C4.26687917,8.37003176 3.20067547,10.3883327 3.20067547,12.5590025 C3.20067547,14.2730194 4.11473719,15.5296275 5.86641158,15.5296275 C7.73249491,15.5296275 10.0937202,14.1586105 10.0937202,9.93130188 M0.0395705247,13.2065133 C0.0395705247,9.96963979 2.93412453,8.2559253 10.0937202,6.58001944 L10.0937202,5.47578025 C10.0937202,1.81968456 8.64655664,0.562698456 6.36147794,0.562698456 C4.30491466,0.562698456 2.55316466,1.43864908 2.55316466,2.1238929 C2.55316466,2.23830185 2.59120016,2.27663981 2.74334213,2.27663981 C3.50526188,2.27663981 4.343177,2.99991914 4.343177,3.95201636 C4.343177,4.94237592 3.58163534,5.70429568 2.62953812,5.70429568 C1.63910294,5.70429568 0.915294287,4.98041142 0.915294287,3.87624784 C0.915294287,1.89567994 3.010498,0.029596605 7.08528658,0.029596605 C10.1317557,0.029596605 12.7977187,1.13413827 12.7977187,5.62792222 L12.7977187,13.4350287 C12.7977187,15.0345611 13.2547495,15.5296275 13.787927,15.5296275 C14.7019131,15.5296275 15.082873,14.5773034 15.1209085,12.4829315 L15.6540103,12.4829315 C15.5776369,16.1010673 14.3209533,16.7866136 12.7597588,16.7866136 C11.2742572,16.7866136 9.90354276,15.9486228 10.0937202,13.2065133 L10.0173467,13.2065133 C9.29406746,15.1867031 7.00868627,16.8626845 4.343177,16.8626845 C1.90572947,16.8626845 0.0395705247,15.6440364 0.0395705247,13.2065133" id="Fill-10" fill="#1D1D1B" fill-rule="nonzero" mask="url(#mask-8)"></path>
                        </g>
                    </g>
                    <path d="M11.8644502,4.40770123 C11.8644502,3.26739259 12.8148081,2.31703456 13.9554193,2.31703456 C15.0959548,2.31703456 16.0466909,3.26739259 16.0466909,4.40770123 C16.0466909,5.5485392 15.0959548,6.49889722 13.9554193,6.49889722 C12.8148081,6.49889722 11.8644502,5.5485392 11.8644502,4.40770123 L11.8644502,4.40770123 Z M10.6098081,26.1550053 L10.9137897,26.1550053 C12.5865952,26.1550053 12.9670258,25.7368417 12.9670258,24.0256981 L12.9670258,13.4565191 C12.9670258,11.7076426 12.5865952,11.2891766 10.9137897,11.2891766 L10.6098081,11.2891766 L10.6098081,10.7952444 L15.6662603,10.4909605 L15.6662603,24.0256981 C15.6662603,25.7368417 16.0466909,26.1550053 17.7194964,26.1550053 L18.023478,26.1550053 L18.023478,26.6872753 L10.6098081,26.6872753 L10.6098081,26.1550053 Z" id="Fill-13" fill="#1D1D1B" fill-rule="nonzero"></path>
                </g>
            </g>
        </g>
    </g>
</svg>