<?xml version="1.0" encoding="UTF-8"?>
<svg width="25px" height="25px" viewBox="0 0 25 25" version="1.1" xmlns="http://www.w3.org/2000/svg" xmlns:xlink="http://www.w3.org/1999/xlink">
    <title>LINE</title>
    <g id="Page-1" stroke="none" stroke-width="1" fill="none" fill-rule="evenodd">
        <g id="Privacy-Policy" transform="translate(-1328.000000, -10.000000)" fill-rule="nonzero">
            <g id="LINE" transform="translate(1328.000000, 10.000000)">
                <circle id="ellipse" fill="#A179C5" cx="12.5" cy="12.5" r="12.5"></circle>
                <path d="M12.5,6.03027344 C14.4873047,6.04980469 16.3183594,6.56738281 17.9101562,7.79785156 C18.984375,8.62304687 19.7753906,9.66308594 20.1318359,10.9912109 C20.546875,12.5488281 20.2490234,13.984375 19.3603516,15.3125 C18.7255859,16.2548828 17.8857422,16.9970703 17.0214844,17.7148437 C15.6298828,18.8671875 14.1357422,19.8681641 12.5439453,20.7226562 C12.4023437,20.7958984 12.2558594,20.8642578 12.1044922,20.9082031 C11.8554687,20.9765625 11.6796875,20.8154297 11.7236328,20.5615234 C11.7431641,20.4394531 11.8066406,20.3222656 11.8359375,20.2001953 C11.9140625,19.8242187 12.0068359,19.4482422 12.0507812,19.0625 C12.0849609,18.7695312 11.9287109,18.6425781 11.6357422,18.6181641 C9.82910156,18.4521484 8.18847656,17.8515625 6.80175781,16.6650391 C5.60058594,15.6396484 4.85351562,14.3505859 4.71679687,12.7636719 C4.59960937,11.3867187 5.00976562,10.1513672 5.84472656,9.05761719 C6.98242187,7.57324219 8.52050781,6.72363281 10.3076172,6.28417969 C11.0205078,6.10351562 11.7529297,6.02050781 12.5,6.03027344 Z M12.3730469,11.953125 C12.4267578,12.0214844 12.4560547,12.0507812 12.4755859,12.0800781 C12.9492187,12.7246094 13.4228516,13.3691406 13.9013672,14.0136719 C14.0429687,14.2041016 14.2236328,14.2773437 14.4042969,14.21875 C14.5849609,14.1601562 14.6875,14.0136719 14.6875,13.7792969 C14.6875,12.7783203 14.6875,11.7773437 14.6826172,10.7714844 C14.6826172,10.5224609 14.5019531,10.3417969 14.2724609,10.3417969 C14.0429687,10.3417969 13.8671875,10.5322266 13.8671875,10.7910156 C13.8671875,11.3378906 13.8671875,11.8847656 13.8623047,12.4365234 C13.8623047,12.4853516 13.8525391,12.5292969 13.8427734,12.6123047 C13.7890625,12.5488281 13.7597656,12.5097656 13.7353516,12.4755859 C13.2714844,11.8457031 12.8125,11.2158203 12.3486328,10.5908203 C12.1875,10.3759766 12.0361328,10.3076172 11.8408203,10.3662109 C11.640625,10.4296875 11.5527344,10.5810547 11.5527344,10.8544922 C11.5478516,11.8164062 11.5478516,12.7783203 11.5478516,13.7402344 C11.5478516,14.0429687 11.7089844,14.2236328 11.9580078,14.2285156 C12.2119141,14.2333984 12.3730469,14.0527344 12.3779297,13.7548828 C12.3828125,13.3886719 12.3730469,13.0175781 12.3730469,12.6513672 C12.3730469,12.4365234 12.3730469,12.2167969 12.3730469,11.953125 Z M16.0595703,11.1669922 C16.4160156,11.1669922 16.7578125,11.1669922 17.1044922,11.1669922 C17.3925781,11.1669922 17.578125,11.0058594 17.5830078,10.7666016 C17.5878906,10.5126953 17.4072266,10.3369141 17.1142578,10.3369141 C16.6455078,10.3320312 16.1816406,10.3320312 15.7128906,10.3369141 C15.3808594,10.3417969 15.2294922,10.4931641 15.2246094,10.8349609 C15.2197266,11.1279297 15.2246094,11.4208984 15.2246094,11.71875 C15.2246094,12.4023437 15.2197266,13.0810547 15.2197266,13.7646484 C15.2197266,14.0820312 15.3710937,14.2333984 15.6835937,14.2333984 C16.1767578,14.2333984 16.6699219,14.2333984 17.1679687,14.2333984 C17.3681641,14.2333984 17.5,14.1357422 17.5683594,13.9599609 C17.6708984,13.7011719 17.4560547,13.4179687 17.1582031,13.4130859 C16.7919922,13.4082031 16.4257812,13.4130859 16.0546875,13.4130859 C16.0546875,13.1640625 16.0546875,12.9443359 16.0546875,12.7050781 C16.4257812,12.7050781 16.7871094,12.7050781 17.1435547,12.7050781 C17.3974609,12.7050781 17.5732422,12.5390625 17.5830078,12.3095703 C17.5927734,12.0703125 17.4169922,11.8945312 17.1484375,11.8847656 C17.0361328,11.8798828 16.9238281,11.8847656 16.8066406,11.8847656 C16.5576172,11.8847656 16.3037109,11.8847656 16.0546875,11.8847656 C16.0595703,11.6259766 16.0595703,11.4111328 16.0595703,11.1669922 Z M8.25195312,13.4130859 C8.25195312,13.3105469 8.25195312,13.2324219 8.25195312,13.1542969 C8.25195312,12.3730469 8.25195312,11.5917969 8.24707031,10.8105469 C8.24707031,10.5224609 8.07617187,10.3417969 7.83691406,10.3417969 C7.59765625,10.3417969 7.43164062,10.5273437 7.43164062,10.8154297 C7.42675781,11.796875 7.42675781,12.7783203 7.42675781,13.7597656 C7.42675781,14.0722656 7.58300781,14.2236328 7.89550781,14.2285156 C8.36914062,14.2285156 8.84277344,14.2285156 9.31640625,14.2285156 C9.60449219,14.2285156 9.78515625,14.0722656 9.79003906,13.828125 C9.79492187,13.5839844 9.59472656,13.4179687 9.30175781,13.4130859 C8.96484375,13.4130859 8.62792969,13.4130859 8.25195312,13.4130859 Z M10.15625,12.2753906 C10.15625,12.2753906 10.1513672,12.2753906 10.1513672,12.2753906 C10.1513672,12.7685547 10.1513672,13.2617187 10.1513672,13.7597656 C10.1513672,14.0429687 10.3173828,14.2236328 10.5615234,14.2285156 C10.8056641,14.2285156 10.9716797,14.0527344 10.9716797,13.7695312 C10.9716797,12.7734375 10.9667969,11.7822266 10.9619141,10.7861328 C10.9619141,10.703125 10.9423828,10.6103516 10.8984375,10.5419922 C10.7958984,10.3759766 10.6347656,10.3222656 10.4492187,10.3710937 C10.2685547,10.4199219 10.1611328,10.5712891 10.15625,10.8007812 C10.15625,11.2890625 10.15625,11.7822266 10.15625,12.2753906 Z" id="logo" fill="#FFFFFF"></path>
            </g>
        </g>
    </g>
</svg>