<?xml version="1.0" encoding="UTF-8"?>
<svg width="25px" height="25px" viewBox="0 0 25 25" version="1.1" xmlns="http://www.w3.org/2000/svg" xmlns:xlink="http://www.w3.org/1999/xlink">
    <title>Group 23</title>
    <g id="Page-1" stroke="none" stroke-width="1" fill="none" fill-rule="evenodd">
        <g id="Privacy-Policy" transform="translate(-1196.000000, -10.000000)">
            <g id="Group-23" transform="translate(1196.000000, 10.000000)">
                <circle id="Oval" fill="#A775C8" cx="12.5" cy="12.5" r="12.5"></circle>
                <g id="social-whatsapp" transform="translate(6.000000, 5.500000)" fill="#FFFFFF" fill-rule="nonzero">
                    <path d="M7.1269375,0 C3.33140625,0 0.2541875,3.05315625 0.2541875,6.81975 C0.2541875,8.1081875 0.6145625,9.3131875 1.24040625,10.3412187 L0,14 L3.805125,12.7911875 C4.78975,13.3313438 5.92215625,13.6395 7.1269375,13.6395 C10.9229688,13.6395 14,10.5859063 14,6.81975 C14,3.05315625 10.9229688,0 7.1269375,0 Z M10.5445,9.4096875 C10.3828125,9.81053125 9.6515625,10.1763438 9.32890625,10.1931875 C9.00659375,10.2102813 8.99740625,10.443 7.24015625,9.679625 C5.483125,8.9160625 4.42603125,7.0595 4.3426875,6.9399375 C4.25928125,6.8208125 3.6620625,5.96971875 3.69428125,5.11321875 C3.72671875,4.2565625 4.19575,3.85240625 4.36315625,3.6843125 C4.530375,3.51596875 4.72209375,3.4858125 4.83915625,3.48390625 C4.97753125,3.48165625 5.06715625,3.47978125 5.1695625,3.4835625 C5.271875,3.4874375 5.4255625,3.46215625 5.558625,3.81603125 C5.691625,4.169875 6.00996875,5.0395625 6.0506875,5.1281875 C6.091375,5.21690625 6.1165625,5.319625 6.053875,5.43353125 C5.991,5.5476875 5.9588125,5.619 5.86759375,5.717375 C5.775875,5.81575 5.67465625,5.9374375 5.59284375,6.01265625 C5.50159375,6.0959375 5.40628125,6.18678125 5.50221875,6.3648125 C5.59809375,6.54271875 5.928875,7.1259375 6.4328125,7.6065625 C7.08046875,8.22440625 7.639,8.42934375 7.810875,8.52271875 C7.98321875,8.61659375 8.0860625,8.60615625 8.1929375,8.4936875 C8.2993125,8.38121875 8.65040625,8.001625 8.7740625,7.83215625 C8.89765625,7.66221875 9.01346875,7.6955 9.17225,7.759375 C9.3309375,7.8235 10.1771562,8.27675 10.3495312,8.37034375 C10.5217187,8.46375 10.6368125,8.511875 10.6779687,8.58596875 C10.719125,8.66034375 10.706125,9.0088125 10.5445,9.4096875 Z" id="Shape"></path>
                </g>
            </g>
        </g>
    </g>
</svg>