<svg width="28" height="28" viewBox="0 0 28 28" fill="none" xmlns="http://www.w3.org/2000/svg">
<rect width="28" height="28" rx="14" fill="#A775C8"/>
<path fill-rule="evenodd" clip-rule="evenodd" d="M14.7772 8.55561C14.7772 8.12606 14.429 7.77783 13.9994 7.77783C13.5698 7.77783 13.2216 8.12605 13.2216 8.55561V13.2222H8.55512C8.12557 13.2222 7.77734 13.5705 7.77734 14C7.77734 14.4296 8.12557 14.7778 8.55512 14.7778H13.2216V19.4445C13.2216 19.8741 13.5698 20.2223 13.9994 20.2223C14.429 20.2223 14.7772 19.8741 14.7772 19.4445V14.7778H19.444C19.8736 14.7778 20.2218 14.4296 20.2218 14C20.2218 13.5705 19.8736 13.2222 19.444 13.2222H14.7772V8.55561Z" fill="white"/>
</svg>
