<svg width="29" height="28" viewBox="0 0 29 28" fill="none" xmlns="http://www.w3.org/2000/svg">
<rect x="0.5" width="28" height="28" rx="14" fill="#E5E5E5"/>
<path fill-rule="evenodd" clip-rule="evenodd" d="M15.2772 8.55561C15.2772 8.12606 14.929 7.77783 14.4994 7.77783C14.0698 7.77783 13.7216 8.12605 13.7216 8.55561V13.2222H9.05512C8.62557 13.2222 8.27734 13.5705 8.27734 14C8.27734 14.4296 8.62557 14.7778 9.05512 14.7778H13.7216V19.4445C13.7216 19.8741 14.0698 20.2223 14.4994 20.2223C14.929 20.2223 15.2772 19.8741 15.2772 19.4445V14.7778H19.944C20.3736 14.7778 20.7218 14.4296 20.7218 14C20.7218 13.5705 20.3736 13.2222 19.944 13.2222H15.2772V8.55561Z" fill="white"/>
</svg>
