<?xml version="1.0" encoding="UTF-8"?>
<svg width="11px" height="11px" viewBox="0 0 11 11" version="1.1" xmlns="http://www.w3.org/2000/svg" xmlns:xlink="http://www.w3.org/1999/xlink">
    <title>Path</title>
    <g id="Page-1" stroke="none" stroke-width="1" fill="none" fill-rule="evenodd">
        <g id="LL21---Shopping-Bag---voucher-redeemed" transform="translate(-687.000000, -298.000000)" fill="#8B7FBF" fill-rule="nonzero" stroke="#A774C8" stroke-width="1.2345679">
            <g id="Group-2" transform="translate(165.000000, 273.000000)">
                <g id="Group-18" transform="translate(444.000000, 15.000000)">
                    <path d="M87.967033,14.9833333 L84.1758242,14.9833333 L84.1758242,11.1944444 C84.1758242,11.0039667 84.0281319,10.85 83.8461538,10.85 C83.6641758,10.85 83.5164835,11.0039667 83.5164835,11.1944444 L83.5164835,14.9833333 L79.7252747,14.9833333 C79.5432967,14.9833333 79.3956044,15.1373 79.3956044,15.3277778 C79.3956044,15.5182556 79.5432967,15.6722222 79.7252747,15.6722222 L83.5164835,15.6722222 L83.5164835,19.8055556 C83.5164835,19.9960333 83.6641758,20.15 83.8461538,20.15 C84.0281319,20.15 84.1758242,19.9960333 84.1758242,19.8055556 L84.1758242,15.6722222 L87.967033,15.6722222 C88.149011,15.6722222 88.2967033,15.5182556 88.2967033,15.3277778 C88.2967033,15.1373 88.149011,14.9833333 87.967033,14.9833333 Z" id="Path"></path>
                </g>
            </g>
        </g>
    </g>
</svg>