<?xml version="1.0" encoding="UTF-8"?>
<svg width="11px" height="20px" viewBox="0 0 11 20" version="1.1" xmlns="http://www.w3.org/2000/svg" xmlns:xlink="http://www.w3.org/1999/xlink">
    <title>Path</title>
    <g id="Page-1" stroke="none" stroke-width="1" fill="none" fill-rule="evenodd">
        <g id="LL21---Help-Center---after-login--without-order" transform="translate(-1170.000000, -1108.000000)" fill="#F05868">
            <g id="Group-35" transform="translate(230.000000, 1022.000000)">
                <g id="Group-33" transform="translate(0.000000, 68.000000)">
                    <g id="Components/Icons/chevron/right/24px" transform="translate(933.000000, 16.000000)">
                        <path d="M7.4565,12.8875 L15.7956429,20.995 C16.2970714,21.4825 17.1122143,21.4825 17.6136429,20.995 C18.1150714,20.5075 18.1150714,19.715 17.6136429,19.2275 L10.1796429,12 L17.6136429,4.7725 C18.1150714,4.285 18.1150714,3.4925 17.6136429,3.005 C17.1122143,2.5175 16.2970714,2.5175 15.7956429,3.005 L7.4565,11.1125 C7.2045,11.3575 7.08107143,11.6775 7.08107143,12 C7.08107143,12.3225 7.2045,12.6425 7.4565,12.8875 Z" id="Path" transform="translate(12.535393, 12.000000) scale(-1, 1) translate(-12.535393, -12.000000) "></path>
                    </g>
                </g>
            </g>
        </g>
    </g>
</svg>