<?xml version="1.0" encoding="UTF-8"?>
<svg width="14px" height="12px" viewBox="0 0 14 12" version="1.1" xmlns="http://www.w3.org/2000/svg" xmlns:xlink="http://www.w3.org/1999/xlink">
    <!-- Generator: Sketch 64 (93537) - https://sketch.com -->
    <title>instant_payment_icon</title>
    <desc>Created with Sketch.</desc>
    <defs>
        <polygon id="path-1" points="0 0.0261902419 13.6390688 0.0261902419 13.6390688 11.9737418 0 11.9737418"></polygon>
    </defs>
    <g id="Page-1" stroke="none" stroke-width="1" fill="none" fill-rule="evenodd">
        <g id="instant_payment_icon">
            <path d="M11.574802,1.27330766 L2.06476492,1.27330766 L1.79837732,1.27330766 L1.26560213,1.27330766 C0.67688555,1.27330766 0.199785367,1.74359212 0.199785367,2.32363589 C0.199785367,2.90367965 0.67688555,3.37396411 1.26560213,3.37396411 L11.574802,3.37396411 C12.1632522,3.37396411 12.6403524,3.84424858 12.6403524,4.42429234 L12.6403524,2.32363589 C12.6403524,1.74359212 12.1632522,1.27330766 11.574802,1.27330766" id="Fill-1" fill="#F283A6" fill-rule="nonzero"></path>
            <path d="M12.6403524,10.7265427 C12.6403524,11.3065864 12.1632522,11.7768709 11.574802,11.7768709 L1.26560213,11.7768709 C0.677151933,11.7768709 0.200051755,11.3065864 0.200051755,10.7265427 L0.199785367,10.7265427 L0.199785367,2.32362801 C0.199785367,2.90367177 0.67688555,3.37395623 1.26560213,3.37395623 L11.574802,3.37395623 C12.1632522,3.37395623 12.6403524,3.8442407 12.6403524,4.42428446 L12.6403524,10.7265427 Z" id="Fill-3" fill="#F283A6" fill-rule="nonzero"></path>
            <path d="M13.4392541,5.6059116 L13.4392541,8.75689626 C13.4392541,8.97428796 13.2602416,9.15076938 13.0396727,9.15076938 L12.6403577,9.15076938 L10.2423366,9.15076938 L9.17705259,7.57527702 L10.2423366,5.99978468 L12.6403577,5.99978468 L13.0396727,5.99978468 L13.0396727,5.9995221 C13.2602416,5.9995221 13.4392541,5.82330328 13.4392541,5.6059116" id="Fill-5" fill="#F7C2D9" fill-rule="nonzero"></path>
            <polygon id="Fill-7" fill="#FFFFFF" fill-rule="nonzero" points="9.78974409 2.32391685 1.79838265 2.32391685 2.06477024 1.27329978 2.33089145 0.222971554 6.05978499 1.27329978"></polygon>
            <path d="M11.0417658,7.05011292 C11.3361241,7.05011292 11.574541,7.28538642 11.574541,7.57527702 C11.574541,7.86543018 11.3361241,8.10044112 11.0417658,8.10044112 C10.7474075,8.10044112 10.5089906,7.86543018 10.5089906,7.57527702 C10.5089906,7.28538642 10.7474075,7.05011292 11.0417658,7.05011292" id="Fill-9" fill="#F283A6" fill-rule="nonzero"></path>
            <g id="Group-13" transform="translate(0.000000, 0.000079)">
                <g id="Fill-11-Clipped">
                    <mask id="mask-2" fill="white">
                        <use xlink:href="#path-1"></use>
                    </mask>
                    <g id="path-1"></g>
                    <path d="M12.8400392,5.40891991 L13.0397233,5.40891991 C13.1498213,5.40891991 13.2394075,5.49722626 13.2394075,5.60575142 C13.2394075,5.71427659 13.1498213,5.80258293 13.0397233,5.80258293 C13.0383381,5.80258293 13.0369796,5.80276674 13.0355944,5.802793 L12.8400392,5.802793 L12.8400392,5.40891991 Z M11.5746981,3.17684114 C11.5743518,3.17684114 11.5740322,3.17689366 11.5736592,3.17689366 L1.2654716,3.17689366 C0.788078395,3.17689366 0.399685282,2.79404902 0.399685282,2.32347571 C0.399685282,1.85290241 0.788078395,1.47005777 1.2654716,1.47005777 L1.80884902,1.47005777 L1.64235677,2.12674924 L1.26552488,2.12674924 C1.15518714,2.12674924 1.06573419,2.21492429 1.06573419,2.32368578 C1.06573419,2.43244726 1.15518714,2.52062232 1.26552488,2.52062232 L1.79766074,2.52062232 C1.79792713,2.52062232 1.79822015,2.52067484 1.79851318,2.52067484 C1.79872629,2.52067484 1.7989394,2.52062232 1.79912587,2.52062232 L9.78918202,2.52062232 C9.78944838,2.52062232 9.78968815,2.52067484 9.78992791,2.52067484 C9.79014102,2.52067484 9.79035412,2.52062232 9.79056723,2.52062232 L11.3080708,2.52062232 C11.4184085,2.52062232 11.5078615,2.43244726 11.5078615,2.32368578 C11.5078615,2.21492429 11.4184085,2.12674924 11.3080708,2.12674924 L9.81781865,2.12674924 L7.48615469,1.47005777 L11.5746715,1.47005777 C12.0520381,1.47005777 12.4404312,1.85290241 12.4404312,2.32347571 L12.4404312,3.5157558 C12.2139218,3.3058477 11.9093875,3.17684114 11.5746981,3.17684114 L11.5746981,3.17684114 Z M2.47473809,0.468307221 L6.00008487,1.4611825 C6.0002447,1.46123501 6.00043117,1.46126127 6.000591,1.46131379 L8.3633424,2.12674924 L2.05421863,2.12674924 L2.47473809,0.468307221 Z M13.2394075,8.75684112 C13.2394075,8.8653663 13.1498213,8.95367262 13.0397233,8.95367262 L10.3493685,8.95367262 L9.41703852,7.57527438 L10.3493685,6.19666608 L13.0397233,6.19666608 C13.0425204,6.19666608 13.0452376,6.19635096 13.048008,6.19624596 C13.1150311,6.19532694 13.1793904,6.18356322 13.2394075,6.16260918 L13.2394075,8.75684112 Z M13.0397233,5.01504683 L12.8400392,5.01504683 L12.8400392,4.42413217 L12.8400392,2.32347571 C12.8400392,1.63574705 12.2723939,1.07618468 11.5746981,1.07618468 L6.08767308,1.07618468 L2.38587118,0.033628884 C2.38480563,0.0333400438 2.38371345,0.0331824945 2.38264789,0.0329199125 C2.3815557,0.032604814 2.38051679,0.0321846827 2.3794246,0.0319483589 C2.37718695,0.0313706783 2.37497593,0.0311080963 2.37276492,0.0306617068 C2.36932851,0.029926477 2.36589211,0.0291912473 2.36245571,0.0286660832 C2.35933898,0.028140919 2.35627552,0.0278258206 2.35315879,0.0274844639 C2.34953591,0.0270380744 2.34593968,0.0266704595 2.34234345,0.0264866521 C2.33941318,0.0263291029 2.33650956,0.0261902419 2.3335793,0.0261902419 C2.32984987,0.0261902419 2.32614708,0.0261902419 2.3224443,0.0263291029 C2.3197005,0.0264341357 2.31695671,0.0266704595 2.31423956,0.0268805252 C2.31043021,0.0271956236 2.30662087,0.0275632385 2.30286481,0.0280884026 C2.30030749,0.0284822757 2.29777681,0.0289286652 2.29524612,0.0293750547 C2.29135686,0.0300577681 2.28752088,0.030819256 2.28371154,0.0317382932 C2.28134069,0.0322897156 2.27902312,0.0329724289 2.27667891,0.0336026258 C2.27278965,0.0347054705 2.26895367,0.0358345733 2.26511769,0.0371474836 C2.26295995,0.0379089716 2.26082885,0.0387229759 2.25867111,0.0395894967 C2.25480849,0.041033698 2.25097251,0.0425829322 2.24721644,0.0442897156 C2.24521853,0.0452087527 2.24327391,0.0462328228 2.24130263,0.0472043764 C2.23754657,0.0490424507 2.23384378,0.0509330416 2.23022091,0.0530599562 C2.22832956,0.0541365427 2.22651812,0.0552919037 2.22465341,0.0564472648 C2.22108381,0.058652954 2.2175675,0.06091116 2.21415774,0.0633531726 C2.21237294,0.0646398252 2.21064142,0.0659789934 2.20888327,0.0673181622 C2.2056067,0.0698126916 2.20235677,0.0723859956 2.19924003,0.0750643326 C2.19748188,0.0766135668 2.19580363,0.0781890588 2.19409875,0.0797645514 C2.19116849,0.0824954046 2.18826486,0.0852262584 2.18549443,0.0881146608 C2.18376291,0.089952735 2.18213795,0.0918170676 2.18045971,0.0937076586 C2.17792903,0.0965698032 2.17542498,0.0994582056 2.17305414,0.102477899 C2.17134925,0.10465733 2.16975093,0.106889278 2.16812597,0.109121225 C2.1660215,0.112035886 2.16394368,0.115003063 2.16202569,0.117996499 C2.16037409,0.120596061 2.15885568,0.12324814 2.15733727,0.125926477 C2.15565902,0.12881488 2.15398078,0.131755799 2.15246237,0.13480175 C2.1509706,0.137716411 2.14963866,0.140736105 2.14828009,0.143755799 C2.14694815,0.146749234 2.14564285,0.149690153 2.14447074,0.152736105 C2.14324536,0.155939606 2.14217981,0.159221882 2.14108762,0.162530416 C2.14039502,0.16465733 2.13954257,0.166652954 2.13890324,0.168806127 C2.13858358,0.169882714 2.13845039,0.1709593 2.13815736,0.172009628 C2.13786433,0.173086214 2.13743811,0.174110284 2.13717172,0.175186871 L1.90871773,1.07613217 L1.2654716,1.07613217 C0.569161069,1.07613217 0.00250137951,1.63341007 0.000210446199,2.3192744 C0.00018380744,2.3207186 -2.66387594e-06,2.32203151 -2.66387594e-06,2.32342319 L-2.66387594e-06,9.15055668 C-2.66387594e-06,9.25929192 0.0897699551,9.34749324 0.199788032,9.34749324 C0.310072495,9.34749324 0.399578727,9.25929192 0.399578727,9.15055668 L0.399578727,3.2317733 C0.626114738,3.44173391 0.930702311,3.57076674 1.2654716,3.57076674 L11.5746981,3.57076674 C11.5749379,3.57076674 11.575151,3.57074048 11.5753907,3.57074048 C12.0524377,3.57113435 12.4404578,3.95379518 12.4404578,4.42415842 L12.4404578,5.80281926 L10.2424405,5.80281926 C10.2423073,5.80281926 10.2422007,5.80284551 10.2420675,5.80284551 C10.2362869,5.80284551 10.230533,5.80321313 10.2248057,5.80368578 C10.2184389,5.80426346 10.2121522,5.80512998 10.205972,5.80625908 C10.2050397,5.80644289 10.204134,5.80652167 10.2032016,5.80667921 C10.1979804,5.80772954 10.1928657,5.80906871 10.1877778,5.81048665 C10.1866589,5.81082801 10.1855134,5.81101181 10.1844213,5.81135317 C10.1798927,5.8127186 10.1754973,5.81434661 10.1711019,5.81600087 C10.1694237,5.81663107 10.1677188,5.81715623 10.1660405,5.81783895 C10.1623644,5.81933567 10.1588214,5.82109497 10.1552785,5.82282801 C10.1529343,5.82393085 10.1505634,5.82495493 10.1482725,5.82613654 C10.145502,5.82755449 10.1428915,5.82920875 10.1402276,5.83078424 C10.1372707,5.83251728 10.1342605,5.83419781 10.1313835,5.83611466 C10.1294389,5.8373488 10.1276541,5.838793 10.1257894,5.84013217 C10.1223796,5.84257418 10.1189432,5.84493742 10.1156932,5.84758949 C10.1142814,5.84874486 10.1129761,5.85003151 10.1116175,5.85123939 C10.1081279,5.85420656 10.1046382,5.85717374 10.101335,5.86042976 C10.0993904,5.86237286 10.0976322,5.86447352 10.0957941,5.86644289 C10.0932102,5.8692 10.0905463,5.8719046 10.0880955,5.87484551 C10.0839665,5.87983457 10.0801039,5.88495493 10.076481,5.89028534 C10.0764011,5.89036411 10.0763212,5.89046915 10.0762679,5.89060044 L9.01077082,7.46611902 C9.00333858,7.47709494 8.99705185,7.4887011 8.99207041,7.5008061 C8.99017907,7.50532254 8.98866062,7.50994398 8.98714223,7.51451292 C8.98668936,7.51587834 8.9861033,7.51721748 8.9856771,7.51863546 C8.9841853,7.52346696 8.98303986,7.52840352 8.98194768,7.53326124 C8.98165465,7.53454794 8.9812817,7.5358083 8.98101534,7.53709494 C8.98013626,7.5415326 8.97955021,7.54597026 8.97899076,7.55040786 C8.97875105,7.55227224 8.9783781,7.55416278 8.9781916,7.55607966 C8.97781865,7.55972952 8.97773873,7.56337944 8.97760555,7.5670293 C8.97747237,7.56978642 8.9772326,7.57256982 8.9772326,7.57537944 C8.9772326,7.578084 8.97747237,7.58078862 8.97757889,7.58349324 C8.97771213,7.58722188 8.97781865,7.59100308 8.9781916,7.5947055 C8.9783781,7.59654354 8.97872439,7.59832908 8.97896416,7.6001409 C8.97955021,7.60465734 8.98013626,7.60917372 8.98104194,7.61366388 C8.9812817,7.6149243 8.98165465,7.61613216 8.98194768,7.61734002 C8.98303986,7.62227658 8.98421197,7.62721314 8.98570376,7.63212342 C8.98612997,7.63354134 8.98671602,7.63485426 8.98716889,7.63627224 C8.98868728,7.64084112 8.99020567,7.64546256 8.99209707,7.649979 C8.99710511,7.66205778 9.0033919,7.67369016 9.01085074,7.68469236 L10.0763212,9.2599746 C10.0763745,9.26005338 10.0764277,9.26010588 10.076481,9.26018466 C10.0807699,9.26646042 10.0854583,9.2724735 10.0904131,9.2781978 C10.0920381,9.28011468 10.0937695,9.28184772 10.0954478,9.28363326 C10.0988309,9.28728318 10.1023472,9.29080176 10.1059968,9.29418906 C10.1081545,9.29618466 10.1102856,9.29812776 10.11247,9.30001836 C10.1163592,9.30330066 10.1203817,9.30637284 10.1245107,9.30934002 C10.1263754,9.3107055 10.1281602,9.3121497 10.1300516,9.31341006 C10.1360453,9.31745382 10.1422521,9.32112996 10.1486721,9.32449104 C10.150297,9.32533128 10.1519753,9.32606652 10.1536003,9.32682798 C10.1587149,9.32937504 10.1639361,9.33171204 10.1692905,9.33378642 C10.1713683,9.33457416 10.1734461,9.3353094 10.1755505,9.33607092 C10.1806386,9.33783018 10.1858065,9.33943194 10.191081,9.34079736 C10.1932387,9.34137504 10.1953698,9.3419265 10.1975542,9.3424779 C10.2029619,9.34371204 10.2084495,9.34465734 10.2140169,9.3454188 C10.2160415,9.34573392 10.2180394,9.34610154 10.2200639,9.34633788 C10.2269368,9.34709934 10.2339161,9.34751946 10.241002,9.34757202 C10.2415614,9.34757202 10.2421209,9.34767702 10.2427069,9.34767702 C10.2428134,9.34767702 10.2429466,9.34765074 10.2430798,9.34765074 L12.4405377,9.34765074 L12.4405377,10.7264167 C12.4405377,11.1970424 12.0521446,11.5798871 11.5747781,11.5798871 L1.26557815,11.5798871 C0.78821159,11.5798871 0.399818476,11.1970424 0.399818476,10.7264167 C0.399818476,10.7254188 0.399685282,10.724421 0.399658643,10.7233969 L0.399658643,9.93840786 C0.399658643,9.82996146 0.310152412,9.74147136 0.199867948,9.74147136 C0.0898498714,9.74147136 -2.66387594e-06,9.82996146 -2.66387594e-06,9.93840786 L-2.66387594e-06,10.7264167 C-2.66387594e-06,10.7284648 0.000317001237,10.7304604 0.000396917515,10.7324823 C0.00372676244,11.4174538 0.569933593,11.9737602 1.26557815,11.9737602 L11.5747781,11.9737602 C12.2724205,11.9737602 12.8400125,11.4143029 12.8401191,10.7266529 L12.8401191,10.7265479 L12.8401191,9.34765074 L13.0398032,9.34765074 C13.3702305,9.34765074 13.6390688,9.08265294 13.6390688,8.75694618 L13.6390688,5.60575142 C13.6390688,5.28004464 13.3701505,5.01504683 13.0397233,5.01504683 L13.0397233,5.01504683 Z" id="Fill-11" fill="#AF2A56" fill-rule="nonzero" mask="url(#mask-2)"></path>
                </g>
            </g>
            <path d="M11.0417418,7.90358076 C10.8581209,7.90358076 10.7087573,7.75637724 10.7087573,7.57535316 C10.7087573,7.39435536 10.8581209,7.24709934 11.0417418,7.24709934 C11.2253628,7.24709934 11.3747263,7.39435536 11.3747263,7.57535316 C11.3747263,7.75637724 11.2253628,7.90358076 11.0417418,7.90358076 M11.0417418,6.85322628 C10.6377917,6.85322628 10.3091759,7.17717372 10.3091759,7.57535316 C10.3091759,7.9735326 10.6377917,8.29745382 11.0417418,8.29745382 C11.445692,8.29745382 11.7743077,7.9735326 11.7743077,7.57535316 C11.7743077,7.17717372 11.445692,6.85322628 11.0417418,6.85322628" id="Fill-14" fill="#AF2A56" fill-rule="nonzero"></path>
            <path d="M7.72893502,6.62485074 C7.71031453,6.58541094 7.6701699,6.56009802 7.62597622,6.56009802 L6.27912052,6.56009802 L7.60834133,4.49137156 C7.63050479,4.45689453 7.6318634,4.41317462 7.6118843,4.3774372 C7.59185195,4.34159475 7.55367863,4.31940656 7.51230863,4.31940656 L5.69376044,4.31940656 C5.65068557,4.31940656 5.61136676,4.34338031 5.59205366,4.38137593 L3.88717306,7.74242628 C3.8695382,7.77703458 3.87148283,7.81825998 3.89215451,7.8512928 C3.91295938,7.88435184 3.94945448,7.90449192 3.98887984,7.90449192 L5.15762877,7.90449192 L3.88408296,10.8859799 C3.86237237,10.9369733 3.88171211,10.996133 3.92955532,11.025017 C3.94796271,11.0361243 3.96842127,11.041481 3.98877328,11.041481 C4.02137913,11.041481 4.05355875,11.0277217 4.07582875,11.0017261 L7.7129251,6.7444044 C7.74142862,6.71100396 7.74758217,6.6643956 7.72893502,6.62485074" id="Fill-16" fill="#FFFFFF" fill-rule="nonzero"></path>
        </g>
    </g>
</svg>