<?xml version="1.0" encoding="UTF-8"?>
<svg width="82px" height="82px" viewBox="0 0 82 82" version="1.1" xmlns="http://www.w3.org/2000/svg" xmlns:xlink="http://www.w3.org/1999/xlink">
    <!-- Generator: Sketch 61.2 (89653) - https://sketch.com -->
    <title>Path</title>
    <desc>Created with Sketch.</desc>
    <g id="Page-1" stroke="none" stroke-width="1" fill="none" fill-rule="evenodd">
        <g id="Home---Full-Copy" transform="translate(-394.000000, -6042.000000)" fill="#C1B7D7" fill-rule="nonzero" stroke="#9789C3" stroke-width="2">
            <g id="Beauty-Journal" transform="translate(164.000000, 5930.000000)">
                <g id="play-button" transform="translate(231.000000, 113.000000)">
                    <path d="M40,0 C17.9089063,0 0,17.9085937 0,40 C0,62.0914062 17.9089063,80 40,80 C62.0910937,80 80,62.0914062 80,40 C80,17.9085938 62.0910937,0 40,0 Z M53.825,42.1203125 L33.825,54.6203125 C33.4203125,54.8729687 32.9601563,55 32.5,55 C32.083125,55 31.665625,54.89625 31.2878125,54.68625 C30.493125,54.245625 30,53.409375 30,52.5 L30,27.5 C30,26.590625 30.493125,25.754375 31.2878125,25.31375 C32.0825,24.870625 33.0542187,24.8975 33.825,25.3796875 L53.825,37.8796875 C54.555625,38.3375 55,39.1382812 55,40 C55,40.8617187 54.555625,41.6626562 53.825,42.1203125 Z" id="Shape"></path>
                </g>
            </g>
        </g>
    </g>
</svg>