<?xml version="1.0" encoding="UTF-8"?>
<svg width="12px" height="12px" viewBox="0 0 12 12" version="1.1" xmlns="http://www.w3.org/2000/svg" xmlns:xlink="http://www.w3.org/1999/xlink">
    <title>check (1) copy 4</title>
    <g id="Complete-Data-from-SMS---Web" stroke="none" stroke-width="1" fill="none" fill-rule="evenodd">
        <g id="Register-Copy-16" transform="translate(-936.000000, -141.000000)" fill="#76C860" fill-rule="nonzero">
            <g id="Group-2" transform="translate(551.000000, 137.000000)">
                <g id="check-(1)-copy-4" transform="translate(385.000000, 4.000000)">
                    <path d="M6,0 C2.69139844,0 0,2.69139844 0,6 C0,9.30860156 2.69139844,12 6,12 C9.30860156,12 12,9.30813281 12,6 C12,2.69186719 9.30860156,0 6,0 Z M6,11.0704922 C3.20449219,11.0704922 0.929507812,8.79597656 0.929507812,6 C0.929507812,3.20402344 3.20449219,0.929507812 6,0.929507812 C8.79597656,0.929507812 11.0704922,3.20402344 11.0704922,6 C11.0704922,8.79597656 8.79550781,11.0704922 6,11.0704922 Z" id="Shape"></path>
                    <path d="M8.75275781,3.91324219 C8.56359375,3.74128125 8.26940625,3.75475781 8.09653125,3.94483594 L5.26150781,7.06661719 L3.89186719,5.67421875 C3.71107031,5.49110156 3.41735156,5.4883125 3.23470313,5.66864063 C3.05158594,5.8485 3.04879688,6.1426875 3.229125,6.32580469 L4.94360156,8.06864063 C5.03144531,8.15786719 5.15041406,8.20760156 5.27496094,8.20760156 C5.27775,8.20760156 5.28100781,8.20760156 5.28379688,8.20807031 C5.41207031,8.20528125 5.53291406,8.1504375 5.61888281,8.05563281 L8.78432813,4.56996094 C8.95678125,4.37939063 8.94283594,4.08567187 8.75275781,3.91324219 Z" id="Path"></path>
                </g>
            </g>
        </g>
    </g>
</svg>