<?xml version="1.0" encoding="UTF-8"?>
<svg width="12px" height="12px" viewBox="0 0 12 12" version="1.1" xmlns="http://www.w3.org/2000/svg" xmlns:xlink="http://www.w3.org/1999/xlink">
    <!-- Generator: Sketch 64 (93537) - https://sketch.com -->
    <title>Group</title>
    <desc>Created with Sketch.</desc>
    <g id="Page-1" stroke="none" stroke-width="1" fill="none" fill-rule="evenodd">
        <g id="Group">
            <circle id="Oval" fill="#FEDFE2" cx="5.67" cy="5.67" r="4.17"></circle>
            <path d="M5.625,0 C2.52345891,0 0,2.52345891 0,5.625 C0,8.72671572 2.52345891,11.25 5.625,11.25 C8.72671572,11.25 11.25,8.72671572 11.25,5.625 C11.25,2.52345891 8.72671572,0 5.625,0 Z M5.625,10.2115626 C3.09600275,10.2115626 1.03846231,8.15402219 1.03846231,5.62502495 C1.03846231,3.0960277 3.09600275,1.03846231 5.625,1.03846231 C8.15399725,1.03846231 10.2115377,3.09600275 10.2115377,5.625 C10.2115377,8.15399725 8.15399725,10.2115626 5.625,10.2115626 Z" id="Shape" fill="#EB395F" fill-rule="nonzero"></path>
            <path d="M3.63901919,7.02985075 C3.66972281,7.02985075 3.695629,7.01929638 3.71673774,6.99818763 C3.73784648,6.97707889 3.74840085,6.95117271 3.74840085,6.92046908 L3.74840085,6.92046908 L3.74840085,5.45245203 L4.38742004,5.45245203 L5.15309168,6.97803838 C5.16076759,6.98955224 5.17132196,7.0010661 5.1847548,7.01257996 C5.19818763,7.02409382 5.21833689,7.02985075 5.24520256,7.02985075 L5.24520256,7.02985075 L5.84968017,7.02985075 C5.89957356,7.02985075 5.93315565,7.01162047 5.95042644,6.97515991 C5.96769723,6.93869936 5.96673774,6.90127932 5.94754797,6.86289979 L5.94754797,6.86289979 L5.15884861,5.40063966 C5.28550107,5.35074627 5.40063966,5.28646055 5.50426439,5.20778252 C5.60788913,5.12910448 5.69712154,5.03987207 5.77196162,4.94008529 C5.84680171,4.84029851 5.90533049,4.73187633 5.94754797,4.61481876 C5.98976546,4.49776119 6.0108742,4.37206823 6.0108742,4.23773987 C6.0108742,4.06503198 5.9782516,3.90383795 5.9130064,3.75415778 C5.84776119,3.60447761 5.7575693,3.47398721 5.6424307,3.36268657 C5.52729211,3.25138593 5.39392324,3.16311301 5.24232409,3.0978678 C5.09072495,3.0326226 4.92857143,3 4.75586354,3 L4.75586354,3 L3.10938166,3 C3.07867804,3 3.05277186,3.01055437 3.03166311,3.03166311 C3.01055437,3.05277186 3,3.07867804 3,3.10938166 L3,3.10938166 L3,6.92046908 C3,6.95117271 3.01055437,6.97707889 3.03166311,6.99818763 C3.05277186,7.01929638 3.07867804,7.02985075 3.10938166,7.02985075 L3.10938166,7.02985075 L3.63901919,7.02985075 Z M4.69253731,4.83646055 L3.75415778,4.83646055 L3.75415778,3.69083156 L4.69253731,3.69083156 C4.76929638,3.69083156 4.84221748,3.70522388 4.91130064,3.73400853 C4.9803838,3.76279318 5.04083156,3.80309168 5.09264392,3.85490405 C5.14445629,3.90671642 5.18571429,3.96620469 5.21641791,4.03336887 C5.24712154,4.10053305 5.26247335,4.17249467 5.26247335,4.24925373 C5.26247335,4.32985075 5.24712154,4.40565032 5.21641791,4.47665245 C5.18571429,4.54765458 5.14445629,4.61002132 5.09264392,4.66375267 C5.04083156,4.71748401 4.9803838,4.75970149 4.91130064,4.79040512 C4.84221748,4.82110874 4.76929638,4.83646055 4.69253731,4.83646055 L4.69253731,4.83646055 Z M7.16226013,8.4 C7.19296375,8.4 7.2217484,8.38656716 7.24861407,8.35970149 C7.27547974,8.33283582 7.28891258,8.30405117 7.28891258,8.27334755 L7.28891258,8.27334755 L7.28891258,6.98379531 C7.35031983,7.00682303 7.43859275,7.03081023 7.55373134,7.05575693 C7.66886994,7.08070362 7.79360341,7.09317697 7.92793177,7.09317697 C8.12750533,7.09317697 8.30788913,7.05767591 8.46908316,6.98667377 C8.63027719,6.91567164 8.7684435,6.81780384 8.88358209,6.69307036 C8.99872068,6.56833689 9.08795309,6.42153518 9.15127932,6.25266525 C9.21460554,6.08379531 9.24626866,5.90149254 9.24626866,5.70575693 C9.24626866,5.50618337 9.21364606,5.32100213 9.14840085,5.15021322 C9.08315565,4.97942431 8.99392324,4.83166311 8.88070362,4.70692964 C8.76748401,4.58219616 8.63315565,4.48528785 8.47771855,4.41620469 C8.32228145,4.34712154 8.154371,4.31257996 7.97398721,4.31257996 C7.83198294,4.31257996 7.70724947,4.3336887 7.59978678,4.37590618 C7.49232409,4.41812367 7.4021322,4.4641791 7.32921109,4.51407249 C7.24093817,4.57164179 7.16609808,4.63688699 7.10469083,4.7098081 L7.10469083,4.7098081 L7.03560768,4.49680171 C7.008742,4.41236674 6.96652452,4.37014925 6.90895522,4.37014925 L6.90895522,4.37014925 L6.69594883,4.37014925 C6.66140725,4.37014925 6.63166311,4.3826226 6.60671642,4.4075693 C6.58176972,4.43251599 6.56929638,4.46226013 6.56929638,4.49680171 L6.56929638,4.49680171 L6.56929638,8.27334755 C6.56929638,8.30405117 6.58176972,8.33283582 6.60671642,8.35970149 C6.63166311,8.38656716 6.66140725,8.4 6.69594883,8.4 L6.69594883,8.4 L7.16226013,8.4 Z M7.84157783,6.43688699 C7.75714286,6.43688699 7.68134328,6.42921109 7.6141791,6.41385928 C7.54701493,6.39850746 7.48848614,6.38123667 7.43859275,6.36204691 C7.38102345,6.34285714 7.33113006,6.31791045 7.28891258,6.28720682 L7.28891258,6.28720682 L7.28891258,5.33731343 C7.30426439,5.2989339 7.32729211,5.25863539 7.35799574,5.21641791 C7.38869936,5.17420043 7.42803838,5.13486141 7.47601279,5.09840085 C7.52398721,5.0619403 7.58059701,5.03123667 7.64584222,5.00628998 C7.71108742,4.98134328 7.78784648,4.96886994 7.8761194,4.96886994 C7.97974414,4.96886994 8.07089552,4.98997868 8.14957356,5.03219616 C8.2282516,5.07441365 8.2934968,5.13006397 8.34530917,5.19914712 C8.39712154,5.26823028 8.43646055,5.34690832 8.46332623,5.43518124 C8.4901919,5.52345416 8.50362473,5.61364606 8.50362473,5.70575693 C8.50362473,5.7978678 8.48923241,5.8880597 8.46044776,5.97633262 C8.43166311,6.06460554 8.39040512,6.14328358 8.33667377,6.21236674 C8.28294243,6.28144989 8.21385928,6.33614072 8.12942431,6.37643923 C8.04498934,6.41673774 7.94904051,6.43688699 7.84157783,6.43688699 Z" id="Rp" fill="#262626" fill-rule="nonzero"></path>
            <path d="M8.10637852,1.59812636 C8.32604843,1.37845645 8.68220373,1.37845645 8.90187364,1.59812637 C9.10157356,1.79782629 9.1197281,2.11032406 8.95633725,2.33053267 L8.90187363,2.3936215 L2.27274756,9.02274737 C2.05307764,9.24241728 1.69692234,9.24241728 1.47725243,9.02274736 C1.27755251,8.82304743 1.25939798,8.51054967 1.42278883,8.29034105 L1.47725244,8.22725223 L8.10637852,1.59812636 Z" id="Path" stroke="#EB395F" stroke-width="0.2" fill="#EB395F" fill-rule="nonzero"></path>
        </g>
    </g>
</svg>