<?xml version="1.0" encoding="UTF-8"?>
<svg width="32px" height="32px" viewBox="0 0 32 32" version="1.1" xmlns="http://www.w3.org/2000/svg" xmlns:xlink="http://www.w3.org/1999/xlink">
    <!-- Generator: Sketch 64 (93537) - https://sketch.com -->
    <title>Group 16</title>
    <desc>Created with Sketch.</desc>
    <g id="Page-1" stroke="none" stroke-width="1" fill="none" fill-rule="evenodd">
        <g id="Group-16" fill-rule="nonzero">
            <ellipse id="Oval" fill="#F9F9F9" cx="15.7307423" cy="16.1289715" rx="14.913016" ry="15.2538139"></ellipse>
            <path d="M27.4773334,5.59028571 C27.2266826,5.2907619 26.7861365,5.25590476 26.4934315,5.51257143 C26.2007265,5.76914286 26.1667667,6.22009524 26.4175105,6.51971429 C28.6200552,9.15171429 29.8330225,12.5125714 29.8330225,15.9831429 C29.8330225,24.0085714 23.4545469,30.5377143 15.614314,30.5377143 C7.77408116,30.5377143 1.39569859,24.0085714 1.39569859,15.9831429 C1.39569859,7.95771429 7.77408116,1.42857143 15.614221,1.42857143 C18.7194433,1.42857143 21.6691952,2.43457143 24.1446273,4.33771429 C24.452684,4.57447619 24.8901598,4.51095238 25.1216442,4.19552381 C25.3530356,3.88009524 25.2908847,3.43238095 24.982735,3.19542857 C22.2637232,1.10495238 19.0241505,-9.60457767e-14 15.614221,-9.60457767e-14 C7.00445122,-9.60457767e-14 -2.35214147e-13,7.17 -2.35214147e-13,15.9830476 C-2.35214147e-13,24.7960952 7.00454426,31.9661905 15.614221,31.9661905 C24.2238977,31.9661905 31.228535,24.7961905 31.228535,15.9831429 C31.228535,12.1719048 29.8962899,8.48104762 27.4773334,5.59028571 Z" id="Path" fill="#6F6F6F"></path>
            <path d="M8.90182349,23.568381 C9.08036796,23.568381 9.25900547,23.4986667 9.39521657,23.3591429 L22.8201046,9.6172381 C23.0926198,9.33828571 23.0926198,8.886 22.8201046,8.60714286 C22.5475894,8.32819048 22.1057406,8.32819048 21.8333184,8.60714286 L8.4084304,22.3490476 C8.13591516,22.628 8.13591516,23.0802857 8.4084304,23.3591429 C8.54464151,23.4985714 8.72327902,23.568381 8.90182349,23.568381 Z" id="Path" fill="#6F6F6F"></path>
            <path d="M14.0745889,11.4024762 C14.0745889,9.3247619 12.4232154,7.63447619 10.3935397,7.63447619 C8.36386407,7.63447619 6.7123975,9.3247619 6.7123975,11.4024762 C6.7123975,13.4801905 8.36377103,15.1704762 10.3934467,15.1704762 C12.4231224,15.1704762 14.0745889,13.4801905 14.0745889,11.4024762 L14.0745889,11.4024762 Z M8.10800305,11.4024762 C8.10800305,10.1124762 9.13330793,9.06304762 10.3934467,9.06304762 C11.6535855,9.06304762 12.6788903,10.1125714 12.6788903,11.4024762 C12.6788903,12.692381 11.6535855,13.7419048 10.3934467,13.7419048 C9.13330793,13.7419048 8.10800305,12.6924762 8.10800305,11.4024762 L8.10800305,11.4024762 Z" id="Shape" fill="#6F6F6F"></path>
            <path d="M20.0891837,25.0952381 C22.1189524,25.0952381 23.7702329,23.4048571 23.7702329,21.3271429 C23.7702329,19.2494286 22.1188593,17.5591429 20.0891837,17.5591429 C18.0594149,17.5591429 16.4080414,19.2495238 16.4080414,21.3271429 C16.4080414,23.4049524 18.0594149,25.0952381 20.0891837,25.0952381 Z M20.0891837,18.9877143 C21.3494155,18.9877143 22.3746273,20.0372381 22.3746273,21.3271429 C22.3746273,22.6170476 21.3493224,23.6666667 20.0891837,23.6666667 C18.8290449,23.6666667 17.803647,22.6171429 17.803647,21.3271429 C17.803647,20.0371429 18.8289519,18.9877143 20.0891837,18.9877143 Z" id="Shape" fill="#6F6F6F"></path>
        </g>
    </g>
</svg>