<?xml version="1.0" encoding="UTF-8"?>
<svg width="50px" height="50px" viewBox="0 0 50 50" version="1.1" xmlns="http://www.w3.org/2000/svg" xmlns:xlink="http://www.w3.org/1999/xlink">
    <!-- Generator: Sketch 64 (93537) - https://sketch.com -->
    <title>Group 24</title>
    <desc>Created with Sketch.</desc>
    <defs>
        <polygon id="path-1" points="1.36239782e-05 0.00803814714 49.8557221 0.00803814714 49.8557221 49.8637602 1.36239782e-05 49.8637602"></polygon>
        <polygon id="path-3" points="0 49.9919619 49.8557221 49.9919619 49.8557221 0.136239782 0 0.136239782"></polygon>
    </defs>
    <g id="Page-1" stroke="none" stroke-width="1" fill="none" fill-rule="evenodd">
        <g id="Group-2-Copy" transform="translate(0.000000, -109.000000)">
            <g transform="translate(0.000000, 109.000000)" id="Group-24">
                <g>
                    <g id="Group-3" transform="translate(0.000000, 0.128202)">
                        <mask id="mask-2" fill="white">
                            <use xlink:href="#path-1"></use>
                        </mask>
                        <g id="Clip-2"></g>
                        <path d="M35.9654087,0.00803814714 L1.36239782e-05,0.00803814714 L1.36239782e-05,49.8637602 L49.8557357,49.8637602 L49.8557357,13.8983651 C49.8557357,6.22697548 43.6367984,0.00803814714 35.9654087,0.00803814714" id="Fill-1" fill="#F3E9FF" mask="url(#mask-2)"></path>
                    </g>
                    <mask id="mask-4" fill="white">
                        <use xlink:href="#path-3"></use>
                    </mask>
                    <g id="Clip-5"></g>
                    <polygon id="Fill-4" fill="#D4B1EF" mask="url(#mask-4)" points="9.34768392 26.370436 20.1689373 26.370436 20.1689373 15.5491826 9.34768392 15.5491826"></polygon>
                    <polygon id="Fill-6" fill="#D4B1EF" mask="url(#mask-4)" points="20.1689373 26.370436 30.9901907 26.370436 30.9901907 15.5491826 20.1689373 15.5491826"></polygon>
                    <polygon id="Fill-7" fill="#D4B1EF" mask="url(#mask-4)" points="9.34768392 37.1915531 20.1689373 37.1915531 20.1689373 26.3702997 9.34768392 26.3702997"></polygon>
                    <polygon id="Fill-8" fill="#D4B1EF" mask="url(#mask-4)" points="20.1689373 37.1915531 30.9901907 37.1915531 30.9901907 26.3702997 20.1689373 26.3702997"></polygon>
                    <path d="M13.0919619,11.7541553 C13.4137602,13.5228202 14.9656676,14.8680518 16.8257493,14.8680518 L19.4265668,14.8680518 C19.1047684,13.0993869 17.552861,11.7541553 15.6927793,11.7541553 L13.0919619,11.7541553 Z M20.1689373,16.2304496 L16.8257493,16.2304496 C13.9818801,16.2304496 11.6683924,13.9168256 11.6683924,11.0729564 C11.6683924,10.6967984 11.973297,10.3917575 12.3495913,10.3917575 L15.6927793,10.3917575 C18.5366485,10.3917575 20.8501362,12.7053815 20.8501362,15.5492507 C20.8501362,15.9254087 20.5452316,16.2304496 20.1689373,16.2304496 L20.1689373,16.2304496 Z" id="Fill-9" fill="#A179C5" mask="url(#mask-4)"></path>
                    <path d="M20.9113896,14.8680518 L23.5120708,14.8680518 C25.3722888,14.8680518 26.9241962,13.5228202 27.2459946,11.7541553 L24.6451771,11.7541553 C22.7850954,11.7541553 21.233188,13.0993869 20.9113896,14.8680518 M23.5120708,16.2304496 L20.1690191,16.2304496 C19.7927248,16.2304496 19.4878202,15.9254087 19.4878202,15.5492507 C19.4878202,12.7053815 21.8013079,10.3917575 24.6451771,10.3917575 L27.9883651,10.3917575 C28.3646594,10.3917575 28.669564,10.6967984 28.669564,11.0729564 C28.669564,13.9168256 26.3559401,16.2304496 23.5120708,16.2304496" id="Fill-10" fill="#A179C5" mask="url(#mask-4)"></path>
                    <polygon id="Fill-11" fill="#A179C5" mask="url(#mask-4)" points="19.4877384 37.1915531 20.8501362 37.1915531 20.8501362 15.5491826 19.4877384 15.5491826"></polygon>
                    <polygon id="Fill-12" fill="#A179C5" mask="url(#mask-4)" points="9.34782016 27.0516349 30.9901907 27.0516349 30.9901907 25.6892371 9.34782016 25.6892371"></polygon>
                    <path d="M10.0290191,36.5103542 L30.3089918,36.5103542 L30.3089918,16.2303815 L10.0290191,16.2303815 L10.0290191,36.5103542 Z M8.66662125,37.872752 L31.6713896,37.872752 L31.6713896,14.8679837 L8.66662125,14.8679837 L8.66662125,37.872752 Z" id="Fill-13" fill="#A179C5" mask="url(#mask-4)"></path>
                    <path d="M20.138842,37.1916076 C20.138842,39.4383379 18.3175886,41.2595913 16.0708583,41.2595913 C13.8242643,41.2595913 12.0028747,39.4383379 12.0028747,37.1916076 C12.0028747,34.9448774 13.8242643,33.123624 16.0708583,33.123624 C18.3175886,33.123624 20.138842,34.9448774 20.138842,37.1916076" id="Fill-14" fill="#FFFFFF" mask="url(#mask-4)"></path>
                    <path d="M16.0708856,33.8048501 C14.2034469,33.8048501 12.6842371,35.3241962 12.6842371,37.1916349 C12.6842371,39.0590736 14.2034469,40.5784196 16.0708856,40.5784196 C17.9383243,40.5784196 19.4575341,39.0590736 19.4575341,37.1916349 C19.4575341,35.3241962 17.9383243,33.8048501 16.0708856,33.8048501 M16.0708856,41.9408174 C13.4522207,41.9408174 11.3218392,39.8102997 11.3218392,37.1916349 C11.3218392,34.57297 13.4522207,32.4424523 16.0708856,32.4424523 C18.6895504,32.4424523 20.8199319,34.57297 20.8199319,37.1916349 C20.8199319,39.8102997 18.6895504,41.9408174 16.0708856,41.9408174" id="Fill-15" fill="#A179C5" mask="url(#mask-4)"></path>
                    <path d="M39.8929564,27.6427929 L30.9900954,27.6427929 L30.9900954,18.7399319 L35.3031744,18.7399319 C37.8380518,18.7399319 39.8929564,20.7948365 39.8929564,23.3297139 L39.8929564,27.6427929 Z" id="Fill-16" fill="#FFEBDE" mask="url(#mask-4)"></path>
                    <path d="M31.6714033,26.961594 L39.2117302,26.961594 L39.2117302,23.3297139 C39.2117302,21.1745368 37.4584605,19.4211308 35.3031471,19.4211308 L31.6714033,19.4211308 L31.6714033,26.961594 Z M40.5741281,28.3239918 L30.3090054,28.3239918 L30.3090054,18.058733 L35.3031471,18.058733 C38.2095504,18.058733 40.5741281,20.4233106 40.5741281,23.3297139 L40.5741281,28.3239918 Z" id="Fill-17" fill="#A179C5" mask="url(#mask-4)"></path>
                    <path d="M44.4876839,37.1916076 L30.9901362,37.1916076 L30.9901362,26.3703542 L40.6751499,26.3703542 C42.7807357,26.3703542 44.4876839,28.0774387 44.4876839,30.1830245 L44.4876839,37.1916076 Z" id="Fill-18" fill="#FFEBDE" mask="url(#mask-4)"></path>
                    <path d="M31.6714033,36.5104223 L43.8064169,36.5104223 L43.8064169,30.1830381 C43.8064169,28.4563351 42.4017847,27.0515668 40.6750817,27.0515668 L31.6714033,27.0515668 L31.6714033,36.5104223 Z M45.1688147,37.8728202 L30.3090054,37.8728202 L30.3090054,25.6891689 L40.6750817,25.6891689 C43.1528747,25.6891689 45.1688147,27.705109 45.1688147,30.1830381 L45.1688147,37.8728202 Z" id="Fill-19" fill="#A179C5" mask="url(#mask-4)"></path>
                    <path d="M42.0651362,37.1916076 C42.0651362,39.4383379 40.2438828,41.2595913 37.9971526,41.2595913 C35.7505586,41.2595913 33.9291689,39.4383379 33.9291689,37.1916076 C33.9291689,34.9448774 35.7505586,33.123624 37.9971526,33.123624 C40.2438828,33.123624 42.0651362,34.9448774 42.0651362,37.1916076" id="Fill-20" fill="#FFFFFF" mask="url(#mask-4)"></path>
                    <path d="M37.9972343,33.8048501 C36.1297956,33.8048501 34.6104496,35.3241962 34.6104496,37.1916349 C34.6104496,39.0590736 36.1297956,40.5784196 37.9972343,40.5784196 C39.864673,40.5784196 41.3838828,39.0590736 41.3838828,37.1916349 C41.3838828,35.3241962 39.864673,33.8048501 37.9972343,33.8048501 M37.9972343,41.9408174 C35.3784332,41.9408174 33.2480518,39.8102997 33.2480518,37.1916349 C33.2480518,34.57297 35.3784332,32.4424523 37.9972343,32.4424523 C40.6158992,32.4424523 42.7462807,34.57297 42.7462807,37.1916349 C42.7462807,39.8102997 40.6158992,41.9408174 37.9972343,41.9408174" id="Fill-21" fill="#A179C5" mask="url(#mask-4)"></path>
                </g>
            </g>
        </g>
    </g>
</svg>