<?xml version="1.0" encoding="UTF-8"?>
<svg width="14px" height="14px" viewBox="0 0 14 14" version="1.1" xmlns="http://www.w3.org/2000/svg" xmlns:xlink="http://www.w3.org/1999/xlink">
    <!-- Generator: Sketch 64 (93537) - https://sketch.com -->
    <title>Shape</title>
    <desc>Created with Sketch.</desc>
    <g id="Page-1" stroke="none" stroke-width="1" fill="none" fill-rule="evenodd">
        <g id="Edit" fill="#A774C8">
            <g id="Components-/-Icon-Card-/-Edit">
                <g id="Edit">
                    <path d="M6.56414046,4.1466706 C7.85454107,2.8542385 9.14801102,1.55898277 10.432844,0.266550661 C10.6355621,0.0606050358 10.8696516,-0.0251043722 11.1267252,0.00631287956 L11.1752277,0.0120316057 C11.352142,0.0349422523 11.5550029,0.0606050358 11.7462646,0.137843581 C12.6998605,0.523857595 13.3964898,1.21010473 13.8162733,2.17092221 C13.8847263,2.33108228 13.9190243,2.49681811 13.9503956,2.64271711 C13.9647429,2.69979715 13.9761993,2.75998674 13.9904039,2.81710252 C13.998898,2.8542385 14.0018246,2.89430532 13.998898,2.93437215 C13.9761993,3.17745375 13.8847263,3.37471406 13.71909,3.54059286 C11.4749864,5.78508564 9.23084705,8.0326165 6.98670776,10.282828 C6.85244271,10.4172896 6.69547894,10.5002111 6.50974919,10.5403137 C5.71036892,10.7060137 4.90806209,10.8776113 4.10864613,11.0464209 L3.60606229,11.1521101 C3.55755984,11.1607597 3.5090217,11.1664784 3.46051926,11.1664784 C3.2891725,11.1664784 3.12649837,11.1007131 3.00936442,10.9834434 C2.85796827,10.8319687 2.79800939,10.6088669 2.84376372,10.3858723 L2.94076862,9.92833847 C3.11504194,9.1019468 3.2891725,8.27555513 3.46901343,7.44930643 C3.50331133,7.29196998 3.59185774,7.13180991 3.708956,7.0117524 C4.20568671,6.50564514 4.70827056,6.0052566 5.20792784,5.50486806 L6.56414046,4.1466706 Z M11.0324684,0.695455121 C11.0124108,0.695455121 10.9867498,0.703961726 10.9325013,0.74978302 C9.64195793,2.04793385 8.34863075,3.34315384 7.0551608,4.63851679 L5.69894819,5.99671425 C5.1992909,6.49417194 4.70256019,6.99456048 4.20568671,7.49787986 C4.18002574,7.52650924 4.15714858,7.56643309 4.15143821,7.59227459 C3.97438108,8.41573541 3.80025052,9.24212708 3.62615565,10.0655879 L3.54610341,10.4402002 L3.96867071,10.3515242 C4.77101324,10.1828933 5.57039351,10.0140836 6.37273603,9.84541694 C6.42416504,9.83397949 6.45846294,9.81678757 6.49554465,9.77965159 C8.73968395,7.53222796 10.983966,5.28187348 13.2308891,3.03727348 C13.2708974,3.0001375 13.2908123,2.9657894 13.3022687,2.91424938 C13.2937389,2.8686068 13.2823181,2.82282125 13.2738239,2.77699995 C13.2480202,2.65415457 13.2223592,2.53688494 13.182351,2.44542106 C12.8369093,1.65616537 12.2658724,1.09573021 11.4893337,0.781200271 C11.3807296,0.735521946 11.2436807,0.718365768 11.0952111,0.701173848 L11.0467087,0.695455121 L11.0324684,0.695455121 Z M1.11070245,3.11740713 C0.885142873,3.11740713 0.699591573,3.30322998 0.699591573,3.52911967 L0.699591573,12.887815 C0.699591573,13.1137404 0.885142873,13.2995633 1.11070245,13.2995633 L10.4527946,13.2995633 C10.6783542,13.2995633 10.8639055,13.1137404 10.8639055,12.887815 L10.8639055,8.09838185 C10.8639055,7.90390942 11.0210477,7.74668019 11.2150932,7.74668019 C11.4093171,7.74668019 11.5662809,7.90390942 11.5662809,8.09838185 L11.5662809,12.887815 C11.5662809,13.4996115 11.0695502,14 10.4557212,14 L1.11070245,14 C0.499657281,14 0,13.5025423 0,12.887815 L0,3.52618882 C0,2.91424938 0.496873476,2.41386084 1.11070245,2.41386084 L6.09585452,2.41386084 C6.28989999,2.41386084 6.4470422,2.57123304 6.4470422,2.7655625 C6.4470422,2.96007067 6.28989999,3.11740713 6.09585452,3.11740713 L1.11070245,3.11740713 Z" id="Shape"></path>
                </g>
            </g>
        </g>
    </g>
</svg>