<?xml version="1.0" encoding="UTF-8"?>
<svg width="16px" height="16px" viewBox="0 0 16 16" version="1.1" xmlns="http://www.w3.org/2000/svg" xmlns:xlink="http://www.w3.org/1999/xlink">
    <title>Group 3 Copy</title>
    <g id="Page-1" stroke="none" stroke-width="1" fill="none" fill-rule="evenodd">
        <g id="PDP---if-Size-Copy-28" transform="translate(-1114.000000, -263.000000)" fill="#FFFFFF" fill-rule="nonzero">
            <g id="Group-21" transform="translate(415.000000, 253.000000)">
                <g id="Group-3-Copy-3" transform="translate(687.000000, 1.000000)">
                    <g id="Group-8" transform="translate(12.000000, 9.000000)">
                        <path d="M15.351875,8.17865035 C14.994299,8.17865035 14.6814474,8.46919958 14.6814474,8.84907797 L14.6814474,12.6256353 C14.6814474,13.7652546 13.7429046,14.7037575 12.6033252,14.7037575 L3.39666726,14.7037575 C2.25704804,14.7037575 1.31854514,13.7652147 1.31854514,12.6256353 L1.31838927,3.41897736 C1.31838927,2.27935814 2.25693208,1.34085524 3.39651139,1.34085524 L7.17306877,1.34085524 C7.5306448,1.34085524 7.84349639,1.05030601 7.84349639,0.670427622 C7.84349639,0.312851592 7.55294716,0 7.17306877,0 L3.39667101,0 C1.5196253,0 0,1.51946569 0,3.39667101 L0,12.603329 C0,14.4803747 1.51946569,16 3.39667101,16 L12.603329,16 C14.4803747,16 16,14.4805343 16,12.603329 L16,8.84907797 C16,8.49165756 15.7094508,8.17880996 15.3518787,8.17880996 L15.351875,8.17865035 Z" id="Path"></path>
                        <path d="M6.59214214,6.65910485 L5.8324093,9.40765459 C5.7430921,9.76523062 5.94417251,10.1228146 6.27929454,10.2344262 C6.32403095,10.2567162 6.39105775,10.2567162 6.45808455,10.2567162 C6.52511135,10.2567162 6.59213815,10.2567162 6.65916495,10.2344262 L9.40771469,9.47469336 C9.49703188,9.45240337 9.5865047,9.38537617 9.69826392,9.31819374 L15.3295207,3.73162943 C16.133986,2.92716417 16.133986,1.6087749 15.3295207,0.804309635 C14.9273679,0.402156813 14.3909779,0.178614432 13.8323215,0.200920786 C13.2736651,0.200920786 12.7597411,0.424447204 12.3798946,0.804309635 L6.79333028,6.39087395 C6.70385746,6.41331997 6.63683066,6.50279278 6.59209425,6.65913678 L6.59214214,6.65910485 Z M8.17880621,6.79315845 L13.2737529,1.6982118 C13.5865925,1.4301046 14.0559517,1.47468538 14.324027,1.7652386 C14.5698438,2.05578783 14.5698438,2.45793267 14.324027,2.74851382 L9.2290803,7.84346048 L8.17880621,6.79315845 Z M7.3966074,8.62563136 L7.55310702,8.06697493 L7.97772581,8.49159372 L7.3966074,8.62563136 Z" id="Shape"></path>
                    </g>
                </g>
            </g>
        </g>
    </g>
</svg>