<?xml version="1.0" encoding="UTF-8"?>
<svg width="14px" height="14px" viewBox="0 0 14 14" version="1.1" xmlns="http://www.w3.org/2000/svg" xmlns:xlink="http://www.w3.org/1999/xlink">
    <title>Search</title>
    <g id="Page-1" stroke="none" stroke-width="1" fill="none" fill-rule="evenodd">
        <g id="LL21---Search---initial-with-Recently-Search" transform="translate(-62.000000, -23.000000)" fill="#25182E" stroke="#25182E" stroke-width="0.5">
            <g id="Search-Bar" transform="translate(51.000000, 12.000000)">
                <g id="Search" transform="translate(11.000000, 11.000000)">
                    <path d="M10.1389346,9.97831442 C12.1326283,7.98462065 12.1326283,4.75225064 10.1389346,2.75857875 C8.14524081,0.764906865 4.9128708,0.764906865 2.91919891,2.75857875 C0.92552702,4.75225064 0.92552702,7.98462065 2.91919891,9.97831442 C4.9128708,11.9720082 8.14524081,11.9720082 10.1389346,9.97831442 Z M10.6546242,10.4940041 C12.9331106,8.21551777 12.9331106,4.52136811 10.6546242,2.24288179 C8.37613792,-0.0355972465 4.68198827,-0.0355972465 2.40350194,2.24288179 C0.125022909,4.52136811 0.125022909,8.21551777 2.40350194,10.4940041 C4.68198827,12.7724904 8.37613792,12.7724904 10.6546242,10.4940041 Z" id="Shape"></path>
                    <path d="M10.3967429,10.2361228 C10.5391757,10.093763 10.7700728,10.093763 10.9124326,10.2361228 L13.4909539,12.8146441 C13.6333137,12.9570039 13.6333137,13.187901 13.4909539,13.3303338 C13.3485212,13.4726936 13.1176241,13.4726936 12.9752642,13.3303338 L10.3967429,10.7518125 C10.2543831,10.6094527 10.2543831,10.3785555 10.3967429,10.2361228 Z" id="Path"></path>
                </g>
            </g>
        </g>
    </g>
</svg>