<?xml version="1.0" encoding="UTF-8"?>
<svg width="20px" height="20px" viewBox="0 0 20 20" version="1.1" xmlns="http://www.w3.org/2000/svg" xmlns:xlink="http://www.w3.org/1999/xlink">
    <title>icon - home</title>
    <defs>
        <polygon id="path-1" points="0.140390218 0.161314092 8.76731041 0.161314092 8.76731041 15.652577 0.140390218 15.652577"></polygon>
        <polygon id="path-3" points="1.54992483e-06 0.00828668281 17.5368425 0.00828668281 17.5368425 15.8337562 1.54992483e-06 15.8337562"></polygon>
    </defs>
    <g id="Page-1" stroke="none" stroke-width="1" fill="none" fill-rule="evenodd">
        <g id="LL21---Dropdown-3dots" transform="translate(-176.000000, -74.000000)">
            <g id="dropdown" transform="translate(160.000000, 56.000000)">
                <g id="icon---home" transform="translate(16.000000, 18.000000)">
                    <rect id="Rectangle" x="0" y="0" width="20" height="20"></rect>
                    <g id="Group-8" transform="translate(1.000000, 2.000000)">
                        <g id="Group-3" transform="translate(9.207425, 0.230186)">
                            <mask id="mask-2" fill="white">
                                <use xlink:href="#path-1"></use>
                            </mask>
                            <g id="Clip-2"></g>
                            <path d="M0.140390218,15.652577 L6.44218231,15.652577 L6.44218231,9.02207987 L6.44218231,7.17138738 L7.87094454,8.45835525 C8.09146237,8.65677527 8.43121637,8.63905098 8.6294062,8.41853314 C8.82782621,8.19824549 8.81010192,7.85895186 8.58958408,7.66030166 L0.263309346,0.161314092" id="Fill-1" fill="#D7CDF5" mask="url(#mask-2)"></path>
                        </g>
                        <path d="M9.47075771,0.391545763 L0.893120258,8.32098047 C0.675364649,8.5223929 0.662013882,8.86214689 0.86296594,9.07967232 C0.969081517,9.19430476 1.11317772,9.25231154 1.2577343,9.25231154 C1.38824956,9.25231154 1.518995,9.20512349 1.62211816,9.10959645 L3.30155254,7.55722454 L3.30155254,9.04422373 L3.30155254,15.8828087 L9.34783858,15.8828087" id="Fill-4" fill="#F3F0FC"></path>
                        <path d="M11.6080774,15.8827627 L7.05500552,15.8827627 L7.05500552,10.4137822 C7.05500552,9.1562781 8.07380713,8.1372463 9.33131125,8.1372463 C10.5885852,8.1372463 11.6080774,9.1562781 11.6080774,10.4137822 L11.6080774,15.8827627 Z" id="Fill-6" fill="#F3F0FC"></path>
                        <path d="M11.2724667,15.8326282 L10.9895686,15.8326282 L10.9895686,10.2515474 C10.9895686,9.68160775 10.7674394,9.14550541 10.363924,8.74175981 C9.96363119,8.33801421 9.42775903,8.11611525 8.85436662,8.11611525 C7.6769671,8.11611525 6.7189345,9.07414786 6.7189345,10.2515474 L6.7189345,15.8326282 L6.43603635,15.8326282 L6.43603635,10.2515474 C6.43603635,8.918082 7.52090124,7.83321711 8.85436662,7.83321711 C9.50372029,7.83321711 10.1111802,8.08504019 10.5644157,8.54218886 C11.0208738,8.99910734 11.2724667,9.60610686 11.2724667,10.2515474 L11.2724667,15.8326282 Z" id="Fill-8" fill="#8B7FBF"></path>
                        <g id="Group-12">
                            <mask id="mask-4" fill="white">
                                <use xlink:href="#path-3"></use>
                            </mask>
                            <g id="Clip-11"></g>
                            <path d="M15.2117025,15.8337562 L11.2122271,15.8337562 L11.2122271,15.550858 L14.9288044,15.550858 L14.9288044,6.89196504 L16.5946578,8.39323574 C16.6724605,8.46344236 16.7707498,8.50004187 16.8793974,8.49336649 C16.9857432,8.48784203 17.0828815,8.44111435 17.1533183,8.36216068 C17.2985655,8.20080055 17.2854449,7.94966802 17.1243149,7.80119829 L8.89448797,0.391292559 L0.41145682,8.23187561 C0.33342389,8.30484446 0.287847135,8.40359409 0.283243422,8.5092493 C0.279100081,8.61421395 0.315929782,8.71388433 0.387287328,8.79007577 C0.530002421,8.94729256 0.794255529,8.95603961 0.946178047,8.81493582 L2.86408475,7.04204607 L2.86408475,15.550858 L6.65869492,15.550858 L6.65869492,15.8337562 L2.58141679,15.8337562 L2.58141679,7.6888677 L1.13861324,9.02233308 C1.01477337,9.13765608 0.851341566,9.20118731 0.678932526,9.20118731 C0.485116223,9.20118731 0.307643099,9.12338457 0.17896933,8.9818204 C0.0569709443,8.85130515 -0.00679047619,8.67889611 0.000575464084,8.49750983 C0.00817158999,8.31704429 0.0857441485,8.14900878 0.218791445,8.02447835 L8.89172575,0.00826366425 L17.3146785,7.59195955 C17.590671,7.84608449 17.6123085,8.27561088 17.3639382,8.5509129 C17.2437813,8.68603186 17.0771269,8.76636665 16.8948199,8.77603445 C16.7141241,8.79007577 16.5394132,8.72470305 16.405215,8.60339522 L15.2117025,7.52819813 L15.2117025,15.8337562 Z" id="Fill-10" fill="#8B7FBF" mask="url(#mask-4)"></path>
                        </g>
                    </g>
                </g>
            </g>
        </g>
    </g>
</svg>