<?xml version="1.0" encoding="UTF-8"?>
<svg width="54px" height="53px" viewBox="0 0 54 53" version="1.1" xmlns="http://www.w3.org/2000/svg" xmlns:xlink="http://www.w3.org/1999/xlink">
    <!-- Generator: Sketch 64 (93537) - https://sketch.com -->
    <title>Group 3</title>
    <desc>Created with Sketch.</desc>
    <defs>
        <polygon id="path-1" points="1.44414169e-05 0.00852043597 52.8470654 0.00852043597 52.8470654 52.8555858 1.44414169e-05 52.8555858"></polygon>
    </defs>
    <g id="Page-1" stroke="none" stroke-width="1" fill="none" fill-rule="evenodd">
        <g id="Group-10" transform="translate(1.000000, 1.000000)">
            <g id="Group-36" transform="translate(-0.000000, -1.000000)">
                <g id="Group-3" transform="translate(0.000000, 0.135894)">
                    <mask id="mask-2" fill="white">
                        <use xlink:href="#path-1"></use>
                    </mask>
                    <g id="Clip-2"></g>
                </g>
                <path d="M15.2237807,9.72590436 L13.1102793,16.4823213 C14.8851294,17.0375937 15.8739332,18.9265311 15.3186608,20.7013812 C14.7635327,22.4763757 12.874451,23.4651796 11.0996008,22.9099071 L8.98609946,29.666324 L38.9572384,39.0418362 L45.1949196,19.1014166 L15.2237807,9.72590436 Z" id="Fill-4" fill="#D4B1EF"></path>
                <path d="M9.89079646,29.1927033 L38.4836466,38.1371392 L44.2901071,19.5750084 L15.6974014,10.6305725 L13.9959136,16.0696433 C15.7183414,16.9668886 16.6074995,19.0000956 16.0078918,20.9170493 C15.4081398,22.834003 13.5184804,23.9981256 11.5921398,23.7536324 L9.89079646,29.1927033 Z M38.9571807,39.7638204 C38.8848292,39.7638204 38.8121888,39.7529894 38.7415703,39.730894 L8.77043134,30.3553817 C8.3899,30.2363845 8.1779,29.8313027 8.29704169,29.4507714 L10.4105431,22.6943545 C10.5295403,22.3138232 10.9347665,22.1019676 11.3151534,22.2208204 C12.7068728,22.6566624 14.1939054,21.8779812 14.629603,20.4858286 C15.0650117,19.0938204 14.2867638,17.6069322 12.8946112,17.1715234 C12.7117828,17.1143354 12.5594259,16.9868177 12.4704668,16.8172755 C12.381652,16.6475888 12.3638891,16.449597 12.4210771,16.2667687 L14.5347229,9.51035177 C14.6537202,9.12982044 15.0588019,8.91796485 15.4394777,9.03681771 L45.4104722,18.41233 C45.7910035,18.5313272 46.003148,18.936409 45.8838619,19.3169403 L39.6464695,39.2573599 C39.5891371,39.4400439 39.4617638,39.5926896 39.2920771,39.6815044 C39.1878101,39.7360929 39.072712,39.7638204 38.9571807,39.7638204 L38.9571807,39.7638204 Z" id="Fill-6" fill="#A179C5"></path>
                <path d="M29.6990916,21.0313965 C29.5286828,21.0313965 29.3597183,21.0725545 29.204473,21.1538597 C28.951315,21.2864319 28.7650207,21.5094074 28.6798163,21.7820613 C28.594612,22.0547153 28.6204621,22.3441213 28.7528899,22.5971349 C28.8853177,22.8502929 29.1084376,23.0365872 29.3810916,23.121936 C29.6536011,23.2069959 29.9430071,23.1811458 30.1961651,23.048718 C30.4493232,22.9162902 30.6356174,22.6931703 30.7208218,22.4205163 C30.8968627,21.8577343 30.5823286,21.2566826 30.019691,21.0806417 C29.9142687,21.0477153 29.8063913,21.0313965 29.6990916,21.0313965 M29.7032796,24.616045 C29.4511324,24.616045 29.1975411,24.5776308 28.9500153,24.5002248 C28.3092496,24.2996335 27.7848817,23.8617698 27.4735248,23.2669278 C27.1621678,22.6720858 27.1010807,21.9916063 27.3015275,21.3508406 C27.50183,20.7100749 27.9398381,20.1858515 28.5346801,19.8744946 C29.1296665,19.5631376 29.8100016,19.5020504 30.4506229,19.7023529 C31.7733123,20.1160995 32.5128572,21.5289033 32.099255,22.8515926 C31.8988082,23.4925027 31.4608,24.0167262 30.865958,24.3282275 C30.5011678,24.5191431 30.1038845,24.616045 29.7032796,24.616045" id="Fill-8" fill="#FFFFFF"></path>
                <polygon id="Fill-10" fill="#FFFFFF" points="27.0364553 29.5628223 26.1857114 28.3958114 35.5171774 21.5933264 36.3677768 22.7603373"></polygon>
                <path d="M32.9997351,28.0310357 C32.5443973,28.0310357 32.1212638,28.3243409 31.9782937,28.7812673 C31.8023973,29.3439049 32.1170757,29.9449567 32.6797134,30.121142 C33.2422065,30.2971828 33.8434027,29.9822155 34.019588,29.4197223 C34.1954845,28.8570847 33.8809504,28.256033 33.3181684,28.0798477 C33.2124572,28.0467768 33.1051575,28.0310357 32.9997351,28.0310357 M32.9972801,31.6142401 C32.7494654,31.6142401 32.4973183,31.57727 32.2486371,31.4994308 C30.9259477,31.0855398 30.1864027,29.6728804 30.6000049,28.3500466 C31.0137515,27.0273572 32.4262665,26.2876678 33.7492447,26.7015589 C35.0720785,27.1154499 35.8116234,28.5281093 35.3978768,29.8509431 C35.3978768,29.8509431 35.3977324,29.8509431 35.3977324,29.8509431 C35.0618251,30.9248068 34.0673891,31.6142401 32.9972801,31.6142401" id="Fill-12" fill="#FFFFFF"></path>
                <path d="M23.3489984,12.2676226 L15.223824,9.72593324 L13.1103226,16.4823501 C14.8851728,17.0376226 15.8739766,18.9265599 15.3187041,20.7014101 C14.7634316,22.4764046 12.8744943,23.465064 11.0996441,22.909936 L8.98614278,29.6662084 L17.1113172,32.2080422 L23.3489984,12.2676226 Z" id="Fill-14" fill="#FFEBDE"></path>
                <path d="M9.89079646,29.1927033 L16.6378264,31.3033163 L22.4442869,12.7411856 L15.6974014,10.6305725 L13.996058,16.0690657 C14.733148,16.45133 15.3349218,17.048627 15.7280172,17.7995807 C16.2346221,18.7674444 16.333979,19.8745234 16.0078918,20.9170493 C15.4082842,22.834003 13.5180471,23.9979812 11.5921398,23.7536324 L9.89079646,29.1927033 Z M17.5848946,33.1126815 L8.08143134,30.1399158 L10.626009,22.0052101 L11.315009,22.2208204 C12.7064395,22.6559403 14.1941943,21.8779812 14.629603,20.4858286 C14.8404477,19.8115589 14.7761834,19.095409 14.448652,18.4693736 C14.1209763,17.8433381 13.5690253,17.3825125 12.8946112,17.1715234 L12.2054668,16.9559131 L14.7501888,8.82120736 L24.253652,11.793973 L17.5848946,33.1126815 Z" id="Fill-16" fill="#A179C5"></path>
                <path d="M7.65216022,22.3723398 L7.65216022,29.4516668 C9.51192589,29.4516668 11.0194654,30.9592063 11.0194654,32.8189719 C11.0194654,34.6787376 9.51192589,36.1862771 7.65216022,36.1862771 L7.65216022,43.2656041 L39.0554545,43.2656041 L39.0554545,22.3723398 L7.65216022,22.3723398 Z" id="Fill-18" fill="#D4B1EF"></path>
                <path d="M8.37415886,42.5435332 L38.3333114,42.5435332 L38.3333114,23.0944106 L8.37415886,23.0944106 L8.37415886,28.793427 C10.2857692,29.1353997 11.741464,30.8104597 11.741464,32.8189719 C11.741464,34.8274842 10.2857692,36.5025441 8.37415886,36.8446613 L8.37415886,42.5435332 Z M39.0553823,43.9876749 L7.65208801,43.9876749 C7.25321608,43.9876749 6.93001717,43.6643316 6.93001717,43.2656041 L6.93001717,36.1862771 C6.93001717,35.7875496 7.25321608,35.4642063 7.65208801,35.4642063 C9.11081553,35.4642063 10.2973223,34.277555 10.2973223,32.8189719 C10.2973223,31.3603888 9.11081553,30.1737376 7.65208801,30.1737376 C7.25321608,30.1737376 6.93001717,29.8503943 6.93001717,29.4516668 L6.93001717,22.3723398 C6.93001717,21.9736123 7.25321608,21.6502689 7.65208801,21.6502689 L39.0553823,21.6502689 C39.4542542,21.6502689 39.7774531,21.9736123 39.7774531,22.3723398 L39.7774531,43.2656041 C39.7774531,43.6643316 39.4542542,43.9876749 39.0553823,43.9876749 L39.0553823,43.9876749 Z" id="Fill-20" fill="#A179C5"></path>
                <path d="M25.163158,28.791954 C24.573515,28.791954 24.0939155,29.2716978 24.0939155,29.8613409 C24.0939155,30.4509839 24.573515,30.9307278 25.163158,30.9307278 C25.7528011,30.9307278 26.232545,30.4509839 26.232545,29.8613409 C26.232545,29.2716978 25.7528011,28.791954 25.163158,28.791954 M25.163158,32.3748695 C23.7772153,32.3748695 22.6497738,31.2472837 22.6497738,29.8613409 C22.6497738,28.4753981 23.7772153,27.3478123 25.163158,27.3478123 C26.5492452,27.3478123 27.6766866,28.4753981 27.6766866,29.8613409 C27.6766866,31.2472837 26.5492452,32.3748695 25.163158,32.3748695" id="Fill-22" fill="#FFFFFF"></path>
                <polygon id="Fill-24" fill="#FFFFFF" points="24.8485229 37.7777935 23.688155 36.9180959 30.5629916 27.6400632 31.7233594 28.4997608"></polygon>
                <path d="M30.4009877,34.48723 C29.8113447,34.48723 29.3317452,34.9669738 29.3317452,35.5564725 C29.3317452,36.1461155 29.8113447,36.6258594 30.4009877,36.6258594 C30.9906308,36.6258594 31.4702302,36.1461155 31.4702302,35.5564725 C31.4702302,34.9669738 30.9906308,34.48723 30.4009877,34.48723 M30.4009877,38.0700011 C29.015045,38.0700011 27.8876035,36.9424153 27.8876035,35.5564725 C27.8876035,34.1706741 29.015045,33.0430883 30.4009877,33.0430883 C31.7869305,33.0430883 32.9143719,34.1706741 32.9143719,35.5564725 C32.9143719,36.9424153 31.7869305,38.0700011 30.4009877,38.0700011" id="Fill-26" fill="#FFFFFF"></path>
                <path d="M16.1656499,22.3723542 L7.65214578,22.3723542 L7.65214578,29.4516812 C9.51191144,29.4516812 11.019451,30.9592207 11.019451,32.8189864 C11.019451,34.678752 9.51191144,36.1862916 7.65214578,36.1862916 L7.65214578,43.2656185 L16.1656499,43.2656185 L16.1656499,22.3723542 Z" id="Fill-28" fill="#FFEBDE"></path>
                <path d="M8.37430327,42.543461 L15.4435213,42.543461 L15.4435213,23.0944828 L8.37430327,23.0944828 L8.37430327,28.7933548 C10.2859136,29.1354719 11.741464,30.8103875 11.741464,32.8190441 C11.741464,34.8275564 10.2859136,36.5024719 8.37430327,36.8445891 L8.37430327,42.543461 Z M16.8876629,43.9876027 L6.93016158,43.9876027 L6.93016158,35.4642785 L7.65223243,35.4642785 C9.11081553,35.4642785 10.2973223,34.2776272 10.2973223,32.8190441 C10.2973223,31.3603166 9.11081553,30.1736654 7.65223243,30.1736654 L6.93016158,30.1736654 L6.93016158,21.6503411 L16.8876629,21.6503411 L16.8876629,43.9876027 Z" id="Fill-30" fill="#A179C5"></path>
                <path d="M48.8392256,37.7910507 C44.7390185,38.4007673 44.2446888,38.8949526 43.6351166,42.9951597 C43.0254,38.8949526 42.5310703,38.4007673 38.4308632,37.7910507 C42.5310703,37.1813341 43.0254,36.6871488 43.6351166,32.5869417 C44.2446888,36.6871488 44.7390185,37.1813341 48.8392256,37.7910507" id="Fill-32" fill="#FFFFFF"></path>
                <path d="M41.6122785,37.7910507 C42.6215891,38.2046529 43.2214856,38.8044049 43.6350877,39.8138599 C44.0486899,38.8044049 44.6482975,38.2046529 45.657897,37.7910507 C44.6482975,37.3774485 44.0486899,36.7776965 43.6350877,35.7682414 C43.2214856,36.7776965 42.6215891,37.3774485 41.6122785,37.7910507 M43.6350877,43.7173749 C43.2772294,43.7173749 42.9735264,43.4554076 42.9209597,43.1014485 C42.359333,39.3245847 42.1015537,39.0668054 38.3246899,38.5053232 C37.9708752,38.452612 37.7089079,38.148909 37.7089079,37.7910507 C37.7089079,37.4331924 37.9708752,37.1294894 38.3246899,37.0767782 C42.1015537,36.5152959 42.359333,36.2575166 42.9209597,32.4806529 C42.9735264,32.1266937 43.2772294,31.8647264 43.6350877,31.8647264 C43.9928016,31.8647264 44.296649,32.1266937 44.3492158,32.4806529 C44.9108425,36.2575166 45.1686218,36.5152959 48.9453411,37.0767782 C49.2993003,37.1294894 49.5612676,37.4331924 49.5612676,37.7910507 C49.5612676,38.148909 49.2993003,38.452612 48.9453411,38.5053232 C45.1686218,39.0668054 44.9108425,39.3245847 44.3492158,43.1014485 C44.296649,43.4554076 43.9928016,43.7173749 43.6350877,43.7173749" id="Fill-34" fill="#A179C5"></path>
            </g>
        </g>
    </g>
</svg>