<?xml version="1.0" encoding="UTF-8"?>
<svg width="20px" height="20px" viewBox="0 0 20 20" version="1.1" xmlns="http://www.w3.org/2000/svg" xmlns:xlink="http://www.w3.org/1999/xlink">
    <title>icon - shop by brands</title>
    <g id="Page-1" stroke="none" stroke-width="1" fill="none" fill-rule="evenodd">
        <g id="LL21---Dropdown-3dots" transform="translate(-176.000000, -150.000000)">
            <g id="dropdown" transform="translate(160.000000, 56.000000)">
                <g id="icon---shop-by-brands" transform="translate(16.000000, 94.000000)">
                    <rect id="Rectangle" x="0" y="0" width="20" height="20"></rect>
                    <g id="Group-13" transform="translate(0.000000, 5.000000)">
                        <polygon id="Fill-1" fill="#D7CDF5" points="0.573118644 0.573016949 0.573118644 10.312678 8.11498305 10.312678 9.80989831 0.573016949"></polygon>
                        <polygon id="Fill-2" fill="#D7CDF5" points="9.32205085 0.677864407 7.62713559 10.4175254 16.8417119 10.4175254 19.9944237 5.54769492 16.8417119 0.677864407"></polygon>
                        <path d="M16.4692094,9.76996262e-15 L3.99680289e-13,9.76996262e-15 L3.99680289e-13,10.0261017 L16.4692109,10.0261017 L19.7146989,5.01296475 L16.4692094,9.76996262e-15 Z M16.3132373,0.286508475 L19.3732373,5.01294915 L16.3132373,9.73938983 L0.286457627,9.73938983 L0.286457627,0.286508475 L16.3132373,0.286508475 Z" id="Stroke-3" fill="#8B7FBF" fill-rule="nonzero"></path>
                        <path d="M9.20382983,1.25045345 C9.27573122,1.26339687 9.32538045,1.32788204 9.32156463,1.39899134 L9.31947875,1.41688068 L7.93405502,9.11298237 C7.92003298,9.19087555 7.84552097,9.24265334 7.7676278,9.22863129 C7.6957264,9.21568787 7.64607718,9.1512027 7.649893,9.0800934 L7.65197888,9.06220407 L9.0374026,1.36610237 C9.05034603,1.29420098 9.1148312,1.24455175 9.1859405,1.24836758 L9.20382983,1.25045345 Z" id="Stroke-5" fill="#8B7FBF" fill-rule="nonzero"></path>
                        <path d="M3.20688635,7.20192966 C3.24411144,7.20192966 3.2735813,7.19262339 3.29529593,7.17401085 C3.31701056,7.15539831 3.33252101,7.13368367 3.34182728,7.10886695 L3.34182728,7.10886695 L3.56983093,6.60632831 L4.96111847,6.60632831 L5.18912211,7.10886695 C5.20463257,7.14298994 5.22246959,7.16703114 5.24263317,7.18099055 C5.26279676,7.19494996 5.28994005,7.20192966 5.32406305,7.20192966 L5.32406305,7.20192966 L5.72888584,7.20192966 C5.76300884,7.20192966 5.78860108,7.1895213 5.80566258,7.16470458 C5.82272408,7.13988785 5.8234996,7.11196904 5.80798915,7.08094814 L5.80798915,7.08094814 L4.37482339,3.94938788 C4.36861921,3.93387743 4.36008846,3.92146907 4.34923114,3.9121628 C4.33837382,3.90285653 4.3205368,3.89820339 4.29572008,3.89820339 L4.29572008,3.89820339 L4.24918872,3.89820339 C4.21196364,3.89820339 4.18559587,3.91526489 4.17008542,3.94938788 L4.17008542,3.94938788 L2.72296025,7.08094814 C2.7074498,7.11196904 2.70822532,7.13988785 2.72528682,7.16470458 C2.74234832,7.1895213 2.76794056,7.20192966 2.80206356,7.20192966 L2.80206356,7.20192966 L3.20688635,7.20192966 Z M4.73311483,6.08983025 L3.79783457,6.08983025 L4.25384186,5.06614042 L4.26780127,5.06614042 L4.73311483,6.08983025 Z" id="A" fill="#8B7FBF" fill-rule="nonzero"></path>
                        <path d="M13.4312476,7.15539831 C13.4560644,7.15539831 13.4770035,7.14686756 13.494065,7.12980606 C13.5111265,7.11274456 13.5196572,7.09180545 13.5196572,7.06698873 L13.5196572,7.06698873 L13.5196572,6.68077847 C13.5196572,6.65596175 13.5111265,6.63502264 13.494065,6.61796114 C13.4770035,6.60089965 13.4560644,6.5923689 13.4312476,6.5923689 L13.4312476,6.5923689 L12.2446981,6.5923689 L12.2446981,6.58306263 L13.5708417,4.1215539 C13.5925563,4.08432881 13.6049647,4.05641 13.6080668,4.03779746 C13.6111689,4.01918492 13.6127199,4.00212342 13.6127199,3.98661297 C13.6127199,3.96179624 13.6041892,3.94085713 13.5871277,3.92379564 C13.5700662,3.90673414 13.5491271,3.89820339 13.5243103,3.89820339 L13.5243103,3.89820339 L11.5792997,3.89820339 C11.5544829,3.89820339 11.5335438,3.90673414 11.5164823,3.92379564 C11.4994208,3.94085713 11.4908901,3.96179624 11.4908901,3.98661297 L11.4908901,3.98661297 L11.4908901,4.37282322 C11.4908901,4.39763994 11.4994208,4.41857905 11.5164823,4.43564055 C11.5335438,4.45270205 11.5544829,4.4612328 11.5792997,4.4612328 L11.5792997,4.4612328 L12.7425836,4.4612328 L12.7425836,4.47984534 L11.3885211,6.92274153 C11.3730106,6.95376243 11.3637044,6.97935468 11.3606023,6.99951826 C11.3575002,7.01968185 11.3559492,7.04217201 11.3559492,7.06698873 C11.3559492,7.09180545 11.3644799,7.11274456 11.3815414,7.12980606 C11.3986029,7.14686756 11.419542,7.15539831 11.4443587,7.15539831 L11.4443587,7.15539831 L13.4312476,7.15539831 Z" id="Z" fill="#8B7FBF" fill-rule="nonzero"></path>
                        <path d="M17.1505085,4.71569492 C17.1505085,4.99027119 16.9281356,5.21281356 16.6533898,5.21281356 C16.3789831,5.21281356 16.1564407,4.99027119 16.1564407,4.71569492 C16.1564407,4.44111864 16.3789831,4.21857627 16.6533898,4.21857627 C16.9281356,4.21857627 17.1505085,4.44111864 17.1505085,4.71569492" id="Fill-6" fill="#FFFFFF"></path>
                    </g>
                </g>
            </g>
        </g>
    </g>
</svg>