<svg width="20" height="20" viewBox="0 0 20 20" fill="none" xmlns="http://www.w3.org/2000/svg">
<path d="M6.76664 7.7414L9.99997 10.9747L13.2333 7.7414C13.3105 7.66425 13.402 7.60305 13.5028 7.56129C13.6037 7.51954 13.7117 7.49805 13.8208 7.49805C13.9299 7.49805 14.038 7.51954 14.1388 7.56129C14.2396 7.60305 14.3312 7.66425 14.4083 7.7414C14.4855 7.81855 14.5467 7.91014 14.5884 8.01094C14.6302 8.11175 14.6517 8.21979 14.6517 8.3289C14.6517 8.43801 14.6302 8.54605 14.5884 8.64685C14.5467 8.74765 14.4855 8.83925 14.4083 8.9164L10.5833 12.7414C10.5062 12.8187 10.4146 12.8799 10.3138 12.9218C10.213 12.9636 10.1049 12.9851 9.9958 12.9851C9.88666 12.9851 9.77859 12.9636 9.67778 12.9218C9.57697 12.8799 9.4854 12.8187 9.4083 12.7414L5.5833 8.9164C5.50605 8.8393 5.44476 8.74773 5.40294 8.64692C5.36112 8.54611 5.3396 8.43804 5.3396 8.3289C5.3396 8.21976 5.36112 8.11169 5.40294 8.01088C5.44476 7.91007 5.50605 7.81849 5.5833 7.7414C5.9083 7.42473 6.44164 7.4164 6.76664 7.7414Z" fill="#78707E"/>
</svg>
