<?xml version="1.0" encoding="UTF-8"?>
<svg width="18px" height="17px" viewBox="0 0 18 17" version="1.1" xmlns="http://www.w3.org/2000/svg" xmlns:xlink="http://www.w3.org/1999/xlink">
    <!-- Generator: Sketch 64 (93537) - https://sketch.com -->
    <title>Group 11</title>
    <desc>Created with Sketch.</desc>
    <g id="Page-1" stroke="none" stroke-width="1" fill="none" fill-rule="evenodd">
        <g id="Group-11" fill="#A179C5">
            <polygon id="Fill-1" points="0.494186047 6.75008721 6.65115116 6.75008721 6.65115116 0.593122093 0.494186047 0.593122093"></polygon>
            <g id="Group-10" transform="translate(0.000000, 0.005930)">
                <path d="M0.988372093,6.24997093 L6.15696512,6.24997093 L6.15696512,1.08137791 L0.988372093,1.08137791 L0.988372093,6.24997093 Z M6.65115116,7.23834302 L0.494186047,7.23834302 C0.221296512,7.23834302 0,7.01704651 0,6.74415698 L0,0.587093023 C0,0.314203488 0.221296512,0.0929069767 0.494186047,0.0929069767 L6.65115116,0.0929069767 C6.92413953,0.0929069767 7.14533721,0.314203488 7.14533721,0.587093023 L7.14533721,6.74415698 C7.14533721,7.01704651 6.92413953,7.23834302 6.65115116,7.23834302 L6.65115116,7.23834302 Z" id="Fill-2"></path>
                <polygon id="Fill-4" points="10.4576686 6.74415698 16.6146337 6.74415698 16.6146337 0.58719186 10.4576686 0.58719186"></polygon>
                <path d="M10.9518547,6.24997093 L16.1204477,6.24997093 L16.1204477,1.08137791 L10.9518547,1.08137791 L10.9518547,6.24997093 Z M16.6146337,7.23834302 L10.4576686,7.23834302 C10.1846802,7.23834302 9.96348256,7.01704651 9.96348256,6.74415698 L9.96348256,0.587093023 C9.96348256,0.314203488 10.1846802,0.0929069767 10.4576686,0.0929069767 L16.6146337,0.0929069767 C16.8875233,0.0929069767 17.1088198,0.314203488 17.1088198,0.587093023 L17.1088198,6.74415698 C17.1088198,7.01704651 16.8875233,7.23834302 16.6146337,7.23834302 L16.6146337,7.23834302 Z" id="Fill-5"></path>
                <polygon id="Fill-6" points="0.494186047 16.4069767 6.65115116 16.4069767 6.65115116 10.2500116 0.494186047 10.2500116"></polygon>
                <path d="M0.988372093,15.9127907 L6.15696512,15.9127907 L6.15696512,10.7441977 L0.988372093,10.7441977 L0.988372093,15.9127907 Z M6.65115116,16.9011628 L0.494186047,16.9011628 C0.221296512,16.9011628 0,16.6798663 0,16.4069767 L0,10.2500116 C0,9.97702326 0.221296512,9.75582558 0.494186047,9.75582558 L6.65115116,9.75582558 C6.92413953,9.75582558 7.14533721,9.97702326 7.14533721,10.2500116 L7.14533721,16.4069767 C7.14533721,16.6798663 6.92413953,16.9011628 6.65115116,16.9011628 L6.65115116,16.9011628 Z" id="Fill-7"></path>
                <path d="M13.4494808,16.3543756 C13.309725,16.2696721 10.027539,14.253393 10.027539,12.118114 C10.027539,11.0880326 10.8655797,10.2499919 11.895661,10.2499919 C12.5885099,10.2499919 13.2142483,10.6349628 13.5360622,11.2243291 C13.8580738,10.6349628 14.4837134,10.2499919 15.1765622,10.2499919 C16.2066436,10.2499919 17.0446843,11.0880326 17.0446843,12.118114 C17.0446843,14.253393 13.7624983,16.2696721 13.6227424,16.3543756 L13.5360622,16.406957 L13.4494808,16.3543756 Z" id="Fill-8"></path>
                <path d="M11.8956907,10.7441581 C11.1381035,10.7441581 10.5217547,11.360507 10.5217547,12.1180942 C10.5217547,13.0482512 11.33815,14.0049953 12.0231907,14.6437802 C12.6275802,15.2074488 13.2456093,15.6342279 13.5360919,15.8240942 C13.8268709,15.6340302 14.4449988,15.2071523 15.0490919,14.6437802 C15.7340337,14.0049953 16.5505279,13.0482512 16.5505279,12.1180942 C16.5505279,11.360507 15.9341791,10.7441581 15.176493,10.7441581 C14.673807,10.7441581 14.2114465,11.0189256 13.9697895,11.4612221 C13.8831093,11.6198558 13.7168651,11.7184953 13.5360919,11.7184953 C13.3554174,11.7184953 13.1889756,11.619757 13.1023942,11.4612221 C12.860836,11.0189256 12.3984756,10.7441581 11.8956907,10.7441581 M13.5360919,16.9011233 C13.4472372,16.9011233 13.3583826,16.8772047 13.2796093,16.8293674 L13.1932256,16.7769837 C12.8186326,16.549757 9.53338256,14.4892977 9.53338256,12.1180942 C9.53338256,10.8155186 10.5931151,9.75578605 11.8956907,9.75578605 C12.5168826,9.75578605 13.1019988,9.99941977 13.5360919,10.4184895 C13.9702837,9.99941977 14.5554,9.75578605 15.176493,9.75578605 C16.4791674,9.75578605 17.5389,10.8155186 17.5389,12.1180942 C17.5389,14.488507 14.25365,16.5496581 13.879057,16.7768849 L13.7924756,16.8294663 C13.7137023,16.8773035 13.6249465,16.9011233 13.5360919,16.9011233" id="Fill-9"></path>
            </g>
        </g>
    </g>
</svg>