<?xml version="1.0" encoding="UTF-8"?>
<svg width="50px" height="50px" viewBox="0 0 50 50" version="1.1" xmlns="http://www.w3.org/2000/svg" xmlns:xlink="http://www.w3.org/1999/xlink">
    <!-- Generator: Sketch 64 (93537) - https://sketch.com -->
    <title>Group 36</title>
    <desc>Created with Sketch.</desc>
    <defs>
        <polygon id="path-1" points="1.36239782e-05 0.00803814714 49.8557221 0.00803814714 49.8557221 49.8637602 1.36239782e-05 49.8637602"></polygon>
        <polygon id="path-3" points="0 49.9919619 49.8557221 49.9919619 49.8557221 0.136239782 0 0.136239782"></polygon>
    </defs>
    <g id="Page-1" stroke="none" stroke-width="1" fill="none" fill-rule="evenodd">
        <g id="Group-2-Copy">
            <g id="Group-36">
                <g id="Group-3" transform="translate(0.000000, 0.128202)">
                    <mask id="mask-2" fill="white">
                        <use xlink:href="#path-1"></use>
                    </mask>
                    <g id="Clip-2"></g>
                    <path d="M35.9654087,0.00803814714 L1.36239782e-05,0.00803814714 L1.36239782e-05,49.8637602 L49.8557357,49.8637602 L49.8557357,13.8983651 C49.8557357,6.22697548 43.6367984,0.00803814714 35.9654087,0.00803814714" id="Fill-1" fill="#F3E9FF" mask="url(#mask-2)"></path>
                </g>
                <path d="M34.7331335,41.4252997 L14.3052044,41.4252997 L14.3052044,18.218624 L22.8810899,12.4708038 C23.8720981,11.8066349 25.1661035,11.8066349 26.1571117,12.4708038 L34.7331335,18.218624 L34.7331335,41.4252997 Z" id="Fill-8" fill="#FFEBDE"></path>
                <path d="M14.9863079,40.7441008 L34.0518392,40.7441008 L34.0518392,18.5821117 L25.777861,13.0366076 C25.0136921,12.524346 24.0252725,12.5242098 23.2604223,13.0366076 L14.9863079,18.5821117 L14.9863079,40.7441008 Z M34.7330381,42.1064986 L14.305109,42.1064986 C13.9288147,42.1064986 13.6239101,41.8014578 13.6239101,41.4252997 L13.6239101,18.218624 C13.6239101,17.991376 13.7371253,17.7792507 13.9259537,17.6526839 L22.5018392,11.905 C23.7271798,11.0836104 25.3108311,11.0836104 26.5364441,11.905 L35.1124659,17.6526839 C35.3010218,17.7792507 35.4142371,17.991376 35.4142371,18.218624 L35.4142371,41.4252997 C35.4142371,41.8014578 35.1093324,42.1064986 34.7330381,42.1064986 L34.7330381,42.1064986 Z" id="Fill-10" fill="#A179C5"></path>
                <path d="M18.6843597,24.818297 C18.9850409,24.818297 19.1535695,24.6678883 19.1535695,24.3851907 C19.1535695,24.1445913 18.9911717,23.958079 18.696485,23.958079 L18.1730518,23.958079 L18.1730518,24.818297 L18.6843597,24.818297 Z M18.6722343,23.1760627 C18.9008447,23.1760627 19.0633787,22.9836921 19.0633787,22.7430926 C19.0633787,22.5023569 18.9008447,22.3339646 18.6722343,22.3339646 L18.1730518,22.3339646 L18.1730518,23.1760627 L18.6722343,23.1760627 Z M19.3582016,23.5369619 C19.7249591,23.6573978 20.1520708,23.9341008 20.1520708,24.5174796 C20.1520708,25.2272888 19.5565668,25.6783787 18.8407629,25.6783787 L17.3490736,25.6783787 C17.282861,25.6783787 17.2346322,25.6242916 17.2346322,25.5642098 L17.2346322,21.5820572 C17.2346322,21.5219755 17.282861,21.4678883 17.3490736,21.4678883 L18.7505722,21.4678883 C19.4602452,21.4678883 20.0438965,21.9549455 20.0438965,22.5866894 C20.0438965,23.0678883 19.7008447,23.3926839 19.3582016,23.5311035 L19.3582016,23.5369619 Z" id="Fill-12" fill="#A179C5"></path>
                <path d="M21.31297,21.5821117 C21.31297,21.5218937 21.3670572,21.4678065 21.427139,21.4678065 L22.1671935,21.4678065 C22.2331335,21.4678065 22.2813624,21.5218937 22.2813624,21.5821117 L22.2813624,24.0904223 C22.2813624,24.5295232 22.5941689,24.7761172 23.0211444,24.7761172 C23.4542507,24.7761172 23.7730518,24.5295232 23.7730518,24.0904223 L23.7730518,21.5821117 C23.7730518,21.5218937 23.8212807,21.4678065 23.8874932,21.4678065 L24.6272752,21.4678065 C24.6874932,21.4678065 24.7415804,21.5218937 24.7415804,21.5821117 L24.7415804,24.138515 C24.7415804,25.0529564 23.9716894,25.7386512 23.0211444,25.7386512 C22.0767302,25.7386512 21.31297,25.0529564 21.31297,24.138515 L21.31297,21.5821117 Z" id="Fill-14" fill="#A179C5"></path>
                <path d="M26.961267,23.6512943 L25.6318392,21.6423025 C25.5838828,21.5641008 25.6318392,21.4677793 25.728297,21.4677793 L26.5103134,21.4677793 C26.5582698,21.4677793 26.5883787,21.4978883 26.6063624,21.5220027 L27.4426022,22.755109 L28.2787057,21.5220027 C28.2966894,21.4978883 28.3208038,21.4677793 28.374891,21.4677793 L29.1569074,21.4677793 C29.2530926,21.4677793 29.3011853,21.5641008 29.2530926,21.6423025 L27.9056812,23.6452997 L27.9056812,25.5641008 C27.9056812,25.6243188 27.851594,25.678406 27.7915123,25.678406 L27.0755722,25.678406 C27.0094959,25.678406 26.961267,25.6243188 26.961267,25.5641008 L26.961267,23.6512943 Z" id="Fill-16" fill="#A179C5"></path>
                <path d="M31.1767166,22.7731063 L30.5812125,22.7731063 C30.5211308,22.7731063 30.4730381,22.7190191 30.4730381,22.6528065 L30.4730381,22.2617984 C30.4730381,22.2137057 30.4910218,22.1895913 30.5090054,22.1716076 L31.3151362,21.54 C31.3813488,21.4917711 31.4474251,21.4677929 31.5317575,21.4677929 L31.9827112,21.4677929 C32.0429292,21.4677929 32.0971526,21.5218801 32.0971526,21.5820981 L32.0971526,25.5581199 C32.0971526,25.6243324 32.0429292,25.6784196 31.9827112,25.6784196 L31.2970163,25.6784196 C31.2249455,25.6784196 31.1767166,25.6243324 31.1767166,25.5581199 L31.1767166,22.7731063 Z" id="Fill-18" fill="#A179C5"></path>
                <path d="M19.3732153,27.6447139 C19.8785286,27.6447139 20.4317984,27.8552044 20.8409264,28.210109 C20.8950136,28.2522071 20.9010082,28.3244142 20.8529155,28.3725068 L20.3777112,28.8776839 C20.3294823,28.9199183 20.2635422,28.9199183 20.2153134,28.8838147 C19.986703,28.6733243 19.7221253,28.5951226 19.4273025,28.5951226 C18.7715804,28.5951226 18.2422888,29.1483924 18.2422888,29.810109 C18.2422888,30.4658311 18.7777112,31.0071117 19.433297,31.0071117 C19.6076839,31.0071117 19.7883379,30.9831335 19.9687193,30.9109264 L19.9687193,30.5620163 L19.5897003,30.5620163 C19.5234877,30.5620163 19.4755313,30.5139237 19.4755313,30.453842 L19.4755313,29.8583379 C19.4755313,29.7921253 19.5234877,29.7440327 19.5897003,29.7440327 L20.7986921,29.7440327 C20.8590463,29.7440327 20.9070027,29.7981199 20.9070027,29.8583379 L20.9131335,31.4764578 C20.9131335,31.530545 20.8888828,31.5545232 20.8649046,31.5725068 C20.8649046,31.5725068 20.2454223,31.963515 19.3732153,31.963515 C18.1760763,31.963515 17.2136785,31.0132425 17.2136785,29.810109 C17.2136785,28.6071117 18.1760763,27.6447139 19.3732153,27.6447139" id="Fill-20" fill="#A179C5"></path>
                <path d="M22.2896322,27.8131063 C22.2896322,27.7528883 22.337861,27.6988011 22.4039373,27.6988011 L24.8942643,27.6988011 C24.9604768,27.6988011 25.0085695,27.7528883 25.0085695,27.8131063 L25.0085695,28.4688283 C25.0085695,28.5289101 24.9604768,28.5829973 24.8942643,28.5829973 L23.2280518,28.5829973 L23.2280518,29.3289101 L24.5994414,29.3289101 C24.6596594,29.3289101 24.7138828,29.3829973 24.7138828,29.4432153 L24.7138828,30.0988011 C24.7138828,30.1650136 24.6596594,30.2131063 24.5994414,30.2131063 L23.2280518,30.2131063 L23.2280518,31.0252316 L24.8942643,31.0252316 C24.9604768,31.0252316 25.0085695,31.0793188 25.0085695,31.1395368 L25.0085695,31.7951226 C25.0085695,31.8553406 24.9604768,31.9094278 24.8942643,31.9094278 L22.4039373,31.9094278 C22.337861,31.9094278 22.2896322,31.8553406 22.2896322,31.7951226 L22.2896322,27.8131063 Z" id="Fill-22" fill="#A179C5"></path>
                <path d="M26.9673433,28.5830518 L26.1069891,28.5830518 C26.041049,28.5830518 25.9928202,28.5289646 25.9928202,28.4687466 L25.9928202,27.8131608 C25.9928202,27.7529428 26.041049,27.6988556 26.1069891,27.6988556 L28.7778338,27.6988556 C28.8440463,27.6988556 28.892139,27.7529428 28.892139,27.8131608 L28.892139,28.4687466 C28.892139,28.5289646 28.8440463,28.5830518 28.7778338,28.5830518 L27.917752,28.5830518 L27.917752,31.7951771 C27.917752,31.8552589 27.8635286,31.9094823 27.8033106,31.9094823 L27.0815123,31.9094823 C27.0214305,31.9094823 26.9673433,31.8552589 26.9673433,31.7951771 L26.9673433,28.5830518 Z" id="Fill-24" fill="#A179C5"></path>
                <path d="M31.1767166,29.0041144 L30.5812125,29.0041144 C30.5211308,29.0041144 30.4730381,28.9500272 30.4730381,28.8838147 L30.4730381,28.4928065 C30.4730381,28.4447139 30.4910218,28.4205995 30.5090054,28.4026158 L31.3151362,27.7710082 C31.3813488,27.7227793 31.4474251,27.6988011 31.5316213,27.6988011 L31.9827112,27.6988011 C32.0429292,27.6988011 32.0971526,27.7528883 32.0971526,27.8131063 L32.0971526,31.7891281 C32.0971526,31.8553406 32.0429292,31.9094278 31.9827112,31.9094278 L31.2970163,31.9094278 C31.2249455,31.9094278 31.1767166,31.8553406 31.1767166,31.7891281 L31.1767166,29.0041144 Z" id="Fill-26" fill="#A179C5"></path>
                <mask id="mask-4" fill="white">
                    <use xlink:href="#path-3"></use>
                </mask>
                <g id="Clip-29"></g>
                <polygon id="Fill-28" fill="#D4B1EF" mask="url(#mask-4)" points="14.3051771 41.5171662 34.7331063 41.5171662 34.7331063 35.6520436 14.3051771 35.6520436"></polygon>
                <path d="M14.986376,40.8358311 L34.0519074,40.8358311 L34.0519074,36.3331063 L14.986376,36.3331063 L14.986376,40.8358311 Z M34.7331063,42.1982289 L14.3051771,42.1982289 C13.9288828,42.1982289 13.6239782,41.8933243 13.6239782,41.51703 L13.6239782,35.6519074 C13.6239782,35.2757493 13.9288828,34.9707084 14.3051771,34.9707084 L34.7331063,34.9707084 C35.1094005,34.9707084 35.4143052,35.2757493 35.4143052,35.6519074 L35.4143052,41.51703 C35.4143052,41.8933243 35.1094005,42.1982289 34.7331063,42.1982289 L34.7331063,42.1982289 Z" id="Fill-30" fill="#A179C5" mask="url(#mask-4)"></path>
                <path d="M25.8244687,16.7425749 C25.8244687,17.3933924 25.296812,17.921049 24.6459946,17.921049 C23.9951771,17.921049 23.4676567,17.3933924 23.4676567,16.7425749 C23.4676567,16.0917575 23.9951771,15.5641008 24.6459946,15.5641008 C25.296812,15.5641008 25.8244687,16.0917575 25.8244687,16.7425749" id="Fill-31" fill="#F3E9FF" mask="url(#mask-4)"></path>
                <path d="M24.6460354,16.2453542 C24.3717847,16.2453542 24.1488965,16.4683787 24.1488965,16.7424932 C24.1488965,17.0167439 24.3717847,17.2397684 24.6460354,17.2397684 C24.9202861,17.2397684 25.1431744,17.0167439 25.1431744,16.7424932 C25.1431744,16.4683787 24.9202861,16.2453542 24.6460354,16.2453542 M24.6460354,18.6021662 C23.6206948,18.6021662 22.7864986,17.76797 22.7864986,16.7424932 C22.7864986,15.7171526 23.6206948,14.8829564 24.6460354,14.8829564 C25.671376,14.8829564 26.5055722,15.7171526 26.5055722,16.7424932 C26.5055722,17.76797 25.671376,18.6021662 24.6460354,18.6021662" id="Fill-32" fill="#A179C5" mask="url(#mask-4)"></path>
                <path d="M25.8244278,17.0890599 C25.7471798,17.0890599 25.6684332,17.0758447 25.5917302,17.0479155 C23.4342371,16.2637193 21.9845095,14.1939646 21.9845095,11.8975068 C21.9845095,8.87652589 24.442139,6.41889646 27.4631199,6.41889646 C30.4841008,6.41889646 32.9417302,8.87652589 32.9417302,11.8975068 C32.9417302,12.6367439 32.7967711,13.3543188 32.5108038,14.0302044 C32.3642098,14.3767984 31.9639373,14.538515 31.6180245,14.3921935 C31.2715668,14.2455995 31.1095777,13.8458719 31.2561717,13.4994142 C31.4706131,12.9924659 31.5793324,12.4535014 31.5793324,11.8975068 C31.5793324,9.62775204 29.7327384,7.78129428 27.4631199,7.78129428 C25.1935014,7.78129428 23.3469074,9.62775204 23.3469074,11.8975068 C23.3469074,13.6231199 24.4361444,15.178297 26.0571253,15.7673978 C26.4108038,15.8960082 26.5932289,16.2867439 26.4646185,16.6404223 C26.3640736,16.9171253 26.1027657,17.0890599 25.8244278,17.0890599" id="Fill-33" fill="#A179C5" mask="url(#mask-4)"></path>
            </g>
        </g>
    </g>
</svg>