<svg width="24" height="25" viewBox="0 0 24 25" fill="none" xmlns="http://www.w3.org/2000/svg">
<g id="edit">
<g id="Components / Icon-Card / Edit">
<g id="Edit">
<g id="Shape">
<path fill-rule="evenodd" clip-rule="evenodd" d="M11.5014 9.23905C12.9761 7.76199 14.4544 6.28169 15.9227 4.80463C16.1544 4.56926 16.4219 4.47131 16.7157 4.50721L16.7712 4.51375C16.9734 4.53993 17.2052 4.56926 17.4238 4.65754C18.5136 5.09869 19.3098 5.88298 19.7895 6.98105C19.8677 7.16409 19.9069 7.35351 19.9428 7.52025C19.9592 7.58548 19.9723 7.65427 19.9885 7.71955C19.9982 7.76199 20.0016 7.80778 19.9982 7.85357C19.9723 8.13138 19.8677 8.35682 19.6784 8.54639C17.1138 11.1115 14.549 13.6801 11.9843 16.2518C11.8309 16.4055 11.6515 16.5002 11.4392 16.5461C10.5256 16.7354 9.6087 16.9316 8.69508 17.1245L8.1207 17.2453C8.06527 17.2552 8.0098 17.2617 7.95437 17.2617C7.75854 17.2617 7.57263 17.1865 7.43876 17.0525C7.26574 16.8794 7.19721 16.6244 7.2495 16.3696L7.36037 15.8467C7.55954 14.9022 7.75854 13.9578 7.96408 13.0135C8.00327 12.8337 8.10447 12.6506 8.2383 12.5134C8.80599 11.935 9.38037 11.3632 9.95141 10.7913L11.5014 9.23905ZM16.6085 5.29486C16.5856 5.29486 16.5563 5.30458 16.4943 5.35695C15.0194 6.84055 13.5413 8.3208 12.063 9.80122L10.5131 11.3534C9.94203 11.922 9.37434 12.4938 8.80648 13.0691C8.77716 13.1018 8.75101 13.1474 8.74448 13.1769C8.54213 14.118 8.34313 15.0625 8.14416 16.0036L8.05267 16.4317L8.53561 16.3304C9.45257 16.1376 10.3661 15.9447 11.2831 15.752C11.3419 15.7389 11.3811 15.7192 11.4235 15.6768C13.9882 13.1083 16.5531 10.5365 19.121 7.97122C19.1667 7.92878 19.1895 7.88953 19.2026 7.83063C19.1928 7.77846 19.1798 7.72614 19.1701 7.67377C19.1406 7.53337 19.1113 7.39935 19.0655 7.29482C18.6707 6.39282 18.0181 5.75232 17.1307 5.39286C17.0065 5.34065 16.8499 5.32104 16.6802 5.3014L16.6248 5.29486H16.6085ZM5.26937 8.06281C5.01159 8.06281 4.79953 8.27518 4.79953 8.53334V19.229C4.79953 19.4872 5.01159 19.6996 5.26937 19.6996H15.9461C16.2038 19.6996 16.4159 19.4872 16.4159 19.229V13.7554C16.4159 13.5331 16.5955 13.3534 16.8173 13.3534C17.0392 13.3534 17.2186 13.5331 17.2186 13.7554V19.229C17.2186 19.9282 16.6509 20.5001 15.9494 20.5001H5.26937C4.57104 20.5001 4 19.9315 4 19.229V8.52999C4 7.83063 4.56786 7.25876 5.26937 7.25876H10.9667C11.1885 7.25876 11.368 7.43861 11.368 7.6607C11.368 7.883 11.1885 8.06281 10.9667 8.06281H5.26937Z" fill="#A775C8"/>
<path d="M11.5014 9.23905L11.7137 9.45103L11.7137 9.45102L11.5014 9.23905ZM15.9227 4.80463L16.1355 5.01614L16.1365 5.01508L15.9227 4.80463ZM16.7157 4.50721L16.6794 4.805L16.6806 4.80515L16.7157 4.50721ZM16.7712 4.51375L16.8097 4.21622L16.8063 4.21581L16.7712 4.51375ZM17.4238 4.65754L17.5364 4.37945L17.5361 4.37936L17.4238 4.65754ZM19.7895 6.98105L20.0654 6.86315L20.0644 6.86095L19.7895 6.98105ZM19.9428 7.52025L19.6493 7.58335L19.6518 7.59338L19.9428 7.52025ZM19.9885 7.71955L20.281 7.65264L20.2797 7.64714L19.9885 7.71955ZM19.9982 7.85357L20.297 7.88147L20.2974 7.87542L19.9982 7.85357ZM19.6784 8.54639L19.8906 8.75851L19.8907 8.75837L19.6784 8.54639ZM11.9843 16.2518L12.1966 16.4638L12.1967 16.4636L11.9843 16.2518ZM11.4392 16.5461L11.5001 16.8398L11.5025 16.8393L11.4392 16.5461ZM8.69508 17.1245L8.75682 17.4181L8.75707 17.418L8.69508 17.1245ZM8.1207 17.2453L8.1734 17.5407L8.18244 17.5388L8.1207 17.2453ZM7.43876 17.0525L7.65102 16.8405L7.65095 16.8404L7.43876 17.0525ZM7.2495 16.3696L6.95602 16.3073L6.95563 16.3093L7.2495 16.3696ZM7.36037 15.8467L7.65384 15.9089L7.65391 15.9086L7.36037 15.8467ZM7.96408 13.0135L7.67096 12.9496L7.67094 12.9497L7.96408 13.0135ZM8.2383 12.5134L8.02419 12.3033L8.02353 12.304L8.2383 12.5134ZM9.95141 10.7913L9.73912 10.5793L9.95141 10.7913ZM16.4943 5.35695L16.3007 5.12776L16.2907 5.13619L16.2815 5.14544L16.4943 5.35695ZM12.063 9.80122L11.8507 9.58924L12.063 9.80122ZM10.5131 11.3534L10.7247 11.566L10.7254 11.5654L10.5131 11.3534ZM8.80648 13.0691L8.59299 12.8583L8.58791 12.8634L8.58309 12.8688L8.80648 13.0691ZM8.74448 13.1769L8.45155 13.1122L8.45119 13.1139L8.74448 13.1769ZM8.14416 16.0036L8.43754 16.0663L8.43767 16.0656L8.14416 16.0036ZM8.05267 16.4317L7.7593 16.369L7.66292 16.82L8.11429 16.7253L8.05267 16.4317ZM8.53561 16.3304L8.59722 16.624L8.59731 16.624L8.53561 16.3304ZM11.2831 15.752L11.3448 16.0456L11.3482 16.0448L11.2831 15.752ZM11.4235 15.6768L11.2112 15.4648L11.4235 15.6768ZM19.121 7.97122L18.9168 7.7512L18.909 7.75898L19.121 7.97122ZM19.2026 7.83063L19.4954 7.89572L19.5087 7.83583L19.4975 7.77551L19.2026 7.83063ZM19.1701 7.67377L19.4651 7.61907L19.4637 7.6121L19.1701 7.67377ZM19.0655 7.29482L19.3404 7.17459L19.3404 7.17453L19.0655 7.29482ZM17.1307 5.39286L17.0143 5.66942L17.018 5.67091L17.1307 5.39286ZM16.6802 5.3014L16.6451 5.59933L16.6457 5.59941L16.6802 5.3014ZM16.6248 5.29486L16.6599 4.99692L16.6424 4.99486H16.6248V5.29486ZM11.7137 9.45102C13.1883 7.97401 14.6668 6.49348 16.1355 5.01613L15.71 4.59312C14.2419 6.06991 12.7639 7.54996 11.2891 9.02709L11.7137 9.45102ZM16.1365 5.01508C16.3096 4.83926 16.4871 4.7815 16.6794 4.805L16.7521 4.20943C16.3568 4.16112 15.9992 4.29926 15.7089 4.59418L16.1365 5.01508ZM16.6806 4.80515L16.736 4.81169L16.8063 4.21581L16.7509 4.20928L16.6806 4.80515ZM16.7326 4.81127C16.9409 4.83823 17.1343 4.86417 17.3115 4.93571L17.5361 4.37936C17.2761 4.27436 17.0058 4.24164 16.8097 4.21623L16.7326 4.81127ZM17.3112 4.93562C18.3264 5.34655 19.0654 6.07294 19.5146 7.10116L20.0644 6.86095C19.5542 5.69302 18.7009 4.85084 17.5364 4.37945L17.3112 4.93562ZM19.5137 7.09896C19.5785 7.25072 19.6124 7.41089 19.6495 7.58331L20.2361 7.45718C20.2015 7.29612 20.157 7.07747 20.0654 6.86315L19.5137 7.09896ZM19.6518 7.59338C19.6588 7.6209 19.6652 7.65003 19.6727 7.68417C19.6798 7.71676 19.6881 7.75452 19.6974 7.79195L20.2797 7.64714C20.2727 7.6193 20.2663 7.59002 20.2588 7.55559C20.2515 7.52271 20.2432 7.48483 20.2337 7.44712L19.6518 7.59338ZM19.6961 7.78644C19.6988 7.79843 19.7003 7.81424 19.699 7.83171L20.2974 7.87542C20.3028 7.80131 20.2976 7.72555 20.281 7.65265L19.6961 7.78644ZM19.6995 7.82568C19.6798 8.0365 19.6043 8.19607 19.4662 8.33441L19.8907 8.75837C20.1312 8.51757 20.2647 8.22625 20.2969 7.88146L19.6995 7.82568ZM19.4663 8.33428C16.9015 10.8995 14.3367 13.4682 11.7719 16.04L12.1967 16.4636C14.7614 13.8921 17.326 11.3235 19.8906 8.75851L19.4663 8.33428ZM11.772 16.0398C11.6613 16.1507 11.5344 16.2186 11.3759 16.2528L11.5025 16.8393C11.7685 16.7819 12.0004 16.6602 12.1966 16.4638L11.772 16.0398ZM11.3783 16.2523C10.464 16.4418 9.54568 16.6382 8.6331 16.831L8.75707 17.418C9.67172 17.2249 10.5872 17.0291 11.5001 16.8398L11.3783 16.2523ZM8.63335 16.8309L8.05897 16.9517L8.18244 17.5388L8.75682 17.4181L8.63335 16.8309ZM8.06803 16.9499C8.02361 16.9579 7.98666 16.9617 7.95437 16.9617V17.5617C8.03293 17.5617 8.10694 17.5525 8.17337 17.5406L8.06803 16.9499ZM7.95437 16.9617C7.83471 16.9617 7.72622 16.9158 7.65102 16.8405L7.22651 17.2645C7.41904 17.4573 7.68237 17.5617 7.95437 17.5617V16.9617ZM7.65095 16.8404C7.55646 16.7459 7.50919 16.5965 7.54338 16.4299L6.95563 16.3093C6.88523 16.6523 6.97501 17.0129 7.22657 17.2646L7.65095 16.8404ZM7.54298 16.4318L7.65384 15.9089L7.06689 15.7845L6.95603 16.3073L7.54298 16.4318ZM7.65391 15.9086C7.85312 14.9639 8.05192 14.0205 8.25721 13.0773L7.67094 12.9497C7.46516 13.8951 7.26595 14.8405 7.06682 15.7848L7.65391 15.9086ZM8.25719 13.0774C8.28366 12.956 8.35589 12.8225 8.45306 12.7229L8.02353 12.304C7.85305 12.4788 7.72289 12.7114 7.67096 12.9496L8.25719 13.0774ZM8.4524 12.7236C9.0189 12.1464 9.59182 11.576 10.1637 11.0033L9.73912 10.5793C9.16892 11.1503 8.59307 11.7237 8.02419 12.3033L8.4524 12.7236ZM10.1637 11.0033L11.7137 9.45103L11.2891 9.02708L9.73912 10.5793L10.1637 11.0033ZM16.6085 4.99486C16.4741 4.99486 16.3744 5.06548 16.3007 5.12776L16.6879 5.58614C16.7103 5.56717 16.7125 5.56846 16.7002 5.57458C16.6928 5.5783 16.6799 5.5839 16.6622 5.5883C16.6437 5.59291 16.6254 5.59486 16.6085 5.59486V4.99486ZM16.2815 5.14544C14.8069 6.62877 13.329 8.10879 11.8507 9.58924L12.2753 10.0132C13.7535 8.53282 15.2318 7.05233 16.707 5.56846L16.2815 5.14544ZM11.8507 9.58924L10.3008 11.1415L10.7254 11.5654L12.2753 10.0132L11.8507 9.58924ZM10.3014 11.1408C9.72955 11.7102 9.16121 12.2827 8.59299 12.8583L9.01998 13.2798C9.58746 12.705 10.1545 12.1338 10.7247 11.566L10.3014 11.1408ZM8.58309 12.8688C8.53347 12.9242 8.47304 13.015 8.45155 13.1122L9.03742 13.2417C9.0355 13.2503 9.03347 13.2569 9.03206 13.2611C9.03061 13.2654 9.02936 13.2685 9.0286 13.2703C9.02717 13.2736 9.0265 13.2746 9.0271 13.2736C9.0276 13.2727 9.02843 13.2714 9.02939 13.27C9.03039 13.2686 9.03069 13.2684 9.02988 13.2693L8.58309 12.8688ZM8.45119 13.1139C8.2487 14.0556 8.04955 15.0007 7.85065 15.9415L8.43767 16.0656C8.6367 15.1242 8.83557 14.1805 9.03778 13.24L8.45119 13.1139ZM7.85079 15.9409L7.7593 16.369L8.34605 16.4944L8.43754 16.0663L7.85079 15.9409ZM8.11429 16.7253L8.59722 16.624L8.47399 16.0368L7.99106 16.1381L8.11429 16.7253ZM8.59731 16.624C9.51245 16.4316 10.4301 16.2378 11.3448 16.0455L11.2214 15.4584C10.3022 15.6516 9.39269 15.8437 8.4739 16.0368L8.59731 16.624ZM11.3482 16.0448C11.4558 16.0209 11.5483 15.9764 11.6358 15.8888L11.2112 15.4648C11.2088 15.4672 11.2086 15.4671 11.2105 15.4657C11.2125 15.4641 11.2156 15.4621 11.2194 15.4601C11.2273 15.4559 11.2299 15.4565 11.218 15.4591L11.3482 16.0448ZM11.6358 15.8888C14.2007 13.3201 16.7653 10.7485 19.333 8.18347L18.909 7.75898C16.3409 10.3244 13.7757 12.8965 11.2112 15.4648L11.6358 15.8888ZM19.3251 8.1911C19.4139 8.1087 19.4687 8.01606 19.4954 7.89572L18.9097 7.76553C18.9089 7.76919 18.9087 7.76927 18.9095 7.76703C18.9104 7.76455 18.9121 7.7608 18.9145 7.75656C18.917 7.75235 18.9192 7.74943 18.9203 7.74808C18.9213 7.74693 18.9206 7.74794 18.9169 7.75135L19.3251 8.1911ZM19.4975 7.77551C19.4916 7.74428 19.4849 7.71371 19.4794 7.68843C19.4736 7.66162 19.4689 7.63994 19.465 7.61909L18.8751 7.72845C18.8809 7.75996 18.8876 7.79064 18.8932 7.81612C18.8991 7.84313 18.9038 7.86481 18.9077 7.88574L19.4975 7.77551ZM19.4637 7.6121C19.4356 7.47866 19.4008 7.3127 19.3404 7.17459L18.7907 7.41505C18.8217 7.48601 18.8455 7.58809 18.8765 7.73544L19.4637 7.6121ZM19.3404 7.17453C18.915 6.20281 18.2054 5.50448 17.2433 5.1148L17.018 5.67091C17.8309 6.00015 18.4264 6.58283 18.7907 7.41511L19.3404 7.17453ZM17.247 5.11632C17.076 5.04443 16.8741 5.02184 16.7147 5.00339L16.6457 5.59941C16.8257 5.62025 16.937 5.63687 17.0143 5.66939L17.247 5.11632ZM16.7154 5.00346L16.6599 4.99692L16.5897 5.5928L16.6451 5.59933L16.7154 5.00346ZM16.6248 4.99486H16.6085V5.59486H16.6248V4.99486ZM5.26937 7.76281C4.84549 7.76281 4.49953 8.10991 4.49953 8.53334H5.09953C5.09953 8.44045 5.17769 8.36281 5.26937 8.36281V7.76281ZM4.49953 8.53334V19.229H5.09953V8.53334H4.49953ZM4.49953 19.229C4.49953 19.6524 4.84548 19.9996 5.26937 19.9996V19.3996C5.17771 19.3996 5.09953 19.3219 5.09953 19.229H4.49953ZM5.26937 19.9996H15.9461V19.3996H5.26937V19.9996ZM15.9461 19.9996C16.3699 19.9996 16.7159 19.6524 16.7159 19.229H16.1159C16.1159 19.3219 16.0377 19.3996 15.9461 19.3996V19.9996ZM16.7159 19.229V13.7554H16.1159V19.229H16.7159ZM16.7159 13.7554C16.7159 13.6985 16.7615 13.6534 16.8173 13.6534V13.0534C16.4295 13.0534 16.1159 13.3677 16.1159 13.7554H16.7159ZM16.8173 13.6534C16.8731 13.6534 16.9186 13.6984 16.9186 13.7554H17.5186C17.5186 13.3678 17.2053 13.0534 16.8173 13.0534V13.6534ZM16.9186 13.7554V19.229H17.5186V13.7554H16.9186ZM16.9186 19.229C16.9186 19.7634 16.4843 20.2001 15.9494 20.2001V20.8001C16.8175 20.8001 17.5186 20.0929 17.5186 19.229H16.9186ZM15.9494 20.2001H5.26937V20.8001H15.9494V20.2001ZM5.26937 20.2001C4.7366 20.2001 4.3 19.7657 4.3 19.229H3.7C3.7 20.0973 4.40548 20.8001 5.26937 20.8001V20.2001ZM4.3 19.229V8.52999H3.7V19.229H4.3ZM4.3 8.52999C4.3 7.99541 4.73444 7.55876 5.26937 7.55876V6.95876C4.40127 6.95876 3.7 7.66585 3.7 8.52999H4.3ZM5.26937 7.55876H10.9667V6.95876H5.26937V7.55876ZM10.9667 7.55876C11.0224 7.55876 11.068 7.60388 11.068 7.6607H11.668C11.668 7.27334 11.3546 6.95876 10.9667 6.95876V7.55876ZM11.068 7.6607C11.068 7.71779 11.0223 7.76281 10.9667 7.76281V8.36281C11.3546 8.36281 11.668 8.04821 11.668 7.6607H11.068ZM10.9667 7.76281H5.26937V8.36281H10.9667V7.76281Z" fill="#A775C8"/>
</g>
</g>
</g>
</g>
</svg>
