<?xml version="1.0" encoding="UTF-8"?>
<svg width="20px" height="20px" viewBox="0 0 20 20" version="1.1" xmlns="http://www.w3.org/2000/svg" xmlns:xlink="http://www.w3.org/1999/xlink">
    <title>icon - shop categories</title>
    <g id="Page-1" stroke="none" stroke-width="1" fill="none" fill-rule="evenodd">
        <g id="LL21---Dropdown-3dots" transform="translate(-176.000000, -112.000000)">
            <g id="dropdown" transform="translate(160.000000, 56.000000)">
                <g id="icon---shop-categories" transform="translate(16.000000, 56.000000)">
                    <rect id="Rectangle" x="0" y="0" width="20" height="20"></rect>
                    <g id="Group-11" transform="translate(2.000000, 2.000000)">
                        <polygon id="Fill-1" fill="#D7CDF5" points="0.657210336 7.88901139 7.40657961 7.88901139 7.40657961 1.43894415 0.657210336 1.43894415"></polygon>
                        <polygon id="Fill-2" fill="#8B7FBF" points="8.61825841 7.88901139 15.3678689 7.88901139 15.3678689 1.43894415 8.61825841 1.43894415"></polygon>
                        <g id="Group-6" fill="#8B7FBF" fill-rule="nonzero">
                            <path d="M7.18819283,0.783060295 L0.00494415115,0.783060295 L0.00494415115,7.66700695 L7.18819283,7.66700695 L7.18819283,0.783060295 Z M6.75419283,1.21681912 L6.75419283,7.23300695 L0.438702973,7.23300695 L0.438702973,1.21681912 L6.75419283,1.21681912 Z" id="Stroke-3"></path>
                            <path d="M15.1489997,0.783060295 L7.96575104,0.783060295 L7.96575104,7.66700695 L15.1489997,7.66700695 L15.1489997,0.783060295 Z M14.7149997,1.21681912 L14.7149997,7.23300695 L8.39950986,7.23300695 L8.39950986,1.21681912 L14.7149997,1.21681912 Z" id="Stroke-5"></path>
                        </g>
                        <polygon id="Fill-7" fill="#F3F0FC" points="0.652386774 15.4706863 7.40175604 15.4706863 7.40175604 9.02061906 0.652386774 9.02061906"></polygon>
                        <path d="M7.18336927,8.3647352 L0.000120589052,8.3647352 L0.000120589052,15.2486819 L7.18336927,15.2486819 L7.18336927,8.3647352 Z M6.74936927,8.7985905 L6.74936927,14.8147783 L0.433879411,14.8147783 L0.433879411,8.7985905 L6.74936927,8.7985905 Z" id="Stroke-8" fill="#8B7FBF" fill-rule="nonzero"></path>
                        <path d="M11.8140251,9.44540606 C11.9761667,9.44540606 12.1110196,9.48371331 12.1389851,9.53422995 L12.1443064,9.55369503 L12.1443064,14.3229921 C12.1443064,14.3827984 11.9964344,14.431281 11.8140251,14.431281 C11.6518834,14.431281 11.5170305,14.3929738 11.489065,14.3424571 L11.4837437,14.3229921 L11.4837437,9.55369503 C11.4837437,9.49388868 11.6316157,9.44540606 11.8140251,9.44540606 Z" id="Stroke-10" fill="#8B7FBF" fill-rule="nonzero"></path>
                        <polygon id="Stroke-11" fill="#8B7FBF" fill-rule="nonzero" points="12.1106862 9.55369503 12.1106862 14.3229921 11.375093 14.3229921 11.375093 9.55369503"></polygon>
                        <polygon id="Stroke-12" fill="#8B7FBF" fill-rule="nonzero" points="13.9768741 11.7214521 13.9768741 12.4570453 9.20733593 12.4570453 9.20733593 11.7214521"></polygon>
                    </g>
                </g>
            </g>
        </g>
    </g>
</svg>