<svg width="16" height="17" viewBox="0 0 16 17" fill="none" xmlns="http://www.w3.org/2000/svg">
<path fill-rule="evenodd" clip-rule="evenodd" d="M9.28412 3.45209C9.28412 3.29033 9.28609 3.14221 9.28377 2.99415C9.2761 2.50734 9.11543 2.34481 8.63319 2.34163C8.19151 2.33873 7.74961 2.33393 7.308 2.34233C6.90308 2.34996 6.73861 2.51355 6.71703 2.91522C6.70782 3.08707 6.71548 3.25983 6.71548 3.45209H9.28412ZM8.00112 5.23346V5.23169C9.29531 5.23169 10.5894 5.23169 11.8836 5.23176C12.4899 5.23176 13.0963 5.23684 13.7024 5.22992C13.9742 5.22682 14.1426 5.07855 14.1593 4.80101C14.1769 4.50913 14.0246 4.33961 13.7377 4.29951C13.6459 4.28666 13.5515 4.29075 13.4583 4.29075C9.82035 4.29054 6.18237 4.29061 2.54446 4.29181C2.42828 4.29181 2.30914 4.28997 2.19668 4.31405C1.96143 4.36446 1.83745 4.52028 1.83935 4.76422C1.84146 5.02447 1.97774 5.18594 2.23049 5.22265C2.39068 5.24595 2.55627 5.2331 2.71948 5.23317C4.48003 5.23367 6.24057 5.23346 8.00112 5.23346ZM3.44018 6.08008C3.44018 6.20434 3.44018 6.28561 3.44018 6.36694C3.44018 8.61469 3.43751 10.8625 3.44124 13.1103C3.44292 14.0995 4.01625 14.667 5.01433 14.6686C6.98349 14.6717 8.95342 14.6364 10.9216 14.6816C11.8187 14.7022 12.5971 14.0861 12.5755 13.0009C12.5321 10.8242 12.5626 8.64604 12.5626 6.46847V6.08008H3.44018ZM2.61275 6.08838C2.40161 6.06515 2.22688 6.05802 2.05706 6.02526C1.39897 5.89825 0.94892 5.3087 1.00466 4.6583C1.06096 4.00161 1.59563 3.48401 2.26188 3.47646C3.34591 3.4641 4.43009 3.47145 5.51419 3.47053C5.6282 3.47046 5.74214 3.47053 5.89824 3.47053C5.89824 3.24686 5.89381 3.05149 5.89909 2.85642C5.91954 2.09227 6.46693 1.5304 7.22638 1.51084C7.75058 1.49736 8.2757 1.49588 8.7999 1.50964C9.52744 1.52885 10.0932 2.11543 10.1061 2.84385C10.1096 3.0397 10.1066 3.2357 10.1066 3.47222C11.0253 3.47222 11.9077 3.47236 12.7902 3.47215C13.0699 3.47208 13.3497 3.47095 13.6294 3.47074C14.3959 3.47011 14.9768 4.00119 14.9993 4.72311C15.0218 5.44102 14.4697 6.01566 13.7103 6.06247C13.6179 6.06819 13.525 6.06325 13.3903 6.06325C13.3903 6.40469 13.3903 6.72911 13.3903 7.05347C13.3903 9.07966 13.3943 11.1059 13.3891 13.132C13.3856 14.5205 12.41 15.4966 11.032 15.4982C9.01518 15.5007 6.99844 15.5005 4.98163 15.4982C3.58341 15.4966 2.60931 14.5092 2.61099 13.1085C2.6136 10.9066 2.61233 8.70475 2.61275 6.5029C2.61275 6.36515 2.61275 6.22733 2.61275 6.08838Z" fill="#F05868"/>
<path fill-rule="evenodd" clip-rule="evenodd" d="M8.39448 10.6682C8.39402 11.4075 8.38949 12.1468 8.39615 12.886C8.39888 13.1877 8.3117 13.4109 8.01021 13.4435C7.76991 13.4694 7.60647 13.2483 7.60567 12.9042C7.6022 11.4018 7.60447 9.89927 7.60473 8.39683C7.60473 8.10652 7.67372 7.86737 7.99401 7.8483C8.2597 7.83247 8.39435 8.028 8.39475 8.41453C8.39555 9.16572 8.39495 9.91698 8.39448 10.6682Z" fill="#F05868"/>
<path fill-rule="evenodd" clip-rule="evenodd" d="M6.01552 10.3921C6.01552 10.9899 6.01152 11.5877 6.01731 12.1855C6.01993 12.4611 5.90437 12.6418 5.62725 12.6458C5.34959 12.6496 5.22589 12.4716 5.22644 12.1961C5.22879 10.9889 5.22989 9.78169 5.22775 8.57454C5.22727 8.30163 5.34194 8.11618 5.61926 8.11403C5.92085 8.11168 6.02186 8.3146 6.01883 8.59867C6.01255 9.19643 6.0169 9.79425 6.0169 10.3921H6.01552Z" fill="#F05868"/>
<path fill-rule="evenodd" clip-rule="evenodd" d="M9.98473 10.6114C9.98473 10.0259 9.98686 9.44047 9.98384 8.85495C9.9824 8.57046 10.0957 8.37499 10.3939 8.38074C10.6778 8.38614 10.7739 8.58681 10.7736 8.85065C10.7722 10.0331 10.7748 11.2155 10.77 12.3979C10.7687 12.7414 10.6157 12.9339 10.3631 12.9105C10.0391 12.8805 9.97753 12.6518 9.9813 12.3679C9.98898 11.7825 9.98363 11.197 9.98363 10.6114C9.98397 10.6114 9.98439 10.6114 9.98473 10.6114Z" fill="#F05868"/>
</svg>
