<?xml version="1.0" encoding="UTF-8"?>
<svg width="19px" height="18px" viewBox="0 0 19 18" version="1.1" xmlns="http://www.w3.org/2000/svg" xmlns:xlink="http://www.w3.org/1999/xlink">
    <title>icon_check_alt</title>
    <g id="Symbols" stroke="none" stroke-width="1" fill="none" fill-rule="evenodd">
        <g id="Components/List/answer" transform="translate(-12.000000, -13.000000)" fill="#D7CDF5" fill-rule="nonzero">
            <g id="icon_check_alt" transform="translate(12.000000, 13.000000)">
                <path d="M9.04725,0 C4.077,0 0.04725,4.02975 0.04725,9 C0.04725,13.97025 4.077,18 9.04725,18 C14.0175,18 18.04725,13.97025 18.04725,9 C18.04725,4.02975 14.0175,0 9.04725,0 Z M13.2165,6.510375 L8.9055,13.0995 C8.904375,13.100625 8.902125,13.10175 8.902125,13.102875 C8.879625,13.136625 8.86725,13.174875 8.839125,13.206375 C8.79975,13.249125 8.749125,13.271625 8.704125,13.30425 C8.692875,13.312125 8.681625,13.321125 8.66925,13.329 C8.5995,13.372875 8.5275,13.402125 8.44875,13.42125 C8.422875,13.428 8.39925,13.43475 8.37225,13.43925 C8.308125,13.44825 8.247375,13.44825 8.18325,13.4415 C8.13825,13.438125 8.0955,13.4325 8.051625,13.42125 C8.006625,13.408875 7.965,13.38975 7.92225,13.3695 C7.88625,13.352625 7.848,13.348125 7.81425,13.32675 C7.7895,13.311 7.776,13.28625 7.754625,13.267125 C7.745625,13.25925 7.734375,13.257 7.725375,13.249125 L5.2155,10.92825 C4.896,10.632375 4.876875,10.134 5.171625,9.815625 C5.466375,9.49725 5.96475,9.477 6.28425,9.77175 L8.101125,11.4525 L11.898,5.648625 C12.1365,5.28525 12.623625,5.182875 12.988125,5.42025 C13.352625,5.65875 13.455,6.147 13.2165,6.510375 Z" id="Shape"></path>
            </g>
        </g>
    </g>
</svg>