<svg width="20" height="16" viewBox="0 0 20 16" fill="none" xmlns="http://www.w3.org/2000/svg">
<g id="private">
<path id="Shape" fill-rule="evenodd" clip-rule="evenodd" d="M19.0197 7.62626C17.8573 6.14687 16.4612 4.85546 14.8832 3.8L17.582 1.1783C17.8537 0.923392 17.8613 0.502798 17.5989 0.238856C17.3365 -0.0250851 16.9035 -0.0324038 16.6318 0.222506C16.6261 0.227839 16.6205 0.23329 16.615 0.238856L13.6665 3.1004C12.4115 2.42942 11.0075 2.06461 9.57521 2.03736C4.37728 2.03736 0.30171 7.39771 0.130713 7.62622C-0.0435709 7.85914 -0.0435709 8.17462 0.130713 8.40754C1.29311 9.88693 2.68918 11.1783 4.26715 12.2338L1.56834 14.8555C1.29664 15.1104 1.2891 15.531 1.55151 15.7949C1.81392 16.0589 2.24688 16.0662 2.51859 15.8113C2.52428 15.806 2.52989 15.8005 2.53542 15.7949L5.48385 12.9334C6.73886 13.6044 8.14291 13.9692 9.57517 13.9964C14.7731 13.9964 18.8487 8.63609 19.0197 8.40754C19.194 8.17466 19.194 7.85918 19.0197 7.62626ZM5.2616 11.2698C3.86833 10.3683 2.61945 9.27228 1.55536 8.01692C2.56211 6.8323 5.82721 3.36614 9.57521 3.36614C10.6416 3.38708 11.6899 3.63666 12.6454 4.09696L11.4581 5.25036C9.88715 4.23722 7.76818 4.65299 6.72524 6.17902C5.96551 7.29065 5.96551 8.73634 6.72524 9.84797L5.2616 11.2698ZM11.4218 7.16316C11.5557 7.42905 11.6259 7.72094 11.627 8.01692C11.627 9.11773 10.7084 10.0101 9.57521 10.0101C9.27053 10.009 8.97005 9.94081 8.69634 9.81079L11.4218 7.16316ZM7.72858 8.87064C7.59473 8.60475 7.52456 8.31286 7.5234 8.01688C7.5234 6.91607 8.44203 6.02369 9.57521 6.02369C9.8799 6.02482 10.1804 6.09299 10.4541 6.22301L7.72858 8.87064ZM9.57521 12.6677C8.50887 12.6467 7.46053 12.3971 6.50503 11.9368L7.69236 10.7834C9.26327 11.7966 11.3822 11.3808 12.4252 9.85478C13.1849 8.74315 13.1849 7.29746 12.4252 6.18583L13.8888 4.76401C15.2821 5.66546 16.531 6.76156 17.5951 8.01688C16.5883 9.20154 13.3232 12.6677 9.57521 12.6677Z" fill="#25182E"/>
</g>
</svg>
