<?xml version="1.0" encoding="UTF-8"?>
<svg width="20px" height="20px" viewBox="0 0 20 20" version="1.1" xmlns="http://www.w3.org/2000/svg" xmlns:xlink="http://www.w3.org/1999/xlink">
    <title>Shape</title>
    <g id="Page-1" stroke="none" stroke-width="1" fill="none" fill-rule="evenodd">
        <g id="Artboard" transform="translate(-999.000000, -296.000000)" fill="#A775C8" fill-rule="nonzero">
            <g id="Group-12" transform="translate(0.000000, 110.000000)">
                <g id="Group-14" transform="translate(399.000000, 169.000000)">
                    <path d="M611.90359,17 C607.431881,17 603.807181,20.6247003 603.807181,25.0964096 C603.807181,27.0208638 604.482297,28.7871267 605.603338,30.1772179 L600.252234,35.5283219 C599.915922,35.8646343 599.915922,36.4114533 600.252234,36.7477657 C600.588547,37.0840781 601.135366,37.0840781 601.471678,36.7477657 L606.822782,31.3966618 C608.212873,32.5177031 609.979136,33.1928191 611.90359,33.1928191 C616.3753,33.1928191 620,29.5681188 620,25.0964096 C620,20.6247003 616.3753,17 611.90359,17 Z M611.90359,31.9472176 C608.125681,31.9472176 605.052782,28.8743188 605.052782,25.0964096 C605.052782,21.3185003 608.125681,18.2456015 611.90359,18.2456015 C615.6815,18.2456015 618.754399,21.3185003 618.754399,25.0964096 C618.754399,28.8743188 615.6815,31.9472176 611.90359,31.9472176 Z" id="Shape" transform="translate(610.000000, 27.000000) scale(-1, 1) translate(-610.000000, -27.000000) "></path>
                </g>
            </g>
        </g>
    </g>
</svg>