<svg width="32" height="32" viewBox="0 0 32 32" fill="none" xmlns="http://www.w3.org/2000/svg">
<path fill-rule="evenodd" clip-rule="evenodd" d="M23.0845 0H0V32H32V8.91553C32 3.99164 28.0084 0 23.0845 0Z" fill="#F3E9FF"/>
<path fill-rule="evenodd" clip-rule="evenodd" d="M9.41152 5.47986L8.1109 9.63765C9.20312 9.97936 9.81161 11.1418 9.46991 12.234C9.12829 13.3263 7.96578 13.9348 6.87356 13.5931L5.57294 17.7509L24.0167 23.5204L27.8553 11.2494L9.41152 5.47986Z" fill="#D4B1EF"/>
<path fill-rule="evenodd" clip-rule="evenodd" d="M6.12971 17.4594L23.7253 22.9637L27.2985 11.5408L9.70301 6.03657L8.65594 9.38369C9.7159 9.93584 10.2631 11.187 9.89408 12.3667C9.525 13.5464 8.36213 14.2628 7.17669 14.1123L6.12971 17.4594ZM24.0167 23.9647C23.9722 23.9647 23.9275 23.9581 23.884 23.9445L5.44026 18.1749C5.20609 18.1017 5.07562 17.8524 5.14894 17.6182L6.44956 13.4604C6.52279 13.2263 6.77216 13.0959 7.00624 13.169C7.86268 13.4372 8.77778 12.9581 9.0459 12.1013C9.31385 11.2447 8.83492 10.3297 7.97822 10.0618C7.86571 10.0266 7.77195 9.9481 7.7172 9.84377C7.66255 9.73935 7.65162 9.61751 7.68681 9.505L8.98751 5.3472C9.06074 5.11303 9.31003 4.98266 9.54429 5.0558L27.988 10.8253C28.2221 10.8986 28.3527 11.1479 28.2793 11.382L24.4409 23.6531C24.4056 23.7655 24.3272 23.8594 24.2228 23.9141C24.1586 23.9477 24.0878 23.9647 24.0167 23.9647Z" fill="#A179C5"/>
<path fill-rule="evenodd" clip-rule="evenodd" d="M18.3194 12.4371C18.2145 12.4371 18.1106 12.4624 18.015 12.5124C17.8592 12.594 17.7446 12.7312 17.6922 12.899C17.6397 13.0668 17.6556 13.2449 17.7371 13.4006C17.8186 13.5564 17.9559 13.671 18.1237 13.7236C18.2914 13.7759 18.4695 13.76 18.6253 13.6785C18.7811 13.597 18.8957 13.4597 18.9482 13.2919C19.0565 12.9456 18.8629 12.5757 18.5167 12.4674C18.4518 12.4471 18.3854 12.4371 18.3194 12.4371ZM18.322 14.643C18.1668 14.643 18.0108 14.6194 17.8584 14.5717C17.4641 14.4483 17.1414 14.1788 16.9498 13.8128C16.7582 13.4467 16.7206 13.028 16.844 12.6337C16.9673 12.2393 17.2368 11.9167 17.6029 11.7251C17.969 11.5335 18.3877 11.4959 18.7819 11.6192C19.5959 11.8738 20.051 12.7432 19.7964 13.5572C19.6731 13.9516 19.4035 14.2742 19.0375 14.4659C18.813 14.5834 18.5685 14.643 18.322 14.643Z" fill="white"/>
<path fill-rule="evenodd" clip-rule="evenodd" d="M16.6808 17.6871L16.1573 16.969L21.8997 12.7828L22.4232 13.501L16.6808 17.6871Z" fill="white"/>
<path fill-rule="evenodd" clip-rule="evenodd" d="M20.3506 16.7445C20.0704 16.7445 19.81 16.925 19.722 17.2062C19.6138 17.5524 19.8074 17.9223 20.1536 18.0307C20.4998 18.1391 20.8698 17.9452 20.9782 17.5991C21.0864 17.2528 20.8929 16.883 20.5465 16.7745C20.4815 16.7542 20.4155 16.7445 20.3506 16.7445ZM20.3491 18.9496C20.1966 18.9496 20.0414 18.9268 19.8884 18.8789C19.0744 18.6242 18.6193 17.7549 18.8738 16.9408C19.1284 16.1269 19.9977 15.6717 20.8118 15.9264C21.6259 16.1811 22.081 17.0504 21.8264 17.8644H21.8263C21.6196 18.5253 21.0076 18.9496 20.3491 18.9496Z" fill="white"/>
<path fill-rule="evenodd" clip-rule="evenodd" d="M14.4116 7.04397L9.41152 5.47986L8.1109 9.63765C9.20312 9.97936 9.81161 11.1418 9.46991 12.234C9.1282 13.3263 7.96578 13.9347 6.87356 13.5931L5.57294 17.7508L10.5731 19.315L14.4116 7.04397Z" fill="#FFEBDE"/>
<path fill-rule="evenodd" clip-rule="evenodd" d="M6.12968 17.4594L10.2817 18.7582L13.8549 7.33539L9.70298 6.03655L8.656 9.38332C9.10959 9.61856 9.47991 9.98612 9.72182 10.4482C10.0336 11.0439 10.0947 11.7251 9.89405 12.3667C9.52506 13.5464 8.36184 14.2626 7.17666 14.1123L6.12968 17.4594ZM10.8645 19.8717L5.01623 18.0423L6.58212 13.0363L7.00612 13.169C7.86239 13.4368 8.77793 12.958 9.04587 12.1013C9.17562 11.6864 9.13608 11.2457 8.93452 10.8604C8.73287 10.4752 8.39321 10.1916 7.97818 10.0618L7.5541 9.92907L9.12008 4.9231L14.9684 6.75249L10.8645 19.8717Z" fill="#A179C5"/>
<path fill-rule="evenodd" clip-rule="evenodd" d="M4.75203 13.2623V17.6188C5.8965 17.6188 6.82422 18.5465 6.82422 19.691C6.82422 20.8354 5.8965 21.7632 4.75203 21.7632V26.1197H24.0771V13.2623H4.75203Z" fill="#D4B1EF"/>
<path fill-rule="evenodd" clip-rule="evenodd" d="M5.1964 25.6753H23.6328V13.7066H5.1964V17.2137C6.37277 17.4242 7.26858 18.455 7.26858 19.691C7.26858 20.927 6.37277 21.9578 5.1964 22.1683V25.6753ZM24.0772 26.564H4.75204C4.50659 26.564 4.30769 26.365 4.30769 26.1197V21.7632C4.30769 21.5178 4.50659 21.3188 4.75204 21.3188C5.64972 21.3188 6.37988 20.5886 6.37988 19.691C6.37988 18.7934 5.64972 18.0631 4.75204 18.0631C4.50659 18.0631 4.30769 17.8642 4.30769 17.6188V13.2623C4.30769 13.0169 4.50659 12.8179 4.75204 12.8179H24.0772C24.3226 12.8179 24.5215 13.0169 24.5215 13.2623V26.1197C24.5215 26.365 24.3226 26.564 24.0772 26.564Z" fill="#A179C5"/>
<path fill-rule="evenodd" clip-rule="evenodd" d="M15.5281 17.2128C15.1652 17.2128 14.8701 17.508 14.8701 17.8709C14.8701 18.2337 15.1652 18.529 15.5281 18.529C15.8909 18.529 16.1862 18.2337 16.1862 17.8709C16.1862 17.508 15.8909 17.2128 15.5281 17.2128ZM15.5281 19.4177C14.6752 19.4177 13.9814 18.7238 13.9814 17.8709C13.9814 17.018 14.6752 16.3241 15.5281 16.3241C16.381 16.3241 17.0749 17.018 17.0749 17.8709C17.0749 18.7238 16.381 19.4177 15.5281 19.4177Z" fill="white"/>
<path fill-rule="evenodd" clip-rule="evenodd" d="M15.3344 22.7425L14.6203 22.2135L18.851 16.5039L19.5651 17.033L15.3344 22.7425Z" fill="white"/>
<path fill-rule="evenodd" clip-rule="evenodd" d="M18.7513 20.7176C18.3885 20.7176 18.0933 21.0128 18.0933 21.3756C18.0933 21.7384 18.3885 22.0336 18.7513 22.0336C19.1142 22.0336 19.4093 21.7384 19.4093 21.3756C19.4093 21.0128 19.1142 20.7176 18.7513 20.7176ZM18.7513 22.9223C17.8984 22.9223 17.2046 22.2284 17.2046 21.3756C17.2046 20.5228 17.8984 19.8289 18.7513 19.8289C19.6042 19.8289 20.298 20.5228 20.298 21.3756C20.298 22.2284 19.6042 22.9223 18.7513 22.9223Z" fill="white"/>
<path fill-rule="evenodd" clip-rule="evenodd" d="M9.99111 13.2623H4.75203V17.6188C5.8965 17.6188 6.82422 18.5465 6.82422 19.691C6.82422 20.8354 5.8965 21.7632 4.75203 21.7632V26.1197H9.99111V13.2623Z" fill="#FFEBDE"/>
<path fill-rule="evenodd" clip-rule="evenodd" d="M5.19647 25.6752H9.54676V13.7066H5.19647V17.2136C6.37285 17.4242 7.26857 18.4549 7.26857 19.691C7.26857 20.927 6.37285 21.9577 5.19647 22.1682V25.6752ZM10.4355 26.5639H4.30777V21.3188H4.75212C5.64971 21.3188 6.37987 20.5886 6.37987 19.691C6.37987 18.7933 5.64971 18.0631 4.75212 18.0631H4.30777V12.8179H10.4355V26.5639Z" fill="#A179C5"/>
</svg>
