<?xml version="1.0" encoding="UTF-8"?>
<svg width="20px" height="20px" viewBox="0 0 20 20" version="1.1" xmlns="http://www.w3.org/2000/svg" xmlns:xlink="http://www.w3.org/1999/xlink">
    <title>icon - share</title>
    <g id="Page-1" stroke="none" stroke-width="1" fill="none" fill-rule="evenodd">
        <g id="LL21---Dropdown-3dots" transform="translate(-176.000000, -226.000000)">
            <g id="dropdown" transform="translate(160.000000, 56.000000)">
                <g id="icon---share" transform="translate(16.000000, 170.000000)">
                    <rect id="Rectangle" x="0" y="0" width="20" height="20"></rect>
                    <g id="Group-15" transform="translate(1.000000, 3.000000)">
                        <polygon id="Fill-1" fill="#D7CDF5" points="1.42302825 4.91227119 6.57285876 7.26413559 7.18687006 12.9219887 9.0379435 9.42662147 13.8228023 13.8141921 18.5518418 0.756112994"></polygon>
                        <polygon id="Fill-2" fill="#F3F0FC" points="6.57285876 7.26386441 7.18687006 12.9219435 9.0379435 9.42657627 18.5518418 0.756067797"></polygon>
                        <path d="M17.9624859,8.43769499e-14 L-6.57252031e-14,4.35887006 L5.53062147,6.8840678 L6.19728814,13.0259887 L8.21446328,9.21649718 L13.0268927,13.6291525 L17.9624859,8.43769499e-14 Z M5.86757062,6.64112994 L1.09875706,4.46350282 L17.3938983,0.50960452 L12.8714124,12.9968362 L8.11389831,8.63435028 L6.42915254,11.8160452 L5.86757062,6.64112994 Z" id="Fill-3" fill="#8B7FBF"></path>
                        <polygon id="Fill-4" fill="#8B7FBF" points="5.78506215 6.92149153 5.61308475 6.6039774 17.5208814 0.16239548 17.6926328 0.479909605"></polygon>
                        <polygon id="Fill-5" fill="#8B7FBF" points="8.34454237 8.90772881 8.10296045 8.63948023 17.4857853 0.187050847 17.7278192 0.455299435"></polygon>
                    </g>
                </g>
            </g>
        </g>
    </g>
</svg>