<svg width="12" height="14" viewBox="0 0 12 14" fill="none" xmlns="http://www.w3.org/2000/svg">
<path fill-rule="evenodd" clip-rule="evenodd" d="M0.791101 9.71979C0.791101 10.646 0.801737 11.5724 0.784801 12.4983C0.779565 12.7867 0.880037 12.8668 1.15822 12.8566C1.66058 12.8381 2.16417 12.8482 2.66719 12.8522C3.00363 12.8548 3.16407 12.707 3.16309 12.3654C3.1581 10.6203 3.1581 8.87531 3.16301 7.13027C3.16407 6.77582 3.00453 6.61124 2.64666 6.6148C2.14364 6.6198 1.63964 6.63362 1.13785 6.60882C0.83291 6.59379 0.781692 6.71652 0.785701 6.98153C0.799692 7.89412 0.791101 8.80704 0.791101 9.71979ZM0.00131016 9.75655C0.00131016 8.66686 -0.00155348 7.57716 0.00245561 6.48754C0.00450107 5.92698 0.104319 5.83374 0.675656 5.83196C1.2888 5.8301 1.90211 5.8381 2.51517 5.82954C3.03537 5.82235 3.49315 5.93958 3.7818 6.40828C3.92613 6.64259 4.08805 6.51784 4.23434 6.44108C5.01914 6.02959 5.4819 5.3408 5.85401 4.57776C6.07418 4.12619 6.18406 3.63988 6.29288 3.15535C6.36717 2.82465 6.55429 2.69133 6.89564 2.68584C8.00575 2.66807 8.69588 3.31904 8.70415 4.41157C8.70922 5.0745 8.61071 5.72531 8.44446 6.364C8.38947 6.57529 8.43586 6.61948 8.63861 6.61698C9.25167 6.60938 9.86613 6.63863 10.4779 6.60906C11.592 6.55517 12.1871 7.61731 11.649 8.43279C11.5593 8.56877 11.6206 8.65142 11.6815 8.75735C11.909 9.15252 11.916 9.55699 11.6771 9.94343C11.5816 10.0978 11.6125 10.1927 11.6905 10.3375C12.02 10.9488 11.8401 11.5737 11.226 11.9317C11.0581 12.0296 11.0137 12.1045 11.0447 12.3024C11.1448 12.9432 10.7022 13.5946 10.0719 13.6104C8.65767 13.646 7.23919 13.7176 5.82701 13.5659C5.24176 13.5031 4.70438 13.2499 4.14892 13.0715C3.97203 13.0147 3.8448 12.9772 3.70555 13.1751C3.47466 13.5033 3.12644 13.6433 2.71448 13.6388C2.00602 13.6311 1.29739 13.6391 0.588847 13.6361C0.123465 13.6341 0.00589198 13.5262 0.00335561 13.066C-0.00278075 11.9629 0.00139198 10.8597 0.00131016 9.75655Z" fill="#A775C8"/>
<path fill-rule="evenodd" clip-rule="evenodd" d="M7.9 1.12663C7.9 1.26091 7.90646 1.3956 7.89861 1.52939C7.88453 1.7696 7.73759 1.9059 7.50653 1.90841C7.28988 1.91083 7.14555 1.7692 7.12968 1.55703C7.10865 1.27691 7.10636 0.993554 7.12362 0.713272C7.13761 0.486154 7.27851 0.323511 7.51774 0.333773C7.77023 0.344599 7.90392 0.506676 7.90188 0.764012C7.9009 0.884883 7.90171 1.00575 7.90171 1.12663H7.9Z" fill="#A775C8"/>
<path fill-rule="evenodd" clip-rule="evenodd" d="M5.55915 2.71561C5.29847 2.71973 4.60605 2.01115 4.61807 1.75236C4.63166 1.45697 4.96441 1.27 5.20389 1.4526C5.44853 1.63916 5.65831 1.87315 5.86777 2.10043C5.97683 2.21879 5.96824 2.37416 5.89231 2.51491C5.82277 2.64394 5.70045 2.69759 5.55915 2.71561Z" fill="#A775C8"/>
<path fill-rule="evenodd" clip-rule="evenodd" d="M9.45721 2.71416C9.1675 2.70818 8.9605 2.36213 9.14041 2.13065C9.33702 1.87784 9.57405 1.64596 9.82875 1.44978C10.0617 1.27041 10.4092 1.47047 10.4197 1.75972C10.4289 2.01406 9.71748 2.71949 9.45721 2.71416Z" fill="#A775C8"/>
<path fill-rule="evenodd" clip-rule="evenodd" d="M2.37587 11.6803C2.3546 11.905 2.23768 12.0683 2.00008 12.075C1.7678 12.0815 1.6148 11.9422 1.60015 11.7053C1.58493 11.4593 1.74227 11.3226 1.96817 11.3074C2.20765 11.2912 2.33431 11.4493 2.37587 11.6803Z" fill="#A775C8"/>
</svg>
