<?xml version="1.0" encoding="UTF-8"?>
<svg width="19px" height="20px" viewBox="0 0 19 20" version="1.1" xmlns="http://www.w3.org/2000/svg" xmlns:xlink="http://www.w3.org/1999/xlink">
    <!-- Generator: Sketch 64 (93537) - https://sketch.com -->
    <title>Group 8</title>
    <desc>Created with Sketch.</desc>
    <defs>
        <polygon id="path-1" points="0 0.04056621 18.856347 0.04056621 18.856347 19.9086758 0 19.9086758"></polygon>
    </defs>
    <g id="Page-1" stroke="none" stroke-width="1" fill="none" fill-rule="evenodd">
        <g id="Group-8">
            <polygon id="Fill-1" fill="#A179C5" points="2.58456621 19.3348858 16.3367123 19.3348858 16.3367123 8.60109589 2.58456621 8.60109589"></polygon>
            <g id="Group-7" transform="translate(0.000000, 0.050776)">
                <mask id="mask-2" fill="white">
                    <use xlink:href="#path-1"></use>
                </mask>
                <g id="Clip-3"></g>
                <path d="M3.04118721,18.8274886 L15.8800913,18.8274886 L15.8800913,9.00694064 L3.04118721,9.00694064 L3.04118721,18.8274886 Z M16.3367123,19.7407306 L2.58456621,19.7407306 C2.33232877,19.7407306 2.12794521,19.5362557 2.12794521,19.2841096 L2.12794521,8.55031963 C2.12794521,8.29817352 2.33232877,8.09369863 2.58456621,8.09369863 L16.3367123,8.09369863 C16.5889498,8.09369863 16.7933333,8.29817352 16.7933333,8.55031963 L16.7933333,19.2841096 C16.7933333,19.5362557 16.5889498,19.7407306 16.3367123,19.7407306 L16.3367123,19.7407306 Z" id="Fill-2" fill="#A179C5" mask="url(#mask-2)"></path>
                <polygon id="Fill-4" fill="#A179C5" mask="url(#mask-2)" points="9.42817352 0.497196347 0.456666667 8.55719635 18.3996804 8.55719635"></polygon>
                <path d="M1.64813699,8.10056621 L17.2082283,8.10056621 L9.42813699,1.11106849 L1.64813699,8.10056621 Z M18.3997352,9.01380822 L0.456630137,9.01380822 C0.267497717,9.01380822 0.0979086758,8.89718721 0.0302374429,8.72056621 C-0.03743379,8.54394521 0.0107853881,8.34394521 0.151424658,8.21755251 L9.12302283,0.157552511 C9.29653881,0.00157077626 9.55982648,0.00157077626 9.73334247,0.157552511 L18.7048493,8.21755251 C18.8455799,8.34394521 18.8937991,8.54394521 18.8261279,8.72056621 C18.7583653,8.89718721 18.5888676,9.01380822 18.3997352,9.01380822 L18.3997352,9.01380822 Z" id="Fill-5" fill="#A179C5" mask="url(#mask-2)"></path>
                <path d="M12.3400274,19.9086758 L11.380758,19.9086758 L11.380758,13.7172603 L7.47555251,13.7172603 L7.47555251,19.9086758 L6.51628311,19.9086758 L6.51628311,13.2376256 C6.51628311,12.9726941 6.73107763,12.7579909 6.99591781,12.7579909 L11.8603927,12.7579909 C12.1252329,12.7579909 12.3400274,12.9726941 12.3400274,13.2376256 L12.3400274,19.9086758 Z" id="Fill-6" fill="#FFFFFF" mask="url(#mask-2)"></path>
            </g>
        </g>
    </g>
</svg>