<?xml version="1.0" encoding="UTF-8"?>
<svg width="16px" height="21px" viewBox="0 0 16 21" version="1.1" xmlns="http://www.w3.org/2000/svg" xmlns:xlink="http://www.w3.org/1999/xlink">
    <!-- Generator: Sketch 64 (93537) - https://sketch.com -->
    <title>Group 8</title>
    <desc>Created with Sketch.</desc>
    <defs>
        <polygon id="path-1" points="0 0.00970666667 12.5800727 0.00970666667 12.5800727 4.26666667 0 4.26666667"></polygon>
    </defs>
    <g id="Page-1" stroke="none" stroke-width="1" fill="none" fill-rule="evenodd">
        <g id="Group-8">
            <path d="M13.7789285,8.00711758 L13.3470255,7.22340848 C13.6256194,7.06980848 13.8812315,6.87771152 14.1066861,6.65216 C14.74368,6.01516606 15.0945164,5.16823273 15.0945164,4.26738424 C15.0945164,2.40779636 13.5815952,0.894875152 11.7220073,0.894875152 C9.86241939,0.894875152 8.34949818,2.40779636 8.34949818,4.26738424 C8.34949818,5.01414788 8.58852848,5.72154182 9.04060121,6.31315394 L8.32961939,6.85647515 C7.75720727,6.10748121 7.45466182,5.21216 7.45466182,4.26738424 C7.45466182,1.91431758 9.36894061,3.87878788e-05 11.7220073,3.87878788e-05 C14.0750739,3.87878788e-05 15.9893527,1.91431758 15.9893527,4.26738424 C15.9893527,5.40726303 15.5455224,6.47887515 14.7395103,7.28488727 C14.4545164,7.56988121 14.1313164,7.81298424 13.7789285,8.00711758" id="Fill-1" fill="#A179C5"></path>
            <g id="Group-5" transform="translate(0.000000, 15.855224)">
                <mask id="mask-2" fill="white">
                    <use xlink:href="#path-1"></use>
                </mask>
                <g id="Clip-4"></g>
                <path d="M0,0.00970666667 L0,3.78182788 C0,4.04956121 0.217115152,4.26667636 0.484848485,4.26667636 L12.0952242,4.26667636 C12.3630545,4.26667636 12.5800727,4.04956121 12.5800727,3.78182788 L12.5800727,0.00970666667 L0,0.00970666667 Z" id="Fill-3" fill="#A179C5" mask="url(#mask-2)"></path>
            </g>
            <path d="M8.29559273,5.23150545 C8.94926545,5.23150545 9.48114424,5.76328727 9.48114424,6.41696 C9.48114424,7.07063273 8.94926545,7.60251152 8.29559273,7.60251152 C7.64192,7.60251152 7.11004121,7.07063273 7.11004121,6.41696 C7.11004121,5.76328727 7.64192,5.23150545 8.29559273,5.23150545 L8.29559273,5.23150545 Z M12.5801018,14.8865842 L12.5801018,2.73676606 C12.5801018,2.46903273 12.3629867,2.25191758 12.0952533,2.25191758 L2.23033212,2.25191758 C1.00056242,2.25191758 2.90909091e-05,3.25245091 2.90909091e-05,4.48222061 L2.90909091e-05,14.8865842 L12.5801018,14.8865842 Z" id="Fill-6" fill="#A179C5"></path>
        </g>
    </g>
</svg>