<?xml version="1.0" encoding="UTF-8"?>
<svg width="14px" height="14px" viewBox="0 0 14 14" version="1.1" xmlns="http://www.w3.org/2000/svg" xmlns:xlink="http://www.w3.org/1999/xlink">
    <title>Time-2</title>
    <g id="Symbols" stroke="none" stroke-width="1" fill="none" fill-rule="evenodd">
        <g id="Components/List/Promo" transform="translate(-12.000000, -187.000000)" fill="#8B7FBF">
            <g id="Group-3" transform="translate(12.000000, 184.000000)">
                <g id="Time-2" transform="translate(0.000000, 3.000000)">
                    <path d="M7.06844444,0.124444444 C3.28836216,0.124444444 0.224,3.1888066 0.224,6.96888889 C0.224,10.7489712 3.28836216,13.8133333 7.06844444,13.8133333 C10.8485267,13.8133333 13.9128889,10.7489712 13.9128889,6.96888889 C13.9128889,3.1888066 10.8485267,0.124444444 7.06844444,0.124444444 Z M7.06844444,12.88 C3.80382792,12.88 1.15733333,10.2335054 1.15733333,6.96888889 C1.15733333,3.70427237 3.80382792,1.05777778 7.06844444,1.05777778 C10.333061,1.05777778 12.9795556,3.70427237 12.9795556,6.96888889 C12.9795556,10.2335054 10.333061,12.88 7.06844444,12.88 Z" id="Shape"></path>
                    <path d="M10.1795556,6.65777778 L7.37955556,6.65777778 L7.37955556,3.23555556 C7.37955556,2.97782267 7.17062177,2.76888889 6.91288889,2.76888889 C6.65515601,2.76888889 6.44622222,2.97782267 6.44622222,3.23555556 L6.44622222,7.59111111 L10.1795556,7.59111111 C10.4372884,7.59111111 10.6462222,7.38217733 10.6462222,7.12444444 C10.6462222,6.86671156 10.4372884,6.65777778 10.1795556,6.65777778 L10.1795556,6.65777778 Z" id="Shape"></path>
                </g>
            </g>
        </g>
    </g>
</svg>