<svg width="40" height="34" viewBox="0 0 40 34" fill="none" xmlns="http://www.w3.org/2000/svg">
<g id="Group 40">
<path id="Fill 4" fill-rule="evenodd" clip-rule="evenodd" d="M1.32202 16.9373H12.7926V5.4668H1.32202V16.9373Z" fill="#D4B1EF"/>
<path id="Fill 6" fill-rule="evenodd" clip-rule="evenodd" d="M12.7925 16.9373H24.263V5.4668H12.7925V16.9373Z" fill="#D4B1EF"/>
<path id="Fill 7" fill-rule="evenodd" clip-rule="evenodd" d="M1.32202 28.408H12.7926V16.9375H1.32202V28.408Z" fill="#D4B1EF"/>
<path id="Fill 8" fill-rule="evenodd" clip-rule="evenodd" d="M12.7925 28.408H24.263V16.9375H12.7925V28.408Z" fill="#D4B1EF"/>
<path id="Fill 9" fill-rule="evenodd" clip-rule="evenodd" d="M5.29097 1.44414C5.63207 3.31893 7.27709 4.74487 9.24878 4.74487H12.0056C11.6645 2.87009 10.0195 1.44414 8.04783 1.44414H5.29097ZM12.7926 6.18901H9.24878C6.23428 6.18901 3.78198 3.73657 3.78198 0.722071C3.78198 0.323343 4.10518 0 4.50405 0H8.04783C11.0623 0 13.5146 2.45244 13.5146 5.46694C13.5146 5.86567 13.1914 6.18901 12.7926 6.18901Z" fill="#A179C5"/>
<path id="Fill 10" fill-rule="evenodd" clip-rule="evenodd" d="M13.5795 4.74487H16.3363C18.3081 4.74487 19.9531 3.31893 20.2942 1.44414H17.5374C15.5657 1.44414 13.9206 2.87009 13.5795 4.74487ZM16.3363 6.18901H12.7926C12.3938 6.18901 12.0706 5.86567 12.0706 5.46694C12.0706 2.45244 14.5229 0 17.5374 0H21.0811C21.48 0 21.8032 0.323343 21.8032 0.722071C21.8032 3.73657 19.3508 6.18901 16.3363 6.18901Z" fill="#A179C5"/>
<path id="Fill 11" fill-rule="evenodd" clip-rule="evenodd" d="M12.0703 28.4077H13.5145V5.4668H12.0703V28.4077Z" fill="#A179C5"/>
<path id="Fill 12" fill-rule="evenodd" clip-rule="evenodd" d="M1.32227 17.6595H24.2632V16.2153H1.32227V17.6595Z" fill="#A179C5"/>
<path id="Fill 13" fill-rule="evenodd" clip-rule="evenodd" d="M2.04424 27.6855H23.541V6.18877H2.04424V27.6855ZM0.600098 29.1297H24.9852V4.74463H0.600098V29.1297Z" fill="#A179C5"/>
<path id="Fill 14" fill-rule="evenodd" clip-rule="evenodd" d="M12.7606 28.4078C12.7606 30.7893 10.8301 32.7198 8.44854 32.7198C6.06715 32.7198 4.13647 30.7893 4.13647 28.4078C4.13647 26.0262 6.06715 24.0957 8.44854 24.0957C10.8301 24.0957 12.7606 26.0262 12.7606 28.4078Z" fill="white"/>
<path id="Fill 15" fill-rule="evenodd" clip-rule="evenodd" d="M8.44854 24.8177C6.46905 24.8177 4.85869 26.4282 4.85869 28.4077C4.85869 30.3872 6.46905 31.9977 8.44854 31.9977C10.428 31.9977 12.0384 30.3872 12.0384 28.4077C12.0384 26.4282 10.428 24.8177 8.44854 24.8177ZM8.44854 33.4418C5.67276 33.4418 3.41455 31.1835 3.41455 28.4077C3.41455 25.6319 5.67276 23.3735 8.44854 23.3735C11.2243 23.3735 13.4825 25.6319 13.4825 28.4077C13.4825 31.1835 11.2243 33.4418 8.44854 33.4418Z" fill="#A179C5"/>
<path id="Fill 16" fill-rule="evenodd" clip-rule="evenodd" d="M33.7 18.2862H24.2629V8.84912H28.8348C31.5218 8.84912 33.7 11.0273 33.7 13.7143V18.2862Z" fill="#FFEBDE"/>
<path id="Fill 17" fill-rule="evenodd" clip-rule="evenodd" d="M24.9852 17.564H32.9779V13.7142C32.9779 11.4297 31.1194 9.57109 28.8348 9.57109H24.9852V17.564ZM34.422 19.0081H23.541V8.12695H28.8348C31.9156 8.12695 34.422 10.6334 34.422 13.7142V19.0081Z" fill="#A179C5"/>
<path id="Fill 18" fill-rule="evenodd" clip-rule="evenodd" d="M38.5703 28.408H24.2629V16.9375H34.5291C36.761 16.9375 38.5703 18.747 38.5703 20.9789V28.408Z" fill="#FFEBDE"/>
<path id="Fill 19" fill-rule="evenodd" clip-rule="evenodd" d="M24.9852 27.6859H37.8483V20.9788C37.8483 19.1485 36.3594 17.6595 34.5291 17.6595H24.9852V27.6859ZM39.2924 29.13H23.541V16.2153H34.5291C37.1555 16.2153 39.2924 18.3522 39.2924 20.9788V29.13Z" fill="#A179C5"/>
<path id="Fill 20" fill-rule="evenodd" clip-rule="evenodd" d="M36.0025 28.4078C36.0025 30.7893 34.072 32.7198 31.6905 32.7198C29.3091 32.7198 27.3784 30.7893 27.3784 28.4078C27.3784 26.0262 29.3091 24.0957 31.6905 24.0957C34.072 24.0957 36.0025 26.0262 36.0025 28.4078Z" fill="white"/>
<path id="Fill 21" fill-rule="evenodd" clip-rule="evenodd" d="M31.6901 24.8176C29.7106 24.8176 28.1001 26.4281 28.1001 28.4076C28.1001 30.3871 29.7106 31.9976 31.6901 31.9976C33.6696 31.9976 35.2799 30.3871 35.2799 28.4076C35.2799 26.4281 33.6696 24.8176 31.6901 24.8176ZM31.6901 33.4418C28.9142 33.4418 26.656 31.1835 26.656 28.4077C26.656 25.6319 28.9142 23.3735 31.6901 23.3735C34.4659 23.3735 36.7241 25.6319 36.7241 28.4077C36.7241 31.1835 34.4659 33.4418 31.6901 33.4418Z" fill="#A179C5"/>
</g>
</svg>
