<?xml version="1.0" encoding="UTF-8"?>
<svg width="18px" height="21px" viewBox="0 0 18 21" version="1.1" xmlns="http://www.w3.org/2000/svg" xmlns:xlink="http://www.w3.org/1999/xlink">
    <title>noun_Calendar_3376238</title>
    <g id="Page-1" stroke="none" stroke-width="1" fill="none" fill-rule="evenodd">
        <g id="LL21---profliling-01---expecting-Copy" transform="translate(-312.000000, -543.000000)">
            <g id="Group-22" transform="translate(0.000000, 395.000000)">
                <g id="Group-5" transform="translate(16.000000, 109.000000)">
                    <g id="noun_Calendar_3376238" transform="translate(296.000000, 39.000000)">
                        <path d="M12.7567568,0.72 C12.7590408,0.470157969 12.9099342,0.245693483 13.1404278,0.149262472 C13.3709214,0.0528314599 13.6367012,0.102973491 13.8162162,0.276756757 C13.932631,0.394910263 13.9978725,0.554130653 13.9978379,0.72 L13.9978379,2.31567568 C13.9978379,2.65839074 13.7200124,2.93621618 13.3772973,2.93621618 C13.0345822,2.93621618 12.7567568,2.65839074 12.7567568,2.31567568 L12.7567568,0.72 L12.7567568,0.72 Z" id="Path" fill="#A775C8" fill-rule="nonzero"></path>
                        <path d="M3.72324324,0.72 C3.72552725,0.470157969 3.87642064,0.245693483 4.10691428,0.149262472 C4.33740792,0.0528314599 4.60318771,0.102973491 4.7827027,0.276756757 C4.90229095,0.393498329 4.97071391,0.552892732 4.97297297,0.72 L4.97297297,2.31567568 C4.97297297,2.53737346 4.85469863,2.74223067 4.66270271,2.85307957 C4.47070679,2.96392847 4.23415807,2.96392847 4.04216215,2.85307957 C3.85016624,2.74223067 3.73189188,2.53737346 3.73189189,2.31567568 L3.73189189,0.72 L3.72324324,0.72 Z" id="Path" fill="#A775C8" fill-rule="nonzero"></path>
                        <path d="M17.7297297,17.943029 C17.7285388,19.1034662 17.0390284,20.0437815 16.1881081,20.0454056 L1.54162162,20.0454056 C0.690701299,20.0437815 0.00119093292,19.1034662 0,17.943029 L0,3.54162162 C0.00119093292,2.6907013 0.690701299,2.00119093 1.54162162,2 L3.01405405,2 L3.01405405,2.46054054 C3.01405405,3.19492999 3.60939433,3.79027027 4.34378378,3.79027027 C5.07817323,3.79027027 5.67351351,3.19492999 5.67351351,2.46054054 L5.67351351,2 L12.0562162,2 L12.0562162,2.46054054 C12.0562162,3.19492997 12.6515565,3.79027021 13.3859459,3.79027021 C14.1203354,3.79027021 14.7156756,3.19492997 14.7156757,2.46054054 L14.7156757,2 L16.1881081,2 C17.0390284,2.00119093 17.7285388,2.6907013 17.7297297,3.54162162 L17.7297297,17.943029 Z" id="Path-2" fill="#A775C8" fill-rule="nonzero"></path>
                        <rect id="Rectangle" fill="#FFFFFF" x="5" y="7" width="8" height="8" rx="1"></rect>
                    </g>
                </g>
            </g>
        </g>
    </g>
</svg>