<?xml version="1.0" encoding="UTF-8"?>
<svg width="13px" height="14px" viewBox="0 0 13 14" version="1.1" xmlns="http://www.w3.org/2000/svg" xmlns:xlink="http://www.w3.org/1999/xlink">
    <!-- Generator: Sketch 64 (93537) - https://sketch.com -->
    <title>noun_Settings_943929</title>
    <desc>Created with Sketch.</desc>
    <g id="Page-1" stroke="none" stroke-width="1" fill="none" fill-rule="evenodd">
        <g id="noun_Settings_943929" fill="#9789C3" fill-rule="nonzero">
            <g id="Group">
                <path d="M12.0627907,6.39767442 L10.8255814,6.39767442 C10.5651163,5.48604651 9.73488372,4.81860465 8.75813953,4.81860465 C7.78139535,4.81860465 6.95116279,5.50232558 6.6744186,6.39767442 L0.634883721,6.39767442 C0.309302326,6.39767442 0.0325581395,6.65813953 0.0325581395,7 C0.0325581395,7.3255814 0.293023256,7.60232558 0.634883721,7.60232558 L6.6744186,7.60232558 C6.93488372,8.51395349 7.76511628,9.18139535 8.74186047,9.18139535 C9.71860465,9.18139535 10.5488372,8.51395349 10.8093023,7.60232558 L12.0465116,7.60232558 C12.372093,7.60232558 12.6488372,7.34186047 12.6488372,7 C12.6651163,6.6744186 12.4046512,6.39767442 12.0627907,6.39767442 Z M8.75813953,7.97674419 C8.2372093,7.97674419 7.78139535,7.55348837 7.78139535,7 C7.78139535,6.44651163 8.20465116,6.02325581 8.75813953,6.02325581 C9.31162791,6.02325581 9.73488372,6.44651163 9.73488372,7 C9.73488372,7.55348837 9.27906977,7.97674419 8.75813953,7.97674419 Z" id="Shape"></path>
                <path d="M0.634883721,2.83255814 L1.92093023,2.83255814 C2.18139535,3.74418605 3.01162791,4.41162791 3.98837209,4.41162791 C4.96511628,4.41162791 5.79534884,3.74418605 6.05581395,2.83255814 L12.0627907,2.83255814 C12.3883721,2.83255814 12.6651163,2.57209302 12.6651163,2.23023256 C12.6651163,1.88837209 12.4046512,1.62790698 12.0627907,1.62790698 L6.05581395,1.62790698 C5.79534884,0.71627907 4.96511628,0.0488372093 3.98837209,0.0488372093 C3.01162791,0.0488372093 2.18139535,0.71627907 1.92093023,1.62790698 L0.634883721,1.62790698 C0.309302326,1.62790698 0.0325581395,1.88837209 0.0325581395,2.23023256 C0.0325581395,2.57209302 0.293023256,2.83255814 0.634883721,2.83255814 Z M3.98837209,1.25348837 C4.50930233,1.25348837 4.96511628,1.67674419 4.96511628,2.23023256 C4.96511628,2.78372093 4.54186047,3.20697674 3.98837209,3.20697674 C3.43488372,3.20697674 3.01162791,2.75116279 3.01162791,2.23023256 C3.01162791,1.70930233 3.46744186,1.25348837 3.98837209,1.25348837 Z" id="Shape"></path>
                <path d="M12.0627907,11.1674419 L6.05581395,11.1674419 C5.79534884,10.255814 4.96511628,9.58837209 3.98837209,9.58837209 C3.01162791,9.58837209 2.18139535,10.255814 1.92093023,11.1674419 L0.634883721,11.1674419 C0.309302326,11.1674419 0.0325581395,11.427907 0.0325581395,11.7697674 C0.0325581395,12.1116279 0.293023256,12.372093 0.634883721,12.372093 L1.92093023,12.372093 C2.18139535,13.2837209 3.01162791,13.9511628 3.98837209,13.9511628 C4.96511628,13.9511628 5.79534884,13.2837209 6.05581395,12.372093 L12.0627907,12.372093 C12.3883721,12.372093 12.6651163,12.1116279 12.6651163,11.7697674 C12.6651163,11.427907 12.4046512,11.1674419 12.0627907,11.1674419 Z M3.98837209,12.7465116 C3.46744186,12.7465116 3.01162791,12.3232558 3.01162791,11.7697674 C3.01162791,11.2162791 3.43488372,10.7930233 3.98837209,10.7930233 C4.54186047,10.7930233 4.96511628,11.2162791 4.96511628,11.7697674 C4.96511628,12.3232558 4.50930233,12.7465116 3.98837209,12.7465116 Z" id="Shape"></path>
            </g>
        </g>
    </g>
</svg>