<?xml version="1.0" encoding="UTF-8"?>
<svg width="14px" height="14px" viewBox="0 0 14 14" version="1.1" xmlns="http://www.w3.org/2000/svg" xmlns:xlink="http://www.w3.org/1999/xlink">
    <title>icon_close_alt</title>
    <g id="Page-1" stroke="none" stroke-width="1" fill="none" fill-rule="evenodd">
        <g id="LL21---Search---typing" transform="translate(-318.000000, -23.000000)" fill="#8B7FBF" fill-rule="nonzero">
            <g id="Search-Bar" transform="translate(51.000000, 12.000000)">
                <g id="icon_close_alt" transform="translate(267.000000, 11.000000)">
                    <path d="M7,0 C3.13413333,0 0,3.13413333 0,7 C0,10.8658667 3.13413333,14 7,14 C10.8658667,14 14,10.8658667 14,7 C14,3.13413333 10.8658667,0 7,0 Z M10.2433333,4.41653333 L7.64213333,7.01773333 L9.94373333,9.58346667 C10.1257333,9.76546667 10.1257333,10.0613333 9.94373333,10.2433333 C9.76173333,10.4253333 9.46586667,10.4253333 9.28386667,10.2433333 L6.98226667,7.6776 L4.41653333,10.2433333 C4.23453333,10.4253333 3.93866667,10.4253333 3.75666667,10.2433333 C3.57466667,10.0613333 3.57466667,9.76546667 3.75666667,9.58346667 L6.35786667,6.98226667 L4.05626667,4.41653333 C3.87426667,4.23453333 3.87426667,3.93866667 4.05626667,3.75666667 C4.23826667,3.57466667 4.53413333,3.57466667 4.71613333,3.75666667 L7.01773333,6.3224 L9.58346667,3.75666667 C9.76546667,3.57466667 10.0613333,3.57466667 10.2433333,3.75666667 C10.4253333,3.93866667 10.4253333,4.23453333 10.2433333,4.41653333 Z" id="Shape"></path>
                </g>
            </g>
        </g>
    </g>
</svg>