<?xml version="1.0" encoding="UTF-8"?>
<svg width="19px" height="19px" viewBox="0 0 19 19" version="1.1" xmlns="http://www.w3.org/2000/svg" xmlns:xlink="http://www.w3.org/1999/xlink">
    <!-- Generator: Sketch 64 (93537) - https://sketch.com -->
    <title>Group 12</title>
    <desc>Created with Sketch.</desc>
    <defs>
        <polygon id="path-1" points="0.0330680551 0.0729247406 14.7772043 0.0729247406 14.7772043 14.8170256 0.0330680551 14.8170256"></polygon>
    </defs>
    <g id="Page-1" stroke="none" stroke-width="1" fill="none" fill-rule="evenodd">
        <g id="Group-12">
            <polygon id="Fill-1" fill="#A179C5" points="10.9553733 18.5781301 6.70912033 12.3109337 17.1454021 1.87474039"></polygon>
            <g id="Group-11" transform="translate(0.000000, 0.015469)">
                <path d="M7.27983377,12.3498181 L10.8394451,17.60367 L16.0285044,3.60114744 L7.27983377,12.3498181 Z M10.9553291,19.0046205 C10.8099216,19.0046205 10.6722927,18.9328449 10.5894679,18.8105965 L6.34330332,12.5434001 C6.22441389,12.3679388 6.24677748,12.1328117 6.39660467,11.9829845 L16.8328864,1.54670281 C16.9797966,1.399881 17.2092665,1.37504239 17.3839323,1.4872139 C17.5587749,1.59929702 17.6319648,1.81807124 17.5598356,2.0128024 L11.3698068,18.7161921 C11.3122626,18.8714997 11.1727774,18.9815498 11.0084537,19.0014384 C10.9905982,19.0035598 10.9729194,19.0046205 10.9553291,19.0046205 L10.9553291,19.0046205 Z" id="Fill-2" fill="#A179C5"></path>
                <polygon id="Fill-4" fill="#A179C5" points="0.441976964 8.04925608 6.70917337 12.295509 17.1453667 1.85922731"></polygon>
                <path d="M1.40101244,8.16518432 L6.65486433,11.7247956 L15.403535,2.97612496 L1.40101244,8.16518432 Z M6.70904962,12.737433 C6.62304262,12.737433 6.53668205,12.7124176 6.46128229,12.6613261 L0.194085882,8.41516149 C0.05698737,8.32225979 -0.0166445196,8.16058785 0.00324404604,7.99617571 C0.023044218,7.83185196 0.133182675,7.69236682 0.28840188,7.63482257 L16.9917916,1.4447938 C17.1865228,1.37257621 17.405297,1.44585452 17.5174685,1.62069711 C17.6295516,1.7955397 17.6048014,2.02492116 17.4578912,2.17174297 L7.02169787,12.6080247 C6.93622124,12.6934129 6.822989,12.737433 6.70904962,12.737433 L6.70904962,12.737433 Z" id="Fill-6" fill="#A179C5"></path>
                <g id="Group-10" transform="translate(4.154500, 0.000000)">
                    <mask id="mask-2" fill="white">
                        <use xlink:href="#path-1"></use>
                    </mask>
                    <g id="Clip-9"></g>
                    <polygon id="Fill-8" fill="#FFFFFF" mask="url(#mask-2)" points="0.699644381 14.8170256 0.0330680551 14.1504493 14.1106368 0.0728805438 14.7772131 0.73945687"></polygon>
                </g>
            </g>
        </g>
    </g>
</svg>