<svg width="32" height="32" viewBox="0 0 32 32" fill="none" xmlns="http://www.w3.org/2000/svg">
<path fill-rule="evenodd" clip-rule="evenodd" d="M23.0845 0H0V32H32V8.91553C32 3.99164 28.0084 0 23.0845 0Z" fill="#F3E9FF"/>
<path fill-rule="evenodd" clip-rule="evenodd" d="M22.3852 27.1427H9.05988V12.0048L14.654 8.25541C15.3004 7.82217 16.1445 7.82217 16.791 8.25541L22.3852 12.0048V27.1427Z" fill="#FFEBDE"/>
<path fill-rule="evenodd" clip-rule="evenodd" d="M9.50409 26.6983H21.9407V12.2418L16.5435 8.62444C16.045 8.29029 15.4003 8.2902 14.9014 8.62444L9.50409 12.2418V26.6983ZM22.385 27.587H9.05974C8.81428 27.587 8.61539 27.388 8.61539 27.1426V12.0047C8.61539 11.8565 8.68924 11.7181 8.81241 11.6355L14.4065 7.88629C15.2058 7.35049 16.2389 7.35049 17.0383 7.88629L22.6325 11.6355C22.7555 11.7181 22.8294 11.8565 22.8294 12.0047V27.1426C22.8294 27.388 22.6305 27.587 22.385 27.587Z" fill="#A179C5"/>
<path fill-rule="evenodd" clip-rule="evenodd" d="M11.9164 16.3098C12.1125 16.3098 12.2224 16.2117 12.2224 16.0272C12.2224 15.8703 12.1165 15.7486 11.9243 15.7486H11.5828V16.3098H11.9164ZM11.9085 15.2385C12.0576 15.2385 12.1636 15.113 12.1636 14.9561C12.1636 14.7991 12.0576 14.6892 11.9085 14.6892H11.5828V15.2385H11.9085ZM12.3559 15.4739C12.5952 15.5525 12.8738 15.733 12.8738 16.1135C12.8738 16.5766 12.4853 16.8708 12.0184 16.8708H11.0454C11.0022 16.8708 10.9707 16.8355 10.9707 16.7963V14.1987C10.9707 14.1595 11.0022 14.1243 11.0454 14.1243H11.9596C12.4225 14.1243 12.8032 14.442 12.8032 14.8541C12.8032 15.168 12.5794 15.3798 12.3559 15.4701V15.4739Z" fill="#A179C5"/>
<path fill-rule="evenodd" clip-rule="evenodd" d="M13.6311 14.1988C13.6311 14.1595 13.6664 14.1242 13.7056 14.1242H14.1883C14.2313 14.1242 14.2628 14.1595 14.2628 14.1988V15.835C14.2628 16.1214 14.4668 16.2822 14.7453 16.2822C15.0279 16.2822 15.2358 16.1214 15.2358 15.835V14.1988C15.2358 14.1595 15.2673 14.1242 15.3105 14.1242H15.793C15.8323 14.1242 15.8676 14.1595 15.8676 14.1988V15.8663C15.8676 16.4628 15.3654 16.9101 14.7453 16.9101C14.1293 16.9101 13.6311 16.4628 13.6311 15.8663V14.1988Z" fill="#A179C5"/>
<path fill-rule="evenodd" clip-rule="evenodd" d="M17.3155 15.5485L16.4483 14.238C16.417 14.187 16.4483 14.1242 16.5112 14.1242H17.0213C17.0526 14.1242 17.0722 14.1438 17.084 14.1596L17.6294 14.9639L18.1748 14.1596C18.1866 14.1438 18.2023 14.1242 18.2376 14.1242H18.7477C18.8104 14.1242 18.8418 14.187 18.8104 14.238L17.9315 15.5446V16.7963C17.9315 16.8355 17.8962 16.8708 17.857 16.8708H17.39C17.3469 16.8708 17.3155 16.8355 17.3155 16.7963V15.5485Z" fill="#A179C5"/>
<path fill-rule="evenodd" clip-rule="evenodd" d="M20.0652 14.9757H19.6768C19.6376 14.9757 19.6062 14.9404 19.6062 14.8972V14.6421C19.6062 14.6108 19.618 14.595 19.6297 14.5833L20.1555 14.1713C20.1987 14.1398 20.2418 14.1242 20.2968 14.1242H20.591C20.6303 14.1242 20.6656 14.1595 20.6656 14.1988V16.7924C20.6656 16.8356 20.6303 16.8708 20.591 16.8708H20.1437C20.0967 16.8708 20.0652 16.8356 20.0652 16.7924V14.9757Z" fill="#A179C5"/>
<path fill-rule="evenodd" clip-rule="evenodd" d="M12.3657 18.1534C12.6953 18.1534 13.0562 18.2907 13.3231 18.5223C13.3584 18.5497 13.3623 18.5968 13.3309 18.6282L13.021 18.9577C12.9895 18.9853 12.9465 18.9853 12.915 18.9617C12.7659 18.8244 12.5933 18.7734 12.401 18.7734C11.9733 18.7734 11.628 19.1343 11.628 19.5659C11.628 19.9937 11.9773 20.3468 12.4049 20.3468C12.5187 20.3468 12.6365 20.3311 12.7542 20.284V20.0564H12.5069C12.4637 20.0564 12.4325 20.025 12.4325 19.9859V19.5974C12.4325 19.5542 12.4637 19.5228 12.5069 19.5228H13.2956C13.3349 19.5228 13.3662 19.5581 13.3662 19.5974L13.3702 20.6529C13.3702 20.6882 13.3544 20.7038 13.3388 20.7156C13.3388 20.7156 12.9347 20.9706 12.3657 20.9706C11.5848 20.9706 10.957 20.3508 10.957 19.5659C10.957 18.7812 11.5848 18.1534 12.3657 18.1534Z" fill="#A179C5"/>
<path fill-rule="evenodd" clip-rule="evenodd" d="M14.2681 18.2633C14.2681 18.224 14.2996 18.1887 14.3427 18.1887H15.9671C16.0103 18.1887 16.0417 18.224 16.0417 18.2633V18.691C16.0417 18.7302 16.0103 18.7655 15.9671 18.7655H14.8802V19.2521H15.7748C15.8141 19.2521 15.8495 19.2873 15.8495 19.3266V19.7543C15.8495 19.7974 15.8141 19.8288 15.7748 19.8288H14.8802V20.3586H15.9671C16.0103 20.3586 16.0417 20.3939 16.0417 20.4331V20.8608C16.0417 20.9001 16.0103 20.9353 15.9671 20.9353H14.3427C14.2996 20.9353 14.2681 20.9001 14.2681 20.8608V18.2633Z" fill="#A179C5"/>
<path fill-rule="evenodd" clip-rule="evenodd" d="M17.3194 18.7655H16.7582C16.7152 18.7655 16.6837 18.7303 16.6837 18.691V18.2633C16.6837 18.2241 16.7152 18.1888 16.7582 18.1888H18.5004C18.5436 18.1888 18.575 18.2241 18.575 18.2633V18.691C18.575 18.7303 18.5436 18.7655 18.5004 18.7655H17.9394V20.8608C17.9394 20.9 17.904 20.9354 17.8647 20.9354H17.3939C17.3547 20.9354 17.3194 20.9 17.3194 20.8608V18.7655Z" fill="#A179C5"/>
<path fill-rule="evenodd" clip-rule="evenodd" d="M20.0652 19.0402H19.6768C19.6376 19.0402 19.6062 19.0049 19.6062 18.9617V18.7067C19.6062 18.6753 19.618 18.6596 19.6297 18.6478L20.1555 18.2358C20.1987 18.2044 20.2418 18.1887 20.2967 18.1887H20.591C20.6303 18.1887 20.6656 18.224 20.6656 18.2633V20.8569C20.6656 20.9001 20.6303 20.9353 20.591 20.9353H20.1437C20.0967 20.9353 20.0652 20.9001 20.0652 20.8569V19.0402Z" fill="#A179C5"/>
<path fill-rule="evenodd" clip-rule="evenodd" d="M9.0598 27.2026H22.3851V23.3767H9.0598V27.2026Z" fill="#D4B1EF"/>
<path fill-rule="evenodd" clip-rule="evenodd" d="M9.50417 26.7581H21.9408V23.821H9.50417V26.7581ZM22.3851 27.6468H9.05981C8.81435 27.6468 8.61546 27.4479 8.61546 27.2025V23.3766C8.61546 23.1312 8.81435 22.9323 9.05981 22.9323H22.3851C22.6306 22.9323 22.8295 23.1312 22.8295 23.3766V27.2025C22.8295 27.4479 22.6306 27.6468 22.3851 27.6468Z" fill="#A179C5"/>
<path fill-rule="evenodd" clip-rule="evenodd" d="M16.5739 11.0419C16.5739 11.4665 16.2298 11.8106 15.8052 11.8106C15.3807 11.8106 15.0366 11.4665 15.0366 11.0419C15.0366 10.6174 15.3807 10.2732 15.8052 10.2732C16.2298 10.2732 16.5739 10.6174 16.5739 11.0419Z" fill="#F3E9FF"/>
<path fill-rule="evenodd" clip-rule="evenodd" d="M15.8052 10.7176C15.6263 10.7176 15.4809 10.863 15.4809 11.0418C15.4809 11.2207 15.6263 11.3662 15.8052 11.3662C15.9841 11.3662 16.1295 11.2207 16.1295 11.0418C16.1295 10.863 15.9841 10.7176 15.8052 10.7176ZM15.8052 12.2549C15.1364 12.2549 14.5922 11.7108 14.5922 11.0418C14.5922 10.373 15.1364 9.82886 15.8052 9.82886C16.4741 9.82886 17.0182 10.373 17.0182 11.0418C17.0182 11.7108 16.4741 12.2549 15.8052 12.2549Z" fill="#A179C5"/>
<path fill-rule="evenodd" clip-rule="evenodd" d="M16.5739 11.2679C16.5235 11.2679 16.4722 11.2593 16.4221 11.2411C15.0148 10.7295 14.0691 9.37942 14.0691 7.88142C14.0691 5.91081 15.6722 4.30768 17.6429 4.30768C19.6135 4.30768 21.2166 5.91081 21.2166 7.88142C21.2166 8.36363 21.122 8.83171 20.9355 9.27259C20.8399 9.49868 20.5788 9.60417 20.3531 9.50872C20.1271 9.4131 20.0215 9.15235 20.1171 8.92635C20.257 8.59567 20.3279 8.2441 20.3279 7.88142C20.3279 6.40084 19.1233 5.19638 17.6429 5.19638C16.1624 5.19638 14.9578 6.40084 14.9578 7.88142C14.9578 9.00705 15.6683 10.0215 16.7257 10.4058C16.9564 10.4897 17.0754 10.7446 16.9915 10.9753C16.9259 11.1558 16.7555 11.2679 16.5739 11.2679Z" fill="#A179C5"/>
</svg>
