<svg width="17" height="16" viewBox="0 0 17 16" fill="none" xmlns="http://www.w3.org/2000/svg">
<g id="add-plus">
<path id="Combined Shape" fill-rule="evenodd" clip-rule="evenodd" d="M9.50002 2.875C9.50002 2.39175 9.10827 2 8.62502 2C8.14178 2 7.75002 2.39175 7.75002 2.875V7.125H3.375C2.89175 7.125 2.5 7.51675 2.5 8C2.5 8.48325 2.89175 8.875 3.375 8.875H7.75002V13.125C7.75002 13.6082 8.14178 14 8.62502 14C9.10827 14 9.50002 13.6082 9.50002 13.125V8.875H13.625C14.1082 8.875 14.5 8.48325 14.5 8C14.5 7.51675 14.1082 7.125 13.625 7.125H9.50002V2.875Z" fill="#FDFCFE"/>
</g>
</svg>
