<svg width="16" height="16" viewBox="0 0 16 16" fill="none" xmlns="http://www.w3.org/2000/svg">
<path fill-rule="evenodd" clip-rule="evenodd" d="M2.7911 10.7199C2.7911 11.646 2.80174 12.5724 2.7848 13.4984C2.77956 13.7868 2.88004 13.8669 3.15822 13.8567C3.66058 13.8382 4.16417 13.8483 4.66719 13.8522C5.00363 13.8549 5.16407 13.707 5.16309 13.3654C5.1581 11.6204 5.1581 9.87537 5.16301 8.13034C5.16407 7.77588 5.00453 7.6113 4.64666 7.61486C4.14364 7.61987 3.63964 7.63368 3.13785 7.60888C2.83291 7.59385 2.78169 7.71658 2.7857 7.98159C2.79969 8.89418 2.7911 9.8071 2.7911 10.7199ZM5.96376 10.7801C5.96376 11.479 5.96246 12.178 5.96483 12.8769C5.96532 13.0185 5.92122 13.1858 6.12331 13.2442C6.94125 13.4807 7.71778 13.8674 8.60297 13.8545C9.6374 13.8393 10.6723 13.8501 11.707 13.8522C11.9663 13.8528 12.222 13.8353 12.2598 13.5141C12.2935 13.2272 12.107 13.1182 11.8431 13.0743C11.6161 13.0365 11.4705 12.889 11.4993 12.6507C11.5272 12.4196 11.6869 12.3018 11.9236 12.2981C12.155 12.2946 12.3865 12.2961 12.618 12.2955C12.8754 12.2949 13.0513 12.1662 13.0586 11.9182C13.0661 11.6651 12.8902 11.5377 12.6332 11.531C12.3748 11.5243 12.1158 11.5256 11.8584 11.5075C11.637 11.4919 11.5075 11.3646 11.5095 11.1393C11.5115 10.9005 11.6397 10.7666 11.8841 10.7498C11.952 10.7452 12.0213 10.7552 12.0881 10.7455C12.4444 10.694 12.9409 10.937 13.0564 10.3585C13.1161 10.0598 12.8576 9.95988 12.1091 9.95536C12.0275 9.95479 11.9453 9.95867 11.8642 9.95148C11.6409 9.93169 11.5129 9.79918 11.4982 9.58798C11.4829 9.36934 11.6087 9.22561 11.8279 9.19983C12.043 9.17455 12.262 9.17147 12.4789 9.17463C12.7761 9.17899 13.0676 9.13681 13.0554 8.77477C13.0444 8.44891 12.771 8.40294 12.4859 8.40448C11.3423 8.41054 10.1987 8.40706 9.0551 8.40682C8.9462 8.40674 8.83599 8.41466 8.72873 8.40116C8.50037 8.3724 8.34566 8.25403 8.34107 8.01213C8.33633 7.76506 8.49604 7.64677 8.72276 7.62229C8.89776 7.60346 9.07752 7.60233 9.25286 7.61793C9.46689 7.63699 9.57661 7.55167 9.632 7.35178C9.82706 6.64756 9.94029 5.93357 9.8939 5.20245C9.87222 4.86076 9.68027 4.63534 9.35259 4.516C9.14895 4.44183 9.01976 4.45686 8.97279 4.70515C8.93049 4.92814 8.86496 5.14969 8.78412 5.36242C8.28118 6.68602 7.56478 7.82929 6.11946 8.32328C5.92539 8.38961 5.96638 8.51945 5.96573 8.64299C5.9618 9.35537 5.96376 10.0677 5.96376 10.7801ZM2.00131 10.7566C2.00131 9.66692 1.99845 8.57722 2.00246 7.4876C2.0045 6.92704 2.10432 6.8338 2.67566 6.83202C3.2888 6.83016 3.90211 6.83816 4.51517 6.8296C5.03537 6.82241 5.49315 6.93964 5.7818 7.40834C5.92613 7.64265 6.08805 7.5179 6.23434 7.44114C7.01914 7.02965 7.4819 6.34086 7.85401 5.57782C8.07418 5.12625 8.18406 4.63994 8.29288 4.15541C8.36717 3.82471 8.55429 3.6914 8.89564 3.6859C10.0057 3.66813 10.6959 4.3191 10.7041 5.41163C10.7092 6.07456 10.6107 6.72537 10.4445 7.36407C10.3895 7.57535 10.4359 7.61954 10.6386 7.61704C11.2517 7.60944 11.8661 7.63869 12.4779 7.60912C13.592 7.55523 14.1871 8.61737 13.649 9.43285C13.5593 9.56883 13.6206 9.65148 13.6815 9.75741C13.909 10.1526 13.916 10.557 13.6771 10.9435C13.5816 11.0979 13.6125 11.1928 13.6905 11.3375C14.02 11.9488 13.8401 12.5738 13.226 12.9318C13.0581 13.0297 13.0137 13.1046 13.0447 13.3025C13.1448 13.9432 12.7022 14.5947 12.0719 14.6105C10.6577 14.6461 9.23919 14.7176 7.82701 14.566C7.24176 14.5031 6.70438 14.2499 6.14892 14.0716C5.97203 14.0148 5.8448 13.9773 5.70555 14.1752C5.47466 14.5034 5.12644 14.6433 4.71448 14.6389C4.00602 14.6311 3.29739 14.6391 2.58885 14.6361C2.12346 14.6342 2.00589 14.5262 2.00336 14.0661C1.99722 12.963 2.00139 11.8598 2.00131 10.7566Z" fill="#89828E"/>
<path fill-rule="evenodd" clip-rule="evenodd" d="M9.89994 2.12669C9.89994 2.26097 9.9064 2.39566 9.89854 2.52945C9.88447 2.76966 9.73753 2.90596 9.50647 2.90847C9.28982 2.91089 9.14549 2.76926 9.12962 2.55709C9.10859 2.27697 9.1063 1.99361 9.12356 1.71333C9.13755 1.48622 9.27844 1.32357 9.51768 1.33383C9.77017 1.34466 9.90386 1.50674 9.90182 1.76407C9.90084 1.88494 9.90165 2.00582 9.90165 2.12669H9.89994Z" fill="#89828E"/>
<path fill-rule="evenodd" clip-rule="evenodd" d="M7.55915 3.71573C7.29847 3.71985 6.60605 3.01127 6.61807 2.75248C6.63166 2.45709 6.96441 2.27013 7.20389 2.45273C7.44853 2.63928 7.65831 2.87327 7.86777 3.10055C7.97683 3.21892 7.96824 3.37429 7.89231 3.51503C7.82277 3.64407 7.70045 3.69771 7.55915 3.71573Z" fill="#89828E"/>
<path fill-rule="evenodd" clip-rule="evenodd" d="M11.4573 3.71416C11.1675 3.70818 10.9605 3.36213 11.1405 3.13065C11.3371 2.87784 11.5741 2.64596 11.8288 2.44978C12.0617 2.27041 12.4093 2.47047 12.4198 2.75972C12.4289 3.01406 11.7175 3.71949 11.4573 3.71416Z" fill="#89828E"/>
<path fill-rule="evenodd" clip-rule="evenodd" d="M4.37585 12.6804C4.35458 12.9051 4.23766 13.0685 4.00006 13.0751C3.76778 13.0816 3.61478 12.9423 3.60014 12.7055C3.58492 12.4594 3.74226 12.3227 3.96815 12.3075C4.20764 12.2914 4.33429 12.4494 4.37585 12.6804Z" fill="#89828E"/>
</svg>
