<?xml version="1.0" encoding="UTF-8"?>
<svg width="16px" height="16px" viewBox="0 0 16 16" version="1.1" xmlns="http://www.w3.org/2000/svg" xmlns:xlink="http://www.w3.org/1999/xlink">
    <title>Close</title>
    <defs>
        <path d="M1.19142136,14.8085786 C0.879526215,14.4966835 0.879526215,13.9893165 1.19142136,13.6774214 L6.90419805,8.03535534 L1.19142136,2.32257864 C0.879526215,2.0106835 0.879526215,1.5033165 1.19142136,1.19142136 C1.5033165,0.879526215 2.0106835,0.879526215 2.32257864,1.19142136 L7.96464466,6.90419805 L13.6774214,1.19142136 C13.9893165,0.879526215 14.4966835,0.879526215 14.8085786,1.19142136 C15.1204738,1.5033165 15.1204738,2.0106835 14.8085786,2.32257864 L9.09580195,7.96464466 L14.8085786,13.6774214 C15.1204738,13.9893165 15.1204738,14.4966835 14.8085786,14.8085786 C14.4966835,15.1204738 13.9893165,15.1204738 13.6774214,14.8085786 L8.03535534,9.09580195 L2.32257864,14.8085786 C2.0106835,15.1204738 1.5033165,15.1204738 1.19142136,14.8085786 Z" id="path-1"></path>
    </defs>
    <g id="Symbols" stroke="none" stroke-width="1" fill="none" fill-rule="evenodd">
        <g id="Components-/-Icons-/-Close" transform="translate(-4.000000, -4.000000)">
            <g id="Close" transform="translate(4.000000, 4.000000)">
                <mask id="mask-2" fill="white">
                    <use xlink:href="#path-1"></use>
                </mask>
                <use id="Path" fill="#404040" fill-rule="nonzero" xlink:href="#path-1"></use>
            </g>
        </g>
    </g>
</svg>