<?xml version="1.0" encoding="UTF-8"?>
<svg width="18px" height="18px" viewBox="0 0 18 18" version="1.1" xmlns="http://www.w3.org/2000/svg" xmlns:xlink="http://www.w3.org/1999/xlink">
    <title>Shape</title>
    <g id="Page-1" stroke="none" stroke-width="1" fill="none" fill-rule="evenodd">
        <g id="LL21---Complete-Profile---expecting" transform="translate(-30.000000, -317.000000)" fill="#D5BEE3" fill-rule="nonzero">
            <g id="Group-8" transform="translate(16.000000, 272.000000)">
                <g id="Components/List/answer" transform="translate(2.000000, 32.000000)">
                    <path d="M21,13 C16.02975,13 12,17.02975 12,22 C12,26.97025 16.02975,31 21,31 C25.97025,31 30,26.97025 30,22 C30,17.02975 25.97025,13 21,13 Z M25.8617702,19.1950811 L21.2332731,25.6597397 C21.2320652,25.6608434 21.2296495,25.6619472 21.2296495,25.6630509 C21.2054924,25.6961634 21.192206,25.7336909 21.1620097,25.7645958 C21.1197348,25.8065383 21.0653814,25.8286133 21.0170672,25.860622 C21.0049887,25.8683483 20.9929101,25.8771782 20.9796237,25.8849045 C20.9047368,25.9279507 20.8274341,25.9566482 20.7428843,25.9754119 C20.7151037,25.9820344 20.6897387,25.9886569 20.6607502,25.9930719 C20.5919025,26.0019019 20.5266784,26.0019019 20.4578307,25.9952794 C20.4095166,25.9919682 20.3636181,25.9864494 20.3165118,25.9754119 C20.2681976,25.9632707 20.223507,25.9445069 20.1776086,25.9246395 C20.1389572,25.9080832 20.0978902,25.9036682 20.0616546,25.882697 C20.0350818,25.8672445 20.0205875,25.842962 19.9976383,25.8241983 C19.9879754,25.816472 19.9758969,25.8142645 19.9662341,25.8065383 L17.2715114,23.5295039 C16.9284809,23.2392179 16.9079473,22.750257 17.2244051,22.437896 C17.5408629,22.125535 18.0759423,22.1056675 18.4189729,22.3948498 L20.3696574,24.043851 L24.4461652,18.3496093 C24.7022302,17.9930984 25.2252311,17.8926572 25.6165758,18.1255483 C26.0079206,18.3595431 26.1178353,18.8385702 25.8617702,19.1950811 Z" id="Shape"></path>
                </g>
            </g>
        </g>
    </g>
</svg>