<?xml version="1.0" encoding="UTF-8"?>
<svg width="24px" height="24px" viewBox="0 0 24 24" version="1.1" xmlns="http://www.w3.org/2000/svg" xmlns:xlink="http://www.w3.org/1999/xlink">
    <title>Group 10</title>
    <g id="Page-1" stroke="none" stroke-width="1" fill="none" fill-rule="evenodd">
        <g id="LL21---Complete-Profile---expecting-filled" transform="translate(-26.000000, -314.000000)">
            <g id="Group-8" transform="translate(16.000000, 270.000000)">
                <g id="Group-10" transform="translate(10.000000, 44.000000)">
                    <circle id="Oval" stroke="#D0ABE0" stroke-width="4" cx="12" cy="12" r="10"></circle>
                    <path d="M12.04725,3 C7.077,3 3.04725,7.02975 3.04725,12 C3.04725,16.97025 7.077,21 12.04725,21 C17.0175,21 21.04725,16.97025 21.04725,12 C21.04725,7.02975 17.0175,3 12.04725,3 Z M16.2165,9.510375 L11.9055,16.0995 C11.904375,16.100625 11.902125,16.10175 11.902125,16.102875 C11.879625,16.136625 11.86725,16.174875 11.839125,16.206375 C11.79975,16.249125 11.749125,16.271625 11.704125,16.30425 C11.692875,16.312125 11.681625,16.321125 11.66925,16.329 C11.5995,16.372875 11.5275,16.402125 11.44875,16.42125 C11.422875,16.428 11.39925,16.43475 11.37225,16.43925 C11.308125,16.44825 11.247375,16.44825 11.18325,16.4415 C11.13825,16.438125 11.0955,16.4325 11.051625,16.42125 C11.006625,16.408875 10.965,16.38975 10.92225,16.3695 C10.88625,16.352625 10.848,16.348125 10.81425,16.32675 C10.7895,16.311 10.776,16.28625 10.754625,16.267125 C10.745625,16.25925 10.734375,16.257 10.725375,16.249125 L8.2155,13.92825 C7.896,13.632375 7.876875,13.134 8.171625,12.815625 C8.466375,12.49725 8.96475,12.477 9.28425,12.77175 L11.101125,14.4525 L14.898,8.648625 C15.1365,8.28525 15.623625,8.182875 15.988125,8.42025 C16.352625,8.65875 16.455,9.147 16.2165,9.510375 Z" id="Shape" fill="#ECDFF2" fill-rule="nonzero"></path>
                </g>
            </g>
        </g>
    </g>
</svg>