<svg width="14" height="14" viewBox="0 0 14 14" fill="none" xmlns="http://www.w3.org/2000/svg">
<path fill-rule="evenodd" clip-rule="evenodd" d="M6.9987 0.333984C3.31692 0.333984 0.332031 3.31887 0.332031 7.00065C0.332031 10.6824 3.31692 13.6673 6.9987 13.6673C10.6805 13.6673 13.6654 10.6824 13.6654 7.00065C13.6654 3.31887 10.6805 0.333984 6.9987 0.333984ZM6.99848 12.7784C3.8127 12.7784 1.2207 10.1864 1.2207 7.00065C1.2207 3.81487 3.8127 1.22287 6.99848 1.22287C10.1843 1.22287 12.7763 3.81487 12.7763 7.00065C12.7763 10.1864 10.1843 12.7784 6.99848 12.7784ZM7.44249 6.55621H10.5536C10.7989 6.55621 10.998 6.75532 10.998 7.00065C10.998 7.24598 10.7989 7.44509 10.5536 7.44509H7.44249V10.5562C7.44249 10.8015 7.24338 11.0006 6.99805 11.0006C6.75271 11.0006 6.5536 10.8015 6.5536 10.5562V7.44509H3.44249C3.19716 7.44509 2.99805 7.24598 2.99805 7.00065C2.99805 6.75532 3.19716 6.55621 3.44249 6.55621H6.5536V3.44509C6.5536 3.19976 6.75271 3.00065 6.99805 3.00065C7.24338 3.00065 7.44249 3.19976 7.44249 3.44509V6.55621Z" fill="#A775C8"/>
</svg>
