<svg width="16" height="16" viewBox="0 0 16 16" fill="none" xmlns="http://www.w3.org/2000/svg">
<path fill-rule="evenodd" clip-rule="evenodd" d="M1 8C1 4.13994 4.13978 1 7.99967 1C11.8599 1 15 4.13995 15 8C15 11.8601 11.8599 15 7.99967 15C4.13978 15 1 11.8601 1 8ZM14.25 8.06664C14.25 4.65749 11.4757 1.8833 8.06633 1.8833C4.65734 1.8833 1.88332 4.65747 1.88332 8.06664C1.88332 11.4758 4.65734 14.25 8.06633 14.25C11.4757 14.25 14.25 11.4758 14.25 8.06664ZM7.99999 9.08513C7.71233 9.08513 7.47916 8.85195 7.47916 8.56429V5.21031C7.47916 4.92265 7.71233 4.68948 7.99999 4.68948C8.28765 4.68948 8.52082 4.92265 8.52082 5.21031V8.56429C8.52082 8.85195 8.28765 9.08513 7.99999 9.08513ZM8.70311 10.426C8.70311 10.0377 8.38832 9.72289 7.99999 9.72289C7.61166 9.72289 7.29686 10.0377 7.29686 10.426C7.29686 10.8143 7.61166 11.1291 7.99999 11.1291C8.38832 11.1291 8.70311 10.8143 8.70311 10.426Z" fill="#89828E"/>
<path d="M7.99967 0.883333C4.07534 0.883333 0.883333 4.07552 0.883333 8H1.11667C1.11667 4.20437 4.20422 1.11667 7.99967 1.11667V0.883333ZM15.1167 8C15.1167 4.07551 11.9243 0.883333 7.99967 0.883333V1.11667C11.7955 1.11667 14.8833 4.20439 14.8833 8H15.1167ZM7.99967 15.1167C11.9243 15.1167 15.1167 11.9245 15.1167 8H14.8833C14.8833 11.7956 11.7955 14.8833 7.99967 14.8833V15.1167ZM0.883333 8C0.883333 11.9245 4.07534 15.1167 7.99967 15.1167V14.8833C4.20422 14.8833 1.11667 11.7956 1.11667 8H0.883333ZM8.06633 1.99997C11.4112 1.99997 14.1333 4.72193 14.1333 8.06664H14.3667C14.3667 4.59305 11.5401 1.76664 8.06633 1.76664V1.99997ZM1.99999 8.06664C1.99999 4.72189 4.72178 1.99997 8.06633 1.99997V1.76664C4.5929 1.76664 1.76666 4.59304 1.76666 8.06664H1.99999ZM8.06633 14.1333C4.72178 14.1333 1.99999 11.4114 1.99999 8.06664H1.76666C1.76666 11.5402 4.5929 14.3666 8.06633 14.3666V14.1333ZM14.1333 8.06664C14.1333 11.4114 11.4112 14.1333 8.06633 14.1333V14.3666C11.5401 14.3666 14.3667 11.5402 14.3667 8.06664H14.1333ZM7.36249 8.56429C7.36249 8.91638 7.6479 9.20179 7.99999 9.20179V8.96846C7.77677 8.96846 7.59582 8.78752 7.59582 8.56429H7.36249ZM7.36249 5.21031V8.56429H7.59582V5.21031H7.36249ZM7.99999 4.57281C7.6479 4.57281 7.36249 4.85822 7.36249 5.21031H7.59582C7.59582 4.98709 7.77677 4.80614 7.99999 4.80614V4.57281ZM8.63749 5.21031C8.63749 4.85822 8.35208 4.57281 7.99999 4.57281V4.80614C8.22321 4.80614 8.40416 4.98709 8.40416 5.21031H8.63749ZM8.63749 8.56429V5.21031H8.40416V8.56429H8.63749ZM7.99999 9.20179C8.35208 9.20179 8.63749 8.91638 8.63749 8.56429H8.40416C8.40416 8.78752 8.22321 8.96846 7.99999 8.96846V9.20179ZM7.99999 9.83956C8.32389 9.83956 8.58645 10.1021 8.58645 10.426H8.81978C8.81978 9.97325 8.45276 9.60622 7.99999 9.60622V9.83956ZM7.41353 10.426C7.41353 10.1021 7.67609 9.83956 7.99999 9.83956V9.60622C7.54722 9.60622 7.1802 9.97325 7.1802 10.426H7.41353ZM7.99999 11.0125C7.67609 11.0125 7.41353 10.7499 7.41353 10.426H7.1802C7.1802 10.8788 7.54722 11.2458 7.99999 11.2458V11.0125ZM8.58645 10.426C8.58645 10.7499 8.32389 11.0125 7.99999 11.0125V11.2458C8.45276 11.2458 8.81978 10.8788 8.81978 10.426H8.58645Z" fill="#89828E"/>
</svg>
