<?xml version="1.0" encoding="UTF-8"?>
<svg width="54px" height="53px" viewBox="0 0 54 53" version="1.1" xmlns="http://www.w3.org/2000/svg" xmlns:xlink="http://www.w3.org/1999/xlink">
    <!-- Generator: Sketch 64 (93537) - https://sketch.com -->
    <title>Clip 5</title>
    <desc>Created with Sketch.</desc>
    <defs>
        <polygon id="path-1" points="0 52.9914796 52.8470654 52.9914796 52.8470654 0.144414169 0 0.144414169"></polygon>
    </defs>
    <g id="Page-1" stroke="none" stroke-width="1" fill="none" fill-rule="evenodd">
        <g id="Group-10" transform="translate(1.000000, 1.000000)">
            <g id="Group-18" transform="translate(-0.000000, -1.000000)">
                <mask id="mask-2" fill="white">
                    <use xlink:href="#path-1"></use>
                </mask>
                <g id="Clip-5"></g>
                <polygon id="Fill-4" fill="#D4B1EF" mask="url(#mask-2)" points="14.322564 29.0707166 26.4236049 29.0707166 26.4236049 16.9696757 14.322564 16.9696757"></polygon>
                <polygon id="Fill-6" fill="#FFEBDE" mask="url(#mask-2)" points="26.4234605 29.0707166 38.5245014 29.0707166 38.5245014 16.9696757 26.4234605 16.9696757"></polygon>
                <polygon id="Fill-7" fill="#FFEBDE" mask="url(#mask-2)" points="14.322564 41.1717575 26.4236049 41.1717575 26.4236049 29.0707166 14.322564 29.0707166"></polygon>
                <path d="M36.0166482,41.1717719 L26.4235038,41.1717719 L26.4235038,29.0707311 L38.5245447,29.0707311 L38.5245447,38.6638755 C38.5245447,40.0489518 37.4017245,41.1717719 36.0166482,41.1717719" id="Fill-8" fill="#D4B1EF" mask="url(#mask-2)"></path>
                <path d="M15.0445916,40.4496722 L36.40027,40.4496722 C37.1733191,40.4496722 37.8023872,39.7775687 37.8023872,38.9513752 L37.8023872,17.6918766 L15.0445916,17.6918766 L15.0445916,40.4496722 Z M36.40027,41.8938139 L13.6004499,41.8938139 L13.6004499,16.2477349 L39.2465289,16.2477349 L39.2465289,38.9513752 C39.2465289,40.573724 37.9696188,41.8938139 36.40027,41.8938139 L36.40027,41.8938139 Z" id="Fill-9" fill="#A179C5" mask="url(#mask-2)"></path>
                <path d="M18.4622973,12.6861782 C18.8065807,14.7053771 20.5691556,16.2477204 22.6849676,16.2477204 L25.640548,16.2477204 C25.2962646,14.2283771 23.5336896,12.6861782 21.4178777,12.6861782 L18.4622973,12.6861782 Z M26.4235616,17.6918621 L22.6849676,17.6918621 C19.5266297,17.6918621 16.9572128,15.1224452 16.9572128,11.9641074 C16.9572128,11.5653798 17.2804117,11.2420365 17.6792837,11.2420365 L21.4178777,11.2420365 C24.5762155,11.2420365 27.1456324,13.8114534 27.1456324,16.9697913 C27.1456324,17.3685188 26.8224335,17.6918621 26.4235616,17.6918621 L26.4235616,17.6918621 Z" id="Fill-10" fill="#A179C5" mask="url(#mask-2)"></path>
                <path d="M27.2065463,16.2476771 L30.1621267,16.2476771 C32.2779387,16.2476771 34.0403692,14.7054782 34.3846526,12.6861349 L31.4290722,12.6861349 C29.3132602,12.6861349 27.5508297,14.2284782 27.2065463,16.2476771 M30.1621267,17.6918188 L26.4235327,17.6918188 C26.0246608,17.6918188 25.7014619,17.3684755 25.7014619,16.969748 C25.7014619,13.8114101 28.2708787,11.2419932 31.4290722,11.2419932 L35.1676662,11.2419932 C35.5665381,11.2419932 35.8897371,11.5653365 35.8897371,11.964064 C35.8897371,15.1224019 33.3203202,17.6918188 30.1621267,17.6918188" id="Fill-11" fill="#A179C5" mask="url(#mask-2)"></path>
                <polygon id="Fill-12" fill="#A179C5" mask="url(#mask-2)" points="25.7015341 41.1717575 27.1456757 41.1717575 27.1456757 16.9698202 25.7015341 16.9698202"></polygon>
                <polygon id="Fill-13" fill="#A179C5" mask="url(#mask-2)" points="14.322564 29.7927875 38.5246458 29.7927875 38.5246458 28.3486458 14.322564 28.3486458"></polygon>
                <path d="M15.7084346,22.4029989 C11.6082275,23.0127155 11.1138978,23.5069008 10.5043256,27.6071079 C9.89460899,23.5069008 9.40027929,23.0127155 5.30007221,22.4029989 C9.40027929,21.7932823 9.89460899,21.299097 10.5043256,17.1988899 C11.1138978,21.299097 11.6082275,21.7932823 15.7084346,22.4029989" id="Fill-14" fill="#FFFFFF" mask="url(#mask-2)"></path>
                <path d="M8.48150191,22.40297 C9.49081253,22.8165722 10.090709,23.4163243 10.5043112,24.4257793 C10.9179134,23.4163243 11.517521,22.8165722 12.5271204,22.40297 C11.517521,21.9893678 10.9179134,21.3896158 10.5043112,20.3801608 C10.090709,21.3896158 9.49081253,21.9893678 8.48150191,22.40297 M10.5043112,28.3292943 C10.1464529,28.3292943 9.84274986,28.067327 9.79018311,27.7133678 C9.2285564,23.9365041 8.97077711,23.6787248 5.19376894,23.1172425 C4.83995422,23.0645313 4.57798692,22.7608283 4.57798692,22.40297 C4.57798692,22.0451117 4.83995422,21.7414087 5.19376894,21.6886975 C8.97077711,21.1272153 9.2285564,20.869436 9.79018311,17.0927166 C9.84274986,16.7387575 10.1464529,16.4767902 10.5043112,16.4767902 C10.8620251,16.4767902 11.1658725,16.7387575 11.2184392,17.0927166 C11.7800659,20.869436 12.0378452,21.1272153 15.8145646,21.6886975 C16.1685237,21.7414087 16.430491,22.0451117 16.430491,22.40297 C16.430491,22.7608283 16.1685237,23.0645313 15.8145646,23.1172425 C12.0378452,23.6787248 11.7800659,23.9365041 11.2184392,27.7133678 C11.1658725,28.067327 10.8620251,28.3292943 10.5043112,28.3292943" id="Fill-15" fill="#A179C5" mask="url(#mask-2)"></path>
                <path d="M46.1447172,34.3655177 C42.0445101,34.9752343 41.5501804,35.4694196 40.9406082,39.5696267 C40.3308916,35.4694196 39.8365619,34.9752343 35.7363548,34.3655177 C39.8365619,33.7558011 40.3308916,33.2616158 40.9406082,29.1614087 C41.5501804,33.2616158 42.0445101,33.7558011 46.1447172,34.3655177" id="Fill-16" fill="#FFFFFF" mask="url(#mask-2)"></path>
                <path d="M38.91777,34.3655177 C39.9270807,34.7791199 40.5269771,35.3788719 40.9405793,36.388327 C41.3541815,35.3788719 41.9537891,34.7791199 42.9633886,34.3655177 C41.9537891,33.9519155 41.3541815,33.3521635 40.9405793,32.3427084 C40.5269771,33.3521635 39.9270807,33.9519155 38.91777,34.3655177 M40.9405793,40.291842 C40.582721,40.291842 40.279018,40.0298747 40.2264512,39.6759155 C39.6648245,35.8990518 39.4070452,35.6412725 35.6301815,35.0797902 C35.2763668,35.027079 35.0143995,34.723376 35.0143995,34.3655177 C35.0143995,34.0076594 35.2763668,33.7039564 35.6301815,33.6512452 C39.4070452,33.0897629 39.6648245,32.8319837 40.2264512,29.0551199 C40.279018,28.7011608 40.582721,28.4391935 40.9405793,28.4391935 C41.2982932,28.4391935 41.6021406,28.7011608 41.6547074,29.0551199 C42.2163341,32.8319837 42.4741134,33.0897629 46.2508327,33.6512452 C46.6047918,33.7039564 46.8667591,34.0076594 46.8667591,34.3655177 C46.8667591,34.723376 46.6047918,35.027079 46.2508327,35.0797902 C42.4741134,35.6412725 42.2163341,35.8990518 41.6547074,39.6759155 C41.6021406,40.0298747 41.2982932,40.291842 40.9405793,40.291842" id="Fill-17" fill="#A179C5" mask="url(#mask-2)"></path>
            </g>
        </g>
    </g>
</svg>