<?xml version="1.0" encoding="UTF-8"?>
<svg width="20px" height="20px" viewBox="0 0 20 20" version="1.1" xmlns="http://www.w3.org/2000/svg" xmlns:xlink="http://www.w3.org/1999/xlink">
    <title>icon - wishlist</title>
    <defs>
        <polygon id="path-1" points="0.143421218 0.182350131 8.05513497 0.182350131 8.05513497 14.3421218 0.143421218 14.3421218"></polygon>
        <polygon id="path-3" points="0 0.0263295669 16.1912785 0.0263295669 16.1912785 14.5872436 0 14.5872436"></polygon>
    </defs>
    <g id="Page-1" stroke="none" stroke-width="1" fill="none" fill-rule="evenodd">
        <g id="LL21---Dropdown-3dots" transform="translate(-176.000000, -188.000000)">
            <g id="dropdown" transform="translate(160.000000, 56.000000)">
                <g id="icon---wishlist" transform="translate(16.000000, 132.000000)">
                    <rect id="Rectangle" x="0" y="0" width="20" height="20"></rect>
                    <g id="Group-14" transform="translate(1.000000, 2.000000)">
                        <path d="M8.9199435,15.198325 C-6.51453421,6.77885738 4.64813183,-3.68853685 8.9199435,3.3609371" id="Fill-1" fill="#F3F0FC"></path>
                        <g id="Group-5" transform="translate(8.776522, 0.856246)">
                            <mask id="mask-2" fill="white">
                                <use xlink:href="#path-1"></use>
                            </mask>
                            <g id="Clip-4"></g>
                            <path d="M0.143421218,2.50473384 C4.41587508,-4.54495417 15.5789692,5.92265411 0.143421218,14.3421218" id="Fill-3" fill="#D7CDF5" mask="url(#mask-2)"></path>
                        </g>
                        <g id="Group-8">
                            <mask id="mask-4" fill="white">
                                <use xlink:href="#path-3"></use>
                            </mask>
                            <g id="Clip-7"></g>
                            <path d="M4.46102065,0.399032078 C4.22469674,0.399032078 3.98494783,0.422792906 3.74284426,0.470956748 C2.04448016,0.809602072 0.712803453,2.28555625 0.429600063,4.14425242 C0.183643377,5.75720596 0.442871877,9.95366798 8.09557119,14.1599768 C15.7482705,9.95388205 16.007499,5.75742003 15.7617564,4.14446648 C15.478553,2.28577031 14.1468763,0.809602072 12.4482981,0.47117081 C10.8143665,0.144726993 9.28575323,0.93332963 8.2556892,2.63340621 L8.09557119,2.89798625 L7.93502505,2.63340621 C7.05758688,1.1854941 5.81881287,0.399032078 4.46102065,0.399032078 L4.46102065,0.399032078 Z M8.09557119,14.5872436 L8.00566535,14.5382235 C0.0562767734,10.2017653 -0.199740804,5.78524802 0.0590595731,4.08752611 C0.366023792,2.0738494 1.81693277,0.47266924 3.66963522,0.10341312 C5.35708217,-0.232877527 6.99272624,0.543523603 8.09557119,2.18773013 C9.19777395,0.543309542 10.8336321,-0.233519711 12.5217212,0.103627181 C14.3744237,0.472883302 15.8253326,2.07406347 16.1322969,4.08774018 C16.3908832,5.78546208 16.1346515,10.2019793 8.18483484,14.5382235 L8.09557119,14.5872436 Z" id="Fill-6" fill="#8B7FBF" mask="url(#mask-4)"></path>
                        </g>
                    </g>
                </g>
            </g>
        </g>
    </g>
</svg>