<svg width="24" height="24" viewBox="0 0 24 24" fill="none" xmlns="http://www.w3.org/2000/svg">
<g id="Group 248">
<path id="Button" fill-rule="evenodd" clip-rule="evenodd" d="M0 12C0 5.37258 5.37258 0 12 0C18.6274 0 24 5.37258 24 12C24 18.6274 18.6274 24 12 24C5.37258 24 0 18.6274 0 12Z" fill="#25182E"/>
<g id="Group 77">
<g id="Group 76">
<path id="Vector" d="M17.4055 6.6218H15.5408C15.681 6.36944 15.7511 6.07501 15.7511 5.76656C15.7511 4.78514 14.966 4 14.0126 4C12.6947 4 12.1058 4.86926 11.6011 5.7946C11.0963 4.86926 10.4935 4 9.18957 4C8.22217 4 7.45105 4.79916 7.45105 5.76656C7.45105 6.07501 7.53518 6.36944 7.66136 6.6218H5.79666C5.54429 6.6218 5.33398 6.83211 5.33398 7.08447V9.88854C5.33398 10.1409 5.54429 10.3512 5.79666 10.3512H6.07706V16.8707C6.07706 17.123 6.28737 17.3333 6.53973 17.3333H16.6764C16.9288 17.3333 17.1391 17.123 17.1391 16.8707V10.3372H17.4195C17.6719 10.3372 17.8822 10.1269 17.8822 9.87452V7.07045C17.8682 6.83211 17.6719 6.6218 17.4055 6.6218ZM12.232 6.5517C12.8068 5.47213 13.1433 4.92534 14.0126 4.92534C14.4612 4.92534 14.8398 5.30389 14.8398 5.78058C14.8398 6.25727 14.4752 6.63582 14.0126 6.63582H12.1899C12.218 6.59376 12.232 6.57974 12.232 6.5517ZM9.18957 4.92534C10.0729 4.92534 10.4093 5.48616 10.9702 6.5517C10.9842 6.57974 10.9982 6.59376 11.0122 6.6218H9.18957C8.74092 6.6218 8.36238 6.24325 8.36238 5.76656C8.36238 5.28987 8.7269 4.92534 9.18957 4.92534ZM16.2138 16.394H6.98838V10.3372H16.1997V16.394H16.2138ZM16.9568 9.42587H6.24531V7.53312H16.9428V9.42587H16.9568Z" fill="white"/>
<path id="Vector_2" d="M9.96072 13.8282H11.1384V15.0059C11.1384 15.2583 11.3487 15.4686 11.6011 15.4686C11.8535 15.4686 12.0638 15.2583 12.0638 15.0059V13.8282H13.2415C13.4938 13.8282 13.7041 13.6179 13.7041 13.3656C13.7041 13.1132 13.4938 12.9029 13.2415 12.9029H12.0638V11.7252C12.0638 11.4728 11.8535 11.2625 11.6011 11.2625C11.3487 11.2625 11.1384 11.4728 11.1384 11.7252V12.9029H9.96072C9.70835 12.9029 9.49805 13.1132 9.49805 13.3656C9.49805 13.6319 9.70835 13.8282 9.96072 13.8282Z" fill="white"/>
</g>
</g>
</g>
</svg>
