<?xml version="1.0" encoding="UTF-8"?>
<svg width="17px" height="16px" viewBox="0 0 17 16" version="1.1" xmlns="http://www.w3.org/2000/svg" xmlns:xlink="http://www.w3.org/1999/xlink">
    <!-- Generator: Sketch 64 (93537) - https://sketch.com -->
    <title>Group 10</title>
    <desc>Created with Sketch.</desc>
    <g id="Page-1" stroke="none" stroke-width="1" fill="none" fill-rule="evenodd">
        <g id="Group-10" fill="#A179C5">
            <path d="M8.55805855,14.4482373 C8.26534072,14.270629 1.39141566,10.0481417 1.39141566,5.57640574 C1.39141566,3.41917421 3.14660326,1.66398661 5.30402134,1.66398661 C6.75492419,1.66398661 8.06534486,2.47012667 8.73958465,3.70442951 C9.41363788,2.47012667 10.7240586,1.66398661 12.1749614,1.66398661 C14.3323795,1.66398661 16.0873805,3.41917421 16.0873805,5.57640574 C16.0873805,10.0481417 9.21364202,14.270629 8.92092419,14.4482373 L8.73958465,14.5584962 L8.55805855,14.4482373 Z" id="Fill-6"></path>
            <path d="M5.30394672,2.59672853 C3.66088367,2.59672853 2.32434413,3.93345463 2.32434413,5.57651767 C2.32434413,7.56099158 4.05192036,9.58893473 5.5013307,10.9403993 C6.81100512,12.1620159 8.15332811,13.0791611 8.73951003,13.4593771 C9.32606506,13.078788 10.6680149,12.1618293 11.9776894,10.9403993 C13.4270997,9.58893473 15.1546759,7.56099158 15.1546759,5.57651767 C15.1546759,3.93345463 13.8179498,2.59672853 12.1750733,2.59672853 C11.0846108,2.59672853 10.0820196,3.19242517 9.55814982,4.15154713 C9.39472036,4.45098124 9.08073432,4.63735798 8.73951003,4.63735798 C8.39828574,4.63735798 8.08448625,4.45098124 7.92087023,4.15154713 C7.39700047,3.19242517 6.39422269,2.59672853 5.30394672,2.59672853 M8.73951003,15.4912381 C8.57178961,15.4912381 8.4040692,15.4460898 8.25519168,15.3557931 L8.07422527,15.2457208 C7.29476377,14.7729694 0.458711059,10.4844386 0.458711059,5.57651767 C0.458711059,2.90474455 2.63217359,0.731095452 5.30394672,0.731095452 C6.61194207,0.731095452 7.84232708,1.2581368 8.73951003,2.16017039 C9.63650641,1.2581368 10.8668914,0.731095452 12.1750733,0.731095452 C14.8466599,0.731095452 17.020309,2.90474455 17.020309,5.57651767 C17.020309,7.70800346 15.7518651,9.97176264 13.2500511,12.3049234 C11.4366558,13.9961197 9.60721597,15.1229621 9.40460822,15.2457208 L9.22401494,15.3556066 C9.07513742,15.4460898 8.90723044,15.4912381 8.73951003,15.4912381" id="Fill-8"></path>
        </g>
    </g>
</svg>