<?xml version="1.0" encoding="UTF-8"?>
<svg width="10px" height="10px" viewBox="0 0 10 10" version="1.1" xmlns="http://www.w3.org/2000/svg" xmlns:xlink="http://www.w3.org/1999/xlink">
    <title>Fill 2</title>
    <g id="Page-1" stroke="none" stroke-width="1" fill="none" fill-rule="evenodd">
        <g id="play/ic_launcher_APP" transform="translate(-25.000000, -430.000000)" fill="#A774C8">
            <path d="M34.8720756,434.238263 L34.8720756,434.237676 C34.5890433,433.141685 34.1511733,432.125487 33.2789087,431.374487 C32.4661078,430.675509 31.5652696,430.132598 30.4752283,430 C28.65579,430.002738 26.8363517,430.005867 25.0169134,430.008996 L25.0169134,432.788871 C25.0288834,434.042494 24.8883325,435.296899 25.252838,436.551696 C25.7073115,438.115067 27.7313208,439.949503 29.343408,439.981264 L29.3433308,439.981342 L29.3494702,439.981342 C30.5488631,440.005085 31.7489124,440.001447 32.9490775,439.995854 L33.9618931,440 L35,440 L35,435.419484 C35,434.687768 34.8753191,434.249567 34.8720756,434.238263" id="Fill-2"></path>
        </g>
    </g>
</svg>