<svg width="24" height="24" viewBox="0 0 24 24" fill="none" xmlns="http://www.w3.org/2000/svg">
<rect x="4.86035" y="3.36523" width="8.98185" height="17.071" rx="2" fill="#A775C8"/>
<path d="M11.2801 4.82846H7.2981L7.01367 3.36523H11.5645L11.2801 4.82846Z" fill="#EADEF2"/>
<path fill-rule="evenodd" clip-rule="evenodd" d="M12.6717 3H5.90892C5.13116 3.00088 4.50087 3.63875 4.5 4.42586V19.2548C4.50087 20.0419 5.13116 20.6798 5.90892 20.6806H12.6717C13.4495 20.6798 14.0798 20.0419 14.0806 19.2548V4.42586C14.0798 3.63875 13.4495 3.00088 12.6717 3ZM11.201 3.57037L11.0319 4.42589H7.54895L7.37988 3.57037H11.201ZM12.6707 20.1103C13.1373 20.1098 13.5155 19.7271 13.516 19.2548V4.42589C13.5155 3.95362 13.1373 3.5709 12.6707 3.57037H11.7746L11.5381 4.76699C11.5117 4.90029 11.3961 4.99624 11.2617 4.99623H7.31677C7.18244 4.99624 7.06679 4.90029 7.04045 4.76699L6.80396 3.57037H5.90785C5.44119 3.5709 5.06302 3.95362 5.0625 4.42589V19.2548C5.06302 19.7271 5.44119 20.1098 5.90785 20.1103H12.6707Z" fill="#905EB2"/>
<path d="M15.83 5.41211C18.4236 5.41489 20.5239 7.57219 20.5185 10.2293C20.5158 12.8863 18.41 15.0381 15.8164 15.0325C15.2609 15.0325 14.708 14.9298 14.1876 14.7271L11.464 15.2186L12.2526 13.3389C11.5263 12.4726 11.1279 11.3704 11.1279 10.2293C11.1279 7.56942 13.2337 5.41211 15.83 5.41211Z" fill="#EADEF2"/>
<path fill-rule="evenodd" clip-rule="evenodd" d="M10.8984 10.2227C10.8984 7.43656 13.1123 5.17072 15.8345 5.17072C15.8426 5.17072 15.8479 5.17072 15.8506 5.16797C18.5648 5.17072 20.7625 7.4283 20.7571 10.2062C20.7571 12.9924 18.5433 15.2583 15.821 15.2583C15.2615 15.261 14.7074 15.1619 14.1802 14.9664L11.5467 15.44C11.4956 15.4482 11.4418 15.4427 11.3934 15.4207C11.2589 15.3629 11.1943 15.2004 11.2535 15.06L11.9717 13.3531C11.2777 12.4638 10.8984 11.3598 10.8984 10.2227ZM14.3052 14.4268C14.7921 14.614 15.3059 14.7104 15.825 14.7104C18.2487 14.7104 20.2231 12.6923 20.2231 10.2062V10.1897C20.2204 7.71461 18.2568 5.71307 15.8385 5.71858C13.4149 5.71858 11.4404 7.73664 11.4404 10.22C11.4404 10.7789 11.5426 11.3322 11.7417 11.8526C11.9192 12.3179 12.1721 12.7474 12.4895 13.1245C12.5568 13.2044 12.5729 13.3173 12.5325 13.4136L11.9461 14.8095L14.1627 14.413C14.2111 14.4048 14.2595 14.4075 14.3052 14.4268Z" fill="#905EB2"/>
<path d="M14.1606 9.75766H15.6132C15.7611 9.75766 15.8822 9.63377 15.8822 9.48235C15.8822 9.33092 15.7611 9.20703 15.6132 9.20703H14.1606C14.0126 9.20703 13.8916 9.33092 13.8916 9.48235C13.8916 9.63377 14.0126 9.75766 14.1606 9.75766Z" fill="#A775C8"/>
<path d="M17.4961 10.584H14.1606C14.0126 10.584 13.8916 10.7079 13.8916 10.8593C13.8916 11.0107 14.0126 11.1346 14.1606 11.1346H17.4961C17.6441 11.1346 17.7651 11.0107 17.7651 10.8593C17.7651 10.7079 17.6441 10.584 17.4961 10.584Z" fill="#A775C8"/>
</svg>
