<?xml version="1.0" encoding="UTF-8"?>
<svg width="16px" height="16px" viewBox="0 0 16 16" version="1.1" xmlns="http://www.w3.org/2000/svg" xmlns:xlink="http://www.w3.org/1999/xlink">
    <title>noun_edit_1644623</title>
    <g id="Page-1" stroke="none" stroke-width="1" fill="none" fill-rule="evenodd">
        <g id="LL21---Shipping" transform="translate(-297.000000, -99.000000)" fill="#8B7FBF">
            <g id="alamat" transform="translate(16.000000, 99.000000)">
                <g id="noun_edit_1644623" transform="translate(281.000000, 0.000000)">
                    <path d="M14.9367273,1.89745455 L14.1483636,1.10909091 C13.5621818,0.522909091 12.5403636,0.522909091 11.9541818,1.10909091 L10.9345455,2.12872727 C10.9338182,2.12945455 10.9323636,2.13090909 10.9316364,2.13163636 C10.9309091,2.13236364 10.9294545,2.13381818 10.9287273,2.13454545 L4.85818182,8.20436364 C4.79127273,8.27127273 4.74836364,8.35781818 4.73527273,8.45090909 L4.34109091,11.2101818 C4.32145455,11.3461818 4.36727273,11.4829091 4.464,11.5803636 C4.54618182,11.664 4.65745455,11.7090909 4.77236364,11.7090909 C4.79272727,11.7090909 4.81381818,11.7076364 4.83418182,11.7047273 L7.59345455,11.3105455 C7.68654545,11.2974545 7.77381818,11.2538182 7.84,11.1876364 L13.9098182,5.11709091 C13.9105455,5.11636364 13.912,5.11490909 13.9127273,5.11418182 C13.9134545,5.11345455 13.9149091,5.112 13.9156364,5.11127273 L14.9352727,4.09163636 C15.2283636,3.79854545 15.3898182,3.40945455 15.3898182,2.99490909 C15.3898182,2.58036364 15.2290909,2.19054545 14.9367273,1.89745455 Z M7.32654545,10.4669091 L5.28727273,10.7585455 L5.57890909,8.71854545 L11.2407273,3.05745455 L12.9883636,4.80509091 L7.32654545,10.4669091 Z M14.3192727,3.47418182 L13.6050909,4.18836364 L11.8574545,2.44072727 L12.5716364,1.72654545 C12.8283636,1.46909091 13.2749091,1.46909091 13.5309091,1.72654545 L14.3192727,2.51490909 C14.448,2.64290909 14.5178182,2.81381818 14.5178182,2.99490909 C14.5178182,3.176 14.448,3.34618182 14.3192727,3.47418182 Z M14.5730909,8.36363636 L14.5730909,12 C14.5730909,13.8450909 13.0727273,15.3454545 11.2276364,15.3454545 L3.95490909,15.3454545 C2.10981818,15.3454545 0.609454545,13.8450909 0.609454545,12 L0.609454545,4.72727273 C0.609454545,2.88218182 2.10981818,1.38181818 3.95490909,1.38181818 L7.59127273,1.38181818 C7.83272727,1.38181818 8.02763636,1.57745455 8.02763636,1.81818182 C8.02763636,2.05890909 7.832,2.25454545 7.59127273,2.25454545 L3.95490909,2.25454545 C2.59127273,2.25454545 1.48218182,3.36363636 1.48218182,4.72727273 L1.48218182,12 C1.48218182,13.3636364 2.59127273,14.4727273 3.95490909,14.4727273 L11.2276364,14.4727273 C12.5912727,14.4727273 13.7003636,13.3636364 13.7003636,12 L13.7003636,8.36363636 C13.7003636,8.12218182 13.896,7.92727273 14.1367273,7.92727273 C14.3774545,7.92727273 14.5730909,8.12218182 14.5730909,8.36363636 Z" id="Shape"></path>
                </g>
            </g>
        </g>
    </g>
</svg>