<svg width="16" height="17" viewBox="0 0 16 17" fill="none" xmlns="http://www.w3.org/2000/svg">
<path fill-rule="evenodd" clip-rule="evenodd" d="M7.58488 5.78252C8.81383 4.55164 10.0457 3.31806 11.2694 2.08717C11.4624 1.89103 11.6854 1.8094 11.9302 1.83933L11.9764 1.84477C12.1449 1.86659 12.3381 1.89103 12.5202 1.96459C13.4284 2.33222 14.0919 2.98579 14.4917 3.90086C14.5569 4.05339 14.5895 4.21123 14.6194 4.35019C14.6331 4.40455 14.644 4.46187 14.6575 4.51627C14.6656 4.55164 14.6684 4.58979 14.6656 4.62795C14.644 4.85946 14.5569 5.04733 14.3991 5.20531C12.2619 7.34292 10.1246 9.48342 7.98732 11.6265C7.85945 11.7545 7.70996 11.8335 7.53307 11.8717C6.77176 12.0295 6.00766 12.1929 5.24631 12.3537L4.76766 12.4544C4.72147 12.4626 4.67524 12.4681 4.62905 12.4681C4.46586 12.4681 4.31093 12.4054 4.19937 12.2937C4.05519 12.1495 3.99808 11.937 4.04166 11.7246L4.13404 11.2889C4.30002 10.5018 4.46586 9.71479 4.63714 8.92789C4.6698 8.77805 4.75413 8.62551 4.86565 8.51117C5.33873 8.02917 5.81738 7.55261 6.29324 7.07604L7.58488 5.78252ZM11.8404 2.49565C11.8213 2.49565 11.7969 2.50375 11.7452 2.54739C10.5161 3.78373 9.28439 5.01727 8.05251 6.25095L6.76088 7.54447C6.28502 8.01824 5.81194 8.4948 5.33873 8.97415C5.31429 9.00142 5.2925 9.03944 5.28706 9.06405C5.11844 9.8483 4.9526 10.6353 4.78679 11.4196L4.71055 11.7764L5.113 11.6919C5.87713 11.5313 6.63845 11.3705 7.40259 11.2099C7.45157 11.199 7.48423 11.1826 7.51955 11.1473C9.65682 9.00686 11.7942 6.86367 13.9342 4.72595C13.9723 4.69059 13.9912 4.65787 14.0021 4.60879C13.994 4.56532 13.9831 4.52171 13.975 4.47807C13.9505 4.36108 13.926 4.24939 13.8879 4.16229C13.5589 3.41061 13.0151 2.87687 12.2755 2.57731C12.1721 2.53381 12.0416 2.51747 11.9002 2.5011L11.854 2.49565H11.8404ZM2.39112 4.80227C2.17631 4.80227 1.99959 4.97925 1.99959 5.19438V14.1074C1.99959 14.3226 2.17631 14.4996 2.39112 14.4996H11.2884C11.5032 14.4996 11.6799 14.3226 11.6799 14.1074V9.54606C11.6799 9.36085 11.8295 9.2111 12.0144 9.2111C12.1993 9.2111 12.3488 9.36085 12.3488 9.54606V14.1074C12.3488 14.6901 11.8757 15.1666 11.2911 15.1666H2.39112C1.80918 15.1666 1.33331 14.6929 1.33331 14.1074V5.19159C1.33331 4.60879 1.80653 4.13223 2.39112 4.13223H7.13889C7.32369 4.13223 7.47335 4.28211 7.47335 4.46718C7.47335 4.65243 7.32369 4.80227 7.13889 4.80227H2.39112Z" fill="#5C5263"/>
<path d="M7.58488 5.78252L7.69102 5.88851L7.69102 5.88851L7.58488 5.78252ZM11.2694 2.08717L11.3757 2.19292L11.3763 2.1924L11.2694 2.08717ZM11.9302 1.83933L11.912 1.98822L11.9126 1.98829L11.9302 1.83933ZM11.9764 1.84477L11.9957 1.696L11.994 1.6958L11.9764 1.84477ZM12.5202 1.96459L12.5765 1.82555L12.5764 1.82551L12.5202 1.96459ZM14.4917 3.90086L14.6296 3.8419L14.6291 3.8408L14.4917 3.90086ZM14.6194 4.35019L14.4727 4.38174L14.4739 4.38675L14.6194 4.35019ZM14.6575 4.51627L14.8038 4.48282L14.8031 4.48007L14.6575 4.51627ZM14.6656 4.62795L14.815 4.6419L14.8152 4.63888L14.6656 4.62795ZM14.3991 5.20531L14.5052 5.31136L14.5053 5.31129L14.3991 5.20531ZM7.98732 11.6265L8.09346 11.7325L8.09353 11.7324L7.98732 11.6265ZM7.53307 11.8717L7.56352 12.0186L7.56473 12.0183L7.53307 11.8717ZM5.24631 12.3537L5.27718 12.5005L5.2773 12.5005L5.24631 12.3537ZM4.76766 12.4544L4.794 12.6021L4.79853 12.6012L4.76766 12.4544ZM4.19937 12.2937L4.3055 12.1877L4.30547 12.1877L4.19937 12.2937ZM4.04166 11.7246L3.89492 11.6935L3.89472 11.6945L4.04166 11.7246ZM4.13404 11.2889L4.28078 11.32L4.28082 11.3198L4.13404 11.2889ZM4.63714 8.92789L4.49058 8.89594L4.49057 8.89599L4.63714 8.92789ZM4.86565 8.51117L4.7586 8.4061L4.75827 8.40644L4.86565 8.51117ZM6.29324 7.07604L6.1871 6.97006L6.29324 7.07604ZM11.7452 2.54739L11.6481 2.43236L11.6388 2.44164L11.7452 2.54739ZM8.05251 6.25095L8.15866 6.35694L8.05251 6.25095ZM6.76088 7.54447L6.86671 7.65077L6.86703 7.65046L6.76088 7.54447ZM5.33873 8.97415L5.23186 8.86865L5.22703 8.87403L5.33873 8.97415ZM5.28706 9.06405L5.14059 9.03168L5.14042 9.03252L5.28706 9.06405ZM4.78679 11.4196L4.93348 11.4509L4.93355 11.4506L4.78679 11.4196ZM4.71055 11.7764L4.56387 11.745L4.51568 11.9705L4.74136 11.9232L4.71055 11.7764ZM5.113 11.6919L5.14381 11.8387L5.14385 11.8387L5.113 11.6919ZM7.40259 11.2099L7.43345 11.3567L7.43515 11.3563L7.40259 11.2099ZM7.51955 11.1473L7.62569 11.2533L7.51955 11.1473ZM13.9342 4.72595L13.832 4.61594L13.8281 4.61983L13.9342 4.72595ZM14.0021 4.60879L14.1486 4.64134L14.1552 4.61139L14.1496 4.58123L14.0021 4.60879ZM13.975 4.47807L14.1226 4.45073L14.1218 4.44724L13.975 4.47807ZM13.8879 4.16229L14.0254 4.10217L14.0253 4.10214L13.8879 4.16229ZM12.2755 2.57731L12.2174 2.71559L12.2192 2.71634L12.2755 2.57731ZM11.9002 2.5011L11.8826 2.65007L11.8829 2.6501L11.9002 2.5011ZM11.854 2.49565L11.8716 2.34668L11.8628 2.34565H11.854V2.49565ZM7.69102 5.88851C8.91995 4.65765 10.1519 3.42395 11.3757 2.19292L11.163 1.98142C9.93946 3.21217 8.70771 4.44562 7.47873 5.67654L7.69102 5.88851ZM11.3763 2.1924C11.54 2.02603 11.7179 1.9645 11.912 1.98822L11.9484 1.69043C11.6528 1.65431 11.3848 1.75603 11.1625 1.98195L11.3763 2.1924ZM11.9126 1.98829L11.9588 1.99374L11.994 1.6958L11.9478 1.69036L11.9126 1.98829ZM11.9571 1.99353C12.1286 2.01574 12.3026 2.03849 12.4641 2.10368L12.5764 1.82551C12.3735 1.74358 12.1611 1.71744 11.9957 1.69601L11.9571 1.99353ZM12.4639 2.10363C13.3348 2.45615 13.9697 3.08077 14.3542 3.96091L14.6291 3.8408C14.2141 2.89081 13.522 2.2083 12.5765 1.82555L12.4639 2.10363ZM14.3537 3.95981C14.4122 4.0967 14.4423 4.23993 14.4728 4.38172L14.7661 4.31865C14.7368 4.18254 14.7015 4.01008 14.6296 3.84191L14.3537 3.95981ZM14.4739 4.38675C14.4801 4.41138 14.4858 4.43712 14.492 4.46536C14.498 4.49282 14.5046 4.52287 14.5119 4.55247L14.8031 4.48007C14.7969 4.45527 14.7912 4.42946 14.785 4.40107C14.779 4.37346 14.7724 4.34335 14.7649 4.31362L14.4739 4.38675ZM14.5113 4.54971C14.5159 4.56986 14.5177 4.59303 14.516 4.61703L14.8152 4.63888C14.819 4.58656 14.8153 4.53341 14.8037 4.48282L14.5113 4.54971ZM14.5162 4.61401C14.4978 4.81202 14.4251 4.96695 14.293 5.09932L14.5053 5.31129C14.6886 5.1277 14.7902 4.90689 14.8149 4.6419L14.5162 4.61401ZM14.293 5.09925C12.1557 7.23691 10.0184 9.37746 7.88111 11.5206L8.09353 11.7324C10.2308 9.58939 12.368 7.44893 14.5052 5.31136L14.293 5.09925ZM7.88118 11.5205C7.77467 11.6272 7.65144 11.6927 7.50142 11.7251L7.56473 12.0183C7.76848 11.9743 7.94423 11.8819 8.09346 11.7325L7.88118 11.5205ZM7.50263 11.7248C6.74096 11.8827 5.97615 12.0463 5.21532 12.207L5.2773 12.5005C6.03917 12.3396 6.80256 12.1763 7.56352 12.0186L7.50263 11.7248ZM5.21544 12.2069L4.73679 12.3076L4.79853 12.6012L5.27718 12.5005L5.21544 12.2069ZM4.74132 12.3067C4.70063 12.314 4.66367 12.3181 4.62905 12.3181V12.6181C4.68681 12.6181 4.7423 12.6113 4.79399 12.602L4.74132 12.3067ZM4.62905 12.3181C4.50394 12.3181 4.38773 12.2701 4.3055 12.1877L4.09325 12.3997C4.23414 12.5408 4.42777 12.6181 4.62905 12.6181V12.3181ZM4.30547 12.1877C4.20055 12.0827 4.15407 11.923 4.1886 11.7548L3.89472 11.6945C3.84209 11.951 3.90982 12.2162 4.09328 12.3998L4.30547 12.1877ZM4.1884 11.7557L4.28078 11.32L3.98731 11.2578L3.89492 11.6935L4.1884 11.7557ZM4.28082 11.3198C4.44681 10.5327 4.61255 9.74613 4.7837 8.95979L4.49057 8.89599C4.31917 9.68345 4.15323 10.471 3.98727 11.2579L4.28082 11.3198ZM4.78369 8.95984C4.80999 8.8392 4.87984 8.71145 4.97303 8.61591L4.75827 8.40644C4.62842 8.53957 4.52961 8.7169 4.49058 8.89594L4.78369 8.95984ZM4.97271 8.61624C5.44519 8.13484 5.9231 7.65901 6.39939 7.18203L6.1871 6.97006C5.71166 7.4462 5.23227 7.92349 4.7586 8.4061L4.97271 8.61624ZM6.39939 7.18203L7.69102 5.88851L7.47873 5.67653L6.1871 6.97006L6.39939 7.18203ZM11.8404 2.34565C11.7656 2.34565 11.706 2.3842 11.6484 2.4328L11.842 2.66198C11.8523 2.65326 11.8599 2.6475 11.8652 2.6438C11.8705 2.64006 11.8727 2.63904 11.8721 2.63931C11.8714 2.63968 11.8675 2.64153 11.861 2.64315C11.8541 2.64488 11.8469 2.64565 11.8404 2.64565V2.34565ZM11.6388 2.44164C10.4099 3.67784 9.17827 4.91126 7.94637 6.14496L8.15866 6.35694C9.39051 5.12328 10.6224 3.88962 11.8516 2.65315L11.6388 2.44164ZM7.94637 6.14496L6.65474 7.43848L6.86703 7.65046L8.15866 6.35694L7.94637 6.14496ZM6.65505 7.43817C6.17878 7.91234 5.70538 8.38923 5.23198 8.86877L5.44548 9.07953C5.9185 8.60037 6.39126 8.12413 6.86671 7.65077L6.65505 7.43817ZM5.22703 8.87403C5.19245 8.91262 5.15352 8.97322 5.1406 9.03168L5.43353 9.09642C5.43229 9.10204 5.43114 9.10423 5.43189 9.10248C5.43245 9.10117 5.43372 9.0985 5.43585 9.09479C5.44036 9.08694 5.44591 9.07931 5.45043 9.07427L5.22703 8.87403ZM5.14042 9.03252C4.97172 9.81709 4.80581 10.6045 4.64004 11.3886L4.93355 11.4506C5.09939 10.6662 5.26516 9.87951 5.43371 9.09558L5.14042 9.03252ZM4.64011 11.3882L4.56387 11.745L4.85724 11.8077L4.93348 11.4509L4.64011 11.3882ZM4.74136 11.9232L5.14381 11.8387L5.08219 11.5451L4.67975 11.6296L4.74136 11.9232ZM5.14385 11.8387C5.90707 11.6783 6.6704 11.5171 7.43344 11.3567L7.37173 11.0631C6.6065 11.224 5.8472 11.3843 5.08215 11.5451L5.14385 11.8387ZM7.43515 11.3563C7.50852 11.34 7.56781 11.3112 7.62569 11.2533L7.4134 11.0413C7.40435 11.0503 7.39923 11.0535 7.39615 11.0551C7.39264 11.057 7.38579 11.06 7.37002 11.0635L7.43515 11.3563ZM7.62569 11.2533C9.76305 9.11276 11.9003 6.9697 14.0402 4.83208L13.8281 4.61983C11.6881 6.75764 9.55059 8.90096 7.4134 11.0413L7.62569 11.2533ZM14.0362 4.83589C14.0958 4.78055 14.1308 4.72114 14.1486 4.64134L13.8557 4.57624C13.8528 4.58923 13.8502 4.59456 13.8486 4.59725C13.8469 4.60009 13.8432 4.60576 13.8321 4.61602L14.0362 4.83589ZM14.1496 4.58123C14.145 4.55692 14.1398 4.53293 14.1351 4.51157C14.1303 4.48945 14.1261 4.46989 14.1225 4.45073L13.8276 4.50542C13.8321 4.5299 13.8373 4.55396 13.842 4.57542C13.8469 4.59764 13.8511 4.61719 13.8547 4.63634L14.1496 4.58123ZM14.1218 4.44724C14.098 4.33372 14.0708 4.20607 14.0254 4.10217L13.7505 4.2224C13.7813 4.29272 13.8029 4.38844 13.8283 4.50891L14.1218 4.44724ZM14.0253 4.10214C13.6811 3.31561 13.1087 2.75295 12.3318 2.43828L12.2192 2.71634C12.9215 3.00078 13.4368 3.50562 13.7505 4.22243L14.0253 4.10214ZM12.3337 2.43905C12.2069 2.3857 12.0537 2.36787 11.9174 2.35209L11.8829 2.6501C12.0295 2.66707 12.1373 2.68192 12.2174 2.71558L12.3337 2.43905ZM11.9177 2.35213L11.8716 2.34668L11.8364 2.64462L11.8826 2.65007L11.9177 2.35213ZM11.854 2.34565H11.8404V2.64565H11.854V2.34565ZM2.39112 4.65227C2.09326 4.65227 1.84959 4.89661 1.84959 5.19438H2.14959C2.14959 5.06188 2.25936 4.95227 2.39112 4.95227V4.65227ZM1.84959 5.19438V14.1074H2.14959V5.19438H1.84959ZM1.84959 14.1074C1.84959 14.4052 2.09325 14.6496 2.39112 14.6496V14.3496C2.25936 14.3496 2.14959 14.24 2.14959 14.1074H1.84959ZM2.39112 14.6496H11.2884V14.3496H2.39112V14.6496ZM11.2884 14.6496C11.5862 14.6496 11.8299 14.4052 11.8299 14.1074H11.5299C11.5299 14.24 11.4201 14.3496 11.2884 14.3496V14.6496ZM11.8299 14.1074V9.54606H11.5299V14.1074H11.8299ZM11.8299 9.54606C11.8299 9.44352 11.9126 9.3611 12.0144 9.3611V9.0611C11.7465 9.0611 11.5299 9.27817 11.5299 9.54606H11.8299ZM12.0144 9.3611C12.1163 9.3611 12.1988 9.44347 12.1988 9.54606H12.4988C12.4988 9.27822 12.2824 9.0611 12.0144 9.0611V9.3611ZM12.1988 9.54606V14.1074H12.4988V9.54606H12.1988ZM12.1988 14.1074C12.1988 14.6077 11.7924 15.0166 11.2911 15.0166V15.3166C11.959 15.3166 12.4988 14.7725 12.4988 14.1074H12.1988ZM11.2911 15.0166H2.39112V15.3166H11.2911V15.0166ZM2.39112 15.0166C1.89196 15.0166 1.48331 14.61 1.48331 14.1074H1.18331C1.18331 14.7758 1.7264 15.3166 2.39112 15.3166V15.0166ZM1.48331 14.1074V5.19159H1.18331V14.1074H1.48331ZM1.48331 5.19159C1.48331 4.69118 1.88982 4.28223 2.39112 4.28223V3.98223C1.72323 3.98223 1.18331 4.5264 1.18331 5.19159H1.48331ZM2.39112 4.28223H7.13889V3.98223H2.39112V4.28223ZM7.13889 4.28223C7.24064 4.28223 7.32335 4.36474 7.32335 4.46718H7.62335C7.62335 4.19947 7.40674 3.98223 7.13889 3.98223V4.28223ZM7.32335 4.46718C7.32335 4.56982 7.24061 4.65227 7.13889 4.65227V4.95227C7.40677 4.95227 7.62335 4.73503 7.62335 4.46718H7.32335ZM7.13889 4.65227H2.39112V4.95227H7.13889V4.65227Z" fill="#5C5263"/>
</svg>
