<svg width="15" height="14" viewBox="0 0 15 14" fill="none" xmlns="http://www.w3.org/2000/svg">
<g id="Group 27">
<g id="Shape">
<path fill-rule="evenodd" clip-rule="evenodd" d="M10.7592 10.0926C12.8194 8.03241 12.8194 4.69226 10.7592 2.63211C8.69904 0.571957 5.35888 0.571957 3.29873 2.63211C1.23858 4.69226 1.23858 8.03241 3.29873 10.0926C5.35888 12.1528 8.69904 12.1528 10.7592 10.0926ZM11.2921 10.6255C13.6466 8.27101 13.6466 4.45368 11.2921 2.09922C8.93763 -0.25524 5.1203 -0.25524 2.76584 2.09922C0.411386 4.45368 0.411386 8.27101 2.76584 10.6255C5.1203 12.9799 8.93763 12.9799 11.2921 10.6255Z" fill="#FDFCFE"/>
<path d="M11.2921 2.09922L11.5042 1.88708L11.5042 1.88708L11.2921 2.09922ZM2.76584 2.09922L2.55371 1.88708L2.55371 1.88708L2.76584 2.09922ZM2.76584 10.6255L2.55371 10.8376L2.55371 10.8376L2.76584 10.6255ZM10.9713 10.3047C13.1487 8.12739 13.1487 4.59728 10.9713 2.41997L10.5471 2.84424C12.4901 4.78723 12.4901 7.93744 10.5471 9.88045L10.9713 10.3047ZM10.9713 2.41997C8.79401 0.242669 5.26391 0.242667 3.0866 2.41998L3.51087 2.84424C5.45386 0.901247 8.60406 0.901246 10.5471 2.84424L10.9713 2.41997ZM3.0866 2.41998C0.909293 4.59728 0.909295 8.12739 3.0866 10.3047L3.51087 9.88045C1.56787 7.93744 1.56787 4.78723 3.51087 2.84424L3.0866 2.41998ZM3.0866 10.3047C5.26391 12.482 8.79401 12.482 10.9713 10.3047L10.5471 9.88045C8.60406 11.8235 5.45386 11.8235 3.51087 9.88045L3.0866 10.3047ZM11.5042 10.8376C13.9758 8.36598 13.9758 4.3587 11.5042 1.88708L11.08 2.31135C13.3173 4.54865 13.3173 8.17603 11.08 10.4133L11.5042 10.8376ZM11.5042 1.88708C9.03261 -0.584529 5.02533 -0.584529 2.55371 1.88708L2.97797 2.31135C5.21528 0.0740496 8.84266 0.0740496 11.08 2.31135L11.5042 1.88708ZM2.55371 1.88708C0.0820971 4.3587 0.0820971 8.36598 2.55371 10.8376L2.97797 10.4133C0.740676 8.17603 0.740676 4.54865 2.97797 2.31135L2.55371 1.88708ZM2.55371 10.8376C5.02533 13.3092 9.03261 13.3092 11.5042 10.8376L11.08 10.4133C8.84266 12.6506 5.21528 12.6506 2.97797 10.4133L2.55371 10.8376Z" fill="#FDFCFE"/>
</g>
<path id="Path" fill-rule="evenodd" clip-rule="evenodd" d="M11.0259 10.359C11.173 10.2119 11.4116 10.2119 11.5587 10.359L14.2232 13.0235C14.3704 13.1706 14.3704 13.4092 14.2232 13.5564C14.0761 13.7035 13.8375 13.7035 13.6904 13.5564L11.0259 10.8919C10.8788 10.7448 10.8788 10.5062 11.0259 10.359Z" fill="#FDFCFE" stroke="#FDFCFE" stroke-width="0.6"/>
</g>
</svg>
