<svg width="18" height="10" viewBox="0 0 18 10" fill="none" xmlns="http://www.w3.org/2000/svg">
<g id="arrow_right">
<path id="Path" d="M0 5.00003C0 5.39431 0.32 5.71431 0.714286 5.71431H14.7043L11.6386 8.78003C11.36 9.0586 11.36 9.51146 11.6386 9.79003C11.9171 10.0686 12.37 10.0686 12.6486 9.79003L16.9343 5.50431C17 5.4386 17.0529 5.36003 17.0886 5.27288C17.1229 5.18574 17.1429 5.09431 17.1429 5.00288C17.1429 5.00146 17.1429 5.00146 17.1429 5.00003C17.1429 4.90717 17.1243 4.81431 17.0871 4.72717C17.0514 4.64003 16.9986 4.56146 16.9329 4.49574L12.6471 0.210027C12.3686 -0.0685442 11.9157 -0.0685442 11.6371 0.210027C11.3586 0.488599 11.3586 0.941456 11.6371 1.22003L14.7043 4.28574H0.714286C0.32 4.28574 0 4.60574 0 5.00003Z" fill="#A775C8"/>
</g>
</svg>
