<?xml version="1.0" encoding="UTF-8"?>
<svg width="14px" height="14px" viewBox="0 0 14 14" version="1.1" xmlns="http://www.w3.org/2000/svg" xmlns:xlink="http://www.w3.org/1999/xlink">
    <!-- Generator: Sketch 64 (93537) - https://sketch.com -->
    <title>Shape</title>
    <desc>Created with Sketch.</desc>
    <g id="Page-1" stroke="none" stroke-width="1" fill="none" fill-rule="evenodd">
        <path d="M7,0 C3.13413333,0 0,3.13413333 0,7 C0,10.8658667 3.13413333,14 7,14 C10.8658667,14 14,10.8658667 14,7 C14,3.13413333 10.8658667,0 7,0 Z M7,13.0666667 C3.65493333,13.0666667 0.933333333,10.3450667 0.933333333,7 C0.933333333,3.65493333 3.65493333,0.933333333 7,0.933333333 C10.3450667,0.933333333 13.0666667,3.65493333 13.0666667,7 C13.0666667,10.3450667 10.3450667,13.0666667 7,13.0666667 Z M10.7333333,6.53333333 L7.46666667,6.53333333 L7.46666667,3.26666667 C7.46666667,3.00906667 7.2576,2.8 7,2.8 C6.7424,2.8 6.53333333,3.00906667 6.53333333,3.26666667 L6.53333333,6.53333333 L3.26666667,6.53333333 C3.00906667,6.53333333 2.8,6.7424 2.8,7 C2.8,7.2576 3.00906667,7.46666667 3.26666667,7.46666667 L6.53333333,7.46666667 L6.53333333,10.7333333 C6.53333333,10.9909333 6.7424,11.2 7,11.2 C7.2576,11.2 7.46666667,10.9909333 7.46666667,10.7333333 L7.46666667,7.46666667 L10.7333333,7.46666667 C10.9909333,7.46666667 11.2,7.2576 11.2,7 C11.2,6.7424 10.9909333,6.53333333 10.7333333,6.53333333 Z" id="Shape" fill="#8B7FBF" fill-rule="nonzero"></path>
    </g>
</svg>