<svg width="16" height="16" viewBox="0 0 16 16" fill="none" xmlns="http://www.w3.org/2000/svg">
<path d="M0.690994 7.24695L7.72143 2.0913C8.02749 1.86586 8.46759 2.08286 8.46759 2.46953V5.29624C12.4674 5.5423 14.189 8.13747 15.4624 11.1943C15.6344 11.6068 15.1821 12.0042 14.7969 11.7816C12.9005 10.6965 11.3852 9.96866 8.46759 9.96866V12.7808C8.46759 13.1731 8.02139 13.3808 7.7219 13.1591L0.691463 8.00342C0.436024 7.81735 0.436493 7.43349 0.690994 7.24695ZM7.5302 11.8552V9.49997C7.5302 9.24078 7.74018 9.03127 7.9989 9.03127C9.15798 9.03127 11.3969 8.94316 14.076 10.3066L14.0558 10.2578C13.0341 7.80423 10.6564 6.2191 7.9989 6.2191C7.74018 6.2191 7.5302 6.00959 7.5302 5.7504V3.39474L1.76103 7.62518L7.5302 11.8552Z" fill="#89828E"/>
</svg>
