<?xml version="1.0" encoding="UTF-8"?>
<svg width="11px" height="12px" viewBox="0 0 11 12" version="1.1" xmlns="http://www.w3.org/2000/svg" xmlns:xlink="http://www.w3.org/1999/xlink">
    <title>Delete</title>
    <defs>
        <path d="M5.84452519,0 C6.37397743,0 6.85006863,0.264485745 7.08674147,0.691009508 L7.08674147,0.691009508 L7.25898006,1.00000342 L8.75397775,1.00000342 C9.52006865,1.00000342 10.1428571,1.56101545 10.1428571,2.24999487 L10.1428571,2.24999487 L10.1428571,2.74999146 C10.1428571,2.88798625 10.0184088,3 9.86506987,3 L9.86506987,3 L9.58685714,3 L9.58730538,10.2500017 C9.58730538,11.1690589 8.79615493,11.924831 7.79459147,11.9947253 L7.64285145,12 L2.64285145,12 C1.57064088,12 0.698397509,11.2150117 0.698397509,10.2500017 L0.698397509,10.2500017 L0.697857143,3 L0.420644414,3 C0.289220803,3 0.179006204,2.91770418 0.150198432,2.80729058 L0.142857143,2.74999146 L0.142857143,2.24999487 C0.142857143,1.56101545 0.765634241,1.00000342 1.53173654,1.00000342 L1.53173654,1.00000342 L3.02673423,1.00000342 L3.1984032,0.691009508 C3.43564566,0.264485745 3.91119003,0 4.44064227,0 L4.44064227,0 Z M9.03174223,3 L1.25397205,3 L1.25397205,10.2500017 C1.25397205,10.9390119 1.87673776,11.5000034 2.64285145,11.5000034 L2.64285145,11.5000034 L7.64285145,11.5000034 C8.40897653,11.5000034 9.03174223,10.9390119 9.03174223,10.2500017 L9.03174223,10.2500017 L9.03174223,3 Z M5.16408992,4.53768378 C5.31104922,4.53768378 5.43283178,4.64731885 5.43283178,4.77958223 L5.43283178,9.72041914 C5.43283178,9.85274404 5.31104922,9.96231758 5.16408992,9.96231758 C5.01730149,9.96231758 4.89531387,9.85274404 4.89531387,9.72041914 L4.89531387,4.77958223 C4.89531387,4.64731885 5.01730149,4.53768378 5.16408992,4.53768378 Z M6.76314049,4.53768378 C6.9100998,4.53768378 7.03188236,4.64731885 7.03188236,4.77958223 L7.03188236,9.72041914 C7.03188236,9.85274404 6.9100998,9.96231758 6.76314049,9.96231758 C6.61635206,9.96231758 6.49436444,9.85274404 6.49436444,9.72041914 L6.49436444,4.77958223 C6.49436444,4.64731885 6.61635206,4.53768378 6.76314049,4.53768378 Z M3.52257152,4.53768378 C3.669565,4.53768378 3.79134756,4.64731885 3.79134756,4.77958223 L3.79134756,9.72041914 C3.79134756,9.85274404 3.669565,9.96231758 3.52257152,9.96231758 C3.37578309,9.96231758 3.25382965,9.85274404 3.25382965,9.72041914 L3.25382965,4.77958223 C3.25382965,4.64731885 3.37578309,4.53768378 3.52257152,4.53768378 Z M5.84507201,0.499996582 L4.4411891,0.499996582 C4.12285701,0.499996582 3.83731165,0.658989467 3.69563832,0.914514112 L3.69563832,0.914514112 L3.44674165,1.36199496 C3.39952101,1.44648972 3.30340506,1.5 3.1984032,1.5 L3.1984032,1.5 L1.53173654,1.5 C1.07230073,1.5 0.698397509,1.83649239 0.698397509,2.24999487 L0.698397509,2.24999487 L0.698397509,2.50001367 L9.58730538,2.50001367 L9.58730538,2.24999487 C9.58730538,1.83649239 9.21340217,1.5 8.75397775,1.5 L8.75397775,1.5 L7.08731108,1.5 C6.98230922,1.5 6.88619328,1.44648972 6.83897263,1.36199496 L6.83897263,1.36199496 L6.59064558,0.914514112 C6.44840264,0.658989467 6.16285728,0.499996582 5.84507201,0.499996582 L5.84507201,0.499996582 Z" id="path-1"></path>
    </defs>
    <g id="Page-1" stroke="none" stroke-width="1" fill="none" fill-rule="evenodd">
        <g id="LL21---Select-address" transform="translate(-277.000000, -456.000000)">
            <g id="Pop-Up-Added-to-Shopping-Bag" transform="translate(0.000000, 273.000000)">
                <g id="Group-2" transform="translate(12.000000, 59.000000)">
                    <g id="Delete" transform="translate(265.000000, 124.000000)">
                        <mask id="mask-2" fill="white">
                            <use xlink:href="#path-1"></use>
                        </mask>
                        <use id="Combined-Shape" fill="#8B7FBF" xlink:href="#path-1"></use>
                    </g>
                </g>
            </g>
        </g>
    </g>
</svg>