<?xml version="1.0" encoding="UTF-8"?>
<svg width="11px" height="8px" viewBox="0 0 11 8" version="1.1" xmlns="http://www.w3.org/2000/svg" xmlns:xlink="http://www.w3.org/1999/xlink">
    <!-- Generator: Sketch 64 (93537) - https://sketch.com -->
    <title>Group 8</title>
    <desc>Created with Sketch.</desc>
    <defs>
        <polygon id="path-1" points="0 0.0383589744 2.69258205 0.0383589744 2.69258205 6.88493964 0 6.88493964"></polygon>
        <polygon id="path-3" points="0.0150724804 0.0383589744 7.25450252 0.0383589744 7.25450252 6.88493964 0.0150724804 6.88493964"></polygon>
    </defs>
    <g id="Page-1" stroke="none" stroke-width="1" fill="none" fill-rule="evenodd">
        <g id="Group-8">
            <g id="Group-7" transform="translate(0.000000, 0.307692)">
                <g id="Group-3" transform="translate(0.000000, 0.006348)">
                    <mask id="mask-2" fill="white">
                        <use xlink:href="#path-1"></use>
                    </mask>
                    <g id="Clip-2"></g>
                    <path d="M2.69258205,0.0383545036 L0.230805146,0.0383545036 C0.103346897,0.0383545036 -1.38491397e-05,0.138454438 -1.38491397e-05,0.26189165 L-1.38491397e-05,2.43024668 C-1.38491397e-05,2.55368389 0.103346897,2.65378383 0.230805146,2.65378383 C0.690781239,2.65378383 1.06498499,3.01618225 1.06498499,3.46164707 C1.06498499,3.9071119 0.690781239,4.26951032 0.230805146,4.26951032 C0.103346897,4.26951032 -1.38491397e-05,4.36961026 -1.38491397e-05,4.49304747 L-1.38491397e-05,6.6614025 C-1.38491397e-05,6.78483971 0.103346897,6.88493964 0.230805146,6.88493964 L2.69258205,6.88493964 L2.69258205,0.0383545036 Z" id="Fill-1" fill="#A775C8" mask="url(#mask-2)"></path>
                </g>
                <g id="Group-6" transform="translate(3.139138, 0.006348)">
                    <mask id="mask-4" fill="white">
                        <use xlink:href="#path-3"></use>
                    </mask>
                    <g id="Clip-5"></g>
                    <path d="M7.0237066,0.0383545036 L0.0150724804,0.0383545036 L0.0150724804,6.88493964 L7.0237066,6.88493964 C7.15116485,6.88493964 7.2545256,6.78483971 7.2545256,6.6614025 L7.2545256,0.26189165 C7.2545256,0.138454438 7.15116485,0.0383545036 7.0237066,0.0383545036" id="Fill-4" fill="#A775C8" mask="url(#mask-4)"></path>
                </g>
            </g>
        </g>
    </g>
</svg>