<?xml version="1.0" encoding="UTF-8"?>
<svg width="7px" height="7px" viewBox="0 0 7 7" version="1.1" xmlns="http://www.w3.org/2000/svg" xmlns:xlink="http://www.w3.org/1999/xlink">
    <!-- Generator: Sketch 64 (93537) - https://sketch.com -->
    <title>Shape</title>
    <desc>Created with Sketch.</desc>
    <g id="Page-1" stroke="none" stroke-width="1" fill="none" fill-rule="evenodd">
        <path d="M4.47723191,6.82954299 C4.24824113,7.056819 3.87854352,7.056819 3.65072986,6.82954299 L0.431034651,3.81694775 C0.251017513,3.64849804 0.0364532897,3.32929567 0.0209864888,3.08358522 C-0.0204043131,2.41885339 0.00877729723,1.14600391 0.0290347003,0.471167283 C0.0363164154,0.225211044 0.243598923,0.0190185495 0.490301242,0.0133653248 C1.35447111,-0.00668040908 3.18541184,-0.0280916562 3.3556014,0.141860118 L6.90119443,3.34204956 C7.12884384,3.56932558 6.92232783,4.14417933 6.69289905,4.37262969 L4.47723191,6.82954299 Z M2.51989909,1.13954512 C2.12889539,0.749190294 1.49666003,0.749190294 1.10532375,1.13954512 C0.715206931,1.53112016 0.715206931,2.16340846 1.10532375,2.55376329 C1.49693718,2.9444509 2.12917254,2.9444509 2.51989909,2.55376329 C2.91034849,2.16340846 2.91034849,1.53078738 2.51989909,1.13954512 Z" id="Shape" fill="#FFFFFF" fill-rule="nonzero"></path>
    </g>
</svg>