<?xml version="1.0" encoding="UTF-8"?>
<svg width="45px" height="11px" viewBox="0 0 45 11" version="1.1" xmlns="http://www.w3.org/2000/svg" xmlns:xlink="http://www.w3.org/1999/xlink">
    <title>logo</title>
    <defs>
        <polygon id="path-1" points="0.125367246 8.14683824 8.34481333 8.14683824 8.34481333 0.0717536621 0.125367246 0.0717536621"></polygon>
        <polygon id="path-3" points="0.13530833 8.14683824 8.35473752 8.14683824 8.35473752 0.0717536621 0.13530833 0.0717536621"></polygon>
        <polygon id="path-5" points="0 0.0933240704 0 5.54502448 6.16020684 5.54502448 6.16020684 0.0933240704"></polygon>
        <polygon id="path-7" points="5.84968906 0.0915486745 0.0267610852 0.0915486745 0.0267610852 5.3874002 5.84968906 5.3874002 5.84968906 0.0915486745"></polygon>
        <polygon id="path-9" points="8.23710293 0.0911523599 0.105046731 0.0911523599 0.105046731 8.51937932 8.23710293 8.51937932 8.23710293 0.0911523599"></polygon>
    </defs>
    <g id="Page-1" stroke="none" stroke-width="1" fill="none" fill-rule="evenodd">
        <g id="play/ic_launcher_APP" transform="translate(-112.000000, -167.000000)">
            <g id="logo" transform="translate(112.000000, 167.000000)">
                <path d="M22.0474212,4.73079065 C22.0474212,5.35772544 21.5368526,5.86608443 20.9070373,5.86608443 C20.2772221,5.86608443 19.7666535,5.35772544 19.7666535,4.73079065 C19.7666535,4.10370105 20.2772221,3.59534207 20.9070373,3.59534207 C21.5368526,3.59534207 22.0474212,4.10370105 22.0474212,4.73079065" id="Fill-1" fill="#B22655"></path>
                <g id="Group-5" transform="translate(8.933007, 1.513828)">
                    <mask id="mask-2" fill="white">
                        <use xlink:href="#path-1"></use>
                    </mask>
                    <g id="Clip-4"></g>
                    <path d="M5.67609286,1.08687377 C5.68689498,1.0971726 5.69894952,1.10593429 5.70959509,1.11638684 C6.89735894,2.28276813 6.88812235,4.19942711 5.70020194,5.36580841 C4.51212498,6.5321897 2.5696215,6.53188227 1.38185765,5.36565469 C1.37121208,5.35520215 1.36213203,5.34336617 1.35164302,5.33275991 L0.125367246,6.53695483 C0.135856264,6.54740738 0.145719071,6.55847478 0.156364642,6.56892733 C2.04219611,8.42056532 5.04017658,8.42056532 6.9258515,6.56908104 C8.81136987,4.71759677 8.82107612,1.76459848 6.93524465,-0.0870395098 C6.92459908,-0.097492057 6.9133273,-0.107176035 6.90268173,-0.117474868 L5.67609286,1.08687377 Z" id="Fill-3" fill="#F083A6" mask="url(#mask-2)"></path>
                </g>
                <path d="M10.4262685,6.94701783 C9.2507956,5.79291834 9.23471035,3.89712568 10.4165861,2.74697703 C11.5983057,1.59713228 13.5563339,1.6035144 14.7424262,2.74728094 L15.965374,1.55732003 C14.0835554,-0.263558729 11.0715526,-0.269940846 9.1936383,1.55701612 C7.31588012,3.384277 7.33212155,6.30576703 9.20347685,8.13682678 L10.4262685,6.94701783 Z" id="Fill-6" fill="#B22655"></path>
                <g id="Group-10" transform="translate(35.161836, 1.513828)">
                    <mask id="mask-4" fill="white">
                        <use xlink:href="#path-3"></use>
                    </mask>
                    <g id="Clip-9"></g>
                    <path d="M5.49596996,1.08672005 C5.50677209,1.0971726 5.51882663,1.10593429 5.5294722,1.11638684 C6.71723605,2.28276813 6.70799946,4.19942711 5.52007905,5.36565469 C4.33200209,6.5321897 2.38949861,6.53188227 1.20173476,5.36565469 C1.19108919,5.35520215 1.18216569,5.34336617 1.17152012,5.33275991 L-0.054755646,6.53695483 C-0.0442666282,6.54740738 -0.0344038204,6.55847478 -0.0237582501,6.56892733 C1.86207322,8.42056532 4.86005369,8.42056532 6.74572861,6.56908104 C8.63124698,4.71759677 8.64095323,1.76459848 6.75512176,-0.0870395098 C6.74447619,-0.097492057 6.73336096,-0.107176035 6.72255884,-0.117474868 L5.49596996,1.08672005 Z" id="Fill-8" fill="#B22655" mask="url(#mask-4)"></path>
                </g>
                <path d="M36.4650704,6.94701783 C35.2895723,5.79291834 35.2734867,3.89712568 36.4553878,2.74697703 C37.6371327,1.59713228 39.5952031,1.6035144 40.7813208,2.74728094 L42.0041387,1.55732003 C40.1224359,-0.263558729 37.1103684,-0.269940846 35.2324138,1.55701612 C33.3546153,3.384277 33.370857,6.30576703 35.2424087,8.13682678 L36.4650704,6.94701783 Z" id="Fill-11" fill="#F8C3D7"></path>
                <path d="M31.9881458,6.94158682 C31.9079125,6.86132712 31.7619628,6.84779314 31.6556614,6.94158682 C31.09715,7.39717861 30.4192252,7.70547027 29.6215747,7.70547027 C28.7847442,7.70547027 28.0517175,7.36066832 27.5219277,6.81222707 L26.2288287,8.11558157 C27.0917272,8.95059714 28.2675982,9.46142649 29.568346,9.46142649 C30.7515535,9.46142649 31.8949566,9.04596454 32.7989084,8.16106206 C32.8919416,8.06726838 32.918634,7.893215 32.8120204,7.79942132 L31.9881458,6.94158682 Z" id="Fill-13" fill="#F083A6"></path>
                <g id="Group-17" transform="translate(0.000000, 3.973799)">
                    <mask id="mask-6" fill="white">
                        <use xlink:href="#path-5"></use>
                    </mask>
                    <g id="Clip-16"></g>
                    <path d="M3.6636586,0.0933240704 L2.3647554,1.36867584 C2.424504,1.39368577 2.48440984,1.41885007 2.54431568,1.44262494 C3.66947622,1.88956155 4.24526408,2.34962066 4.24526408,3.02041154 C4.24526408,3.58575934 3.72309273,4.03269596 3.02639257,4.03269596 C2.15610698,4.03269596 1.55343225,3.62512681 1.00453126,3.21771206 C0.88377619,3.12570023 0.656259796,3.12570023 0.549026775,3.30972388 L0.067107116,4.12470778 C-0.0534907237,4.33543955 0.000125786535,4.41402011 0.134088446,4.51930881 C0.522297137,4.848143 1.39289719,5.54502448 3.08016631,5.54502448 C4.96837942,5.54502448 6.16020684,4.29591769 6.16020684,2.94152221 C6.16020684,1.37562304 4.88205841,0.605873142 3.6636586,0.0933240704" id="Fill-15" fill="#F5B0B3" mask="url(#mask-6)"></path>
                </g>
                <g id="Group-20">
                    <mask id="mask-8" fill="white">
                        <use xlink:href="#path-7"></use>
                    </mask>
                    <g id="Clip-19"></g>
                    <path d="M2.37661078,5.3874002 L3.67535674,4.11220281 C3.57001052,4.06774073 3.46497877,4.0245137 3.36136211,3.9836024 C2.27661048,3.54978828 1.78116877,3.12894226 1.78116877,2.51125888 C1.78116877,2.01136915 2.19642157,1.59052314 2.9597886,1.59052314 C3.69611152,1.59052314 4.24532698,1.95903357 4.82111484,2.31395836 C4.9816499,2.41909267 5.18275112,2.31395836 5.28982691,2.15587094 L5.79863344,1.40649949 C5.89234441,1.27496582 5.85209272,1.0515747 5.71844453,0.972839751 C5.45036198,0.775539235 4.40570481,0.0914714834 3.03997751,0.0914714834 C0.910883188,0.0914714834 0.0267610852,1.44586697 0.0267610852,2.61608443 C0.0267610852,4.09861718 1.17645001,4.88426845 2.37661078,5.3874002" id="Fill-18" fill="#F083A6" mask="url(#mask-8)"></path>
                </g>
                <g id="Group-23" transform="translate(24.708317, 0.000000)">
                    <mask id="mask-10" fill="white">
                        <use xlink:href="#path-9"></use>
                    </mask>
                    <g id="Clip-22"></g>
                    <path d="M1.61108183,8.19442807 L2.88291438,6.94565611 C2.32417849,6.39090254 1.98539887,5.61818262 1.98539887,4.77828971 C1.98539887,3.12863183 3.25190863,1.72783679 4.95864404,1.72783679 C5.70524293,1.72783679 6.45199838,2.01589669 7.01214324,2.500403 C7.1187555,2.60477476 7.25213823,2.60477476 7.34560008,2.500403 L8.15873379,1.67526663 C8.26534604,1.57089487 8.26534604,1.41364552 8.14542682,1.30881262 C7.23867472,0.510115045 6.26538779,0.0910908743 4.91872315,0.0910908743 C2.25200778,0.0910908743 0.105046731,2.1991237 0.105046731,4.81748676 C0.105046731,6.33049297 0.82252686,7.66303902 1.94203382,8.51937932 L1.61108183,8.19442807 Z" id="Fill-21" fill="#F5B0B3" mask="url(#mask-10)"></path>
                </g>
            </g>
        </g>
    </g>
</svg>