<?xml version="1.0" encoding="UTF-8"?>
<svg width="105px" height="24px" viewBox="0 0 105 24" version="1.1" xmlns="http://www.w3.org/2000/svg" xmlns:xlink="http://www.w3.org/1999/xlink">
    <!-- Generator: Sketch 41 (35326) - http://www.bohemiancoding.com/sketch -->
    <title>Page 1</title>
    <desc>Created with Sketch.</desc>
    <defs>
        <polygon id="path-1" points="0.298695833 19.6545878 19.8820749 19.6545878 19.8820749 0.173108709 0.298695833 0.173108709"></polygon>
        <polygon id="path-3" points="0.32238113 19.6545878 19.90572 19.6545878 19.90572 0.173108709 0.32238113 0.173108709"></polygon>
        <polygon id="path-5" points="0 0.224173554 0 13.3196917 14.6135668 13.3196917 14.6135668 0.224173554"></polygon>
        <polygon id="path-7" points="13.8769402 0.219908879 0.0634840545 0.219908879 0.0634840545 12.9410627 13.8769402 12.9410627 13.8769402 0.219908879"></polygon>
        <polygon id="path-9" points="19.6254477 0.219908879 0.250280849 0.219908879 0.250280849 20.5533588 19.6254477 20.5533588 19.6254477 0.219908879"></polygon>
    </defs>
    <g id="Page-1" stroke="none" stroke-width="1" fill="none" fill-rule="evenodd">
        <g id="User-Leave-Comment" transform="translate(-43.000000, -13.000000)">
            <g id="Page-1" transform="translate(43.000000, 13.000000)">
                <path d="M53.0995999,11.2215459 C53.0995999,12.7234531 51.8746784,13.9412958 50.3636684,13.9412958 C48.8526584,13.9412958 47.6277369,12.7234531 47.6277369,11.2215459 C47.6277369,9.71926785 48.8526584,8.50142509 50.3636684,8.50142509 C51.8746784,8.50142509 53.0995999,9.71926785 53.0995999,11.2215459" id="Fill-1" fill="#B22655"></path>
                <g id="Group-5" transform="translate(21.633814, 3.488578)">
                    <mask id="mask-2" fill="white">
                        <use xlink:href="#path-1"></use>
                    </mask>
                    <g id="Clip-4"></g>
                    <path d="M13.5236702,3.07865014 C13.549407,3.1034965 13.5781277,3.12463446 13.6034915,3.14985166 C16.4334182,5.9637953 16.4114114,10.5878152 13.5811117,13.4017588 C10.750439,16.2157025 6.12229479,16.2149608 3.29236811,13.401388 C3.26700433,13.3761708 3.24537051,13.347616 3.22037973,13.322028 L0.298695833,16.2271986 C0.323686619,16.2524158 0.347185417,16.2791163 0.372549199,16.3043335 C4.86566859,20.7714876 12.0085572,20.7714876 16.5013036,16.3047044 C20.993677,11.8379212 21.0168028,4.71368934 16.5236834,0.246535283 C16.4983196,0.221318076 16.4714639,0.197955075 16.4461001,0.173108709 L13.5236702,3.07865014 Z" id="Fill-3" fill="#F183A6" mask="url(#mask-2)"></path>
                </g>
                <path d="M24.9048095,16.8663806 C22.0972626,14.0498411 22.058844,9.42322526 24.8816837,6.61632761 C27.7041504,3.81017165 32.3807843,3.82574698 35.2136949,6.61706929 L38.1346328,3.71301123 C33.6400214,-0.730779826 26.4460323,-0.74635516 21.9607458,3.71226955 C17.4758323,8.17163594 17.514624,15.3014304 21.9842446,19.7700678 L24.9048095,16.8663806 Z" id="Fill-6" fill="#B22655"></path>
                <g id="Group-10" transform="translate(84.297276, 3.488578)">
                    <mask id="mask-4" fill="white">
                        <use xlink:href="#path-3"></use>
                    </mask>
                    <g id="Clip-9"></g>
                    <path d="M13.5473555,3.0782793 C13.5730923,3.1034965 13.601813,3.12463446 13.6271768,3.14985166 C16.4571035,5.9637953 16.4350967,10.5878152 13.604797,13.401388 C10.7741243,16.2157025 6.14598009,16.2149608 3.31605341,13.401388 C3.29068962,13.3761708 3.26942881,13.347616 3.24406502,13.322028 L0.32238113,16.2271986 C0.347371915,16.2524158 0.370870713,16.2791163 0.396234495,16.3043335 C4.88935389,20.7714876 12.0322425,20.7714876 16.5249889,16.3047044 C21.0173623,11.8379212 21.0404881,4.71368934 16.5473687,0.246535283 C16.5220049,0.221318076 16.4955222,0.197955075 16.4697854,0.173108709 L13.5473555,3.0782793 Z" id="Fill-8" fill="#B22655" mask="url(#mask-4)"></path>
                </g>
                <path d="M87.5919563,16.8663806 C84.7844095,14.0498411 84.7459908,9.42322526 87.5688305,6.61632761 C90.3912973,3.81017165 95.0679311,3.82574698 97.9008417,6.61706929 L100.821407,3.71301123 C96.3271683,-0.730779826 89.1331791,-0.74635516 84.6478926,3.71226955 C80.1629792,8.17163594 80.2017708,15.3014304 84.6717644,19.7700678 L87.5919563,16.8663806 Z" id="Fill-11" fill="#F8C4D7"></path>
                <path d="M76.8078357,17.1745868 C76.6161153,16.9854577 76.2673633,16.9535654 76.0133525,17.1745868 C74.67877,18.2481723 73.0588449,18.9746503 71.1528313,18.9746503 C69.1531955,18.9746503 67.4016025,18.1621371 66.1356514,16.8697552 L63.045746,19.9410627 C65.1076722,21.9087466 67.9174571,23.1124974 71.0256394,23.1124974 C73.8529551,23.1124974 76.5851566,22.1334764 78.745181,20.0482359 C78.9674871,19.8272145 79.0312696,19.417064 78.7765128,19.1960426 L76.8078357,17.1745868 Z" id="Fill-13" fill="#F183A6"></path>
                <g id="Group-17" transform="translate(0.000000, 9.792880)">
                    <mask id="mask-6" fill="white">
                        <use xlink:href="#path-5"></use>
                    </mask>
                    <g id="Clip-16"></g>
                    <path d="M8.69112372,0.224173554 L5.6097972,3.28769337 C5.75153598,3.34776965 5.89364776,3.40821678 6.03575954,3.46532634 C8.7049246,4.53891185 10.0708389,5.64401886 10.0708389,7.25532422 C10.0708389,8.61334499 8.83211651,9.68693049 7.17936771,9.68693049 C5.11483045,9.68693049 3.68513373,8.70790951 2.38300192,7.72925938 C2.09654038,7.50823797 1.55681402,7.50823797 1.30243021,7.95028078 L0.159195032,9.9079519 C-0.12689351,10.4141502 0.000298397436,10.6029085 0.318091667,10.8558222 C1.23902075,11.6457141 3.30430401,13.3196917 7.30693261,13.3196917 C11.7862511,13.3196917 14.6135668,10.3192149 14.6135668,7.06582433 C14.6135668,3.30438122 11.5814759,1.4553666 8.69112372,0.224173554" id="Fill-15" fill="#F6B0B4" mask="url(#mask-6)"></path>
                </g>
                <g id="Group-20" transform="translate(0.000000, 0.151007)">
                    <mask id="mask-8" fill="white">
                        <use xlink:href="#path-7"></use>
                    </mask>
                    <g id="Clip-19"></g>
                    <path d="M5.63792115,12.9410627 L8.71887468,9.87791375 C8.46896683,9.77111146 8.21980497,9.66727591 7.97400008,9.56900297 C5.40069519,8.52693897 4.22538229,7.51602564 4.22538229,6.03228968 C4.22538229,4.83150562 5.21046683,3.82059229 7.02136627,3.82059229 C8.76811026,3.82059229 10.0709881,4.70579042 11.4369023,5.55835452 C11.8177321,5.81089744 12.294795,5.55835452 12.5488058,5.17861305 L13.7558234,3.37854948 C13.9781295,3.06259271 13.8826423,2.52598538 13.565595,2.33685633 C12.9296355,1.86292117 10.4514448,0.219723458 7.21159463,0.219723458 C2.16084503,0.219723458 0.0634840545,3.47311401 0.0634840545,6.28409091 C0.0634840545,9.84527972 2.79083662,11.732491 5.63792115,12.9410627" id="Fill-18" fill="#F183A6" mask="url(#mask-8)"></path>
                </g>
                <g id="Group-23" transform="translate(59.306490, 0.151007)">
                    <mask id="mask-10" fill="white">
                        <use xlink:href="#path-9"></use>
                    </mask>
                    <g id="Clip-22"></g>
                    <path d="M3.83851002,19.7694003 L6.86873598,16.7566857 C5.53751042,15.4183196 4.73034535,13.5541004 4.73034535,11.5278237 C4.73034535,7.54795508 7.74788942,4.16847849 11.8143005,4.16847849 C13.5931222,4.16847849 15.3723169,4.86343505 16.7068994,6.03232676 C16.9609103,6.28412799 17.2787035,6.28412799 17.5013826,6.03232676 L19.438728,4.04165077 C19.6927388,3.78984954 19.6927388,3.41047892 19.4070232,3.15756516 C17.2466258,1.23067387 14.9277047,0.219760542 11.7191863,0.219760542 C5.36555889,0.219760542 0.250280849,5.30547786 0.250280849,11.6223882 C0.250280849,15.2725789 1.95972516,18.487402 4.62702524,20.5533588 L3.83851002,19.7694003 Z" id="Fill-21" fill="#F6B0B4" mask="url(#mask-10)"></path>
                </g>
            </g>
        </g>
    </g>
</svg>