<?xml version="1.0" encoding="UTF-8"?>
<svg width="16px" height="16px" viewBox="0 0 16 16" version="1.1" xmlns="http://www.w3.org/2000/svg" xmlns:xlink="http://www.w3.org/1999/xlink">
    <title>Components / Icon-Card / Delete</title>
    <defs>
        <polygon id="path-1" points="4.54747351e-13 0 15.9346861 0 15.9346861 16.0892625 4.54747351e-13 16.0892625"></polygon>
    </defs>
    <g id="Page-1" stroke="none" stroke-width="1" fill="none" fill-rule="evenodd">
        <g id="LL21---Shopping-Bag---voucher-redeemed" transform="translate(-863.000000, -401.000000)">
            <g id="Group-2" transform="translate(165.000000, 376.000000)">
                <g id="Group" transform="translate(698.000000, 25.000000)">
                    <mask id="mask-2" fill="white">
                        <use xlink:href="#path-1"></use>
                    </mask>
                    <g id="Clip-2"></g>
                    <path d="M9.46754043,2.23088399 C9.46754043,2.0460226 9.46978961,1.87673443 9.46713879,1.70752695 C9.45838305,1.15116759 9.27475352,0.965418602 8.72362393,0.96178754 C8.21884353,0.958479239 7.71382214,0.952992302 7.20912207,0.962594443 C6.74635315,0.971308991 6.55838591,1.15826833 6.53372525,1.61731523 C6.52320229,1.81371533 6.53195803,2.01116441 6.53195803,2.23088399 L9.46754043,2.23088399 Z M8.0012353,4.2668607 L8.0012353,4.26484344 C9.48031257,4.26484344 10.9593095,4.26484344 12.4383868,4.26492413 C13.1312951,4.26492413 13.8242837,4.27073383 14.5170313,4.26282618 C14.8276593,4.25927581 15.0200445,4.08982626 15.0391626,3.77263284 C15.0593249,3.43905929 14.885174,3.24532197 14.5572756,3.1994899 C14.4524477,3.18480428 14.3445674,3.18948431 14.2380526,3.18948431 C10.0803618,3.18924224 5.92267106,3.18932293 1.76506061,3.19069466 C1.63227862,3.19069466 1.49612287,3.18859672 1.36759826,3.2161121 C1.09874084,3.27372494 0.957042458,3.45180835 0.959186782,3.73059321 C0.961621147,4.02801752 1.11737691,4.21255615 1.40623597,4.25451509 C1.58930321,4.28114287 1.77855569,4.26645725 1.96507703,4.26653794 C3.97712979,4.26710277 5.98918254,4.2668607 8.0012353,4.2668607 L8.0012353,4.2668607 Z M2.78875912,5.23433695 C2.78875912,5.37635181 2.78875912,5.4692263 2.78875912,5.56218148 C2.78875912,8.13103668 2.78570666,10.6999726 2.78996404,13.2688278 C2.79189191,14.399379 3.44712643,15.0479674 4.58778234,15.0497426 C6.83824824,15.0532929 9.08959775,15.0129478 11.3389391,15.0646703 C12.3641638,15.0882318 13.2537951,14.3841286 13.2291344,13.1438386 C13.1795721,10.6561578 13.2144344,8.16686316 13.2144344,5.67821408 L13.2144344,5.23433695 L2.78875912,5.23433695 Z M1.84313931,5.2438584 C1.60183436,5.2173113 1.40213925,5.20916158 1.20806709,5.1717213 C0.455957139,5.02655952 -0.0583822814,4.35279583 0.00531772798,3.60947713 C0.0696603604,2.85897699 0.680714549,2.26743668 1.44214253,2.25880282 C2.68103943,2.24468203 3.92009699,2.25307381 5.15907422,2.25202484 C5.28936605,2.25194415 5.41957754,2.25202484 5.59798576,2.25202484 C5.59798576,1.99639809 5.59292511,1.77312813 5.5989497,1.55018094 C5.62232511,0.676870223 6.24791865,0.034737113 7.1158614,0.0123859103 C7.71494673,-0.00302592988 8.31507633,-0.0047204254 8.91416166,0.0110141758 C9.74563555,0.0329619272 10.3921947,0.703336629 10.406975,1.53581807 C10.4109111,1.75965286 10.4075373,1.98364903 10.4075373,2.25396141 C11.4574227,2.25396141 12.4659392,2.25412279 13.4744558,2.25388072 C13.7941607,2.25380003 14.113946,2.25250898 14.433651,2.25226691 C15.3096265,2.2515407 15.9734561,2.85849285 15.9992414,3.68355079 C16.024866,4.50400938 15.3938905,5.16074743 14.5260281,5.21424507 C14.4204772,5.22078098 14.3142838,5.21513266 14.1602952,5.21513266 C14.1602952,5.60535077 14.1602952,5.97612253 14.1602952,6.3468136 C14.1603755,8.66246275 14.1649542,10.9781119 14.15901,13.2937611 C14.1549133,14.8806158 13.0399623,15.996078 11.4651342,15.9979338 C9.16020596,16.000758 6.85535808,16.0005966 4.55042987,15.9979338 C2.95246734,15.9961587 1.83920324,14.8677053 1.84113111,13.2668105 C1.84410324,10.750404 1.84265734,8.23399746 1.84313931,5.71759093 C1.84313931,5.56016423 1.84313931,5.40265683 1.84313931,5.2438584 L1.84313931,5.2438584 Z" id="Fill-1" fill="#A179C5" mask="url(#mask-2)"></path>
                    <path d="M10.1101267,10.2333121 C10.1097319,10.2333121 10.1092582,10.2333121 10.1088634,10.2333121 C10.1088634,10.9097114 10.1150223,11.5861107 10.1061787,12.26243 C10.1018359,12.5903472 10.1726631,12.8544894 10.5456703,12.8892176 C10.8364011,12.9161839 11.012403,12.6938916 11.0139822,12.2969981 C11.0194305,10.9310765 11.01643,9.56515479 11.0180892,8.19923313 C11.018483,7.89444135 10.90786,7.66262676 10.5811233,7.65638529 C10.2378051,7.64974373 10.1074421,7.8755569 10.1091003,8.2041943 C10.1125745,8.88059358 10.1101267,9.55691285 10.1101267,10.2333121 M5.58034752,10.283804 L5.58192672,10.283804 C5.58192672,9.59404159 5.57695224,8.90419914 5.5841376,8.21451673 C5.58761184,7.88675954 5.47193539,7.65262441 5.12656421,7.65532158 C4.80898695,7.65790565 4.67767641,7.87179602 4.67822913,8.18667017 C4.68067689,9.57955818 4.67941353,10.9724462 4.67672679,12.3653342 C4.67609721,12.6831691 4.81775151,12.8885774 5.13572357,12.8840164 C5.45306395,12.8794553 5.58540096,12.6710062 5.58240048,12.3530113 C5.57576784,11.6633289 5.58034752,10.9734864 5.58034752,10.283804 M8.31481245,10.3002879 C8.31481245,9.4649712 8.31544413,8.62973451 8.31449661,7.79449782 C8.31402285,7.36471661 8.15452358,7.14730541 7.83978889,7.16490955 C7.46038593,7.18611455 7.37874125,7.45193714 7.37866229,7.77481318 C7.37834645,9.44536658 7.37566181,11.116 7.37976773,12.7865534 C7.38071525,13.1691235 7.57432525,13.4149414 7.85897618,13.3860546 C8.21611241,13.3498861 8.31939213,13.1017476 8.31623373,12.7662286 C8.30833773,11.9443551 8.31362805,11.1222415 8.31481245,10.3002879 M2.71804629,5.42618009 L12.9661901,5.42618009 L12.9661901,5.86636375 C12.9661901,8.33430494 12.9319215,10.8028863 12.9806398,13.2698672 C13.0048805,14.4998369 12.1303982,15.1980813 11.1225523,15.1747158 C8.91159239,15.1234237 6.69857952,15.1634331 4.48643521,15.1599123 C3.36520273,15.1581519 2.72112574,14.5149604 2.7192307,13.3938964 C2.71504581,10.8463365 2.71796733,8.29877657 2.71804629,5.75129666 C2.71804629,5.65919497 2.71804629,5.56701326 2.71804629,5.42618009" id="Fill-4" fill="#FFFFFF" mask="url(#mask-2)"></path>
                    <path d="M7.85031223,4.50809506 C5.86608763,4.50809506 3.88186303,4.50836777 1.89763843,4.50773145 C1.71369682,4.50764054 1.52706183,4.52418483 1.34652655,4.49418695 C1.06166262,4.44691756 0.908061074,4.23902313 0.905660377,3.90395586 C0.903545712,3.58988711 1.0432843,3.38926489 1.30842322,3.32436038 C1.43517024,3.29336257 1.56952209,3.29572604 1.70038838,3.29563514 C5.80049605,3.29408979 9.90068294,3.29408979 14.0008698,3.2943625 C14.1059114,3.2943625 14.2122997,3.28909014 14.3156777,3.30563443 C14.6390411,3.35726715 14.8107833,3.57552448 14.7908998,3.95122525 C14.7720462,4.30865458 14.5823218,4.4994593 14.2759901,4.50354992 C13.5928236,4.51245839 12.9094195,4.50591339 12.2260947,4.50591339 C10.7674741,4.50582249 9.30893279,4.50582249 7.85031223,4.50582249 L7.85031223,4.50809506 Z" id="Fill-6" fill="#FFFFFF" mask="url(#mask-2)"></path>
                    <path d="M9.35757617,2.37958511 L6.34313071,2.37958511 C6.34313071,2.16936111 6.33413975,1.98044516 6.3449454,1.79253285 C6.37026856,1.35332449 6.56328545,1.17444494 7.03848644,1.16610701 C7.55674505,1.15691984 8.0753336,1.16216965 8.5936747,1.16533498 C9.15961013,1.16880912 9.34817278,1.34653062 9.35716374,1.8788459 C9.35988578,2.04074077 9.35757617,2.20271284 9.35757617,2.37958511" id="Fill-8" fill="#FFFFFF" mask="url(#mask-2)"></path>
                    <path d="M8.450855,10.4778511 C8.45032175,11.3227777 8.44514155,12.1677043 8.45275948,13.0125487 C8.45588284,13.3573294 8.35624028,13.6123783 8.01168118,13.6496363 C7.73705471,13.6792453 7.550263,13.4265816 7.54934885,13.0333572 C7.54538752,11.3162802 7.54797762,9.59912088 7.54828233,7.88204383 C7.54828233,7.55025819 7.62712794,7.27695039 7.9931696,7.25515485 C8.2968204,7.23706044 8.45070264,7.46052638 8.45115972,7.90227667 C8.45207387,8.76077407 8.45138826,9.61935372 8.450855,10.4778511" id="Fill-10" fill="#A179C5" mask="url(#mask-2)"></path>
                    <path d="M5.73199112,10.1622886 C5.73199112,10.8455138 5.72742065,11.5287391 5.73403995,12.2118851 C5.73703439,12.5268662 5.60496366,12.733419 5.28826185,12.7379369 C4.97092963,12.7423754 4.82956037,12.5389138 4.83018868,12.2240912 C4.83287002,10.8444042 4.83413084,9.46471714 4.831688,8.08510936 C4.83113639,7.7732194 4.9621827,7.5612769 5.27912092,7.55879658 C5.62379714,7.55612497 5.73924082,7.78804111 5.73577357,8.112692 C5.72860267,8.79583801 5.73356714,9.47906329 5.73356714,10.1622886 L5.73199112,10.1622886 Z" id="Fill-12" fill="#A179C5" mask="url(#mask-2)"></path>
                    <path d="M10.2682528,10.412977 C10.2682528,9.74380835 10.2706833,9.07471887 10.2672336,8.40555023 C10.2655871,8.08042594 10.3950307,7.85702669 10.7359274,7.86359725 C11.0603595,7.869772 11.1702023,8.09910852 11.1698113,8.4006421 C11.1681638,9.75196219 11.1711431,11.1032823 11.1657333,12.4546024 C11.1641653,12.8472531 10.9894047,13.0671691 10.7007244,13.0404911 C10.3303481,13.0061341 10.2600205,12.7448156 10.2643327,12.4204038 C10.2731138,11.7513143 10.2669984,11.0821456 10.2669984,10.412977 C10.2673904,10.412977 10.2678608,10.412977 10.2682528,10.412977" id="Fill-14" fill="#A179C5" mask="url(#mask-2)"></path>
                </g>
            </g>
        </g>
    </g>
</svg>