<?xml version="1.0" encoding="UTF-8"?>
<svg width="95px" height="22px" viewBox="0 0 95 22" version="1.1" xmlns="http://www.w3.org/2000/svg" xmlns:xlink="http://www.w3.org/1999/xlink">
    <title>Group 14</title>
    <defs>
        <polygon id="path-1" points="0.189824 0.27072 7.851904 0.27072 7.851904 7.932704 0.189824 7.932704"></polygon>
    </defs>
    <g id="Page-1" stroke="none" stroke-width="1" fill="none" fill-rule="evenodd">
        <g id="play/ic_launcher_APP" transform="translate(-133.000000, -83.000000)">
            <g id="Group-14" transform="translate(133.000000, 83.000000)">
                <path d="M17,20.8989378 L17,14.4997388 C15.0189378,14.3373846 13.4121301,14.3646526 12.120484,14.6921818 C8.77221441,15.5415636 7.17800023,17.7474491 6.55542681,19.6834755 C6.27384797,20.5591851 6.18181818,21.1716176 6.18181818,21.1716176 L6.18181818,4 L0,4 L0,22 L15.8656118,22 C16.4920602,22 17,21.5069824 17,20.8989378" id="Fill-1" fill="#C9ABDD"></path>
                <path d="M50,20.8989378 L50,14.4997388 C48.0189378,14.3373846 46.4121301,14.3646526 45.120484,14.6921818 C41.7722144,15.5415636 40.1780002,17.7474491 39.5554268,19.6834755 C39.273848,20.5591851 39.1818182,21.1716176 39.1818182,21.1716176 L39.1818182,4 L33,4 L33,22 L48.8656118,22 C49.4920602,22 50,21.5069824 50,20.8989378" id="Fill-3" fill="#C9ABDD"></path>
                <path d="M71,20.8989378 L71,14.4997388 C69.0189378,14.3373846 67.4121301,14.3646526 66.120484,14.6921818 C62.7722144,15.5415636 61.1780002,17.7474491 60.5554268,19.6834755 C60.273848,20.5591851 60.1818182,21.1716176 60.1818182,21.1716176 L60.1818182,4 L54,4 L54,22 L69.8656118,22 C70.4920602,22 71,21.5069824 71,20.8989378" id="Fill-5" fill="#C9ABDD"></path>
                <path d="M25.9046875,21.9911057 L21,22 L21.0175,11 L27,11 L27,20.8345113 C27,21.4725982 26.51,21.9901174 25.9046875,21.9911057" id="Fill-7" fill="#C9ABDD"></path>
                <path d="M89.0604447,13.4512905 C89.0604447,16.1761382 87.4597267,18.0784307 84.9317559,18.0784307 C82.3997617,18.0784307 80.968029,16.148343 80.968029,13.1760873 C80.968029,10.1919194 82.4139985,8.27404931 84.9676576,8.27404931 C87.5145077,8.27404931 89.0604447,10.1338854 89.0604447,12.9011895 L89.0604447,13.4512905 Z M89.0765386,8.52817702 L88.9737856,8.52817702 L88.9106482,8.34430096 C87.8051253,5.19885968 85.6228625,4 82.6783089,4 C77.6359852,4 75,7.38490777 75,13.1641751 C75,18.8469227 77.7619504,22 82.6755234,22 C85.7150926,22 87.8023398,21.1307122 88.9004348,17.9495342 L88.9629532,17.7720724 L89.0715866,17.7720724 L89.0700392,21.7709185 L94.9851441,21.7709185 L95,4.22877603 L93.5069869,4.22877603 C91.3231767,4.24435357 89.8078798,5.70436612 89.3423964,7.0895454 C89.0765386,7.88064007 89.0765386,8.52817702 89.0765386,8.52817702 L89.0765386,8.52817702 Z" id="Fill-9" fill="#C9ABDD"></path>
                <g id="Group-13" transform="translate(20.000000, 0.000000)">
                    <mask id="mask-2" fill="white">
                        <use xlink:href="#path-1"></use>
                    </mask>
                    <g id="Clip-12"></g>
                    <path d="M4.020864,0.270624 C1.908544,0.270624 0.189824,1.989344 0.189824,4.101984 C0.189824,6.214304 1.908544,7.932704 4.020864,7.932704 C6.133184,7.932704 7.851904,6.214304 7.851904,4.101984 C7.851904,1.989344 6.133184,0.270624 4.020864,0.270624" id="Fill-11" fill="#C9ABDD" mask="url(#mask-2)"></path>
                </g>
            </g>
        </g>
    </g>
</svg>