<?xml version="1.0" encoding="UTF-8"?>
<svg width="13px" height="13px" viewBox="0 0 13 13" version="1.1" xmlns="http://www.w3.org/2000/svg" xmlns:xlink="http://www.w3.org/1999/xlink">
    <!-- Generator: Sketch 64 (93537) - https://sketch.com -->
    <title>Shape</title>
    <desc>Created with Sketch.</desc>
    <g id="Page-1" stroke="none" stroke-width="1" fill="none" fill-rule="evenodd">
        <path d="M12.601486,1.08776233 L11.9080844,0.389429867 C11.3925109,-0.129809956 10.4937755,-0.129809956 9.97820204,0.389429867 L9.08138562,1.2926237 C9.08074595,1.29326792 9.07946661,1.29455636 9.07882694,1.29520057 C9.07818728,1.29584479 9.07690794,1.29713323 9.07626827,1.29777745 L3.73694829,6.67442206 C3.67809871,6.73369013 3.64035821,6.81035209 3.62884417,6.89281201 L3.28214338,9.33697564 C3.26487231,9.45744444 3.30517148,9.57855745 3.3902475,9.66488268 C3.46253014,9.73896776 3.56039955,9.77890929 3.6614673,9.77890929 C3.67937804,9.77890929 3.69792846,9.77762085 3.7158392,9.77504398 L6.14274467,9.42587775 C6.22462235,9.41428182 6.30138267,9.37562873 6.35959258,9.31700488 L11.6982729,3.93971605 C11.6989126,3.93907183 11.7001919,3.93778339 11.7008316,3.93713918 C11.7014712,3.93649496 11.7027506,3.93520652 11.7033902,3.9345623 L12.6002067,3.03136847 C12.8579934,2.77174856 13,2.42709185 13,2.05988751 C13,1.69268317 12.8586331,1.34738224 12.601486,1.08776233 Z M5.90798603,8.6785847 L4.1143532,8.93691618 L4.3708606,7.12988429 L9.35068641,2.11529027 L10.8878118,3.66334647 L5.90798603,8.6785847 Z M12.0584067,2.48442727 L11.4302514,3.11704948 L9.89312601,1.56899329 L10.5212813,0.93637107 C10.7470846,0.708317847 11.1398416,0.708317847 11.3650052,0.93637107 L12.0584067,1.63470354 C12.1716282,1.74808593 12.2330365,1.89947719 12.2330365,2.05988751 C12.2330365,2.22029783 12.1716282,2.37104487 12.0584067,2.48442727 Z M12.2816513,6.81550584 L12.2816513,10.0365965 C12.2816513,11.670978 10.9620135,13 9.33917237,13 L2.94247896,13 C1.31963785,13 0,11.670978 0,10.0365965 L0,3.59441512 C0,1.9600337 1.31963785,0.63101167 2.94247896,0.63101167 L6.14082567,0.63101167 C6.35319589,0.63101167 6.52462727,0.804306351 6.52462727,1.01754256 C6.52462727,1.23077876 6.35255622,1.40407344 6.14082567,1.40407344 L2.94247896,1.40407344 C1.74309895,1.40407344 0.767603208,2.38650611 0.767603208,3.59441512 L0.767603208,10.0365965 C0.767603208,11.2445056 1.74309895,12.2269382 2.94247896,12.2269382 L9.33917237,12.2269382 C10.5385524,12.2269382 11.5140481,11.2445056 11.5140481,10.0365965 L11.5140481,6.81550584 C11.5140481,6.60162541 11.6861192,6.42897495 11.8978497,6.42897495 C12.1095803,6.42897495 12.2816513,6.60162541 12.2816513,6.81550584 Z" id="Shape" fill="#A774C8" fill-rule="nonzero"></path>
    </g>
</svg>