<?xml version="1.0" encoding="UTF-8"?>
<svg width="22px" height="24px" viewBox="0 0 22 24" version="1.1" xmlns="http://www.w3.org/2000/svg" xmlns:xlink="http://www.w3.org/1999/xlink">
    <!-- Generator: Sketch 64 (93537) - https://sketch.com -->
    <title>smartphone</title>
    <desc>Created with Sketch.</desc>
    <g id="Page-1" stroke="none" stroke-width="1" fill="none" fill-rule="evenodd">
        <g id="smartphone" fill-rule="nonzero">
            <path d="M7.64545946,0.363636364 L12.2991389,0.363636364 C13.0538849,0.363636364 13.6657433,0.97534524 13.6657433,1.72990688 L13.6657433,22.2700931 C13.6657433,23.0246548 13.0538849,23.6363636 12.2991389,23.6363636 L7.64545946,23.6363636 C6.89071341,23.6363636 6.27885503,23.0246548 6.27885503,22.2700931 L6.27885503,1.72990688 C6.27885503,0.97534524 6.89066638,0.363636364 7.64545946,0.363636364 Z" id="Path" fill="#F083A6"></path>
            <path d="M1.73594885,0.363636364 L6.38962825,0.363636364 C7.14437431,0.363636364 7.75623269,0.97534524 7.75623269,1.72990688 L7.75623269,22.2700931 C7.75623269,23.0246548 7.14437431,23.6363636 6.38962825,23.6363636 L1.73594885,23.6363636 C0.981202793,23.6363636 0.369344414,23.0246548 0.369344414,22.2700931 L0.369344414,1.72990688 C0.369344414,0.97534524 0.981155759,0.363636364 1.73594885,0.363636364 Z" id="Path" fill="#FFFFFF"></path>
            <path d="M3.0405903,0.363636364 L10.8098252,0.363636364 C11.5711633,0.363636364 12.1883657,0.97534524 12.1883657,1.72990688 L12.1883657,22.2700931 C12.1883657,23.0246548 11.5711633,23.6363636 10.8098252,23.6363636 L3.0405903,23.6363636 C2.27925225,23.6363636 1.66204986,23.0246548 1.66204986,22.2700931 L1.66204986,1.72990688 C1.66204986,0.97534524 2.2792048,0.363636364 3.0405903,0.363636364 Z" id="Path" fill="#FFC9CB"></path>
            <rect id="Rectangle" fill="#F083A6" x="1.66204986" y="2.72727273" width="10.5263158" height="16"></rect>
            <polygon id="Path" fill="#F083A6" points="20.6832872 5.27272727 6.09418283 5.27272727 6.09418283 12.8727348 7.71522608 12.8727348 7.71522608 15.2727273 10.9572176 12.8727348 20.6832872 12.8727348"></polygon>
            <g id="Group" transform="translate(5.540166, 5.090909)">
                <polygon id="Path" fill="#FFFFFF" points="13.8377074 0.043791996 0.434693625 0.043791996 0.434693625 7.65383646 2.05933309 7.65383646 2.05933309 10.0569985 5.30851682 7.65383646 13.8377074 7.65383646"></polygon>
                <ellipse id="Oval" fill="#B32656" cx="1.24701336" cy="16.0649037" rx="1.2184558" ry="1.20158103"></ellipse>
            </g>
            <g id="Group">
                <path d="M6.48018018,22.8 C5.58634424,22.8 4.86173542,22.0836562 4.86173542,21.2000156 C4.86173542,20.316375 5.58634424,19.6000312 6.48018018,19.6000312 C7.37401612,19.6000312 8.09862494,20.316375 8.09862494,21.2000156 C8.09767662,22.0832812 7.37363679,22.7990625 6.48018018,22.8 L6.48018018,22.8 Z M6.48018018,20.4 C6.0332385,20.4 5.67093409,20.7581719 5.67093409,21.2000156 C5.67093409,21.6418594 6.0332385,22.0000312 6.48018018,22.0000312 C6.92712186,22.0000312 7.28942627,21.6418594 7.28942627,21.2000156 C7.28890469,20.7583594 6.92688478,20.4005156 6.48018018,20.4 L6.48018018,20.4 Z" id="Shape" fill="#F083A6"></path>
                <path d="M13.358606,19.2 L0.410953058,19.2 C0.187482219,19.2 0.00635372214,19.0208906 0.00635372214,18.8000156 C0.00635372214,18.5791406 0.187529635,18.4000312 0.410953058,18.4000312 L13.3586534,18.4000312 C13.5821242,18.4000312 13.7632527,18.5790937 13.7632527,18.8000156 C13.7632527,19.0209375 13.5820768,19.2 13.358606,19.2 Z" id="Path" fill="#B32656"></path>
                <path d="M13.358606,3.20001562 L0.410953058,3.20001562 C0.187482219,3.20001562 0.00635372214,3.02090625 0.00635372214,2.80003125 C0.00635372214,2.57915625 0.187529635,2.40004687 0.410953058,2.40004687 L13.3586534,2.40004687 C13.5821242,2.40004687 13.7632527,2.57915625 13.7632527,2.80003125 C13.7632527,3.02090625 13.5820768,3.20001562 13.358606,3.20001562 Z" id="Path" fill="#B32656"></path>
                <path d="M6.88477952,2.00001563 L5.26633476,2.00001563 C5.04286392,2.00001563 4.86173542,1.82090625 4.86173542,1.60003125 C4.86173542,1.37915625 5.04291133,1.20004687 5.26633476,1.20004687 L6.88477952,1.20004687 C7.10825036,1.20004687 7.28937885,1.37915625 7.28937885,1.60003125 C7.28937885,1.82090625 7.10825036,2.00001563 6.88477952,2.00001563 Z" id="Path" fill="#B32656"></path>
                <path d="M8.50322428,2.00001563 L8.09862494,2.00001563 C7.8751541,2.00001563 7.6940256,1.82090625 7.6940256,1.60003125 C7.6940256,1.37915625 7.87520152,1.20004687 8.09862494,1.20004687 L8.50322428,1.20004687 C8.72669512,1.20004687 8.90782361,1.37915625 8.90782361,1.60003125 C8.90782361,1.82090625 8.72669512,2.00001563 8.50322428,2.00001563 Z" id="Path" fill="#B32656"></path>
                <path d="M7.40787103,15.4828594 C7.33200569,15.4078594 7.28937885,15.3060938 7.28937885,15.1999688 L7.28937885,13.2 L6.07553343,13.2 C5.96823139,13.2000469 5.86529161,13.1579063 5.78937885,13.0828594 C5.71351351,13.0078594 5.67088664,12.9060938 5.67088664,12.7999688 L5.67088664,5.19998437 C5.67088664,5.09390625 5.7134661,4.99214062 5.78937885,4.91709375 C5.86524419,4.84209375 5.96818397,4.79995309 6.07553343,4.79995309 L20.6416785,4.79995309 C20.7489806,4.79995309 20.8519203,4.84204687 20.9278331,4.91709375 C21.0037459,4.99214062 21.0463253,5.09385937 21.0463253,5.19998437 L21.0463253,12.7999688 C21.0463253,12.9060469 21.0037459,13.0078125 20.9278331,13.0828594 C20.8519678,13.1578594 20.749028,13.2 20.6416785,13.2 L11.0658606,13.2 L7.93679469,15.5199375 C7.86680891,15.5719688 7.78160266,15.6000001 7.6940256,15.6000001 C7.58672357,15.6000001 7.48378378,15.5579063 7.40787103,15.4828594 Z M6.48018018,12.3999844 L7.6940256,12.3999844 C7.80132764,12.3999375 7.90426743,12.4420781 7.98018018,12.517125 C8.05604552,12.592125 8.09867236,12.6938906 8.09867236,12.8000156 L8.09867236,14.4 L10.6881935,12.4800937 C10.7582266,12.4281562 10.8434329,12.4000312 10.93101,12.4000312 L20.2370792,12.4000312 L20.2370792,5.60001562 L6.48018018,5.60001562 L6.48018018,12.3999844 Z" id="Shape" fill="#B32656"></path>
                <path d="M11.9807966,24 L1.78876245,24 C0.804836415,23.998875 0.00749170223,23.210625 0.00630630631,22.237875 L0.00630630631,1.762125 C0.00749170223,0.789375 0.804836415,0.001125 1.78876245,0 L11.9807966,0 C12.9647226,0.001125 13.7620673,0.789375 13.7633476,1.762125 L13.7633476,5.20003125 C13.7633476,5.30610938 13.7206733,5.407875 13.6447606,5.48292187 C13.5688952,5.55792187 13.4659554,5.6000625 13.358606,5.6000625 L6.48018018,5.6000625 L6.48018018,12.4000781 L7.6940256,12.4000781 C7.80132764,12.4000312 7.90426743,12.4421719 7.98018018,12.5172187 C8.05604552,12.5922188 8.09867236,12.6939844 8.09867236,12.8001094 L8.09867236,14.4 L10.6881935,12.4800937 C10.7582266,12.4281562 10.8434329,12.4000312 10.93101,12.4000312 L13.3587008,12.4000312 C13.4660028,12.3999844 13.5689426,12.442125 13.6448554,12.5171719 C13.7207681,12.5922187 13.7633476,12.6939375 13.7633476,12.8000625 L13.7633476,22.2379688 C13.7621147,23.210625 12.9647226,23.998875 11.9807966,24 Z M1.78876245,0.800015625 C1.25154101,0.800625 0.8161688,1.23103125 0.815552394,1.762125 L0.815552394,22.2379219 C0.8161688,22.7690156 1.25154101,23.1994219 1.78876245,23.2000312 L11.9807966,23.2000312 C12.518018,23.1994219 12.9533902,22.7690156 12.9540066,22.2379219 L12.9540066,13.2 L11.0658606,13.2 L7.93679469,15.5199375 C7.81422475,15.6109219 7.65016596,15.6255937 7.51303936,15.5578594 C7.37591275,15.490125 7.28933144,15.3515625 7.28937885,15.2000156 L7.28937885,13.2 L6.07553343,13.2 C5.96823139,13.2000469 5.86529161,13.1579062 5.78937885,13.0828594 C5.71351351,13.0078594 5.67088668,12.9060937 5.67088668,12.7999687 L5.67088668,5.19998437 C5.67083926,5.09390625 5.7134661,4.99214062 5.78937885,4.91709375 C5.86524419,4.84209375 5.96818397,4.79995312 6.07553343,4.79995312 L12.9540066,4.79995312 L12.9540066,1.762125 C12.9533902,1.23103125 12.518018,0.800625 11.9807966,0.800015625 L1.78876245,0.800015625 Z" id="Shape" fill="#B32656"></path>
                <path d="M12.5494073,8.4 L8.50327169,8.4 C8.27980085,8.4 8.09867236,8.22089062 8.09867236,8.00001562 C8.09867236,7.77909375 8.27984827,7.60003125 8.50327169,7.60003125 L12.5494073,7.60003125 C12.7728781,7.60003125 12.9540066,7.77914062 12.9540066,8.00001562 C12.9540066,8.2209375 12.7728781,8.4 12.5494073,8.4 Z" id="Path" fill="#F083A6"></path>
                <path d="M18.2139877,10.4000156 L8.50322428,10.4000156 C8.27975344,10.4000156 8.09862494,10.2209062 8.09862494,10.0000313 C8.09862494,9.77915625 8.27980085,9.60004688 8.50322428,9.60004688 L18.2139877,9.60004688 C18.4374585,9.60004688 18.618587,9.77910938 18.618587,10.0000313 C18.618587,10.2209531 18.4374585,10.4000156 18.2139877,10.4000156 Z" id="Path" fill="#F083A6"></path>
            </g>
        </g>
    </g>
</svg>