<?xml version="1.0" encoding="UTF-8"?>
<svg width="38px" height="25px" viewBox="0 0 38 25" version="1.1" xmlns="http://www.w3.org/2000/svg" xmlns:xlink="http://www.w3.org/1999/xlink">
    <!-- Generator: Sketch 61.2 (89653) - https://sketch.com -->
    <title>eye-close-up</title>
    <desc>Created with Sketch.</desc>
    <g id="Page-1" stroke="none" stroke-width="1" fill="none" fill-rule="evenodd">
        <g id="Desktop-HD-Copy-2" transform="translate(-183.000000, -1320.000000)" fill="#8B7FBF" fill-rule="nonzero">
            <g id="Group" transform="translate(170.000000, 870.000000)">
                <g id="cta-copy" transform="translate(0.000000, 430.000000)">
                    <g id="eye-close-up" transform="translate(13.000000, 20.000000)">
                        <path d="M18.9826902,0.0213826367 C10.6088424,0.0213826367 3.39169346,4.95771704 0.0763665595,12.0811897 C-0.0254555198,12.2970525 -0.0254555198,12.5495713 0.0763665595,12.769507 C3.39169346,19.8929389 10.6088832,24.829314 18.9826902,24.829314 C27.3564973,24.829314 34.573687,19.8929796 37.8890139,12.769507 C37.990836,12.5536442 37.990836,12.3011254 37.8890139,12.0811897 C34.573687,4.95771704 27.356538,0.0213826367 18.9826902,0.0213826367 Z M18.9826902,20.9845531 C14.2540729,20.9845531 10.4255627,17.1519293 10.4255627,12.4273848 C10.4255627,7.69876742 14.2581458,3.87025723 18.9826902,3.87025723 C23.7113076,3.87025723 27.5398178,7.7028403 27.5398178,12.4273848 C27.5398178,17.1519293 23.7072347,20.9845531 18.9826902,20.9845531 Z" id="Shape"></path>
                        <circle id="Oval" cx="18.9826902" cy="12.4233119" r="5.47802787"></circle>
                    </g>
                </g>
            </g>
        </g>
    </g>
</svg>