<?xml version="1.0" encoding="UTF-8"?>
<svg width="18px" height="18px" viewBox="0 0 18 18" version="1.1" xmlns="http://www.w3.org/2000/svg" xmlns:xlink="http://www.w3.org/1999/xlink">
    <!-- Generator: Sketch 64 (93537) - https://sketch.com -->
    <title>Shape</title>
    <desc>Created with Sketch.</desc>
    <g id="Page-1" stroke="none" stroke-width="1" fill="none" fill-rule="evenodd">
        <g id="Components/Form/Switches/Radiobutton-Off" transform="translate(-1.000000, -1.000000)">
            <rect id="bounds" x="0" y="0" width="20" height="20"></rect>
            <path d="M10,1.66666667 C5.41666667,1.66666667 1.66666667,5.41666667 1.66666667,10 C1.66666667,14.5833333 5.41666667,18.3333333 10,18.3333333 C14.5833333,18.3333333 18.3333333,14.5833333 18.3333333,10 C18.3333333,5.41666667 14.5833333,1.66666667 10,1.66666667 L10,1.66666667 Z M10,16.6666667 C6.33333333,16.6666667 3.33333333,13.6666667 3.33333333,10 C3.33333333,6.33333333 6.33333333,3.33333333 10,3.33333333 C13.6666667,3.33333333 16.6666667,6.33333333 16.6666667,10 C16.6666667,13.6666667 13.6666667,16.6666667 10,16.6666667 L10,16.6666667 Z" id="Shape" fill-opacity="0.4" fill="#25182E" opacity="0.54"></path>
        </g>
    </g>
</svg>