<?xml version="1.0" encoding="UTF-8"?>
<svg width="10px" height="12px" viewBox="0 0 10 12" version="1.1" xmlns="http://www.w3.org/2000/svg" xmlns:xlink="http://www.w3.org/1999/xlink">
    <!-- Generator: Sketch 64 (93537) - https://sketch.com -->
    <title>Delete</title>
    <desc>Created with Sketch.</desc>
    <defs>
        <path d="M5.55534812,0.0122047782 C6.0708558,0.0122047782 6.53440785,0.276327645 6.76484727,0.702266212 L6.76484727,0.702266212 L6.93254949,1.01083618 L8.38817235,1.01083618 C9.13408618,1.01083618 9.74047184,1.5710785 9.74047184,2.25911263 L9.74047184,2.25911263 L9.74047184,2.75842321 C9.74047184,2.89622867 9.61930119,3.00808874 9.47000085,3.00808874 L9.47000085,3.00808874 L9.19884898,3.00720478 L9.19955205,10.2481433 C9.19955205,11.1636451 8.43308544,11.9169001 7.46136415,11.9899368 L7.30631058,11.9957406 L2.43799915,11.9957406 C1.39402816,11.9957406 0.544757679,11.2118294 0.544757679,10.2481433 L0.544757679,10.2481433 L0.543848976,3.00720478 L0.274319966,3.00808874 C0.146357752,3.00808874 0.0390459532,2.92590583 0.0109969129,2.81564372 L0.00384897611,2.75842321 L0.00384897611,2.25911263 C0.00384897611,1.5710785 0.610223549,1.01083618 1.35614846,1.01083618 L1.35614846,1.01083618 L2.81177133,1.01083618 L2.97891894,0.702266212 C3.20991297,0.276327645 3.67293259,0.0122047782 4.18844027,0.0122047782 L4.18844027,0.0122047782 Z M8.65862116,3.00808874 L1.08569966,3.00808874 L1.08569966,10.2481433 C1.08569966,10.9362082 1.69206314,11.49643 2.43799915,11.49643 L2.43799915,11.49643 L7.30631058,11.49643 C8.05225768,11.49643 8.65862116,10.9362082 8.65862116,10.2481433 L8.65862116,10.2481433 L8.65862116,3.00808874 Z M4.89283396,4.5436628 C5.0359227,4.5436628 5.15449778,4.65314744 5.15449778,4.78522935 L5.15449778,9.71928737 C5.15449778,9.85143072 5.0359227,9.96085392 4.89283396,9.96085392 C4.7499116,9.96085392 4.63113686,9.85143072 4.63113686,9.71928737 L4.63113686,4.78522935 C4.63113686,4.65314744 4.7499116,4.5436628 4.89283396,4.5436628 Z M6.4497692,4.5436628 C6.59285794,4.5436628 6.71143302,4.65314744 6.71143302,4.78522935 L6.71143302,9.71928737 C6.71143302,9.85143072 6.59285794,9.96085392 6.4497692,9.96085392 C6.30684684,9.96085392 6.1880721,9.85143072 6.1880721,9.71928737 L6.1880721,4.78522935 C6.1880721,4.65314744 6.30684684,4.5436628 6.4497692,4.5436628 Z M3.2945494,4.5436628 C3.43767142,4.5436628 3.5562465,4.65314744 3.5562465,4.78522935 L3.5562465,9.71928737 C3.5562465,9.85143072 3.43767142,9.96085392 3.2945494,9.96085392 C3.15162705,9.96085392 3.03288558,9.85143072 3.03288558,9.71928737 L3.03288558,4.78522935 C3.03288558,4.65314744 3.15162705,4.5436628 3.2945494,4.5436628 Z M5.55588055,0.511515358 L4.1889727,0.511515358 C3.87902474,0.511515358 3.601,0.670290102 3.46305802,0.925464164 L3.46305802,0.925464164 L3.22071672,1.37233106 C3.17473976,1.4567099 3.08115529,1.51014676 2.97891894,1.51014676 L2.97891894,1.51014676 L1.35614846,1.51014676 C0.90881314,1.51014676 0.544757679,1.84617747 0.544757679,2.25911263 L0.544757679,2.25911263 L0.544757679,2.5087884 L9.19955205,2.5087884 L9.19955205,2.25911263 C9.19955205,1.84617747 8.83549659,1.51014676 8.38817235,1.51014676 L8.38817235,1.51014676 L6.76540188,1.51014676 C6.66316553,1.51014676 6.56958106,1.4567099 6.5236041,1.37233106 L6.5236041,1.37233106 L6.28181741,0.925464164 C6.14332082,0.670290102 5.86529608,0.511515358 5.55588055,0.511515358 L5.55588055,0.511515358 Z" id="path-1"></path>
    </defs>
    <g id="Page-1" stroke="none" stroke-width="1" fill="none" fill-rule="evenodd">
        <g id="Delete">
            <mask id="mask-2" fill="white">
                <use xlink:href="#path-1"></use>
            </mask>
            <use id="Combined-Shape" fill="#EF6354" xlink:href="#path-1"></use>
        </g>
    </g>
</svg>