<?xml version="1.0" encoding="UTF-8"?>
<svg width="24px" height="24px" viewBox="0 0 24 24" version="1.1" xmlns="http://www.w3.org/2000/svg" xmlns:xlink="http://www.w3.org/1999/xlink">
    <!-- Generator: Sketch 64 (93537) - https://sketch.com -->
    <title>whatsapp color.1</title>
    <desc>Created with Sketch.</desc>
    <g id="Page-1" stroke="none" stroke-width="1" fill="none" fill-rule="evenodd">
        <g id="whatsapp-color.1" fill-rule="nonzero">
            <path d="M11.9965165,0 C5.381126,0 0,5.3826435 0,11.9999005 C0,14.6242255 0.8463305,17.0580125 2.285013,19.0334735 L0.7898025,23.491899 L5.4022245,22.0177695 C7.2993025,23.2734875 9.563217,24 12.0034835,24 C18.618874,24 24,18.6171575 24,12.0000995 C24,5.3828425 18.618874,0 12.0034835,0 L11.9965165,0 L11.9965165,0 Z" id="Whatsapp-path" fill="#67C15E"></path>
            <path d="M8.646425,6.095418 C8.413744,5.53814 8.237392,5.5170355 7.884887,5.5027005 C7.764864,5.495732 7.631107,5.4887635 7.48282,5.4887635 C7.024225,5.4887635 6.544731,5.622757 6.2555215,5.9190165 C5.9030165,6.2787885 5.0284215,7.11819 5.0284215,8.839601 C5.0284215,10.5610115 6.2837855,12.225878 6.452972,12.458824 C6.629324,12.6913715 8.900404,16.275155 12.4266485,17.735746 C15.1841895,18.8785745 16.002455,18.7726535 16.630037,18.63866 C17.546829,18.441154 18.696501,17.7636195 18.9857105,16.9455215 C19.27492,16.127025 19.27492,15.4285855 19.1901275,15.280456 C19.105534,15.132326 18.872654,15.047908 18.520149,14.8713075 C18.167644,14.6949055 16.453685,13.8483365 16.129245,13.735447 C15.8117715,13.6155895 15.5086295,13.6579975 15.2689815,13.996665 C14.9304095,14.4693265 14.599003,14.949155 14.3308925,15.238247 C14.1193095,15.4640255 13.773572,15.4922975 13.4845615,15.3722405 C13.096627,15.210174 12.010649,14.828899 10.6704925,13.636694 C9.633678,12.712675 8.928469,11.562878 8.724052,11.217242 C8.5194355,10.8646375 8.7029535,10.6597645 8.864974,10.469426 C9.0413265,10.250616 9.210513,10.095518 9.386865,9.890844 C9.563217,9.686369 9.661942,9.5804485 9.7747995,9.340534 C9.8948225,9.1077875 9.81003,8.867873 9.725437,8.691471 C9.6408435,8.5150695 8.9356345,6.7936585 8.646425,6.095418 Z" id="Whatsapp-path" fill="#FFFFFF"></path>
        </g>
    </g>
</svg>