<?xml version="1.0" encoding="UTF-8"?>
<svg width="50px" height="50px" viewBox="0 0 50 50" version="1.1" xmlns="http://www.w3.org/2000/svg" xmlns:xlink="http://www.w3.org/1999/xlink">
    <title>Group 5</title>
    <g id="Page-1" stroke="none" stroke-width="1" fill="none" fill-rule="evenodd">
        <g id="LL21---nutrition" transform="translate(-41.000000, -460.000000)">
            <g id="Group-7" transform="translate(16.000000, 200.000000)">
                <g id="Group-6-Copy-6" transform="translate(0.000000, 252.000000)">
                    <g id="Group-5" transform="translate(25.000000, 8.000000)">
                        <rect id="Rectangle" x="0" y="0" width="50" height="50"></rect>
                        <g id="seafood" transform="translate(1.000000, 4.000000)" fill-rule="nonzero">
                            <path d="M25.6333125,19.4023125 C25.0645313,20.3830313 23.808375,20.7169687 22.8276563,20.1481875 L19.0544063,17.959875 C18.0736875,17.3910937 17.73975,16.1349375 18.3085313,15.1542188 C18.8773125,14.1735 20.1334688,13.8395625 21.1141875,14.4083438 L24.8874375,16.5966563 C25.8681563,17.1654375 26.2020938,18.4215937 25.6333125,19.4023125 L25.6333125,19.4023125 Z" id="Path" fill="#E4989D"></path>
                            <path d="M24.8874375,16.5966563 L21.1141875,14.4083438 C20.1334687,13.8395625 18.8773125,14.1735 18.3085312,15.1542188 C18.1018125,15.5106563 18.01575,15.9034688 18.03525,16.2864375 C18.6794062,15.7135313 19.642125,15.588 20.4285937,16.0440938 L24.2018437,18.2324062 C24.826125,18.5944687 25.186875,19.2350625 25.221,19.90575 C25.3801875,19.7641875 25.520625,19.5964687 25.6333125,19.4022187 C26.2020937,18.4215937 25.8681562,17.1654375 24.8874375,16.5966562 L24.8874375,16.5966563 Z" id="Path" fill="#E28086"></path>
                            <path d="M33.9815625,19.4023125 C34.5503438,20.3830313 35.8065,20.7169687 36.7872188,20.1481875 L40.5604688,17.959875 C41.5411875,17.3910937 41.875125,16.1349375 41.3063438,15.1542188 C40.7375625,14.1735 39.4814063,13.8395625 38.5006875,14.4083438 L34.7274375,16.5966563 C33.7467188,17.1654375 33.4127813,18.4215937 33.9815625,19.4023125 Z" id="Path" fill="#E4989D"></path>
                            <path d="M41.3063438,15.1543125 C41.08125,14.7661875 40.7477813,14.481375 40.3671563,14.3116875 C40.5718125,15.1705312 40.2032813,16.0967812 39.4003125,16.5624375 L35.6270625,18.75075 C35.034375,19.0944375 34.3419375,19.1065312 33.7606875,18.8474062 C33.8059688,19.0375313 33.8785313,19.2244687 33.9816563,19.4022187 C34.5504375,20.3829375 35.8065938,20.716875 36.7873125,20.1480938 L40.5605625,17.9597812 C41.5411875,17.3910937 41.875125,16.1350312 41.3063438,15.1543125 L41.3063438,15.1543125 Z" id="Path" fill="#E28086"></path>
                            <path d="M33.988125,37.7597813 L31.6345313,34.3626563 L27.9803437,34.3626563 L25.62675,37.7597813 C25.4399062,38.0295 25.3754062,38.3720625 25.477125,38.6840625 C25.6185,39.1178438 26.0177812,39.3975938 26.4569062,39.3975938 L27.7995,39.3975938 C27.9299063,39.3975938 28.0434375,39.4892813 28.067625,39.6174375 C28.2224063,40.4383125 28.9415625,41.0596875 29.8074375,41.0596875 C30.6734063,41.0596875 31.3924687,40.4384063 31.5473438,39.6174375 C31.5715313,39.4892813 31.6850625,39.3975938 31.8154688,39.3975938 L33.1580625,39.3975938 C33.5971875,39.3975938 33.9964688,39.11775 34.1378438,38.6840625 C34.2394688,38.3720625 34.1749688,38.0294063 33.988125,37.7597813 L33.988125,37.7597813 Z" id="Path" fill="#E4989D"></path>
                            <path d="M33.988125,37.7597813 L31.6345312,34.3626563 L30.40725,34.3626563 L32.4938437,37.374375 C32.6806875,37.6440938 32.7451875,37.9866563 32.6434687,38.2986563 C32.5020938,38.7323438 32.1028125,39.0121875 31.6636875,39.0121875 L30.3210937,39.0121875 C30.1906875,39.0121875 30.0771562,39.103875 30.0529687,39.2320313 C29.9195625,39.9394688 29.3667187,40.4975625 28.6622812,40.6386563 C28.9709062,40.9010625 29.3702812,41.0596875 29.8073437,41.0596875 C30.6733125,41.0596875 31.392375,40.4384063 31.54725,39.6174375 C31.5714375,39.4892813 31.6849687,39.3975938 31.815375,39.3975938 L33.1579687,39.3975938 C33.5970937,39.3975938 33.996375,39.11775 34.13775,38.6840625 C34.2394687,38.3720625 34.1749687,38.0294063 33.988125,37.7597813 Z" id="Path" fill="#E28086"></path>
                            <path d="M30.14325,35.1689063 L29.471625,35.1689063 C28.40775,35.1689063 27.5453438,34.3065 27.5453438,33.242625 L27.5453438,33.201 C27.5453438,32.137125 28.40775,31.2747188 29.471625,31.2747188 L30.14325,31.2747188 C31.207125,31.2747188 32.0695313,32.137125 32.0695313,33.201 L32.0695313,33.242625 C32.0695313,34.3065 31.207125,35.1689063 30.14325,35.1689063 Z" id="Path" fill="#E4989D"></path>
                            <path d="M31.063875,32.5118438 L28.551,32.5118438 C27.487125,32.5118438 26.6247187,31.6494375 26.6247187,30.5855625 L26.6247187,30.5439375 C26.6247187,29.4800625 27.487125,28.6176562 28.551,28.6176562 L31.063875,28.6176562 C32.12775,28.6176562 32.9901562,29.4800625 32.9901562,30.5439375 L32.9901562,30.5855625 C32.9901562,31.6494375 32.1276563,32.5118438 31.063875,32.5118438 Z" id="Path" fill="#E4989D"></path>
                            <path d="M31.7974688,29.7463125 L27.8173125,29.7463125 C26.7534375,29.7463125 25.8910313,28.8839063 25.8910313,27.8200313 L25.8910313,27.7784063 C25.8910313,26.7145313 26.7534375,25.852125 27.8173125,25.852125 L31.7974688,25.852125 C32.8613438,25.852125 33.72375,26.7145313 33.72375,27.7784063 L33.72375,27.8200313 C33.72375,28.8839063 32.8613438,29.7463125 31.7974688,29.7463125 Z" id="Path" fill="#E4989D"></path>
                            <path d="M31.7766562,25.852125 L29.8159687,25.852125 C30.8912813,25.852125 31.7630625,26.7239062 31.7630625,27.7992188 C31.7630625,28.8745313 30.8912813,29.7463125 29.8159687,29.7463125 L31.7766562,29.7463125 C32.8519687,29.7463125 33.72375,28.8745313 33.72375,27.7992188 C33.72375,26.7239062 32.8520625,25.852125 31.7766562,25.852125 Z" id="Path" fill="#E28086"></path>
                            <path d="M31.3105312,9.5979375 L31.3105312,9.22246875 C31.3105312,8.71790625 30.9015,8.308875 30.3969375,8.308875 L29.2178437,8.308875 C28.7132812,8.308875 28.30425,8.71790625 28.30425,9.22246875 L28.30425,9.5979375 C28.30425,10.4882812 28.0461562,11.3595 27.5611875,12.106125 L26.061375,14.4150937 C25.1376562,15.8371875 24.6460313,17.4965625 24.6460313,19.1923125 L24.6460313,24.5743125 C24.6460313,25.835625 25.6685625,26.8581563 26.929875,26.8581563 L32.684625,26.8581563 C33.9459375,26.8581563 34.9684687,25.835625 34.9684687,24.5743125 L34.9684687,19.1923125 C34.9684687,17.4965625 34.4768438,15.8371875 33.553125,14.4150937 L32.0533125,12.106125 C31.568625,11.3595 31.3105313,10.4882812 31.3105313,9.5979375 L31.3105312,9.5979375 Z" id="Path" fill="#E28086"></path>
                            <path d="M33.5534063,14.4151875 L32.0535938,12.1062188 C31.568625,11.3595938 31.3105313,10.4882812 31.3105313,9.59803125 L31.3105313,9.2225625 C31.3105313,8.718 30.9015,8.30896875 30.3969375,8.30896875 L29.2178438,8.30896875 C29.014875,8.30896875 28.8279375,8.376 28.6763438,8.4879375 C28.901625,8.65434375 29.0483438,8.92096875 29.0483438,9.22246875 L29.0483438,9.5979375 C29.0483438,10.4882812 29.3064375,11.3595 29.7914063,12.106125 L31.2912188,14.4150938 C32.2149375,15.8371875 32.7065625,17.4965625 32.7065625,19.1923125 L32.7065625,24.5743125 C32.7065625,25.835625 31.6840313,26.8581563 30.4227188,26.8581563 L32.6848125,26.8581563 C33.946125,26.8581563 34.9686563,25.835625 34.9686563,24.5743125 L34.9686563,19.1923125 C34.9686563,17.4966563 34.4770313,15.8372812 33.5534063,14.4151875 L33.5534063,14.4151875 Z" id="Path" fill="#DD636E"></path>
                            <g id="Group" transform="translate(13.593750, 0.937500)">
                                <path d="M31.624875,3.51028125 C30.9471563,2.02209375 29.7604688,0.82471875 28.2784688,0.13359375 L28.2197813,0.10621875 C27.8509687,-0.06571875 27.4583438,0.294 27.5974688,0.67640625 L29.2005938,5.080875 C29.6665313,6.36103125 29.0608125,7.76990625 27.8416875,8.32490625 C27.8382188,8.3265 27.8338125,8.328375 27.8285625,8.3304375 C27.5989688,8.42315625 27.3383438,8.30315625 27.2536875,8.0705625 L25.8308438,4.161375 C25.691625,3.77896875 25.1595938,3.75571875 24.9876563,4.12453125 L24.0505313,6.13425 C23.281875,7.78275 22.9929375,9.615 23.2179375,11.4211875 C23.4504375,13.287375 24.64575,14.895375 26.350125,15.6900937 L27.5270625,16.2389062 C28.3789688,16.636125 29.3916563,16.2675937 29.788875,15.4156875 L31.5886875,11.5559062 C32.7766875,9.0084375 32.7899063,6.0684375 31.624875,3.51028125 L31.624875,3.51028125 Z" id="Path" fill="#E4989D"></path>
                                <path d="M31.624875,3.51028125 C30.9471563,2.02209375 29.7604688,0.82471875 28.2784688,0.13359375 L28.2197813,0.10621875 C28.0315313,0.018375 27.8374688,0.06965625 27.710625,0.19134375 C28.4165625,0.82115625 28.9913438,1.59375 29.3894063,2.467875 C30.5544375,5.02603125 30.5412188,7.96603125 29.3532187,10.5136875 L27.5534063,14.3734688 C27.2162813,15.0964687 26.436,15.4692187 25.6868438,15.3233438 C25.8979688,15.4594688 26.1192188,15.5826562 26.350125,15.6902812 L27.5270625,16.2390937 C28.3789687,16.6363125 29.3916562,16.2677812 29.788875,15.415875 L31.5886875,11.5560938 C32.7766875,9.0084375 32.7899062,6.0684375 31.624875,3.51028125 L31.624875,3.51028125 Z" id="Path" fill="#E28086"></path>
                                <g id="Path">
                                    <path d="M5.25103125,8.24709375 C5.2018125,8.3821875 5.05246875,8.45184375 4.91728125,8.40271875 C3.57225,7.91315625 2.87878125,6.426 3.36834375,5.08096875 L4.97146875,0.6765 C5.1106875,0.29409375 4.71796875,-0.06571875 4.34915625,0.1063125 L4.29046875,0.1336875 C2.80846875,0.8248125 1.62178125,2.0221875 0.9440625,3.510375 C-0.22096875,6.06853125 -0.20775,9.00853125 0.98025,11.5561875 L2.7800625,15.4159687 C3.17728125,16.267875 4.18996875,16.6365 5.041875,16.2391875 L6.2188125,15.690375 C7.954125,14.8812187 9.14446875,13.2286875 9.36234375,11.3265 C9.5656875,9.5510625 9.2735625,7.7540625 8.51840625,6.1344375 L7.58128125,4.12471875 C7.40934375,3.75590625 6.87721875,3.77915625 6.73809375,4.1615625 L5.25103125,8.24709375 Z" fill="#E4989D"></path>
                                    <path d="M4.02965625,3.264 L4.97146875,0.67640625 C5.1106875,0.294 4.71796875,-0.0658125 4.34915625,0.10621875 L4.29046875,0.13359375 C3.8113125,0.357 3.36365625,0.634125 2.9535,0.9560625 L4.02965625,3.264 Z" fill="#E28086"></path>
                                    <path d="M5.73421875,6.91940625 L5.9308125,7.34090625 C6.6860625,8.96053125 6.9781875,10.7575313 6.77475,12.5329688 C6.59559375,14.0967187 5.75896875,15.49125 4.503,16.3876875 C4.68496875,16.3682812 4.86684375,16.3206562 5.04196875,16.239 L6.21890625,15.6901875 C7.95421875,14.8810312 9.1445625,13.2285 9.3624375,11.3263125 C9.56578125,9.550875 9.27365625,7.753875 8.5185,6.13425 L7.581375,4.12453125 C7.4094375,3.75571875 6.8773125,3.77896875 6.7381875,4.161375 L5.73421875,6.91940625 Z" fill="#E28086"></path>
                                </g>
                            </g>
                            <path d="M40.8347813,32.6315625 L36.9395625,32.6315625 L36.9395625,30.9201562 L38.9847188,29.4143438 C39.959625,28.6965 41.138625,28.3093125 42.3493125,28.3093125 L46.697625,28.3093125 C47.3183438,28.3093125 47.54925,29.123625 47.020875,29.4495 L42.7339688,32.0930625 C42.1630313,32.4450937 41.5054688,32.6315625 40.8347813,32.6315625 L40.8347813,32.6315625 Z" id="Path" fill="#BED8FB"></path>
                            <path d="M46.6975313,28.3093125 L45.9405938,28.3093125 L39.8048438,32.0930625 C39.2339063,32.4450937 38.5764375,32.6315625 37.9056563,32.6315625 L40.8346875,32.6315625 C41.505375,32.6315625 42.1629375,32.4450938 42.733875,32.0930625 L47.0207812,29.4495 C47.5491563,29.123625 47.31825,28.3093125 46.6975313,28.3093125 L46.6975313,28.3093125 Z" id="Path" fill="#9DC6FB"></path>
                            <path d="M35.8494375,29.7358125 L33.2626875,29.7358125 C31.9063125,29.7358125 30.5843438,29.2865625 29.5234687,28.4413125 C25.927875,25.5762188 19.88625,23.3622188 14.6374688,23.3622188 C6.54909375,23.3622188 0.685125,29.6701875 0.685125,33.4155937 C0.685125,37.161 8.6038125,38.730375 16.6921875,38.730375 C22.4345625,38.730375 28.0910625,38.4687188 30.8893125,36.60075 C31.8915937,35.9316563 33.0572813,35.5487813 34.2623438,35.5487813 L35.8493438,35.5487813 C37.4545313,35.5487813 38.755875,34.2475313 38.755875,32.64225 C38.755875,31.0370625 37.4547188,29.7358125 35.8494375,29.7358125 Z" id="Path" fill="#BED8FB"></path>
                            <path d="M35.8494375,29.7358125 L33.2626875,29.7358125 C31.9063125,29.7358125 30.5843438,29.2865625 29.5234687,28.4413125 C25.927875,25.5762188 19.88625,23.3622188 14.6374688,23.3622188 C6.54909375,23.3622188 0.685125,29.6701875 0.685125,33.4155937 C0.685125,37.161 8.6038125,38.730375 16.6921875,38.730375 C22.4345625,38.730375 28.0910625,38.4687188 30.8893125,36.60075 C31.8915937,35.9316563 33.0572813,35.5487813 34.2623438,35.5487813 L35.8493438,35.5487813 C37.4545313,35.5487813 38.755875,34.2475313 38.755875,32.64225 C38.755875,31.0370625 37.4547188,29.7358125 35.8494375,29.7358125 Z" id="Path" fill="#DDEAFB"></path>
                            <path d="M40.8347813,32.376 L36.9395625,32.376 L36.9395625,34.0874062 L38.9847188,35.5932187 C39.959625,36.3110625 41.138625,36.69825 42.3493125,36.69825 L46.697625,36.69825 C47.3183438,36.69825 47.54925,35.8839375 47.020875,35.5580625 L42.7339688,32.9145 C42.1630313,32.562375 41.5054688,32.376 40.8347813,32.376 L40.8347813,32.376 Z" id="Path" fill="#BED8FB"></path>
                            <path d="M47.0207812,35.5580625 L42.733875,32.9145 C42.1629375,32.5624687 41.5054688,32.376 40.8346875,32.376 L37.9056563,32.376 C38.5763438,32.376 39.2339063,32.5624687 39.8048438,32.9145 L45.9405938,36.69825 L46.6975313,36.69825 C47.31825,36.69825 47.5491563,35.8838437 47.0207812,35.5580625 L47.0207812,35.5580625 Z" id="Path" fill="#9DC6FB"></path>
                            <path d="M35.8494375,29.7358125 L35.6865938,29.7358125 C35.6042813,31.2673125 34.3365937,32.4839063 32.7845625,32.4839063 L31.1975625,32.4839063 C29.9925,32.4839063 28.8268125,32.8667813 27.8245313,33.535875 C25.0262813,35.4038438 19.3697813,35.6655 13.6274063,35.6655 C8.65659375,35.6655 3.75075,35.0724375 0.70678125,33.74625 C1.16025,37.2535313 8.84625,38.7304688 16.6922813,38.7304688 C22.4346563,38.7304688 28.0911563,38.4688125 30.8894063,36.6008438 C31.8916875,35.93175 33.057375,35.548875 34.2624375,35.548875 L35.8494375,35.548875 C37.454625,35.548875 38.7559688,34.247625 38.7559688,32.6423438 C38.7559688,31.0370625 37.4547188,29.7358125 35.8494375,29.7358125 L35.8494375,29.7358125 Z" id="Path" fill="#CBE2FF"></path>
                            <path d="M12.2295,32.6526562 C12.2295,29.3363438 10.324875,26.4653438 7.55015625,25.0725 C3.34396875,27.2100937 0.685125,30.893625 0.685125,33.4155937 C0.685125,35.3265938 2.7466875,36.6710625 5.84034375,37.529625 C9.0264375,38.413875 12.2040938,36.0246562 12.2292188,32.7182813 C12.2295,32.6963438 12.2295,32.6745 12.2295,32.6526562 L12.2295,32.6526562 Z" id="Path" fill="#CBE2FF"></path>
                            <path d="M0.70696875,33.74625 C0.93159375,35.4825938 2.92846875,36.7214063 5.8404375,37.5295313 C7.969125,38.12025 10.0924688,37.24875 11.2759688,35.6199375 C7.14825,35.4589688 3.2685,34.86225 0.70696875,33.74625 L0.70696875,33.74625 Z" id="Path" fill="#BED8FB"></path>
                            <path d="M26.7760313,32.1045 C27.0055313,32.1170625 27.1034063,32.40225 26.9295938,32.552625 C25.858125,33.4798125 23.0109375,35.6417813 19.7584688,35.6417813 C17.0309063,35.6417813 14.4362813,33.9155625 14.4362813,32.86875 C14.4362813,31.8219375 17.031,31.8508125 19.7584688,31.8508125 C21.9009375,31.8508125 25.3814063,32.028375 26.7760313,32.1045 L26.7760313,32.1045 Z" id="Path" fill="#CBE2FF"></path>
                            <path d="M26.7760313,32.1045 C26.1381563,32.069625 25.0634063,32.0136562 23.880375,31.963125 C22.4877188,32.9826563 20.1935625,34.3028438 17.652,34.3028438 C16.6768125,34.3028438 15.7193438,34.0815937 14.8905938,33.7501875 C15.7513125,34.6754063 17.717625,35.641875 19.7584688,35.641875 C23.0109375,35.641875 25.858125,33.4799063 26.9295938,32.5527187 C27.1033125,32.40225 27.0054375,32.1169687 26.7760313,32.1045 Z" id="Path" fill="#BED8FB"></path>
                            <g id="Group" fill="#000000">
                                <circle id="Oval" cx="28.4037187" cy="14.1861562" r="1"></circle>
                                <circle id="Oval" cx="31.2111562" cy="14.1861562" r="1"></circle>
                                <path d="M47.3805,34.9748437 L43.3733437,32.5037812 L47.3805,30.032625 C47.881125,29.7238125 48.1096875,29.1361875 47.9492812,28.5703125 C47.7887812,28.0043438 47.2858125,27.6241875 46.6975313,27.6241875 L42.3492187,27.6241875 C40.9827187,27.6241875 39.67875,28.0524375 38.5784063,28.862625 L37.6573125,29.5408125 C37.1258438,29.2298437 36.5084063,29.0506875 35.8494375,29.0506875 L34.0919063,29.0506875 C34.2946875,28.6750312 34.4089687,28.2479062 34.4089687,27.7992187 C34.4089687,27.5459063 34.3737188,27.2989688 34.3041563,27.0610312 C34.6649063,26.8253437 34.971375,26.5134375 35.2006875,26.1482812 L38.6296875,26.1482812 C39.0081563,26.1482812 39.3148125,25.8415312 39.3148125,25.4631562 C39.3148125,25.0847812 39.0080625,24.7780312 38.6296875,24.7780312 L35.6460938,24.7780312 C35.6506875,24.7107187 35.653875,23.5845937 35.653875,23.5845937 L36.4191563,23.5845937 C36.9657188,23.5845937 37.5114375,23.4525 37.9974375,23.2024687 L40.3198125,22.0078125 C40.6562813,21.83475 40.7888438,21.4215937 40.6156875,21.085125 C40.4425313,20.7485625 40.0294688,20.6162813 39.693,20.78925 L37.370625,21.9839062 C37.0776563,22.1345625 36.7485938,22.21425 36.4191563,22.21425 L35.653875,22.21425 L35.653875,21.1081875 C36.1673438,21.1320937 36.676125,21.00375 37.131,20.7410625 L40.90425,18.55275 C41.1555938,18.4070625 41.3811563,18.2221875 41.5731563,18.0073125 C42.5670938,18.1300312 43.591875,17.5598437 44.003625,16.6429687 L45.8034375,12.7832812 C46.7922188,10.6629375 47.0290313,8.24409375 46.470375,5.97234375 C46.38,5.6049375 46.009125,5.38040625 45.6414375,5.47059375 C45.2739375,5.56096875 45.0493125,5.932125 45.1396875,6.29953125 C45.624,8.2689375 45.4186875,10.3659375 44.561625,12.2041875 L42.7618125,16.063875 C42.5248125,16.6048125 41.883,16.7680312 41.3770313,16.540125 L40.2335625,16.006875 C38.7199688,15.3010312 37.6949063,13.9056562 37.4916563,12.274125 C37.2824063,10.5943125 37.549875,8.89546875 38.2652813,7.3614375 L38.9693438,5.8515 L40.2036563,9.2424375 C40.4086875,9.84178125 41.1454687,10.1609062 41.7193125,9.886125 C43.2644063,9.18271875 44.0194688,7.3809375 43.4382188,5.7841875 L42.0338438,1.9254375 C42.8672813,2.40103125 43.5804375,3.06515625 44.1149063,3.8679375 C44.3247188,4.18284375 44.7500625,4.26825 45.0649688,4.05853125 C45.3799688,3.8488125 45.4652812,3.42346875 45.2556563,3.10846875 C44.4876563,1.9550625 43.417875,1.03584375 42.162,0.45028125 C41.732625,0.22453125 41.2069688,0.285375 40.849125,0.61584375 C40.5073125,0.92896875 40.389,1.41271875 40.5475312,1.84828125 L42.1506563,6.25284375 C42.4565625,7.09321875 42.12675,8.031 41.394,8.5059375 L40.0686563,4.86459375 C39.910125,4.42903125 39.5085,4.13446875 39.0454687,4.11421875 C38.5820625,4.09471875 38.1565313,4.35234375 37.9606875,4.77253125 L37.0235625,6.78215625 C36.199125,8.55 35.8907812,10.5075937 36.132,12.4434375 C36.2274375,13.2098437 36.4636875,13.9351875 36.8188125,14.5919062 L34.9703438,15.6638437 C34.7435625,15.1006875 34.4630625,14.5573125 34.1282813,14.041875 L32.6284688,11.7329062 C32.2145625,11.0957813 31.9958438,10.3575 31.9958438,9.5979375 C32.0160938,9.1670625 31.9809375,8.67403125 31.7224688,8.32921875 C31.9071563,7.77759375 32.3075625,7.31371875 32.8366875,7.05534375 L35.380125,5.8138125 C36.3675,5.33184375 37.0288125,4.392 37.149,3.2998125 C37.2913125,2.00615625 36.6435938,0.76996875 35.4989063,0.15046875 C35.1659063,-0.02971875 34.7502188,0.09421875 34.5703125,0.42703125 C34.3902188,0.75984375 34.5139688,1.175625 34.8467813,1.35571875 C35.4989063,1.7086875 35.868,2.41303125 35.7869063,3.15 C35.7184688,3.7723125 35.3416875,4.3078125 34.7790938,4.58240625 L32.2356563,5.8239375 C31.4612813,6.2019375 30.8563125,6.8505 30.5236875,7.630125 C30.4003125,7.61896875 29.2846875,7.621875 29.15025,7.627125 C28.8177188,6.8446875 28.214625,6.20278125 27.4382813,5.82384375 L24.8948438,4.5823125 C24.3321563,4.307625 23.9554688,3.77221875 23.8870313,3.14990625 C23.8059375,2.41275 24.1750313,1.7085 24.8271563,1.35553125 C25.1599688,1.1754375 25.2837188,0.75965625 25.103625,0.42684375 C24.923625,0.09403125 24.5079375,-0.02971875 24.1750313,0.15028125 C23.0303438,0.7696875 22.382625,2.005875 22.5249375,3.299625 C22.645125,4.3918125 23.3063438,5.3315625 24.2938125,5.813625 L26.83725,7.05515625 C27.3508125,7.30584375 27.7410938,7.7435625 27.9334688,8.27484375 C27.6450938,8.62715625 27.59475,9.14278125 27.6195,9.59775 C27.6195,10.3574063 27.4007813,11.0956875 26.9869688,11.7327188 L25.486875,14.041875 C25.1520938,14.5573125 24.8715,15.1007813 24.6447188,15.6639375 L22.89,14.6462813 C23.2835625,13.942125 23.5429688,13.16025 23.6367188,12.3418125 C23.8545938,10.4398125 23.542125,8.517375 22.7330625,6.78225 L21.7959375,4.772625 C21.6000938,4.3524375 21.1729688,4.095 20.71125,4.1143125 C20.248125,4.1345625 19.8465,4.42903125 19.6879688,4.8646875 L18.3623438,8.5066875 C18.0631875,8.314125 17.8236563,8.0409375 17.669625,7.7105625 C17.4544688,7.24903125 17.4317813,6.73134375 17.6060625,6.25284375 L19.2091875,1.84828125 C19.3677188,1.41271875 19.2493125,0.92896875 18.9075938,0.61584375 C18.5495625,0.28528125 18.0240938,0.224625 17.5947188,0.4501875 C15.9660938,1.20965625 14.659125,2.52853125 13.914375,4.1638125 C12.6645,6.90834375 12.6785625,10.05 13.9530938,12.7831875 L15.7529063,16.642875 C16.1470313,17.5176563 17.0985,18.0810938 18.0520313,18.0185625 C18.2414063,18.2286563 18.4613438,18.4080938 18.7108125,18.55275 L22.4841563,20.7411563 C22.9419375,21.0059063 23.4493125,21.1314375 23.9611875,21.1101563 L23.9611875,22.2143438 L23.1959063,22.2143438 C22.866375,22.2143438 22.5374063,22.1346563 22.2445313,21.984 L19.921875,20.7891563 C19.5854063,20.6161875 19.1723438,20.7485625 18.9991875,21.0850313 C18.826125,21.4215938 18.9585938,21.8346563 19.2950625,22.0077188 L21.6174375,23.202375 C22.1033438,23.4523125 22.6490625,23.5845 23.1957188,23.5845 L23.961,23.5845 L23.961,24.5708438 C20.926875,23.3858438 17.5941563,22.677 14.6374688,22.677 C11.9301563,22.677 9.4404375,23.3620313 7.31109375,24.4311563 C7.26234375,24.4493438 7.21565625,24.4727813 7.171875,24.50175 C3.49153125,26.3925 0.91528125,29.4290625 0.2011875,32.029125 C0.19828125,32.0387812 0.19471875,32.0480625 0.1921875,32.0578125 C0.19040625,32.0646562 0.18946875,32.0715937 0.18796875,32.0784375 C0.06478125,32.5412812 1.59872116e-14,32.9901562 1.59872116e-14,33.4155 C1.59872116e-14,34.5359063 0.5480625,35.5290938 1.62890625,36.3674063 C2.5426875,37.0892812 4.029,37.7481563 5.6731875,38.1938438 C8.5243125,38.9821875 12.4246875,39.4154063 16.6922813,39.4154063 C19.5400313,39.4154063 22.3802813,39.3497812 24.8860313,39.0526875 C25.1574375,39.6747187 25.7687813,40.0825313 26.4568125,40.0825313 L27.483375,40.0825313 C27.8179688,41.0634375 28.746,41.7445313 29.8074375,41.7445313 C30.868875,41.7445313 31.7967188,41.063625 32.1315,40.0825313 L33.1579688,40.0825313 C33.9024375,40.0825313 34.5579375,39.6057187 34.789125,38.8962188 C34.953375,38.3923125 34.8645,37.8214688 34.5512813,37.3694063 L33.781125,36.2578125 C33.9411563,36.2424375 34.1016563,36.2338125 34.2623438,36.2338125 L35.8493438,36.2338125 C36.594,36.2338125 37.2863438,36.0059063 37.8605625,35.616375 L38.5782188,36.1448437 C39.6785625,36.9550312 40.9825313,37.3832812 42.3490313,37.3832812 C42.7275,37.3832812 43.0341563,37.0765313 43.0341563,36.6981562 C43.0341563,36.3197812 42.7274063,36.0130312 42.3490313,36.0130312 C41.2769063,36.0130312 40.2539063,35.6770312 39.3906563,35.0414063 L38.8366875,34.6335 C39.1446563,34.173 39.3484688,33.6376875 39.4157813,33.0610312 L40.8345938,33.0610312 C41.3787188,33.0610312 41.9110313,33.2119687 42.3741563,33.4975313 L46.453125,36.0129375 L45.4239375,36.0129375 C45.0454688,36.0129375 44.7388125,36.3196875 44.7388125,36.6980625 C44.7388125,37.0764375 45.0455625,37.3831875 45.4239375,37.3831875 L46.6973438,37.3831875 C47.2855313,37.3831875 47.7885938,37.0029375 47.9490938,36.4370625 C48.1096875,35.871375 47.8812188,35.2836562 47.3805,34.9748438 L47.3805,34.9748437 Z M33.038625,27.7992187 C33.038625,28.3080937 32.7361875,28.7608125 32.2757813,28.9585312 C31.4247188,28.8002812 30.6219375,28.4404687 29.9504063,27.9054375 C29.7968438,27.7830937 29.638125,27.6628125 29.4771563,27.5434687 L32.6847188,27.5434687 C32.794125,27.5434687 32.9019375,27.5370937 33.0083438,27.5254687 C33.0280313,27.6144375 33.038625,27.70575 33.038625,27.7992187 Z M37.605,15.72 C38.1624375,16.3529062 38.85525,16.876125 39.6542812,17.2487812 L40.0793437,17.4469687 L36.4435312,19.5555937 C36.201,19.6963125 35.9275312,19.7571562 35.653875,19.735875 L35.653875,19.1925 C35.653875,18.44925 35.5655625,17.7148125 35.3957812,17.0012812 L37.605,15.72 Z M16.9947187,16.0636875 L15.1949062,12.204 C14.0900625,9.8345625 14.0777812,7.11103125 15.1613437,4.73175 C15.7005,3.54778125 16.5996562,2.5665 17.7226875,1.92553125 L16.3182187,5.78409375 C15.7002187,7.48190625 16.5788437,9.366 18.27675,9.984 C18.75075,10.16775 19.3245937,9.89990625 19.4885625,9.418875 L20.787,5.85140625 L21.4911562,7.36134375 C22.19325,8.8670625 22.4644687,10.5353437 22.275375,12.1858125 C22.086,13.8392813 21.0313125,15.303375 19.5229687,16.0066875 L18.3460312,16.5555 C17.8554375,16.7968125 17.2155,16.5638438 16.9947187,16.0636875 L16.9947187,16.0636875 Z M23.1714375,19.5555937 L19.598625,17.4835312 L20.1020625,17.2487812 C20.8667812,16.8921562 21.5401875,16.3829062 22.0907812,15.766875 L24.2190937,17.0012812 C24.0493125,17.7147187 23.961,18.4491562 23.961,19.1925 L23.961,19.7355 C23.689125,19.7565 23.4152812,19.6969687 23.1714375,19.5555937 L23.1714375,19.5555937 Z M25.4565938,25.1963438 C25.3734375,24.9996562 25.3313438,24.7904063 25.3313438,24.5743125 L25.3313438,19.1923125 C25.3313438,17.6252812 25.7824688,16.1024062 26.6360625,14.7883125 L28.135875,12.4793437 C28.69425,11.6195625 28.9894688,10.6231875 28.9894688,9.5979375 L28.9894688,9.22246875 C28.9894688,9.0965625 29.0918437,8.99409375 29.2178438,8.99409375 L30.3969375,8.99409375 C30.5229375,8.99409375 30.6253125,9.0965625 30.6253125,9.22246875 L30.6253125,9.5979375 C30.6253125,10.6230937 30.9205312,11.6195625 31.479,12.4793438 L32.9788125,14.7883125 C33.8324062,16.1025938 34.2835312,17.6254687 34.2835312,19.1923125 L34.2835312,24.5743125 C34.2835312,25.4558438 33.5663437,26.1730312 32.6848125,26.1730312 L27.3550312,26.1730312 C26.7494062,25.8305625 26.1154687,25.5076875 25.4604375,25.2068438 C25.4590312,25.203375 25.4580937,25.1998125 25.4565937,25.1963438 L25.4565938,25.1963438 Z M33.4249687,38.1499687 C33.6038437,38.3820937 33.4404375,38.715 33.1580625,38.712375 L31.8154687,38.712375 C31.3547812,38.712375 30.958875,39.0396562 30.874125,39.4903125 C30.7774687,40.0026562 30.3289687,40.374375 29.8075312,40.374375 C29.2861875,40.374375 28.8375937,40.0025625 28.7409375,39.4903125 C28.6558125,39.0395625 28.26,38.712375 27.7995937,38.712375 L27.0705937,38.712375 C28.7537812,38.3761875 30.1990312,37.8854062 31.2699375,37.1705625 C31.61625,36.939375 31.9793437,36.7494375 32.3529375,36.6023437 L33.4249687,38.1499687 Z M34.2624375,34.8636562 C32.9507813,34.8636562 31.6529063,35.26725 30.5089688,36.0308437 C27.8569688,37.801125 22.3011563,38.0451562 16.6922813,38.0451562 C14.3011875,38.0451562 12.03525,37.9070625 10.0210313,37.6453125 C10.2327188,37.524 10.4386875,37.3888125 10.6371563,37.2390937 C12.070875,36.1576875 12.9009375,34.5117187 12.9144375,32.7237187 C12.92475,31.3975312 12.6560625,30.110625 12.117375,28.9093125 C11.9625938,28.5640312 11.5574063,28.4094375 11.2119375,28.5644062 C10.8666563,28.7191875 10.71225,29.1245625 10.8670313,29.4698437 C11.3247188,30.4904063 11.553,31.58475 11.5442813,32.7129375 C11.5340625,34.0714687 10.9026563,35.3224687 9.8120625,36.145125 C8.66971875,37.0120312 7.2031875,37.2495 5.845125,36.819 C3.8038125,36.2316562 1.3704375,35.1644062 1.3704375,33.4155 C1.3704375,33.3050625 1.37709375,33.19125 1.38928125,33.0749062 L3.27515625,33.5624062 C3.6316875,33.6576562 4.016625,33.439875 4.11,33.0705 C4.2046875,32.704125 3.98446875,32.3303437 3.61809375,32.2356562 L1.74028125,31.7503125 C2.5425,29.7689063 4.61071875,27.423 7.5440625,25.8449063 C8.1830625,26.2013438 8.7680625,26.6450625 9.2863125,27.1678125 C9.55284375,27.4365938 9.986625,27.438375 10.2552188,27.1720312 C10.524,26.9055938 10.5257813,26.4718125 10.2594375,26.203125 C9.87440625,25.8148125 9.457125,25.4648438 9.013125,25.1530313 C10.687875,24.4703438 12.5817188,24.0474375 14.6375625,24.0474375 C19.5081563,24.0474375 25.453875,26.0746875 29.096625,28.9772812 C30.265125,29.9084062 31.7446875,30.421125 33.2627813,30.421125 L35.8495313,30.421125 C38.7760313,30.478875 38.7583125,34.816125 35.8495313,34.8638437 L34.2624375,34.8638437 L34.2624375,34.8636562 Z M39.3122813,31.6907813 C39.189,31.2428438 38.9814375,30.8295938 38.7070313,30.4695938 L39.3909375,29.9660625 C40.2542813,29.3304375 41.2771875,28.9944375 42.3493125,28.9944375 L46.4533125,28.9944375 L42.3743438,31.5098438 C42.1915313,31.630125 41.9841563,31.7050313 41.7883125,31.7983125 C41.4769688,31.727625 41.157375,31.6907813 40.8347813,31.6907813 L39.3122813,31.6907813 Z" id="Shape"></path>
                                <circle id="Oval" transform="translate(5.115564, 30.406882) rotate(-67.485887) translate(-5.115564, -30.406882) " cx="5.11556381" cy="30.4068823" r="1"></circle>
                                <path d="M26.8133437,31.4204062 C25.4114062,31.3438125 21.9178125,31.1656875 19.758375,31.1656875 C18.3789375,31.1652187 16.9345312,31.1578125 15.9059062,31.2981562 C15.3729375,31.3697812 13.7509687,31.5878437 13.7509687,32.86875 C13.7509687,34.5170625 16.8949687,36.327 19.7582812,36.327 C23.2389375,36.327 26.24625,34.0499062 27.3777187,33.070875 C27.6691875,32.8186875 27.7769062,32.4201562 27.6523125,32.0555625 C27.5277187,31.6906875 27.198375,31.4414062 26.8133437,31.4204062 L26.8133437,31.4204062 Z M19.7584687,34.9566562 C18.6614062,34.9566562 17.4567187,34.6352812 16.4535,34.0749375 C15.5548125,33.573 15.1975312,33.0929062 15.1324687,32.9136562 C15.2295,32.8493437 15.550875,32.6964375 16.4863125,32.6123437 C17.38275,32.5305 18.601875,32.5362187 19.758375,32.5360312 C21.4341562,32.5360312 23.941875,32.6458125 25.6095937,32.729625 C24.2969062,33.6961875 22.13025,34.9566562 19.7584687,34.9566562 L19.7584687,34.9566562 Z" id="Shape"></path>
                            </g>
                        </g>
                    </g>
                </g>
            </g>
        </g>
    </g>
</svg>