<?xml version="1.0" encoding="UTF-8"?>
<svg width="50px" height="50px" viewBox="0 0 50 50" version="1.1" xmlns="http://www.w3.org/2000/svg" xmlns:xlink="http://www.w3.org/1999/xlink">
    <title>Group 5</title>
    <g id="Page-1" stroke="none" stroke-width="1" fill="none" fill-rule="evenodd">
        <g id="LL21---nutrition" transform="translate(-268.000000, -460.000000)">
            <g id="Group-7" transform="translate(16.000000, 200.000000)">
                <g id="Group-6-Copy-8" transform="translate(226.000000, 252.000000)">
                    <g id="Group-5" transform="translate(26.000000, 8.000000)">
                        <rect id="Rectangle" x="0" y="0" width="50" height="50"></rect>
                        <g id="meat" transform="translate(1.000000, 5.000000)" fill-rule="nonzero">
                            <path d="M31.9552002,33.7514648 C29.0295411,33.6796875 27.1713867,32.2694092 26.1016846,30.9829102 C25.1436768,29.8311768 24.7229004,28.2469482 24.2358398,26.4122315 C23.5583496,23.8601074 22.7149658,20.6835937 20.0701904,17.7590332 C17.4481201,14.8597412 14.2056885,13.5970459 11.3448487,12.4830322 C7.12133794,10.8387451 5.40747075,10.0220947 5.40747075,6.27795412 C5.40747075,5.86853025 5.4089355,4.98120112 6.16479488,3.95947266 C2.81103516,6.17321775 0.663574219,8.96337891 0.715209938,12.0300292 C0.849609375,20.0101318 9.12268069,18.5401612 14.0584717,23.998169 C19.2780761,29.7700195 15.1820068,35.3843994 25.7563477,39.489624 C31.3117676,41.6462402 40.6186523,38.793457 45.2849121,27.2706299 C45.1699219,27.4163818 38.1207276,33.9027099 31.9552002,33.7514648 Z" id="Path" fill="#EA3942"></path>
                            <path d="M47.2855224,18.9147949 C47.2855224,28.5666504 39.1636963,38.4979248 28.6816406,36.3911133 C17.5305176,34.1495362 21.8983154,27.1040039 16.6790771,21.3321533 C11.7429199,15.8741455 2.93847656,17.9589844 2.93847656,9.36474609 C2.93847656,1.57800291 16.4172364,-0.50134275 28.6816406,1.43884275 C38.8300781,3.0443115 47.2855224,9.2629395 47.2855224,18.9147949 Z" id="Path" fill="#F3E8D7"></path>
                            <path d="M40.5194092,6.13842769 C42.3123779,8.630127 43.3564453,11.5957031 43.3564453,14.9857178 C43.3564453,24.637207 35.2346192,34.5684815 24.7521973,32.4616699 C23.1694336,32.1437989 21.8997802,31.7285156 20.8707276,31.2344971 C21.9144287,33.5291748 23.8275146,35.4155273 28.6816406,36.3911133 C39.1636963,38.4979248 47.2855224,28.5666504 47.2855224,18.9147949 C47.2855224,13.5106201 44.6341553,9.18310547 40.5194092,6.13842769 L40.5194092,6.13842769 Z" id="Path" fill="#E5D6C1"></path>
                            <path d="M31.5040283,33.2226562 C29.9377442,33.2904052 28.3696289,33.0285645 26.9300537,32.385498 C25.9555664,31.9500732 25.0338135,31.3370362 24.4094239,30.4709473 C23.7304688,29.529419 23.4517823,28.366333 23.1610107,27.2424317 C22.5424805,24.850708 21.7844239,22.446167 20.371582,20.4195557 C18.2852783,17.4268799 14.951294,15.5262451 11.5264893,14.2675781 C10.3205567,13.8244629 9.06884766,13.4373779 8.02441406,12.6888427 C6.97998047,11.9406739 6.15856931,10.732544 6.26330569,9.45190425 C6.39807131,7.80651853 7.94384766,6.65332031 9.45117188,5.97985838 C13.6036377,4.125 18.4083252,3.85437009 22.8896484,4.19201663 C27.4584961,4.53588863 32.3408203,5.37268069 36.3977051,7.59521484 C40.4040527,9.78991697 43.3773193,13.5805664 43.7772217,18.194458 C44.1705323,22.7332763 42.0607911,27.6313477 38.5367432,30.5233154 C36.5657959,32.1408692 34.0374756,33.1131592 31.5040283,33.2226562 Z" id="Path" fill="#FC4E51"></path>
                            <path d="M43.7772217,18.194458 C43.4234619,14.1134033 41.055542,10.6772461 37.7406006,8.41882322 C38.8714599,10.1224365 39.6057129,12.0772705 39.7906494,14.2078857 C40.1839599,18.7467041 38.0742188,23.6447754 34.5501709,26.5367432 C32.5788574,28.1542969 30.0505371,29.1265869 27.5170898,29.2360839 C26.1668701,29.2943115 24.8155518,29.1071777 23.5462646,28.642456 C23.7520752,29.2932129 24.0120849,29.9197998 24.4094239,30.4709473 C25.0338135,31.3370362 25.9555664,31.9500732 26.9300537,32.385498 C28.3692627,33.0285645 29.9373779,33.2904053 31.5040283,33.2226562 C34.0371094,33.1131592 36.5657959,32.1408692 38.5367432,30.5233154 C42.0611572,27.6313477 44.1705322,22.7332763 43.7772217,18.194458 Z" id="Path" fill="#EA3942"></path>
                            <path d="M22.5314942,10.5084229 C22.5314942,12.1278076 21.2186279,13.4406739 19.5992432,13.4406739 C17.9798584,13.4406739 16.6669922,12.1278076 16.6669922,10.5084229 C16.6669922,8.88903806 17.9798584,7.57617188 19.5992432,7.57617188 C21.2186279,7.57617188 22.5314942,8.88903806 22.5314942,10.5084229 Z" id="Path" fill="#F3E8D7"></path>
                            <path d="M42.2600098,6.62219241 C38.8817138,3.66430669 34.0993652,1.572876 28.7929688,0.733520531 C24.0878906,-0.010986375 19.2264404,-0.155639625 15.1040039,0.326660156 C10.5541992,0.858764625 6.99609375,2.12512209 4.81457522,3.98876953 C4.69921875,4.08728025 4.58825681,4.18762209 4.48059084,4.28942869 C1.50366206,6.6119385 -0.0454101562,9.29187009 0.0010986375,12.0421143 C0.0413818125,14.4353027 0.788452125,16.2766114 2.28552244,17.6711426 C3.59729006,18.8931885 5.30895994,19.6453857 7.12133794,20.4415283 C9.37097166,21.4299317 11.6971435,22.4516602 13.5289307,24.4775391 C15.4035645,26.5506592 16.0144042,28.6292724 16.6047364,30.6397705 C17.1027832,32.3338623 17.6173096,34.0861817 18.8723145,35.7139893 C20.2749023,37.5336914 22.380249,38.9450683 25.4978027,40.1553955 C26.7161865,40.6285401 28.0616455,40.8610839 29.4594727,40.8610839 C31.6699219,40.8610839 34.0114746,40.2788086 36.1849365,39.1431885 C39.1058349,37.6164551 43.1616211,34.3740234 45.9217529,27.5991211 C47.2558594,24.9071045 48,21.9041748 48,18.9147949 C48,14.1610107 46.0151367,9.91040044 42.2600098,6.62219241 Z M35.5228271,37.8771973 C32.3345948,39.5438232 28.7801513,39.897583 26.0148926,38.8238526 C19.788208,36.4064942 18.9481201,33.5474854 17.9754638,30.2369385 C17.3690185,28.1733398 16.6820068,25.8347168 14.5880127,23.5195313 C12.5511474,21.2669678 9.97155759,20.1335449 7.69555669,19.1337891 C4.23596194,17.6136474 1.50329588,16.413208 1.42895513,12.0179443 C1.40991206,10.8852539 1.7318115,9.84375 2.23937991,8.90917969 C2.23022456,9.05969241 2.223999,9.2109375 2.223999,9.36437991 C2.223999,11.9384766 2.98571775,13.876831 4.55236819,15.2907714 C5.92529297,16.5296631 7.71862791,17.2280273 9.61706541,17.9670411 C11.9359131,18.869751 14.3334961,19.8032227 16.1491699,21.8111573 C17.9718018,23.8267823 18.557373,26.0313721 19.123169,28.1634521 C19.635498,30.0922852 20.1188964,31.9141846 21.4379883,33.4998779 C22.9123536,35.2727051 25.1693115,36.4138183 28.5406494,37.0913086 C29.5209961,37.2883301 30.5009766,37.3857422 31.472168,37.3857422 C34.2711182,37.3857422 36.9957276,36.5764161 39.4332276,35.013794 C38.0522461,36.3585205 36.6892089,37.267456 35.5228271,37.8771973 L35.5228271,37.8771973 Z M44.6861573,26.8817138 C44.6619873,26.9194336 44.6403808,26.9597168 44.6228027,27.0025635 C44.6147461,27.0230713 44.605957,27.0424805 44.5979004,27.0626221 C43.4860839,29.2741699 41.9432373,31.2539063 40.0682373,32.7894287 C38.1881104,34.3293458 35.3027344,35.9666748 31.5351563,35.9666748 C30.6763916,35.9666748 29.7711182,35.8813477 28.8222656,35.690918 C22.2491455,34.3696289 21.4790039,31.4692383 20.5041504,27.796875 C19.9226074,25.6072998 19.263794,23.1254883 17.2089844,20.8531494 C15.166626,18.5947266 12.4936523,17.5539551 10.1352539,16.6358643 C6.51342769,15.2255859 3.65258794,14.1119385 3.65258794,9.36437991 C3.65258794,7.70251463 4.35571294,6.25927734 5.74255369,5.07495113 C8.47302244,2.7421875 13.8526612,1.46997075 20.2272949,1.46997075 C22.8757324,1.46997075 25.6966553,1.68969731 28.5699463,2.14416506 C33.6130371,2.94213863 38.1408692,4.91418459 41.3188477,7.69665525 C44.7553711,10.7058105 46.5714112,14.585083 46.5714112,18.9147949 C46.5714112,21.65625 45.8964844,24.4083252 44.6861573,26.8817138 Z" id="Shape" fill="#000000"></path>
                            <path d="M43.8365479,19.6999511 C43.4421386,19.6677246 43.0979004,19.9588623 43.0649414,20.3518067 C42.7712402,23.8381348 41.0299073,27.3420411 38.4821777,29.6275635 C37.5479737,28.8867187 37.1810303,27.6917724 36.6174317,25.8530273 C36.1483154,24.321167 35.5642089,22.4146729 34.4267578,20.0852051 C33.3416748,17.8623047 31.3253174,15.9770508 29.2382813,14.4920654 C30.815918,13.5721435 34.6289063,11.8406982 40.6398926,12.1105957 C41.8011474,13.6343994 42.588501,15.3614502 42.9224854,17.1899414 C42.9854737,17.5345459 43.2857666,17.7758789 43.6241455,17.7758789 C43.6669922,17.7758789 43.7102051,17.7718506 43.753418,17.7641602 C44.1416016,17.6931152 44.3986817,17.3210449 44.3276367,16.9328614 C43.9343261,14.7806396 42.9851074,12.7576904 41.5836182,10.9984131 C41.5737305,10.9844971 41.5627442,10.9709473 41.5513916,10.9573974 C40.2872315,9.38195803 38.6594239,8.02001953 36.7408448,6.96899419 C33.2032471,5.03063963 28.8189698,3.92211919 22.9431152,3.47973638 C17.3891602,3.06115725 12.8807373,3.66613772 9.16003416,5.32800291 C7.42419431,6.10327144 6.26000981,7.17004397 5.78320312,8.39611819 C5.77954106,8.40563963 5.77587891,8.41516116 5.77221675,8.42504887 C5.6535645,8.73852544 5.57849119,9.06188963 5.55139162,9.39404297 C5.43676762,10.7933349 6.22485356,12.2786865 7.60839844,13.2696533 C8.36865234,13.8145752 9.21716306,14.1727295 9.87158203,14.4235839 C10.239624,14.5653076 10.6527099,14.3811036 10.7940674,14.0126953 C10.9354248,13.6446533 10.7515869,13.2312011 10.3831787,13.0902099 C9.77307131,12.8558349 9.06481931,12.5562744 8.44042969,12.1083984 C7.67431641,11.5594482 6.88696294,10.588623 6.97521975,9.510498 C6.979248,9.46325681 6.98547366,9.41271975 6.99389644,9.35998538 C10.3454589,9.29589844 14.1525879,9.95874019 15.9576416,10.3201904 C15.9543457,10.3824463 15.9528808,10.4454346 15.9528808,10.5084229 C15.9528808,12.5189209 17.5887451,14.1547852 19.5992432,14.1547852 C20.8967286,14.1547852 22.0374756,13.4732666 22.6838379,12.449707 C25.0634766,13.5054932 31.0953369,16.5175781 33.1431885,20.711792 C34.2312011,22.9405518 34.7969971,24.7873536 35.2514648,26.2712402 C35.8150635,28.1103516 36.2512208,29.5334473 37.3359375,30.5310058 C35.6151123,31.708374 33.5258789,32.4202881 31.4729004,32.5092773 C29.9516602,32.5751953 28.5212402,32.3140869 27.2215576,31.7336426 C26.2218018,31.2868652 25.4707031,30.7218018 24.9887695,30.0534667 C24.4196777,29.2639161 24.1636963,28.2703857 23.8927002,27.2186279 L23.8527833,27.0633545 C23.2335205,24.6694336 22.4545898,22.1583252 20.9578857,20.0112305 C19.3374023,17.6872558 16.8339844,15.7657471 13.5164795,14.3001709 C13.1557617,14.1405029 12.7338867,14.303833 12.5745849,14.664917 C12.4152833,15.0256348 12.5782471,15.4471435 12.939331,15.6068115 C16.0136719,16.9650879 18.3171386,18.7218018 19.7860107,20.8282471 C21.1538086,22.7900391 21.8840333,25.1564942 22.4696045,27.4211426 L22.5095214,27.5753174 C22.8013916,28.7087402 23.1035156,29.8809815 23.8304443,30.888794 C24.4614258,31.7640381 25.40625,32.4869385 26.6389161,33.0377197 C27.9920654,33.6423339 29.4613037,33.9477539 31.0136719,33.9477539 C31.1861573,33.9477539 31.3601074,33.9437256 31.5347901,33.9364013 C34.2271729,33.8195801 36.8653565,32.8099365 38.9674073,31.0935058 C38.9692383,31.0920411 38.9710693,31.0905761 38.9725342,31.0891114 C38.9783935,31.0843506 38.9842529,31.079956 38.9897461,31.0755615 C42.0878906,28.5333252 44.1430664,24.569458 44.4880371,20.4715576 C44.5213623,20.0786133 44.2294922,19.7329102 43.8365479,19.6999511 L43.8365479,19.6999511 Z M21.8107911,10.6702881 C21.7525635,11.0800781 21.7368164,11.3378906 21.3947754,11.8084717 C20.9912109,12.3640136 20.3371583,12.7265625 19.5992432,12.7265625 C18.3841553,12.7265625 17.3946533,11.7443848 17.3818359,10.5322266 C17.4279786,9.77929688 17.7008057,9.36291506 17.7008057,9.36291506 C18.0897217,8.72058103 18.795044,8.29028325 19.5992432,8.29028325 C20.8223877,8.29028325 21.8173828,9.28564453 21.8173828,10.5084229 C21.8173828,10.5629883 21.8144531,10.6168213 21.8107911,10.6702881 Z M23.1954346,11.1097412 C23.2280273,10.9138183 23.2456055,10.7131348 23.2456055,10.5084229 C23.2456055,8.49755859 21.6097412,6.86169431 19.5992432,6.86169431 C18.1527099,6.86169431 16.9002685,7.708374 16.3114013,8.93188481 C14.6173096,8.58801272 11.1115723,7.96545413 7.77136228,7.92846675 C8.18627925,7.49853516 8.80957031,7.04882813 9.74267578,6.63208013 C13.2414551,5.06945803 17.524292,4.50439453 22.8358154,4.90393069 C28.5014648,5.33056641 32.7019043,6.38488772 36.0541992,8.22180178 C37.2956543,8.90185547 38.4019776,9.72326663 39.3504638,10.6530761 C32.9388428,10.6552734 29.158081,12.789917 27.9342041,13.6171875 C26.0526123,12.427002 24.2607422,11.5755615 23.1954346,11.1097412 Z" id="Shape" fill="#000000"></path>
                        </g>
                    </g>
                </g>
            </g>
        </g>
    </g>
</svg>