<?xml version="1.0" encoding="UTF-8"?>
<svg width="50px" height="50px" viewBox="0 0 50 50" version="1.1" xmlns="http://www.w3.org/2000/svg" xmlns:xlink="http://www.w3.org/1999/xlink">
    <title>Group 5</title>
    <g id="Page-1" stroke="none" stroke-width="1" fill="none" fill-rule="evenodd">
        <g id="LL21---nutrition" transform="translate(-155.000000, -208.000000)">
            <g id="Group-7" transform="translate(16.000000, 200.000000)">
                <g id="Group-6-Copy" transform="translate(113.000000, 0.000000)">
                    <g id="Group-5" transform="translate(26.000000, 8.000000)">
                        <rect id="Rectangle" x="0" y="0" width="50" height="50"></rect>
                        <g id="peanut" transform="translate(1.000000, 1.000000)" fill-rule="nonzero">
                            <path d="M23.8416562,45.1374375 L24.4674375,45.3095625 C26.3288437,45.8215312 28.3028437,45.7474687 30.1206562,45.0975 L30.1206562,45.0975 C32.70525,44.1734062 34.8774375,42.361125 36.2499375,39.9840937 L36.2499375,39.9840937 C37.0937812,38.5225313 37.6079062,36.8940938 37.7563125,35.2129688 L37.9652812,32.8461563 C38.2230937,29.9262188 39.4527187,27.177 41.4575625,25.0384688 L43.1445937,23.2388438 C45.355875,20.8800938 46.7215312,17.8539375 47.0271562,14.6352188 L47.0271562,14.6348438 C47.3191875,11.5598438 45.7906875,8.5970625 43.115625,7.05271875 L43.115625,7.05271875 L43.0021875,6.9868125 C40.404375,5.4781875 37.1645625,5.62753125 34.7165625,7.36875 L34.6134375,7.4420625 C31.9554375,9.3328125 30.0158437,12.0321563 29.0790937,15.1305938 C28.8435937,15.9095625 28.6006875,16.7127188 28.3684687,17.48025 C27.5194687,20.2864688 25.7535937,22.7262188 23.3533125,24.4097813 L21.4080937,25.774125 C20.0264062,26.7432188 18.8731875,28.0026563 18.0293437,29.4643125 L18.0285937,29.4655313 C16.6566562,31.8419063 16.1731875,34.62825 16.6644375,37.327875 L16.6644375,37.327875 C17.0108437,39.231375 17.9094375,40.9909688 19.2484687,42.3875625 L19.2765,42.4168125 C20.524875,43.7190937 22.1023125,44.659125 23.8416562,45.1374375 Z" id="Path" fill="#FAE196"></path>
                            <g id="Group" transform="translate(20.437500, 7.875000)" fill="#FF6E37">
                                <path d="M12.8120625,29.1004687 C14.918625,25.4518125 13.5526875,21.7399687 10.54125,20.0011875 C8.0375625,18.5556562 4.55925,17.7698437 1.27415625,23.4595312 C-0.83240625,27.1081875 -0.0988125,31.4755312 2.912625,33.2142188 C5.92425,34.9529062 10.7055937,32.749125 12.8120625,29.1004687 Z" id="Path"></path>
                                <ellipse id="Oval" transform="translate(17.273947, 8.532266) rotate(-59.999272) translate(-17.273947, -8.532266) " cx="17.2739466" cy="8.53226644" rx="6.74563284" ry="5.30697699"></ellipse>
                            </g>
                            <path d="M15.1280625,46.6881563 L15.1280625,46.6881563 C17.34825,46.1000625 19.335,44.8461563 20.8213125,43.0951875 L21.5098125,42.2840625 C22.8340313,40.7239687 23.5609688,38.74425 23.5609688,36.6979688 L23.5609688,36.6979688 C23.5609688,33.959625 22.962375,31.254375 21.807,28.7716875 L21.320625,27.7265625 C19.9907813,24.8687812 19.6577813,21.647625 20.3749688,18.5781562 L20.9785312,15.99525 C21.7695937,12.6098438 21.4142812,9.0575625 19.9684687,5.89584375 L19.9682813,5.89546875 C18.5869688,2.8749375 15.5706562,0.93778125 12.2492812,0.93778125 L12.2492812,0.93778125 L12.2492812,0.93778125 C8.9278125,0.93778125 5.91140625,2.875125 4.53009375,5.89584375 L4.53009375,5.89584375 C3.08428125,9.0575625 2.72896875,12.60975 3.52003125,15.99525 L4.12359375,18.5781562 C4.84078125,21.6475313 4.50778125,24.8686875 3.1779375,27.7265625 L2.6915625,28.7716875 C1.53609375,31.254375 0.9375,33.959625 0.9375,36.6979688 L0.9375,36.6979688 C0.9375,38.74425 1.66425,40.7241563 2.98809375,42.2845312 L3.6740625,43.0930312 C5.16084375,44.8453125 7.14871875,46.1000625 9.37021875,46.6883438 L9.37021875,46.6883438 C11.257125,47.1880313 13.2413438,47.1879375 15.1280625,46.6881563 Z" id="Path" fill="#F5C86E"></path>
                            <path d="M43.5867187,6.24196875 L43.4731875,6.1760625 C40.5645938,4.4870625 36.9143437,4.6550625 34.1732812,6.60478125 L34.0701562,6.67809375 C31.2647812,8.67365625 29.1735937,11.5791563 28.1818125,14.859375 L27.4711875,17.2089375 C26.6866875,19.8017813 25.0330312,22.0865625 22.8149062,23.6423438 L21.2779687,24.720375 C20.835,22.778625 20.8319062,20.7428438 21.2878125,18.791625 L21.891375,16.2087188 C22.7252812,12.6400313 22.345125,8.839125 20.8210312,5.50603125 C20.8202812,5.5044375 20.8195312,5.50284375 20.8187812,5.50115625 C19.2884062,2.1590625 15.9253125,0.000375 12.2491875,0.000375 C8.57146875,0.000375 5.206875,2.1615 3.67734375,5.50603125 C2.15325,8.8389375 1.77309375,12.6398438 2.607,16.208625 L3.2105625,18.7915313 C3.87684375,21.643125 3.5634375,24.6758437 2.3278125,27.331125 L1.8414375,28.3761563 C0.63675,30.9649688 0,33.842625 0,36.6979688 C0,38.9639063 0.80728125,41.1632813 2.27325,42.891 L2.9593125,43.6995938 C4.57809375,45.6074063 6.7119375,46.9542188 9.13040625,47.594625 C10.1505,47.8647188 11.1994687,47.9997188 12.2487188,47.9997188 C13.2981562,47.9997188 14.347875,47.864625 15.3680625,47.5943438 C17.3387813,47.07225 19.1203125,46.08075 20.58825,44.69925 C21.5165625,45.2955 22.524,45.747375 23.593125,46.0414688 L24.2188125,46.2134063 C25.1220937,46.4618438 26.043,46.5857813 26.9622187,46.5857813 C28.137,46.5857813 29.3087812,46.383375 30.4363125,45.98025 C33.2270625,44.982375 35.5800937,43.0194375 37.0618125,40.45275 C37.9677187,38.88375 38.5307812,37.10025 38.69025,35.2952813 L38.8992187,32.9285625 C39.1374375,30.2301563 40.2889688,27.6557813 42.1415625,25.679625 L43.8285937,23.8801875 C46.1684062,21.384375 47.6355,18.1345313 47.9600625,14.728875 C47.96025,14.7270938 47.9604375,14.7253125 47.9605312,14.7235313 C48.2864062,11.293125 46.5687187,7.9635 43.5867187,6.24196875 Z M24.4984688,36.6979688 C24.4984688,34.5591563 24.1410937,32.4077812 23.4555,30.374625 C26.110875,26.8059375 28.618875,27.59625 30.5100938,28.6880625 C32.8369688,30.0315 34.4326875,33.0511875 32.4377813,36.5065313 C30.5263125,39.817125 26.2573125,41.684625 23.8189688,40.2771562 C23.8140938,40.2743437 23.8095,40.2710625 23.804625,40.26825 C24.258,39.1411875 24.4984688,37.9298438 24.4984688,36.6979688 Z M3.54140625,29.167125 L4.02778125,28.1220938 C5.4395625,25.0884375 5.7976875,21.62325 5.03634375,18.364875 L4.4895,16.0244063 C5.0341875,16.2645938 5.72746875,16.5171563 6.5574375,16.7177813 L6.86175,18.03225 C7.719,21.7348125 7.31578125,25.6725 5.72634375,29.1201563 L5.239875,30.1754063 C4.39471875,32.0085 3.8956875,34.0190625 3.77784375,36.0413438 C3.18525,35.6064375 2.62078125,35.124375 2.091,34.5945938 C2.06559375,34.5691875 2.038875,34.5460313 2.01140625,34.5240938 C2.24053125,32.673 2.7571875,30.852375 3.54140625,29.167125 Z M14.8879688,45.781875 L14.8879688,45.781875 C13.1616563,46.239375 11.3367188,46.2392813 9.61040625,45.7821562 C7.56421875,45.240375 5.75878125,44.10075 4.3891875,42.4866562 L3.703125,41.6780625 C2.5760625,40.3497187 1.93471875,38.6744063 1.88053125,36.9373125 C2.52871875,37.4770312 3.21196875,37.96275 3.9249375,38.3908125 C4.13990625,39.2586563 4.5489375,40.0726875 5.12953125,40.76325 C5.31496875,40.9838438 5.580375,41.097375 5.8475625,41.097375 C6.06046875,41.097375 6.2746875,41.0251875 6.450375,40.8774375 C6.8004375,40.5830625 6.8806875,40.0874063 6.66496875,39.7025625 C8.44565625,40.3580625 10.3399688,40.7001563 12.272625,40.7001563 C12.8809688,40.7001563 13.4935313,40.6663125 14.1069375,40.597875 C14.6215313,40.5405 14.992125,40.0767187 14.93475,39.5622187 C14.877375,39.047625 14.4135,38.676375 13.8990938,38.7344063 C11.0022188,39.0575625 8.1406875,38.5077188 5.63221875,37.1978438 C5.628,37.1224688 5.625,37.0468125 5.625,36.9709687 C5.625,34.908375 6.080625,32.8299375 6.9425625,30.960375 L7.429125,29.905125 C9.19171875,26.0819063 9.639,21.715125 8.688375,17.6093438 L8.55759375,17.0445938 C8.97159375,17.081625 9.405375,17.1032813 9.86109375,17.1032813 C10.2503438,17.1032813 10.6554375,17.08725 11.0742188,17.0543438 C11.1989063,18.2588438 11.4023438,19.5690938 11.7111563,20.9787188 C12.4952813,24.55725 12.0827813,26.047125 11.5118438,28.1090625 C11.0173125,29.8952813 10.40175,32.1182813 10.40175,36.2243438 C10.40175,36.7420313 10.8214688,37.1618438 11.33925,37.1618438 C11.8570313,37.1618438 12.27675,36.7420313 12.27675,36.2243438 C12.27675,32.3730938 12.8304375,30.3735938 13.318875,28.6095 C13.9131563,26.4632813 14.4263438,24.6098438 13.54275,20.5772813 C13.244625,19.216875 13.05225,17.9555625 12.9366563,16.8000938 C13.8495938,16.6235625 14.8168125,16.3622813 15.8357813,15.9930938 C16.322625,15.8166563 16.57425,15.2790938 16.3979063,14.79225 C16.2215625,14.3054063 15.6835313,14.053875 15.1971563,14.230125 C14.3895,14.5228125 13.5929063,14.74875 12.8083125,14.912625 C12.6643125,10.7851875 13.5016875,8.44078125 13.5195,8.39221875 C13.7010938,7.9085625 13.4570625,7.3689375 12.9735938,7.18603125 C12.4892813,7.00265625 11.9481563,7.246875 11.7649688,7.731 C11.7088125,7.8795 10.7355,10.53225 10.9365,15.1840313 C9.9705,15.2597813 9.02634375,15.2325 8.107875,15.1011563 L8.085,15.0023438 C7.53225,12.6148125 7.78425,10.0720313 8.79440625,7.84228125 C9.0080625,7.370625 8.79890625,6.8150625 8.32734375,6.6015 C7.855875,6.3875625 7.30021875,6.59690625 7.0865625,7.06846875 C6.01865625,9.42571875 5.67675,12.0825 6.1010625,14.6327813 C4.86496875,14.2201875 4.18078125,13.7375625 4.162875,13.7248125 C4.143,13.7102813 4.12246875,13.6975313 4.10184375,13.684875 C3.88884375,11.162625 4.32571875,8.59725 5.38275,6.28575 C6.60796875,3.60646875 9.30328125,1.87528125 12.2494688,1.87528125 C15.1954688,1.87528125 17.8906875,3.6061875 19.1158125,6.285375 C19.1164688,6.28678125 19.117125,6.2881875 19.1177813,6.2896875 C19.4685938,7.05740625 19.7504063,7.85325 19.9633125,8.6660625 C19.62375,8.973375 18.141375,10.076625 14.7264375,9.68728125 C14.2116563,9.62878125 13.7474063,9.99796875 13.6887188,10.5125625 C13.6300313,11.0269688 13.9995,11.4915 14.5139063,11.5501875 C15.0754688,11.6143125 15.5978438,11.6427188 16.0829063,11.6427188 C18.109875,11.6427188 19.4855625,11.1451875 20.3431875,10.663125 C20.547375,12.3655313 20.4580313,14.102625 20.0655937,15.781875 L19.4620313,18.3647813 C18.8311875,21.0645 18.96975,23.9059688 19.8385313,26.52675 C19.8479063,26.560875 19.8586875,26.594625 19.872,26.6278125 C20.0442187,27.1351875 20.243625,27.6342188 20.4705937,28.122 L20.9569688,29.1669375 C21.7508438,30.873 22.2706875,32.7179063 22.4955,34.5925313 C22.4948438,34.5931875 22.4941875,34.5936563 22.4935313,34.5943125 C21.728625,35.3593125 20.8816875,36.0368438 19.9763437,36.6080625 C19.5385313,36.8843438 19.4075625,37.4633438 19.6838438,37.90125 C19.8621562,38.1838125 20.1664687,38.3385 20.4775312,38.3385 C20.6485313,38.3385 20.8216875,38.2917188 20.9770313,38.19375 C21.5459063,37.8347813 22.0933125,37.4375625 22.6164375,37.0081875 C22.5470625,38.7196875 21.9069375,40.3671563 20.7949688,41.677125 L20.1064688,42.4881563 C18.7375312,44.1013125 16.9330312,45.2400937 14.8879688,45.781875 Z M46.0944375,14.542875 C46.0943437,14.5440937 46.0941562,14.5452188 46.0940625,14.5465312 C45.8095312,17.5426875 44.5191562,20.401875 42.4607812,22.5976875 L40.77375,24.397125 C38.6355,26.677875 37.3065,29.6490937 37.0315312,32.7636562 L36.8225625,35.130375 C36.6870937,36.664875 36.2083125,38.1811875 35.4381562,39.51525 C34.1783437,41.6972812 32.1778125,43.3663125 29.8051875,44.2146562 C28.16025,44.8026562 26.4005625,44.86875 24.7161562,44.4054375 L24.0904687,44.2335 C23.3114062,44.0191875 22.5715312,43.7042813 21.8810625,43.2955313 L22.2246562,42.8907188 C22.4837812,42.5854688 22.7211562,42.2648438 22.9382812,41.9324063 C23.7650625,42.395625 24.7255312,42.6279375 25.75275,42.6279375 C26.7938437,42.6279375 27.9031875,42.3899063 29.0099062,41.9136563 C31.0995937,41.0144063 32.94075,39.3853125 34.0615312,37.444125 C35.1905625,35.4885938 35.4927187,33.4170938 34.935375,31.4535938 C34.41525,29.6214375 33.176625,28.0626562 31.4475937,27.0644063 C28.1157187,25.1406563 25.1645625,25.5857813 22.6603125,28.3834688 C22.6591875,28.3810313 22.6581563,28.3785 22.6570312,28.3760625 L22.1706563,27.331125 C22.059375,27.0920625 21.9559688,26.8498125 21.8596875,26.605125 C21.88875,26.5843125 21.91725,26.562375 21.9465,26.5418437 L23.8917187,25.1774063 C26.4518437,23.3818125 28.3605,20.744625 29.2659375,17.7519375 L29.97675,15.4020938 C30.8488125,12.5176875 32.6885625,9.96215625 35.1570938,8.206125 L35.2602187,8.1328125 C37.4031563,6.608625 40.2572813,6.47690625 42.5314688,7.79765625 L42.6471563,7.86478125 C44.996625,9.22096875 46.3495312,11.8420312 46.0944375,14.542875 Z" id="Shape" fill="#000000"></path>
                            <path d="M42.7801875,18.2504063 C42.33225,17.9909063 41.7586875,18.1434375 41.4989062,18.591375 L41.4625312,18.653625 C41.1992812,19.0995 41.3473125,19.674375 41.7931875,19.9375312 C41.9428125,20.0258437 42.106875,20.0679375 42.2689687,20.0679375 C42.5896875,20.0679375 42.90225,19.903125 43.0771875,19.606875 L43.1210625,19.5315937 C43.3808437,19.0836563 43.2282187,18.51 42.7801875,18.2504063 Z" id="Path" fill="#000000"></path>
                            <path d="M41.55525,9.75365625 C38.5731562,8.0319375 34.4235,9.616125 32.305125,13.2852188 C31.2994687,15.027 30.8894062,16.9840313 31.1503125,18.7958437 C31.4232187,20.6910938 32.3896875,22.2060937 33.8716875,23.0616562 C34.6838437,23.5305938 35.5949062,23.7647812 36.5420625,23.7647812 C37.5190312,23.7647812 38.5345312,23.5155 39.5190937,23.0175937 C39.9811875,22.7839687 40.16625,22.2199687 39.932625,21.757875 C39.699,21.2956875 39.1348125,21.1109062 38.6729062,21.3443438 C37.3089375,22.0340625 35.900625,22.0681875 34.8090937,21.4378125 C33.8355937,20.8757812 33.1952812,19.8425625 33.0060937,18.5285625 C32.8048125,17.131125 33.1325625,15.601875 33.9287812,14.222625 C35.5302187,11.4489375 38.5306875,10.1728125 40.6174687,11.3773125 C41.8041562,12.0625313 42.4992187,13.4822812 42.4768125,15.1754063 C42.4699687,15.6930937 42.8841562,16.1183438 43.4018437,16.1251875 C43.9210312,16.1340938 44.3447812,15.7178438 44.351625,15.2001563 C44.3834062,12.819 43.338,10.7828438 41.55525,9.75365625 Z" id="Path" fill="#000000"></path>
                            <path d="M17.1725625,37.975875 L17.1058125,37.9996875 C16.6178437,38.1728437 16.3626563,38.7087188 16.5357188,39.1967813 C16.6720312,39.5811563 17.0334375,39.8210625 17.4192188,39.8210625 C17.5231875,39.8210625 17.6290313,39.8035312 17.7327188,39.766875 L17.8066875,39.7405313 C18.294,39.5654063 18.5470312,39.0284063 18.3719062,38.5411875 C18.1967812,38.0537813 17.6597812,37.80075 17.1725625,37.975875 Z" id="Path" fill="#000000"></path>
                        </g>
                    </g>
                </g>
            </g>
        </g>
    </g>
</svg>