<?xml version="1.0" encoding="UTF-8"?>
<svg width="13px" height="7px" viewBox="0 0 13 7" version="1.1" xmlns="http://www.w3.org/2000/svg" xmlns:xlink="http://www.w3.org/1999/xlink">
    <title>arrow_carrot-down</title>
    <g id="Page-1" stroke="none" stroke-width="1" fill="none" fill-rule="evenodd">
        <g id="LL21---to-do-list---expecting-filled" transform="translate(-332.000000, -196.000000)" fill="#A775C8" fill-rule="nonzero">
            <g id="Group" transform="translate(16.000000, 188.000000)">
                <g id="arrow_carrot-down" transform="translate(322.500000, 11.500000) scale(1, -1) translate(-322.500000, -11.500000) translate(316.000000, 8.000000)">
                    <path d="M10.6741586,0.235273079 L6.023393,4.8860387 L1.37262738,0.235273079 C1.05892994,-0.0784243597 0.548970518,-0.0784243597 0.235273079,0.235273079 C-0.0784243597,0.548970518 -0.0784243597,1.05892994 0.235273079,1.37262738 L5.45230279,6.58965709 C5.60995586,6.74731017 5.81747878,6.8261367 6.023393,6.82455213 C6.23091592,6.82455213 6.43683014,6.74731017 6.59448321,6.58965709 L11.8115129,1.37262738 C12.1252104,1.05892994 12.1252104,0.548970518 11.8115129,0.235273079 C11.4978155,-0.0784243597 10.9878561,-0.0784243597 10.6741586,0.235273079 Z" id="Path"></path>
                </g>
            </g>
        </g>
    </g>
</svg>