<?xml version="1.0" encoding="UTF-8"?>
<svg width="46px" height="52px" viewBox="0 0 46 52" version="1.1" xmlns="http://www.w3.org/2000/svg" xmlns:xlink="http://www.w3.org/1999/xlink">
    <title>Group 7</title>
    <g id="Page-1" stroke="none" stroke-width="1" fill="none" fill-rule="evenodd">
        <g id="LL21---to-do-list---expecting-filled" transform="translate(-29.000000, -91.000000)">
            <g id="Group-9" transform="translate(16.000000, 68.250978)">
                <g id="Group-28" transform="translate(-26.000000, 0.001034)">
                    <g id="Group-7" transform="translate(39.000000, 22.747987)">
                        <path d="M33.1365338,50.2583923 L5.14984576,50.2583923 L5.14984576,8.19303563 L43.6409213,8.19303563 L43.6409213,39.7540048 C43.6409213,45.5554564 38.9379854,50.2583923 33.1365338,50.2583923" id="Fill-4" fill="#FFEBDE"></path>
                        <path d="M6.18918503,49.2191986 L33.1365962,49.2191986 C38.355637,49.2191986 42.6017067,44.9731288 42.6017067,39.754088 L42.6017067,9.23239569 L6.18918503,9.23239569 L6.18918503,49.2191986 Z M33.1365962,51.2977524 L5.14990811,51.2977524 C4.57581154,51.2977524 4.1106312,50.8325721 4.1106312,50.2584755 L4.1106312,8.19311878 C4.1106312,7.61902221 4.57581154,7.15384186 5.14990811,7.15384186 L43.6409837,7.15384186 C44.2148724,7.15384186 44.6802606,7.61902221 44.6802606,8.19311878 L44.6802606,39.754088 C44.6802606,46.1192434 39.5017516,51.2977524 33.1365962,51.2977524 L33.1365962,51.2977524 Z" id="Fill-6" fill="#A179C5"></path>
                        <path d="M31.463194,46.0471384 L1.03919377,46.0471384 L1.03919377,3.98178165 L39.5302693,3.98178165 L39.5302693,37.9800631 C39.5302693,42.4354432 35.9185742,46.0471384 31.463194,46.0471384" id="Fill-8" fill="#D4B1EF"></path>
                        <path d="M2.07855383,45.007903 L31.4632772,45.007903 C35.3385329,45.007903 38.4910755,41.8553604 38.4910755,37.9801047 L38.4910755,5.02110013 L2.07855383,5.02110013 L2.07855383,45.007903 Z M31.4632772,47.0864568 L1.03927692,47.0864568 C0.465180347,47.0864568 4.74260763e-13,46.6212765 4.74260763e-13,46.0471799 L4.74260763e-13,3.98182322 C4.74260763e-13,3.40772665 0.465180347,2.9425463 1.03927692,2.9425463 L39.5303525,2.9425463 C40.1042412,2.9425463 40.5696294,3.40772665 40.5696294,3.98182322 L40.5696294,37.9801047 C40.5696294,43.001475 36.4844397,47.0864568 31.4632772,47.0864568 L31.4632772,47.0864568 Z" id="Fill-10" fill="#A179C5"></path>
                        <line x1="18.1770572" y1="15.3761435" x2="31.7398288" y2="15.3761435" id="Fill-12" fill="#D4B1EF"></line>
                        <polygon id="Fill-14" fill="#FFFFFF" points="18.1770572 16.4153789 31.7398288 16.4153789 31.7398288 14.336825 18.1770572 14.336825"></polygon>
                        <line x1="18.1770572" y1="19.2022831" x2="31.7398288" y2="19.2022831" id="Fill-16" fill="#D4B1EF"></line>
                        <polygon id="Fill-17" fill="#FFFFFF" points="18.1770572 20.2415808 31.7398288 20.2415808 31.7398288 18.1630269 18.1770572 18.1630269"></polygon>
                        <polygon id="Fill-18" fill="#F8CAC3" points="8.82959274 19.9046472 14.0602735 19.9046472 14.0602735 14.6739665 8.82959274 14.6739665"></polygon>
                        <path d="M9.86886966,18.8651624 L13.0209965,18.8651624 L13.0209965,15.7130355 L9.86886966,15.7130355 L9.86886966,18.8651624 Z M14.0602735,20.9437163 L8.82959274,20.9437163 C8.25549618,20.9437163 7.79031583,20.4785359 7.79031583,19.9044393 L7.79031583,14.6737586 C7.79031583,14.0998699 8.25549618,13.6344817 8.82959274,13.6344817 L14.0602735,13.6344817 C14.63437,13.6344817 15.0995504,14.0998699 15.0995504,14.6737586 L15.0995504,19.9044393 C15.0995504,20.4785359 14.63437,20.9437163 14.0602735,20.9437163 L14.0602735,20.9437163 Z" id="Fill-19" fill="#A179C5"></path>
                        <line x1="18.1770572" y1="26.2733985" x2="31.7398288" y2="26.2733985" id="Fill-20" fill="#D4B1EF"></line>
                        <polygon id="Fill-21" fill="#FFFFFF" points="18.1770572 27.312613 31.7398288 27.312613 31.7398288 25.2340592 18.1770572 25.2340592"></polygon>
                        <line x1="18.1770572" y1="30.099538" x2="31.7398288" y2="30.099538" id="Fill-22" fill="#D4B1EF"></line>
                        <polygon id="Fill-23" fill="#FFFFFF" points="18.1770572 31.1388149 31.7398288 31.1388149 31.7398288 29.0602611 18.1770572 29.0602611"></polygon>
                        <polygon id="Fill-24" fill="#F8CAC3" points="8.82959274 30.8018814 14.0602735 30.8018814 14.0602735 25.5712006 8.82959274 25.5712006"></polygon>
                        <path d="M9.86886966,29.7626044 L13.0209965,29.7626044 L13.0209965,26.6104776 L9.86886966,26.6104776 L9.86886966,29.7626044 Z M14.0602735,31.8411583 L8.82959274,31.8411583 C8.25549618,31.8411583 7.79031583,31.3759779 7.79031583,30.8018814 L7.79031583,25.5712006 C7.79031583,24.9971041 8.25549618,24.5319237 8.82959274,24.5319237 L14.0602735,24.5319237 C14.63437,24.5319237 15.0995504,24.9971041 15.0995504,25.5712006 L15.0995504,30.8018814 C15.0995504,31.3759779 14.63437,31.8411583 14.0602735,31.8411583 L14.0602735,31.8411583 Z" id="Fill-25" fill="#A179C5"></path>
                        <polygon id="Fill-26" fill="#FFFFFF" points="8.82959274 7.0448425 31.7398288 7.0448425 31.7398288 1.03927692 8.82959274 1.03927692"></polygon>
                        <path d="M9.86886966,6.00556558 L30.7005519,6.00556558 L30.7005519,2.07834598 L9.86886966,2.07834598 L9.86886966,6.00556558 Z M31.7398288,8.08411941 L8.82959274,8.08411941 C8.25549618,8.08411941 7.79031583,7.61893907 7.79031583,7.0448425 L7.79031583,1.03927692 C7.79031583,0.465180347 8.25549618,-8.96132256e-14 8.82959274,-8.96132256e-14 L31.7398288,-8.96132256e-14 C32.3137175,-8.96132256e-14 32.7791057,0.465180347 32.7791057,1.03927692 L32.7791057,7.0448425 C32.7791057,7.61893907 32.3137175,8.08411941 31.7398288,8.08411941 L31.7398288,8.08411941 Z" id="Fill-27" fill="#A179C5"></path>
                    </g>
                </g>
            </g>
        </g>
    </g>
</svg>