<?xml version="1.0" encoding="UTF-8"?>
<svg width="50px" height="50px" viewBox="0 0 50 50" version="1.1" xmlns="http://www.w3.org/2000/svg" xmlns:xlink="http://www.w3.org/1999/xlink">
    <title>Group 5</title>
    <g id="Page-1" stroke="none" stroke-width="1" fill="none" fill-rule="evenodd">
        <g id="LL21---nutrition" transform="translate(-41.000000, -586.000000)">
            <g id="Group-7" transform="translate(16.000000, 200.000000)">
                <g id="Group-6-Copy-9" transform="translate(0.000000, 378.000000)">
                    <g id="Group-5" transform="translate(25.000000, 8.000000)">
                        <rect id="Rectangle" x="0" y="0" width="50" height="50"></rect>
                        <g id="quentao" transform="translate(1.000000, 1.000000)" fill-rule="nonzero">
                            <path d="M40.836,17.8125 L38.952375,17.8125 L38.534625,21.9375 L40.836,21.9375 C41.99475,21.9375 42.9375,22.8803438 42.9375,24.0390938 L42.9375,31.4609063 C42.9375,32.6196563 41.99475,33.5625 40.836,33.5625 L37.207125,33.5625 L36.75,37.6875 L40.836,37.6875 C44.2693125,37.6875 47.0625,34.8942188 47.0625,31.4609063 L47.0625,24.0390937 C47.0625,20.6057812 44.2693125,17.8125 40.836,17.8125 Z" id="XMLID_895_" fill="#CCF5FC"></path>
                            <circle id="XMLID_494_" fill="#FFDA8F" cx="11.997375" cy="11.997375" r="11.059875"></circle>
                            <circle id="XMLID_873_" fill="#FFCD69" cx="11.997375" cy="11.997375" r="7.309875"></circle>
                            <path d="M9.12234375,12 L12.7201875,43.7349375 C12.9351563,45.630375 14.53875,47.0625 16.446375,47.0625 L32.3226563,47.0625 C34.2302813,47.0625 35.833875,45.630375 36.04875,43.7349375 L39.6466875,12 L9.12234375,12 Z" id="XMLID_1271_" fill="#CCF5FC"></path>
                            <polygon id="XMLID_318_" fill="#FF7D97" points="13.884375 17.3856563 16.78125 42.9375 31.9877813 42.9375 34.8846562 17.3856563"></polygon>
                            <polygon id="XMLID_75_" fill="#C68A65" points="34.0470938 17.3856563 38.1812813 1.9565625 34.3779375 0.9375 29.9706563 17.3856563"></polygon>
                            <polygon id="XMLID_917_" fill="#C68A65" points="29.96925 17.3856563 34.1035313 1.9565625 30.3001875 0.9375 25.8929062 17.3856563"></polygon>
                            <g id="XMLID_524_" fill="#000000">
                                <path d="M21.2184375,22.875 C21.2184375,22.6284375 21.1190625,22.3865625 20.94375,22.2121875 C20.769375,22.0378125 20.5284375,21.9375 20.2809375,21.9375 C20.034375,21.9375 19.7925,22.0378125 19.618125,22.2121875 C19.44375,22.3865625 19.3434375,22.6284375 19.3434375,22.875 C19.3434375,23.1215625 19.44375,23.3634375 19.618125,23.5378125 C19.7925,23.7121875 20.034375,23.8125 20.2809375,23.8125 C20.5275,23.8125 20.769375,23.7121875 20.94375,23.5378125 C21.1190625,23.3634375 21.2184375,23.1215625 21.2184375,22.875 Z" id="XMLID_525_"></path>
                                <path d="M24.384375,29.71875 C24.1378125,29.71875 23.8959375,29.8190625 23.7215625,29.9934375 C23.5471875,30.1678125 23.446875,30.4096875 23.446875,30.65625 C23.446875,30.9028125 23.5471875,31.1446875 23.7215625,31.3190625 C23.8959375,31.4934375 24.1378125,31.59375 24.384375,31.59375 C24.6309375,31.59375 24.8729062,31.4934375 25.0471875,31.3190625 C25.2215625,31.1446875 25.321875,30.9028125 25.321875,30.65625 C25.321875,30.4096875 25.2215625,30.1678125 25.0471875,29.9934375 C24.8728125,29.8190625 24.6309375,29.71875 24.384375,29.71875 Z" id="XMLID_528_"></path>
                                <path d="M21.3440625,35.6559375 C21.0965625,35.6559375 20.855625,35.75625 20.68125,35.930625 C20.5059375,36.105 20.4065625,36.346875 20.4065625,36.5934375 C20.4065625,36.8409375 20.5059375,37.081875 20.68125,37.25625 C20.855625,37.4315625 21.0965625,37.5309375 21.3440625,37.5309375 C21.590625,37.5309375 21.8325,37.4315625 22.006875,37.25625 C22.18125,37.081875 22.2815625,36.8409375 22.2815625,36.5934375 C22.2815625,36.346875 22.18125,36.1049062 22.006875,35.930625 C21.8325,35.75625 21.590625,35.6559375 21.3440625,35.6559375 Z" id="XMLID_529_"></path>
                                <path d="M28.3125,37.59375 C28.0659375,37.59375 27.8240625,37.6940625 27.6496875,37.8684375 C27.4753125,38.0428125 27.375,38.2846875 27.375,38.53125 C27.375,38.7778125 27.4753125,39.0196875 27.6496875,39.1940625 C27.8240625,39.3684375 28.0659375,39.46875 28.3125,39.46875 C28.5590625,39.46875 28.8009375,39.3684375 28.9753125,39.1940625 C29.1496875,39.0196875 29.25,38.7778125 29.25,38.53125 C29.25,38.2846875 29.1496875,38.0428125 28.9753125,37.8684375 C28.8009375,37.6940625 28.5590625,37.59375 28.3125,37.59375 Z" id="XMLID_530_"></path>
                                <path d="M40.836,16.875 L40.0375313,16.875 L40.5782812,12.1055625 C40.608375,11.84025 40.5238125,11.5746563 40.3459687,11.3755312 C40.168125,11.1763125 39.9137812,11.0625 39.6467812,11.0625 L36.7120312,11.0625 L39.0869062,2.19928125 C39.2209687,1.699125 38.9241562,1.18509375 38.424,1.05103125 L34.6206562,0.03196875 C34.3804687,-0.03234375 34.1245312,0.0013125 33.9092812,0.125625 C33.6939375,0.2499375 33.5368125,0.4546875 33.4725,0.694875 L33.4419375,0.80878125 L30.5428125,0.03196875 C30.3027187,-0.03234375 30.0466875,0.0013125 29.8314375,0.125625 C29.6160937,0.2499375 29.4589687,0.4546875 29.3946562,0.694875 L26.6166562,11.0625 L23.9585625,11.0625 C23.4799687,4.88240625 18.2982187,0 11.997375,0 C5.382,0 -1.0658141e-14,5.382 -1.0658141e-14,11.997375 C-1.0658141e-14,14.8918125 1.04503125,17.68725 2.9428125,19.8685312 C4.66115625,21.84375 6.971625,23.199 9.50934375,23.7354375 L10.2732187,30.4729687 C10.3315312,30.9874688 10.7961562,31.357125 11.310375,31.2989063 C11.824875,31.2405 12.194625,30.77625 12.1363125,30.26175 L10.1721562,12.9375 L12.4365937,12.9375 L15.84975,43.0430625 C15.9034687,43.5169687 16.3044375,43.875 16.7813437,43.875 L31.987875,43.875 C32.4647812,43.875 32.8656563,43.5169687 32.9194688,43.0430625 L36.3325312,12.9375 L38.5969687,12.9375 L35.11725,43.6292813 C34.956,45.052125 33.7545937,46.125 32.3226562,46.125 L16.446375,46.125 C15.0145312,46.125 13.8130312,45.052125 13.6517812,43.6292813 L13.0864687,38.6430938 C13.0280625,38.1286875 12.5637187,37.7595 12.0493125,37.8171563 C11.5348125,37.8755625 11.1650625,38.3398125 11.223375,38.8543125 L11.7886875,43.8405 C12.0575625,46.2118125 14.059875,48 16.446375,48 L32.3226563,48 C34.7091562,48 36.7114688,46.2118125 36.9803437,43.8405 L37.571625,38.625 L40.836,38.625 C44.78625,38.625 48,35.41125 48,31.4609062 L48,24.0390937 C48,20.08875 44.78625,16.875 40.836,16.875 Z M28.0553437,12.9375 L30.1905938,12.9375 L29.2499062,16.44825 L27.1146562,16.44825 L28.0553437,12.9375 Z M32.1330938,12.9375 L34.2683437,12.9375 L33.3276563,16.44825 L31.1924062,16.44825 L32.1330938,12.9375 Z M37.033125,2.61946875 L34.77075,11.0625 L32.6355,11.0625 L35.0408438,2.08575 L37.033125,2.61946875 Z M30.9630938,2.08575 L32.9552813,2.6195625 L30.693,11.0625 L28.55775,11.0625 L30.9630938,2.08575 Z M1.875,11.997375 C1.875,6.415875 6.415875,1.875 11.997375,1.875 C17.2635937,1.875 21.6027187,5.9176875 22.0761562,11.0625 L20.1914062,11.0625 C19.7256562,6.95353125 16.228875,3.75 11.997375,3.75 C7.44975,3.75 3.75,7.44975 3.75,11.997375 C3.75,13.8115313 4.327875,15.5327812 5.42109375,16.975125 C6.3504375,18.2011875 7.62346875,19.1533125 9.05203125,19.7020312 L9.28425,21.7506562 C4.9845,20.5504688 1.875,16.5571875 1.875,11.997375 Z M13.621125,11.059875 L15.9585937,7.01128125 C17.1945937,7.99528125 18.0584062,9.427125 18.3001875,11.059875 L13.621125,11.059875 Z M11.997375,10.122375 L9.65859375,6.07153125 C10.3832812,5.78446875 11.1718125,5.625 11.997375,5.625 C12.8229375,5.625 13.6114687,5.78446875 14.3361562,6.07153125 L11.997375,10.122375 Z M8.28515625,12.9375 L8.80359375,17.51025 C7.14590625,16.5425625 5.986875,14.8521563 5.697,12.9375 L8.28515625,12.9375 Z M5.6941875,11.0625 C5.9355,9.428625 6.7995,7.99584375 8.03615625,7.01128125 L10.375125,11.0625 L5.6941875,11.0625 Z M26.11425,12.9375 L25.1735625,16.44825 L14.7216562,16.44825 L14.3235937,12.9375 L26.11425,12.9375 Z M31.1505937,42 L17.6184375,42 L14.9341875,18.32325 L33.8348437,18.32325 L31.1505937,42 Z M39.3572813,22.875 L40.836,22.875 C41.4778125,22.875 42,23.3971875 42,24.0390937 L42,31.4609062 C42,32.1028125 41.4778125,32.625 40.836,32.625 L38.251875,32.625 L39.3572813,22.875 Z M46.125,31.4609062 C46.125,34.3772812 43.752375,36.75 40.836,36.75 L37.78425,36.75 L38.0393437,34.5 L40.836,34.5 C42.5116875,34.5 43.875,33.1366875 43.875,31.4609062 L43.875,24.0390937 C43.875,22.3633125 42.5116875,21 40.836,21 L39.5699062,21 L39.825,18.75 L40.836,18.75 C43.752375,18.75 46.125,21.1227188 46.125,24.0390937 L46.125,31.4609062 Z" id="XMLID_533_"></path>
                                <path d="M12.256875,35.23125 C12.43125,35.056875 12.5315625,34.815 12.5315625,34.5684375 C12.5315625,34.3209375 12.43125,34.08 12.256875,33.9046875 C12.0825,33.7303125 11.840625,33.6309375 11.5940625,33.6309375 C11.3475,33.6309375 11.105625,33.7303125 10.93125,33.9046875 C10.7559375,34.08 10.6565625,34.3209375 10.6565625,34.5684375 C10.6565625,34.815 10.7559375,35.056875 10.93125,35.23125 C11.105625,35.405625 11.3475,35.5059375 11.5940625,35.5059375 C11.840625,35.5059375 12.0825,35.405625 12.256875,35.23125 Z" id="XMLID_1142_"></path>
                            </g>
                        </g>
                    </g>
                </g>
            </g>
        </g>
    </g>
</svg>