<?xml version="1.0" encoding="UTF-8"?>
<svg width="15px" height="14px" viewBox="0 0 15 14" version="1.1" xmlns="http://www.w3.org/2000/svg" xmlns:xlink="http://www.w3.org/1999/xlink">
    <title>birthday-cake</title>
    <g id="Page-1" stroke="none" stroke-width="1" fill="none" fill-rule="evenodd">
        <g id="LL21---Breastfeeding-0-3-months" transform="translate(-140.000000, -262.000000)" fill="#8B7FBF" fill-rule="nonzero">
            <g id="Group-8" transform="translate(16.000000, 178.000000)">
                <g id="birthday-cake" transform="translate(124.000000, 84.000000)">
                    <path d="M13.8055556,13.1601944 L13.0848333,13.1601944 L13.0848333,9.96683333 C13.3057222,9.7845 13.4315278,9.52594444 13.4315278,9.24991667 L13.4315278,8.17566667 C13.4315278,7.59038889 12.9100556,7.11419444 12.2690556,7.11419444 L11.7251111,7.11419444 L11.7251111,4.50277778 C11.7251111,4.06622222 11.3700278,3.71105556 10.9335556,3.71105556 L10.8841667,3.71105556 L10.8841667,3.42530556 C11.3765,3.25269444 11.7306667,2.78347222 11.7306667,2.23277778 C11.7306667,2.04788889 11.6769167,1.73561111 11.2578333,0.955416667 C11.0418056,0.55325 10.8289167,0.215055556 10.8199167,0.200833333 C10.7436111,0.0798611111 10.6105556,0.00647222222 10.4675,0.00647222222 C10.3244444,0.00647222222 10.1914167,0.0798611111 10.1150833,0.200833333 C10.1061111,0.215055556 9.89322222,0.553277778 9.67716667,0.955416667 C9.25805556,1.73561111 9.20433333,2.04788889 9.20433333,2.23277778 C9.20433333,2.78344444 9.5585,3.25269444 10.0508333,3.42530556 L10.0508333,3.71105556 L10.0014444,3.71105556 C9.56497222,3.71105556 9.20988889,4.06622222 9.20988889,4.50277778 L9.20988889,7.11419444 L8.36875,7.11419444 L8.36875,4.50277778 C8.36875,4.06622222 8.01363889,3.71105556 7.57716667,3.71105556 L7.52777778,3.71105556 L7.52777778,3.42530556 C8.02008333,3.25269444 8.37425,2.78347222 8.37425,2.23277778 C8.37425,2.04788889 8.3205,1.73561111 7.90141667,0.955416667 C7.68541667,0.55325 7.47252778,0.215055556 7.46355556,0.200861111 C7.38722222,0.0798611111 7.25416667,0.00647222222 7.11111111,0.00647222222 C6.96805556,0.00647222222 6.83502778,0.0798611111 6.75869444,0.200833333 C6.74972222,0.215055556 6.53683333,0.553277778 6.32077778,0.955416667 C5.90166667,1.73561111 5.84794444,2.04788889 5.84794444,2.23277778 C5.84794444,2.78344444 6.20211111,3.25269444 6.69444444,3.42530556 L6.69444444,3.71105556 L6.64505556,3.71105556 C6.20858333,3.71105556 5.85347222,4.06622222 5.85347222,4.50277778 L5.85347222,7.11419444 L5.01233333,7.11419444 L5.01233333,4.50277778 C5.01233333,4.06622222 4.65725,3.71105556 4.22077778,3.71105556 L4.17138889,3.71105556 L4.17138889,3.42530556 C4.66372222,3.25269444 5.01788889,2.78347222 5.01788889,2.23277778 C5.01788889,2.04788889 4.96413889,1.73561111 4.54505556,0.955416667 C4.32902778,0.55325 4.11613889,0.215055556 4.10713889,0.200833333 C4.03083333,0.0798611111 3.89777778,0.00647222222 3.75472222,0.00647222222 C3.61166667,0.00647222222 3.47863889,0.0798611111 3.40230556,0.200833333 C3.39333333,0.215055556 3.18044444,0.553277778 2.96438889,0.955416667 C2.54527778,1.73561111 2.49152778,2.04788889 2.49152778,2.23277778 C2.49152778,2.78344444 2.84569444,3.25269444 3.33802778,3.42530556 L3.33802778,3.71105556 L3.28863889,3.71105556 C2.85216667,3.71105556 2.49708333,4.06622222 2.49708333,4.50277778 L2.49708333,7.11419444 L1.95313889,7.11419444 C1.31216667,7.11419444 0.790666667,7.59038889 0.790666667,8.17566667 L0.790666667,9.24991667 C0.790666667,9.52594444 0.916472222,9.7845 1.13736111,9.96683333 L1.13736111,13.1601944 L0.416666667,13.1601944 C0.186555556,13.1601944 0,13.34675 0,13.5768611 C0,13.8069722 0.186555556,13.9935278 0.416666667,13.9935278 L13.8055556,13.9935278 C14.0356667,13.9935278 14.2222222,13.8069722 14.2222222,13.5768611 C14.2222222,13.34675 14.0356667,13.1601944 13.8055556,13.1601944 Z M10.0376667,2.23308333 C10.04025,2.1 10.2191944,1.69819444 10.4675833,1.24480556 C10.7158333,1.69794444 10.8946667,2.09958333 10.8973333,2.233 C10.8972222,2.47008333 10.7044444,2.66294444 10.4675,2.66294444 C10.2305,2.66294444 10.0376667,2.46997222 10.0376667,2.23308333 Z M10.0432222,4.54438889 L10.8918056,4.54438889 L10.8918056,7.11180556 L10.0432222,7.11180556 L10.0432222,4.54438889 Z M6.68127778,2.23308333 C6.68386111,2.1 6.86280556,1.69822222 7.11116667,1.24483333 C7.35941667,1.69794444 7.53825,2.09958333 7.54091667,2.233 C7.54080556,2.47008333 7.34805556,2.66294444 7.11111111,2.66294444 C6.87411111,2.66294444 6.68127778,2.46997222 6.68127778,2.23308333 L6.68127778,2.23308333 Z M6.68680556,4.54438889 L7.53541667,4.54438889 L7.53541667,7.11180556 L6.68680556,7.11180556 L6.68680556,4.54438889 Z M3.32486111,2.23308333 C3.32744444,2.1 3.50638889,1.69819444 3.75477778,1.24480556 C4.00302778,1.69794444 4.18186111,2.09958333 4.18452778,2.233 C4.18441667,2.47008333 3.99163889,2.66294444 3.75469444,2.66294444 C3.51769444,2.66294444 3.32486111,2.46997222 3.32486111,2.23308333 L3.32486111,2.23308333 Z M3.33041667,4.54438889 L4.179,4.54438889 L4.179,7.11180556 L3.33041667,7.11180556 L3.33041667,4.54438889 Z M12.2515,13.1601944 L1.97069444,13.1601944 L1.97069444,10.2075 C2.03586111,10.2 2.10083333,10.1868611 2.16480556,10.1679167 L3.21663889,9.85655556 C3.8245,9.67666667 4.49394444,9.67666667 5.10175,9.85655556 L5.93197222,10.1023333 C6.31216667,10.2148889 6.71161111,10.2711389 7.11105556,10.2711389 C7.51052778,10.2711389 7.91,10.2148889 8.29016667,10.1023333 L9.12038889,9.85655556 C9.72816667,9.67663889 10.3976667,9.67663889 11.0055,9.85655556 L12.0573056,10.1679167 C12.1212778,10.1868611 12.1862778,10.2 12.2515,10.2075 L12.2515,13.1601944 L12.2515,13.1601944 Z M12.5982222,9.24991667 C12.5982222,9.28461111 12.5701389,9.31286111 12.5466389,9.33038889 C12.4940833,9.36961111 12.4001111,9.40030556 12.2939167,9.36888889 L11.2420833,9.05752778 C10.4817222,8.83241667 9.64425,8.83241667 8.88386111,9.05752778 L8.05363889,9.30330556 C7.44586111,9.48319444 6.77636111,9.48325 6.16852778,9.30330556 L5.33830556,9.05752778 C4.95808333,8.94494444 4.55872222,8.88869444 4.15919444,8.88869444 C3.75977778,8.88869444 3.36022222,8.94497222 2.98011111,9.05752778 L1.92825,9.36888889 C1.82208333,9.40033333 1.72808333,9.36958333 1.67555556,9.33038889 C1.65202778,9.31283333 1.624,9.28461111 1.624,9.24991667 L1.624,8.17566667 C1.624,8.06775 1.75916667,7.94752778 1.95313889,7.94752778 L12.2690833,7.94752778 C12.4630278,7.94752778 12.5982222,8.06775 12.5982222,8.17566667 L12.5982222,9.24991667 L12.5982222,9.24991667 Z" id="XMLID_518_"></path>
                </g>
            </g>
        </g>
    </g>
</svg>