<?xml version="1.0" encoding="UTF-8"?>
<svg width="50px" height="50px" viewBox="0 0 50 50" version="1.1" xmlns="http://www.w3.org/2000/svg" xmlns:xlink="http://www.w3.org/1999/xlink">
    <title>Group 5</title>
    <g id="Page-1" stroke="none" stroke-width="1" fill="none" fill-rule="evenodd">
        <g id="LL21---nutrition" transform="translate(-155.000000, -460.000000)">
            <g id="Group-7" transform="translate(16.000000, 200.000000)">
                <g id="Group-6-Copy-7" transform="translate(113.000000, 252.000000)">
                    <g id="Group-5" transform="translate(26.000000, 8.000000)">
                        <rect id="Rectangle" x="0" y="0" width="50" height="50"></rect>
                        <g id="seasoning" transform="translate(1.000000, 1.000000)" fill-rule="nonzero">
                            <g id="Group" transform="translate(0.774194, 0.774194)">
                                <path d="M46.1264516,40.2193548 C46.3432258,40.7535484 46.4516129,41.3264516 46.4516129,41.9070968 C46.4516129,44.4154839 44.4154839,46.4516129 41.9070968,46.4516129 L41.0322581,46.4516129 L41.9612903,45.5225806 C42.8516129,44.6322581 43.3548387,43.4167742 43.3548387,42.1548387 C43.3548387,41.4193548 43.1845161,40.6916129 42.8516129,40.0258065 L41.8064516,37.9354839 L41.8064516,34.0645161 L44.9032258,34.0645161 C44.9032258,36.1083871 45.2903226,38.1367742 46.0567742,40.0335484 L46.1264516,40.2193548 Z" id="Path" fill="#FFEAA7"></path>
                                <path d="M37.9354839,46.4516129 L37.0606452,46.4516129 C35.8064516,46.4516129 34.6683871,45.9406452 33.8477419,45.12 C33.0270968,44.2993548 32.516129,43.1612903 32.516129,41.9070968 C32.516129,41.3264516 32.6245161,40.7535484 32.8412903,40.2193548 L32.9109677,40.0335484 C33.6774194,38.1367742 34.0645161,36.1083871 34.0645161,34.0645161 L37.1612903,34.0645161 L37.1612903,37.9354839 L36.116129,40.0258065 C35.7832258,40.6916129 35.6129032,41.4193548 35.6129032,42.1548387 C35.6129032,43.4167742 36.116129,44.6322581 37.0064516,45.5225806 L37.9354839,46.4516129 Z" id="Path" fill="#FFEAA7"></path>
                                <path d="M42.8516129,40.0258065 C43.1845161,40.6916129 43.3548387,41.4193548 43.3548387,42.1548387 C43.3548387,43.4167742 42.8516129,44.6322581 41.9612903,45.5225806 L41.0322581,46.4516129 L37.9354839,46.4516129 L37.0064516,45.5225806 C36.116129,44.6322581 35.6129032,43.4167742 35.6129032,42.1548387 C35.6129032,41.4193548 35.7832258,40.6916129 36.116129,40.0258065 L37.1612903,37.9354839 L37.1612903,34.0645161 L41.8064516,34.0645161 L41.8064516,37.9354839 L42.8516129,40.0258065 Z" id="Path" fill="#FCD770"></path>
                                <polygon id="Path" fill="#CCD1D9" points="44.9032258 30.9677419 44.9032258 34.0645161 41.8064516 34.0645161 37.1612903 34.0645161 34.0645161 34.0645161 34.0645161 30.9677419"></polygon>
                                <path d="M44.9032258,30.9677419 L34.0645161,30.9677419 C34.0645161,30.0774194 34.6374194,29.3341935 35.4348387,29.0554839 C35.4270968,29.0167742 35.4193548,28.9780645 35.4193548,28.9393548 C35.4193548,27.8167742 36.3329032,26.9032258 37.4554839,26.9032258 C37.4941935,26.9032258 37.5329032,26.9109677 37.5716129,26.9187097 C37.8503226,26.1212903 38.5935484,25.5483871 39.483871,25.5483871 C40.3741935,25.5483871 41.1174194,26.1212903 41.396129,26.9187097 C41.4348387,26.9109677 41.4735484,26.9032258 41.5122581,26.9032258 C42.6348387,26.9032258 43.5483871,27.8167742 43.5483871,28.9393548 C43.5483871,28.9780645 43.5406452,29.0167742 43.5329032,29.0554839 C44.3303226,29.3341935 44.9032258,30.0774194 44.9032258,30.9677419 Z" id="Path" fill="#E6E9ED"></path>
                                <path d="M27.8709677,23.2258065 L27.8709677,24.7741935 C27.8709677,25.2 27.5225806,25.5483871 27.0967742,25.5483871 L26.3225806,25.5483871 L3.09677419,25.5483871 L2.32258065,25.5483871 C1.89677419,25.5483871 1.5483871,25.2 1.5483871,24.7741935 L1.5483871,23.2258065 C1.5483871,22.8 1.89677419,22.4516129 2.32258065,22.4516129 L27.0967742,22.4516129 C27.5225806,22.4516129 27.8709677,22.8 27.8709677,23.2258065 Z" id="Path" fill="#D3A06C"></path>
                                <path d="M26.6090323,28.5832258 L26.3225806,28.6451613 L22.4516129,28.6451613 L3.09677419,28.6451613 L2.81032258,28.5832258 C3.00387097,27.5845161 3.09677419,26.5703226 3.09677419,25.5483871 L26.3225806,25.5483871 C26.3225806,26.5703226 26.4154839,27.5845161 26.6090323,28.5832258 Z" id="Path" fill="#DFB28B"></path>
                                <path d="M28.4903226,33.7625806 C29.1019355,34.9780645 29.4193548,36.3251613 29.4193548,37.68 C29.4193548,40.1032258 28.436129,42.2941935 26.8490323,43.8812903 C25.2619355,45.4683871 23.0709677,46.4516129 20.6477419,46.4516129 L18.5806452,46.4516129 L20.8490323,45.0890323 C21.84,44.4929032 22.4516129,43.4167742 22.4516129,42.2554839 C22.4516129,41.4425806 22.32,40.6374194 22.0645161,39.8709677 C21.9406452,39.4993548 21.8787097,39.1045161 21.8787097,38.7096774 C21.8787097,38.3148387 21.9406452,37.92 22.0645161,37.5483871 L22.4516129,36.3870968 C20.9109677,36.3870968 19.3858065,36.6348387 17.9225806,37.1225806 L17.8064516,37.1612903 C17.8064516,36.1703226 17.4116129,35.2180645 16.7148387,34.5212903 L16.5754839,34.3819355 C15.8787097,33.6851613 15.483871,32.7329032 15.483871,31.7419355 L14.2683871,32.4696774 C12.6193548,33.4606452 11.6129032,35.2412903 11.6129032,37.1612903 L11.4967742,37.1225806 C10.0335484,36.6348387 8.5083871,36.3870968 6.96774194,36.3870968 L7.35483871,37.5483871 C7.60258065,38.2993548 7.60258065,39.12 7.35483871,39.8709677 C7.09935484,40.6374194 6.96774194,41.4425806 6.96774194,42.2554839 C6.96774194,43.4167742 7.57935484,44.4929032 8.57032258,45.0890323 L10.8387097,46.4516129 L8.7716129,46.4516129 C3.92516129,46.4516129 0,42.5264516 0,37.68 C0,36.3251613 0.317419355,34.9780645 0.929032258,33.7625806 L1.36258065,32.88 C2.04387097,31.5174194 2.5316129,30.0696774 2.81032258,28.5832258 L3.09677419,28.6451613 L22.4516129,28.6451613 L26.3225806,28.6451613 L26.6090323,28.5832258 C26.8877419,30.0696774 27.3754839,31.5174194 28.0567742,32.88 L28.4903226,33.7625806 Z" id="Path" fill="#CF9E76"></path>
                                <path d="M17.0864516,44.8490323 C17.5509677,44.3845161 17.8064516,43.7651613 17.8064516,43.1148387 C17.8064516,42.2941935 17.396129,41.5354839 16.7148387,41.0787097 C15.9096774,40.5445161 15.2516129,39.8012903 14.8180645,38.9341935 L14.7096774,38.7096774 L14.6012903,38.9341935 C14.1677419,39.8012903 13.5096774,40.5445161 12.7045161,41.0787097 C12.0232258,41.5354839 11.6129032,42.2941935 11.6129032,43.1148387 C11.6129032,43.7651613 11.8683871,44.3845161 12.3329032,44.8490323 L13.9354839,46.4516129 L10.8387097,46.4516129 L8.57032258,45.0890323 C7.57935484,44.4929032 6.96774194,43.4167742 6.96774194,42.2554839 C6.96774194,41.4425806 7.09935484,40.6374194 7.35483871,39.8709677 C7.60258065,39.12 7.60258065,38.2993548 7.35483871,37.5483871 L6.96774194,36.3870968 C8.5083871,36.3870968 10.0335484,36.6348387 11.4967742,37.1225806 L11.6129032,37.1612903 C11.6129032,35.2412903 12.6193548,33.4606452 14.2683871,32.4696774 L15.483871,31.7419355 C15.483871,32.7329032 15.8787097,33.6851613 16.5754839,34.3819355 L16.7148387,34.5212903 C17.4116129,35.2180645 17.8064516,36.1703226 17.8064516,37.1612903 L17.9225806,37.1225806 C19.3858065,36.6348387 20.9109677,36.3870968 22.4516129,36.3870968 L22.0645161,37.5483871 C21.9406452,37.92 21.8787097,38.3148387 21.8787097,38.7096774 C21.8787097,39.1045161 21.9406452,39.4993548 22.0645161,39.8709677 C22.32,40.6374194 22.4516129,41.4425806 22.4516129,42.2554839 C22.4516129,43.4167742 21.84,44.4929032 20.8490323,45.0890323 L18.5806452,46.4516129 L15.483871,46.4516129 L17.0864516,44.8490323 Z" id="Path" fill="#FF826E"></path>
                                <path d="M17.8064516,43.1148387 C17.8064516,43.7651613 17.5509677,44.3845161 17.0864516,44.8490323 L15.483871,46.4516129 L13.9354839,46.4516129 L12.3329032,44.8490323 C11.8683871,44.3845161 11.6129032,43.7651613 11.6129032,43.1148387 C11.6129032,42.2941935 12.0232258,41.5354839 12.7045161,41.0787097 C13.5096774,40.5445161 14.1677419,39.8012903 14.6012903,38.9341935 L14.7096774,38.7096774 L14.8180645,38.9341935 C15.2516129,39.8012903 15.9096774,40.5445161 16.7148387,41.0787097 C17.396129,41.5354839 17.8064516,42.2941935 17.8064516,43.1148387 Z" id="Path" fill="#FC6E51"></path>
                                <polygon id="Path" fill="#B4DD7F" points="46.4516129 0 46.4516129 12.3870968 43.3548387 12.3870968 43.3548387 10.0645161 43.3548387 2.32258065 43.3548387 0"></polygon>
                                <path d="M26.3225806,8.51612903 L26.3225806,9.29032258 L21.3832258,14.2296774 C21.0735484,14.5393548 20.6554839,14.7096774 20.2219355,14.7096774 C19.7729032,14.7096774 19.3548387,14.523871 19.0606452,14.2296774 C18.7664516,13.9354839 18.5806452,13.5174194 18.5806452,13.0683871 L18.5806452,13.0141935 C18.5806452,12.6116129 18.7277419,12.2245161 18.9987097,11.9225806 L22.4516129,8.51612903 L26.3225806,8.51612903 Z" id="Path" fill="#F0D0B4"></path>
                                <path d="M35.6129032,5.41935484 L35.6129032,11.6129032 C35.6129032,12.4645161 34.916129,13.1612903 34.0645161,13.1612903 C33.2129032,13.1612903 32.516129,12.4645161 32.516129,11.6129032 L32.516129,5.41935484 C32.516129,4.56774194 33.2129032,3.87096774 34.0645161,3.87096774 C34.4903226,3.87096774 34.8774194,4.04129032 35.156129,4.32774194 C35.4425806,4.60645161 35.6129032,4.99354839 35.6129032,5.41935484 Z" id="Path" fill="#F0D0B4"></path>
                                <path d="M32.516129,5.41935484 L32.516129,11.6129032 C32.516129,12.4645161 31.8193548,13.1612903 30.9677419,13.1612903 C30.116129,13.1612903 29.4193548,12.4645161 29.4193548,11.6129032 L29.4193548,5.41935484 C29.4193548,4.56774194 30.116129,3.87096774 30.9677419,3.87096774 C31.3935484,3.87096774 31.7806452,4.04129032 32.0593548,4.32774194 C32.3458065,4.60645161 32.516129,4.99354839 32.516129,5.41935484 Z" id="Path" fill="#F0D0B4"></path>
                                <path d="M37.8116129,11.2877419 C37.3858065,11.5045161 36.9135484,11.6129032 36.4335484,11.6129032 L35.6129032,11.6129032 L35.6129032,5.41935484 C35.6129032,4.99354839 35.4425806,4.60645161 35.156129,4.32774194 C34.8774194,4.04129032 34.4903226,3.87096774 34.0645161,3.87096774 C33.2129032,3.87096774 32.516129,4.56774194 32.516129,5.41935484 C32.516129,4.99354839 32.3458065,4.60645161 32.0593548,4.32774194 C31.7806452,4.04129032 31.3935484,3.87096774 30.9677419,3.87096774 C30.116129,3.87096774 29.4193548,4.56774194 29.4193548,5.41935484 C29.4193548,4.99354839 29.2490323,4.60645161 28.9625806,4.32774194 C28.683871,4.04129032 28.2967742,3.87096774 27.8709677,3.87096774 C27.0193548,3.87096774 26.3225806,4.56774194 26.3225806,5.41935484 L17.8064516,5.41935484 C17.8064516,3.7083871 19.1922581,2.32258065 20.9032258,2.32258065 L24.3329032,2.32258065 C25.1225806,2.32258065 25.8890323,2.06709677 26.516129,1.59483871 C27.8864516,0.557419355 29.5587097,0 31.2774194,0 L31.323871,0 C32.1212903,0 32.9032258,0.116129032 33.6541935,0.340645161 C35.396129,0.867096774 38.6554839,1.84258065 39.8245161,2.19096774 C40.1187097,2.27612903 40.4129032,2.32258065 40.7148387,2.32258065 L43.3548387,2.32258065 L43.3548387,10.0645161 L40.9858065,10.0645161 C40.5058065,10.0645161 40.0335484,10.1729032 39.6077419,10.3896774 L37.8116129,11.2877419 Z" id="Path" fill="#F0D0B4"></path>
                                <path d="M29.4193548,5.41935484 L29.4193548,11.6129032 C29.4193548,12.4645161 28.7225806,13.1612903 27.8709677,13.1612903 C27.0193548,13.1612903 26.3225806,12.4645161 26.3225806,11.6129032 L26.3225806,9.29032258 L26.3225806,8.51612903 L26.3225806,5.41935484 C26.3225806,4.56774194 27.0193548,3.87096774 27.8709677,3.87096774 C28.2967742,3.87096774 28.683871,4.04129032 28.9625806,4.32774194 C29.2490323,4.60645161 29.4193548,4.99354839 29.4193548,5.41935484 Z" id="Path" fill="#F0D0B4"></path>
                                <path d="M17.8064516,5.41935484 L26.3225806,5.41935484 L26.3225806,8.51612903 L22.4516129,8.51612903 L15.8090323,8.51612903 C16.0954839,8.04387097 16.2580645,7.51741935 16.2580645,6.96774194 C16.2580645,6.41806452 16.0954839,5.8916129 15.8090323,5.41935484 L17.8064516,5.41935484 Z" id="Path" fill="#CCD1D9"></path>
                                <path d="M13.9354839,10.1419355 C13.0606452,10.5832258 11.9922581,10.8387097 10.8387097,10.8387097 C9.68516129,10.8387097 8.61677419,10.5832258 7.74193548,10.1419355 C6.33290323,9.44516129 5.41935484,8.28387097 5.41935484,6.96774194 C5.41935484,4.83096774 7.84258065,3.09677419 10.8387097,3.09677419 C13.0606452,3.09677419 14.9729032,4.05677419 15.8012903,5.41935484 L15.8090323,5.41935484 C16.0954839,5.8916129 16.2580645,6.41806452 16.2580645,6.96774194 C16.2580645,7.51741935 16.0954839,8.04387097 15.8090323,8.51612903 L15.8012903,8.51612903 C15.4064516,9.17419355 14.756129,9.73935484 13.9354839,10.1419355 Z" id="Path" fill="#E6E9ED"></path>
                            </g>
                            <g id="Group" fill="#000000">
                                <rect id="Rectangle" x="7.74193548" y="15.483871" width="1.5483871" height="3.09677419"></rect>
                                <rect id="Rectangle" x="13.9354839" y="15.483871" width="1.5483871" height="3.09677419"></rect>
                                <rect id="Rectangle" x="10.8387097" y="8.51612903" width="1.5483871" height="7.74193548"></rect>
                                <rect id="Rectangle" x="10.8387097" y="17.8064516" width="1.5483871" height="1.5483871"></rect>
                                <path d="M43.3548387,0 L43.3548387,2.32258065 L41.4867097,2.32258065 C41.259871,2.32258065 41.0376774,2.29006452 40.824,2.22580645 L34.6513548,0.37316129 C33.8260645,0.125419355 32.9674839,0 32.0539355,0 C30.1796129,0 28.3230968,0.620903226 26.8258065,1.74812903 C26.3349677,2.11896774 25.7249032,2.32258065 25.1094194,2.32258065 L21.6774194,2.32258065 C19.8085161,2.32258065 18.2446452,3.65496774 17.8846452,5.41935484 L16.9842581,5.41935484 C15.8934194,3.9963871 13.8418065,3.09677419 11.6129032,3.09677419 C8.19793548,3.09677419 5.41935484,5.18012903 5.41935484,7.74193548 C5.41935484,9.16954839 6.27870968,10.4996129 7.74193548,11.3744516 L7.74193548,13.9354839 L9.29032258,13.9354839 L9.29032258,10.4369032 L8.86141935,10.2232258 C7.67612903,9.63174194 6.96774194,8.70425806 6.96774194,7.74193548 C6.96774194,6.06348387 9.09522581,4.64516129 11.6129032,4.64516129 C13.5011613,4.64516129 15.192,5.4116129 15.9189677,6.59767742 L16.1450323,6.96774194 L26.3225806,6.96774194 L26.3225806,8.51612903 L16.1450323,8.51612903 L15.9189677,8.88619355 C15.5984516,9.40954839 15.0611613,9.87019355 14.3636129,10.2193548 L13.9354839,10.4338065 L13.9354839,13.9354839 L15.483871,13.9354839 L15.483871,11.3698065 C16.0916129,11.0067097 16.6002581,10.563871 16.9842581,10.0645161 L21.3375484,10.0645161 L19.1945806,12.1780645 C18.7989677,12.6209032 18.5806452,13.1930323 18.5806452,13.8418065 C18.5806452,15.1741935 19.6645161,16.2580645 20.9969032,16.2580645 C21.6332903,16.2580645 22.2557419,16.0002581 22.7055484,15.5504516 L26.3225806,11.9334194 L26.3225806,12.3870968 C26.3225806,13.6676129 27.3646452,14.7096774 28.6451613,14.7096774 C29.2420645,14.7096774 29.7816774,14.4766452 30.1935484,14.1058065 C30.6054194,14.4774194 31.1450323,14.7096774 31.7419355,14.7096774 C32.3388387,14.7096774 32.8784516,14.4766452 33.2903226,14.1058065 C33.7021935,14.4774194 34.2418065,14.7096774 34.8387097,14.7096774 C35.8467097,14.7096774 36.6983226,14.060129 37.0188387,13.1612903 L37.2046452,13.1612903 C37.8023226,13.1612903 38.4015484,13.0196129 38.9357419,12.7525161 L40.7249032,11.8583226 C41.0454194,11.6972903 41.4046452,11.6129032 41.7630968,11.6129032 L43.3548387,11.6129032 L43.3548387,13.9354839 L48,13.9354839 L48,0 L43.3548387,0 Z M21.6108387,14.4557419 C21.4490323,14.6167742 21.2252903,14.7096774 20.9969032,14.7096774 C20.5184516,14.7096774 20.1290323,14.3202581 20.1290323,13.7876129 C20.1290323,13.5739355 20.2072258,13.3687742 20.3156129,13.2456774 L23.5432258,10.0645161 L26.0020645,10.0645161 L21.6108387,14.4557419 Z M28.6451613,13.1612903 C28.2178065,13.1612903 27.8709677,12.8136774 27.8709677,12.3870968 L27.8709677,10.0645161 L27.8709677,6.19354839 C27.8709677,5.76696774 28.2178065,5.41935484 28.6451613,5.41935484 C29.0725161,5.41935484 29.4193548,5.76696774 29.4193548,6.19354839 L29.4193548,12.3870968 C29.4193548,12.8136774 29.0725161,13.1612903 28.6451613,13.1612903 Z M31.7419355,13.1612903 C31.3145806,13.1612903 30.9677419,12.8136774 30.9677419,12.3870968 L30.9677419,6.19354839 C30.9677419,5.76696774 31.3145806,5.41935484 31.7419355,5.41935484 C32.1692903,5.41935484 32.516129,5.76696774 32.516129,6.19354839 L32.516129,12.3870968 C32.516129,12.8136774 32.1692903,13.1612903 31.7419355,13.1612903 Z M35.6129032,12.3870968 C35.6129032,12.8136774 35.2660645,13.1612903 34.8387097,13.1612903 C34.4113548,13.1612903 34.0645161,12.8136774 34.0645161,12.3870968 L34.0645161,6.19354839 C34.0645161,5.76696774 34.4113548,5.41935484 34.8387097,5.41935484 C35.2660645,5.41935484 35.6129032,5.76696774 35.6129032,6.19354839 L35.6129032,12.3870968 Z M41.7630968,10.0645161 C41.1654194,10.0645161 40.5661935,10.2061935 40.032,10.4732903 L38.2428387,11.3674839 C37.9223226,11.5285161 37.5630968,11.6129032 37.2046452,11.6129032 L37.1612903,11.6129032 L37.1612903,6.19354839 C37.1612903,4.91303226 36.1192258,3.87096774 34.8387097,3.87096774 C34.2418065,3.87096774 33.7021935,4.104 33.2903226,4.47483871 C32.8784516,4.104 32.3388387,3.87096774 31.7419355,3.87096774 C31.1450323,3.87096774 30.6054194,4.104 30.1935484,4.47483871 C29.7816774,4.104 29.2420645,3.87096774 28.6451613,3.87096774 C27.6371613,3.87096774 26.7855484,4.52051613 26.4650323,5.41935484 L19.4972903,5.41935484 C19.8178065,4.52051613 20.6694194,3.87096774 21.6774194,3.87096774 L25.1094194,3.87096774 C26.0593548,3.87096774 26.9992258,3.55664516 27.7579355,2.98529032 C29.5463226,1.63896774 32.0268387,1.20232258 34.2054194,1.85651613 L40.3788387,3.70916129 C40.7365161,3.81677419 41.1096774,3.87096774 41.4867097,3.87096774 L43.3548387,3.87096774 L43.3548387,10.0645161 L41.7630968,10.0645161 Z M46.4516129,12.3870968 L44.9032258,12.3870968 L44.9032258,1.5483871 L46.4516129,1.5483871 L46.4516129,12.3870968 Z" id="Shape"></path>
                                <path d="M29.5207742,33.3089032 C28.556129,31.3811613 28.0018065,29.2474839 27.8934194,27.0944516 C28.7365161,27.0820645 29.4193548,26.3938065 29.4193548,25.5483871 L29.4193548,24 C29.4193548,23.1460645 28.7249032,22.4516129 27.8709677,22.4516129 L3.09677419,22.4516129 C2.24283871,22.4516129 1.5483871,23.1460645 1.5483871,24 L1.5483871,25.5483871 C1.5483871,26.3938065 2.23122581,27.0820645 3.07432258,27.0944516 C2.96593548,29.2482581 2.4116129,31.3819355 1.44696774,33.3089032 L1.00722581,34.1891613 C0.348387097,35.5076129 0,36.984 0,38.4572903 C0,43.7194839 4.28051613,48 9.54270968,48 L21.4250323,48 C26.6872258,48 30.9677419,43.7194839 30.9677419,38.4572903 C30.9677419,36.984 30.6193548,35.5076129 29.9605161,34.1891613 L29.5207742,33.3089032 Z M3.09677419,24 L27.8709677,24 L27.8725161,25.5483871 L3.09677419,25.5483871 L3.09677419,24 Z M8.86374194,38.0794839 L8.83045161,37.9796129 C9.91509677,38.0663226 10.9850323,38.2846452 12.0209032,38.6299355 L13.1612903,39.0123871 L13.1612903,37.9354839 C13.1612903,36.2957419 14.0345806,34.7535484 15.4405161,33.9096774 L15.6650323,33.7749677 C15.8763871,34.4996129 16.2673548,35.1692903 16.8054194,35.7065806 L16.9385806,35.8397419 C17.4905806,36.3917419 17.8064516,37.1550968 17.8064516,37.9354839 L17.8064516,39.0123871 L18.9452903,38.6299355 C19.9827097,38.2846452 21.0526452,38.0663226 22.1372903,37.9796129 L22.104,38.0794839 C21.8012903,38.9852903 21.8012903,39.9832258 22.104,40.8890323 C22.3347097,41.5811613 22.4516129,42.3027097 22.4516129,43.0327742 C22.4516129,43.916129 21.9809032,44.7476129 21.2229677,45.2020645 L19.1403871,46.4516129 L18.1269677,46.4516129 L18.4110968,46.1674839 C19.0196129,45.5589677 19.3548387,44.7507097 19.3548387,43.8898065 C19.3548387,42.8105806 18.8190968,41.8087742 17.9202581,41.2095484 C17.2258065,40.7465806 16.6606452,40.1070968 16.2882581,39.3607742 L15.483871,37.748129 L14.6802581,39.3607742 C14.3070968,40.107871 13.7419355,40.7473548 13.0467097,41.2103226 C12.1486452,41.8095484 11.6129032,42.8113548 11.6129032,43.8898065 C11.6129032,44.7499355 11.948129,45.5581935 12.5566452,46.1667097 L12.8407742,46.4516129 L11.8273548,46.4516129 L9.74477419,45.2020645 C8.98683871,44.7476129 8.51612903,43.916129 8.51612903,43.0327742 C8.51612903,42.3027097 8.63303226,41.5811613 8.86374194,40.8882581 C9.16645161,39.9832258 9.16645161,38.9845161 8.86374194,38.0794839 Z M13.6513548,45.0727742 C13.3354839,44.7569032 13.1612903,44.3372903 13.1612903,43.8898065 C13.1612903,43.3292903 13.4392258,42.8090323 13.9060645,42.4978065 C14.5153548,42.092129 15.0495484,41.5827097 15.483871,40.9974194 C15.9189677,41.5827097 16.4523871,42.0913548 17.0609032,42.4978065 C17.5285161,42.8098065 17.8064516,43.3300645 17.8064516,43.8898065 C17.8064516,44.3365161 17.6322581,44.756129 17.3163871,45.072 L15.9375484,46.4516129 L15.0301935,46.4516129 L13.6513548,45.0727742 Z M22.1876129,46.4129032 C23.3070968,45.6611613 24,44.3883871 24,43.0327742 C24,42.1354839 23.856,41.2490323 23.571871,40.3989677 C23.3752258,39.8090323 23.3752258,39.1587097 23.571871,38.5695484 L24.3003871,36.3870968 L23.2258065,36.3870968 C21.8748387,36.3870968 20.5370323,36.5667097 19.2387097,36.9228387 C19.0482581,36.1045161 18.6317419,35.3427097 18.0332903,34.7450323 L17.900129,34.611871 C17.348129,34.059871 17.0322581,33.2965161 17.0322581,32.516129 L17.0322581,31.148129 L14.643871,32.5819355 C13.0699355,33.5264516 11.9976774,35.1298065 11.6980645,36.9150968 C10.4090323,36.5643871 9.08206452,36.3870968 7.74193548,36.3870968 L6.66735484,36.3870968 L7.39509677,38.5687742 C7.59174194,39.1587097 7.59174194,39.8090323 7.39509677,40.3981935 C7.11174194,41.2490323 6.96774194,42.1354839 6.96774194,43.0327742 C6.96774194,44.3883871 7.66064516,45.6611613 8.78012903,46.4129032 C4.728,46.0273548 1.5483871,42.6085161 1.5483871,38.4572903 C1.5483871,37.2224516 1.84025806,35.9868387 2.39225806,34.8820645 L2.832,34.0018065 C3.43664516,32.7932903 3.89341935,31.5112258 4.19845161,30.1935484 L21.6774194,30.1935484 L21.6774194,28.6451613 L4.47948387,28.6451613 C4.54993548,28.1310968 4.59870968,27.6147097 4.62270968,27.0967742 L26.3458065,27.0967742 C26.3698065,27.6147097 26.4185806,28.1310968 26.4890323,28.6451613 L23.2258065,28.6451613 L23.2258065,30.1935484 L26.7692903,30.1935484 C27.0743226,31.5112258 27.5310968,32.7932903 28.1357419,34.0018065 L28.5754839,34.8820645 C29.1274839,35.9868387 29.4193548,37.2224516 29.4193548,38.4572903 C29.4193548,42.6085161 26.2397419,46.0273548 22.1876129,46.4129032 Z" id="Shape"></path>
                                <path d="M47.5463226,40.5236129 C46.820129,38.7073548 46.4516129,36.7950968 46.4516129,34.8387097 L46.4516129,31.7419355 C46.4516129,30.7416774 45.9150968,29.8312258 45.072,29.3341935 C44.904,28.0869677 43.9138065,27.096 42.6665806,26.9287742 C42.1687742,26.0849032 41.2583226,25.5483871 40.2580645,25.5483871 C39.2578065,25.5483871 38.3473548,26.0849032 37.8503226,26.928 C36.6030968,27.096 35.612129,28.0861935 35.4449032,29.3334194 C34.6010323,29.8312258 34.0645161,30.7416774 34.0645161,31.7419355 L34.0645161,34.8387097 C34.0645161,36.7950968 33.696,38.7073548 32.9705806,40.5228387 L32.8962581,40.7063226 C32.643871,41.3380645 32.516129,42.0023226 32.516129,42.6820645 C32.516129,45.6147097 34.9014194,48 37.8340645,48 L42.6820645,48 C45.6147097,48 48,45.6147097 48,42.6820645 C48,42.0023226 47.8722581,41.3380645 47.6190968,40.7055484 L47.5463226,40.5236129 Z M42.9336774,41.1468387 C43.2092903,41.6980645 43.3548387,42.3150968 43.3548387,42.9305806 C43.3548387,43.995871 42.939871,44.9976774 42.1865806,45.7509677 L41.4859355,46.4516129 L39.0301935,46.4516129 L38.3295484,45.7509677 C37.5762581,44.9976774 37.1612903,43.995871 37.1612903,42.9305806 C37.1612903,42.3150968 37.3068387,41.6980645 37.5824516,41.1468387 L38.7096774,38.8923871 L38.7096774,35.6129032 L41.8064516,35.6129032 L41.8064516,38.8923871 L42.9336774,41.1468387 Z M35.6129032,34.0645161 L35.6129032,32.516129 L44.9032258,32.516129 L44.9032258,34.0645161 L35.6129032,34.0645161 Z M36.459871,30.5620645 L37.0110968,30.3708387 L36.9785806,29.787871 C36.9770323,29.7483871 36.9723871,29.7096774 36.9677419,29.7096774 C36.9677419,29.016 37.532129,28.4516129 38.1870968,28.4508387 L38.8861935,28.4949677 L39.0774194,27.9437419 C39.2539355,27.4366452 39.7277419,27.0967742 40.2580645,27.0967742 C40.7883871,27.0967742 41.2621935,27.4366452 41.4379355,27.9437419 L41.6291613,28.4949677 L42.212129,28.4624516 C42.2516129,28.4609032 42.2903226,28.4562581 42.2903226,28.4516129 C42.984,28.4516129 43.5483871,29.016 43.5491613,29.6709677 L43.5050323,30.3700645 L44.0562581,30.5612903 C44.2854194,30.6410323 44.4743226,30.788129 44.6190968,30.9669677 L35.8970323,30.9669677 C36.0418065,30.788129 36.2299355,30.6418065 36.459871,30.5620645 Z M34.0645161,42.6820645 C34.0645161,42.1997419 34.1550968,41.7290323 34.3339355,41.2815484 L34.4082581,41.0980645 C35.112,39.339871 35.4913548,37.4965161 35.5765161,35.6129032 L37.1612903,35.6129032 L37.1612903,38.5269677 L36.1974194,40.4547097 C35.8149677,41.2203871 35.6129032,42.0766452 35.6129032,42.9305806 C35.6129032,44.1538065 36.0123871,45.3135484 36.7409032,46.2704516 C35.1971613,45.7981935 34.0645161,44.3775484 34.0645161,42.6820645 Z M43.7752258,46.2704516 C44.5037419,45.3135484 44.9032258,44.1538065 44.9032258,42.9305806 C44.9032258,42.075871 44.7011613,41.2203871 44.3187097,40.4547097 L43.3548387,38.5269677 L43.3548387,35.6129032 L44.9396129,35.6129032 C45.0255484,37.4965161 45.4049032,39.339871 46.1086452,41.0988387 L46.1814194,41.2807742 C46.3610323,41.7282581 46.4516129,42.1997419 46.4516129,42.6820645 C46.4516129,44.3775484 45.3189677,45.7981935 43.7752258,46.2704516 Z" id="Shape"></path>
                            </g>
                        </g>
                    </g>
                </g>
            </g>
        </g>
    </g>
</svg>