<svg width="42" height="43" viewBox="0 0 42 43" fill="none" xmlns="http://www.w3.org/2000/svg">
<g id="Group 299">
<g id="Group 7">
<path id="Fill 4" fill-rule="evenodd" clip-rule="evenodd" d="M27.1306 41.149H4.21655V6.70801H35.7311V32.5485C35.7311 37.2985 31.8805 41.149 27.1306 41.149Z" fill="#D4B1EF"/>
<path id="Fill 6" fill-rule="evenodd" clip-rule="evenodd" d="M5.06734 40.2983H27.1305C31.4036 40.2983 34.88 36.8218 34.88 32.5487V7.5591H5.06734V40.2983ZM27.1307 42H4.21663C3.74659 42 3.36572 41.6191 3.36572 41.1491V6.70812C3.36572 6.23807 3.74659 5.85721 4.21663 5.85721H35.7311C36.201 5.85721 36.582 6.23807 36.582 6.70812V32.5486C36.582 37.7601 32.3421 42 27.1307 42Z" fill="#A179C5"/>
<path id="Fill 8" fill-rule="evenodd" clip-rule="evenodd" d="M26.0756 37.941H1.16602V3.5H32.6805V31.3361C32.6805 34.9839 29.7235 37.941 26.0756 37.941Z" fill="#FFEBDE"/>
<g id="Group 281">
<g id="Group 24">
<path id="Fill 9" fill-rule="evenodd" clip-rule="evenodd" d="M16.7203 11.2548C12.0872 11.2548 8.3313 15.0427 8.3313 19.7152V23.4091H11.4948C10.7664 22.363 10.3366 21.0899 10.3366 19.7146C10.3366 19.3055 10.3751 18.9058 10.4476 18.518C10.7164 18.5593 10.9914 18.5817 11.2716 18.5817C14.2249 18.5817 16.6319 16.2265 16.7494 13.277C16.7533 13.277 16.757 13.2772 16.7607 13.2772C16.8784 16.2267 19.2854 18.5817 22.2387 18.5817C22.4955 18.5817 22.7481 18.5633 22.9953 18.5284C23.0664 18.9129 23.104 19.3092 23.104 19.7146C23.104 21.0899 22.6743 22.363 21.9459 23.4091H25.1094V19.7152C25.1094 15.0427 21.3534 11.2548 16.7203 11.2548Z" fill="#D4B1EF"/>
<g id="Group 13">
<mask id="mask0_404_2204" style="mask-type:luminance" maskUnits="userSpaceOnUse" x="7" y="10" width="19" height="15">
<path id="Clip 12" fill-rule="evenodd" clip-rule="evenodd" d="M7.58301 10.5H25.8579V24.1639H7.58301V10.5Z" fill="white"/>
</mask>
<g mask="url(#mask0_404_2204)">
<path id="Fill 11" fill-rule="evenodd" clip-rule="evenodd" d="M23.2304 22.6543H24.3614V19.7152C24.3614 15.4664 20.9337 12.0096 16.7208 12.0096C12.5077 12.0096 9.08019 15.4664 9.08019 19.7152V22.6543H10.2111C9.80138 21.7356 9.58853 20.7388 9.58853 19.7146C9.58853 19.2685 9.63029 18.819 9.71232 18.3785C9.78701 17.9787 10.1626 17.7103 10.5607 17.7719C10.7983 17.8084 11.0376 17.8269 11.2719 17.8269C13.822 17.8269 15.8996 15.815 16.002 13.2467C16.0182 12.8414 16.349 12.5222 16.7495 12.5222C16.7545 12.5222 16.7594 12.5222 16.7642 12.5224C17.1601 12.5301 17.493 12.8478 17.5089 13.2468C17.6114 15.8151 19.6892 17.8269 22.2391 17.8269C22.4557 17.8269 22.6755 17.8115 22.8921 17.781C23.2881 17.7251 23.658 17.9934 23.7315 18.3901C23.8122 18.8262 23.8529 19.2719 23.8529 19.7146C23.8529 20.7388 23.64 21.7356 23.2304 22.6543ZM25.1095 24.1639H21.946C21.6667 24.1639 21.4107 24.0071 21.2819 23.7572C21.1531 23.5072 21.173 23.2058 21.3335 22.9752C22.0023 22.015 22.3557 20.8875 22.3557 19.7146C22.3557 19.5884 22.3515 19.4619 22.3431 19.3357C22.3084 19.3363 22.2735 19.3365 22.2388 19.3365C19.869 19.3365 17.8087 18.0159 16.7552 16.0496C15.676 18.0639 13.5387 19.4064 11.0978 19.3341C11.0894 19.461 11.0851 19.588 11.0851 19.7146C11.0851 20.8875 11.4386 22.015 12.1073 22.9752C12.2679 23.2058 12.2877 23.5072 12.1589 23.7572C12.0302 24.0071 11.7742 24.1639 11.4949 24.1639H8.33144C7.91801 24.1639 7.58301 23.8259 7.58301 23.4091V19.7152C7.58301 14.634 11.682 10.4999 16.7205 10.4999C21.7589 10.4999 25.8579 14.634 25.8579 19.7152V23.4091C25.8579 23.8259 25.5228 24.1639 25.1095 24.1639Z" fill="#A179C5"/>
</g>
</g>
<path id="Fill 14" fill-rule="evenodd" clip-rule="evenodd" d="M23.1047 19.6886C23.1031 19.2923 23.0661 18.9045 22.9965 18.5283C22.7492 18.5632 22.4967 18.5816 22.24 18.5816C19.2865 18.5816 16.8795 16.2266 16.7619 13.2771C16.7583 13.2771 16.7544 13.2768 16.7507 13.2768C16.6331 16.2265 14.2262 18.5816 11.2727 18.5816C10.9924 18.5816 10.7175 18.5593 10.4487 18.5179C10.3779 18.8974 10.34 19.2887 10.3384 19.6886C10.3643 23.222 13.2119 26.0784 16.7215 26.0784C20.2312 26.0784 23.0788 23.222 23.1047 19.6886Z" fill="#FFEBDE"/>
<path id="Fill 16" fill-rule="evenodd" clip-rule="evenodd" d="M11.099 19.334C11.091 19.4531 11.0868 19.5726 11.0864 19.692C11.1091 22.7935 13.6369 25.3237 16.7212 25.3237C19.8038 25.3237 22.3305 22.7956 22.3558 19.6874C22.3552 19.57 22.3512 19.4527 22.3436 19.3357C19.9323 19.3774 17.8248 18.0447 16.7559 16.0496C15.7023 18.016 13.6423 19.3366 11.2723 19.3366C11.2147 19.3366 11.1569 19.3357 11.099 19.334ZM16.7213 26.8333C12.8176 26.8333 9.61834 23.6308 9.5896 19.6943C9.5914 19.2467 9.63286 18.8068 9.71294 18.3782C9.78734 17.9786 10.163 17.7104 10.5612 17.7718C10.7988 17.8083 11.0381 17.8269 11.2724 17.8269C13.8224 17.8269 15.9001 15.8149 16.0025 13.2466C16.0185 12.8419 16.3485 12.5221 16.7503 12.5221C16.7561 12.5221 16.7657 12.5223 16.7731 12.5224C17.1696 12.5285 17.4933 12.8459 17.5094 13.2467C17.6119 15.815 19.6897 17.8269 22.2396 17.8269C22.4562 17.8269 22.6759 17.8114 22.8925 17.7809C23.2886 17.725 23.6585 17.9933 23.732 18.39C23.8104 18.8141 23.851 19.2499 23.8528 19.6856V19.6943C23.824 23.6306 20.6248 26.8333 16.7213 26.8333Z" fill="#A179C5"/>
<path id="Fill 18" fill-rule="evenodd" clip-rule="evenodd" d="M16.7212 24.4118C15.5208 24.4118 14.5444 23.4271 14.5444 22.2165H16.0413C16.0413 22.5947 16.3462 22.9022 16.7212 22.9022C17.096 22.9022 17.4009 22.5947 17.4009 22.2165H18.8978C18.8978 23.4271 17.9214 24.4118 16.7212 24.4118Z" fill="#A179C5"/>
</g>
</g>
<path id="Fill 10" fill-rule="evenodd" clip-rule="evenodd" d="M1.70167 36.8502H25.7604C28.9332 36.8502 31.5144 34.2691 31.5144 31.0962V4.11104H1.70167V36.8502ZM25.7605 38.552H0.850906C0.380866 38.552 0 38.1711 0 37.7011V3.26012C0 2.79008 0.380866 2.40921 0.850906 2.40921H32.3654C32.8353 2.40921 33.2163 2.79008 33.2163 3.26012V31.0962C33.2163 35.2074 29.8716 38.552 25.7605 38.552Z" fill="#A179C5"/>
<path id="Fill 26" fill-rule="evenodd" clip-rule="evenodd" d="M7.22974 5.76794H25.9875V0.850891H7.22974V5.76794Z" fill="white"/>
<path id="Fill 27" fill-rule="evenodd" clip-rule="evenodd" d="M8.0796 4.91702H25.1355V1.70161H8.0796V4.91702ZM25.9866 6.61887H7.22884C6.7588 6.61887 6.37793 6.238 6.37793 5.76796V0.850907C6.37793 0.380866 6.7588 0 7.22884 0H25.9866C26.4564 0 26.8375 0.380866 26.8375 0.850907V5.76796C26.8375 6.238 26.4564 6.61887 25.9866 6.61887Z" fill="#A179C5"/>
</g>
<g id="Group 298">
<path id="Vector" d="M32.4746 41.517C37.1172 41.517 40.8808 37.7534 40.8808 33.1108C40.8808 28.4682 37.1172 24.7046 32.4746 24.7046C27.832 24.7046 24.0684 28.4682 24.0684 33.1108C24.0684 37.7534 27.832 41.517 32.4746 41.517Z" fill="white" stroke="#A179C5" stroke-width="1.5"/>
<path id="Vector_2" d="M30.7922 34.0343L28.4115 31.6535L26.7271 33.3379L29.95 36.5609C30.4143 37.0252 31.1672 37.0252 31.6344 36.5609L37.2382 30.9571L35.5538 29.2727L30.7922 34.0343Z" fill="#A179C5"/>
</g>
</g>
</svg>
