<svg width="54" height="51" viewBox="0 0 54 51" fill="none" xmlns="http://www.w3.org/2000/svg">
<g id="icon">
<g id="Group 3">
<path id="Fill 1" fill-rule="evenodd" clip-rule="evenodd" d="M0 0L0 51H54V20.9116C54 9.36246 47.2641 0 38.955 0H0Z" fill="#FFE6D5"/>
</g>
<g id="Group 7">
<path id="Fill 4" fill-rule="evenodd" clip-rule="evenodd" d="M34.2493 42.2909H15.458V13.5901H41.3024V35.1239C41.3024 39.0821 38.1446 42.2909 34.2493 42.2909Z" fill="#FFEBDE"/>
<path id="Fill 6" fill-rule="evenodd" clip-rule="evenodd" d="M16.1555 41.582H34.249C37.7532 41.582 40.6042 38.6849 40.6042 35.124V14.2993H16.1555V41.582ZM34.2494 43.0001H15.4581C15.0726 43.0001 14.7603 42.6827 14.7603 42.291V13.5902C14.7603 13.1985 15.0726 12.8811 15.4581 12.8811H41.3024C41.6877 12.8811 42.0002 13.1985 42.0002 13.5902V35.124C42.0002 39.4669 38.5232 43.0001 34.2494 43.0001Z" fill="#A179C5"/>
<path id="Fill 8" fill-rule="evenodd" clip-rule="evenodd" d="M33.1256 39.4176H12.6978V10.7168H38.5421V33.9135C38.5421 36.9534 36.1171 39.4176 33.1256 39.4176Z" fill="#D4B1EF"/>
<path id="Fill 10" fill-rule="evenodd" clip-rule="evenodd" d="M13.3954 38.7084H33.1254C35.7274 38.7084 37.8441 36.5575 37.8441 33.9134V11.4258H13.3954V38.7084ZM33.1256 40.1266H12.6978C12.3123 40.1266 12 39.8092 12 39.4175V10.7167C12 10.325 12.3123 10.0076 12.6978 10.0076H38.5422C38.9275 10.0076 39.24 10.325 39.24 10.7167V33.9134C39.24 37.3394 36.497 40.1266 33.1256 40.1266Z" fill="#A179C5"/>
<path id="Fill 14" fill-rule="evenodd" clip-rule="evenodd" d="M24.2046 19.2002H33.3111V17.782H24.2046V19.2002Z" fill="white"/>
<path id="Fill 17" fill-rule="evenodd" clip-rule="evenodd" d="M24.2046 21.8108H33.3111V20.3926H24.2046V21.8108Z" fill="white"/>
<path id="Fill 18" fill-rule="evenodd" clip-rule="evenodd" d="M17.9287 21.5808H21.4408V18.012H17.9287V21.5808Z" fill="#F8CAC3"/>
<path id="Fill 19" fill-rule="evenodd" clip-rule="evenodd" d="M18.6263 20.8716H20.7427V18.7209H18.6263V20.8716ZM21.4408 22.2898H17.9288C17.5433 22.2898 17.231 21.9724 17.231 21.5807V18.0118C17.231 17.6203 17.5433 17.3027 17.9288 17.3027H21.4408C21.8263 17.3027 22.1387 17.6203 22.1387 18.0118V21.5807C22.1387 21.9724 21.8263 22.2898 21.4408 22.2898Z" fill="#A179C5"/>
<path id="Fill 21" fill-rule="evenodd" clip-rule="evenodd" d="M24.2046 26.6352H33.3111V25.217H24.2046V26.6352Z" fill="white"/>
<path id="Fill 23" fill-rule="evenodd" clip-rule="evenodd" d="M24.2046 29.2458H33.3111V27.8276H24.2046V29.2458Z" fill="white"/>
<path id="Fill 24" fill-rule="evenodd" clip-rule="evenodd" d="M17.9287 29.0159H21.4408V25.447H17.9287V29.0159Z" fill="#F8CAC3"/>
<path id="Fill 25" fill-rule="evenodd" clip-rule="evenodd" d="M18.6263 28.3067H20.7427V26.156H18.6263V28.3067ZM21.4408 29.7248H17.9288C17.5433 29.7248 17.231 29.4074 17.231 29.0157V25.4469C17.231 25.0552 17.5433 24.7378 17.9288 24.7378H21.4408C21.8263 24.7378 22.1387 25.0552 22.1387 25.4469V29.0157C22.1387 29.4074 21.8263 29.7248 21.4408 29.7248Z" fill="#A179C5"/>
<path id="Fill 26" fill-rule="evenodd" clip-rule="evenodd" d="M17.9287 12.8065H33.3115V8.70898H17.9287V12.8065Z" fill="white"/>
<path id="Fill 27" fill-rule="evenodd" clip-rule="evenodd" d="M18.6263 12.0975H32.6135V9.41797H18.6263V12.0975ZM33.3116 13.5157H17.9288C17.5433 13.5157 17.231 13.1983 17.231 12.8066V8.70909C17.231 8.31739 17.5433 8 17.9288 8H33.3116C33.6969 8 34.0094 8.31739 34.0094 8.70909V12.8066C34.0094 13.1983 33.6969 13.5157 33.3116 13.5157Z" fill="#A179C5"/>
</g>
</g>
</svg>
