<?xml version="1.0" encoding="UTF-8"?>
<svg width="48px" height="52px" viewBox="0 0 48 52" version="1.1" xmlns="http://www.w3.org/2000/svg" xmlns:xlink="http://www.w3.org/1999/xlink">
    <title>Group 30</title>
    <defs>
        <polygon id="path-1" points="0 51.9844219 47.6157637 51.9844219 47.6157637 0 0 0"></polygon>
    </defs>
    <g id="Page-1" stroke="none" stroke-width="1" fill="none" fill-rule="evenodd">
        <g id="LL21---nutrition" transform="translate(-27.000000, -85.000000)">
            <g id="Group-9" transform="translate(16.000000, 68.250978)">
                <g id="Group-28" transform="translate(-26.000000, -11.998966)">
                    <g id="Group-30" transform="translate(37.000000, 28.747987)">
                        <path d="M20.6591173,29.4513519 L12.0663916,26.6383055 C5.38976709,24.4525502 1.74910886,17.2682127 3.93486414,10.5915882 L6.74769114,1.99886245 C6.91071224,1.50080338 7.44672911,1.22939409 7.94456878,1.39241519 L16.5372945,4.20524219 C23.2141384,6.39099747 26.8545772,13.575335 24.6690414,20.2521789 L21.8559949,28.8449046 C21.6929738,29.3427443 21.1571764,29.614373 20.6591173,29.4513519" id="Fill-1" fill="#FFFFFF"></path>
                        <path d="M7.74402869,2.48105823 L4.97749705,10.9329232 C4.01143797,13.8837586 4.25234937,17.0338177 5.65569114,19.8032017 C7.05903291,22.5725857 9.45695696,24.6297671 12.407573,25.5958262 L20.859438,28.3625772 L23.6264084,19.9107122 C24.5922481,16.9600962 24.3513367,13.8100371 22.9479949,11.0404338 C21.5444338,8.27104979 19.1467291,6.21386835 16.1958937,5.24780928 L7.74402869,2.48105823 Z M20.9566363,30.5966025 C20.7422734,30.5966025 20.5272523,30.5623747 20.3179359,30.493919 L11.7249907,27.681092 C8.21729451,26.5327038 5.36694852,24.0871679 3.69877975,20.7949316 C2.03039156,17.5026954 1.74384304,13.7578177 2.89223122,10.2503409 L5.70505823,1.65739578 C5.87510042,1.13805401 6.23734515,0.715910549 6.72465316,0.469075105 C7.21196118,0.221800844 7.76684726,0.179674262 8.28596962,0.349716456 L16.8786954,3.16254346 C20.3863916,4.31093165 23.2367376,6.75646751 24.9051257,10.0487038 C26.5732945,13.3409401 26.859843,17.0855983 25.7116743,20.5935139 L22.8984084,29.1862397 C22.7288051,29.705362 22.3667797,30.1275055 21.8790329,30.3745603 C21.5883156,30.5220034 21.2734633,30.5966025 20.9566363,30.5966025 L20.9566363,30.5966025 Z" id="Fill-3" fill="#A179C5"></path>
                        <line x1="7.04292827" y1="1.09717806" x2="21.5608017" y2="29.7465451" id="Fill-5" fill="#E9D9FF"></line>
                        <polygon id="Fill-7" fill="#A179C5" points="20.5822582 30.2423224 6.06438481 1.59295527 8.02151561 0.601225316 22.539389 29.2505924"></polygon>
                        <line x1="6.77733333" y1="15.4218616" x2="15.5824473" y2="17.9490177" id="Fill-9" fill="#E9D9FF"></line>
                        <polygon id="Fill-11" fill="#A179C5" points="15.2800135 19.003389 6.47468017 16.4762329 7.07981097 14.3674903 15.8851443 16.8946464"></polygon>
                        <line x1="18.598908" y1="9.52262616" x2="15.2461148" y2="18.0475544" id="Fill-13" fill="#E9D9FF"></line>
                        <polygon id="Fill-15" fill="#A179C5" points="16.2669165 18.4490954 14.2248743 17.6460574 17.5781063 9.12112911 19.6199291 9.92416709"></polygon>
                        <path d="M42.7339949,22.3777063 C42.7339949,28.6670734 37.635362,33.7657063 31.3459949,33.7657063 C25.0566278,33.7657063 19.9579949,28.6670734 19.9579949,22.3777063 C19.9579949,16.0883392 25.0566278,10.9897063 31.3459949,10.9897063 C37.635362,10.9897063 42.7339949,16.0883392 42.7339949,22.3777063" id="Fill-17" fill="#F8CAC3"></path>
                        <path d="M31.3459511,12.0868624 C25.6715882,12.0868624 21.0552169,16.7032338 21.0552169,22.3775966 C21.0552169,28.0521789 25.6715882,32.6687696 31.3459511,32.6687696 C37.0203139,32.6687696 41.6369046,28.0521789 41.6369046,22.3775966 C41.6369046,16.7032338 37.0203139,12.0868624 31.3459511,12.0868624 M31.3459511,34.8628624 C24.4617654,34.8628624 18.8611241,29.2620017 18.8611241,22.3775966 C18.8611241,15.493411 24.4617654,9.89276962 31.3459511,9.89276962 C38.2303561,9.89276962 43.8309975,15.493411 43.8309975,22.3775966 C43.8309975,29.2620017 38.2303561,34.8628624 31.3459511,34.8628624" id="Fill-19" fill="#A179C5"></path>
                        <path d="M34.2763156,10.9897502 L31.3461046,10.9897502 L31.3461046,10.9897502 C31.3461046,5.52623966 35.7751004,1.09724388 41.238611,1.09724388 L44.1688219,1.09724388 L44.1688219,1.09724388 C44.1688219,6.56075443 39.7398262,10.9897502 34.2763156,10.9897502" id="Fill-21" fill="#FFFFFF"></path>
                        <path d="M32.511146,9.89276962 L34.2762937,9.89276962 C38.7546565,9.89276962 42.4622346,6.52812827 43.0037367,2.19413671 L41.238589,2.19413671 C36.7602262,2.19413671 33.0528675,5.55877806 32.511146,9.89276962 M34.2762937,12.0868624 L31.3458633,12.0868624 C30.7400743,12.0868624 30.2488169,11.5958245 30.2488169,10.989816 C30.2488169,4.93017046 35.1789435,4.38818565e-05 41.238589,4.38818565e-05 L44.1690194,4.38818565e-05 C44.7750278,4.38818565e-05 45.2660658,0.491081857 45.2660658,1.0970903 C45.2660658,7.15673586 40.3359392,12.0868624 34.2762937,12.0868624" id="Fill-23" fill="#A179C5"></path>
                        <mask id="mask-2" fill="white">
                            <use xlink:href="#path-1"></use>
                        </mask>
                        <g id="Clip-26"></g>
                        <polygon id="Fill-25" fill="#FFEBDE" mask="url(#mask-2)" points="14.2247426 50.8873755 33.3910211 50.8873755 33.3910211 44.2155781 14.2247426 44.2155781"></polygon>
                        <path d="M15.321789,49.7903291 L32.2939747,49.7903291 L32.2939747,45.3126245 L15.321789,45.3126245 L15.321789,49.7903291 Z M33.3910211,51.9844219 L14.2247426,51.9844219 C13.6187342,51.9844219 13.1276962,51.493384 13.1276962,50.8873755 L13.1276962,44.2155781 C13.1276962,43.6095696 13.6187342,43.1185316 14.2247426,43.1185316 L33.3910211,43.1185316 C33.9968101,43.1185316 34.4880675,43.6095696 34.4880675,44.2155781 L34.4880675,50.8873755 C34.4880675,51.493384 33.9968101,51.9844219 33.3910211,51.9844219 L33.3910211,51.9844219 Z" id="Fill-27" fill="#A179C5" mask="url(#mask-2)"></path>
                        <path d="M46.5185418,24.2770447 L1.0970903,24.2770447 L1.0970903,25.9496017 C1.0970903,37.6906312 10.615065,47.2086059 22.3560945,47.2086059 L25.2595376,47.2086059 C37.0005671,47.2086059 46.5185418,37.6906312 46.5185418,25.9496017 L46.5185418,24.2770447 Z" id="Fill-28" fill="#D4B1EF" mask="url(#mask-2)"></path>
                        <path d="M2.19409283,25.3741789 L2.19409283,25.94947 C2.19409283,37.0669384 11.2388017,46.1116473 22.35627,46.1116473 L25.2594937,46.1116473 C36.376962,46.1116473 45.4216709,37.0669384 45.4216709,25.94947 L45.4216709,25.3741789 L2.19409283,25.3741789 Z M25.2594937,48.3057401 L22.35627,48.3057401 C10.0289789,48.3057401 0,38.2767612 0,25.94947 L0,24.2771325 C0,23.6711241 0.491037975,23.1800861 1.09704641,23.1800861 L46.5187173,23.1800861 C47.1245063,23.1800861 47.6157637,23.6711241 47.6157637,24.2771325 L47.6157637,25.94947 C47.6157637,38.2767612 37.5867848,48.3057401 25.2594937,48.3057401 L25.2594937,48.3057401 Z" id="Fill-29" fill="#A179C5" mask="url(#mask-2)"></path>
                    </g>
                </g>
            </g>
        </g>
    </g>
</svg>