<svg width="23" height="20" viewBox="0 0 23 20" fill="none" xmlns="http://www.w3.org/2000/svg">
<g id="Group 3905">
<path id="Vector" d="M8.729 16.4675H17.7322V7.45972H8.729V16.4675ZM9.86053 8.5961H16.5958V15.3311H9.86053V8.5961Z" fill="#A775C8"/>
<path id="Vector_2" d="M8.02835 11.398H5.92695V4.663H12.6622V6.91617H13.7986V3.52661H4.79053V12.5295H8.02835V11.398Z" fill="#A775C8"/>
<path id="Vector_3" d="M21.102 8.22899C20.3673 4.1145 17.1785 0.90127 13.0197 0.156743C12.4368 0.0538803 11.849 0 11.2612 0V1.13149C11.7805 1.13149 12.3046 1.17557 12.8189 1.26864C16.4388 1.9152 19.2309 4.67289 19.9509 8.22409H18.5647L20.5436 11.6528L22.5226 8.22409L21.102 8.22899Z" fill="#A775C8"/>
<path id="Vector_4" d="M2.57164 11.7661H3.95788L1.97894 8.34229L0 11.771H1.42053C2.15528 15.8855 5.34901 19.1037 9.50283 19.8433C10.0857 19.9412 10.6735 20 11.2613 20V18.8636C10.747 18.8636 10.218 18.8147 9.70366 18.7216C6.08377 18.075 3.2917 15.3222 2.57164 11.7661Z" fill="#A775C8"/>
</g>
</svg>
