<?xml version="1.0" encoding="UTF-8"?>
<svg width="50px" height="50px" viewBox="0 0 50 50" version="1.1" xmlns="http://www.w3.org/2000/svg" xmlns:xlink="http://www.w3.org/1999/xlink">
    <title>Group 5</title>
    <g id="Page-1" stroke="none" stroke-width="1" fill="none" fill-rule="evenodd">
        <g id="LL21---nutrition" transform="translate(-155.000000, -586.000000)">
            <g id="Group-7" transform="translate(16.000000, 200.000000)">
                <g id="Group-6-Copy-10" transform="translate(113.000000, 378.000000)">
                    <g id="Group-5" transform="translate(26.000000, 8.000000)">
                        <rect id="Rectangle" x="0" y="0" width="50" height="50"></rect>
                        <g id="suplements" transform="translate(1.000000, 1.000000)" fill-rule="nonzero">
                            <g id="Group" transform="translate(0.654971, 0.654971)">
                                <path d="M7.83859649,29.0954854 C6.76846784,28.0253567 4.53015205,28.4956257 2.63036257,30.1116257 C1.01436257,32.0114152 0.0763508772,34.7175673 1.14638596,35.7876959 C2.21642105,36.8578246 4.92266667,35.9197193 6.82245614,34.3037193 C8.43845614,32.4038363 8.90863158,30.1655205 7.83859649,29.0954854 Z" id="Path" fill="#FFE07D"></path>
                                <path d="M1.61422222,35.3198596 C0.544093567,34.249731 1.01436257,32.0114152 2.63036257,30.1116257 C2.45492398,30.2608655 2.28219883,30.4189942 2.11377778,30.5874152 C0.120888889,32.5803041 -0.547087719,35.1433918 0.621847953,36.3122339 C1.79078363,37.4811696 4.35387135,36.813193 6.34666667,34.8203041 C6.51508772,34.651883 6.67321637,34.4790643 6.82245614,34.3037193 C4.92266667,35.9197193 2.68435088,36.3898947 1.61422222,35.3198596 L1.61422222,35.3198596 Z" id="Path" fill="#FFC250"></path>
                                <path d="M35.1594854,14.7924211 C35.1594854,12.7754854 34.1168655,11.6850526 33.2870175,10.9072281 C32.7738947,10.4262924 32.0017778,9.78619883 31.4867836,9.03588304 L9.3328655,9.03588304 C9.02381287,9.48622222 8.62231579,9.89688889 8.2394386,10.2572164 C7.53272515,10.9072281 6.59592982,12.7043743 6.59592982,13.856655 L6.31522807,40.5906901 L9.05216374,43.2669942 L34.4499649,42.3390877 C34.8978713,41.6699883 35.1594854,40.3977544 35.1594854,39.5320702 L34.0092632,27.1621988 L35.1594854,14.7924211 Z" id="Path" fill="#FFF6CF"></path>
                                <path d="M30.9489591,7.53216374 C30.9489591,6.12865497 9.87078363,6.12865497 9.87078363,7.53216374 C9.87078363,8.06783626 9.65071345,8.57281871 9.3328655,9.03597661 L31.4867836,9.03597661 C31.1689357,8.57281871 30.9489591,8.06783626 30.9489591,7.53216374 Z" id="Path" fill="#FFF0AF"></path>
                                <path d="M9.87078363,42.3391813 C8.32046784,42.3391813 7.06376608,41.0824795 7.06376608,39.5321637 L7.06376608,12.921076 C7.06376608,11.7687953 7.872,10.9192047 8.2394386,10.2573099 C7.98446784,10.4973099 7.73782456,10.7150409 7.53272515,10.9073216 C6.70287719,11.6851462 5.66025731,12.7754854 5.66025731,14.7925146 L6.08280702,27.9373099 L5.66025731,39.5321637 C5.66025731,41.8575906 7.54535673,43.7426901 9.87078363,43.7426901 L30.9489591,43.7426901 C32.4087018,43.7426901 33.6945965,43.4674152 34.4499649,42.3391813 L9.87078363,42.3391813 Z" id="Path" fill="#FFF0AF"></path>
                                <polygon id="Path" fill="#FF9A9F" points="31.8137076 39.5321637 35.1594854 39.5321637 35.1594854 14.7924211 12.4282573 14.7924211 23.3064795 39.5321637"></polygon>
                                <path d="M30.9489591,0.0467836257 L9.87078363,0.0467836257 L9.40294737,6.59649123 L32.3524678,6.12865497 L32.3524678,1.4502924 C32.3524678,0.675181287 31.7240702,0.0467836257 30.9489591,0.0467836257 Z" id="Path" fill="#FFE07D"></path>
                                <path d="M9.87078363,5.19298246 L9.87078363,0.0467836257 C9.09567251,0.0467836257 8.46727485,0.675181287 8.46727485,1.4502924 L8.46727485,6.12865497 C8.46727485,6.90376608 9.09567251,7.53216374 9.87078363,7.53216374 L30.9489591,7.53216374 C31.7240702,7.53216374 32.3524678,6.90376608 32.3524678,6.12865497 L10.8064561,6.12865497 C10.2896842,6.12865497 9.87078363,5.70975439 9.87078363,5.19298246 Z" id="Path" fill="#FFC250"></path>
                                <path d="M7.06376608,39.5322573 L6.59592982,27.1622924 L7.06376608,14.7924211 L12.4283509,14.7924211 C12.4283509,14.7924211 17.7178012,17.4524444 18.8676491,18.0306901 C20.9018012,19.0536608 22.0136608,20.2284912 22.0136608,21.9034386 C22.0136608,24.1454035 19.5494737,25.3071345 19.5494737,25.3071345 C19.5494737,25.3071345 26.1561637,26.9890994 26.1561637,33.238924 C26.1561637,36.0769123 24.7938246,38.1330526 23.3064795,39.5322573 L7.06376608,39.5322573 L7.06376608,39.5322573 Z" id="Path" fill="#FFCBCE"></path>
                                <polygon id="Path" fill="#FFB3B7" points="5.66025731 14.7924211 7.06376608 14.7924211 7.06376608 39.5321637 5.66025731 39.5321637"></polygon>
                                <path d="M45.973614,30.5064795 C44.9034854,29.4363509 42.6651696,29.9066199 40.7653801,31.5226199 C39.1493801,33.4224094 38.2113684,36.1285614 39.2814035,37.1986901 C40.3514386,38.2688187 43.0576842,37.3307135 44.9574737,35.7147135 C46.5734737,33.814924 47.0436491,31.5765146 45.973614,30.5064795 Z" id="Path" fill="#FFE07D"></path>
                                <path d="M39.7492398,36.7308538 C38.6791111,35.6607251 39.1493801,33.4224094 40.7653801,31.5226199 C40.5899415,31.6718596 40.4172164,31.8299883 40.2487953,31.9984094 C38.2559064,33.9912982 37.5879298,36.554386 38.7568655,37.7232281 C39.9258012,38.8921637 42.4888889,38.2241871 44.4816842,36.2312982 C44.6501053,36.0628772 44.8082339,35.8900585 44.9574737,35.7147135 C43.0575906,37.3307135 40.8192749,37.8008889 39.7492398,36.7308538 L39.7492398,36.7308538 Z" id="Path" fill="#FFC250"></path>
                                <path d="M37.4592749,40.2492632 C35.7579415,38.5479298 33.6416374,37.8133333 32.3313216,38.3618246 C31.7827368,39.6720468 32.0494971,42.2561871 33.750924,43.957614 C35.4522573,45.6589474 38.0363977,45.9257076 39.3467135,45.3772164 C39.8952982,44.0669942 39.1607018,41.9506901 37.4592749,40.2492632 Z" id="Path" fill="#FFE07D"></path>
                                <path d="M34.2188538,43.4897778 C32.5174269,41.7884444 31.782924,39.6720468 32.3314152,38.3618246 C32.1069474,38.4557661 31.9054035,38.586386 31.7344561,38.7573333 C30.565614,39.926269 31.2334971,42.4893567 33.226386,44.482152 C35.2192749,46.4750409 37.7823626,47.1430175 38.9512047,45.9740819 C39.122152,45.8031345 39.2526784,45.6015906 39.3467135,45.3771228 C38.0364912,45.9257076 35.9201871,45.1911111 34.2188538,43.4897778 L34.2188538,43.4897778 Z" id="Path" fill="#FFC250"></path>
                            </g>
                            <path d="M38.0507135,47.908117 C37.6809357,47.908117 37.2872982,47.8551579 36.8757895,47.7479298 C35.6755088,47.4351345 34.4359298,46.6841637 33.3851696,45.6334035 C33.211883,45.4602105 33.046924,45.2818713 32.8905731,45.0994152 L10.5257544,45.0994152 C7.81707602,45.0994152 5.61347368,42.8958129 5.61347368,40.1871345 L5.61347368,37.421193 C3.7391345,38.4887953 1.85506433,38.5378246 0.780538012,37.4633918 C-0.684538012,35.9983158 -0.0291929825,33.0477661 2.27246784,30.7461053 C3.45076023,29.5678129 4.88112281,28.7628538 6.1968655,28.537731 C6.40074854,28.5028304 6.60949708,28.5596257 6.76762573,28.6930526 C6.92566082,28.826386 7.01698246,29.0225965 7.01698246,29.2294737 L7.01698246,39.4853801 L23.6779415,39.4853801 C25.2915088,37.8848187 26.1092865,36.0046784 26.1092865,33.8938012 C26.1092865,31.5536842 25.1071813,29.6305965 23.1306667,28.1779649 C21.6059883,27.0573099 20.0456608,26.6458947 20.0300351,26.6418713 C19.7438129,26.5678596 19.5339415,26.3223392 19.5062456,26.0279766 C19.4785497,25.733614 19.637614,25.4533801 19.9050292,25.327345 C19.9237427,25.3183626 21.9666901,24.3190643 21.9666901,22.5584094 C21.9666901,21.2734503 21.1156023,20.2723743 19.2071111,19.312655 L12.9166784,16.1491462 L7.01698246,16.1491462 L7.01698246,26.2354152 C7.01698246,26.6229708 6.70278363,26.9371696 6.31522807,26.9371696 C5.92767251,26.9371696 5.61347368,26.6229708 5.61347368,26.2354152 L5.61347368,15.4473918 C5.61347368,13.0131462 6.97590643,11.7362339 7.70778947,11.0501988 C7.80378947,10.9602807 7.9085848,10.8647485 8.01918129,10.7642573 C8.6340117,10.2048187 9.43232749,9.47845614 9.71723977,8.72739181 C8.95644444,8.40982456 8.42049123,7.65819883 8.42049123,6.78362573 L8.42049123,2.10526316 C8.42049123,0.944374269 9.3648655,0 10.5257544,0 L28.7968187,0 C29.1843743,0 29.4985731,0.31419883 29.4985731,0.701754386 C29.4985731,1.08930994 29.1843743,1.40350877 28.7968187,1.40350877 L10.5257544,1.40350877 C10.1387602,1.40350877 9.824,1.71826901 9.824,2.10526316 L9.824,6.78362573 C9.824,7.17052632 10.1387602,7.48538012 10.5257544,7.48538012 L31.6038363,7.48538012 C31.9908304,7.48538012 32.3055906,7.17052632 32.3055906,6.78362573 L32.3055906,2.10526316 C32.3055906,1.71826901 31.9908304,1.40350877 31.6038363,1.40350877 C31.2162807,1.40350877 30.9020819,1.08930994 30.9020819,0.701754386 C30.9020819,0.31419883 31.2162807,0 31.6038363,0 C32.7647251,0 33.7090994,0.944374269 33.7090994,2.10526316 L33.7090994,6.78362573 C33.7090994,7.65819883 33.1731462,8.40982456 32.4124444,8.72739181 C32.6973567,9.47845614 33.4956725,10.2048187 34.1105029,10.7642573 C34.2210058,10.8647485 34.3258947,10.9602807 34.4218947,11.0501988 C35.1537778,11.7362339 36.5162105,13.0131462 36.5162105,15.4473918 L36.5162105,36.2894035 C36.5162105,36.6769591 36.2020117,36.9911579 35.8144561,36.9911579 C35.4269006,36.9911579 35.1127018,36.6769591 35.1127018,36.2894035 L35.1127018,16.1491462 L23.8718129,16.1491462 C23.4842573,16.1491462 23.1700585,15.8349474 23.1700585,15.4473918 C23.1700585,15.0598363 23.4842573,14.7456374 23.8718129,14.7456374 L35.0612398,14.7456374 C34.8698947,13.4960468 34.1730994,12.7407719 33.4620819,12.0742924 C33.3707602,11.9886784 33.2710175,11.8980117 33.1659415,11.802386 C32.4045848,11.109614 31.3143392,10.117614 30.9939649,8.88888889 L11.1356257,8.88888889 C10.8152515,10.1175205 9.72500585,11.1095205 8.96364912,11.802386 C8.8585731,11.8980117 8.75883041,11.9887719 8.66750877,12.0742924 C7.95639766,12.7407719 7.25978947,13.4960468 7.06835088,14.7456374 L21.0647953,14.7456374 C21.4523509,14.7456374 21.7665497,15.0598363 21.7665497,15.4473918 C21.7665497,15.8349474 21.4523509,16.1491462 21.0647953,16.1491462 L16.0406082,16.1491462 L19.8377544,18.0587602 C21.3541988,18.8213333 23.3702924,20.1175205 23.3702924,22.5584094 C23.3702924,24.0401404 22.5147135,25.1082105 21.7378246,25.7727251 C22.3649123,26.0469708 23.141614,26.450152 23.920655,27.0168889 C26.2706901,28.7267368 27.5128889,31.1047485 27.5128889,33.8938947 C27.5128889,35.9640702 26.8565146,37.8388772 25.5584561,39.4854737 L31.465076,39.4854737 C31.5801637,39.2769123 31.7231345,39.0862222 31.8931462,38.9162105 C32.6417778,38.1676725 33.787883,37.9465731 35.1197193,38.293614 C36.32,38.6064094 37.5596725,39.3573801 38.6104327,40.4081404 C39.661193,41.4589006 40.4121637,42.6985731 40.7249591,43.8988538 C41.0720936,45.2309708 40.8509942,46.3767953 40.1023626,47.1254269 C39.5850292,47.6426667 38.8779415,47.908117 38.0507135,47.908117 L38.0507135,47.908117 Z M33.9580819,39.5395556 C33.5028772,39.5395556 33.1295439,39.664655 32.885614,39.9085848 C32.5090994,40.2850994 32.4155322,40.970386 32.6287719,41.7888187 C32.8795322,42.7511579 33.5006316,43.764117 34.3775439,44.6410292 C35.2544561,45.5179415 36.2674152,46.1389474 37.2296608,46.3897076 C38.0481871,46.6030409 38.7333801,46.5093801 39.1098947,46.1328655 C39.4864094,45.7563509 39.5799766,45.0709708 39.3667368,44.2526316 C39.1159766,43.2902924 38.4948772,42.2773333 37.6179649,41.4004211 C36.7410526,40.5235088 35.7280936,39.9024094 34.7657544,39.6516491 C34.4775673,39.5766082 34.2056608,39.5395556 33.9580819,39.5395556 Z M7.0874386,40.8888889 C7.41352047,42.4884211 8.83125146,43.6959064 10.5257544,43.6959064 L31.906807,43.6959064 C31.6209591,43.1830643 31.4052865,42.6591813 31.2706433,42.1426901 C31.1556491,41.7018012 31.1030643,41.2813099 31.1112047,40.8888889 L7.0874386,40.8888889 Z M5.61347368,30.1522339 C4.81375439,30.4610994 3.99045614,31.0130526 3.26484211,31.7385731 C1.79284211,33.2105731 0.818152047,35.5162573 1.77291228,36.4710175 C2.47803509,37.1761404 4.10301754,36.8610994 5.61338012,35.7480234 L5.61338012,30.1522339 L5.61347368,30.1522339 Z M40.9754386,39.6544561 C40.1626199,39.6544561 39.4429006,39.4019181 38.9155556,38.8744795 C38.166924,38.125848 37.9458246,36.9799298 38.2929591,35.6479064 C38.6057544,34.4476257 39.3567251,33.2079532 40.4074854,32.157193 C42.7092398,29.8555322 45.6597895,29.2002807 47.1247719,30.6652632 C47.8734035,31.4138012 48.0945029,32.5597193 47.7472749,33.8918363 C47.4344795,35.092117 46.6836023,36.3316959 45.6328421,37.3824561 C44.1597193,38.8555789 42.4205848,39.6544561 40.9754386,39.6544561 L40.9754386,39.6544561 Z M45.0807018,31.2779415 C43.9698713,31.2779415 42.4662456,32.0832749 41.3998596,33.1495673 C40.5229474,34.0264795 39.901848,35.0394386 39.6510877,36.0017778 C39.437848,36.8202105 39.5314152,37.5054971 39.9079298,37.8820117 C40.8626901,38.8366784 43.1682807,37.8620819 44.6403743,36.3900819 C45.5172865,35.5131696 46.1382924,34.5002105 46.3890526,33.5379649 C46.602386,32.7195322 46.5087251,32.0342456 46.1322105,31.657731 C45.869193,31.3945263 45.503345,31.2779415 45.0807018,31.2779415 L45.0807018,31.2779415 Z" id="Shape" fill="#000000"></path>
                        </g>
                    </g>
                </g>
            </g>
        </g>
    </g>
</svg>