<?xml version="1.0" encoding="UTF-8"?>
<svg width="18px" height="11px" viewBox="0 0 18 11" version="1.1" xmlns="http://www.w3.org/2000/svg" xmlns:xlink="http://www.w3.org/1999/xlink">
    <title>arrow_right</title>
    <g id="Page-1" stroke="none" stroke-width="1" fill="none" fill-rule="evenodd">
        <g id="LL21---Expecting---1st-2nd-trimester" transform="translate(-251.000000, -1746.000000)" fill="#8B7FBF" fill-rule="nonzero">
            <g id="Group-14" transform="translate(16.000000, 1079.000000)">
                <g id="Group-24" transform="translate(76.000000, 663.500000)">
                    <g id="arrow_right" transform="translate(159.000000, 4.000000)">
                        <path d="M0,5 C0,5.39428571 0.32,5.71428571 0.714285714,5.71428571 L14.7042857,5.71428571 L11.6385714,8.78 C11.36,9.05857143 11.36,9.51142857 11.6385714,9.79 C11.9171429,10.0685714 12.37,10.0685714 12.6485714,9.79 L16.9342857,5.50428571 C17,5.43857143 17.0528571,5.36 17.0885714,5.27285714 C17.1228571,5.18571429 17.1428571,5.09428571 17.1428571,5.00285714 C17.1428571,5.00142857 17.1428571,5.00142857 17.1428571,5 L17.1428571,5 C17.1428571,4.90714286 17.1242857,4.81428571 17.0871429,4.72714286 C17.0514286,4.64 16.9985714,4.56142857 16.9328571,4.49571429 L12.6471429,0.21 C12.3685714,-0.0685714286 11.9157143,-0.0685714286 11.6371429,0.21 C11.3585714,0.488571429 11.3585714,0.941428571 11.6371429,1.22 L14.7042857,4.28571429 L0.714285714,4.28571429 C0.32,4.28571429 0,4.60571429 0,5 Z" id="Path"></path>
                    </g>
                </g>
            </g>
        </g>
    </g>
</svg>