<?xml version="1.0" encoding="UTF-8"?>
<svg width="20px" height="20px" viewBox="0 0 20 20" version="1.1" xmlns="http://www.w3.org/2000/svg" xmlns:xlink="http://www.w3.org/1999/xlink">
    <title>Group 25</title>
    <g id="Page-1" stroke="none" stroke-width="1" fill="none" fill-rule="evenodd">
        <g id="LL21---Expecting---1st-2nd-trimester" transform="translate(-316.000000, -186.000000)">
            <g id="Group-8" transform="translate(16.000000, 178.000000)">
                <g id="Group-25" transform="translate(300.000000, 8.000000)">
                    <rect id="Rectangle" x="0" y="0" width="20" height="20"></rect>
                    <path d="M17.4112636,8.58527907 C18.1916357,9.36565116 18.1916357,10.6308915 17.4112636,11.4112636 C16.6308915,12.1916357 15.3656512,12.1916357 14.5852791,11.4112636 C13.804907,10.6308915 13.804907,9.36565116 14.5852791,8.58527907 C15.3656202,7.80490698 16.6308605,7.80490698 17.4112636,8.58527907" id="Path" fill="#8B7FBF" fill-rule="nonzero"></path>
                    <path d="M11.4112636,8.58527907 C12.1916357,9.36565116 12.1916357,10.6308915 11.4112636,11.4112636 C10.6308915,12.1916357 9.36565116,12.1916357 8.58527907,11.4112636 C7.80490698,10.6308915 7.80490698,9.36565116 8.58527907,8.58527907 C9.36562016,7.80490698 10.6308605,7.80490698 11.4112636,8.58527907" id="Path" fill="#8B7FBF" fill-rule="nonzero"></path>
                    <path d="M5.41126357,8.58527907 C6.19163566,9.36565116 6.19163566,10.6308915 5.41126357,11.4112636 C4.63089147,12.1916357 3.36565116,12.1916357 2.58527907,11.4112636 C1.80490698,10.6308915 1.80490698,9.36565116 2.58527907,8.58527907 C3.36562016,7.80490698 4.63086047,7.80490698 5.41126357,8.58527907" id="Path" fill="#8B7FBF" fill-rule="nonzero"></path>
                    <g id="menu-(2)" transform="translate(5.000000, 10.000000) rotate(90.000000) translate(-5.000000, -10.000000) translate(2.500000, 7.500000)"></g>
                </g>
            </g>
        </g>
    </g>
</svg>