<?xml version="1.0" encoding="UTF-8"?>
<svg width="50px" height="50px" viewBox="0 0 50 50" version="1.1" xmlns="http://www.w3.org/2000/svg" xmlns:xlink="http://www.w3.org/1999/xlink">
    <title>Group 5</title>
    <g id="Page-1" stroke="none" stroke-width="1" fill="none" fill-rule="evenodd">
        <g id="LL21---nutrition" transform="translate(-268.000000, -334.000000)">
            <g id="Group-7" transform="translate(16.000000, 200.000000)">
                <g id="Group-6-Copy-5" transform="translate(226.000000, 126.000000)">
                    <g id="Group-5" transform="translate(26.000000, 8.000000)">
                        <rect id="Rectangle" x="0" y="0" width="50" height="50"></rect>
                        <g id="snack" transform="translate(6.000000, 1.000000)" fill-rule="nonzero">
                            <path d="M35.2764375,11.5913437 C35.2764375,10.8913125 35.5185938,10.2128437 35.9619375,9.6710625 L37.2305625,8.12053125 C37.6738125,7.57875 37.9159687,6.900375 37.9159687,6.20034375 L37.9159687,5.13196875 L0.7089375,5.13196875 L0.7089375,6.20025 C0.7089375,6.90028125 0.9511875,7.57875 1.39453125,8.12053125 L2.66315625,9.6710625 C3.10640625,10.2128437 3.3485625,10.8913125 3.3485625,11.59125 L3.3485625,24 L3.3485625,36.4086562 C3.3485625,37.1086875 3.10640625,37.7871562 2.6630625,38.3289375 L1.3944375,39.8794687 C0.9511875,40.42125 0.7089375,41.0997188 0.7089375,41.7996562 L0.7089375,42.8679375 L37.9159687,42.8679375 L37.9159687,41.7996562 C37.9159687,41.099625 37.6738125,40.4211562 37.2304688,39.879375 L35.9618437,38.3288437 C35.5185938,37.7870625 35.2763437,37.1085937 35.2763437,36.4085625 L35.2763437,24 L35.2763437,11.5913438 L35.2764375,11.5913437 Z" id="Path" fill="#E94444"></path>
                            <path d="M35.2768125,36.4085625 C35.2768125,37.108875 35.5186875,37.7867813 35.9622187,38.32875 L37.23075,39.8794688 C37.6742812,40.4214375 37.9161563,41.09925 37.9161563,41.7996563 L37.9161563,42.8675625 L35.9209688,42.8675625 L35.9209688,41.7996563 C35.9209688,41.09925 35.6781563,40.4213438 35.234625,39.8794688 L33.9660937,38.32875 C33.5235937,37.7867813 33.2806875,37.1089688 33.2806875,36.4085625 L33.2806875,11.591625 C33.2806875,10.8912188 33.5235,10.2124688 33.9660937,9.6714375 L35.234625,8.120625 C35.6780625,7.57865625 35.9209688,6.89990625 35.9209688,6.2004375 L35.9209688,5.1316875 L37.9161563,5.1316875 L37.9161563,6.20053125 C37.9161563,6.9 37.6742812,7.57875 37.23075,8.12071875 L35.9622187,9.67153125 C35.5186875,10.2125625 35.2768125,10.8913125 35.2768125,11.5917188 L35.2768125,36.4085625 Z" id="Path" fill="#D83131"></path>
                            <polygon id="Path" fill="#F3F0F3" points="3.3485625 16.95225 35.2765312 16.95225 35.2765312 30.9927188 3.3485625 30.9927188"></polygon>
                            <polygon id="Path" fill="#E2DEE2" points="33.2806875 16.95225 35.2765312 16.95225 35.2765312 30.9927188 33.2806875 30.9927188"></polygon>
                            <polygon id="Path" fill="#CBC4CC" points="37.9159688 0.70321875 34.1948438 2.57840625 30.473625 0.70321875 26.7529688 2.57840625 23.032125 0.70321875 19.3114687 2.57840625 15.5909062 0.70321875 11.8708125 2.57840625 8.15025 0.70321875 4.42959375 2.57840625 0.70903125 0.70321875 0.70903125 5.1316875 37.9159687 5.1316875"></polygon>
                            <polygon id="Path" fill="#CBC4CC" points="37.9159688 47.2966875 34.1948438 45.4215937 30.473625 47.2966875 26.7529688 45.4215937 23.032125 47.2966875 19.3114687 45.4215937 15.5909062 47.2966875 11.8708125 45.4215937 8.15025 47.2966875 4.42959375 45.4215937 0.70903125 47.2966875 0.70903125 42.8683125 37.9159687 42.8683125"></polygon>
                            <polygon id="Path" fill="#B5ADB6" points="37.9160625 0.70284375 37.9160625 5.13196875 35.919 5.13196875 35.919 1.708875"></polygon>
                            <polygon id="Path" fill="#B5ADB6" points="37.9160625 42.8679375 37.9160625 47.2970625 35.919 46.2910312 35.919 42.8679375"></polygon>
                            <g id="Group" fill="#000000">
                                <path d="M35.2765313,33.8195625 C35.6649375,33.8195625 35.97975,33.50475 35.97975,33.1163438 L35.97975,11.5913438 C35.97975,11.0551875 36.1666875,10.5313125 36.50625,10.1162813 L37.774875,8.56575 C38.319375,7.9003125 38.6192813,7.060125 38.6192813,6.20025 L38.6192813,0.70321875 C38.6192813,0.45909375 38.492625,0.2325 38.2847813,0.10453125 C38.0769375,-0.02353125 37.8174375,-0.0345 37.5996563,0.07528125 L34.1949375,1.791 L30.7900312,0.07528125 C30.591,-0.02503125 30.35625,-0.02503125 30.1572187,0.07528125 L26.7529687,1.791 L23.348625,0.07528125 C23.1495938,-0.02503125 22.9149375,-0.02503125 22.715625,0.07528125 L19.3114687,1.791 L15.9074062,0.07528125 C15.708375,-0.02503125 15.4734375,-0.02503125 15.2744062,0.07528125 L11.8708125,1.791 L8.46675,0.07528125 C8.26771875,-0.02503125 8.032875,-0.02503125 7.83375,0.07528125 L4.42959375,1.791 L1.02553125,0.07528125 C0.80746875,-0.0345 0.54825,-0.02371875 0.3403125,0.10453125 C0.132375,0.2325 0.0058125,0.4591875 0.0058125,0.70321875 L0.0058125,6.20034375 C0.0058125,7.06021875 0.30571875,7.90040625 0.85021875,8.56584375 L2.11884375,10.116375 C2.4583125,10.5314063 2.64534375,11.0552813 2.64534375,11.5913438 L2.64534375,36.40875 C2.64534375,36.9449063 2.45840625,37.4687813 2.11884375,37.8837188 L0.85021875,39.43425 C0.30571875,40.0996875 0.0058125,40.939875 0.0058125,41.79975 L0.0058125,47.296875 C0.0058125,47.541 0.132375,47.7675938 0.3403125,47.8955625 C0.453,47.9650313 0.580875,48 0.70903125,48 C0.81721875,48 0.9256875,47.9749688 1.0254375,47.9247188 L4.4295,46.209 L7.83365625,47.9247188 C8.03278125,48.025125 8.267625,48.0250313 8.46665625,47.9247188 L11.8707187,46.209 L15.2743125,47.9247188 C15.4734375,48.0250313 15.7081875,48.0250313 15.9073125,47.9247188 L19.311375,46.209 L22.7155312,47.9247188 C22.91475,48.0250313 23.1495937,48.0250313 23.3485312,47.9247188 L26.752875,46.209 L30.157125,47.9247188 C30.3561562,48.0250313 30.5909062,48.0250313 30.7899375,47.9247188 L34.1946562,46.209 L37.599375,47.9247188 C37.8173437,48.0346875 38.0766562,48.0235313 38.2845,47.8954688 C38.4923437,47.7675 38.6192813,47.5408125 38.6192813,47.2967813 L38.6192813,41.7996563 C38.6192813,40.9397813 38.3191875,40.0995938 37.7745937,39.4341563 L36.5059687,37.883625 C36.1665,37.4686875 35.9794687,36.9448125 35.9794687,36.4086563 C35.9794687,36.02025 35.6646562,35.7054375 35.27625,35.7054375 C34.8878438,35.7054375 34.5730313,36.02025 34.5730313,36.4086563 C34.5730313,37.2685313 34.8728438,38.1087188 35.4174375,38.7741563 L36.6860625,40.3246875 C37.0255313,40.739625 37.2125625,41.2635 37.2125625,41.7996563 L37.2125625,42.1647188 L1.41225,42.1647188 L1.41225,41.7996563 C1.41225,41.2635 1.5991875,40.739625 1.93875,40.3246875 L3.207375,38.7741563 C3.751875,38.1087188 4.05178125,37.268625 4.05178125,36.4086563 L4.05178125,31.6958438 L34.5733125,31.6958438 L34.5733125,33.11625 C34.5733125,33.50475 34.888125,33.8195625 35.2765312,33.8195625 L35.2765313,33.8195625 Z M37.21275,43.5715312 L37.21275,46.155 L34.51125,44.7936562 C34.3122187,44.69325 34.0774688,44.69325 33.8784375,44.7936562 L30.473625,46.509375 L27.069375,44.7936562 C26.9698125,44.7435 26.8614375,44.718375 26.7529688,44.718375 C26.6445,44.718375 26.5360313,44.7435 26.4365625,44.7936562 L23.032125,46.509375 L19.6279688,44.7936562 C19.4289375,44.69325 19.1940938,44.69325 18.9949688,44.7936562 L15.5909063,46.509375 L12.1873125,44.7936562 C11.9881875,44.6933438 11.7534375,44.6931563 11.5543125,44.7936562 L8.15025,46.509375 L4.74609375,44.7936562 C4.5470625,44.6933438 4.31221875,44.6931563 4.11309375,44.7936562 L1.41225,46.1549062 L1.41225,43.5715312 L37.21275,43.5715312 Z M1.41225,1.84509375 L4.11309375,3.20634375 C4.312125,3.30665625 4.54696875,3.30665625 4.74609375,3.20634375 L8.15025,1.490625 L11.5543125,3.20634375 C11.7533437,3.30665625 11.9882812,3.30665625 12.1873125,3.20634375 L15.591,1.490625 L18.9950625,3.20634375 C19.1940937,3.30665625 19.4288437,3.30665625 19.6280625,3.20634375 L23.032125,1.490625 L26.4364687,3.20634375 C26.6355,3.30665625 26.87025,3.30665625 27.0692812,3.20634375 L30.473625,1.490625 L33.8783437,3.20634375 C34.077375,3.30665625 34.312125,3.30665625 34.5111562,3.20634375 L37.2126562,1.845 L37.2126562,4.42846875 L1.41225,4.42846875 L1.41225,1.84509375 Z M4.05178125,30.2895938 L4.05178125,17.655375 L8.7418125,17.655375 C9.13021875,17.655375 9.44503125,17.3405625 9.44503125,16.9521562 C9.44503125,16.56375 9.13021875,16.2489375 8.7418125,16.2489375 L4.05178125,16.2489375 L4.05178125,11.59125 C4.05178125,10.731375 3.751875,9.89128125 3.207375,9.22575 L1.93865625,7.67521875 C1.5991875,7.26028125 1.41215625,6.73640625 1.41215625,6.20025 L1.41215625,5.8351875 L37.21275,5.8351875 L37.21275,6.20025 C37.21275,6.73640625 37.0258125,7.26028125 36.68625,7.67521875 L35.4175312,9.22575 C34.873125,9.891375 34.5732188,10.7314687 34.5732188,11.5913438 L34.5732188,16.2490312 L12.007125,16.2490312 C11.6188125,16.2490312 11.3039063,16.5638438 11.3039063,16.95225 C11.3039063,17.3406562 11.6187188,17.6554688 12.007125,17.6554688 L34.5733125,17.6554688 L34.5733125,30.2895938 L4.05178125,30.2895938 L4.05178125,30.2895938 Z" id="Shape"></path>
                                <path d="M19.7229375,21.5235 C19.72125,21.5191875 19.7196562,21.5147813 19.7177812,21.5104688 C19.628625,21.2939063 19.41975,21.154125 19.1855625,21.154125 C19.185375,21.154125 19.1850937,21.154125 19.1848125,21.154125 C18.9503437,21.1544063 18.7414687,21.2948438 18.6527812,21.511875 C18.6512812,21.5153438 18.6499687,21.5189063 18.6486562,21.5224688 L16.8789375,26.1690938 C16.7867812,26.4109688 16.9081875,26.6818125 17.1501562,26.7740625 C17.3920312,26.8659375 17.6629687,26.7447188 17.755125,26.50275 L18.0809062,25.647375 L20.2771875,25.647375 L20.5995,26.5014375 C20.670375,26.689125 20.8486875,26.8049063 21.0381562,26.8048126 C21.0930937,26.8048126 21.1491562,26.7950625 21.203625,26.7745313 C21.4457812,26.683125 21.568125,26.4126563 21.476625,26.1704063 L19.7229375,21.5235 Z M18.4379062,24.709875 L19.1839687,22.7509688 L19.9231875,24.709875 L18.4379062,24.709875 Z" id="Shape"></path>
                                <path d="M15.2708438,21.1401423 C15.012,21.1426875 14.8040625,21.3545625 14.8065938,21.6135 L14.838375,24.8925 L12.3929063,21.3514687 C12.276375,21.182625 12.0635625,21.1092187 11.867625,21.17025 C11.6717813,21.2312812 11.538375,21.4125937 11.538375,21.6178125 L11.538375,26.3359687 C11.538375,26.5949063 11.7482813,26.8047187 12.007125,26.8047187 C12.2660625,26.8047187 12.475875,26.5948125 12.475875,26.3359687 L12.475875,23.1216563 L14.8115625,26.5039687 C14.9541563,26.7100312 15.190125,26.79825 15.4126875,26.7285937 C15.640875,26.6573437 15.78825,26.4406875 15.78825,26.1721875 L15.7440938,21.6044062 C15.7416563,21.3455625 15.533625,21.1381875 15.2708438,21.1401423 L15.2708438,21.1401423 Z" id="Path"></path>
                                <path d="M29.7210937,23.8823437 L31.7389687,22.0275937 C31.9295625,21.852375 31.9420312,21.55575 31.7669062,21.3651562 C31.5915937,21.1744687 31.2950625,21.1620937 31.1044687,21.3372187 L29.3551875,22.945125 L29.3551875,21.6229687 C29.3551875,21.3640312 29.1452813,21.1542187 28.8864375,21.1542187 C28.6275937,21.1542187 28.4176875,21.364125 28.4176875,21.6229687 L28.4176875,26.3359687 C28.4176875,26.5949063 28.6275937,26.8047187 28.8864375,26.8047187 C29.1452813,26.8047187 29.3551875,26.5948125 29.3551875,26.3359687 L29.3551875,24.8322187 L31.2634688,26.673375 C31.3545,26.761125 31.4717812,26.8047187 31.588875,26.8047187 C31.7117813,26.8047187 31.8343125,26.7567188 31.926375,26.6614687 C32.1060937,26.4750937 32.1008438,26.178375 31.9144688,25.9985625 L29.7210937,23.8823437 Z" id="Path"></path>
                                <path d="M26.1610313,25.3694063 C26.1162187,25.42275 26.06775,25.4728125 26.017125,25.518 C25.756875,25.74975 25.4265937,25.8672187 25.0355625,25.8672187 C23.9946562,25.8672187 23.1478125,25.020375 23.1478125,23.9794688 C23.1478125,22.9385625 23.9946562,22.0917188 25.0355625,22.0917188 C25.4139375,22.0917188 25.7788125,22.2030938 26.090625,22.41375 C26.3049375,22.5587813 26.5965937,22.50225 26.7414375,22.28775 C26.886375,22.07325 26.8299375,21.781875 26.6154375,21.6369375 C26.148,21.3210938 25.6017187,21.154125 25.0355625,21.154125 C23.477625,21.154125 22.2102187,22.4215313 22.2102187,23.9794688 C22.2102187,25.5374062 23.477625,26.8048125 25.0355625,26.8048125 C25.6546875,26.8048125 26.2097812,26.6019375 26.6408437,26.2180312 C26.7253125,26.14275 26.8054687,26.0599687 26.87925,25.972125 C27.04575,25.7738437 27.0197813,25.4781562 26.8215,25.3116562 C26.623125,25.1451562 26.3275312,25.1710312 26.1610313,25.3694062 L26.1610313,25.3694063 Z" id="Path"></path>
                                <path d="M9.24975,23.5767188 C8.65134375,23.3560313 8.0956875,23.1152813 7.9464375,23.0496563 C7.81340625,22.95 7.7491875,22.7922187 7.77365625,22.6215938 C7.80534375,22.4007188 7.97709375,22.222875 8.2329375,22.1457188 C8.9638125,21.9257812 9.62896875,22.4580938 9.6410625,22.4678438 C9.83925,22.63275 10.1335313,22.6065938 10.2996563,22.4089688 C10.46625,22.210875 10.4406563,21.9150938 10.2424688,21.7485 C10.2,21.7127813 9.188625,20.8782188 7.9625625,21.2479688 C7.35721875,21.4303125 6.92934375,21.9055313 6.845625,22.4882813 C6.78121875,22.9367813 6.9369375,23.5148438 7.33565625,23.767875 C7.8163125,24.0728438 8.39325,24.2600625 8.925375,24.456375 C9.42215625,24.6395625 9.67546875,24.9224063 9.62015625,25.2320625 C9.564375,25.54425 9.196875,25.867125 8.6784375,25.867125 C8.17659375,25.867125 7.69246875,25.6635 7.38346875,25.3224375 C7.20965625,25.130625 6.91321875,25.116 6.7213125,25.2898125 C6.5295,25.463625 6.514875,25.7600625 6.6886875,25.9519688 C7.1724375,26.485875 7.91634375,26.8047188 8.6784375,26.8047188 C9.59821875,26.8047188 10.399875,26.1994688 10.5432188,25.396875 C10.651875,24.7877813 10.3693125,23.9896875 9.24975,23.5767188 L9.24975,23.5767188 Z" id="Path"></path>
                            </g>
                        </g>
                    </g>
                </g>
            </g>
        </g>
    </g>
</svg>