<?xml version="1.0" encoding="UTF-8"?>
<svg width="14px" height="14px" viewBox="0 0 14 14" version="1.1" xmlns="http://www.w3.org/2000/svg" xmlns:xlink="http://www.w3.org/1999/xlink">
    <title>icon_plus</title>
    <g id="Page-1" stroke="none" stroke-width="1" fill="none" fill-rule="evenodd">
        <g id="LL21---Expecting---and-also-have-other-kids" transform="translate(-286.000000, -130.000000)" fill="#8B7FBF" fill-rule="nonzero">
            <g id="Group-12" transform="translate(16.000000, 121.000000)">
                <g id="Group-13" transform="translate(261.000000, 0.000000)">
                    <g id="icon_plus" transform="translate(9.000000, 9.000000)">
                        <path d="M0.777777778,7.77777778 L6.22222222,7.77777778 L6.22222222,13.2222222 C6.22222222,13.6515556 6.57066667,14 7,14 C7.42933333,14 7.77777778,13.6515556 7.77777778,13.2222222 L7.77777778,7.77777778 L13.2222222,7.77777778 C13.6515556,7.77777778 14,7.42933333 14,7 C14,6.57066667 13.6515556,6.22222222 13.2222222,6.22222222 L7.77777778,6.22222222 L7.77777778,0.777777778 C7.77777778,0.348444444 7.42933333,0 7,0 C6.57066667,0 6.22222222,0.348444444 6.22222222,0.777777778 L6.22222222,6.22222222 L0.777777778,6.22222222 C0.348444444,6.22222222 0,6.57066667 0,7 C0,7.42933333 0.348444444,7.77777778 0.777777778,7.77777778 Z" id="Path"></path>
                    </g>
                </g>
            </g>
        </g>
    </g>
</svg>