<?xml version="1.0" encoding="UTF-8"?>
<svg width="50px" height="50px" viewBox="0 0 50 50" version="1.1" xmlns="http://www.w3.org/2000/svg" xmlns:xlink="http://www.w3.org/1999/xlink">
    <title>Group 5</title>
    <g id="Page-1" stroke="none" stroke-width="1" fill="none" fill-rule="evenodd">
        <g id="LL21---nutrition" transform="translate(-155.000000, -334.000000)">
            <g id="Group-7" transform="translate(16.000000, 200.000000)">
                <g id="Group-6-Copy-4" transform="translate(113.000000, 126.000000)">
                    <g id="Group-5" transform="translate(26.000000, 8.000000)">
                        <rect id="Rectangle" x="0" y="0" width="50" height="50"></rect>
                        <g id="fruits" transform="translate(1.000000, 4.000000)" fill-rule="nonzero">
                            <path d="M34.0645161,21.6774194 C34.0645161,27.2358871 29.5584677,31.7419355 24,31.7419355 C18.4415323,31.7419355 13.9354839,27.2358871 13.9354839,21.6774194 C13.9354839,16.1189516 18.4415323,11.6129032 24,11.6129032 C29.5584677,11.6129032 34.0645161,16.1189516 34.0645161,21.6774194 Z" id="Path" fill="#FCD770"></path>
                            <path d="M34.0645161,21.6774194 C34.0645161,27.2358871 29.5584677,31.7419355 24,31.7419355 C18.4415323,31.7419355 13.9354839,27.2358871 13.9354839,21.6774194 C13.9354839,16.1189516 18.4415323,11.6129032 24,11.6129032 C29.5584677,11.6129032 34.0645161,16.1189516 34.0645161,21.6774194 Z" id="Path" fill="#FCD770"></path>
                            <path d="M19.3548387,23.2258065 L19.2773438,23.2258065 C18.9677419,21.6774194 17.8064516,20.516129 16.2580645,20.2065272 L16.2580645,20.1290323 C16.2580645,18.9677419 15.7159779,17.9614415 14.9417843,17.264365 C14.3225806,18.5806452 13.9354839,20.1290323 13.9354839,21.6774194 C13.9354839,25.780494 16.4130544,29.3418599 19.9740424,30.890247 C21.8324092,30.5806452 23.2258065,29.0322581 23.2258065,27.0967742 C23.2258065,24.9291834 21.5224295,23.2258065 19.3548387,23.2258065 Z" id="Path" fill="#FFC729"></path>
                            <path d="M16.1030746,27.8709677 C16.5676664,28.4130544 17.0322581,28.9547631 17.5743447,29.4193548 L30.4256553,29.4193548 C30.9677419,28.9547631 31.5098286,28.4130544 31.8969254,27.8709677 L16.1030746,27.8709677 Z" id="Path" fill="#FFC729"></path>
                            <polygon id="Path" fill="#DFB28B" points="7.74193548 36.3870968 40.2580645 36.3870968 40.2580645 40.2580645 7.74193548 40.2580645"></polygon>
                            <polygon id="Path" fill="#CF9E76" points="7.74193548 36.3870968 40.2580645 36.3870968 40.2580645 38.7096774 7.74193548 38.7096774"></polygon>
                            <path d="M17.0322581,29.4193548 L47.2258065,29.4193548 C47.2258065,33.6774194 43.7419355,37.1612903 39.483871,37.1612903 L8.51612903,37.1612903 C4.25806452,37.1612903 0.774193548,33.6774194 0.774193548,29.4193548 L17.0322581,29.4193548 Z" id="Path" fill="#DFB28B"></path>
                            <path d="M10.0645161,33.2903226 C11.1483115,33.2903226 12.1549899,32.8257309 12.9291834,32.0515373 C13.4708922,32.3611392 14.0904737,32.516129 14.7096774,32.516129 C16.1030746,32.516129 17.264365,31.8194304 17.9614415,30.735635 C18.4256553,30.890247 18.890247,30.9677419 19.3548387,30.9677419 C20.593624,30.9677419 21.7549143,30.3485383 22.4516129,29.4193548 L6.19354839,29.4193548 C6.19354839,31.5869456 7.89692535,33.2903226 10.0645161,33.2903226 L10.0645161,33.2903226 Z" id="Path" fill="#CF9E76"></path>
                            <g id="Group" transform="translate(0.774194, 17.806452)" fill="#EC87C0">
                                <path d="M20.9032258,9.29032258 C20.9032258,10.5729586 19.8632812,11.6129032 18.5806452,11.6129032 C17.2980091,11.6129032 16.2580645,10.5729586 16.2580645,9.29032258 C16.2580645,8.00768652 17.2980091,6.96774194 18.5806452,6.96774194 C19.8632812,6.96774194 20.9032258,8.00768652 20.9032258,9.29032258 Z" id="Path"></path>
                                <path d="M16.2580645,10.8387097 C16.2580645,12.1213457 15.2181199,13.1612903 13.9354839,13.1612903 C12.6528478,13.1612903 11.6129032,12.1213457 11.6129032,10.8387097 C11.6129032,9.55607361 12.6528478,8.51612903 13.9354839,8.51612903 C15.2181199,8.51612903 16.2580645,9.55607361 16.2580645,10.8387097 Z" id="Path"></path>
                                <path d="M17.0322581,6.19354839 C17.0322581,7.47618445 15.9923135,8.51612903 14.7096774,8.51612903 C13.4270414,8.51612903 12.3870968,7.47618445 12.3870968,6.19354839 C12.3870968,4.91091232 13.4270414,3.87096774 14.7096774,3.87096774 C15.9923135,3.87096774 17.0322581,4.91091232 17.0322581,6.19354839 Z" id="Path"></path>
                                <path d="M11.6129032,11.6129032 C11.6129032,12.8955393 10.5729586,13.9354839 9.29032258,13.9354839 C8.00768652,13.9354839 6.96774194,12.8955393 6.96774194,11.6129032 C6.96774194,10.3302672 8.00768652,9.29032258 9.29032258,9.29032258 C10.5729586,9.29032258 11.6129032,10.3302672 11.6129032,11.6129032 Z" id="Path"></path>
                                <path d="M12.3870968,6.96774194 C12.3870968,8.250378 11.3471522,9.29032258 10.0645161,9.29032258 C8.78188006,9.29032258 7.74193548,8.250378 7.74193548,6.96774194 C7.74193548,5.68510587 8.78188006,4.64516129 10.0645161,4.64516129 C11.3471522,4.64516129 12.3870968,5.68510587 12.3870968,6.96774194 Z" id="Path"></path>
                                <path d="M13.9354839,2.32258065 C13.9354839,3.60521671 12.8955393,4.64516129 11.6129032,4.64516129 C10.3302672,4.64516129 9.29032258,3.60521671 9.29032258,2.32258065 C9.29032258,1.03994458 10.3302672,0 11.6129032,0 C12.8955393,0 13.9354839,1.03994458 13.9354839,2.32258065 Z" id="Path"></path>
                                <path d="M7.74193548,8.51612903 C7.74193548,9.7987651 6.7019909,10.8387097 5.41935484,10.8387097 C4.13671877,10.8387097 3.09677419,9.7987651 3.09677419,8.51612903 C3.09677419,7.23349297 4.13671877,6.19354839 5.41935484,6.19354839 C6.7019909,6.19354839 7.74193548,7.23349297 7.74193548,8.51612903 Z" id="Path"></path>
                                <path d="M9.29032258,3.09677419 C9.29032258,4.37941026 8.250378,5.41935484 6.96774194,5.41935484 C5.68510587,5.41935484 4.64516129,4.37941026 4.64516129,3.09677419 C4.64516129,1.81413813 5.68510587,0.774193548 6.96774194,0.774193548 C8.250378,0.774193548 9.29032258,1.81413813 9.29032258,3.09677419 Z" id="Path"></path>
                                <path d="M4.64516129,4.64516129 C4.64516129,5.92779735 3.60521671,6.96774194 2.32258065,6.96774194 C1.03994458,6.96774194 0,5.92779735 0,4.64516129 C0,3.36252523 1.03994458,2.32258065 2.32258065,2.32258065 C3.60521671,2.32258065 4.64516129,3.36252523 4.64516129,4.64516129 Z" id="Path"></path>
                            </g>
                            <path d="M5.41935484,20.9032258 L3.48387097,18.9677419 C1.780494,17.264365 0.774193548,14.8646673 0.774193548,12.3870968 L3.87096774,12.3870968 C3.87096774,14.9417843 4.33555945,17.4968498 5.3418599,19.8194304 L5.41935484,20.1290323 L5.41935484,20.9032258 Z" id="Path" fill="#CF9E76"></path>
                            <path d="M34.0645161,21.6774194 C34.0645161,19.1227318 33.1353327,16.8772682 31.5869456,15.0967742 L26.0129788,25.703377 L26.6321825,26.4775705 C26.7096774,26.5546875 28.0259576,28.1030746 30.4256553,29.3418599 C32.6711189,27.5613659 34.0645161,24.7741935 34.0645161,21.6774194 L34.0645161,21.6774194 Z" id="Path" fill="#FFC729"></path>
                            <path d="M46.4516129,25.5483871 C46.4516129,25.5483871 43.3548387,29.4193548 37.1612903,29.4193548 C30.9677419,29.4193548 27.8709677,25.5483871 27.8709677,25.5483871 L36,9.98702119 C36.2321069,9.59992442 36.6192037,9.29032258 37.1612903,9.29032258 C37.625882,9.29032258 38.0904737,9.52242948 38.3225806,9.98702119 L46.4516129,25.5483871 Z" id="Path" fill="#A0D468"></path>
                            <path d="M38.3225806,9.98702119 C38.0904737,9.52242948 37.625882,9.29032258 37.1612903,9.29032258 C36.6966986,9.29032258 36.2321069,9.52242948 36,9.98702119 L29.3418599,22.7612147 L29.4193548,22.9162046 C30.890247,24.4645917 33.5224295,26.4000756 37.1612903,26.4000756 C40.8001512,26.4000756 43.4323336,24.4645917 44.9032258,22.9162046 L44.9807207,22.8387097 L38.3225806,9.98702119 Z" id="Path" fill="#FC6E51"></path>
                            <path d="M24.7741935,8.51612903 L23.2258065,8.51612903 C18.9677419,8.51612903 15.483871,5.03225806 15.483871,0.774193548 L17.0322581,0.774193548 C21.2903226,0.774193548 24.7741935,4.25806452 24.7741935,8.51612903 Z" id="Path" fill="#A0D468"></path>
                            <path d="M30.890247,27.8709677 C32.4386341,28.7226562 34.5291078,29.4193548 37.1612903,29.4193548 C39.7934728,29.4193548 41.9614415,28.7226562 43.4323336,27.8709677 L30.890247,27.8709677 Z" id="Path" fill="#8CC152"></path>
                            <path d="M43.6644405,28.6451613 C45.8324092,27.483871 46.9936995,26.1675908 47.0708166,26.0129788 L47.3807963,25.625882 L38.9417843,9.59992442 C38.6321825,8.90322581 37.9354839,8.51612903 37.1612903,8.51612903 C36.3870968,8.51612903 35.6903982,8.90322581 35.3807963,9.59992442 L32.516129,15.0192793 C30.6581401,12.6966986 28.0259576,11.2258065 25.0837954,10.9162046 C25.1612903,10.374118 25.3162802,9.83240923 25.4708922,9.29032258 L25.625882,8.82573087 C26.3225806,6.34853826 27.6388608,4.02595761 29.3418599,2.01297881 L28.1805696,1.00630045 C26.9417843,2.40007558 25.9354839,4.02595761 25.1612903,5.65146174 C23.9225051,2.40007558 20.7482359,2.75048801e-15 17.0322581,2.75048801e-15 L14.7096774,2.75048801e-15 L14.7096774,0.774193548 C14.7096774,5.49684977 18.5031502,9.29032258 23.2258065,9.29032258 L23.8450101,9.29032258 C23.6903982,9.83240923 23.6129032,10.296623 23.5354083,10.8387097 C19.3548387,11.0708166 15.6388608,13.625882 14.0129788,17.4968498 C13.5483871,17.1872479 13.0063005,17.0322581 12.3870968,17.0322581 C11.2258065,17.0322581 10.296623,17.6514617 9.75491429,18.5806452 C9.21282765,18.1160535 8.51612903,17.8064516 7.74193548,17.8064516 C7.50982858,17.8064516 7.27734377,17.8064516 7.12273181,17.8839465 C7.19984884,17.0322581 7.43233365,16.2580645 7.74193548,15.483871 C8.12903226,15.9484627 8.74823594,16.2580645 9.44531245,16.2580645 C10.6837198,16.2580645 11.6903982,15.2517641 11.6903982,14.0129788 L11.6903982,13.780494 C11.6903982,12.5420866 10.6837198,11.5354083 9.36781752,11.5354083 C8.74823594,11.5354083 8.20652719,11.7678931 7.81943042,12.1549899 C7.27734377,10.9162046 6.96774194,9.52242948 6.96774194,8.12903226 L6.96774194,6.96774194 L5.41935484,6.96774194 L5.41935484,8.20652719 C5.41935484,10.0645161 5.88394655,11.9225051 6.6581401,13.5483871 L6.81275206,13.780494 C6.11605345,15.0967742 5.65146174,16.5676664 5.49684977,18.0385585 C4.95476313,16.1805696 4.64516129,14.3225806 4.64516129,12.3870968 L4.64516129,11.6129032 L1.1001952e-14,11.6129032 L1.1001952e-14,12.3870968 C1.1001952e-14,15.0192793 1.00630045,17.4968498 2.78717235,19.3548387 C1.23878526,19.5098286 1.1001952e-14,20.8257309 1.1001952e-14,22.4516129 C1.1001952e-14,24.1549899 1.39339723,25.5483871 3.09677419,25.5483871 L3.17426913,25.5483871 C3.17426913,25.780494 3.09677419,26.0129788 3.09677419,26.3225806 C3.09677419,27.2517641 3.48387097,28.1030746 4.18056958,28.6451613 L1.1001952e-14,28.6451613 L1.1001952e-14,29.4193548 C1.1001952e-14,33.5999244 3.01927926,37.0837954 6.96774194,37.780494 L6.96774194,41.0322581 L41.0322581,41.0322581 L41.0322581,37.780494 C44.9807207,37.0837954 48,33.5999244 48,29.4193548 L48,28.6451613 L43.6644405,28.6451613 Z M8.74823594,13.4708922 C8.90322581,13.2387853 9.05821568,13.1612903 9.36781752,13.1612903 C9.75491429,13.1612903 10.0645161,13.4708922 10.0645161,13.8579889 L10.0645161,14.0904737 C10.0645161,14.4775705 9.75491429,14.7871724 9.36781752,14.7871724 C9.13533271,14.7871724 8.90322581,14.6321825 8.74823594,14.4000756 L8.51612903,13.8579889 L8.74823594,13.4708922 Z M45.5224295,25.3933972 C44.593624,26.3225806 41.8064516,28.6451613 37.1612903,28.6451613 C32.516129,28.6451613 29.7289567,26.3225806 28.8001512,25.3933972 L29.4968498,24 C31.1998488,25.5483871 33.7549143,27.0967742 37.1612903,27.0967742 C40.5676664,27.0967742 43.1227318,25.5483871 44.8257309,24.0774949 L45.5224295,25.3933972 Z M36.6966986,10.296623 C36.8516885,9.98702119 37.3933972,9.98702119 37.625882,10.296623 L44.0515373,22.6066028 C42.5806452,24 40.3355595,25.5483871 37.1612903,25.5483871 C33.9870212,25.5483871 31.7419355,24 30.2710433,22.6066028 L36.6966986,10.296623 Z M23.2258065,7.74193548 C19.6644405,7.74193548 16.7226562,5.03225806 16.3355595,1.5483871 L17.0322581,1.5483871 C20.593624,1.5483871 23.5354083,4.25806452 23.9225051,7.74193548 L23.2258065,7.74193548 Z M23.3033014,12.3870968 C23.2258065,13.0063005 23.2258065,13.5483871 23.2258065,14.0904737 L23.2258065,15.2517641 C22.6837198,14.9417843 22.374118,14.3225806 22.374118,14.3225806 L20.9807207,15.0192793 C21.0582157,15.0967742 21.9870212,17.0322581 24,17.0322581 C26.0129788,17.0322581 26.9417843,15.1742691 27.0192793,15.0192793 L25.625882,14.3225806 C25.625882,14.3225806 25.3162802,14.8646673 24.7741935,15.2517641 L24.7741935,14.0904737 C24.7741935,13.5483871 24.7741935,13.0063005 24.8516885,12.4645917 C27.6388608,12.6966986 30.1160535,14.1675908 31.7419355,16.5676664 L26.9417843,25.703377 L27.2517641,26.0904737 C27.3288811,26.1675908 28.4901714,27.5613659 30.6581401,28.7226562 L21.9870212,28.7226562 C22.219506,28.2580645 22.4516129,27.7159779 22.4516129,27.1742691 C22.4516129,25.4708922 21.0582157,24.0774949 19.3548387,24.0774949 C19.0452369,24.0774949 18.8127521,24.1549899 18.5806452,24.1549899 L18.5806452,24.0774949 C18.5806452,22.374118 17.1872479,20.9807207 15.483871,20.9807207 L15.406376,20.9807207 C15.483871,20.7482359 15.483871,20.4386341 15.483871,20.2065272 C15.483871,19.7419355 15.3288811,19.2773438 15.1742691,18.890247 C16.3355595,15.2517641 19.5869456,12.6966986 23.3033014,12.3870968 L23.3033014,12.3870968 Z M20.9032258,27.0967742 C20.9032258,27.9484627 20.2065272,28.6451613 19.3548387,28.6451613 C18.5031502,28.6451613 17.8064516,27.9484627 17.8064516,27.0967742 C17.8064516,26.2450857 18.5031502,25.5483871 19.3548387,25.5483871 C20.2065272,25.5483871 20.9032258,26.2450857 20.9032258,27.0967742 Z M15.483871,22.4516129 C16.3355595,22.4516129 17.0322581,23.1483115 17.0322581,24 C17.0322581,24.8516885 16.3355595,25.5483871 15.483871,25.5483871 C14.6321825,25.5483871 13.9354839,24.8516885 13.9354839,24 C13.9354839,23.1483115 14.6321825,22.4516129 15.483871,22.4516129 Z M16.2580645,28.6451613 C16.2580645,29.4968498 15.5613659,30.1935484 14.7096774,30.1935484 C13.8579889,30.1935484 13.1612903,29.4968498 13.1612903,28.6451613 C13.1612903,27.7934728 13.8579889,27.0967742 14.7096774,27.0967742 C15.5613659,27.0967742 16.2580645,27.7934728 16.2580645,28.6451613 Z M12.3870968,18.5806452 C13.2387853,18.5806452 13.9354839,19.2773438 13.9354839,20.1290323 C13.9354839,20.9807207 13.2387853,21.6774194 12.3870968,21.6774194 C11.5354083,21.6774194 10.8387097,20.9807207 10.8387097,20.1290323 C10.8387097,19.2773438 11.5354083,18.5806452 12.3870968,18.5806452 Z M10.8387097,23.2258065 C11.6903982,23.2258065 12.3870968,23.9225051 12.3870968,24.7741935 C12.3870968,25.625882 11.6903982,26.3225806 10.8387097,26.3225806 C9.98702119,26.3225806 9.29032258,25.625882 9.29032258,24.7741935 C9.29032258,23.9225051 9.98702119,23.2258065 10.8387097,23.2258065 Z M11.6129032,29.4193548 C11.6129032,30.2710433 10.9162046,30.9677419 10.0645161,30.9677419 C9.21282765,30.9677419 8.51612903,30.2710433 8.51612903,29.4193548 C8.51612903,28.5676664 9.21282765,27.8709677 10.0645161,27.8709677 C10.9162046,27.8709677 11.6129032,28.5676664 11.6129032,29.4193548 Z M7.74193548,19.3548387 C8.59362397,19.3548387 9.29032258,20.0515373 9.29032258,20.9032258 C9.29032258,21.7549143 8.59362397,22.4516129 7.74193548,22.4516129 C6.890247,22.4516129 6.19354839,21.7549143 6.19354839,20.9032258 C6.19354839,20.0515373 6.890247,19.3548387 7.74193548,19.3548387 Z M6.19354839,24.7741935 C7.04523687,24.7741935 7.74193548,25.4708922 7.74193548,26.3225806 C7.74193548,27.1742691 7.04523687,27.8709677 6.19354839,27.8709677 C5.3418599,27.8709677 4.64516129,27.1742691 4.64516129,26.3225806 C4.64516129,25.4708922 5.3418599,24.7741935 6.19354839,24.7741935 Z M1.5483871,13.1612903 L3.09677419,13.1612903 C3.17426913,14.9417843 3.48387097,16.6451613 3.94846268,18.3485383 C2.55468755,16.9547631 1.780494,15.0967742 1.5483871,13.1612903 Z M3.09677419,24 C2.24508571,24 1.5483871,23.3033014 1.5483871,22.4516129 C1.5483871,21.5999244 2.24508571,20.9032258 3.09677419,20.9032258 C3.94846268,20.9032258 4.64516129,21.5999244 4.64516129,22.4516129 C4.64516129,23.3033014 3.94846268,24 3.09677419,24 Z M39.483871,36.3870968 L36.3870968,36.3870968 L36.3870968,37.9354839 L39.483871,37.9354839 L39.483871,39.483871 L8.51612903,39.483871 L8.51612903,37.9354839 L34.8387097,37.9354839 L34.8387097,36.3870968 L8.51612903,36.3870968 C4.95476313,36.3870968 2.01297881,33.6774194 1.62588203,30.1935484 L7.12273181,30.1935484 C7.43233365,31.5098286 8.6711189,32.516129 10.1420111,32.516129 C11.3033014,32.516129 12.2321069,31.8969254 12.7741935,30.9677419 C13.3162802,31.4323336 14.0129788,31.7419355 14.7871724,31.7419355 C15.9484627,31.7419355 16.9547631,31.1227318 17.4193548,30.1935484 L46.4516129,30.1935484 C45.9870212,33.6774194 43.0452369,36.3870968 39.483871,36.3870968 Z" id="Shape" fill="#000000"></path>
                            <polygon id="Path" fill="#000000" points="36.3870968 15.483871 37.9354839 15.483871 37.9354839 17.0322581 36.3870968 17.0322581"></polygon>
                            <polygon id="Path" fill="#000000" points="40.2580645 20.9032258 41.8064516 20.9032258 41.8064516 22.4516129 40.2580645 22.4516129"></polygon>
                            <polygon id="Path" fill="#000000" points="32.516129 20.9032258 34.0645161 20.9032258 34.0645161 22.4516129 32.516129 22.4516129"></polygon>
                        </g>
                    </g>
                </g>
            </g>
        </g>
    </g>
</svg>