<?xml version="1.0" encoding="UTF-8"?>
<svg width="50px" height="50px" viewBox="0 0 50 50" version="1.1" xmlns="http://www.w3.org/2000/svg" xmlns:xlink="http://www.w3.org/1999/xlink">
    <title>Group 5</title>
    <g id="Page-1" stroke="none" stroke-width="1" fill="none" fill-rule="evenodd">
        <g id="LL21---nutrition" transform="translate(-42.000000, -208.000000)">
            <g id="Group-7" transform="translate(16.000000, 200.000000)">
                <g id="Group-6" transform="translate(0.000000, 0.000000)">
                    <g id="Group-5" transform="translate(26.000000, 8.000000)">
                        <rect id="Rectangle" x="0" y="0" width="50" height="50"></rect>
                        <g id="barley" transform="translate(1.000000, 1.000000)" fill-rule="nonzero">
                            <g id="Group" transform="translate(0.898129, 3.792100)">
                                <path d="M37.5445061,28.96682 C39.8019118,28.96682 41.6319006,30.7968089 41.6319006,33.0542145 L41.6319006,35.0979118 C39.374495,35.0979118 37.5445061,33.2679229 37.5445061,31.0105173 L37.5445061,28.96682 L37.5445061,28.96682 Z" id="Path" fill="#FCBF58" transform="translate(39.588203, 32.032366) rotate(30.000728) translate(-39.588203, -32.032366) "></path>
                                <g transform="translate(22.353430, 0.698545)" fill="#FF993A" id="Path">
                                    <path d="M5.63136798,22.5949272 C6.47830506,21.1279964 6.7078135,19.3847015 6.26940345,17.748552 C5.8309934,16.1124026 4.76057763,14.7174253 3.29363825,13.8705031 L1.69696466,16.6360416 C0.850027582,18.1029724 0.62051914,19.8462673 1.05892919,21.4824168 C1.49733924,23.1185662 2.56775502,24.5135435 4.03469439,25.3604657 C7.08939906,27.1240539 10.9953963,26.0774209 12.7590187,23.022736 L14.3556923,20.2571975 C11.3009876,18.4936093 7.39499042,19.5402423 5.63136798,22.5949272 L5.63136798,22.5949272 Z"></path>
                                    <path d="M18.3473763,13.3434012 C15.2926716,11.5798131 11.3866744,12.6264461 9.62305198,15.681131 C10.4699891,14.2142002 10.6994975,12.4709052 10.2610874,10.8347558 C9.8226774,9.19860633 8.75226162,7.80362908 7.28532225,6.95670686 L5.68864865,9.72224532 C4.84171157,11.1891761 4.61220313,12.9324711 5.05061318,14.5686205 C5.48902323,16.20477 6.55943901,17.5997472 8.02637838,18.4466694 C11.0810831,20.2102576 14.9870803,19.1636246 16.7507027,16.1089397 L18.3473763,13.3434012 Z"></path>
                                    <path d="M22.3390603,6.42960499 C19.2843556,4.66601682 15.3783584,5.71264983 13.614736,8.76733472 C14.461673,7.30040392 14.6911815,5.55710896 14.2527714,3.92095951 C13.8143614,2.28481007 12.7439456,0.889832824 11.2770062,0.0429106029 L9.68033264,2.80844906 C8.83339557,4.27537986 8.60388712,6.01867483 9.04229717,7.65482427 C9.48070722,9.29097371 10.551123,10.685951 12.0180624,11.5328732 C15.072767,13.2964613 18.9787643,12.2498283 20.7423867,9.19514345 L22.3390603,6.42960499 Z"></path>
                                    <path d="M8.39756427,24.933597 L8.39756427,28.1268739 C8.39756427,31.6540703 5.53820671,34.5134278 2.0110104,34.5134278 L2.0110104,31.3201509 C2.0110104,27.7929546 4.87036796,24.933597 8.39756427,24.933597 Z" transform="translate(5.204287, 29.723512) rotate(-149.999272) translate(-5.204287, -29.723512) "></path>
                                </g>
                                <path d="M22.3964407,33.7711435 C22.2562941,33.7711435 22.1186111,33.7342947 21.9972723,33.6641663 C18.5645932,31.6771074 17.388067,27.2864394 19.3672516,23.8492141 L20.9639252,21.0836757 C21.1843862,20.7018566 21.6726245,20.5710402 22.0544532,20.7914844 C25.4870601,22.7785014 26.6635819,27.169064 24.684474,30.606237 L23.0878004,33.3717755 C22.9453032,33.618835 22.681749,33.7711435 22.3965405,33.7709439 L22.3964407,33.7711435 Z M21.9191351,22.622869 L20.7501705,24.6477505 C19.3650788,27.0541293 19.9534543,30.1121702 22.1325904,31.8327817 L23.3014553,29.8079002 C24.6866591,27.4015602 24.0983149,24.3434613 21.9191351,22.622869 L21.9191351,22.622869 Z" id="Shape" fill="#000000"></path>
                                <path d="M39.8256299,36.508442 C39.685725,36.508442 39.5482963,36.471532 39.4272599,36.4013638 C37.0904294,35.0521968 36.289751,32.0641174 37.6388857,29.7272682 L38.6608565,27.9572557 C38.8813176,27.5754366 39.3695558,27.4446202 39.7513846,27.6650644 C40.7989376,28.2686647 41.5849109,29.2398929 41.95679,30.3902869 L40.4377547,30.8820624 C40.2721492,30.3697314 39.982997,29.9060323 39.5958087,29.5318753 L39.0220042,30.525605 C38.2681898,31.8328883 38.499378,33.4852547 39.5830353,34.5354511 L40.1573389,33.5408233 C40.4013454,33.120869 40.5483982,32.6516843 40.5877422,32.1675842 L42.1791268,32.2981123 C42.1209605,33.0175789 41.9027536,33.7149546 41.5404574,34.3392599 L40.5184865,36.1091726 C40.3756393,36.3566747 40.1113962,36.5089484 39.8256299,36.508442 L39.8256299,36.508442 Z" id="Path" fill="#000000"></path>
                                <path d="M5.60012988,27.0832144 L5.60012988,29.1266332 C5.60012988,31.3844479 3.76980941,33.2147683 1.51199469,33.2147683 L1.51199469,31.1713495 C1.51199469,28.9135348 3.34231516,27.0832144 5.60012988,27.0832144 Z" id="Path" fill="#FF993A" transform="translate(3.556062, 30.148991) rotate(104.355785) translate(-3.556062, -30.148991) "></path>
                                <path d="M6.02624532,33.6769397 C5.95953299,33.6769397 5.89308652,33.6685329 5.82845738,33.6519917 L3.84928067,33.1445489 C1.2378216,32.4717448 -0.336392566,29.812209 0.330112266,27.1991351 C0.439564333,26.7718086 0.874600023,26.5140213 1.30198753,26.6232349 L3.28126403,27.1307775 C5.89275401,27.8035312 7.46696144,30.4631311 6.80033264,33.0761913 C6.70980071,33.4297381 6.39119932,33.6769397 6.02624532,33.6769397 L6.02624532,33.6769397 Z M1.7724773,28.3922495 C1.76610814,29.9009318 2.78489751,31.2213502 4.24585447,31.5978711 L5.35816763,31.8835759 C5.36458431,30.3748118 4.34566806,29.0543355 2.88459044,28.6779543 L1.7724773,28.3922495 Z" id="Shape" fill="#000000"></path>
                                <polygon id="Path" fill="#000000" transform="translate(40.756975, 1.169614) rotate(-59.999272) translate(-40.756975, -1.169614) " points="39.9586559 0.371344365 41.5552944 0.371344365 41.5552944 1.96788304 39.9586559 1.96788304"></polygon>
                            </g>
                            <g id="Group" transform="translate(2.095634, 3.991684)">
                                <g transform="translate(0.000000, 0.698545)" fill="#FCBF58" id="Path">
                                    <path d="M24.6486486,23.5232931 L23.0519751,20.7577547 C21.5850357,21.6046769 20.5146199,22.9996541 20.0762099,24.6358036 C19.6377998,26.271953 19.8673082,28.015248 20.7142453,29.4821788 C18.9506229,26.4274939 15.0446257,25.3808609 11.989921,27.1444491 L13.5865946,29.9099875 C15.350217,32.9646724 19.2562142,34.0113054 22.3109189,32.2477173 C23.7778583,31.400795 24.8482741,30.0058178 25.2866841,28.3696683 C25.7250942,26.7335189 25.4955857,24.9902239 24.6486486,23.5232931 L24.6486486,23.5232931 Z"></path>
                                    <path d="M20.6569647,16.6094969 L19.0602911,13.8439584 C17.5933517,14.6908806 16.5229359,16.0858579 16.0845259,17.7220073 C15.6461158,19.3581568 15.8756243,21.1014517 16.7225613,22.5683825 C14.9589389,19.5136976 11.0529417,18.4670646 7.99823701,20.2306528 L9.5949106,22.9961913 C11.358533,26.0508762 15.2645303,27.0975092 18.3192349,25.333921 C19.7861743,24.4869988 20.8565901,23.0920215 21.2950001,21.4558721 C21.7334102,19.8197226 21.5039017,18.0764277 20.6569647,16.6094969 L20.6569647,16.6094969 Z"></path>
                                    <path d="M16.8648649,9.76735135 L15.2681913,7.00181289 C13.8012519,7.84873511 12.7308361,9.24371236 12.2924261,10.8798618 C11.854016,12.5160112 12.0835245,14.2593062 12.9304615,15.726237 C11.1668391,12.6715521 7.26084189,11.6249191 4.20613721,13.3885073 L5.80281081,16.1540457 C7.56652207,19.2083226 11.4721211,20.2547747 14.5266362,18.4914761 C17.5813824,16.7280302 18.6282335,12.8221422 16.8648649,9.76735135 L16.8648649,9.76735135 Z"></path>
                                    <path d="M12.6735967,2.78190437 L11.0769231,0.0163659044 C9.60998371,0.863288125 8.53956793,2.25826537 8.10115788,3.89441482 C7.66274783,5.53056426 7.89225627,7.27385923 8.73919335,8.74079002 C6.97557091,5.68610513 3.0695737,4.63947212 0.0148690229,6.40306029 L1.61154262,9.16859875 C3.37525387,12.2228756 7.2808529,13.2693277 10.335368,11.5060291 C13.3901142,9.74258319 14.4369653,5.83669522 12.6735967,2.78190437 L12.6735967,2.78190437 Z"></path>
                                </g>
                                <polygon id="Path" fill="#000000" transform="translate(3.948543, 1.142501) rotate(-30.000728) translate(-3.948543, -1.142501) " points="3.15027323 0.344182154 4.74681191 0.344182154 4.74681191 1.94082062 3.15027323 1.94082062"></polygon>
                            </g>
                            <polygon id="Path" fill="#E0A23A" points="25.7888732 36.1396091 23.0233347 37.7362827 28.4172973 47.2016632 32.0926403 47.2016632"></polygon>
                            <path d="M45.9897879,10.2286902 C45.7588311,10.0952698 45.520736,9.97460659 45.2765738,9.86724324 L47.6934387,5.68126403 L46.3107193,4.88292723 L43.7122328,9.38355094 C42.6578951,9.18769051 41.5730269,9.23117255 40.5377464,9.51078586 C40.2933692,9.5762444 40.0525475,9.65431994 39.8162495,9.74469854 L41.1500707,7.43451143 L39.7674511,6.63617464 L38.430237,8.95135135 C38.2237992,7.63780439 37.658353,6.40686335 36.796341,5.39446154 L39.3965239,0.890844075 L38.0139044,0.0925072765 L35.5971393,4.2795842 C35.3822134,4.12159449 35.158739,3.97557657 34.9277339,3.84219543 C34.5459051,3.62175122 34.0576668,3.75256762 33.8372058,4.13438669 L32.2405322,6.89992516 C31.5257134,8.13467682 31.1969852,9.55518027 31.2966985,10.9784283 C31.1794761,10.9012557 31.0592931,10.8271102 30.9361497,10.7559917 C30.5543209,10.5355475 30.0660826,10.6663639 29.8456216,11.048183 L28.248948,13.8137214 C27.5341315,15.0484375 27.2054027,16.4689086 27.3051143,17.8921247 C27.1875593,17.8148857 27.0673763,17.7407734 26.9445655,17.6697879 C26.7611138,17.563913 26.5431074,17.5352808 26.3385383,17.5901944 C26.1339693,17.645108 25.9596077,17.7790657 25.8538378,17.962578 L24.2571642,20.7281164 C24.0885259,21.0200816 23.9406026,21.323531 23.8144865,21.6362245 C23.7047075,21.3843987 23.5808357,21.1389541 23.4434595,20.9010561 L21.8467859,18.1356175 C21.6265439,17.7538803 21.138631,17.6228232 20.7567568,17.8428274 C20.6339459,17.9137464 20.513763,17.9878586 20.3962079,18.0651642 C20.495834,16.6419423 20.167074,15.2214866 19.4522744,13.9867609 L17.8556008,11.2212225 C17.6351398,10.8394034 17.1469015,10.708587 16.7650728,10.9290312 C16.642262,10.9999501 16.522079,11.0740291 16.4045239,11.1512682 C16.5041421,9.72807863 16.175382,8.30765707 15.4605904,7.07296466 L13.8639168,4.3074262 C13.6434558,3.92560712 13.1552175,3.79479072 12.7733888,4.01523493 C12.5423617,4.14858043 12.3188854,4.29459961 12.1039834,4.4526237 L9.68641996,0.26614553 L8.30380042,1.06448233 L10.9039834,5.56839917 C10.0419503,6.58082608 9.47650256,7.81180513 9.27008732,9.12538877 L7.93287318,6.81021206 L6.55025364,7.60854886 L7.88407484,9.91883576 C7.64777687,9.82845715 7.40695514,9.75038161 7.16257796,9.68492308 C6.12731302,9.40520823 5.04242181,9.36172528 3.98809148,9.55768815 L1.38960499,5.05706445 L0.00688565489,5.85540125 L2.42375052,10.0413805 C2.1795883,10.1487438 1.94149326,10.269407 1.71053638,10.4028274 C1.32871731,10.6232885 1.1979009,11.1115267 1.41834511,11.4933555 L1.98586279,12.4740125 L3.36848233,11.6756757 L3.22877339,11.4341788 C5.80872658,10.4041086 8.75366643,11.4246176 10.1430686,13.8301871 L11.3121331,15.8550686 C8.73244156,16.8822128 5.78969919,15.8628459 4.39813721,13.4600582 L3.01531809,14.258395 C3.72727467,15.4944978 4.7929593,16.4891762 6.07514345,17.1143451 C5.94960499,17.1775468 5.82539709,17.2445738 5.70251975,17.3154262 C5.32070068,17.5358872 5.18988427,18.0241255 5.41032848,18.4059543 L7.00700208,21.1714927 C7.7167378,22.4084281 8.78084831,23.4043068 10.0620374,24.0306362 C9.93809563,24.093106 9.81551767,24.1593015 9.69430353,24.2292225 C9.31248446,24.4496835 9.18166806,24.9379217 9.40211227,25.3197505 L10.9987859,28.085289 C11.7085216,29.3222244 12.7726321,30.3181031 14.0538212,30.9444324 C13.9298794,31.0069023 13.8073015,31.0730977 13.6860873,31.1430187 C13.3042682,31.3634797 13.1734518,31.851718 13.393896,32.2335468 L14.9905696,34.9990852 C16.5158404,37.6319823 19.5313422,39.0220747 22.5239751,38.4718503 L27.7239418,47.5970395 C27.8659345,47.8461183 28.130588,48 28.4172973,48 L32.0931393,48 C32.377546,48 32.6404658,47.8486561 32.7833519,47.6027481 C32.926238,47.3568401 32.9275113,47.0534854 32.7866944,46.8063867 L30.5114345,42.8147027 L29.1243243,43.6052557 L30.7189023,46.4033264 L28.881131,46.4033264 L24.1097713,38.0307692 L24.8033264,37.6303035 L24.8049231,37.6293056 L24.8072183,37.6280083 L25.4923909,37.2324324 L28.2141206,42.0085821 L29.6012308,41.2180291 L27.923526,38.2741622 C29.9382942,37.8617083 31.6803276,36.6069489 32.7098545,34.8266445 L34.3065281,32.061106 C34.5269723,31.6792773 34.3961559,31.191039 34.0143368,30.970578 C33.8915925,30.8997256 33.767185,30.8327651 33.6411143,30.7696965 C34.9236445,30.1443934 35.9895872,29.1494232 36.7016383,27.912948 L38.2983119,25.1473098 C38.4041648,24.9639366 38.4328376,24.7460239 38.3780224,24.5415102 C38.3232071,24.3369965 38.1893941,24.1626344 38.0060208,24.0567817 C37.8848067,23.9867277 37.7620956,23.9204657 37.6378877,23.8579958 C38.7974618,23.2905728 39.7815954,22.4195196 40.4856549,21.337447 L39.1484407,20.4649647 C37.6926906,22.692692 34.8676664,23.584372 32.3968067,22.5960249 L33.5659709,20.5709439 C34.9553731,18.1653744 37.9003129,17.1448654 40.4802661,18.1749356 L40.0844906,18.8607069 L41.4671102,19.6590437 L42.2902952,18.2332141 C42.5107394,17.8513854 42.379923,17.3631471 41.998104,17.1426861 C41.8752931,17.0717672 41.7510187,17.0047069 41.6252807,16.9415052 C42.9076613,16.3162653 43.9734428,15.3213528 44.6853056,14.0849563 L46.2819792,11.3194179 C46.3879038,11.1360388 46.4166272,10.918087 46.3618282,10.7135265 C46.3070292,10.5089661 46.1731985,10.3345603 45.9897879,10.2286902 L45.9897879,10.2286902 Z M25.6398836,21.5259543 L26.8092474,19.5001746 C28.991434,21.2194845 29.5800821,24.2803359 28.1912682,26.6864033 L27.4869356,27.9063617 C27.4697713,27.8756258 27.4525073,27.8449896 27.4348441,27.8143534 L25.8381705,25.048815 C25.6502404,24.7231858 25.2605813,24.5728086 24.9026195,24.6877672 C24.8293854,23.5840371 25.0860158,22.4834581 25.6398836,21.5259543 L25.6398836,21.5259543 Z M20.8913763,19.6735135 L22.0606403,21.6992931 C23.4492244,24.1053536 22.860554,27.1660145 20.6785198,28.8853222 L19.5091559,26.8595426 C18.120472,24.4535118 18.7092054,21.3927868 20.8913763,19.6736133 L20.8913763,19.6735135 Z M21.1643077,31.3180541 C20.9328214,31.1696477 20.692917,31.0348014 20.4458046,30.9141954 C20.5698129,30.8517256 20.6924241,30.7854969 20.8136383,30.7155094 C20.9365156,30.6445239 21.0567318,30.5704449 21.1742869,30.4932723 C21.155137,30.7677803 21.1518051,31.0431631 21.1643077,31.3180541 L21.1643077,31.3180541 Z M16.8996923,12.7596175 L18.0689563,14.7853971 C19.454093,17.1917684 18.8657114,20.2498405 16.6865364,21.9704283 L15.5176715,19.9456466 C14.1290192,17.5395776 14.7177451,14.4788494 16.8998919,12.7596175 L16.8996923,12.7596175 Z M17.1680333,24.401264 C16.9378916,24.2540667 16.6994959,24.1201919 16.4540208,24.0002994 C16.5780291,23.9379626 16.7006403,23.8717672 16.8218545,23.8017131 C16.9430686,23.731659 17.0617214,23.6584782 17.1778129,23.5821705 C17.158895,23.8547901 17.1556298,24.1282704 17.1680333,24.401264 L17.1680333,24.401264 Z M12.9083077,5.84632017 L14.0772723,7.87130146 C15.462364,10.2776803 14.8739885,13.3357212 12.6948524,15.0563326 L11.5259875,13.0318503 C10.1405809,10.6253802 10.7289357,7.56701411 12.9083077,5.84632017 L12.9083077,5.84632017 Z M13.1763493,17.4874678 C12.9461964,17.3402319 12.7077652,17.2063559 12.462237,17.0865031 C12.5859792,17.0242328 12.7086237,16.9580374 12.8301705,16.8879168 C12.9517173,16.8177963 13.0703701,16.7446154 13.1861289,16.6683742 C13.1672111,16.9409939 13.1639458,17.2144742 13.1763493,17.4874678 L13.1763493,17.4874678 Z M8.38972141,20.3734553 L7.22035759,18.3476757 C9.80031078,17.3176055 12.7452506,18.3381145 14.1346528,20.743684 L15.3037173,22.7685655 C12.7240044,23.7958293 9.78116428,22.7763861 8.38972141,20.3734553 L8.38972141,20.3734553 Z M12.3814054,27.2872516 L11.2120416,25.2614719 C13.7919948,24.2314018 16.7369346,25.2519108 18.1263368,27.6574802 L19.2957006,29.6832599 C16.7157474,30.71333 13.7708076,29.6928211 12.3814054,27.2872516 Z M16.3730894,34.2010478 L15.2037256,32.1752682 C17.7836788,31.145198 20.7286186,32.165707 22.1180208,34.5712765 L23.2870852,36.5962578 C20.7073448,37.6233675 17.7645873,36.6039105 16.3730894,34.2010478 L16.3730894,34.2010478 Z M24.6699044,35.7977214 L23.5010395,33.7732391 C22.11588,31.3668517 22.7043109,28.3087438 24.8835593,26.5882079 L26.0525239,28.6130894 C26.2413299,28.939801 26.3965986,29.2847758 26.5159584,29.6427443 C26.4424712,29.9133655 26.5165092,30.2026971 26.7109522,30.4047568 C27.0784083,32.4414816 26.2937245,34.5149681 24.6699044,35.7981206 L24.6699044,35.7977214 Z M31.3275343,34.0276091 C30.4331427,35.573602 28.8548384,36.6001263 27.0789854,36.7908524 L26.672632,36.077738 C27.6518951,34.9276684 28.2458494,33.4994629 28.370894,31.9941455 C29.6973828,31.4744735 31.1717418,31.4780404 32.4957006,32.0041247 L31.3275343,34.0276091 Z M32.9675177,24.8805655 C34.1325505,24.5648112 35.3687935,24.6377931 36.4885821,25.0884324 L35.3192183,27.1142121 C33.9276273,29.5169646 30.984915,30.536321 28.4052225,29.5092225 L29.5742869,27.484341 C30.3123298,26.1982399 31.5341718,25.2608104 32.9675177,24.8809647 L32.9675177,24.8805655 Z M30.5226112,23.4089314 C30.6383701,23.484973 30.7570229,23.5581538 30.8785696,23.628474 C31.0001164,23.6987942 31.1227609,23.7649896 31.2465031,23.8270603 C31.000964,23.9468921 30.7625316,24.0807688 30.5323909,24.2280249 C30.5448498,23.9551681 30.5416512,23.6818212 30.5228108,23.4093306 L30.5226112,23.4089314 Z M32.1829522,19.7726071 L31.0138877,21.7974886 C28.8347127,20.0769008 28.2463311,17.0188286 29.6314678,14.6124574 L30.8004324,12.5875759 C32.9796418,14.3081355 33.5680667,17.3662121 32.1829522,19.7726071 L32.1829522,19.7726071 Z M34.5194844,17.3177214 C34.531937,17.0427631 34.5286051,16.7673168 34.5095052,16.4927401 C34.6267942,16.5699127 34.7469771,16.6440582 34.8700541,16.7151767 C34.9915343,16.7852973 35.1141788,16.8514927 35.2379875,16.913763 C34.9909503,17.0343156 34.751113,17.1690949 34.519684,17.317422 L34.5194844,17.3177214 Z M35.0055717,14.8839917 C32.8264356,13.1633802 32.2380601,10.1053393 33.6231518,7.6989605 L34.7921164,5.674079 C36.9713648,7.3946149 37.5597957,10.4527228 36.1746362,12.8591102 L35.0055717,14.8839917 Z M43.3023867,13.2873181 C41.9108247,15.6901058 38.9680824,16.7094727 36.3883909,15.6823285 L37.5574553,13.657447 C38.9468575,11.2518775 41.8917973,10.2313685 44.4717505,11.2614387 L43.3023867,13.2873181 Z" id="Shape" fill="#000000"></path>
                        </g>
                    </g>
                </g>
            </g>
        </g>
    </g>
</svg>