<?xml version="1.0" encoding="UTF-8"?>
<svg width="28px" height="28px" viewBox="0 0 28 28" version="1.1" xmlns="http://www.w3.org/2000/svg" xmlns:xlink="http://www.w3.org/1999/xlink">
    <title>Group 14</title>
    <g id="Page-1" stroke="none" stroke-width="1" fill="none" fill-rule="evenodd">
        <g id="LL21---Expecting---and-also-have-other-kids" transform="translate(-168.000000, -123.000000)">
            <g id="Group-12" transform="translate(16.000000, 121.000000)">
                <g id="Group-3-Copy" transform="translate(146.000000, 0.000000)">
                    <g id="Group-14" transform="translate(6.000000, 2.000000)">
                        <rect id="Rectangle" x="0" y="0" width="28" height="28"></rect>
                        <g id="Group-69" transform="translate(4.000000, 8.000000)">
                            <polygon id="Fill-11" fill="#FFE1BB" points="10.4857301 4.1450304 7.22355223 6.14912106 4.60299252 5.98262023 3.23352729 5.92800442 3.13904129 7.16189055 3.39977833 8.47084577 4.28645054 8.80252073 4.91925741 9.36940851 6.226046 11.0689663 9.38481574 12.5062244 12.0448324 11.9534328 14.6872264 9.36553897 15.6469382 8.63668325 16.5336104 7.75221669 16.2565254 6.25967938 15.6093101 5.88466556 12.8760876 5.43049198"></polygon>
                            <path d="M5.973954,6.52408513 C5.38287614,6.52408513 4.90019396,6.38489221 4.38908285,6.23751797 L4.25785536,6.19981758 C4.09914104,6.15432283 4.00703796,5.98854063 4.05259075,5.8302764 C4.08922139,5.70285793 4.20753671,5.61380321 4.34037129,5.61380321 C4.36813522,5.61380321 4.39595456,5.61772803 4.42288723,5.62541183 L4.55500139,5.66349917 C5.02482682,5.79898839 5.46788584,5.92668325 5.973954,5.92668325 C7.76248268,5.92668325 9.43568856,5.12613046 10.4498753,3.78511332 C10.5069548,3.70954671 10.5941812,3.66626313 10.6891106,3.66626313 C10.7546135,3.66626313 10.8169022,3.68710337 10.8693267,3.72657269 C11.0011083,3.8257435 11.0274868,4.01347153 10.9280687,4.14498065 C9.80133001,5.63469873 7.94934885,6.52408513 5.973954,6.52408513" id="Fill-13" fill="#7A63AD"></path>
                            <path d="M10.6891604,3.63861249 L10.6891604,3.63861249 C10.5854198,3.63861249 10.4901025,3.68593145 10.4277584,3.76846324 C9.41878083,5.10257048 7.75383209,5.89908789 5.97394846,5.89908789 C5.47181491,5.89908789 5.03058465,5.77183527 4.56341923,5.63711996 L4.43064007,5.59886678 C4.4011028,5.59046434 4.37073428,5.58615257 4.34042117,5.58615257 C4.19528401,5.58615257 4.0659407,5.68344389 4.02592962,5.8226921 C3.97616514,5.99560531 4.07680244,6.17669983 4.25025769,6.2263958 L4.38098642,6.26398563 C4.8945913,6.4120785 5.37910224,6.55171365 5.97394846,6.55171365 C7.95798836,6.55171365 9.81828207,5.65823659 10.9501746,4.1616639 C11.0587919,4.01793809 11.0300305,3.8128524 10.8860017,3.70444997 C10.8287559,3.66138751 10.7607038,3.63861249 10.6891604,3.63861249 M10.6891604,3.69389152 C10.7461291,3.69383637 10.8035966,3.71163626 10.8526406,3.74856274 C10.9724522,3.83883361 10.9962815,4.00881703 10.9059518,4.12833057 C9.78442228,5.61119403 7.94069825,6.49643449 5.97394846,6.49643449 C5.38663896,6.49643449 4.90561929,6.3576838 4.39633694,6.21086235 L4.26555278,6.17327253 C4.12124688,6.13192371 4.03784428,5.98178552 4.07918537,5.83789386 C4.11337767,5.71898839 4.22216126,5.64143173 4.34042117,5.64143173 C4.36513716,5.64143173 4.39029648,5.64485904 4.41528955,5.65199005 L4.54729288,5.69002211 C5.01855916,5.82589829 5.46366861,5.95436705 5.97394846,5.95436705 C7.77112219,5.95436705 9.45264062,5.14961305 10.4719812,3.80174129 C10.5253477,3.73114981 10.6067553,3.69389152 10.6891604,3.69389152" id="Fill-15" fill="#7A63AD"></path>
                            <path d="M15.1351344,6.19662244 C13.3175118,6.19662244 11.6153228,5.45555003 10.4650319,4.16339967 C10.355417,4.04018242 10.3667221,3.85096186 10.4901358,3.74161968 C10.5449986,3.6930293 10.6155999,3.66627418 10.6888612,3.66627418 C10.774425,3.66627418 10.8561097,3.70292427 10.9129122,3.76671642 C11.9497091,4.93133776 13.4886395,5.59927584 15.1351344,5.59927584 C15.183458,5.59927584 15.2313937,5.59778331 15.279274,5.59634605 L15.3396786,5.59446656 C15.4985592,5.59446656 15.6319479,5.72426202 15.6369909,5.88379768 C15.63954,5.96356551 15.6107786,6.03957435 15.5560266,6.09778331 C15.5012746,6.15593698 15.4270712,6.18932559 15.3471045,6.19186844 L15.3185093,6.19280818 C15.2575506,6.19474295 15.1966473,6.19662244 15.1351344,6.19662244" id="Fill-17" fill="#7A63AD"></path>
                            <path d="M10.6889166,3.63866777 C10.608839,3.63866777 10.5316985,3.66785517 10.4717373,3.72097844 C10.3368523,3.84043671 10.3245497,4.04718076 10.4442505,4.18173024 C11.599806,5.47985075 13.3095871,6.22423991 15.1351344,6.22423991 C15.1967581,6.22423991 15.2584372,6.22230514 15.3180105,6.22048093 L15.348102,6.2194859 C15.4353283,6.21677722 15.5164034,6.1802377 15.5761984,6.11666667 C15.6360488,6.05309563 15.6674148,5.97012161 15.6646994,5.88294638 C15.6591577,5.70859591 15.5134109,5.56686014 15.339734,5.56686014 C15.3354669,5.56686014 15.3311998,5.5669707 15.3269327,5.56708126 L15.2981158,5.56802101 L15.281657,5.5685738 C15.2336104,5.57006633 15.1840122,5.57161415 15.1351344,5.57161415 C13.4965087,5.57161415 11.965115,4.90704809 10.9336381,3.74834163 C10.8715711,3.6786346 10.7823497,3.63866777 10.6889166,3.63866777 M10.6889166,3.69394693 C10.7638404,3.69394693 10.8384317,3.72468214 10.8921862,3.78504699 C11.9341369,4.95552792 13.480604,5.62689331 15.1351344,5.62689331 C15.1903851,5.62689331 15.2451926,5.62501382 15.2999446,5.62330017 L15.3290939,5.62236042 C15.3326406,5.62219458 15.3361873,5.6221393 15.3396786,5.6221393 C15.4846495,5.6221393 15.6046827,5.73850193 15.6092823,5.88466003 C15.6140482,6.034356 15.4962871,6.15956329 15.3462732,6.16426202 L15.3175672,6.16520177 C15.256941,6.16708126 15.1963148,6.16896075 15.1351344,6.16896075 C13.3254364,6.16896075 11.6307842,5.43131564 10.4857024,4.14502488 C10.386118,4.03308458 10.3962594,3.86177446 10.5085342,3.76227197 C10.5602937,3.71650083 10.6247437,3.69394693 10.6889166,3.69394693" id="Fill-19" fill="#7A63AD"></path>
                            <path d="M9.85441397,10.765738 C9.25070103,10.765738 8.6792962,10.5745274 8.32590191,10.2541846 C8.2037074,10.1434052 8.19461901,9.95412935 8.3056747,9.83218353 C8.36236631,9.76993919 8.44316431,9.73422886 8.52739817,9.73422886 C8.60198947,9.73422886 8.67347742,9.76186844 8.7287836,9.81206191 C8.97489055,10.0351686 9.39572735,10.1683361 9.85441397,10.1683361 C10.313156,10.1683361 10.7339928,10.0351686 10.9800998,9.81206191 C11.0354613,9.76197899 11.1070047,9.73439469 11.181596,9.73439469 C11.2658299,9.73439469 11.3466279,9.77004975 11.4032086,9.83218353 C11.5142643,9.95412935 11.5051759,10.1434052 11.3829814,10.2541846 C11.0295871,10.5745274 10.4581823,10.765738 9.85441397,10.765738" id="Fill-21" fill="#7A63AD"></path>
                            <path d="M8.52743696,9.7066335 C8.4353893,9.7066335 8.34711,9.74560531 8.28515378,9.81365395 C8.16384594,9.94687673 8.17376559,10.1536208 8.30726517,10.2746269 C8.66559158,10.5993919 9.24397894,10.7933665 9.85439734,10.7933665 C10.4648712,10.7933665 11.0432585,10.5993919 11.4015849,10.2746269 C11.5350845,10.1536208 11.5450596,9.94687673 11.4237517,9.81365395 C11.3618509,9.74571587 11.273627,9.70674406 11.1815794,9.70674406 C11.100061,9.70679934 11.021923,9.7368712 10.9615184,9.79159757 C10.7202882,10.0102266 10.3064339,10.1407407 9.85439734,10.1407407 C9.40241618,10.1407407 8.98856193,10.0102266 8.74738709,9.79159757 C8.68703796,9.73681592 8.60889997,9.7066335 8.52743696,9.7066335 M8.52743696,9.76191266 C8.59260737,9.76191266 8.65799945,9.78518519 8.71009144,9.83250415 C8.96124134,10.0601437 9.38900526,10.1960199 9.85439734,10.1960199 C10.3199002,10.1960199 10.7476642,10.0601437 10.9987587,9.83250415 C11.0509061,9.78535102 11.1163536,9.7620785 11.1815794,9.76202322 C11.2555057,9.76202322 11.3291549,9.79192924 11.3826877,9.85074627 C11.4836021,9.96158098 11.475345,10.1331122 11.3643447,10.2337203 C11.0158825,10.5495854 10.4514048,10.7380873 9.85439734,10.7380873 C9.25744528,10.7380873 8.693023,10.5495854 8.34456082,10.2337203 C8.23350513,10.1331122 8.22524799,9.96158098 8.32616237,9.85074627 C8.37980604,9.79187396 8.45351067,9.76191266 8.52743696,9.76191266" id="Fill-23" fill="#7A63AD"></path>
                            <path d="M9.80254364,12.7436926 C7.53016902,12.7436926 5.45530064,11.3218021 4.63950679,9.20560531 C4.61085619,9.13103372 4.61296204,9.04988391 4.64538099,8.97691542 C4.67791078,8.90400221 4.7369299,8.84811498 4.81163203,8.81953566 C4.84615683,8.80621338 4.88228872,8.7995246 4.91897479,8.7995246 C5.04205597,8.7995246 5.15444167,8.87652847 5.19860903,8.99106689 C5.92606816,10.8783527 7.77622056,12.1462908 9.80254364,12.1462908 C11.8305292,12.1462908 13.6812912,10.8768601 14.4079191,8.98741846 C14.452031,8.87265893 14.5643613,8.79548922 14.6873871,8.79548922 C14.724184,8.79548922 14.7602605,8.80223328 14.7948407,8.81550028 C14.9489554,8.8745937 15.0262621,9.04767275 14.9670768,9.20140409 C14.1522804,11.3201437 12.0768024,12.7436926 9.80254364,12.7436926" id="Fill-25" fill="#7A63AD"></path>
                            <path d="M14.6874647,8.7678607 L14.6874647,8.7678607 C14.5529676,8.7678607 14.4302189,8.85210614 14.3820615,8.97753455 C13.6595345,10.8563074 11.8191355,12.1186622 9.80256581,12.1186622 C7.78760321,12.1186622 5.9478138,10.8577999 5.22445553,8.98112769 C5.17624273,8.85603096 5.05349404,8.77189608 4.91905237,8.77189608 C4.87887503,8.77189608 4.8393627,8.7792482 4.80162372,8.79378662 C4.72010529,8.82496407 4.65559989,8.88610282 4.62007758,8.96576009 C4.5846107,9.04541736 4.58228318,9.13408513 4.61364921,9.21551133 C5.43354392,11.3423217 7.51877528,12.7713433 9.80256581,12.7713433 C12.0881851,12.7713433 14.174026,11.3406633 14.9929787,9.21125484 C15.0575949,9.04331675 14.9731394,8.85420674 14.8047271,8.78969596 C14.7670435,8.77521282 14.7275866,8.7678607 14.6874647,8.7678607 M14.6874647,8.82313986 C14.7198282,8.82313986 14.7528013,8.82894417 14.7848878,8.84127142 C14.924982,8.89494748 14.9950291,9.05171918 14.9412192,9.19152018 C14.1304683,11.2996462 12.0654087,12.7160641 9.80256581,12.7160641 C7.54160709,12.7160641 5.47710169,11.3013046 4.6654087,9.19561083 C4.61154336,9.05580984 4.68142422,8.89898286 4.82157384,8.8453068 C4.85360488,8.83303483 4.886578,8.82717523 4.91905237,8.82717523 C5.02816847,8.82717523 5.13124411,8.89334439 5.17275145,9.00102819 C5.90425603,10.8988723 7.76488224,12.1739414 9.80256581,12.1739414 C11.8419119,12.1739414 13.7030923,10.8973245 14.4337656,8.99726921 C14.4752175,8.88941957 14.5782377,8.82313986 14.6874647,8.82313986" id="Fill-27" fill="#7A63AD"></path>
                            <path d="M4.34017733,6.21130459 C4.17675256,6.21130459 4.04247714,6.0786346 4.04092546,5.9155058 L4.04048213,5.90074627 C4.04003879,5.88852957 4.03965087,5.87614704 4.03965087,5.86343284 C4.03965087,2.66520177 6.64812968,0.06315644 9.8543918,0.06315644 C13.0606539,0.06315644 15.6691881,2.66520177 15.6691881,5.86343284 C15.6691881,5.86691542 15.6689111,5.87846877 15.6687448,5.88195135 C15.6688002,6.04508015 15.534414,6.17857933 15.3693267,6.17857933 C15.204184,6.17857933 15.0698531,6.04397457 15.0698531,5.87846877 C15.0698531,5.87504146 15.0701302,5.86365395 15.0702411,5.86006081 C15.0702411,2.99344942 12.7304239,0.66055832 9.8543918,0.66055832 C6.97841507,0.66055832 4.63859795,2.994555 4.63859795,5.86343284 L4.63992796,5.90920398 C4.64064838,5.98946932 4.61027986,6.06481481 4.55425326,6.12180763 C4.49822666,6.17874516 4.42330285,6.21053068 4.34328069,6.21130459 L4.34017733,6.21130459 Z" id="Fill-29" fill="#7A63AD"></path>
                            <path d="M9.85441397,0.0355334439 C6.63285675,0.0355334439 4.01196453,2.64990603 4.01196453,5.86344942 C4.01196453,5.8764953 4.01235245,5.88932007 4.01285121,5.90214483 L4.01323912,5.91684909 C4.01495705,6.09396352 4.16159047,6.23896075 4.3401995,6.23896075 L4.34352452,6.23896075 C4.43097257,6.23813156 4.5128235,6.20341625 4.57400388,6.14111664 C4.63518426,6.07887231 4.66843447,5.99661692 4.66760321,5.90944168 L4.66632862,5.8619016 C4.66632862,3.00982863 6.99367692,0.688214483 9.85441397,0.688214483 C12.715151,0.688214483 15.0424993,3.00866777 15.0424993,5.86096186 C15.0423885,5.86300719 15.0421114,5.87489221 15.0421114,5.87848535 C15.0421114,6.05919292 15.1889111,6.20623549 15.3693489,6.20623549 C15.5497312,6.20623549 15.6964755,6.06035379 15.6964755,5.88102819 C15.6965863,5.87925926 15.6968634,5.86704256 15.6968634,5.86344942 C15.6968634,2.64990603 13.0759712,0.0355334439 9.85441397,0.0355334439 M9.85441397,0.0908126036 C13.0454364,0.0908126036 15.6414464,2.68036484 15.6414464,5.86344942 C15.6414464,5.86671089 15.6411693,5.877822 15.6410585,5.88102819 C15.6410585,6.03077944 15.5194181,6.15095633 15.3693489,6.15095633 C15.2192242,6.15095633 15.0975284,6.02818132 15.0975284,5.87848535 C15.0975284,5.87522388 15.0978055,5.86438917 15.0979163,5.86096186 C15.0979163,2.97936982 12.7456858,0.632935323 9.85441397,0.632935323 C6.96314214,0.632935323 4.61091161,2.97936982 4.61091161,5.86344942 L4.6121862,5.90999447 C4.61362704,6.05969044 4.49315046,6.18224433 4.34302577,6.18368159 L4.34036575,6.18368159 L4.3401995,6.18368159 C4.19140482,6.18368159 4.07009698,6.06394693 4.06865614,5.91524599 L4.0682128,5.89998894 C4.06776947,5.88782753 4.06738155,5.87572139 4.06738155,5.86344942 C4.06738155,2.68036484 6.66339152,0.0908126036 9.85441397,0.0908126036" id="Fill-31" fill="#7A63AD"></path>
                            <path d="M4.9192685,9.39703704 C4.91500139,9.39703704 4.91078969,9.39703704 4.90652258,9.39676064 C3.19075644,9.32766169 2.56775838,8.02241017 2.56775838,7.16187949 C2.56775838,6.22423438 3.15911333,5.56939746 4.00577445,5.56939746 C4.14298698,5.56939746 4.28158493,5.58775014 4.41768911,5.62395799 C4.57723469,5.66657822 4.67233029,5.83059149 4.6297146,5.98974019 C4.59480188,6.12025428 4.47587697,6.21140962 4.34049321,6.21140962 C4.31444722,6.21140962 4.28845664,6.20798231 4.26313106,6.20123825 C4.17740094,6.17835268 4.09078415,6.16674406 4.00577445,6.16674406 C3.42616791,6.16674406 3.16670546,6.66652294 3.16670546,7.16187949 C3.16670546,7.59764511 3.48369077,8.74148148 4.93112774,8.79985627 C5.09610418,8.80654505 5.22494874,8.94584854 5.2182987,9.11035931 C5.21181491,9.27111111 5.08047659,9.39703704 4.9192685,9.39703704" id="Fill-33" fill="#7A63AD"></path>
                            <path d="M4.00575783,5.5418021 C3.1428041,5.5418021 2.54008867,6.20802653 2.54008867,7.16192371 C2.54008867,8.03301271 3.17012469,9.35451631 4.90584095,9.42438917 C4.90972014,9.42461028 4.91448601,9.42461028 4.91925187,9.42461028 C5.09536714,9.42461028 5.2388972,9.28707573 5.24599058,9.11150912 C5.25325021,8.93174129 5.11249099,8.77950249 4.93227487,8.77226092 C3.50667221,8.71471531 3.19445276,7.5903372 3.19445276,7.16192371 C3.19445276,6.68033167 3.44532557,6.19442786 4.00575783,6.19442786 C4.08849543,6.19442786 4.17267387,6.20570481 4.25596564,6.22792703 C4.28367415,6.23527916 4.31210308,6.23903814 4.340532,6.23903814 C4.48838459,6.23903814 4.61833749,6.13948038 4.65651981,5.99686014 C4.7030701,5.82300719 4.5991632,5.64379215 4.4248767,5.59730238 C4.28650042,5.56048646 4.14546412,5.5418021 4.00575783,5.5418021 M4.00575783,5.59708126 C4.14064284,5.59708126 4.27691327,5.61510227 4.41057911,5.65075732 C4.55555001,5.68939746 4.64172347,5.83787728 4.60298698,5.9826534 C4.57051261,6.10382532 4.46056525,6.18375898 4.340532,6.18375898 C4.31731227,6.18375898 4.29376004,6.18077391 4.27026323,6.17447208 C4.18231643,6.15103372 4.09331671,6.1391487 4.00575783,6.1391487 C3.40703242,6.1391487 3.13903574,6.65291321 3.13903574,7.16192371 C3.13903574,7.60504146 3.46078692,8.76817026 4.93005819,8.8274848 C5.08001663,8.83356551 5.19666944,8.95965727 5.19062898,9.10924268 C5.18469936,9.25517966 5.06433361,9.36933112 4.91925187,9.36933112 C4.91553893,9.36933112 4.91182599,9.36933112 4.90811305,9.36911001 C3.21135495,9.30084024 2.59550568,8.01173024 2.59550568,7.16192371 C2.59550568,6.24053068 3.1753893,5.59708126 4.00575783,5.59708126" id="Fill-35" fill="#7A63AD"></path>
                            <path d="M14.6872485,9.39320619 C14.5297534,9.39320619 14.3985813,9.27021006 14.3886063,9.11327253 C14.3835633,9.03361526 14.4098864,8.95677722 14.4628096,8.89690989 C14.5156775,8.83704256 14.5887725,8.80133223 14.6686284,8.79630182 C16.0147077,8.7112272 16.3703741,7.69 16.3703741,7.16191819 C16.3703741,6.66656164 16.1109116,6.16678275 15.5313051,6.16678275 C15.4916265,6.16678275 15.4497312,6.16949143 15.4068385,6.17485351 C15.3938709,6.17662244 15.3808479,6.17739635 15.3679357,6.17739635 C15.2182544,6.17739635 15.0911277,6.06501382 15.0721751,5.91598121 C15.0622001,5.83676617 15.0836464,5.7584356 15.1326905,5.69536208 C15.1816791,5.63234384 15.2523912,5.59210061 15.3317484,5.58220564 C15.3983597,5.57369265 15.4655251,5.56938087 15.5313051,5.56938087 C16.3780216,5.56938087 16.9693766,6.22427308 16.9693766,7.16191819 C16.9693766,8.00111111 16.3667165,9.28773355 14.7064228,9.39248756 C14.7002161,9.39298507 14.6936769,9.39320619 14.6872485,9.39320619" id="Fill-37" fill="#7A63AD"></path>
                            <path d="M15.5313328,5.5418021 C15.464389,5.5418021 15.3960599,5.54611388 15.3282294,5.55473742 C15.2416126,5.5656827 15.1643613,5.60962963 15.1107731,5.67850746 C15.0571848,5.7473853 15.0337434,5.83295744 15.044716,5.91941404 C15.0653865,6.08226645 15.204317,6.20504146 15.367908,6.20504146 C15.3820948,6.20504146 15.3964478,6.20404643 15.4106345,6.20222222 C15.4520865,6.19708126 15.492818,6.19442786 15.5313328,6.19442786 C16.0918204,6.19442786 16.3426933,6.68033167 16.3426933,7.16192371 C16.3426933,7.6810503 15.9924577,8.68491985 14.6668274,8.76872305 C14.5796564,8.77425097 14.4998005,8.81327805 14.4420006,8.8786733 C14.3842006,8.94406855 14.3554392,9.02798231 14.3609809,9.11499171 C14.3718426,9.28646766 14.515151,9.4208513 14.6872763,9.4208513 C14.6943142,9.4208513 14.7015184,9.4205749 14.7086672,9.42002211 C16.3874702,9.31405196 16.9970574,8.0115644 16.9970574,7.16192371 C16.9970574,6.20802653 16.3943419,5.5418021 15.5313328,5.5418021 M15.5313328,5.59708126 C16.3617013,5.59708126 16.9416403,6.24053068 16.9416403,7.16192371 C16.9416403,7.99066888 16.3459075,9.26131564 14.7046772,9.36490879 C14.6988584,9.36535102 14.6929842,9.36557214 14.6872763,9.36557214 C14.5450208,9.36557214 14.4253755,9.25517966 14.4162871,9.11150912 C14.4068108,8.96208955 14.5205265,8.83334439 14.6703741,8.82389165 C16.037013,8.73754561 16.3981103,7.69896075 16.3981103,7.16192371 C16.3981103,6.65291321 16.1301136,6.1391487 15.5313328,6.1391487 C15.4899917,6.1391487 15.4469327,6.14196794 15.4033749,6.14744057 C15.3914602,6.14898839 15.3796564,6.1497623 15.367908,6.1497623 C15.2333001,6.1497623 15.1170352,6.04909895 15.0996897,5.91250415 C15.0809033,5.76402432 15.1863065,5.62825871 15.335212,5.60962963 C15.4013245,5.60117192 15.4672707,5.59708126 15.5313328,5.59708126" id="Fill-39" fill="#7A63AD"></path>
                            <path d="M2.69433638,5.30308458 C1.60583541,5.30308458 0.710961485,4.69131012 0.30697146,4.08495301 C0.0858021613,3.75300166 0.0218509282,3.43260365 0.126921585,3.18290768 C0.283086728,2.81198452 0.62645054,2.80236595 0.87710169,2.79534549 C1.18926572,2.78666667 1.48408423,2.77837479 1.74432253,2.2146932 L1.75197007,2.19822001 C2.18871155,1.25189608 2.68375173,0.179314538 4.29893599,0.179314538 C4.85111111,0.179314538 5.29483513,0.346368159 5.61780549,0.67594251 C6.14282627,1.21159757 6.13274037,1.98213378 6.13207537,2.0146932 C6.12841784,2.17527916 5.99137157,2.30618021 5.82656137,2.30656716 C5.66136326,2.30286346 5.53008035,2.16632394 5.53323912,2.00225539 C5.53329454,1.99694859 5.53495705,1.44310669 5.18677196,1.0908126 C4.98078692,0.882354892 4.68208922,0.776661139 4.29893599,0.776661139 C3.06740371,0.776661139 2.70996398,1.55117745 2.29599889,2.44802653 L2.28835134,2.46449972 C1.87250208,3.36532891 1.25992242,3.38241017 0.893948462,3.39252626 C0.836979773,3.39418463 0.712956498,3.39777778 0.680870047,3.41038143 C0.680371294,3.41143173 0.679817124,3.41270315 0.679207537,3.41414041 C0.667071211,3.44299613 0.682089221,3.5685351 0.805835411,3.7542178 C1.11112774,4.21248203 1.83232474,4.7056827 2.69433638,4.7056827 C4.02622887,4.7056827 4.31971737,4.07538972 4.33157661,4.04857933 C4.37990025,3.93901603 4.48857301,3.86825871 4.60838459,3.86825871 C4.64761984,3.86825871 4.68596841,3.87594251 4.72232197,3.89103372 C4.87444167,3.95466003 4.94631754,4.12309563 4.88596841,4.27456053 C4.86923247,4.31651741 4.45582156,5.30308458 2.69433638,5.30308458" id="Fill-41" fill="#7A63AD"></path>
                            <path d="M4.29894154,0.151652847 C2.66602383,0.151652847 2.16699363,1.23285793 1.72676088,2.18664456 L1.71916874,2.20311774 C1.46607925,2.75126589 1.19281796,2.75889442 0.876386811,2.7676838 C0.632718204,2.77448314 0.264472153,2.78482034 0.101379884,3.17216142 C-0.00740371294,3.43070205 0.0573787753,3.76033167 0.283868108,4.10029851 C0.692014408,4.71273632 1.59564422,5.33070205 2.69434192,5.33070205 C4.47477972,5.33070205 4.89472984,4.32744057 4.91174287,4.28476506 C4.97768911,4.11920398 4.89921862,3.93512438 4.73313383,3.86563847 C4.69323358,3.84905473 4.6512829,3.84065229 4.60833472,3.84065229 C4.47760599,3.84065229 4.35895816,3.91787728 4.30620116,4.0374461 C4.29467443,4.06364842 4.00839014,4.67807629 2.69434192,4.67807629 C1.84252702,4.67807629 1.13025215,4.19123273 0.828894431,3.73899392 C0.723879191,3.58128248 0.701324467,3.46956329 0.703596564,3.43296849 C0.745879745,3.4244555 0.846683292,3.4215257 0.893122749,3.42025428 C1.26713217,3.40980652 1.89051815,3.39250415 2.31351621,2.47608624 L2.32116376,2.45966833 C2.7310834,1.57144279 3.0851427,0.804333886 4.29894154,0.804333886 C4.6743918,0.804333886 4.96649487,0.907263682 5.16704904,1.11019348 C5.50686617,1.45408513 5.50553616,1.99681592 5.50548074,2.00228856 C5.50204489,2.18100608 5.64551953,2.33014925 5.82523691,2.33418463 C6.00633971,2.33385296 6.15579939,2.19079049 6.15978942,2.01533444 C6.16050984,1.98222222 6.17109449,1.20090658 5.6375949,0.656627971 C5.3092491,0.321580984 4.85887503,0.151652847 4.29894154,0.151652847 M4.29894154,0.206932007 C4.84335827,0.206932007 5.28043225,0.371221669 5.59797174,0.695268104 C6.11617623,1.22395799 6.10503741,1.98194583 6.1043724,2.01406302 C6.10099196,2.16364842 5.97458576,2.27862908 5.8265115,2.27890547 C5.67677473,2.27558872 5.55807149,2.15198452 5.56089776,2.00278607 C5.56100859,1.99239359 5.56344694,1.43258154 5.20650596,1.07144279 C4.99514547,0.857567717 4.68985314,0.749054726 4.29894154,0.749054726 C3.04967581,0.749054726 2.6887448,1.53103372 2.27078969,2.43650636 L2.26319756,2.45297955 C1.85460792,3.33810945 1.25272375,3.35491432 0.893122749,3.36497512 C0.811548906,3.36729685 0.688356886,3.37066888 0.660537545,3.38990603 C0.660648379,3.39001658 0.657711277,3.39372029 0.653665835,3.4035047 C0.636431144,3.44430072 0.656325852,3.57978994 0.782732059,3.76950802 C1.09201441,4.23379768 1.82218897,4.73335544 2.69434192,4.73335544 C4.04374619,4.73335544 4.3447714,4.08719735 4.35690773,4.0597236 C4.40190635,3.95778883 4.50287614,3.89593145 4.60833472,3.89593145 C4.64291493,3.89593145 4.67793849,3.90256495 4.71168745,3.91655058 C4.84829039,3.97376451 4.91490163,4.12705362 4.86020504,4.26431177 C4.84374619,4.30566059 4.43731782,5.27542289 2.69434192,5.27542289 C1.61614852,5.27542289 0.730030479,4.66989497 0.330030479,4.06967385 C0.114125797,3.7456827 0.0511166528,3.43451631 0.15247437,3.19355445 C0.301712386,2.83910448 0.634713217,2.8297623 0.877938487,2.82296296 C1.19891383,2.81400774 1.50204489,2.80555003 1.76948739,2.22622443 L1.77713494,2.20975124 C2.21038515,1.27094527 2.70154613,0.206932007 4.29894154,0.206932007" id="Fill-43" fill="#7A63AD"></path>
                            <path d="M17.014547,5.30308458 C15.2530618,5.30308458 14.8396509,4.31651741 14.8229149,4.27456053 C14.7619562,4.12154782 14.8371571,3.9475843 14.9906068,3.88666667 C15.0260737,3.87257048 15.0632585,3.86543947 15.1011638,3.86543947 C15.2246883,3.86543947 15.3339152,3.93940299 15.3795234,4.0539414 C15.3909947,4.07953566 15.6870324,4.7056827 17.014547,4.7056827 C17.8764478,4.7056827 18.5976448,4.21248203 18.9029925,3.7542178 C19.0267941,3.5685351 19.0418676,3.44305141 19.0296758,3.41425097 C19.0290108,3.41253731 19.0283458,3.41110006 19.027847,3.40999447 C18.9969798,3.39783306 18.8722361,3.39423991 18.8174841,3.39258154 C18.4489609,3.38241017 17.8363813,3.36532891 17.420532,2.46449972 L17.4128845,2.44813709 C16.9989748,1.55123273 16.6414796,0.776661139 15.4099474,0.776661139 C15.0267941,0.776661139 14.7280964,0.882354892 14.5221114,1.0908126 C14.172153,1.4449309 14.1755334,1.99689331 14.1755888,2.00247651 C14.1779163,2.16687673 14.0460792,2.3030293 13.8817124,2.30601437 C13.7131338,2.30601437 13.5804655,2.1780984 13.5767526,2.01474848 C13.5760876,1.98213378 13.5660017,1.21165285 14.0910779,0.67594251 C14.4140482,0.346368159 14.8577722,0.179314538 15.4099474,0.179314538 C17.0250762,0.179314538 17.5201718,1.25189608 17.9569133,2.19822001 L17.9645608,2.2146932 C18.2247991,2.77837479 18.5196176,2.78666667 18.8317817,2.79534549 C19.0824328,2.80236595 19.4257966,2.81198452 19.5819618,3.18290768 C19.6870324,3.43265893 19.6230812,3.75305694 19.4018011,4.08500829 C18.9978664,4.69131012 18.1030479,5.30308458 17.014547,5.30308458" id="Fill-45" fill="#7A63AD"></path>
                            <path d="M15.4099418,0.151652847 C14.8500083,0.151652847 14.3996342,0.321580984 14.071233,0.656627971 C13.5377334,1.20096186 13.5483181,1.98222222 13.5490385,2.01527916 C13.5531394,2.19383085 13.697944,2.3337424 13.8787143,2.3337424 C13.8788806,2.3337424 13.8814852,2.33368712 13.8816514,2.33368712 C14.0618121,2.33037037 14.205841,2.18166943 14.2033472,2.00212272 C14.2032364,1.99670536 14.2013522,1.45474848 14.5418343,1.11024876 C14.7423885,0.907263682 15.0344915,0.804333886 15.4099418,0.804333886 C16.6237406,0.804333886 16.9777999,1.57144279 17.3877196,2.45966833 L17.3953671,2.47614151 C17.8183652,3.39250415 18.4417512,3.40980652 18.8142089,3.420199 C18.8620892,3.4215257 18.9632807,3.4244555 19.0052314,3.43274737 C19.007171,3.46475401 18.9918759,3.57094527 18.8799335,3.73893864 C18.5785204,4.19123273 17.8662455,4.67807629 17.0145414,4.67807629 C15.7046495,4.67807629 15.4159823,4.06762852 15.4043447,4.04159204 C15.3554669,3.91865119 15.2360986,3.83777778 15.1011582,3.83777778 C15.0597063,3.83777778 15.0190856,3.84557214 14.9803491,3.86099502 C14.8127127,3.92749585 14.7305292,4.11760088 14.7971405,4.28476506 C14.8141535,4.32744057 15.2340482,5.33070205 17.0145414,5.33070205 C18.1132391,5.33070205 19.0168135,4.71273632 19.424849,4.10029851 C19.6514492,3.76038695 19.7162871,3.43075732 19.6075035,3.17216142 C19.4444112,2.78482034 19.0761651,2.77448314 18.8324965,2.7676838 C18.5160654,2.75889442 18.2428041,2.75126589 17.9897146,2.20311774 L17.9820671,2.18664456 C17.5418343,1.23285793 17.0428595,0.151652847 15.4099418,0.151652847 M15.4099418,0.206932007 C17.0073372,0.206932007 17.4984428,1.27094527 17.9317484,2.20975124 L17.939396,2.22622443 C18.2068385,2.80555003 18.5099695,2.81400774 18.8309449,2.82296296 C19.0741701,2.8297623 19.407171,2.83910448 19.556409,3.19355445 C19.6577667,3.43451631 19.5947021,3.74579326 19.378742,4.06967385 C18.9787975,4.66989497 18.0926794,5.27542289 17.0145414,5.27542289 C15.2715655,5.27542289 14.8651372,4.30566059 14.8486783,4.26431177 C14.7932613,4.12528469 14.8613688,3.9676838 15.0008534,3.91234936 C15.0337157,3.8992482 15.0677418,3.89305694 15.1011582,3.89305694 C15.209166,3.89305694 15.3114104,3.95784411 15.353749,4.06414594 C15.3641119,4.08719735 15.6651372,4.73335544 17.0145414,4.73335544 C17.886639,4.73335544 18.6167581,4.23379768 18.9260959,3.76950802 C19.0525575,3.57978994 19.0724522,3.44430072 19.0552175,3.4035047 C19.0507842,3.39278054 19.0476808,3.38924268 19.0476254,3.38924268 C19.0209144,3.37066888 18.8974453,3.36729685 18.8157606,3.36497512 C18.4561596,3.35491432 17.8542754,3.33810945 17.4456858,2.45297955 L17.4380382,2.43650636 C17.0201385,1.53103372 16.6592075,0.749054726 15.4099418,0.749054726 C15.0190302,0.749054726 14.7137379,0.857567717 14.5023774,1.07144279 C14.1438847,1.43412935 14.1478193,1.99720287 14.1479302,2.00289663 C14.150036,2.15209508 14.030834,2.275644 13.8812081,2.27840796 C13.8803768,2.27846324 13.8795456,2.27846324 13.8787143,2.27846324 C13.7291438,2.27846324 13.607836,2.16243228 13.6044555,2.01406302 C13.6037905,1.98194583 13.5927071,1.22395799 14.1109116,0.695268104 C14.4284511,0.371221669 14.8655251,0.206932007 15.4099418,0.206932007" id="Fill-47" fill="#7A63AD"></path>
                            <path d="M8.25679135,7.97203427 C8.25679135,8.20182974 8.07003602,8.38812051 7.8396675,8.38812051 C7.60924356,8.38812051 7.42248822,8.20182974 7.42248822,7.97203427 C7.42248822,7.74223881 7.60924356,7.55594804 7.8396675,7.55594804 C8.07003602,7.55594804 8.25679135,7.74223881 8.25679135,7.97203427" id="Fill-49" fill="#7A63AD"></path>
                            <path d="M8.25679135,7.97203427 C8.25679135,8.20182974 8.07003602,8.38812051 7.8396675,8.38812051 C7.60924356,8.38812051 7.42248822,8.20182974 7.42248822,7.97203427 C7.42248822,7.74223881 7.60924356,7.55594804 7.8396675,7.55594804 C8.07003602,7.55594804 8.25679135,7.74223881 8.25679135,7.97203427 Z" id="Stroke-51" stroke="#7A63AD" stroke-width="0.714285714" stroke-linejoin="round"></path>
                            <path d="M12.2340759,7.97203427 C12.2340759,8.20182974 12.0473206,8.38812051 11.8169521,8.38812051 C11.5865281,8.38812051 11.3997728,8.20182974 11.3997728,7.97203427 C11.3997728,7.74223881 11.5865281,7.55594804 11.8169521,7.55594804 C12.0473206,7.55594804 12.2340759,7.74223881 12.2340759,7.97203427" id="Fill-53" fill="#7A63AD"></path>
                            <path d="M12.2340759,7.97203427 C12.2340759,8.20182974 12.0473206,8.38812051 11.8169521,8.38812051 C11.5865281,8.38812051 11.3997728,8.20182974 11.3997728,7.97203427 C11.3997728,7.74223881 11.5865281,7.55594804 11.8169521,7.55594804 C12.0473206,7.55594804 12.2340759,7.74223881 12.2340759,7.97203427 Z" id="Stroke-55" stroke="#7A63AD" stroke-width="0.714285714" stroke-linejoin="round"></path>
                            <path d="M5.62775838,1.62486457 C5.62775838,1.47577667 4.58131892,0.431885019 4.58131892,0.431885019 C4.58131892,0.431885019 3.49747298,0.245483693 3.31060682,0.506456606 C3.12374065,0.76737424 2.56314214,1.40114981 2.41362704,1.55029298 C2.26416736,1.69943615 1.77832641,2.63144279 1.66621779,2.74327253 C1.55405375,2.85510227 0.9186977,3.07881703 0.9186977,3.07881703 L0.152502078,3.19357656 C0.152502078,3.19357656 1.0682128,4.38357103 1.14297035,4.49545605 C1.2177279,4.60728579 2.33892491,4.86825871 2.82476586,4.98008845 C3.31060682,5.09191819 4.39445276,4.75637369 4.39445276,4.75637369 C4.39445276,4.75637369 4.65602106,5.05466003 4.58131892,5.20374793 C4.50656137,5.35283582 4.41057911,5.65067993 4.41057911,5.65067993 L6.59944029,6.21032615 C6.59944029,6.21032615 7.79539485,6.02392482 7.90750346,5.94935323 C8.0196675,5.87483693 9.06605154,5.16648977 9.29032419,5.05466003 C9.51454142,4.94277501 10.9059518,4.12834715 10.9059518,4.12834715 L12.876082,5.43050304 L14.7094431,5.94935323 L15.6410585,5.88102819 L15.1579329,4.53276949 C15.1579329,4.53276949 16.0548573,4.75637369 16.27913,4.86825871 C16.5033472,4.98008845 16.8397285,4.98008845 17.2134608,4.98008845 C17.5871931,4.98008845 18.2599002,4.49545605 18.3720089,4.45814262 C18.4841175,4.42088447 19.2315822,3.71259259 19.2315822,3.71259259 L19.1194735,3.07881703 L18.1477916,2.85510227 L17.437678,1.81126589 C17.437678,1.81126589 17.1387032,0.506456606 16.4285896,0.506456606 C15.7185314,0.506456606 14.7842006,0.469198452 14.5225769,0.581028192 C14.2609532,0.692857933 13.6044278,2.01408513 13.6044278,2.01408513 L13.065054,1.40114981 C13.065054,1.40114981 11.7195844,0.54371476 11.2710945,0.506456606 C10.8226046,0.469198452 9.92568024,0.357313433 9.70140759,0.357313433 C9.47719036,0.357313433 8.35599335,0.581028192 8.13177612,0.692857933 C7.90750346,0.804687673 5.62775838,1.62486457 5.62775838,1.62486457" id="Fill-57" fill="#7A63AD"></path>
                            <path d="M5.62775838,1.62486457 C5.62775838,1.47577667 4.58131892,0.431885019 4.58131892,0.431885019 C4.58131892,0.431885019 3.49747298,0.245483693 3.31060682,0.506456606 C3.12374065,0.76737424 2.56314214,1.40114981 2.41362704,1.55029298 C2.26416736,1.69943615 1.77832641,2.63144279 1.66621779,2.74327253 C1.55405375,2.85510227 0.9186977,3.07881703 0.9186977,3.07881703 L0.152502078,3.19357656 C0.152502078,3.19357656 1.0682128,4.38357103 1.14297035,4.49545605 C1.2177279,4.60728579 2.33892491,4.86825871 2.82476586,4.98008845 C3.31060682,5.09191819 4.39445276,4.75637369 4.39445276,4.75637369 C4.39445276,4.75637369 4.65602106,5.05466003 4.58131892,5.20374793 C4.50656137,5.35283582 4.41057911,5.65067993 4.41057911,5.65067993 L6.59944029,6.21032615 C6.59944029,6.21032615 7.79539485,6.02392482 7.90750346,5.94935323 C8.0196675,5.87483693 9.06605154,5.16648977 9.29032419,5.05466003 C9.51454142,4.94277501 10.9059518,4.12834715 10.9059518,4.12834715 L12.876082,5.43050304 L14.7094431,5.94935323 L15.6410585,5.88102819 L15.1579329,4.53276949 C15.1579329,4.53276949 16.0548573,4.75637369 16.27913,4.86825871 C16.5033472,4.98008845 16.8397285,4.98008845 17.2134608,4.98008845 C17.5871931,4.98008845 18.2599002,4.49545605 18.3720089,4.45814262 C18.4841175,4.42088447 19.2315822,3.71259259 19.2315822,3.71259259 L19.1194735,3.07881703 L18.1477916,2.85510227 L17.437678,1.81126589 C17.437678,1.81126589 17.1387032,0.506456606 16.4285896,0.506456606 C15.7185314,0.506456606 14.7842006,0.469198452 14.5225769,0.581028192 C14.2609532,0.692857933 13.6044278,2.01408513 13.6044278,2.01408513 L13.065054,1.40114981 C13.065054,1.40114981 11.7195844,0.54371476 11.2710945,0.506456606 C10.8226046,0.469198452 9.92568024,0.357313433 9.70140759,0.357313433 C9.47719036,0.357313433 8.35599335,0.581028192 8.13177612,0.692857933 C7.90750346,0.804687673 5.62775838,1.62486457 5.62775838,1.62486457 Z" id="Stroke-59" stroke="#7A63AD" stroke-width="0.714285714" stroke-linejoin="round"></path>
                            <path d="M5.36612358,2.83647319 C5.36612358,3.21740188 5.05661956,3.52619127 4.67474093,3.52619127 C4.29286229,3.52619127 3.98330285,3.21740188 3.98330285,2.83647319 C3.98330285,2.4555445 4.29286229,2.14675511 4.67474093,2.14675511 C5.05661956,2.14675511 5.36612358,2.4555445 5.36612358,2.83647319" id="Fill-61" fill="#EF6354"></path>
                            <path d="M6.16967027,1.69941404 C6.16967027,2.08034273 5.86011083,2.38913212 5.4782322,2.38913212 C5.09640898,2.38913212 4.78684954,2.08034273 4.78684954,1.69941404 C4.78684954,1.31848535 5.09640898,1.00969596 5.4782322,1.00969596 C5.86011083,1.00969596 6.16967027,1.31848535 6.16967027,1.69941404" id="Fill-63" fill="#EF6354"></path>
                            <path d="M13.8311832,2.48228303 C13.4493045,2.48228303 13.1397451,2.17349364 13.1397451,1.79262023 C13.1397451,1.41174682 13.4493045,1.10295744 13.8311832,1.10295744 C14.2130064,1.10295744 14.5225658,1.41174682 14.5225658,1.79262023 C14.5225658,2.17349364 14.2130064,2.48228303 13.8311832,2.48228303" id="Fill-65" fill="#EF6354"></path>
                            <path d="M14.9710446,3.28383085 C14.5892214,3.28383085 14.279662,2.97504146 14.279662,2.59411277 C14.279662,2.21323936 14.5892214,1.90444997 14.9710446,1.90444997 C15.3529232,1.90444997 15.6624827,2.21323936 15.6624827,2.59411277 C15.6624827,2.97504146 15.3529232,3.28383085 14.9710446,3.28383085" id="Fill-67" fill="#EF6354"></path>
                        </g>
                    </g>
                </g>
            </g>
        </g>
    </g>
</svg>