<?xml version="1.0" encoding="UTF-8"?>
<svg width="16px" height="16px" viewBox="0 0 16 16" version="1.1" xmlns="http://www.w3.org/2000/svg" xmlns:xlink="http://www.w3.org/1999/xlink">
    <title>fetus (1)</title>
    <g id="Page-1" stroke="none" stroke-width="1" fill="none" fill-rule="evenodd">
        <g id="LL21---Expecting---1st-2nd-trimester" transform="translate(-168.000000, -254.000000)">
            <g id="Group-8" transform="translate(16.000000, 178.000000)">
                <g id="Group-26" transform="translate(124.000000, 76.000000)">
                    <g id="fetus-(1)" transform="translate(28.000000, 0.000000)">
                        <circle id="Oval" fill="#FFFFFF" cx="8" cy="8" r="8"></circle>
                        <path d="M8,0 C6.134625,0 4.42075,0.680125 3.06153125,1.75775 C3.37578125,2.19984375 3.62903125,2.68609375 3.804125,3.2113125 C4.04415625,3.9314375 4.46709375,4.582875 5.01784375,5.10240625 C5.2720625,4.6394375 5.7740625,4.336625 6.335125,4.37084375 C6.59540625,4.38759375 6.8315625,4.4788125 7.033,4.61590625 C7.18978125,4.28271875 7.39359375,3.9660625 7.66859375,3.6910625 C8.947125,2.4120625 11.0295,2.4120625 12.3089375,3.6910625 C13.588375,4.9705 13.588375,7.05196875 12.3089375,8.33140625 C11.9793437,8.661 11.5838438,8.9155 11.1507813,9.07940625 C11.05375,10.2993438 10.5305,11.4355313 9.65709375,12.3089375 L9.193375,12.773125 C7.9138125,14.0526875 5.8320625,14.052125 4.55303125,12.773125 C3.6668125,11.8873438 3.47775,10.7928438 3.54090625,9.97253125 C3.15225,10.001375 2.7549375,9.86084375 2.45828125,9.56465625 C1.91034375,9.0158125 1.91034375,8.123625 2.4578125,7.57521875 C3.14371875,6.88890625 4.10084375,6.65996875 4.92459375,6.90334375 C4.88209375,6.6611875 4.85678125,6.4168125 4.84928125,6.169375 C3.95665625,5.49784375 3.26840625,4.5681875 2.915125,3.508 C2.780375,3.104125 2.5851875,2.73146875 2.35109375,2.38625 C0.9185,3.82771875 0,5.811875 0,8 C0,12.3940625 3.6059375,16 8,16 C12.3940625,16 16,12.3940625 16,8 C16,3.6059375 12.3940625,0 8,0 Z" id="Path" fill="#8B7FBF" fill-rule="nonzero"></path>
                        <path d="M3.02479037,7.96364955 C2.80735287,8.1806183 2.80735287,8.4786183 2.99044662,8.66127455 C3.17310287,8.84346205 3.47063412,8.8439308 3.65329037,8.6608058 L4.15041537,8.1641183 L4.67225912,8.89471205 L4.47360287,9.18264955 C4.38569662,9.32777455 3.98288412,10.7683371 5.08472787,11.8701808 C5.99841537,12.7838683 7.48569662,12.7838683 8.39938412,11.8701808 L8.86310287,11.4059933 C9.64360287,10.6254933 10.0821341,9.58821205 10.0981341,8.48546205 L10.1031654,8.12839955 C10.2843216,8.06258705 10.9289154,8.0134933 11.5149154,7.4284933 C12.4286029,6.5148058 12.4286029,5.02752455 11.5149154,4.11383705 C10.6016654,3.20014955 9.11441537,3.20014955 8.20025912,4.11383705 C7.28657162,5.02752455 7.28657162,6.5148058 8.20025912,7.4284933 C8.42547787,7.65371205 8.68822787,7.82764955 8.98166537,7.94577455 L8.63100912,8.81552455 C8.22038412,8.65027455 7.85235287,8.40627455 7.53741537,8.09133705 C6.84516537,7.39908705 6.54069662,6.47296205 6.59750912,5.56527455 L6.58482162,5.56446205 C6.60085287,5.30627455 6.40354037,5.08289955 6.14491537,5.06639955 C5.89222787,5.0599933 5.66563412,5.2476808 5.64869662,5.5058683 C5.54066537,7.2325558 6.34604037,7.69902455 6.42644662,8.6969308 C6.48182162,9.38358705 6.23463412,10.0569621 5.74757162,10.5439933 L5.08472787,9.88114955 C5.37679037,9.58908705 5.52554037,9.18489955 5.49213412,8.7724308 C5.39622787,7.58952455 3.96075912,7.0276808 3.02479037,7.96364955 Z" id="Path" fill="#8B7FBF" fill-rule="nonzero"></path>
                    </g>
                </g>
            </g>
        </g>
    </g>
</svg>