<?xml version="1.0" encoding="UTF-8"?>
<svg width="50px" height="50px" viewBox="0 0 50 50" version="1.1" xmlns="http://www.w3.org/2000/svg" xmlns:xlink="http://www.w3.org/1999/xlink">
    <title>Group 5</title>
    <g id="Page-1" stroke="none" stroke-width="1" fill="none" fill-rule="evenodd">
        <g id="LL21---nutrition" transform="translate(-268.000000, -208.000000)">
            <g id="Group-7" transform="translate(16.000000, 200.000000)">
                <g id="Group-6-Copy-2" transform="translate(226.000000, 0.000000)">
                    <g id="Group-5" transform="translate(26.000000, 8.000000)">
                        <rect id="Rectangle" x="0" y="0" width="50" height="50"></rect>
                        <g id="vegetable-(1)" transform="translate(1.000000, 1.000000)" fill-rule="nonzero">
                            <g id="Group" transform="translate(0.774194, 0.774194)">
                                <g transform="translate(21.677419, 17.806452)" fill="#FCD770" id="Path">
                                    <path d="M24.7741935,8.47741935 L24.7741935,10.1032258 C24.7741935,12.843871 23.6283871,15.4451613 21.6387097,17.3187097 L18.6270968,16.8619355 C19.5948387,15.2670968 20.1290323,13.4090323 20.1290323,11.4890323 L20.1290323,8.64 C20.1290323,7.03741935 19.7574194,5.48129032 19.076129,4.08774194 C18.5729032,3.05032258 17.883871,2.10580645 17.04,1.29290323 L17.0477419,1.28516129 C17.4812903,0.495483871 18.3096774,2.75048801e-15 19.2309677,2.75048801e-15 C19.7651613,2.75048801e-15 20.283871,0.170322581 20.7174194,0.487741935 C23.2722581,2.37677419 24.7741935,5.33419355 24.7741935,8.47741935 Z"></path>
                                    <path d="M16.1341935,0.495483871 C16.4593548,0.743225806 16.7690323,1.00645161 17.04,1.29290323 C17.883871,2.10580645 18.5729032,3.05032258 19.076129,4.08774194 C19.7574194,5.48129032 20.1290323,7.03741935 20.1290323,8.64 L20.1290323,11.4890323 C20.1290323,13.4090323 19.5948387,15.2670968 18.6270968,16.8619355 L11.3651613,15.7470968 L11.3651613,15.7393548 C11.0167742,14.4 10.8387097,13.0296774 10.8387097,11.636129 L10.8387097,8.49290323 C10.8387097,7.41677419 10.9470968,6.34064516 11.156129,5.28774194 C11.5354839,5.37290323 11.9458065,5.41935484 12.3870968,5.41935484 C14.0980645,5.41935484 15.483871,4.72258065 15.483871,3.87096774 C15.483871,3.32129032 14.9109677,2.84129032 14.0516129,2.57032258 L14.283871,0.0309677419 C14.4077419,0.00774193548 14.5393548,5.50097602e-15 14.6709677,5.50097602e-15 C15.1974194,5.50097602e-15 15.716129,0.178064516 16.1341935,0.495483871 L16.1341935,0.495483871 Z"></path>
                                    <path d="M6.78967742,0.332903226 C7.2,0.56516129 7.53290323,0.905806452 7.75741935,1.3316129 L7.75741935,1.33935484 C5.78322581,3.23612903 4.64516129,5.8683871 4.64516129,8.64 L4.64516129,11.4890323 C4.64516129,12.6270968 4.83870968,13.7419355 5.20258065,14.7948387 L0.859354839,14.1290323 C0.301935484,12.8748387 0,11.5122581 0,10.1032258 L0,8.47741935 C0,7.89677419 0.0541935484,7.31612903 0.15483871,6.75096774 C0.185806452,6.5883871 0.216774194,6.42580645 0.255483871,6.26322581 C0.781935484,3.97935484 2.11354839,1.92774194 4.05677419,0.487741935 C4.49032258,0.170322581 5.00903226,-2.75048801e-15 5.54322581,-2.75048801e-15 C5.99225806,-2.75048801e-15 6.41806452,0.116129032 6.78967742,0.332903226 L6.78967742,0.332903226 Z"></path>
                                    <path d="M10.4903226,0.015483871 L10.7225806,2.57032258 C9.86322581,2.84129032 9.29032258,3.32129032 9.29032258,3.87096774 C9.29032258,4.50580645 10.0567742,5.04774194 11.156129,5.28774194 C10.9470968,6.34064516 10.8387097,7.41677419 10.8387097,8.49290323 L10.8387097,11.636129 C10.8387097,13.0296774 11.0167742,14.4 11.3651613,15.7393548 L6.50322581,14.996129 L5.20258065,14.7948387 C4.83870968,13.7419355 4.64516129,12.6270968 4.64516129,11.4890323 L4.64516129,8.64 C4.64516129,5.8683871 5.78322581,3.23612903 7.75741935,1.33935484 L7.75741935,1.3316129 C8.06709677,1.02967742 8.39225806,0.750967742 8.74064516,0.495483871 C9.17419355,0.178064516 9.70064516,0 10.2425806,0 C10.3277419,0 10.4051613,0.00774193548 10.4825806,0.015483871 L10.4903226,0.015483871 Z"></path>
                                </g>
                                <path d="M37.1612903,21.6774194 C37.1612903,22.5290323 35.7754839,23.2258065 34.0645161,23.2258065 C33.6232258,23.2258065 33.2129032,23.1793548 32.8335484,23.0941935 C31.7341935,22.8541935 30.9677419,22.3122581 30.9677419,21.6774194 C30.9677419,21.1277419 31.5406452,20.6477419 32.4,20.3767742 L32.1677419,17.8219355 L31.7496774,13.2619355 C31.7419355,13.1922581 31.7419355,13.1303226 31.7419355,13.0606452 C31.7419355,11.8296774 32.7329032,10.8387097 33.963871,10.8387097 L34.1651613,10.8387097 C34.7767742,10.8387097 35.3341935,11.0864516 35.7367742,11.4890323 C36.1393548,11.8916129 36.3870968,12.4490323 36.3870968,13.0606452 C36.3870968,13.1303226 36.3870968,13.1922581 36.3793548,13.2619355 L35.9612903,17.8374194 L35.7290323,20.3767742 C36.5883871,20.6477419 37.1612903,21.1277419 37.1612903,21.6774194 L37.1612903,21.6774194 Z" id="Path" fill="#CF9E76"></path>
                                <path d="M16.9625806,3.19741935 C17.2335484,3.13548387 17.52,3.09677419 17.8064516,3.09677419 C19.0683871,3.09677419 20.1987097,3.70064516 20.9032258,4.64516129 L20.8877419,4.72258065 C20.64,4.6683871 20.3922581,4.64516129 20.1290323,4.64516129 C18.5264516,4.64516129 17.156129,5.61290323 16.5677419,6.99870968 C16.4670968,6.99096774 16.3664516,6.96774194 16.2580645,6.96774194 C14.3148387,6.96774194 12.72,8.40774194 12.4412903,10.2735484 C10.1806452,10.923871 8.51612903,13.0064516 8.51612903,15.483871 C8.51612903,17.5974194 9.72387097,19.4167742 11.4890323,20.3148387 C11.0787097,20.9264516 10.8387097,21.6619355 10.8387097,22.4516129 C10.8387097,23.8296774 11.5664516,25.0296774 12.6503226,25.7187097 C12.4877419,26.1445161 12.3870968,26.6090323 12.3870968,27.0967742 C12.3870968,29.2335484 14.1212903,30.9909677 16.2580645,30.9909677 C16.0567742,30.9754839 15.8632258,30.9677419 15.6696774,30.9677419 L15.483871,30.9677419 C13.9741935,30.9677419 12.5651613,31.4012903 11.3729032,32.1522581 L9.29032258,26.3225806 C7.15354839,26.3225806 5.41935484,24.5883871 5.41935484,22.4516129 C5.41935484,21.963871 5.52,21.4993548 5.68258065,21.0735484 C4.59870968,20.3845161 3.87096774,19.1845161 3.87096774,17.8064516 C3.87096774,17.0167742 4.11096774,16.2812903 4.52129032,15.6696774 C2.75612903,14.7716129 1.5483871,12.9522581 1.5483871,10.8387097 C1.5483871,8.36129032 3.21290323,6.27870968 5.47354839,5.6283871 C5.75225806,3.76258065 7.34709677,2.32258065 9.29032258,2.32258065 C9.39870968,2.32258065 9.49935484,2.34580645 9.6,2.35354839 C10.1883871,0.967741935 11.5587097,0 13.1612903,0 C15.0658065,0 16.6451613,1.37806452 16.9625806,3.19741935 Z" id="Path" fill="#8CC152"></path>
                                <path d="M27.5303226,14.3225806 C28.2193548,15.0193548 28.6451613,15.9793548 28.6451613,17.0322581 C28.6451613,17.396129 28.5909677,17.7522581 28.4980645,18.0851613 L28.4670968,18.1393548 C28.0954839,17.9225806 27.6696774,17.8064516 27.2206452,17.8064516 C26.6864516,17.8064516 26.1677419,17.9767742 25.7341935,18.2941935 C23.7909677,19.7341935 22.4593548,21.7858065 21.9329032,24.0696774 C21.8941935,24.2322581 21.8632258,24.3948387 21.8322581,24.5574194 C21.7316129,25.1225806 21.6774194,25.7032258 21.6774194,26.283871 L21.6774194,27.9096774 C21.6774194,29.3187097 21.9793548,30.6812903 22.5367742,31.9354839 L16.8464516,31.0606452 C16.6451613,31.0296774 16.4516129,31.0064516 16.2580645,30.9909677 C14.1212903,30.9909677 12.3870968,29.2335484 12.3870968,27.0967742 C12.3870968,26.6090323 12.4877419,26.1445161 12.6503226,25.7187097 C11.5664516,25.0296774 10.8387097,23.8296774 10.8387097,22.4516129 C10.8387097,21.6619355 11.0787097,20.9264516 11.4890323,20.3148387 C9.72387097,19.4167742 8.51612903,17.5974194 8.51612903,15.483871 C8.51612903,13.0064516 10.1806452,10.923871 12.4412903,10.2735484 C12.72,8.40774194 14.3148387,6.96774194 16.2580645,6.96774194 C16.3664516,6.96774194 16.4670968,6.99096774 16.5677419,6.99870968 C17.156129,5.61290323 18.5264516,4.64516129 20.1290323,4.64516129 C20.3922581,4.64516129 20.64,4.6683871 20.8877419,4.72258065 C22.443871,5.03225806 23.6593548,6.27096774 23.9303226,7.84258065 C24.2012903,7.78064516 24.4877419,7.74193548 24.7741935,7.74193548 C26.9109677,7.74193548 28.6451613,9.47612903 28.6451613,11.6129032 C28.6451613,12.6658065 28.2193548,13.6258065 27.5303226,14.3225806 L27.5303226,14.3225806 Z" id="Path" fill="#B4DD7F"></path>
                                <path d="M3.71612903,37.1612903 L7.89677419,37.1612903 C7.79612903,37.6567742 7.74193548,38.1754839 7.74193548,38.7096774 C7.74193548,39.243871 7.79612903,39.7625806 7.89677419,40.2580645 L3.71612903,40.2580645 L1.5483871,40.2580645 C1.12258065,40.2580645 0.735483871,40.0877419 0.456774194,39.8012903 C0.170322581,39.5225806 -6.87622002e-16,39.1354839 -6.87622002e-16,38.7096774 C-6.87622002e-16,37.8580645 0.696774194,37.1612903 1.5483871,37.1612903 L3.71612903,37.1612903 Z" id="Path" fill="#B4DD7F"></path>
                                <path d="M4.01806452,34.0954839 L8.62451613,35.1251613 C8.2916129,35.76 8.04387097,36.4412903 7.89677419,37.1612903 L3.71612903,37.1612903 C2.94967742,37.1612903 2.32258065,36.5341935 2.32258065,35.7677419 L2.32258065,35.4580645 C2.32258065,34.6916129 2.94967742,34.0645161 3.71612903,34.0645161 C3.81677419,34.0645161 3.91741935,34.0722581 4.01806452,34.0954839 L4.01806452,34.0954839 Z" id="Path" fill="#B4DD7F"></path>
                                <path d="M8.62451613,42.2941935 L4.01806452,43.323871 C3.91741935,43.3470968 3.81677419,43.3548387 3.71612903,43.3548387 C2.94967742,43.3548387 2.32258065,42.7277419 2.32258065,41.9612903 L2.32258065,41.6516129 C2.32258065,40.8851613 2.94967742,40.2580645 3.71612903,40.2580645 L7.89677419,40.2580645 C8.04387097,40.9780645 8.2916129,41.6593548 8.62451613,42.2941935 L8.62451613,42.2941935 Z" id="Path" fill="#B4DD7F"></path>
                                <path d="M45.5845161,36.356129 C45.0348387,35.7212903 44.2683871,35.2722581 43.3935484,35.1406452 L43.316129,35.1251613 L40.3045161,34.6683871 L33.0425806,33.5535484 L33.0425806,33.5458065 L28.1806452,32.8025806 L26.88,32.6012903 L22.5367742,31.9354839 L16.8464516,31.0606452 C16.6451613,31.0296774 16.4516129,31.0064516 16.2580645,30.9909677 C16.0567742,30.9754839 15.8632258,30.9677419 15.6696774,30.9677419 L15.483871,30.9677419 C13.9741935,30.9677419 12.5651613,31.4012903 11.3729032,32.1522581 C10.2116129,32.88 9.25935484,33.9096774 8.62451613,35.1251613 C8.2916129,35.76 8.04387097,36.4412903 7.89677419,37.1612903 C7.79612903,37.6567742 7.74193548,38.1754839 7.74193548,38.7096774 C7.74193548,39.243871 7.79612903,39.7625806 7.89677419,40.2580645 C8.04387097,40.9780645 8.2916129,41.6593548 8.62451613,42.2941935 C8.9883871,42.9909677 9.46064516,43.6335484 10.0103226,44.1832258 C11.4116129,45.5845161 13.3470968,46.4516129 15.483871,46.4516129 L15.6696774,46.4516129 C16.0567742,46.4516129 16.4516129,46.4206452 16.8464516,46.3587097 L28.1806452,44.6167742 L43.3935484,42.2787097 C45.1509677,42.0077419 46.4516129,40.4903226 46.4516129,38.7096774 C46.4516129,37.8193548 46.1264516,36.9909677 45.5845161,36.356129 L45.5845161,36.356129 Z" id="Path" fill="#FF826E"></path>
                            </g>
                            <g id="Group" fill="#000000">
                                <path d="M48,27.0572903 C48,23.6864516 46.3656774,20.4673548 43.628129,18.4467097 C43.0699355,18.0332903 42.3778065,17.8064516 41.6802581,17.8064516 C40.8069677,17.8064516 39.9886452,18.1556129 39.387871,18.7494194 C39.2756129,18.6557419 39.1734194,18.5527742 39.0572903,18.4637419 C38.6276129,18.1354839 38.112,17.9403871 37.5824516,17.859871 L37.923871,14.1058065 C37.9316129,14.016 37.9354839,13.9254194 37.9354839,13.8348387 C37.9354839,12.1827097 36.5914839,10.8387097 34.9393548,10.8387097 L34.7380645,10.8387097 C33.0859355,10.8387097 31.7419355,12.1827097 31.7419355,13.8348387 C31.7419355,13.9254194 31.7458065,14.016 31.7543226,14.1065806 L32.0972903,17.8769032 C31.6064516,17.9698065 31.131871,18.1594839 30.7308387,18.4583226 C30.5922581,18.5620645 30.4691613,18.6812903 30.336,18.7904516 C30.2670968,18.7192258 30.1943226,18.6526452 30.1192258,18.5883871 C30.1633548,18.3305806 30.1935484,18.0696774 30.1935484,17.8064516 C30.1935484,16.8232258 29.8869677,15.8825806 29.3187097,15.0967742 C29.8869677,14.3109677 30.1935484,13.3710968 30.1935484,12.3870968 C30.1935484,9.73625806 27.9507097,7.58787097 25.2781935,7.75045161 C24.7811613,6.32593548 23.6221935,5.25212903 22.1976774,4.83793548 C21.2547097,3.66193548 19.8332903,3.00929032 18.3104516,3.10529032 C17.6694194,1.26812903 15.9336774,-3.43811001e-15 13.9354839,-3.43811001e-15 C12.2593548,-3.43811001e-15 10.7334194,0.896516129 9.91122581,2.32490323 C7.86116129,2.39380645 6.08903226,3.84077419 5.58116129,5.81187097 C3.18425806,6.70606452 1.5483871,9.02632258 1.5483871,11.6129032 C1.5483871,13.6869677 2.56877419,15.5829677 4.25729032,16.7287742 C4.00258065,17.3101935 3.87096774,17.9388387 3.87096774,18.5806452 C3.87096774,19.9741935 4.49032258,21.2694194 5.55329032,22.1465806 C5.46425806,22.5058065 5.41935484,22.8673548 5.41935484,23.2258065 C5.41935484,25.5979355 7.20774194,27.5612903 9.50709677,27.8376774 L11.2196129,32.6338065 C10.3424516,33.2802581 9.59535484,34.0892903 9.02012903,35.0183226 L4.96412903,34.1171613 C4.81006452,34.0815484 4.65135484,34.0645161 4.49187097,34.0645161 C3.29574194,34.0645161 2.32258065,35.0376774 2.32258065,36.2338065 L2.32258065,36.5403871 C2.32258065,36.7571613 2.3643871,36.9630968 2.424,37.1612903 L2.32258065,37.1612903 C1.04206452,37.1612903 8.25146403e-15,38.2033548 8.25146403e-15,39.483871 C8.25146403e-15,40.7643871 1.04206452,41.8064516 2.32258065,41.8064516 L2.424,41.8064516 C2.3643871,42.0046452 2.32258065,42.2105806 2.32258065,42.4273548 L2.32258065,42.7339355 C2.32258065,43.9300645 3.29574194,44.9032258 4.49187097,44.9032258 C4.65135484,44.9032258 4.81006452,44.8861935 4.96258065,44.8513548 L9.02012903,43.9494194 C10.5228387,46.3757419 13.2007742,48 16.2580645,48 L16.44,48 C16.8704516,48 17.3063226,47.9667097 17.7344516,47.9009032 L44.2823226,43.8170323 C46.436129,43.4849032 48,41.6632258 48,39.483871 C48,37.7411613 46.9912258,36.2415484 45.4892903,35.5347097 C47.0934194,33.6185806 48,31.1876129 48,28.6846452 L48,27.0572903 Z M38.115871,19.6939355 C40.4268387,21.4606452 41.8064516,24.2748387 41.8064516,27.2237419 L41.8064516,30.0673548 C41.8064516,31.6544516 41.4108387,33.2082581 40.6652903,34.5948387 L34.4570323,33.6394839 C34.2015484,32.516129 34.0645161,31.3687742 34.0645161,30.2167742 L34.0645161,27.0735484 C34.0645161,26.2931613 34.1427097,25.5135484 34.2611613,24.7409032 C34.4508387,24.7571613 34.6397419,24.7741935 34.8387097,24.7741935 C37.0459355,24.7741935 38.7096774,23.7754839 38.7096774,22.4516129 C38.7096774,21.7207742 38.204129,21.072 37.3285161,20.6461935 L37.4423226,19.3935484 C37.683871,19.4423226 37.916129,19.539871 38.115871,19.6939355 L38.115871,19.6939355 Z M34.7380645,12.3870968 L34.940129,12.3870968 C35.7383226,12.3870968 36.387871,13.0366452 36.387871,13.8348387 C36.387871,13.8789677 36.3863226,13.9230968 36.3816774,13.9664516 L35.6787097,21.6983226 L36.2694194,21.888 C36.9476129,22.1047742 37.1612903,22.3904516 37.1612903,22.4516129 C37.1612903,22.6443871 36.3375484,23.2258065 34.8387097,23.2258065 C33.339871,23.2258065 32.516129,22.6443871 32.516129,22.4516129 C32.516129,22.3904516 32.7298065,22.1047742 33.408,21.8872258 L33.9987097,21.6975484 L33.2957419,13.9664516 C33.291871,13.9223226 33.2903226,13.8781935 33.2903226,13.8348387 C33.2903226,13.0366452 33.939871,12.3870968 34.7380645,12.3870968 Z M32.2374194,19.4190968 L32.3489032,20.6461935 C31.4732903,21.072 30.9677419,21.7207742 30.9677419,22.4516129 C30.9677419,23.3047742 31.6637419,24.0178065 32.7452903,24.4203871 C32.6067097,25.2990968 32.516129,26.1863226 32.516129,27.0735484 L32.516129,30.2167742 C32.516129,31.2805161 32.6183226,32.3427097 32.8165161,33.3870968 L28.2526452,32.6849032 C28.004129,31.8340645 27.8709677,30.9569032 27.8709677,30.0665806 L27.8709677,27.2229677 C27.8709677,24.2787097 29.2861935,21.4652903 31.6567742,19.6985806 C31.8294194,19.5700645 32.0283871,19.4756129 32.2374194,19.4190968 Z M23.8707097,32.0105806 C23.4503226,30.9468387 23.2258065,29.8327742 23.2258065,28.6846452 L23.2258065,27.0565161 C23.2258065,24.1749677 24.6255484,21.4219355 26.9690323,19.6908387 C27.2632258,19.4740645 27.6286452,19.3548387 27.9971613,19.3548387 C28.4647742,19.3548387 28.8952258,19.5429677 29.2103226,19.8580645 C27.3847742,21.8585806 26.3225806,24.4861935 26.3225806,27.2237419 L26.3225806,30.0673548 C26.3225806,30.8655484 26.4178065,31.6552258 26.5904516,32.4294194 L23.8707097,32.0105806 Z M23.9434839,8.74916129 L24.0843871,9.54580645 L24.8740645,9.37006452 C25.1140645,9.31664516 25.3347097,9.29032258 25.5483871,9.29032258 C27.2562581,9.29032258 28.6451613,10.6792258 28.6451613,12.3870968 C28.6451613,13.2007742 28.3292903,13.9703226 27.7563871,14.5540645 L27.2237419,15.0967742 L27.7563871,15.6394839 C28.3292903,16.2232258 28.6451613,16.9927742 28.6451613,17.8064516 C28.6451613,17.8296774 28.6405161,17.8529032 28.6405161,17.8769032 C28.4307097,17.8350968 28.2170323,17.8064516 27.9971613,17.8064516 C27.2996129,17.8064516 26.6074839,18.0332903 26.0492903,18.4459355 C24.6402581,19.4856774 23.5308387,20.8459355 22.7783226,22.3780645 C22.4849032,21.4645161 22.1767742,20.5896774 21.8593548,19.7589677 C22.5754839,15.9762581 25.2317419,13.7868387 25.2588387,13.7643871 L24.7741935,13.1612903 L24.2903226,12.5566452 C24.1827097,12.6425806 22.0885161,14.3527742 20.9125161,17.4379355 C19.3014194,13.7388387 17.7809032,11.3458065 17.6833548,11.1940645 L16.3803871,12.0317419 C16.4012903,12.0634839 17.5819355,13.9207742 18.956129,16.8774194 C16.6405161,16.0056774 14.0090323,16.2464516 13.8580645,16.2619355 L14.012129,17.8025806 C15.1765161,17.6856774 18.4745806,17.7421935 20.0152258,19.3145806 C20.5579355,20.6485161 21.0929032,22.1109677 21.5651613,23.6779355 C19.2116129,22.4709677 16.4036129,22.4516129 16.2580645,22.4516129 L16.2580645,24 C16.2944516,24 19.7411613,24.0232258 21.7811613,25.6451613 C21.7176774,26.1112258 21.6774194,26.5819355 21.6774194,27.0572903 L21.6774194,28.6854194 C21.6774194,29.7313548 21.8384516,30.7540645 22.1372903,31.7450323 L17.7344516,31.0676129 C17.5021935,31.032 17.2676129,31.008 17.0322581,30.9909677 C15.3243871,30.9909677 13.9354839,29.5912258 13.9354839,27.8717419 C13.9354839,27.5109677 14.0074839,27.1409032 14.1483871,26.7700645 L14.3744516,26.1778065 L13.8379355,25.8387097 C12.9298065,25.2642581 12.3870968,24.288 12.3870968,23.2258065 C12.3870968,22.6165161 12.5659355,22.0258065 12.9042581,21.5163871 L13.3865806,20.7917419 L12.6108387,20.3976774 C11.04,19.5987097 10.0645161,18.0131613 10.0645161,16.2580645 C10.0645161,14.1979355 11.4487742,12.3630968 13.4314839,11.7956129 L13.9122581,11.6578065 L13.9842581,11.1630968 C14.2049032,9.65419355 15.5156129,8.51612903 17.0322581,8.51612903 C17.0609032,8.51612903 17.0887742,8.52232258 17.1166452,8.52619355 C17.1708387,8.53393548 17.2258065,8.54090323 17.2807742,8.54477419 L17.835871,8.58967742 L18.0541935,8.07716129 C18.5427097,6.93290323 19.6606452,6.19354839 20.9032258,6.19354839 C22.4036129,6.19354839 23.6818065,7.26812903 23.9434839,8.74916129 L23.9434839,8.74916129 Z M10.6103226,26.3225806 L10.0645161,26.3225806 C8.35664516,26.3225806 6.96774194,24.9336774 6.96774194,23.2258065 C6.96774194,22.8642581 7.03974194,22.4941935 7.18064516,22.1249032 L7.40748387,21.5326452 L6.87096774,21.1935484 C5.96206452,20.6190968 5.41935484,19.6428387 5.41935484,18.5806452 C5.41935484,17.9713548 5.59819355,17.3806452 5.93651613,16.8712258 L6.41883871,16.1465806 L5.64309677,15.7525161 C4.07225806,14.9535484 3.09677419,13.368 3.09677419,11.6129032 C3.09677419,9.55277419 4.48103226,7.71793548 6.46296774,7.15045161 L6.94374194,7.01264516 L7.01574194,6.51793548 C7.23716129,5.00903226 8.54787097,3.87096774 10.0645161,3.87096774 C10.0939355,3.87096774 10.1225806,3.87716129 10.1512258,3.88103226 C10.203871,3.888 10.2565161,3.89496774 10.3107097,3.8996129 L10.868129,3.94606452 L11.0872258,3.43122581 C11.5749677,2.28774194 12.6929032,1.5483871 13.9354839,1.5483871 C15.435871,1.5483871 16.7140645,2.62296774 16.9757419,4.104 L17.1166452,4.90064516 L17.9063226,4.72490323 C18.1463226,4.67148387 18.3669677,4.64516129 18.5806452,4.64516129 C18.9367742,4.64516129 19.2750968,4.72335484 19.5987097,4.8363871 C18.4606452,5.16929032 17.4805161,5.92490323 16.8789677,6.97006452 C14.8289032,7.03896774 13.0567742,8.48593548 12.5489032,10.4570323 C10.152,11.3512258 8.51612903,13.6714839 8.51612903,16.2580645 C8.51612903,18.332129 9.53651613,20.228129 11.2250323,21.3739355 C10.9703226,21.9553548 10.8387097,22.584 10.8387097,23.2258065 C10.8387097,24.6193548 11.4580645,25.9145806 12.5210323,26.7925161 C12.432,27.1517419 12.3870968,27.5125161 12.3870968,27.8709677 C12.3870968,29.2312258 12.9723871,30.4536774 13.8990968,31.3068387 C13.4392258,31.44 12.9971613,31.6126452 12.5729032,31.8178065 L10.6103226,26.3225806 Z M3.87096774,36.5403871 L3.87096774,36.2338065 C3.87096774,35.8451613 4.24722581,35.5455484 4.62735484,35.6276129 L8.31174194,36.4467097 C8.22193548,36.6805161 8.14141935,36.9181935 8.07251613,37.1612903 L4.49187097,37.1612903 C4.14967742,37.1612903 3.87096774,36.8825806 3.87096774,36.5403871 L3.87096774,36.5403871 Z M1.5483871,39.483871 C1.5483871,39.0572903 1.896,38.7096774 2.32258065,38.7096774 L4.49187097,38.7096774 L7.78064516,38.7096774 C7.75819355,38.9651613 7.74193548,39.2221935 7.74193548,39.483871 C7.74193548,39.7455484 7.75819355,40.0025806 7.78141935,40.2580645 L4.49187097,40.2580645 L2.32258065,40.2580645 C1.896,40.2580645 1.5483871,39.9104516 1.5483871,39.483871 Z M4.62580645,43.340129 C4.25883871,43.4190968 3.87096774,43.1218065 3.87096774,42.7339355 L3.87096774,42.4273548 C3.87096774,42.0851613 4.14967742,41.8064516 4.49187097,41.8064516 L8.07174194,41.8064516 C8.14064516,42.0495484 8.22193548,42.2872258 8.31096774,42.5210323 L4.62580645,43.340129 Z M46.4516129,39.483871 C46.4516129,40.8936774 45.4405161,42.072 44.0477419,42.2864516 L17.5006452,46.3703226 C17.1491613,46.4245161 16.7922581,46.4516129 16.44,46.4516129 L16.2580645,46.4516129 C12.4165161,46.4516129 9.29032258,43.3254194 9.29032258,39.483871 C9.29032258,35.6423226 12.4165161,32.516129 16.2580645,32.516129 L16.44,32.516129 C16.7922581,32.516129 17.1491613,32.5432258 17.499871,32.5966452 L44.0469677,36.6805161 C45.4405161,36.8957419 46.4516129,38.0740645 46.4516129,39.483871 L46.4516129,39.483871 Z M46.4516129,28.6846452 C46.4516129,31.0660645 45.4877419,33.3700645 43.8108387,35.0779355 L42.2725161,34.8410323 C42.9793548,33.356129 43.3548387,31.728 43.3548387,30.0665806 L43.3548387,27.2229677 C43.3548387,24.4714839 42.3065806,21.8307097 40.5058065,19.8270968 C40.8185806,19.532129 41.2335484,19.3548387 41.6802581,19.3548387 C42.0495484,19.3548387 42.4141935,19.4740645 42.7083871,19.6923871 C45.051871,21.4219355 46.4516129,24.1757419 46.4516129,27.0572903 L46.4516129,28.6846452 Z" id="Shape"></path>
                                <polygon id="Path" points="15.483871 35.6129032 17.0322581 35.6129032 17.0322581 43.3548387 15.483871 43.3548387"></polygon>
                                <polygon id="Path" points="21.6774194 35.6129032 23.2258065 35.6129032 23.2258065 43.3548387 21.6774194 43.3548387"></polygon>
                                <polygon id="Path" points="27.8709677 35.6129032 29.4193548 35.6129032 29.4193548 43.3548387 27.8709677 43.3548387"></polygon>
                                <polygon id="Path" points="34.0645161 37.1612903 35.6129032 37.1612903 35.6129032 41.8064516 34.0645161 41.8064516"></polygon>
                                <polygon id="Path" points="40.2580645 37.9354839 41.8064516 37.9354839 41.8064516 41.0322581 40.2580645 41.0322581"></polygon>
                            </g>
                        </g>
                    </g>
                </g>
            </g>
        </g>
    </g>
</svg>