<?xml version="1.0" encoding="UTF-8"?>
<svg width="50px" height="50px" viewBox="0 0 50 50" version="1.1" xmlns="http://www.w3.org/2000/svg" xmlns:xlink="http://www.w3.org/1999/xlink">
    <title>Group 5</title>
    <g id="Page-1" stroke="none" stroke-width="1" fill="none" fill-rule="evenodd">
        <g id="LL21---nutrition" transform="translate(-268.000000, -586.000000)">
            <g id="Group-7" transform="translate(16.000000, 200.000000)">
                <g id="Group-6-Copy-11" transform="translate(226.000000, 378.000000)">
                    <g id="Group-5" transform="translate(26.000000, 8.000000)">
                        <rect id="Rectangle" x="0" y="0" width="50" height="50"></rect>
                        <g id="fried-chicken" transform="translate(1.000000, 1.000000)" fill-rule="nonzero">
                            <path d="M22.4402344,12.0578125 C21.36875,11.3128906 20.0398438,11.0363281 18.7601562,11.2921875 C17.365625,11.5636719 16.1683594,12.4515625 15.5035156,13.7074219 L13.0234375,18.4425781 L10.2523438,14.9410156 C8.746875,13.0652344 6.1765625,12.421875 3.9652344,13.3671875 C2.3238281,14.0429688 1.1507812,15.521875 0.8667969,17.2738281 C0.5828125,19.0257812 1.2285156,20.7996094 2.5722656,21.959375 L8.1433594,27.1199219 C9.6378906,28.4953125 11.7,29.0734375 13.6914062,28.6753906 C15.4207031,28.3378906 16.9273438,27.2859375 17.8394531,25.7785156 L21.3945312,19.8472656 L25.8914062,22.8074219 L35.1996094,20.9601562 L22.4402344,12.0578125 Z" id="Path" fill="#E69112"></path>
                            <path d="M31.2652344,30.2632812 C31.9546875,29.4644531 32.5078125,28.5574219 32.9019531,27.5785156 C33.7148438,25.55625 34.4898438,23.5191406 35.4308594,21.5527344 L39.9996094,12 L35.9996094,8 L26.4464844,12.56875 C24.4804688,13.5097656 22.4464844,14.2847656 20.4210938,15.0976562 C19.4421875,15.4917969 18.5347656,16.0445312 17.7363281,16.734375 L17.5996094,16.8 L17.6308594,16.83125 C14.9597656,19.1945312 13.8207031,22.8441406 14.6734375,26.3070312 C15.5261719,29.7699219 18.2296875,32.4734375 21.6925781,33.3261719 C25.1550781,34.1789062 28.8050781,33.0398438 31.1683594,30.36875 L31.1996094,30.4 L31.2652344,30.2632812 Z" id="Path" fill="#EB972A"></path>
                            <path d="M45.3226562,4.059375 C44.65,3.8753906 44.1242188,3.3496094 43.9402344,2.6769531 C43.6894531,1.6785156 42.8507812,0.9371094 41.8289062,0.8105469 C41.1554688,0.7457031 40.4859375,0.9683594 39.9855469,1.4234375 C39.4847656,1.878125 39.1992188,2.5234375 39.1996094,3.2 L39.1996094,3.2136719 C39.2390625,4.1476562 38.9003906,5.0582031 38.2601562,5.7394531 L35.9996094,8 L39.9996094,12 L42.2601562,9.7394531 C42.9414062,9.0992188 43.8519531,8.7605469 44.7859375,8.8 L44.7996094,8.8 C45.4761719,8.8003906 46.1210938,8.5148438 46.5761719,8.0140625 C47.03125,7.5132812 47.2539062,6.84375 47.1890625,6.1703125 C47.0625,5.1488281 46.3210938,4.3101562 45.3226562,4.059375 Z" id="Path" fill="#F0DBC2"></path>
                            <path d="M21.8851562,18.9914062 L16.7996094,14.4 L20.7996094,10.4 L20.7996094,0.8 L8.8386719,11.6066406 C7.8691406,12.50625 7.3183594,13.7695312 7.31875,15.0921875 C7.3195312,16.5429688 7.9828125,17.9140625 9.1195312,18.8152344 L13.4394531,22.2496094 L9.3113281,24.2738281 C7.4859375,25.1707031 6.3273438,27.0261719 6.32263945,29.0601562 C6.3175781,31.0941406 7.4671875,32.9550781 9.2886719,33.8605469 C11.1101562,34.7664062 13.2875,34.5601562 14.9066406,33.3289062 L21.29375,28.8738281 C22.8804688,27.7726562 23.8742188,26.0042969 23.9898438,24.0765625 C24.1054688,22.1484375 23.3304688,20.2742188 21.8867188,18.9914062 L21.8851562,18.9914062 Z" id="Path" fill="#F09E3E"></path>
                            <path d="M36.7996094,33.6 L25.5996094,33.6 C22.9484375,33.6 20.7996094,31.4511719 20.7996094,28.8 L20.7996094,22.4 C20.7996094,18.865625 23.6648438,16 27.1996094,16 L42.5371094,16 C43.7867188,16 44.7996094,17.0128906 44.7996094,18.2625 C44.7996094,18.8625 44.5613281,19.4382812 44.1371094,19.8625 L43.1996094,20.8 L43.1996094,27.2 C43.1996094,30.7347656 40.3339844,33.6 36.7996094,33.6 Z" id="Path" fill="#FFB433"></path>
                            <polygon id="Path" fill="#F05D46" points="41.8753906 47.2 6.1234375 47.2 2.3996094 23.2 45.5996094 23.2"></polygon>
                            <g id="Group" transform="translate(3.200000, 8.800000)" fill="#FFCC33">
                                <polygon id="Path" points="-0.0003906 8.8 1.5996094 8.8 1.5996094 10.4 -0.0003906 10.4"></polygon>
                                <polygon id="Path" points="11.9996094 0 13.5996094 0 13.5996094 1.6 11.9996094 1.6"></polygon>
                                <polygon id="Path" points="7.9996094 4 9.5996094 4 9.5996094 5.6 7.9996094 5.6"></polygon>
                                <polygon id="Path" points="11.9996094 8.8 13.5996094 8.8 13.5996094 10.4 11.9996094 10.4"></polygon>
                                <polygon id="Path" points="24.7996094 9.6 26.3996094 9.6 26.3996094 11.2 24.7996094 11.2"></polygon>
                                <polygon id="Path" points="31.1996094 10.4 32.7996094 10.4 32.7996094 12 31.1996094 12"></polygon>
                                <polygon id="Path" points="28.7996094 3.2 30.3996094 3.2 30.3996094 4.8 28.7996094 4.8"></polygon>
                            </g>
                            <polygon id="Path" fill="#FF8B78" points="6.9441406 29.7316406 8.5222656 29.46875 9.5886719 35.8683594 8.0105469 36.1316406"></polygon>
                            <polygon id="Path" fill="#FF8B78" points="6.4105469 26.53125 7.9890625 26.26875 8.2554688 27.8691406 6.6769531 28.1316406"></polygon>
                            <path d="M5.5074219,43.2304688 L6.1234375,47.2 L41.8753906,47.2 L45.5996094,23.2 L39.4851562,23.2 C30.121875,36.2449219 13.1441406,41.4710938 5.5074219,43.2304688 Z" id="Path" fill="#E3523B"></path>
                            <path d="M1.9996094,22.5199219 C1.7042969,22.66875 1.54375,22.9953125 1.6058594,23.3199219 L5.3296875,47.3199219 C5.3894531,47.7121094 5.7269531,48.0015625 6.1234375,48.0000063 L41.8753906,48.0000063 C42.2699219,48.0000063 42.6054688,47.7125 42.6660156,47.3226562 L46.3898438,23.3226562 C46.4257812,23.0917969 46.3585938,22.8570312 46.2066406,22.6796875 C46.0546875,22.5023438 45.8328125,22.4 45.5996094,22.4 L43.9996094,22.4 L43.9996094,21.1320312 L44.7027344,20.428125 C45.5785156,19.5523438 45.840625,18.2347656 45.3667969,17.090625 C44.8925781,15.9460938 43.7757812,15.2 42.5371094,15.2 L39.359375,15.2 L40.6667969,12.4679688 L42.8265625,10.3082031 C43.3570312,9.8226562 44.0582031,9.5679688 44.7761719,9.6 C45.6828125,9.596875 46.5472656,9.21875 47.1652344,8.5554688 C47.7714844,7.8871094 48.0691406,6.9945312 47.9851562,6.0960938 C47.8285156,4.7425781 46.8535156,3.6257812 45.5339844,3.2871094 C45.134375,3.1773438 44.8226562,2.8652344 44.7128906,2.465625 C44.3738281,1.1460938 43.2570312,0.171875 41.9035156,0.0144531 C41.0027344,-0.0714844 40.1078125,0.2277344 39.4398438,0.8382812 C38.7722656,1.4488281 38.3941406,2.3136719 38.3996094,3.2183594 C38.4335938,3.9378906 38.1800781,4.6414062 37.6945312,5.1738281 L35.5347656,7.3335938 L26.1011719,11.8472656 C25.5890625,12.0921875 25.0609375,12.3144531 24.5339844,12.5425781 L22.8980469,11.4015625 C22.478125,11.1105469 22.0207031,10.8785156 21.5378906,10.7121094 C21.5792969,10.6132812 21.6,10.5070312 21.5996094,10.4 L21.5996094,0.8 C21.5992188,0.4839844 21.4132812,0.1976562 21.1242188,0.0691406 C20.8355469,-0.0589844 20.4980469,-0.00546875 20.2636719,0.2066406 L8.2945312,11.0199219 C7.9039062,11.384375 7.5683594,11.8035156 7.2980469,12.2640625 C6.0730469,12.0140625 4.8015625,12.1421875 3.6515625,12.6320312 C1.7480469,13.428125 0.3933594,15.1539062 0.0722656,17.1921875 C-0.2429688,19.18125 0.4847656,21.1929688 1.9996094,22.5199219 L1.9996094,22.5199219 Z M41.1898438,46.4 L6.8089844,46.4 L3.3332031,24 L44.6660156,24 L41.1898438,46.4 Z M43.9996124,18.2632812 C44.0003906,18.6511719 43.8464844,19.0238281 43.5714844,19.2976562 L42.6339844,20.234375 C42.4839844,20.384375 42.3996094,20.5878906 42.3996094,20.8 L42.3996094,22.4 L21.5996094,22.4 C21.603125,19.3085938 24.1082031,16.8035156 27.1996094,16.8 L42.5371094,16.8 C43.3445312,16.8007812 43.9992188,17.4558594 43.9996124,18.2632812 Z M38.8257812,6.3046875 C39.6183594,5.4695312 40.0410156,4.3507812 39.9996094,3.2 C39.9992188,2.7488281 40.1898438,2.3183594 40.5242188,2.0148438 C40.8585938,1.7117188 41.3054688,1.5636719 41.7546875,1.6074219 C42.4449219,1.7011719 43.0066406,2.2097656 43.1691406,2.8871094 C43.4292969,3.8320312 44.1675781,4.5703125 45.1121094,4.8304688 C45.7898438,4.9914062 46.2988281,5.553125 46.3921875,6.2433594 C46.4378906,6.69375 46.2890625,7.1425781 45.9835938,7.4769531 C45.6671875,7.815625 45.2226562,8.0050781 44.759375,7.9992188 C43.6226562,7.9667969 42.5199219,8.3890625 41.6953125,9.1730469 L39.9996094,10.86875 L37.1308594,8 L38.8257812,6.3046875 Z M26.7914062,13.290625 L35.8316406,8.9703125 L39.0316406,12.1703125 L37.5820312,15.2 L27.1996094,15.2 C25.0820312,15.2003906 23.0730469,16.1347656 21.7082031,17.7535156 L19.9746094,16.1878906 C20.2148438,16.0625 20.4652344,15.9425781 20.71875,15.8402344 L21.8324219,15.3960938 C23.4691406,14.7441406 25.1617188,14.0695312 26.7914062,13.290625 Z M22.7914062,13.2800781 C22.2722656,13.4914062 21.7515625,13.7046875 21.2378906,13.9089844 L20.1179688,14.35625 C19.6351562,14.5554688 19.1683594,14.7910156 18.7210938,15.0609375 L17.95625,14.3703125 L20.2761719,12.0503906 C20.8875,12.1363281 21.4703125,12.3640625 21.9777344,12.7152344 L22.7914062,13.2800781 Z M9.3746094,12.2 L19.9996094,2.6007812 L19.9996094,10.06875 L16.2339844,13.834375 C16.0789062,13.9894531 15.9945312,14.2011719 16,14.4203125 C16.0054688,14.6394531 16.1007812,14.846875 16.2636719,14.99375 L20.8089844,19.096875 C20.2773438,20.1167969 19.9996094,21.25 19.9996094,22.4 L14.2179688,22.4 C14.2179688,22.3785156 14.2308594,22.3585938 14.2332031,22.3359375 C14.2625,22.0632812 14.15,21.7945312 13.9355469,21.6242188 L9.615625,18.1898438 C8.7121094,17.4746094 8.1660156,16.4011719 8.1199219,15.25 C8.0738281,14.0988281 8.5324219,12.9851562 9.3753906,12.2 L9.3746094,12.2 Z M1.6523438,17.4402344 C1.8910156,15.9484375 2.8855469,14.6871094 4.2804688,14.1066406 C5.0367188,13.7855469 5.8660156,13.675 6.6804688,13.7863281 C6.1566406,15.8882812 6.9152344,18.1015625 8.6179688,19.4402344 L11.9492188,22.0871094 L11.3148438,22.4 L4.159375,22.4 L4.1914062,22.365625 L3.0980469,21.3554688 C1.9703125,20.3886719 1.4234375,18.9074219 1.6523438,17.4402344 Z" id="Shape" fill="#000000"></path>
                            <polygon id="Path" fill="#000000" points="3.1996094 17.6 4.7996094 17.6 4.7996094 19.2 3.1996094 19.2"></polygon>
                            <polygon id="Path" fill="#000000" points="15.1996094 8.8 16.7996094 8.8 16.7996094 10.4 15.1996094 10.4"></polygon>
                            <polygon id="Path" fill="#000000" points="11.1996094 12.8 12.7996094 12.8 12.7996094 14.4 11.1996094 14.4"></polygon>
                            <polygon id="Path" fill="#000000" points="15.1996094 17.6 16.7996094 17.6 16.7996094 19.2 15.1996094 19.2"></polygon>
                            <polygon id="Path" fill="#000000" points="27.9996094 18.4 29.5996094 18.4 29.5996094 20 27.9996094 20"></polygon>
                            <polygon id="Path" fill="#000000" points="34.3996094 19.2 35.9996094 19.2 35.9996094 20.8 34.3996094 20.8"></polygon>
                            <polygon id="Path" fill="#000000" points="31.9996094 12 33.5996094 12 33.5996094 13.6 31.9996094 13.6"></polygon>
                            <polygon id="Path" fill="#000000" points="6.94375 29.7320312 8.521875 29.46875 9.5898438 35.8683594 8.0117188 36.1316406"></polygon>
                            <polygon id="Path" fill="#000000" points="6.4105469 26.5308594 7.9886719 26.2683594 8.2550781 27.86875 6.6765625 28.13125"></polygon>
                        </g>
                    </g>
                </g>
            </g>
        </g>
    </g>
</svg>