<?xml version="1.0" encoding="UTF-8"?>
<svg width="50px" height="50px" viewBox="0 0 50 50" version="1.1" xmlns="http://www.w3.org/2000/svg" xmlns:xlink="http://www.w3.org/1999/xlink">
    <title>Group 5</title>
    <g id="Page-1" stroke="none" stroke-width="1" fill="none" fill-rule="evenodd">
        <g id="LL21---nutrition" transform="translate(-42.000000, -334.000000)">
            <g id="Group-7" transform="translate(16.000000, 200.000000)">
                <g id="Group-6-Copy-3" transform="translate(0.000000, 126.000000)">
                    <g id="Group-5" transform="translate(26.000000, 8.000000)">
                        <rect id="Rectangle" x="0" y="0" width="50" height="50"></rect>
                        <g id="cheese" transform="translate(1.000000, 5.000000)" fill-rule="nonzero">
                            <path d="M31.8684481,24.4960175 L26.0472765,25.1196043 C24.2940648,25.2417781 20.5220966,25.307297 20.5220966,25.307297 L20.5220966,10.3103803 L24.4686536,5.57451182 L40.2548818,5.57451182 L40.2548818,11.0996917 C39.3830935,11.0996917 38.676259,11.8065262 38.676259,12.6783145 C38.676259,13.5501028 39.3830935,14.2569373 40.2548818,14.2569373 L40.2548818,20.5714286 L31.8684481,24.4960175 Z" id="Path" fill="#FFF37A"></path>
                            <path d="M0.789311408,5.57451182 L9.4717369,5.57451182 L9.4717369,24.4960175 C4.23214283,23.6442703 0.789311408,22.2043936 0.789311408,20.5714286 L0.789311408,5.57451182 Z" id="Path" fill="#FFF37A"></path>
                            <path d="M46.5693731,30.0431655 C46.5693731,24.3761562 41.975334,19.7821172 36.3083248,19.7821172 L17.364851,30.0431655 L46.5693731,30.0431655 Z" id="Path" fill="#F9ED9B"></path>
                            <path d="M17.364851,30.0431655 L17.364851,34.1477389 L17.5228674,34.1477389 C18.3395426,34.1816546 18.9746917,34.8699897 18.9434738,35.686665 C18.9746917,36.5033401 18.3395426,37.1916752 17.5228674,37.2259763 L17.364851,37.2259763 L17.364851,40.3042138 L46.5693731,40.3042138 L46.5693731,30.0431655 L17.364851,30.0431655 Z" id="Path" fill="#F8CF26"></path>
                            <path d="M25.2579651,34.7790339 C25.2579651,35.6508222 24.5511306,36.3576567 23.6793422,36.3576567 C22.8075539,36.3576567 22.1007194,35.6508222 22.1007194,34.7790339 C22.1007194,33.9072456 22.8075539,33.2004111 23.6793422,33.2004111 C24.5511306,33.2004111 25.2579651,33.9072456 25.2579651,34.7790339 Z" id="Path" fill="#FFF37A"></path>
                            <path d="M37.8869476,35.5683453 C37.8869476,36.4401337 37.1801131,37.1469681 36.3083248,37.1469681 C35.4365364,37.1469681 34.729702,36.4401337 34.729702,35.5683453 C34.729702,34.696557 35.4365364,33.9897225 36.3083248,33.9897225 C37.1801131,33.9897225 37.8869476,34.696557 37.8869476,35.5683453 Z" id="Path" fill="#FFF37A"></path>
                            <polyline id="Path" fill="#F8CF26" points="20.5220966 20.5714286 9.4717369 24.4960175 9.4717369 9.49910074 20.5220966 5.57451182 20.5220966 10.3103803"></polyline>
                            <path d="M20.5220966,13.4676259 C20.5220966,14.3394142 19.8152621,15.0462487 18.9434738,15.0462487 C18.0716855,15.0462487 17.364851,14.3394142 17.364851,13.4676259 C17.364851,12.5958376 18.0716855,11.8890031 18.9434738,11.8890031 C19.8152621,11.8890031 20.5220966,12.5958376 20.5220966,13.4676259 Z" id="Path" fill="#FFF37A"></path>
                            <path d="M15.7862282,18.2034943 C15.7862282,19.0752827 15.0793937,19.7821172 14.2076053,19.7821172 C13.335817,19.7821172 12.6289825,19.0752827 12.6289825,18.2034943 C12.6289825,17.331706 13.335817,16.6248715 14.2076053,16.6248715 C15.0793937,16.6248715 15.7862282,17.331706 15.7862282,18.2034943 Z" id="Path" fill="#FFF37A"></path>
                            <path d="M9.4717369,9.49910074 L20.5220966,5.57451182 L20.5220966,10.3103803 C31.4202209,10.3103803 40.2548818,8.1902621 40.2548818,5.57451182 C40.2548818,2.95876154 31.4202209,0.838643371 20.5220966,0.838643371 C9.62397228,0.838643371 0.789311408,2.95876154 0.789311408,5.57451182 C0.789311408,7.20747685 4.23214283,8.64735352 9.4717369,9.49910074 Z" id="Path" fill="#F9ED9B"></path>
                            <path d="M41.0441932,20.0742549 L41.0441932,14.2569373 C41.0441932,13.8210431 40.690776,13.4676259 40.2548818,13.4676259 C39.8189876,13.4676259 39.4655704,13.1142087 39.4655704,12.6783145 C39.4655704,12.2424203 39.8189876,11.8890031 40.2548818,11.8890031 C40.690776,11.8890031 41.0441932,11.5355858 41.0441932,11.0996917 L41.0441932,5.57451182 C41.0441932,1.94360229 30.7199383,0.049331963 20.5220966,0.049331963 C10.3242549,0.049331963 0,1.94360229 0,5.57451182 L0,20.5714286 C0,23.2037513 5.08157757,24.5819631 9.34532374,25.2741521 L9.35650049,25.2741521 L9.38887459,25.2741521 C9.41662382,25.2780062 9.44437305,25.2803186 9.47250766,25.2810894 C9.48214288,25.2810894 9.49062176,25.2764645 9.50025689,25.2764645 C9.58080681,25.2753083 9.66058577,25.2614337 9.7368962,25.2356116 L9.74730218,25.2356116 L19.7327852,21.6898767 L19.7327852,25.307297 C19.7327852,25.7431912 20.0862024,26.0966084 20.5220966,26.0966084 C21.3792395,26.0966084 22.2294451,26.0792652 23.0730987,26.0530576 L16.9890801,29.3494347 C16.9455293,29.3767986 16.9046763,29.4084018 16.8676773,29.4442447 C16.7632323,29.5132322 16.6834532,29.6138233 16.6402878,29.7313721 C16.6356629,29.7433197 16.6356629,29.7575797 16.6306526,29.7699127 C16.6013618,29.8477646 16.5847893,29.9298561 16.5817061,30.0131038 C16.5817061,30.0242806 16.5755396,30.0327595 16.5755396,30.0431655 L16.5755396,34.1477389 C16.5755396,34.5836331 16.9289568,34.9370503 17.364851,34.9370503 L17.5228674,34.9370503 C17.8878468,34.9998715 18.1545478,35.3162898 18.1545478,35.686665 C18.1545478,36.0570401 17.8878468,36.3738437 17.5228674,36.4366649 L17.364851,36.4366649 C16.9289568,36.4366649 16.5755396,36.7900822 16.5755396,37.2259763 L16.5755396,40.3042138 C16.5755396,40.7401079 16.9289568,41.0935252 17.364851,41.0935252 L46.5693731,41.0935252 C47.0052672,41.0935252 47.3586845,40.7401079 47.3586845,40.3042138 L47.3586845,30.0431655 C47.3529034,25.7801902 44.895555,21.9010791 41.0441932,20.0742549 Z M37.8869476,12.6783145 C37.8911871,13.6780575 38.5228674,14.5675746 39.4655704,14.9009507 L39.4655704,19.4583762 C38.4415468,19.1504368 37.3778263,18.9935765 36.3083248,18.9928058 C36.1772867,18.9928058 36.0477903,19.0255652 35.9325539,19.0883864 L26.2935509,24.309481 L25.9913926,24.3318345 C24.4763618,24.4374358 22.9019784,24.4894656 21.311408,24.5044964 L21.311408,11.0950668 C28.8507194,11.0229959 36.3083248,9.91109969 39.4655704,7.84069887 L39.4655704,10.4556783 C38.5228674,10.7890544 37.8911871,11.6785715 37.8869476,12.6783145 Z M20.5220966,1.62795478 C32.959147,1.62795478 39.4655704,4.19707087 39.4655704,5.57451182 C39.4655704,6.92189106 33.2243063,9.4027492 21.311408,9.51066287 L21.311408,5.57451182 C21.311408,5.31821688 21.1865365,5.07810894 20.977261,4.93011305 C20.7679857,4.78250254 20.5001285,4.74550357 20.2584789,4.83106375 L9.40236382,8.68589412 C3.67176261,7.72931657 1.57862282,6.30601228 1.57862282,5.57451182 C1.57862282,4.19707087 8.0850462,1.62795478 20.5220966,1.62795478 Z M1.57862282,20.5714286 L1.57862282,7.86998972 C3.27094042,8.97494864 6.06590444,9.70259509 8.68242549,10.1643114 L8.68242549,23.557554 C3.49524664,22.6056013 1.57862282,21.2717112 1.57862282,20.5714286 Z M10.2610483,23.3775693 L10.2610483,10.0563977 L19.7327852,6.69295997 L19.7327852,11.2449897 C19.4799589,11.1513361 19.2128726,11.1023895 18.9434738,11.0996917 C17.6357914,11.0996917 16.5755396,12.1599435 16.5755396,13.4676259 C16.5755396,14.7753083 17.6357914,15.8355601 18.9434738,15.8355601 C19.2128726,15.8328623 19.4799589,15.7839157 19.7327852,15.6902621 L19.7327852,20.0141315 L10.2610483,23.3775693 Z M19.7327852,13.4676259 C19.7327852,13.9035201 19.379368,14.2569373 18.9434738,14.2569373 C18.5075796,14.2569373 18.1541624,13.9035201 18.1541624,13.4676259 C18.1541624,13.0317317 18.5075796,12.6783145 18.9434738,12.6783145 C19.379368,12.6783145 19.7327852,13.0317317 19.7327852,13.4676259 Z M45.7800617,39.5149024 L18.1541624,39.5149024 L18.1541624,37.9189363 C19.0991778,37.5836331 19.7308582,36.6898767 19.7308582,35.6870504 C19.7308582,34.6846095 19.0991778,33.7904677 18.1541624,33.4555499 L18.1541624,30.8324769 L45.7800617,30.8324769 L45.7800617,39.5149024 Z M20.4793165,29.2538541 L36.5025694,20.5714286 C37.6853802,20.5949383 38.8531604,20.8408274 39.94463,21.2967625 C43.2105601,22.6603289 45.4470709,25.7273895 45.7469167,29.2538541 L20.4793165,29.2538541 Z" id="Shape" fill="#000000"></path>
                            <path d="M23.6793422,37.1469681 C24.9870246,37.1469681 26.0472765,36.0867163 26.0472765,34.7790339 C26.0472765,33.4713515 24.9870246,32.4110997 23.6793422,32.4110997 C22.3716598,32.4110997 21.311408,33.4713515 21.311408,34.7790339 C21.311408,36.0867163 22.3716598,37.1469681 23.6793422,37.1469681 Z M23.6793422,33.9897225 C24.1152364,33.9897225 24.4686536,34.3431397 24.4686536,34.7790339 C24.4686536,35.2149281 24.1152364,35.5683453 23.6793422,35.5683453 C23.2434481,35.5683453 22.8900308,35.2149281 22.8900308,34.7790339 C22.8900308,34.3431397 23.2434481,33.9897225 23.6793422,33.9897225 Z" id="Shape" fill="#000000"></path>
                            <path d="M36.3083248,37.9362795 C37.6160072,37.9362795 38.676259,36.8760277 38.676259,35.5683453 C38.676259,34.2606629 37.6160072,33.2004111 36.3083248,33.2004111 C35.0006424,33.2004111 33.9403905,34.2606629 33.9403905,35.5683453 C33.9403905,36.8760277 35.0006424,37.9362795 36.3083248,37.9362795 Z M36.3083248,34.7790339 C36.7442189,34.7790339 37.0976362,35.1324512 37.0976362,35.5683453 C37.0976362,36.0042395 36.7442189,36.3576567 36.3083248,36.3576567 C35.8724306,36.3576567 35.5190134,36.0042395 35.5190134,35.5683453 C35.5190134,35.1324512 35.8724306,34.7790339 36.3083248,34.7790339 Z" id="Shape" fill="#000000"></path>
                            <polygon id="Path" fill="#000000" points="41.0441932 36.3576567 42.622816 36.3576567 42.622816 37.9362795 41.0441932 37.9362795"></polygon>
                            <polygon id="Path" fill="#000000" points="42.622816 32.4110997 44.2014388 32.4110997 44.2014388 33.9897225 42.622816 33.9897225"></polygon>
                            <polygon id="Path" fill="#000000" points="27.6258993 36.3576567 29.2045221 36.3576567 29.2045221 37.9362795 27.6258993 37.9362795"></polygon>
                            <polygon id="Path" fill="#000000" points="29.9938335 32.4110997 31.5724563 32.4110997 31.5724563 33.9897225 29.9938335 33.9897225"></polygon>
                            <path d="M14.2076053,15.8355601 C12.8999229,15.8355601 11.8396711,16.8958119 11.8396711,18.2034943 C11.8396711,19.5111767 12.8999229,20.5714286 14.2076053,20.5714286 C15.5152877,20.5714286 16.5755396,19.5111767 16.5755396,18.2034943 C16.5755396,16.8958119 15.5152877,15.8355601 14.2076053,15.8355601 Z M14.2076053,18.9928058 C13.7717112,18.9928058 13.4182939,18.6393885 13.4182939,18.2034943 C13.4182939,17.7676002 13.7717112,17.4141829 14.2076053,17.4141829 C14.6434995,17.4141829 14.9969168,17.7676002 14.9969168,18.2034943 C14.9969168,18.6393885 14.6434995,18.9928058 14.2076053,18.9928058 Z" id="Shape" fill="#000000"></path>
                            <polygon id="Path" fill="#000000" points="11.8396711 11.8890031 13.4182939 11.8890031 13.4182939 13.4676259 11.8396711 13.4676259"></polygon>
                        </g>
                    </g>
                </g>
            </g>
        </g>
    </g>
</svg>