<svg width="208" height="17" viewBox="0 0 208 17" fill="none" xmlns="http://www.w3.org/2000/svg">
<g id="RING">
<rect id="Rectangle 8" width="5.84628" height="16.4951" rx="2.92314" transform="matrix(1 0 0 -1 0.0441895 16.4951)" fill="#25182E"/>
<rect id="Rectangle 9" width="5.84628" height="16.4951" rx="2.92314" transform="matrix(1 0 0 -1 28.9106 16.4951)" fill="#25182E"/>
<rect id="Rectangle 10" width="5.84628" height="16.4951" rx="2.92314" transform="matrix(1 0 0 -1 57.7769 16.4951)" fill="#25182E"/>
<rect id="Rectangle 11" width="5.84628" height="16.4951" rx="2.92314" transform="matrix(1 0 0 -1 86.6438 16.4951)" fill="#25182E"/>
<rect id="Rectangle 12" width="5.84628" height="16.4951" rx="2.92314" transform="matrix(1 0 0 -1 115.51 16.4951)" fill="#25182E"/>
<rect id="Rectangle 13" width="5.84628" height="16.4951" rx="2.92314" transform="matrix(1 0 0 -1 144.376 16.4951)" fill="#25182E"/>
<rect id="Rectangle 14" width="5.84628" height="16.4951" rx="2.92314" transform="matrix(1 0 0 -1 173.243 16.4951)" fill="#25182E"/>
<rect id="Rectangle 15" width="5.84628" height="16.4951" rx="2.92314" transform="matrix(1 0 0 -1 202.109 16.4951)" fill="#25182E"/>
</g>
</svg>
