<?xml version="1.0" encoding="UTF-8"?>
<svg width="38px" height="38px" viewBox="0 0 38 38" version="1.1" xmlns="http://www.w3.org/2000/svg" xmlns:xlink="http://www.w3.org/1999/xlink">
    <!-- Generator: Sketch 64 (93537) - https://sketch.com -->
    <title>Group 27</title>
    <desc>Created with Sketch.</desc>
    <defs>
        <polygon id="path-1" points="0 0.0286 26.79265 0.0286 26.79265 19.9 0 19.9"></polygon>
    </defs>
    <g id="Page-1" stroke="none" stroke-width="1" fill="none" fill-rule="evenodd">
        <g id="Group-27">
            <g id="Group-24" transform="translate(0.000000, 0.027825)">
                <g id="Group-3" transform="translate(0.000000, 0.049999)">
                    <g fill="#F3E9FF" id="Fill-1">
                        <path d="M30.1890947,37.8317383 L-2.06764141e-05,37.8317383 L-2.06764141e-05,7.64262295 C-2.06764141e-05,3.42173977 3.4217191,-5.87659034e-15 7.64260227,-5.87659034e-15 L37.8317176,-5.87659034e-15 L37.8317176,30.1891153 C37.8317176,34.4099985 34.4099778,37.8317383 30.1890947,37.8317383"></path>
                    </g>
                    <g id="Group-17" transform="translate(5.000000, 9.922176)">
                        <polygon id="Fill-1" fill="#D4B1EF" points="0.5 16.4855 16.3855 16.4855 16.3855 0.6 0.5 0.6"></polygon>
                        <g id="Group-16" transform="translate(0.000000, 0.071400)">
                            <mask id="mask-2" fill="white">
                                <use xlink:href="#path-1"></use>
                            </mask>
                            <g id="Clip-3"></g>
                            <path d="M1,15.9142 L15.8854,15.9142 L15.8854,1.0287 L1,1.0287 L1,15.9142 Z M16.3854,16.9142 L0.5,16.9142 C0.2238,16.9142 0,16.6903 0,16.4142 L0,0.5286 C0,0.2524 0.2238,0.0286 0.5,0.0286 L16.3854,0.0286 C16.6616,0.0286 16.8854,0.2524 16.8854,0.5286 L16.8854,16.4142 C16.8854,16.6903 16.6616,16.9142 16.3854,16.9142 L16.3854,16.9142 Z" id="Fill-2" fill="#A179C5" mask="url(#mask-2)"></path>
                            <path d="M8.52063,16.41414 C8.52063,18.06324 7.18383,19.40004 5.53473,19.40004 C3.88573,19.40004 2.54883,18.06324 2.54883,16.41414 C2.54883,14.76504 3.88573,13.42824 5.53473,13.42824 C7.18383,13.42824 8.52063,14.76504 8.52063,16.41414" id="Fill-4" fill="#FFFFFF" mask="url(#mask-2)"></path>
                            <path d="M5.53477,13.92822 C4.16407,13.92822 3.04897,15.04342 3.04897,16.41412 C3.04897,17.78482 4.16407,18.90002 5.53477,18.90002 C6.90547,18.90002 8.02057,17.78482 8.02057,16.41412 C8.02057,15.04342 6.90547,13.92822 5.53477,13.92822 M5.53477,19.90002 C3.61267,19.90002 2.04897,18.33622 2.04897,16.41412 C2.04897,14.49202 3.61267,12.92822 5.53477,12.92822 C7.45687,12.92822 9.02057,14.49202 9.02057,16.41412 C9.02057,18.33622 7.45687,19.90002 5.53477,19.90002" id="Fill-5" fill="#A179C5" mask="url(#mask-2)"></path>
                            <path d="M22.92015,9.40531 L16.38545,9.40531 L16.38545,2.87061 L19.55125,2.87061 C21.41185,2.87061 22.92015,4.37891 22.92015,6.23951 L22.92015,9.40531 Z" id="Fill-6" fill="#FFEBDE" mask="url(#mask-2)"></path>
                            <path d="M16.88545,8.90527 L22.42015,8.90527 L22.42015,6.23957 C22.42015,4.65757 21.13325,3.37057 19.55125,3.37057 L16.88545,3.37057 L16.88545,8.90527 Z M23.42015,9.90527 L15.88545,9.90527 L15.88545,2.37057 L19.55125,2.37057 C21.68455,2.37057 23.42015,4.10627 23.42015,6.23957 L23.42015,9.90527 Z" id="Fill-7" fill="#A179C5" mask="url(#mask-2)"></path>
                            <path d="M26.29268,16.41414 L16.38548,16.41414 L16.38548,8.47134 L23.49428,8.47134 C25.03978,8.47134 26.29268,9.72434 26.29268,11.26984 L26.29268,16.41414 Z" id="Fill-8" fill="#F8CAC3" mask="url(#mask-2)"></path>
                            <path d="M16.88545,15.91416 L25.79265,15.91416 L25.79265,11.26986 C25.79265,10.00246 24.76165,8.97136 23.49425,8.97136 L16.88545,8.97136 L16.88545,15.91416 Z M26.29265,16.91416 L16.38545,16.91416 C16.10925,16.91416 15.88545,16.69036 15.88545,16.41416 L15.88545,8.47136 C15.88545,8.19526 16.10925,7.97136 16.38545,7.97136 L23.49425,7.97136 C25.31295,7.97136 26.79265,9.45106 26.79265,11.26986 L26.79265,16.41416 C26.79265,16.69036 26.56885,16.91416 26.29265,16.91416 L26.29265,16.91416 Z" id="Fill-9" fill="#A179C5" mask="url(#mask-2)"></path>
                            <path d="M24.41454,16.41414 C24.41454,18.06324 23.07774,19.40004 21.42864,19.40004 C19.77964,19.40004 18.44274,18.06324 18.44274,16.41414 C18.44274,14.76504 19.77964,13.42824 21.42864,13.42824 C23.07774,13.42824 24.41454,14.76504 24.41454,16.41414" id="Fill-10" fill="#FFFFFF" mask="url(#mask-2)"></path>
                            <path d="M21.42871,13.92822 C20.05801,13.92822 18.94281,15.04342 18.94281,16.41412 C18.94281,17.78482 20.05801,18.90002 21.42871,18.90002 C22.79941,18.90002 23.91451,17.78482 23.91451,16.41412 C23.91451,15.04342 22.79941,13.92822 21.42871,13.92822 M21.42871,19.90002 C19.50651,19.90002 17.94281,18.33622 17.94281,16.41412 C17.94281,14.49202 19.50651,12.92822 21.42871,12.92822 C23.35081,12.92822 24.91451,14.49202 24.91451,16.41412 C24.91451,18.33622 23.35081,19.90002 21.42871,19.90002" id="Fill-11" fill="#A179C5" mask="url(#mask-2)"></path>
                            <path d="M12.88867,7.41175 C12.88867,9.73325 11.00667,11.61525 8.68517,11.61525 C6.36357,11.61525 4.48157,9.73325 4.48157,7.41175 C4.48157,5.09025 6.36357,3.20825 8.68517,3.20825 C11.00667,3.20825 12.88867,5.09025 12.88867,7.41175" id="Fill-12" fill="#E9D9FF" mask="url(#mask-2)"></path>
                            <path d="M8.68516,3.7082 C6.64306,3.7082 4.98166,5.3696 4.98166,7.4117 C4.98166,9.4538 6.64306,11.1152 8.68516,11.1152 C10.72726,11.1152 12.38866,9.4538 12.38866,7.4117 C12.38866,5.3696 10.72726,3.7082 8.68516,3.7082 M8.68516,12.1152 C6.09156,12.1152 3.98166,10.0053 3.98166,7.4117 C3.98166,4.8182 6.09156,2.7082 8.68516,2.7082 C11.27876,2.7082 13.38866,4.8182 13.38866,7.4117 C13.38866,10.0053 11.27876,12.1152 8.68516,12.1152" id="Fill-13" fill="#A179C5" mask="url(#mask-2)"></path>
                            <polyline id="Fill-14" fill="#E9D9FF" mask="url(#mask-2)" points="8.62063 5.08301 8.62063 7.45971 10.82083 7.45971"></polyline>
                            <polygon id="Fill-15" fill="#A179C5" mask="url(#mask-2)" points="10.8209 7.95967 8.1206 7.95967 8.1206 5.08297 9.1206 5.08297 9.1206 6.95967 10.8209 6.95967"></polygon>
                        </g>
                    </g>
                </g>
            </g>
        </g>
    </g>
</svg>