<?xml version="1.0" encoding="UTF-8"?>
<svg width="36px" height="34px" viewBox="0 0 36 34" version="1.1" xmlns="http://www.w3.org/2000/svg" xmlns:xlink="http://www.w3.org/1999/xlink">
    <title>express-delivery</title>
    <g id="Page-1" stroke="none" stroke-width="1" fill="none" fill-rule="evenodd">
        <g id="LL21---Shipping" transform="translate(-28.000000, -413.000000)" fill-rule="nonzero">
            <g id="Group-7" transform="translate(16.000000, 282.000000)">
                <g id="Group-5-Copy" transform="translate(0.000000, 119.000000)">
                    <g id="express-delivery" transform="translate(12.000000, 12.000000)">
                        <path d="M30.5054297,4.20335156 L23.6888438,4.20335156 L23.6888438,1.19327344 C23.6888438,0.83446875 23.9797266,0.54365625 24.3384609,0.54365625 L29.8558125,0.54365625 C30.2146172,0.54365625 30.5054297,0.834539062 30.5054297,1.19327344 L30.5054297,4.20335156 Z" id="Path" fill="#F3F0FC"></path>
                        <path d="M29.8558125,0.54365625 L28.371375,0.54365625 C28.7301797,0.54365625 29.0209922,0.83446875 29.0209922,1.19327344 L29.0209922,4.20335156 L30.5054297,4.20335156 L30.5054297,1.19327344 C30.5054297,0.83446875 30.2145469,0.54365625 29.8558125,0.54365625 Z" id="Path" fill="#F3F0FC"></path>
                        <circle id="Oval" fill="#F9F6F6" cx="27.0971016" cy="10.9629844" r="8.37555469"></circle>
                        <path d="M27.0971016,2.58742969 C26.7989063,2.58742969 26.5044375,2.60332031 26.2142578,2.63369531 C30.4249219,3.07483594 33.7069688,6.63546094 33.7069688,10.9629844 C33.7069688,15.2904375 30.4249219,18.8511328 26.2142578,19.2922734 C26.5044375,19.3226484 26.7989063,19.3385391 27.0971016,19.3385391 C31.7228203,19.3385391 35.4726562,15.5887031 35.4726562,10.9629844 C35.4726562,6.33726563 31.7228203,2.58742969 27.0971016,2.58742969 Z" id="Path" fill="#DDDAEC"></path>
                        <path d="M34.5329297,28.7787656 L4.86133594,28.7787656 C4.59808594,28.7787656 4.38461719,28.5653672 4.38461719,28.3020469 L4.38461719,14.8741875 C4.38461719,14.4559687 4.72366406,14.1169922 5.1418125,14.1169922 L26.8792734,14.1169922 C27.2612109,14.1169922 27.6255703,14.2775859 27.8831953,14.5595391 L35.1177891,22.4761641 C35.3460234,22.7259141 35.4725859,23.0520937 35.4725859,23.3904375 L35.4725859,27.8390391 C35.4725859,28.3580156 35.0519063,28.7787656 34.5329297,28.7787656 L34.5329297,28.7787656 Z" id="Path" fill="#F3F0FC"></path>
                        <path d="M27.8831953,14.5595391 C27.6255703,14.2775859 27.2612109,14.1169922 26.8792734,14.1169922 L23.9610937,14.1169922 L23.9610937,20.9138906 C23.9610937,21.2087813 24.2001562,21.4478438 24.4950469,21.4478438 L34.1780625,21.4478438 L27.8831953,14.5595391 Z" id="Path" fill="#E4F6FF"></path>
                        <path d="M26.3353359,14.5595391 L32.6302734,21.4479141 L34.1781328,21.4479141 L27.8831953,14.5595391 C27.6255703,14.2775859 27.2612109,14.1169922 26.8792734,14.1169922 L25.3314141,14.1169922 C25.7133516,14.1169922 26.0777109,14.2775859 26.3353359,14.5595391 L26.3353359,14.5595391 Z" id="Path" fill="#D3EFFB"></path>
                        <circle id="Oval" fill="#FFF7F7" cx="29.4099609" cy="28.9788047" r="3.52441406"></circle>
                        <circle id="Oval" fill="#F9F6F6" cx="29.4099609" cy="28.9788047" r="1.171125"></circle>
                        <circle id="Oval" fill="#FFF7F7" cx="11.8532813" cy="28.9788047" r="3.52441406"></circle>
                        <circle id="Oval" fill="#F9F6F6" cx="11.8532813" cy="28.9788047" r="1.171125"></circle>
                        <path d="M10.7776406,22.6244531 L10.3671563,22.2027188 L12.8682422,19.7682891 L10.3671563,17.3337891 L10.7776406,16.9120547 C11.3453438,16.3288125 12.2783203,16.3162266 12.8615625,16.8839297 L15.0534844,19.0174219 C15.1671094,19.1280234 15.2596406,19.2602813 15.3139219,19.4092734 C15.4580625,19.8052031 15.350625,20.2300313 15.0657891,20.5072031 L12.8615625,22.6526484 C12.2783906,23.2202813 11.3453438,23.2076953 10.7776406,22.6244531 L10.7776406,22.6244531 Z" id="Path" fill="#F9F6F6"></path>
                        <g id="Group" fill="#8B7FBF">
                            <path d="M27.0971016,5.75296875 C27.3884062,5.75296875 27.6244453,5.51692969 27.6244453,5.225625 L27.6244453,4.51673438 C27.6244453,4.22542969 27.3884062,3.98939062 27.0971016,3.98939062 C26.8057969,3.98939062 26.5697578,4.22542969 26.5697578,4.51673438 L26.5697578,5.225625 C26.5697578,5.51685937 26.8058672,5.75296875 27.0971016,5.75296875 Z" id="Path"></path>
                            <path d="M32.8345312,10.4356406 C32.5432266,10.4356406 32.3071875,10.6716797 32.3071875,10.9629844 C32.3071875,11.2542891 32.5432266,11.4903281 32.8345312,11.4903281 L33.5433516,11.4903281 C33.8346562,11.4903281 34.0706953,11.2542891 34.0706953,10.9629844 C34.0706953,10.6716797 33.8346562,10.4356406 33.5433516,10.4356406 L32.8345312,10.4356406 Z" id="Path"></path>
                            <path d="M20.6508516,10.4356406 C20.3595469,10.4356406 20.1235078,10.6716797 20.1235078,10.9629844 C20.1235078,11.2542891 20.3595469,11.4903281 20.6508516,11.4903281 L21.3597422,11.4903281 C21.6510469,11.4903281 21.8870859,11.2542891 21.8870859,10.9629844 C21.8870859,10.6716797 21.6510469,10.4356406 21.3597422,10.4356406 L20.6508516,10.4356406 Z" id="Path"></path>
                            <path d="M29.4099609,27.2803359 C28.4733984,27.2803359 27.7114219,28.0423125 27.7114219,28.9788047 C27.7114219,29.9152969 28.4733984,30.6772734 29.4099609,30.6772734 C30.3464531,30.6772734 31.1084297,29.9152969 31.1084297,28.9788047 C31.1084297,28.0423125 30.3464531,27.2803359 29.4099609,27.2803359 Z M29.4099609,29.6225859 C29.0548828,29.6225859 28.7661094,29.3338125 28.7661094,28.9788047 C28.7661094,28.6237969 29.0548828,28.3350234 29.4099609,28.3350234 C29.7649687,28.3350234 30.0537422,28.6237969 30.0537422,28.9788047 C30.0537422,29.3338125 29.7649687,29.6225859 29.4099609,29.6225859 Z" id="Shape"></path>
                            <path d="M10.1548125,28.9788047 C10.1548125,29.9152969 10.9167891,30.6772734 11.8533516,30.6772734 C12.7899141,30.6772734 13.5518203,29.9152969 13.5518203,28.9788047 C13.5518203,28.0423125 12.7899141,27.2803359 11.8533516,27.2803359 C10.9167891,27.2803359 10.1548125,28.0422422 10.1548125,28.9788047 Z M12.4971328,28.9788047 C12.4971328,29.3338125 12.2083594,29.6225859 11.8533516,29.6225859 C11.4983438,29.6225859 11.2095,29.3338125 11.2095,28.9788047 C11.2095,28.6237969 11.4983438,28.3350234 11.8533516,28.3350234 C12.2083594,28.3350234 12.4971328,28.6237969 12.4971328,28.9788047 Z" id="Shape"></path>
                            <path d="M15.4336641,20.8849922 C16.029,20.3055469 16.097625,19.2976172 15.4213594,18.6394922 L13.2294375,16.5058594 C12.4387031,15.7365 11.1693516,15.7535156 10.3997813,16.5441094 L9.98929688,16.9658438 C9.78616406,17.1746016 9.79066406,17.5084453 9.99935156,17.7115078 L12.1122422,19.7681484 L9.99935156,21.8247188 C9.89915625,21.9222422 9.84178125,22.055625 9.83983421,22.1954063 C9.83798438,22.3352578 9.89177344,22.4701172 9.98929688,22.5703828 L10.3997813,22.9921172 C11.1718828,23.7853125 12.4384922,23.8003594 13.2294375,23.0302969 L15.4336641,20.8849922 Z M11.1555703,22.2565781 L11.1128906,22.2127734 L13.2361172,20.1460781 C13.3380703,20.0468672 13.3956563,19.9105313 13.3956563,19.7682188 C13.3956563,19.6259063 13.3381406,19.4895703 13.2361172,19.3903594 L11.1128906,17.3235938 L11.1555703,17.2797891 C11.5196484,16.9057969 12.1199063,16.8977109 12.4938281,17.2616484 L14.68575,19.3952813 C14.9196797,19.6229531 14.8883906,19.9438594 14.6980547,20.1292031 L12.4938281,22.2746484 C12.1216641,22.6368281 11.5226016,22.6336641 11.1555703,22.2565781 L11.1555703,22.2565781 Z" id="Shape"></path>
                            <path d="M26.5697578,10.9629844 C26.5697578,11.2542891 26.8057969,11.4903281 27.0971016,11.4903281 L28.8904922,11.4903281 C29.1817969,11.4903281 29.4178359,11.2542891 29.4178359,10.9629844 C29.4178359,10.6716797 29.1817969,10.4356406 28.8904922,10.4356406 L27.6244453,10.4356406 L27.6244453,7.151625 C27.6244453,6.86032031 27.3884062,6.62428125 27.0971016,6.62428125 C26.8057969,6.62428125 26.5697578,6.86032031 26.5697578,7.151625 L26.5697578,10.9629844 Z" id="Path"></path>
                            <path d="M9.00850781,6.45609375 L18.0887344,6.45609375 C18.3800391,6.45609375 18.6160781,6.22005469 18.6160781,5.92875 C18.6160781,5.63744531 18.3800391,5.40140625 18.0887344,5.40140625 L9.00850781,5.40140625 C8.71727344,5.40140625 8.48116406,5.63744531 8.48116406,5.92875 C8.48116406,6.22005469 8.71727344,6.45609375 9.00850781,6.45609375 Z" id="Path"></path>
                            <path d="M6.80744531,9.18049219 L16.2329766,9.18049219 C16.5242109,9.18049219 16.7603203,8.94445313 16.7603203,8.65314844 C16.7603203,8.36184375 16.5242109,8.12580469 16.2329766,8.12580469 L6.80744531,8.12580469 C6.51621094,8.12580469 6.28010156,8.36184375 6.28010156,8.65314844 C6.28010156,8.94445313 6.51621094,9.18049219 6.80744531,9.18049219 Z" id="Path"></path>
                            <path d="M12.1997812,10.5553828 C11.9085469,10.5553828 11.6724375,10.7914219 11.6724375,11.0827266 C11.6724375,11.3740312 11.9085469,11.6100703 12.1997812,11.6100703 L16.8899766,11.6100703 C17.1812109,11.6100703 17.4173203,11.3740312 17.4173203,11.0827266 C17.4173203,10.7914219 17.1812109,10.5553828 16.8899766,10.5553828 L12.1997812,10.5553828 Z" id="Path"></path>
                            <path d="M7.75371094,10.5553828 C7.46247656,10.5553828 7.22636719,10.7914219 7.22636719,11.0827266 C7.22636719,11.3740312 7.46247656,11.6100703 7.75371094,11.6100703 L10.0945547,11.6100703 C10.3857891,11.6100703 10.6218984,11.3740312 10.6218984,11.0827266 C10.6218984,10.7914219 10.3857891,10.5553828 10.0945547,10.5553828 L7.75371094,10.5553828 Z" id="Path"></path>
                            <path d="M0.52734375,18.8722969 L2.45601563,18.8722969 C2.74725,18.8722969 2.98335938,18.6362578 2.98335938,18.3449531 C2.98335938,18.0536484 2.74725,17.8176094 2.45601563,17.8176094 L0.52734375,17.8176094 C0.236109375,17.8176094 0,18.0536484 0,18.3449531 C0,18.6362578 0.236109375,18.8722969 0.52734375,18.8722969 Z" id="Path"></path>
                            <path d="M1.93359375,23.5174219 L0.52734375,23.5174219 C0.236109375,23.5174219 0,23.7534609 0,24.0447656 C0,24.3360703 0.236109375,24.5721094 0.52734375,24.5721094 L1.93359375,24.5721094 C2.22482813,24.5721094 2.4609375,24.3360703 2.4609375,24.0447656 C2.4609375,23.7534609 2.22482813,23.5174219 1.93359375,23.5174219 Z" id="Path"></path>
                            <path d="M8.13747656,19.0518047 L6.25675781,19.0518047 C5.96552344,19.0518047 5.72941406,19.2878438 5.72941406,19.5791484 C5.72941406,19.8704531 5.96552344,20.1064922 6.25675781,20.1064922 L8.13747656,20.1064922 C8.42871094,20.1064922 8.66482031,19.8704531 8.66482031,19.5791484 C8.66482031,19.2878438 8.42871094,19.0518047 8.13747656,19.0518047 Z" id="Path"></path>
                            <path d="M32.0631328,18.3518438 C34.5064922,16.7057578 36,13.9317891 36,10.9629141 C36,9.55188281 35.6790234,8.20167188 35.0458594,6.95003906 C34.9144453,6.69016406 34.597125,6.58603125 34.3373203,6.71744531 C34.0774453,6.84885938 33.9732422,7.16617969 34.1047266,7.42598438 C34.6624453,8.52876563 34.9453125,9.71880469 34.9453125,10.9629141 C34.9453125,13.6329609 33.5746406,16.1240625 31.3426406,17.5633594 L28.2724453,14.2037578 C27.9158203,13.8133828 27.4079531,13.5895781 26.8792734,13.5895781 L19.6999453,13.5895781 C19.4006953,12.7480781 19.2488906,11.8661484 19.2488906,10.9629141 C19.2488906,6.63539062 22.7695781,3.11477344 27.0971016,3.11477344 C29.3418984,3.11477344 31.4839687,4.07974219 32.9740313,5.76225 C33.1669688,5.98021875 33.50025,6.00060937 33.7184297,5.80739062 C33.9364687,5.6143125 33.9567188,5.28103125 33.7635703,5.06299219 C32.9888672,4.18816406 32.0583516,3.48503906 31.0327734,2.97928125 L31.0327734,1.19327344 C31.0327734,0.544289062 30.5047969,0.0163125 29.8558125,0.0163125 L24.3384609,0.0163125 C23.6894766,0.0163125 23.1615,0.544289062 23.1615,1.19327344 L23.1615,2.97878906 C20.2211016,4.43411719 18.1942031,7.46599219 18.1942031,10.9629141 C18.1942031,11.8617891 18.3272344,12.7421016 18.5891484,13.5895781 L5.1418125,13.5895781 C4.46913281,13.5895781 3.91654687,14.1096094 3.86261719,14.7687187 L1.93359375,14.7687187 C1.64235937,14.7687187 1.40625,15.0047578 1.40625,15.2960625 C1.40625,15.5873672 1.64235937,15.8234062 1.93359375,15.8234062 L3.85727344,15.8234062 L3.85727344,20.9205 L0.52734375,20.9205 C0.236109375,20.9205 -2.49800181e-15,21.1565391 -2.49800181e-15,21.4478437 C-2.49800181e-15,21.7391484 0.236109375,21.9751875 0.52734375,21.9751875 L3.85727344,21.9751875 L3.85727344,23.5176328 C3.56835937,23.5203047 3.33485156,23.7551484 3.33485156,24.0446953 C3.33485156,24.3342422 3.56828906,24.5690859 3.85727344,24.5717578 L3.85727344,28.3019766 C3.85727344,28.8556172 4.30769531,29.3059687 4.86126562,29.3059687 L6.28010156,29.3059687 L6.28010156,29.6730703 L4.63478906,29.6730703 C4.34355469,29.6730703 4.10744531,29.9091094 4.10744531,30.2004141 C4.10744531,30.4917187 4.34355469,30.7277578 4.63478906,30.7277578 L6.80744531,30.7277578 C7.09867969,30.7277578 7.33478906,30.4917187 7.33478906,30.2004141 L7.33478906,29.3059687 L7.8159375,29.3059687 C7.98328125,31.3875 9.72949219,33.0304219 11.8533516,33.0304219 C12.5542266,33.0304219 13.2461016,32.8475391 13.8540938,32.5016016 C14.1072187,32.3575312 14.1956016,32.0355703 14.0516016,31.7824453 C13.9076016,31.52925 13.5857109,31.4410078 13.3324453,31.5848672 C12.8831484,31.8405937 12.371625,31.9757344 11.8533516,31.9757344 C10.2007969,31.9757344 8.85628125,30.6312891 8.85628125,28.9786641 C8.85628125,27.3260391 10.2007969,25.9815937 11.8533516,25.9815937 C13.5059063,25.9815937 14.8504219,27.3260391 14.8504219,28.9786641 C14.8504219,29.4292266 14.7527578,29.8625625 14.5601016,30.2666484 C14.4347344,30.5295469 14.5463203,30.8442656 14.8091484,30.9695625 C15.0721172,31.0948594 15.3867656,30.9833437 15.5121328,30.7205156 C15.7258125,30.2723437 15.8516016,29.7976641 15.890625,29.3059687 L25.3725469,29.3059687 C25.5398906,31.3875 27.2861016,33.0304219 29.4099609,33.0304219 C31.5338203,33.0304219 33.2799609,31.3875 33.447375,29.3059687 L34.5329297,29.3059687 C35.341875,29.3059687 36,28.6478437 36,27.8388984 L36,23.3902266 C36,22.9190625 35.8249922,22.4680078 35.5071094,22.1202422 L32.0631328,18.3518438 Z M24.2161875,1.19327344 C24.2161875,1.12584375 24.2710312,1.071 24.3384609,1.071 L29.8558125,1.071 C29.9232422,1.071 29.9780859,1.12584375 29.9780859,1.19327344 L29.9780859,2.54088281 C29.0597344,2.226375 28.0873828,2.06015625 27.0971016,2.06015625 C26.0893125,2.06015625 25.1201953,2.22876563 24.2161172,2.53877344 L24.2161172,1.19327344 L24.2161875,1.19327344 Z M27.4939453,14.9153203 L32.9818359,20.9205 L29.0480625,20.9205 C28.7567578,20.9205 28.5207188,21.1565391 28.5207188,21.4478437 C28.5207188,21.7391484 28.7567578,21.9751875 29.0480625,21.9751875 L33.9456797,21.9751875 L34.7286094,22.8319453 C35.0478281,23.1812578 34.9136719,23.5603125 34.9453125,23.9625703 L34.5387656,23.9625703 C34.2474609,23.9625703 34.0114219,24.1986094 34.0114219,24.4899141 C34.0114219,24.7812187 34.2474609,25.0172578 34.5387656,25.0172578 L34.9453125,25.0172578 L34.9453125,25.7975859 L31.9147734,25.7975859 C31.2248672,25.2531562 30.3550313,24.9270469 29.4100313,24.9270469 C28.4650313,24.9270469 27.5951953,25.2531562 26.9052891,25.7975859 L21.1595625,25.7975859 L21.1595625,14.6443359 L23.4339609,14.6443359 L23.4339609,20.9138906 C23.4339609,21.4991016 23.9100469,21.9752578 24.4952578,21.9752578 L26.9398125,21.9752578 C27.2311172,21.9752578 27.4671563,21.7392187 27.4671563,21.4479141 C27.4671563,21.1566094 27.2311172,20.9205703 26.9398125,20.9205703 L24.4952578,20.9205703 C24.4916016,20.9205703 24.4886484,20.9175469 24.4886484,20.9138906 L24.4886484,14.6443359 L26.8794141,14.6443359 C27.1125,14.6443359 27.3365859,14.743125 27.4939453,14.9153203 Z M25.4248594,28.2514219 L21.1594219,28.2514219 L21.1594219,26.8522734 L25.9630313,26.8522734 C25.7020313,27.2737266 25.5168281,27.7464375 25.4248594,28.2514219 Z M15.3002109,26.8522734 L20.1047344,26.8522734 L20.1047344,28.2514219 L15.8383828,28.2514219 C15.7464141,27.7464375 15.5612109,27.2737266 15.3002109,26.8522734 L15.3002109,26.8522734 Z M4.91196094,26.8522734 L8.40635156,26.8522734 C8.14535156,27.2737266 7.96014844,27.7464375 7.86817969,28.2514219 L4.91196094,28.2514219 L4.91196094,26.8522734 Z M9.34853906,25.7975859 L4.91196094,25.7975859 L4.91196094,24.5721094 L7.19711719,24.5721094 C7.48835156,24.5721094 7.72446094,24.3360703 7.72446094,24.0447656 C7.72446094,23.7534609 7.48835156,23.5174219 7.19711719,23.5174219 L4.91196094,23.5174219 L4.91196094,21.9751875 L7.19711719,21.9751875 C7.48835156,21.9751875 7.72446094,21.7391484 7.72446094,21.4478437 C7.72446094,21.1565391 7.48835156,20.9205 7.19711719,20.9205 L4.91196094,20.9205 L4.91196094,14.8741875 C4.91196094,14.7474141 5.01503906,14.6442656 5.1418125,14.6442656 L20.1047344,14.6442656 L20.1047344,25.7975859 L14.3580938,25.7975859 C13.6681875,25.2530859 12.7983516,24.9269766 11.8533516,24.9269766 C10.9083516,24.9269766 10.0385156,25.2531562 9.34853906,25.7975859 L9.34853906,25.7975859 Z M29.4099609,31.975875 C27.7573359,31.975875 26.4128906,30.6314297 26.4128906,28.9788047 C26.4128906,27.3261797 27.7573359,25.9817344 29.4099609,25.9817344 C31.0625859,25.9817344 32.4070313,27.3261797 32.4070313,28.9788047 C32.4070313,30.6314297 31.0625859,31.975875 29.4099609,31.975875 Z M34.5328594,28.2514219 L33.3949922,28.2514219 C33.3030234,27.7464375 33.1178203,27.2737266 32.8568203,26.8522734 L34.9453125,26.8522734 L34.9453125,27.8390391 C34.9453125,28.0664297 34.7603203,28.2514219 34.5328594,28.2514219 Z" id="Shape"></path>
                        </g>
                    </g>
                </g>
            </g>
        </g>
    </g>
</svg>