<svg width="16" height="16" viewBox="0 0 16 16" fill="none" xmlns="http://www.w3.org/2000/svg">
<circle cx="8" cy="8" r="4" fill="#DDCAEA"/>
<path fill-rule="evenodd" clip-rule="evenodd" d="M2 8C2 4.69169 4.69169 2 8 2C11.3085 2 14 4.69169 14 8C14 11.3085 11.3085 14 8 14C4.69169 14 2 11.3085 2 8ZM3.10769 8.00003C3.10769 10.6976 5.3024 12.8923 8 12.8923C10.6976 12.8923 12.8923 10.6976 12.8923 8C12.8923 5.3024 10.6976 3.10769 8 3.10769C5.3024 3.10769 3.10769 5.30243 3.10769 8.00003Z" fill="#A775C8"/>
<path fill-rule="evenodd" clip-rule="evenodd" d="M5.68848 9.70203C5.6682 9.72157 5.64332 9.73134 5.61382 9.73134H5.10507C5.07558 9.73134 5.05069 9.72157 5.03041 9.70203C5.01014 9.68248 5 9.65849 5 9.63006V6.10128C5 6.07285 5.01014 6.04886 5.03041 6.02932C5.05069 6.00977 5.07558 6 5.10507 6H6.68664C6.85253 6 7.0083 6.03021 7.15392 6.09062C7.29954 6.15103 7.42765 6.23276 7.53825 6.33582C7.64885 6.43888 7.73548 6.5597 7.79816 6.69829C7.86083 6.83689 7.89217 6.98614 7.89217 7.14606C7.89217 7.27043 7.87189 7.38682 7.83134 7.4952C7.79078 7.60359 7.73456 7.70398 7.66267 7.79638C7.59078 7.88877 7.50507 7.97139 7.40553 8.04424C7.30599 8.11709 7.19539 8.17662 7.07373 8.22281L7.83134 9.57676C7.84977 9.6123 7.85069 9.64694 7.8341 9.6807C7.81751 9.71446 7.78525 9.73134 7.73733 9.73134H7.15668C7.13088 9.73134 7.11152 9.72601 7.09862 9.71535C7.08571 9.70469 7.07558 9.69403 7.0682 9.68337L6.33272 8.27079H5.71889V9.63006C5.71889 9.65849 5.70876 9.68248 5.68848 9.70203ZM5.72442 7.70043H6.62581C6.69954 7.70043 6.76959 7.68621 6.83594 7.65778C6.9023 7.62935 6.96037 7.59026 7.01014 7.54051C7.05991 7.49076 7.09954 7.43301 7.12903 7.36727C7.15853 7.30153 7.17327 7.23134 7.17327 7.15672C7.17327 7.08564 7.15853 7.01901 7.12903 6.95682C7.09954 6.89463 7.05991 6.83955 7.01014 6.79158C6.96037 6.7436 6.9023 6.70629 6.83594 6.67964C6.76959 6.65299 6.69954 6.63966 6.62581 6.63966H5.72442V7.70043ZM8.99816 11C9.02765 11 9.0553 10.9876 9.08111 10.9627C9.10691 10.9378 9.11982 10.9112 9.11982 10.8827V9.6887C9.1788 9.71002 9.26359 9.73223 9.37419 9.75533C9.48479 9.77843 9.60461 9.78998 9.73364 9.78998C9.92535 9.78998 10.0986 9.75711 10.2535 9.69136C10.4083 9.62562 10.541 9.535 10.6516 9.41951C10.7622 9.30402 10.8479 9.16809 10.9088 9.01173C10.9696 8.85537 11 8.68657 11 8.50533C11 8.32054 10.9687 8.14908 10.906 7.99094C10.8433 7.8328 10.7576 7.69598 10.6488 7.58049C10.5401 7.465 10.4111 7.37527 10.2618 7.3113C10.1124 7.24733 9.95115 7.21535 9.77788 7.21535C9.64147 7.21535 9.52166 7.2349 9.41843 7.27399C9.31521 7.31308 9.22857 7.35572 9.15853 7.40192C9.07373 7.45522 9.00184 7.51564 8.94286 7.58316L8.8765 7.38593C8.85069 7.30775 8.81014 7.26866 8.75484 7.26866H8.55023C8.51705 7.26866 8.48848 7.28021 8.46452 7.3033C8.44055 7.3264 8.42857 7.35394 8.42857 7.38593V10.8827C8.42857 10.9112 8.44055 10.9378 8.46452 10.9627C8.48848 10.9876 8.51705 11 8.55023 11H8.99816ZM9.43226 9.16098C9.49677 9.1752 9.56959 9.1823 9.65069 9.1823C9.75392 9.1823 9.84608 9.16365 9.92719 9.12633C10.0083 9.08902 10.0747 9.03838 10.1263 8.97441C10.1779 8.91045 10.2175 8.8376 10.2452 8.75586C10.2728 8.67413 10.2866 8.59062 10.2866 8.50533C10.2866 8.42004 10.2737 8.33653 10.2479 8.2548C10.2221 8.17306 10.1843 8.10021 10.1346 8.03625C10.0848 7.97228 10.0221 7.92075 9.94654 7.88166C9.87097 7.84257 9.78341 7.82303 9.68387 7.82303C9.59908 7.82303 9.52535 7.83458 9.46267 7.85768C9.4 7.88077 9.34562 7.9092 9.29954 7.94296C9.25346 7.97672 9.21567 8.01315 9.18618 8.05224C9.15668 8.09133 9.13456 8.12864 9.11982 8.16418V9.04371C9.16037 9.07214 9.20829 9.09524 9.26359 9.11301C9.31152 9.13077 9.36774 9.14677 9.43226 9.16098Z" fill="#262626"/>
<path d="M11.0093 4.16998C11.2359 3.94334 11.6034 3.94334 11.83 4.16998C12.0361 4.37601 12.0548 4.69842 11.8862 4.92561L11.83 4.9907L4.9907 11.83C4.76406 12.0567 4.39661 12.0567 4.16998 11.83C3.96394 11.624 3.94521 11.3016 4.11379 11.0744L4.16998 11.0093L11.0093 4.16998Z" fill="#A775C8"/>
</svg>
