<?xml version="1.0" encoding="UTF-8"?>
<svg width="36px" height="23px" viewBox="0 0 36 23" version="1.1" xmlns="http://www.w3.org/2000/svg" xmlns:xlink="http://www.w3.org/1999/xlink">
    <title>shipped</title>
    <g id="Page-1" stroke="none" stroke-width="1" fill="none" fill-rule="evenodd">
        <g id="LL21---Shipping" transform="translate(-28.000000, -325.000000)" fill-rule="nonzero">
            <g id="Group-7" transform="translate(16.000000, 282.000000)">
                <g id="Group-5" transform="translate(0.000000, 31.000000)">
                    <g id="shipped" transform="translate(12.000000, 12.000000)">
                        <path d="M24.8075399,0.570719603 L3.5857603,0.570719603 C3.26023863,0.570719603 2.99627792,0.83479419 2.99627792,1.1604563 L2.99627792,13.5451338 L4.76472508,13.5451338 C5.41583737,13.5451338 5.94368986,14.073145 5.94368986,14.7246071 C5.94368986,15.3760003 5.41576843,15.9040805 4.76472508,15.9040805 L2.99627792,15.9040805 L2.99627792,17.6732906 C2.99627792,17.9989527 3.26023863,18.2630273 3.5857603,18.2630273 L25.3970223,18.2630273 L25.3970223,1.1604563 C25.3970223,0.83479419 25.1330616,0.570719603 24.8075399,0.570719603 Z" id="Path" fill="#F3F0FC"></path>
                        <path d="M32.4597118,9.98759305 L25.3970223,9.98759305 L25.3970223,18.2630273 L34.8138958,18.2630273 L34.8138958,12.3519633 C34.8138958,11.0461817 33.7598678,9.98759305 32.4597118,9.98759305 Z" id="Path" fill="#F3F0FC"></path>
                        <path d="M30.1702818,2.85359801 L25.3970223,2.85359801 L25.3970223,5.27915633 L31.9602978,5.27915633 L31.9602978,4.67278448 C31.9602978,3.66802682 31.1588585,2.85359801 30.1702818,2.85359801 Z" id="Path" fill="#F3F0FC"></path>
                        <polygon id="Path" fill="#E4F6FF" points="32.5310174 9.98759305 31.3419718 5.27915633 25.3970223 5.27915633 25.3970223 9.98759305"></polygon>
                        <path d="M32.3883375,12.4131514 L34.8138958,12.4131514 L34.8138958,14.8387097 L33.6011521,14.8387097 C32.9313136,14.8387097 32.3884084,14.2958044 32.3884084,13.625966 L32.3884084,12.4131514 L32.3883375,12.4131514 Z" id="Path" fill="#FFF7F7"></path>
                        <circle id="Oval" fill="#8B7FBF" cx="29.4633995" cy="18.9050868" r="2.92493797"></circle>
                        <circle id="Oval" fill="#8B7FBF" cx="10.058933" cy="18.9050868" r="2.92493797"></circle>
                        <path d="M32.9076184,9.49642333 L31.9912794,5.82825768 C32.2418058,5.77500064 32.4297869,5.552566 32.4297869,5.28607327 L32.4297869,4.69464337 C32.4297869,3.41052603 31.3858696,2.36585791 30.1028292,2.36585791 L25.9290951,2.36585791 L25.9290951,1.14592568 C25.9290951,0.514034262 25.4154643,0 24.7840688,0 L3.50888906,0 C2.8774936,0 2.36386279,0.514034262 2.36386279,1.14592568 L2.36386279,11.2004414 C2.36386279,11.5066348 2.61190114,11.7549372 2.91792337,11.7549372 C3.2239456,11.7549372 3.47198394,11.506704 3.47198394,11.2004414 L3.47198394,1.14592568 C3.47198394,1.12552201 3.4885014,1.10899157 3.50888906,1.10899157 L24.7839997,1.10899157 C24.8043874,1.10899157 24.8209048,1.12552201 24.8209048,1.14592568 L24.8209048,11.2005797 C24.8209048,11.5067731 25.0689432,11.7550755 25.3749654,11.7550755 C25.6809185,11.7550755 25.929026,11.5068423 25.929026,11.2005797 L25.929026,10.5720082 L32.4647569,10.5720082 C32.4652407,10.5720082 32.4657245,10.5721465 32.4662082,10.5721465 C32.466692,10.5721465 32.4672449,10.5720774 32.4677287,10.5720774 C33.27197,10.5725615 33.954853,11.1009129 34.1894147,11.8288745 L32.4666229,11.8288745 C32.1606698,11.8288745 31.9125623,12.0771077 31.9125623,12.3833703 L31.9125623,13.5662301 C31.9125623,14.5242345 32.6913018,15.3035857 33.6485543,15.3035857 L34.2764942,15.3035857 L34.2764942,17.7432426 L32.8277955,17.7432426 C32.3518991,16.3681042 31.0456376,15.3774539 29.5117253,15.3774539 C27.9778131,15.3774539 26.6714824,16.368035 26.1956551,17.7432426 L25.9288878,17.7432426 L25.9288878,13.5662301 C25.9288878,13.2600367 25.6808494,13.0117343 25.3748272,13.0117343 C25.0688741,13.0117343 24.8207666,13.2599675 24.8207666,13.5662301 L24.8207666,17.7431735 L13.3257201,17.7431735 C12.8498238,16.3679658 11.5435622,15.3773847 10.00965,15.3773847 C8.47573771,15.3773847 7.16940703,16.3679658 6.69357978,17.7431735 L3.50888906,17.7431735 C3.4885014,17.7431735 3.47198394,17.726643 3.47198394,17.7062394 L3.47198394,16.4863763 L5.87282097,16.4863763 C6.17877409,16.4863763 6.42688154,16.2381431 6.42688154,15.9318805 C6.42688154,15.6256871 6.1788432,15.3773847 5.87282097,15.3773847 L0.554060577,15.3773847 C0.248107456,15.3773847 0,15.6256179 0,15.9318805 C0,16.238074 0.248038345,16.4863763 0.554060577,16.4863763 L2.3639319,16.4863763 L2.3639319,17.7062394 C2.3639319,18.3381308 2.87756271,18.8521651 3.50895818,18.8521651 L6.50172844,18.8521651 C6.50159022,18.8644764 6.50076089,18.8767186 6.50076089,18.8890992 C6.50076089,20.8254424 8.07489558,22.4007444 10.00965,22.4007444 C11.9444043,22.4007444 13.518539,20.8254424 13.518539,18.8890992 C13.518539,18.8766495 13.5177097,18.8644764 13.5175715,18.8521651 L26.0038038,18.8521651 C26.0036656,18.8644764 26.0028362,18.8767186 26.0028362,18.8890992 C26.0028362,20.8254424 27.5769709,22.4007444 29.5117253,22.4007444 C31.4464797,22.4007444 33.0206144,20.8254424 33.0206144,18.8890992 C33.0206144,18.8766495 33.019785,18.8644764 33.0196468,18.8521651 L34.8305548,18.8521651 C35.1365079,18.8521651 35.3846154,18.6039319 35.3846154,18.2976693 L35.3846154,12.383232 C35.3846154,10.9230897 34.3081469,9.70979735 32.9076184,9.49642333 Z M25.9290951,5.84049989 L30.8521967,5.84049989 L31.7571323,9.4630858 L25.9290951,9.4630858 L25.9290951,5.84049989 Z M30.1028292,3.47478031 C30.7749309,3.47478031 31.3217349,4.02201377 31.3217349,4.69464337 L31.3217349,4.73157748 L25.9290951,4.73157748 L25.9290951,3.47478031 L30.1028292,3.47478031 Z M10.00965,21.2918912 C8.68583427,21.2918912 7.60881294,20.214093 7.60881294,18.8891683 C7.60881294,17.5642436 8.68583427,16.4864455 10.00965,16.4864455 C11.3334656,16.4864455 12.410487,17.5642436 12.410487,18.8891683 C12.410487,20.214093 11.3334656,21.2918912 10.00965,21.2918912 Z M29.5118635,21.2918912 C28.1880478,21.2918912 27.1110265,20.214093 27.1110265,18.8891683 C27.1110265,17.5642436 28.1880478,16.4864455 29.5118635,16.4864455 C30.8356792,16.4864455 31.9127006,17.5642436 31.9127006,18.8891683 C31.9127006,20.214093 30.8356792,21.2918912 29.5118635,21.2918912 Z M33.6486925,14.1945941 C33.3024479,14.1945941 33.0207526,13.9126776 33.0207526,13.5661609 L33.0207526,12.9377278 L34.2765633,12.9377278 L34.2765633,14.194525 L33.6486925,14.194525 L33.6486925,14.1945941 Z" id="Shape" fill="#8B7FBF"></path>
                        <path d="M9.98759305,17.6923077 C9.35817559,17.6923077 8.84615385,18.2043294 8.84615385,18.8337469 C8.84615385,19.4631644 9.35817559,19.9751861 9.98759305,19.9751861 C10.6170105,19.9751861 11.1290323,19.4631644 11.1290323,18.8337469 C11.1290323,18.2043294 10.6170105,17.6923077 9.98759305,17.6923077 Z" id="Path" fill="#D7CDF5"></path>
                        <path d="M29.5347395,17.6923077 C28.905322,17.6923077 28.3933002,18.2043294 28.3933002,18.8337469 C28.3933002,19.4631644 28.905322,19.9751861 29.5347395,19.9751861 C30.1641569,19.9751861 30.6761787,19.4631644 30.6761787,18.8337469 C30.6761787,18.2043294 30.1641569,17.6923077 29.5347395,17.6923077 Z" id="Path" fill="#D7CDF5"></path>
                        <path d="M14.1253102,15.9801489 C14.1253102,16.2953011 14.3742782,16.5508685 14.6814474,16.5508685 L22.9860464,16.5508685 C23.2931462,16.5508685 23.5421836,16.2953723 23.5421836,15.9801489 C23.5421836,15.6649966 23.2932156,15.4094293 22.9860464,15.4094293 L14.681378,15.4094293 C14.3742782,15.4094293 14.1253102,15.6649966 14.1253102,15.9801489 Z" id="Path" fill="#8B7FBF"></path>
                        <path d="M1.83364621,14.1253102 L8.86734635,14.1253102 C9.17079608,14.1253102 9.41687345,13.869814 9.41687345,13.5545906 C9.41687345,13.2394383 9.17086462,12.983871 8.86734635,12.983871 L1.83364621,12.983871 C1.53019648,12.983871 1.28411911,13.2393671 1.28411911,13.5545906 C1.28411911,13.869814 1.53019648,14.1253102 1.83364621,14.1253102 Z" id="Path" fill="#8B7FBF"></path>
                    </g>
                </g>
            </g>
        </g>
    </g>
</svg>