<?xml version="1.0" encoding="UTF-8"?>
<svg width="38px" height="38px" viewBox="0 0 38 38" version="1.1" xmlns="http://www.w3.org/2000/svg" xmlns:xlink="http://www.w3.org/1999/xlink">
    <!-- Generator: Sketch 64 (93537) - https://sketch.com -->
    <title>Group 27</title>
    <desc>Created with Sketch.</desc>
    <defs>
        <polygon id="path-1" points="0 -5.87659034e-15 37.8317176 -5.87659034e-15 37.8317176 37.8317383 0 37.8317383"></polygon>
        <polygon id="path-3" points="0 0.027827027 26.0686216 0.027827027 26.0686216 19.3621622 0 19.3621622"></polygon>
    </defs>
    <g id="Page-1" stroke="none" stroke-width="1" fill="none" fill-rule="evenodd">
        <g id="Group-27">
            <g id="Group-24" transform="translate(0.000000, 0.027825)">
                <g id="Group-3" transform="translate(0.000000, 0.049999)">
                    <g>
                        <mask id="mask-2" fill="white">
                            <use xlink:href="#path-1"></use>
                        </mask>
                        <g id="Clip-2"></g>
                        <path d="M30.1890947,37.8317383 L-2.06764141e-05,37.8317383 L-2.06764141e-05,7.64262295 C-2.06764141e-05,3.42173977 3.4217191,-5.87659034e-15 7.64260227,-5.87659034e-15 L37.8317176,-5.87659034e-15 L37.8317176,30.1891153 C37.8317176,34.4099985 34.4099778,37.8317383 30.1890947,37.8317383" id="Fill-1" fill="#F3E9FF" mask="url(#mask-2)"></path>
                    </g>
                    <g id="Group-13" transform="translate(5.405405, 9.729730)">
                        <polygon id="Fill-1" fill="#D4B1EF" points="0.486486486 16.0399459 15.9426486 16.0399459 15.9426486 0.583783784 0.486486486 0.583783784"></polygon>
                        <g id="Group-12" transform="translate(0.000000, 0.069470)">
                            <mask id="mask-4" fill="white">
                                <use xlink:href="#path-3"></use>
                            </mask>
                            <g id="Clip-3"></g>
                            <path d="M0.972972973,15.4840865 L15.4561622,15.4840865 L15.4561622,1.0008973 L0.972972973,1.0008973 L0.972972973,15.4840865 Z M15.9426486,16.4570595 L0.486486486,16.4570595 C0.217751351,16.4570595 0,16.2392108 0,15.970573 L0,0.514313514 C0,0.245578378 0.217751351,0.027827027 0.486486486,0.027827027 L15.9426486,0.027827027 C16.2113838,0.027827027 16.4291351,0.245578378 16.4291351,0.514313514 L16.4291351,15.970573 C16.4291351,16.2392108 16.2113838,16.4570595 15.9426486,16.4570595 L15.9426486,16.4570595 Z" id="Fill-2" fill="#A179C5" mask="url(#mask-4)"></path>
                            <path d="M8.29039135,15.9705146 C8.29039135,17.5750443 6.98972108,18.8757146 5.38519135,18.8757146 C3.78075892,18.8757146 2.47999135,17.5750443 2.47999135,15.9705146 C2.47999135,14.3659849 3.78075892,13.0653146 5.38519135,13.0653146 C6.98972108,13.0653146 8.29039135,14.3659849 8.29039135,15.9705146" id="Fill-4" fill="#FFFFFF" mask="url(#mask-4)"></path>
                            <path d="M5.38518162,13.5517816 C4.05152757,13.5517816 2.96656541,14.6368411 2.96656541,15.9704951 C2.96656541,17.3041492 4.05152757,18.3892086 5.38518162,18.3892086 C6.71883568,18.3892086 7.80389514,17.3041492 7.80389514,15.9704951 C7.80389514,14.6368411 6.71883568,13.5517816 5.38518162,13.5517816 M5.38518162,19.3621816 C3.51503027,19.3621816 1.99359243,17.8406465 1.99359243,15.9704951 C1.99359243,14.1003438 3.51503027,12.5788086 5.38518162,12.5788086 C7.25543027,12.5788086 8.77686811,14.1003438 8.77686811,15.9704951 C8.77686811,17.8406465 7.25543027,19.3621816 5.38518162,19.3621816" id="Fill-5" fill="#A179C5" mask="url(#mask-4)"></path>
                            <path d="M22.3007351,9.15111243 L15.9426486,9.15111243 L15.9426486,2.79302595 L19.0228865,2.79302595 C20.8332,2.79302595 22.3007351,4.26056108 22.3007351,6.07087459 L22.3007351,9.15111243 Z" id="Fill-6" fill="#FFEBDE" mask="url(#mask-4)"></path>
                            <path d="M16.4291838,8.66458703 L21.8142973,8.66458703 L21.8142973,6.07093297 C21.8142973,4.53168973 20.5620811,3.27947351 19.0228378,3.27947351 L16.4291838,3.27947351 L16.4291838,8.66458703 Z M22.7872703,9.63756 L15.4562108,9.63756 L15.4562108,2.30650054 L19.0228378,2.30650054 C21.0984811,2.30650054 22.7872703,3.99528973 22.7872703,6.07093297 L22.7872703,9.63756 Z" id="Fill-7" fill="#A179C5" mask="url(#mask-4)"></path>
                            <path d="M25.5821157,15.9705146 L15.9426778,15.9705146 L15.9426778,8.24238486 L22.8593481,8.24238486 C24.3630778,8.24238486 25.5821157,9.46152 25.5821157,10.9652497 L25.5821157,15.9705146 Z" id="Fill-8" fill="#F8CAC3" mask="url(#mask-4)"></path>
                            <path d="M16.4291838,15.4840476 L25.0956486,15.4840476 L25.0956486,10.9652692 C25.0956486,9.73212324 24.0925135,8.72889081 22.8593676,8.72889081 L16.4291838,8.72889081 L16.4291838,15.4840476 Z M25.5821351,16.4570205 L15.9426973,16.4570205 C15.6739622,16.4570205 15.4562108,16.2392692 15.4562108,15.9705341 L15.4562108,8.24240432 C15.4562108,7.97376649 15.6739622,7.75591784 15.9426973,7.75591784 L22.8593676,7.75591784 C24.6289135,7.75591784 26.0686216,9.19562595 26.0686216,10.9652692 L26.0686216,15.9705341 C26.0686216,16.2392692 25.8508703,16.4570205 25.5821351,16.4570205 L25.5821351,16.4570205 Z" id="Fill-9" fill="#A179C5" mask="url(#mask-4)"></path>
                            <path d="M23.7547362,15.9705146 C23.7547362,17.5750443 22.4540659,18.8757146 20.8495362,18.8757146 C19.2451038,18.8757146 17.9443362,17.5750443 17.9443362,15.9705146 C17.9443362,14.3659849 19.2451038,13.0653146 20.8495362,13.0653146 C22.4540659,13.0653146 23.7547362,14.3659849 23.7547362,15.9705146" id="Fill-10" fill="#FFFFFF" mask="url(#mask-4)"></path>
                            <path d="M20.8495557,13.5517816 C19.5159016,13.5517816 18.4309395,14.6368411 18.4309395,15.9704951 C18.4309395,17.3041492 19.5159016,18.3892086 20.8495557,18.3892086 C22.1832097,18.3892086 23.2681719,17.3041492 23.2681719,15.9704951 C23.2681719,14.6368411 22.1832097,13.5517816 20.8495557,13.5517816 M20.8495557,19.3621816 C18.9794043,19.3621816 17.4579665,17.8406465 17.4579665,15.9704951 C17.4579665,14.1003438 18.9794043,12.5788086 20.8495557,12.5788086 C22.719707,12.5788086 24.2411449,14.1003438 24.2411449,15.9704951 C24.2411449,17.8406465 22.719707,19.3621816 20.8495557,19.3621816" id="Fill-11" fill="#A179C5" mask="url(#mask-4)"></path>
                        </g>
                    </g>
                </g>
            </g>
        </g>
    </g>
</svg>