<svg width="20" height="20" viewBox="0 0 20 20" fill="none" xmlns="http://www.w3.org/2000/svg">
<path d="M14.6875 12.1875C14.6875 12.3601 14.5476 12.5 14.375 12.5C14.2024 12.5 14.0625 12.3601 14.0625 12.1875C14.0625 12.0149 14.2024 11.875 14.375 11.875C14.5476 11.875 14.6875 12.0149 14.6875 12.1875Z" fill="#A774C8"/>
<path d="M9.0625 5.9375C8.875 5.9375 8.6875 5.875 8.5625 5.78125L7.40625 6.875H10.375L9.375 5.875C9.28125 5.90625 9.15625 5.9375 9.0625 5.9375Z" fill="#A774C8"/>
<path fill-rule="evenodd" clip-rule="evenodd" d="M3.4375 0H16.5625C18.4688 0 20 1.53125 20 3.4375V16.5625C20 18.4688 18.4688 20 16.5625 20H3.4375C1.53125 20 0 18.4688 0 16.5625V3.4375C0 1.53125 1.53125 0 3.4375 0ZM16.875 17.5C17.2188 17.5 17.5 17.2188 17.5 16.875V7.5C17.5 7.15625 17.2188 6.875 16.875 6.875H14.375V5.625C14.375 4.9375 13.8125 4.375 13.125 4.375H11.25L9.40625 2.59375C9.28125 2.46875 9.09375 2.46875 8.96875 2.59375L7.125 4.375H4.09375C3.40625 4.375 2.8125 4.84375 2.5625 5.46875C2.53125 5.625 2.5 5.78125 2.5 5.9375V16.5625C2.5 17.0938 2.90625 17.5 3.4375 17.5H16.875Z" fill="#A774C8"/>
<path d="M6.53143 6.875L8.34393 5.125H8.37518L8.40643 5.09375H8.43768L8.50018 5.0625H8.56268H8.62518H8.68768L8.81268 5.125L8.84393 5.15625V5.1875L8.87518 5.21875C8.96893 5.375 9.15643 5.40625 9.31268 5.3125H9.34393L9.40643 5.28125H9.37518H9.43768H9.50018C9.53143 5.28125 9.53143 5.28125 9.56268 5.3125L9.62518 5.34375C9.62518 5.34375 9.65643 5.34375 9.65643 5.375L11.3127 6.9375H13.0002L9.25018 3.3125L5.46875 6.875H6.53143Z" fill="#A774C8"/>
<path fill-rule="evenodd" clip-rule="evenodd" d="M3.125 7.5H4.6875H16.875V16.875H3.4375C3.25 16.875 3.125 16.75 3.125 16.5625V7.5ZM7.5 13.125H12.5C12.6875 13.125 12.8125 13 12.8125 12.8125C12.8125 12.625 12.6875 12.5 12.5 12.5H7.5C7.3125 12.5 7.1875 12.625 7.1875 12.8125C7.1875 13 7.3125 13.125 7.5 13.125ZM12.5 11.875H7.5C7.3125 11.875 7.1875 11.75 7.1875 11.5625C7.1875 11.375 7.3125 11.25 7.5 11.25H12.5C12.6875 11.25 12.8125 11.375 12.8125 11.5625C12.8125 11.75 12.6875 11.875 12.5 11.875ZM14.375 13.125C14.9062 13.125 15.3125 12.7188 15.3125 12.1875C15.3125 11.6562 14.9062 11.25 14.375 11.25C13.8438 11.25 13.4375 11.6562 13.4375 12.1875C13.4375 12.7188 13.8438 13.125 14.375 13.125Z" fill="#A774C8"/>
<path d="M13.75 5.625C13.75 5.28125 13.4688 5 13.125 5H11.9375L13.75 6.75V5.625Z" fill="#A774C8"/>
<path d="M4.06257 6.875H4.56257L6.50007 5H4.09382C3.68757 5.03125 3.31257 5.28125 3.15632 5.65625C3.06257 6 3.15632 6.34375 3.37507 6.59375C3.59382 6.78125 3.81257 6.875 4.06257 6.875Z" fill="#A774C8"/>
</svg>
