<?xml version="1.0" encoding="UTF-8"?>
<svg width="73px" height="58px" viewBox="0 0 73 58" version="1.1" xmlns="http://www.w3.org/2000/svg" xmlns:xlink="http://www.w3.org/1999/xlink">
    <title>box</title>
    <defs>
        <filter x="-16.8%" y="-21.7%" width="133.6%" height="143.4%" filterUnits="objectBoundingBox" id="filter-1">
            <feOffset dx="3" dy="2" in="SourceAlpha" result="shadowOffsetOuter1"></feOffset>
            <feGaussianBlur stdDeviation="1" in="shadowOffsetOuter1" result="shadowBlurOuter1"></feGaussianBlur>
            <feColorMatrix values="0 0 0 0 0.476420969   0 0 0 0 0.264228444   0 0 0 0 0.275396471  0 0 0 0.32 0" type="matrix" in="shadowBlurOuter1" result="shadowMatrixOuter1"></feColorMatrix>
            <feMerge>
                <feMergeNode in="shadowMatrixOuter1"></feMergeNode>
                <feMergeNode in="SourceGraphic"></feMergeNode>
            </feMerge>
        </filter>
        <linearGradient x1="90.9278658%" y1="30.5575829%" x2="8.07554661%" y2="73.1476648%" id="linearGradient-2">
            <stop stop-color="#F2C4C3" offset="0%"></stop>
            <stop stop-color="#F6D0CD" offset="100%"></stop>
        </linearGradient>
        <filter x="-20.8%" y="-27.0%" width="141.5%" height="154.0%" filterUnits="objectBoundingBox" id="filter-3">
            <feOffset dx="3" dy="3" in="SourceAlpha" result="shadowOffsetOuter1"></feOffset>
            <feGaussianBlur stdDeviation="2" in="shadowOffsetOuter1" result="shadowBlurOuter1"></feGaussianBlur>
            <feColorMatrix values="0 0 0 0 0.476420969   0 0 0 0 0.264228444   0 0 0 0 0.275396471  0 0 0 0.32 0" type="matrix" in="shadowBlurOuter1" result="shadowMatrixOuter1"></feColorMatrix>
            <feMerge>
                <feMergeNode in="shadowMatrixOuter1"></feMergeNode>
                <feMergeNode in="SourceGraphic"></feMergeNode>
            </feMerge>
        </filter>
        <linearGradient x1="90.9278658%" y1="30.5753607%" x2="8.07554661%" y2="73.1264989%" id="linearGradient-4">
            <stop stop-color="#F2C4C3" offset="0%"></stop>
            <stop stop-color="#F6D0CD" offset="100%"></stop>
        </linearGradient>
    </defs>
    <g id="Page-1" stroke="none" stroke-width="1" fill="none" fill-rule="evenodd">
        <g id="LL21---Shipping-variation" transform="translate(-261.000000, -1057.000000)">
            <g id="Group-Copy-2" transform="translate(15.000000, 1042.000000)">
                <g id="box" transform="translate(247.000000, 16.000000)">
                    <g id="Group-41" filter="url(#filter-1)">
                        <polygon id="Fill-1" fill="url(#linearGradient-2)" points="0 48.3333333 62.0277778 48.3333333 62.0277778 0 0 0"></polygon>
                        <g id="Group-40" transform="translate(4.833333, 23.361111)" fill="#231916">
                            <path d="M2.33344545,2.68889897 C3.1288858,2.68889897 3.3989483,2.07758625 3.3989483,1.42299115 C3.3989483,0.696529458 3.15071818,0.121028226 2.43552216,0.121028226 L2.2020392,0.121028226 L2.2020392,2.68889897 L2.33344545,2.68889897 Z M0.209772159,4.89004704 C0.341013636,4.88290099 0.676820455,4.85407314 0.764397159,4.81818044 C0.939550568,4.7533787 0.983380114,4.62393761 0.983380114,4.46566868 L0.983380114,0.509513889 C0.983380114,0.35124496 0.946882955,0.228949933 0.764397159,0.157083333 C0.625658523,0.106736111 0.333846023,0.092281586 0.209772159,0.0779894713 L0.209772159,0.0275610439 L2.84415852,0.0275610439 C4.08481477,0.0275610439 4.70518409,0.416127912 4.70518409,1.2503489 C4.70518409,2.32932236 3.64693125,2.78244736 2.53051364,2.78244736 L2.2020392,2.78244736 L2.2020392,4.45844142 C2.2020392,4.61671035 2.26036875,4.73900538 2.42093977,4.81095318 C2.50851648,4.84692708 2.77857898,4.87567372 2.95365,4.89004704 L2.95365,4.94039427 L0.209772159,4.94039427 L0.209772159,4.89004704 Z" id="Fill-2"></path>
                            <path d="M5.03384801,4.89007953 C5.15058949,4.88285226 5.24549858,4.88285226 5.34040767,4.84695957 C5.47898153,4.79661234 5.52281108,4.68869064 5.52281108,4.53042171 L5.52281108,2.16393985 C5.52281108,2.02727151 5.44256676,1.86185652 5.33307528,1.78268145 C5.25283097,1.72510697 5.09225994,1.70358759 4.96810369,1.69644153 L4.96810369,1.65324037 L6.55173438,1.56691924 L6.58098153,1.59574709 L6.58098153,2.0991381 L6.59556392,2.0991381 C6.88745881,1.72510697 7.18668608,1.5381726 7.5369929,1.5381726 C7.9018821,1.5381726 8.17186222,1.79697357 8.17186222,2.19268649 C8.17186222,2.53074373 7.94562926,2.81122648 7.60990483,2.81122648 C7.29617756,2.81122648 7.06986222,2.63858423 7.06986222,2.34380936 C7.06986222,2.14233927 7.17943608,1.94809644 7.20126847,1.86185652 C6.88745881,1.86900258 6.63931108,2.14233927 6.58098153,2.24303371 L6.58098153,4.50167507 C6.58098153,4.65986279 6.65397585,4.7677845 6.77796733,4.81813172 C6.89470881,4.86847894 7.15010653,4.88285226 7.2596804,4.89007953 L7.2596804,4.94034554 L5.03384801,4.94034554 L5.03384801,4.89007953 Z" id="Fill-4"></path>
                            <path d="M10.4708619,2.89048275 C10.4708619,2.32935484 10.4635295,1.609958 10.0474784,1.609958 C9.71183636,1.609958 9.55868011,2.17831317 9.53668295,2.90477487 L10.4708619,2.89048275 Z M8.39835057,3.26435148 C8.39835057,2.3365009 8.99655795,1.52371808 10.098558,1.52371808 C11.2151403,1.52371808 11.6019443,2.20705981 11.6019443,2.95520329 L11.6019443,2.99824205 L9.53668295,2.99824205 L9.53668295,3.2068582 C9.53668295,4.05569612 9.80666307,4.68869064 10.5146091,4.68869064 C10.9597426,4.68869064 11.3392142,4.50890233 11.6019443,4.0053489 L11.6821063,4.06284218 C11.4122085,4.60959677 10.8794983,5.04834845 10.1497199,5.04834845 C8.95289318,5.04834845 8.39835057,4.25708501 8.39835057,3.26435148 L8.39835057,3.26435148 Z" id="Fill-6"></path>
                            <path d="M12.4266565,4.0053895 L12.4266565,1.73237483 L11.806452,1.73237483 L11.806452,1.61730707 L12.4412389,1.61730707 L12.4412389,0.581534778 L13.477577,0.581534778 L13.477577,1.61730707 L14.3970912,1.61730707 L14.3970912,1.73237483 L13.477577,1.73237483 L13.477577,4.02690888 C13.477577,4.3147001 13.5724037,4.60955617 13.9007957,4.60955617 C14.2438526,4.60955617 14.3897588,4.24981715 14.4043412,3.93327929 L14.4919179,3.93327929 C14.4773355,4.51608899 14.200023,5.03393453 13.4338298,5.03393453 C12.762381,5.03393453 12.4266565,4.64553007 12.4266565,4.0053895" id="Fill-8"></path>
                            <path d="M15.2582841,4.0053895 L15.2582841,1.73237483 L14.6379972,1.73237483 L14.6379972,1.61730707 L15.2729489,1.61730707 L15.2729489,0.581534778 L16.3092045,0.581534778 L16.3092045,1.61730707 L17.2287188,1.61730707 L17.2287188,1.73237483 L16.3092045,1.73237483 L16.3092045,4.02690888 C16.3092045,4.3147001 16.4040313,4.60955617 16.7325057,4.60955617 C17.0754801,4.60955617 17.2213864,4.24981715 17.2359688,3.93327929 L17.3233807,3.93327929 C17.3090455,4.51608899 17.0316506,5.03393453 16.2654574,5.03393453 C15.5940085,5.03393453 15.2582841,4.64553007 15.2582841,4.0053895" id="Fill-10"></path>
                            <path d="M17.447883,5.96185008 C17.447883,5.7028867 17.6666188,5.43669607 17.9877608,5.43669607 C18.184829,5.43669607 18.4913886,5.54461778 18.4913886,5.88267501 C18.4913886,6.10566448 18.4328119,6.25670615 18.4108972,6.42212114 C18.7832835,6.31436184 19.0897608,5.83955505 19.3743233,5.11309336 C19.2065847,4.7605816 17.9732608,2.24305808 17.8710193,2.0200686 C17.783525,1.83297183 17.6447864,1.70361195 17.3893886,1.66763805 L17.3893886,1.61729083 L19.3890705,1.61729083 L19.3890705,1.66763805 C19.235667,1.67478411 18.9511045,1.71075801 18.9511045,1.83297183 C18.9511045,1.85465362 18.9803517,1.92668263 19.0021841,1.9840947 C19.0605136,2.12790911 19.7173801,3.55216706 19.8705364,3.83987707 C19.9801926,3.60259549 20.3886642,2.49479419 20.4909881,2.20708417 C20.5347352,2.08478915 20.5637352,1.96972138 20.5637352,1.89054631 C20.5637352,1.73235859 20.2573403,1.71075801 19.9801926,1.66041079 L19.9801926,1.61729083 L21.1987693,1.61729083 L21.1987693,1.66041079 C20.9433716,1.71075801 20.8192977,1.72513133 20.6953886,2.04175039 C20.4324938,2.69618308 19.629721,4.77495492 19.5058119,5.09149278 C19.0824284,6.14163838 18.7102068,6.58030886 18.1118347,6.58030886 C17.8563545,6.58030886 17.447883,6.42212114 17.447883,5.96185008" id="Fill-12"></path>
                            <path d="M0.633015625,11.4102072 L0.633015625,9.13735495 L0.0127286932,9.13735495 L0.0127286932,9.02212478 L0.647598011,9.02212478 L0.647598011,7.98635249 L1.68393608,7.98635249 L1.68393608,9.02212478 L2.60345028,9.02212478 L2.60345028,9.13735495 L1.68393608,9.13735495 L1.68393608,11.431889 C1.68393608,11.7195178 1.77876278,12.0145363 2.10715483,12.0145363 C2.45021165,12.0145363 2.59603551,11.6549597 2.61070028,11.3383406 L2.69827699,11.3383406 C2.68377699,11.9209067 2.40629972,12.4389147 1.64018892,12.4389147 C0.968740057,12.4389147 0.633015625,12.050429 0.633015625,11.4102072" id="Fill-14"></path>
                            <path d="M2.97571307,12.2950596 C3.09253693,12.2877512 3.19461364,12.2804427 3.28952273,12.2517773 C3.42084659,12.2087385 3.46467614,12.1294822 3.46467614,11.9712133 L3.46467614,7.60505348 C3.46467614,7.41803791 3.40634659,7.28859683 3.29685511,7.21673023 C3.20919602,7.15915575 2.90271875,7.11587338 2.78597727,7.10880852 L2.78597727,7.06568856 L4.48634943,6.97936744 L4.5155142,7.00803287 L4.5155142,9.51841034 L4.53742898,9.51841034 C4.80015909,9.24515485 5.04097443,8.92861699 5.65392898,8.92861699 C6.36904261,8.92861699 6.65385227,9.37467714 6.65385227,10.0579377 L6.65385227,11.9425479 C6.65385227,12.1008168 6.66835227,12.1872191 6.80700852,12.2373227 C6.90916761,12.2733779 7.0040767,12.2804427 7.13540057,12.2950596 L7.13540057,12.3454069 L5.20154545,12.3454069 L5.20154545,12.2950596 C5.29645455,12.2877512 5.39853125,12.2733779 5.47152557,12.2447124 C5.57376705,12.2087385 5.58101705,12.0864435 5.58101705,11.9280934 L5.58101705,10.0148177 C5.58101705,9.51841034 5.37669886,9.36736867 5.12121875,9.36736867 C4.80740909,9.36736867 4.59575852,9.53278366 4.5155142,9.68398774 L4.5155142,11.9354018 C4.5155142,12.093752 4.53009659,12.1872191 4.62508807,12.2303391 C4.71991477,12.2733779 4.81474148,12.2804427 4.91690057,12.2950596 L4.91690057,12.3454069 L2.97571307,12.3454069 L2.97571307,12.2950596 Z" id="Fill-16"></path>
                            <path d="M7.69756392,7.64106799 C7.69756392,7.28141017 7.98212642,7.02236559 8.33976562,7.02236559 C8.69732244,7.02236559 8.97463494,7.28855623 8.97463494,7.64106799 C8.97463494,7.99366095 8.69732244,8.25977039 8.33976562,8.25977039 C7.98212642,8.25977039 7.69756392,7.99366095 7.69756392,7.64106799 L7.69756392,7.64106799 Z M7.39100426,12.2951002 C7.51507812,12.2877918 7.60998722,12.2877918 7.70481392,12.2517367 C7.83622017,12.2015519 7.8946321,12.0864029 7.8946321,11.9354424 L7.8946321,9.55442484 C7.8946321,9.39615591 7.82888778,9.27394209 7.71214631,9.19476703 C7.62448722,9.13735495 7.41291903,9.1083647 7.28151278,9.10129984 L7.28151278,9.05817988 L8.9235554,8.97193996 L8.95272017,9.0006866 L8.95272017,11.9425885 C8.95272017,12.0937114 8.98188494,12.1799513 9.11329119,12.2446718 C9.21545028,12.2951002 9.36860653,12.2951002 9.46359801,12.2951002 L9.46359801,12.3454475 L7.39100426,12.3454475 L7.39100426,12.2951002 Z" id="Fill-18"></path>
                            <path d="M9.7118446,12.2950596 C9.82858608,12.2877512 9.93074517,12.2804427 10.0256543,12.2517773 C10.1569781,12.2087385 10.2008077,12.1294822 10.2008077,11.9712133 L10.2008077,9.59035814 C10.2008077,9.40350498 10.1423957,9.27398269 10.0329043,9.20203489 C9.94532756,9.14446041 9.77750653,9.1084053 9.66068267,9.10134045 L9.66068267,9.05822049 L11.2298134,8.97189936 L11.2589781,9.00072721 L11.2589781,9.51841034 L11.2808929,9.51841034 C11.5435406,9.24515485 11.784356,8.92861699 12.3973105,8.92861699 C13.1124241,8.92861699 13.397069,9.37467714 13.397069,10.0579377 L13.397069,11.9425479 C13.397069,12.1008168 13.4117338,12.1872191 13.5504724,12.2373227 C13.6526315,12.2733779 13.7474582,12.2804427 13.8786997,12.2950596 L13.8786997,12.3454069 L11.9448446,12.3454069 L11.9448446,12.2950596 C12.0397537,12.2877512 12.1419952,12.2733779 12.2149071,12.2447124 C12.3171486,12.2087385 12.3243986,12.0864435 12.3243986,11.9280934 L12.3243986,10.0148177 C12.3243986,9.51841034 12.1200804,9.36736867 11.8646003,9.36736867 C11.550873,9.36736867 11.3391401,9.53278366 11.2589781,9.68398774 L11.2589781,11.9354018 C11.2589781,12.093752 11.2734781,12.1872191 11.3683048,12.2303391 C11.4632963,12.2733779 11.5580406,12.2804427 11.6602821,12.2950596 L11.6602821,12.3454069 L9.7118446,12.3454069 L9.7118446,12.2950596 Z" id="Fill-20"></path>
                            <path d="M16.1713722,10.0291667 C16.1713722,9.4968666 16.0545483,9.0078489 15.6897415,9.0078489 C15.3320199,9.0078489 15.244608,9.43921091 15.244608,10.0074849 C15.244608,10.6982975 15.3977642,11.0291275 15.6969915,11.0291275 C16.0472159,11.0291275 16.1713722,10.6550151 16.1713722,10.0291667 M16.8793182,12.956614 C16.8793182,12.7985887 16.7916591,12.5970374 16.528929,12.5037326 C16.3976051,12.4820509 15.6969915,12.4676775 15.193446,12.4676775 C15.0402074,12.5468526 14.8358068,12.7338682 14.8358068,13.1005096 C14.8358068,13.5753164 15.186196,13.9062276 15.8721449,13.9062276 C16.5507614,13.9062276 16.8793182,13.4674759 16.8793182,12.956614 M13.9821193,13.1005096 C13.9821193,12.7121864 14.3688409,12.4389309 15.1423665,12.410103 L15.1423665,12.3813564 C14.792142,12.2804996 14.3541761,12.0864191 14.3541761,11.6837226 C14.3541761,11.2735551 14.792142,11.1298219 15.1277841,11.0650202 L15.1277841,11.0361923 C14.5002472,10.8493392 14.1791051,10.4822917 14.1791051,10.022183 C14.1791051,9.25950381 15.011125,8.92859263 15.6969915,8.92859263 C16.1640398,8.92859263 16.4779318,9.02214102 16.6019233,9.09400762 C16.7843267,8.63373656 17.0324744,8.34594534 17.3536165,8.34594534 C17.5578523,8.34594534 17.7549205,8.48984095 17.7549205,8.72736615 C17.7549205,8.95742047 17.6016818,9.13006272 17.3754489,9.13006272 C17.1565483,9.13006272 17.0252244,9.0078489 16.9156506,8.81352487 C16.8209063,8.84957997 16.7259148,8.98632953 16.6821676,9.10838094 L16.6821676,9.13006272 C17.0324744,9.3530522 17.2076278,9.72700213 17.2076278,10.0579133 C17.2076278,10.7053623 16.5143466,11.0936044 15.7626534,11.0936044 L15.2008608,11.0936044 C15.1132017,11.1584873 15.0330398,11.2376624 15.0330398,11.3311296 C15.0330398,11.6189208 15.3176023,11.5901742 15.7116563,11.6044663 L16.6603352,11.6404402 C17.1127188,11.6620408 17.6819261,12.0072441 17.6819261,12.690667 C17.6819261,13.4099826 17.0689716,13.9853215 15.7043239,13.9853215 C14.4636676,13.9853215 13.9821193,13.6328909 13.9821193,13.1005096" id="Fill-22"></path>
                            <path d="M18.1564469,12.1440667 L17.9887082,12.3884943 L17.9303787,12.3884943 L17.8937991,11.1441059 L17.9448787,11.1441059 C18.1420293,11.5684843 18.6309099,12.3742022 19.2291997,12.3742022 C19.6014213,12.3742022 19.8277366,12.1294498 19.8277366,11.7915549 C19.8277366,11.4175238 19.6014213,11.2664009 18.9446372,11.0505575 C18.4557565,10.8923698 17.9887082,10.611887 17.9887082,9.94299983 C17.9887082,9.38901798 18.4703389,8.92858451 19.280444,8.92858451 C19.6379185,8.92858451 20.0539696,9.0221329 20.2582878,9.12298975 L20.4115264,8.92151966 L20.4699384,8.92151966 L20.5136855,10.0579864 L20.4551912,10.0579864 C20.2144582,9.511313 19.7985719,9.00784078 19.3900179,9.00784078 C19.0395463,9.00784078 18.8645577,9.27395021 18.8645577,9.54005964 C18.8645577,9.91400958 19.0614611,10.0291585 19.7037452,10.2378559 C20.2802849,10.4248715 20.6815889,10.748393 20.6815889,11.3383487 C20.6815889,12.0648916 20.0684696,12.4532961 19.280444,12.4532961 C18.8133957,12.4532961 18.3023531,12.2589721 18.1564469,12.1440667" id="Fill-24"></path>
                            <path d="M0.523598295,15.2768089 C0.523598295,14.9171511 0.808160795,14.6581877 1.1658,14.6581877 C1.52335682,14.6581877 1.80066932,14.9242972 1.80066932,15.2768089 C1.80066932,15.6294019 1.52335682,15.8954301 1.1658,15.8954301 C0.808160795,15.8954301 0.523598295,15.6294019 0.523598295,15.2768089 L0.523598295,15.2768089 Z M0.217038636,19.93076 C0.341030114,19.9234515 0.436021591,19.9234515 0.530848295,19.88764 C0.662254545,19.8372116 0.720584091,19.7221438 0.720584091,19.5711834 L0.720584091,17.1901658 C0.720584091,17.0320593 0.654922159,16.9096018 0.538263068,16.830508 C0.450603977,16.7730147 0.238953409,16.744268 0.107547159,16.7369596 L0.107547159,16.6938396 L1.74958977,16.6075185 L1.77875455,16.6362651 L1.77875455,19.5782482 C1.77875455,19.7291275 1.80791932,19.815611 1.93940795,19.8802503 C2.04148466,19.93076 2.19480568,19.93076 2.28963239,19.93076 L2.28963239,19.981026 L0.217038636,19.981026 L0.217038636,19.93076 Z" id="Fill-26"></path>
                            <path d="M2.53787898,19.9307275 C2.65462045,19.923419 2.75677955,19.9163542 2.85168864,19.8876887 C2.9830125,19.8444876 3.02675966,19.7652313 3.02675966,19.6070436 L3.02675966,17.2261884 C3.02675966,17.0391728 2.96843011,16.9096505 2.85885625,16.8375403 C2.77136193,16.7801282 2.60354091,16.7443168 2.48671705,16.7370083 L2.48671705,16.6938883 L4.05576534,16.607486 L4.08493011,16.6363138 L4.08493011,17.1541594 L4.10684489,17.1541594 C4.36949261,16.8808227 4.61030795,16.564366 5.22334489,16.564366 C5.93854091,16.564366 6.22310341,17.0104262 6.22310341,17.6936055 L6.22310341,19.5782157 C6.22310341,19.7364847 6.23776818,19.822887 6.37642443,19.8733154 C6.47858352,19.9090457 6.57341023,19.9163542 6.70481648,19.9307275 L6.70481648,19.9809935 L4.77087898,19.9809935 L4.77087898,19.9307275 C4.86578807,19.923419 4.96794716,19.9090457 5.04094148,19.8802991 C5.14310057,19.8444876 5.15043295,19.7221925 5.15043295,19.5638424 L5.15043295,17.6505668 C5.15043295,17.1541594 4.94603239,17.0031177 4.69063466,17.0031177 C4.376825,17.0031177 4.16517443,17.1684515 4.08493011,17.3196556 L4.08493011,19.5711509 C4.08493011,19.7291762 4.0995125,19.822887 4.19442159,19.8660069 C4.2892483,19.9090457 4.38415739,19.9163542 4.48631648,19.9307275 L4.48631648,19.9809935 L2.53787898,19.9809935 L2.53787898,19.9307275 Z" id="Fill-28"></path>
                            <path d="M7.23768324,19.7795803 L7.06986222,20.0243327 L7.01153267,20.0243327 L6.97503551,18.7798631 L7.02619744,18.7798631 C7.22310085,19.2041602 7.71214631,20.0099594 8.31043608,20.0099594 C8.68265767,20.0099594 8.90889063,19.7652069 8.90889063,19.4272309 C8.90889063,19.0531998 8.68265767,18.9020769 8.02587358,18.6863147 C7.5369929,18.5280458 7.06986222,18.247563 7.06986222,17.5786758 C7.06986222,17.0247751 7.55157528,16.5643417 8.36159801,16.5643417 C8.71907244,16.5643417 9.13512358,16.6579713 9.33952415,16.7586657 L9.49276278,16.5570332 L9.55117472,16.5570332 L9.59492188,17.6936624 L9.53642756,17.6936624 C9.29561222,17.146989 8.87980824,16.6435167 8.47108949,16.6435167 C8.12070028,16.6435167 7.94562926,16.9096262 7.94562926,17.1758168 C7.94562926,17.5497667 8.14261506,17.6649157 8.78481676,17.8735319 C9.36135653,18.0606286 9.7627429,18.3841501 9.7627429,18.9739435 C9.7627429,19.7004864 9.14978835,20.0890533 8.36159801,20.0890533 C7.8946321,20.0890533 7.38367188,19.8948104 7.23768324,19.7795803" id="Fill-30"></path>
                            <path d="M10.4935511,15.2768089 C10.4935511,14.9171511 10.778196,14.6581877 11.1357528,14.6581877 C11.493392,14.6581877 11.7707045,14.9242972 11.7707045,15.2768089 C11.7707045,15.6294019 11.493392,15.8954301 11.1357528,15.8954301 C10.778196,15.8954301 10.4935511,15.6294019 10.4935511,15.2768089 L10.4935511,15.2768089 Z M10.1870739,19.93076 C10.3111477,19.9234515 10.4060568,19.9234515 10.5009659,19.88764 C10.6322898,19.8372116 10.6907017,19.7221438 10.6907017,19.5711834 L10.6907017,17.1901658 C10.6907017,17.0320593 10.6249574,16.9096018 10.5082159,16.830508 C10.4206392,16.7730147 10.209071,16.744268 10.0775824,16.7369596 L10.0775824,16.6938396 L11.719625,16.6075185 L11.7487074,16.6362651 L11.7487074,19.5782482 C11.7487074,19.7291275 11.7779545,19.815611 11.9093608,19.8802503 C12.0115199,19.93076 12.1647585,19.93076 12.2596676,19.93076 L12.2596676,19.981026 L10.1870739,19.981026 L10.1870739,19.93076 Z" id="Fill-32"></path>
                            <path d="M14.8723369,19.4703021 L14.8723369,17.2045959 C14.8138426,16.9887525 14.6679364,16.6722147 14.3104619,16.6722147 C13.8579136,16.6722147 13.6244307,17.3914491 13.6244307,18.3411439 C13.6244307,19.1179528 13.7849193,19.7724667 14.3249619,19.7724667 C14.5658597,19.7724667 14.7190159,19.6646262 14.8723369,19.4703021 M12.4641835,18.2763421 C12.4641835,17.2693165 13.2084619,16.5643742 14.047567,16.5643742 C14.4417034,16.5643742 14.7409307,16.6795231 14.8723369,16.7370164 L14.8723369,15.2697197 C14.8723369,15.1113696 14.8212574,14.9388085 14.6897688,14.8597147 C14.5584449,14.7805396 14.2593,14.7588578 14.0549818,14.7445657 L14.0549818,14.7012021 L15.8720955,14.6150434 L15.923175,14.6654718 L15.923175,19.4128901 C15.923175,19.571159 15.9961693,19.6789995 16.1055784,19.7581746 C16.1858227,19.8155866 16.4048057,19.8587066 16.5288795,19.8660151 L16.5288795,19.9090538 L14.9087517,20.0099919 L14.8795045,19.9810016 L14.8795045,19.6285711 L14.8503398,19.6212626 C14.6897688,19.78684 14.3614591,20.0816961 13.9163256,20.0816961 C13.0771381,20.0816961 12.4641835,19.376835 12.4641835,18.2763421" id="Fill-34"></path>
                            <path d="M18.6526188,17.9309683 C18.6526188,17.370084 18.6453688,16.6507684 18.2294,16.6507684 C17.8936756,16.6507684 17.7405193,17.2187987 17.7185222,17.9454228 L18.6526188,17.9309683 Z M16.5801074,18.3049994 C16.5801074,17.3773925 17.1785619,16.564366 18.2803972,16.564366 C19.3968972,16.564366 19.7837835,17.247789 19.7837835,17.9958513 L19.7837835,18.0389712 L17.7185222,18.0389712 L17.7185222,18.2475062 C17.7185222,19.0963441 17.9885023,19.7291762 18.6963659,19.7291762 C19.1415818,19.7291762 19.5210534,19.5495503 19.7837835,19.0459969 L19.8640278,19.1034089 C19.5941301,19.6500823 19.0613375,20.0889964 18.3315591,20.0889964 C17.1347324,20.0889964 16.5801074,19.297733 16.5801074,18.3049994 L16.5801074,18.3049994 Z" id="Fill-36"></path>
                            <path d="M20.4178949,19.4416692 C20.4178949,19.0819302 20.7171222,18.8085123 21.0748438,18.8085123 C21.4322358,18.8085123 21.7315455,19.0819302 21.7315455,19.4416692 C21.7315455,19.8012458 21.4322358,20.0746637 21.0748438,20.0746637 C20.7171222,20.0746637 20.4178949,19.8012458 20.4178949,19.4416692" id="Fill-38"></path>
                        </g>
                    </g>
                    <g id="Group-41" filter="url(#filter-3)">
                        <polygon id="Fill-1" fill="url(#linearGradient-4)" points="0 49.9974874 64.1927973 49.9974874 64.1927973 0 0 0"></polygon>
                        <g id="Group-40" transform="translate(4.941374, 15.784757)" fill="#231916">
                            <path d="M3.32384772,3.88588067 C4.45690295,3.88588067 4.84159016,3.00243792 4.84159016,2.05644536 C4.84159016,1.00659429 4.48800182,0.174904765 3.46924963,0.174904765 L3.1366677,0.174904765 L3.1366677,3.88588067 L3.32384772,3.88588067 Z M0.298807376,7.0668848 C0.485752687,7.05655763 0.964088585,7.01489687 1.08883615,6.9630263 C1.33833127,6.86937761 1.40076373,6.68231495 1.40076373,6.45359153 L1.40076373,0.736327468 C1.40076373,0.507604047 1.3487758,0.330868555 1.08883615,0.227010049 C0.891211599,0.154250418 0.475542867,0.133361363 0.298807376,0.112707016 L0.298807376,0.0398300304 L4.05132668,0.0398300304 C5.81856424,0.0398300304 6.7022417,0.601370088 6.7022417,1.80695024 C6.7022417,3.36623608 5.19482643,4.02107276 3.60455907,4.02107276 L3.1366677,4.02107276 L3.1366677,6.443147 C3.1366677,6.67187042 3.21975451,6.84860591 3.44847793,6.95258177 C3.57322549,7.0045697 3.9579127,7.0461131 4.20729047,7.0668848 L4.20729047,7.13964444 L0.298807376,7.13964444 L0.298807376,7.0668848 Z" id="Fill-2"></path>
                            <path d="M7.17040298,7.06693175 C7.33669395,7.05648722 7.47188604,7.05648722 7.60707812,7.00461664 C7.80446796,6.93185701 7.86690042,6.77589322 7.86690042,6.5471698 L7.86690042,3.12723242 C7.86690042,2.92972523 7.75259739,2.69067463 7.5966336,2.57625425 C7.48233056,2.49305009 7.25360714,2.46195121 7.0767543,2.45162404 L7.0767543,2.38919158 L9.33253757,2.26444402 L9.37419833,2.30610478 L9.37419833,3.03358374 L9.39497003,3.03358374 C9.81075612,2.49305009 10.2369867,2.22290062 10.735977,2.22290062 C11.2557389,2.22290062 11.6403088,2.59690859 11.6403088,3.16877582 C11.6403088,3.65732154 11.318054,4.0626631 10.8398355,4.0626631 C10.3929505,4.0626631 10.0705784,3.81316798 10.0705784,3.38717207 C10.0705784,3.09601619 10.2266596,2.81530484 10.2577584,2.69067463 C9.81075612,2.70100181 9.45728513,3.09601619 9.37419833,3.24153546 L9.37419833,6.5056264 C9.37419833,6.73423246 9.47817419,6.89019625 9.65479233,6.96295589 C9.82108329,7.03571552 10.1848814,7.05648722 10.3409626,7.06693175 L10.3409626,7.13957402 L7.17040298,7.13957402 L7.17040298,7.06693175 Z" id="Fill-4"></path>
                            <path d="M14.9150907,4.17720084 C14.9150907,3.36628302 14.9046462,2.32664177 14.3120072,2.32664177 C13.833906,2.32664177 13.6157445,3.14800412 13.5844109,4.19785519 L14.9150907,4.17720084 Z M11.9629273,4.71749978 C11.9629273,3.37661019 12.8150365,2.20201156 14.3847669,2.20201156 C15.9752689,2.20201156 16.5262471,3.18954753 16.5262471,4.27073218 L16.5262471,4.33292992 L13.5844109,4.33292992 L13.5844109,4.63441298 C13.5844109,5.86111689 13.9689808,6.77589322 14.9774058,6.77589322 C15.6114708,6.77589322 16.1520044,6.51607092 16.5262471,5.78835726 L16.6404328,5.87144406 C16.2559803,6.66159019 15.4971677,7.29565517 14.4576439,7.29565517 C12.7528387,7.29565517 11.9629273,6.15215541 11.9629273,4.71749978 L11.9629273,4.71749978 Z" id="Fill-6"></path>
                            <path d="M17.7009983,5.78841593 L17.7009983,2.50355329 L16.8175555,2.50355329 L16.8175555,2.33726233 L17.72177,2.33726233 L17.72177,0.840408947 L19.197969,0.840408947 L19.197969,2.33726233 L20.5077597,2.33726233 L20.5077597,2.50355329 L19.197969,2.50355329 L19.197969,5.81951481 C19.197969,6.23541825 19.3330438,6.66153151 19.8008178,6.66153151 C20.2894809,6.66153151 20.4973152,6.14165221 20.5180869,5.68420537 L20.6428345,5.68420537 C20.6220628,6.52645678 20.2270484,7.27482479 19.1356539,7.27482479 C18.1792168,7.27482479 17.7009983,6.71351944 17.7009983,5.78841593" id="Fill-8"></path>
                            <path d="M21.7344754,5.78841593 L21.7344754,2.50355329 L20.8509153,2.50355329 L20.8509153,2.33726233 L21.7553645,2.33726233 L21.7553645,0.840408947 L23.2314461,0.840408947 L23.2314461,2.33726233 L24.5412368,2.33726233 L24.5412368,2.50355329 L23.2314461,2.50355329 L23.2314461,5.81951481 C23.2314461,6.23541825 23.3665209,6.66153151 23.8344122,6.66153151 C24.322958,6.66153151 24.5307923,6.14165221 24.551564,5.68420537 L24.6760769,5.68420537 C24.6556572,6.52645678 24.2605255,7.27482479 23.169131,7.27482479 C22.2126939,7.27482479 21.7344754,6.71351944 21.7344754,5.78841593" id="Fill-10"></path>
                            <path d="M24.8534226,8.61580826 C24.8534226,8.24156558 25.1649981,7.85687837 25.622445,7.85687837 C25.9031563,7.85687837 26.3398315,8.01284216 26.3398315,8.50138788 C26.3398315,8.82364263 26.2563926,9.04192152 26.2251764,9.28097212 C26.7556175,9.12524304 27.1921753,8.43907277 27.5975169,7.38922171 C27.3585837,6.87978693 25.6017906,3.24157066 25.456154,2.91931591 C25.3315238,2.64893173 25.1338993,2.46198642 24.7701011,2.40999849 L24.7701011,2.33723886 L27.6185233,2.33723886 L27.6185233,2.40999849 C27.4000097,2.42032566 26.9946681,2.47231359 26.9946681,2.64893173 C26.9946681,2.68026531 27.0363289,2.78435853 27.0674278,2.86732798 C27.1505146,3.07516234 28.08618,5.13343843 28.3043415,5.54922451 C28.46054,5.20631541 29.0423823,3.60536882 29.1881363,3.18958273 C29.2504514,3.01284724 29.2917601,2.84655628 29.2917601,2.73213589 C29.2917601,2.50352982 28.8553197,2.47231359 28.46054,2.39955396 L28.46054,2.33723886 L30.1963266,2.33723886 L30.1963266,2.39955396 C29.8325285,2.47231359 29.655793,2.49308529 29.4792922,2.95064949 C29.1048148,3.89640734 27.9613151,6.90055863 27.7848143,7.35800548 C27.1817308,8.87563056 26.6515243,9.50957819 25.7991805,9.50957819 C25.435265,9.50957819 24.8534226,9.28097212 24.8534226,8.61580826" id="Fill-12"></path>
                            <path d="M0.901691333,16.4895387 L0.901691333,13.2049108 L0.0181312307,13.2049108 L0.0181312307,13.0383851 L0.922463035,13.0383851 L0.922463035,11.5415317 L2.39866207,11.5415317 L2.39866207,13.0383851 L3.70845279,13.0383851 L3.70845279,13.2049108 L2.39866207,13.2049108 L2.39866207,16.5208723 C2.39866207,16.936541 2.5337368,17.362889 3.00151082,17.362889 C3.49017389,17.362889 3.6978909,16.8432444 3.71877996,16.3856802 L3.84352752,16.3856802 C3.82287317,17.2275795 3.42762408,17.9761823 2.33634697,17.9761823 C1.37990988,17.9761823 0.901691333,17.4147596 0.901691333,16.4895387" id="Fill-14"></path>
                            <path d="M4.23871794,17.7682892 C4.40512626,17.7577273 4.55052816,17.7471655 4.68572025,17.7057394 C4.87278292,17.6435417 4.93521538,17.5290039 4.93521538,17.3002805 L4.93521538,10.9904949 C4.93521538,10.720228 4.85212857,10.5331654 4.69616478,10.4293069 C4.57129986,10.3461027 4.13474208,10.2835529 3.96845111,10.2733431 L3.96845111,10.211028 L6.39052535,10.0862804 L6.43206876,10.1277065 L6.43206876,13.7555956 L6.46328499,13.7555956 C6.83752767,13.3606985 7.18055412,12.9032517 8.0536697,12.9032517 C9.07230454,12.9032517 9.47799816,13.5478785 9.47799816,14.5352972 L9.47799816,17.2588544 C9.47799816,17.4875779 9.49865251,17.6124428 9.6961597,17.6848504 C9.84167896,17.7369556 9.97687105,17.7471655 10.1639337,17.7682892 L10.1639337,17.8410489 L7.40927755,17.8410489 L7.40927755,17.7682892 C7.54446964,17.7577273 7.68987154,17.7369556 7.7938474,17.6955296 C7.93948402,17.6435417 7.94981119,17.4668062 7.94981119,17.2379654 L7.94981119,14.4729821 C7.94981119,13.7555956 7.65877267,13.5373167 7.29485716,13.5373167 C6.84785484,13.5373167 6.54637179,13.7763673 6.43206876,13.9948809 L6.43206876,17.2485273 C6.43206876,17.477368 6.45284046,17.6124428 6.5881499,17.6747579 C6.72322464,17.7369556 6.85829937,17.7471655 7.00381863,17.7682892 L7.00381863,17.8410489 L4.23871794,17.8410489 L4.23871794,17.7682892 Z" id="Fill-16"></path>
                            <path d="M10.9647004,11.0425415 C10.9647004,10.5227795 11.370042,10.1484195 11.8794767,10.1484195 C12.3887941,10.1484195 12.7838085,10.5331067 12.7838085,11.0425415 C12.7838085,11.5520936 12.3887941,11.9366635 11.8794767,11.9366635 C11.370042,11.9366635 10.9647004,11.5520936 10.9647004,11.0425415 L10.9647004,11.0425415 Z M10.5280253,17.7683479 C10.7047607,17.757786 10.8399528,17.757786 10.9750276,17.7056807 C11.1622076,17.6331558 11.2454117,17.4667475 11.2454117,17.248586 L11.2454117,13.8076422 C11.2454117,13.5789187 11.1517631,13.4023006 10.9854721,13.2878802 C10.8606072,13.2049108 10.5592415,13.1630153 10.3720615,13.1528055 L10.3720615,13.0904904 L12.7110489,12.9658602 L12.7525923,13.0074036 L12.7525923,17.2589131 C12.7525923,17.4773094 12.7941357,17.6019396 12.9813157,17.6954709 C13.126835,17.7683479 13.3449965,17.7683479 13.480306,17.7683479 L13.480306,17.8411075 L10.5280253,17.8411075 L10.5280253,17.7683479 Z" id="Fill-18"></path>
                            <path d="M13.8339178,17.7682892 C14.0002087,17.7577273 14.145728,17.7471655 14.2809201,17.7057394 C14.4679828,17.6435417 14.5304152,17.5290039 14.5304152,17.3002805 L14.5304152,13.8595714 C14.5304152,13.5895393 14.4472111,13.4023593 14.2912473,13.2983834 C14.1664997,13.2151793 13.9274491,13.163074 13.7610408,13.1528642 L13.7610408,13.0905491 L15.9961697,12.9658015 L16.0377131,13.0074623 L16.0377131,13.7555956 L16.0689294,13.7555956 C16.4430547,13.3606985 16.7860811,12.9032517 17.6591967,12.9032517 C18.6778316,12.9032517 19.0832905,13.5478785 19.0832905,14.5352972 L19.0832905,17.2588544 C19.0832905,17.4875779 19.1041795,17.6124428 19.3018041,17.6848504 C19.4473233,17.7369556 19.5823981,17.7471655 19.7693434,17.7682892 L19.7693434,17.8410489 L17.0146872,17.8410489 L17.0146872,17.7682892 C17.1498793,17.7577273 17.2955159,17.7369556 17.3993744,17.6955296 C17.545011,17.6435417 17.5553382,17.4668062 17.5553382,17.2379654 L17.5553382,14.4729821 C17.5553382,13.7555956 17.2642997,13.5373167 16.9003842,13.5373167 C16.4534992,13.5373167 16.1518988,13.7763673 16.0377131,13.9948809 L16.0377131,17.2485273 C16.0377131,17.477368 16.0583675,17.6124428 16.1934422,17.6747579 C16.3287517,17.7369556 16.463709,17.7471655 16.6093456,17.7682892 L16.6093456,17.8410489 L13.8339178,17.8410489 L13.8339178,17.7682892 Z" id="Fill-20"></path>
                            <path d="M23.0351125,14.4937185 C23.0351125,13.7244615 22.8687042,13.0177542 22.3490596,13.0177542 C21.8395074,13.0177542 21.7149946,13.64114 21.7149946,14.462385 C21.7149946,15.4607175 21.9331561,15.9388187 22.3593867,15.9388187 C22.8582596,15.9388187 23.0351125,15.3981677 23.0351125,14.4937185 M24.0435375,18.724339 C24.0435375,18.4959677 23.9186726,18.2046944 23.5444299,18.0698544 C23.3573672,18.0385208 22.3593867,18.0177491 21.6421176,18.0177491 C21.4238387,18.1321695 21.1326828,18.4024363 21.1326828,18.9322908 C21.1326828,19.618461 21.6317904,20.0966796 22.6088819,20.0966796 C23.5755288,20.0966796 24.0435375,19.4626146 24.0435375,18.724339 M19.9166582,18.9322908 C19.9166582,18.3711028 20.467519,17.9762057 21.569358,17.934545 L21.569358,17.8930016 C21.0704851,17.7472476 20.4466299,17.466771 20.4466299,16.8848113 C20.4466299,16.292055 21.0704851,16.084338 21.5485863,15.9906893 L21.5485863,15.9490285 C20.654699,15.6789964 20.1972522,15.1485552 20.1972522,14.4836261 C20.1972522,13.381435 21.3824127,12.9032165 22.3593867,12.9032165 C23.024668,12.9032165 23.4717876,13.0384086 23.6484058,13.1422671 C23.9082281,12.4771032 24.261699,12.0611998 24.7191459,12.0611998 C25.0100671,12.0611998 25.2907784,12.2691515 25.2907784,12.6124127 C25.2907784,12.9448772 25.0724995,13.1943724 24.7502448,13.1943724 C24.4384345,13.1943724 24.2513719,13.0177542 24.0952907,12.7369255 C23.9603333,12.7890308 23.8250239,12.9866553 23.7627088,13.1630388 L23.7627088,13.1943724 C24.261699,13.5166271 24.5111942,14.0570434 24.5111942,14.5352619 C24.5111942,15.4709273 23.5236582,16.031998 22.4529181,16.031998 L21.6526795,16.031998 C21.5278146,16.125764 21.4136289,16.2401844 21.4136289,16.3752591 C21.4136289,16.7911626 21.8189705,16.7496192 22.3802758,16.7702735 L23.7316099,16.8222615 C24.3760021,16.8534777 25.1868025,17.3523506 25.1868025,18.3400039 C25.1868025,19.3795278 24.313687,20.2109826 22.3698313,20.2109826 C20.6025937,20.2109826 19.9166582,19.7016652 19.9166582,18.9322908" id="Fill-22"></path>
                            <path d="M25.8627278,17.5500807 L25.6237945,17.903317 L25.5407077,17.903317 L25.4886025,16.1049806 L25.5613621,16.1049806 C25.8421908,16.7182739 26.5385709,17.8826627 27.3907974,17.8826627 C27.9210039,17.8826627 28.243376,17.528957 28.243376,17.040646 C28.243376,16.5001123 27.9210039,16.2817161 26.9854558,15.9697885 C26.2890758,15.7411824 25.6237945,15.3358409 25.6237945,14.369194 C25.6237945,13.5686033 26.3098475,12.9032047 27.4637917,12.9032047 C27.9729918,12.9032047 28.5656307,13.0383968 28.8566693,13.1841508 L29.0749481,12.8929949 L29.1581523,12.8929949 L29.2204674,14.5353676 L29.1371459,14.5353676 C28.7942368,13.7453388 28.2018326,13.0177425 27.6198729,13.0177425 C27.1206479,13.0177425 26.8713875,13.4023123 26.8713875,13.7868822 C26.8713875,14.3272985 27.1518642,14.4937068 28.0667578,14.7953072 C28.8880028,15.065574 29.4596354,15.5331133 29.4596354,16.3856919 C29.4596354,17.4356604 28.5862851,17.9969657 27.4637917,17.9969657 C26.7985105,17.9969657 26.0705622,17.716137 25.8627278,17.5500807" id="Fill-24"></path>
                            <path d="M0.745833162,22.0773845 C0.745833162,21.5576226 1.15117472,21.1833799 1.66060949,21.1833799 C2.16992691,21.1833799 2.5649413,21.5679497 2.5649413,22.0773845 C2.5649413,22.5869366 2.16992691,22.9713891 1.66060949,22.9713891 C1.15117472,22.9713891 0.745833162,22.5869366 0.745833162,22.0773845 L0.745833162,22.0773845 Z M0.30915802,28.8030736 C0.485776157,28.7925117 0.621085601,28.7925117 0.756160335,28.7407585 C0.943340355,28.6678815 1.02642716,28.5015905 1.02642716,28.283429 L1.02642716,24.8424852 C1.02642716,24.6139965 0.932895827,24.4370263 0.766722217,24.3227232 C0.641857302,24.2396364 0.340374249,24.198093 0.15319423,24.1875312 L0.15319423,24.1252161 L2.49218167,24.0004685 L2.53372507,24.0420119 L2.53372507,28.2936388 C2.53372507,28.511683 2.57526847,28.6366653 2.76256584,28.7300792 C2.90796775,28.8030736 3.126364,28.8030736 3.26143874,28.8030736 L3.26143874,28.8757158 L0.30915802,28.8757158 L0.30915802,28.8030736 Z" id="Fill-26"></path>
                            <path d="M3.61505054,28.8030266 C3.78134151,28.7924647 3.92686077,28.7822549 4.06205286,28.7408289 C4.24911552,28.6783964 4.31143063,28.5638587 4.31143063,28.3352526 L4.31143063,24.8945435 C4.31143063,24.6242767 4.22834382,24.4370967 4.07226268,24.3328861 C3.94763247,24.2499167 3.70858188,24.1981635 3.54217356,24.1876016 L3.54217356,24.1252865 L5.77718513,24.0004216 L5.81872854,24.0420823 L5.81872854,24.7904503 L5.84994477,24.7904503 C6.22407009,24.3954359 6.56709655,23.9381064 7.44032948,23.9381064 C8.45908167,23.9381064 8.86442323,24.5827333 8.86442323,25.5700346 L8.86442323,28.2935919 C8.86442323,28.5223153 8.88531228,28.6471802 9.08281948,28.7200572 C9.22833874,28.771693 9.36341347,28.7822549 9.55059349,28.8030266 L9.55059349,28.8756689 L6.79581997,28.8756689 L6.79581997,28.8030266 C6.93101206,28.7924647 7.07653132,28.771693 7.18050718,28.7301496 C7.32602645,28.6783964 7.33647097,28.5016609 7.33647097,28.2728202 L7.33647097,25.5078368 C7.33647097,24.7904503 7.04531509,24.5721714 6.68151694,24.5721714 C6.23451462,24.5721714 5.93303157,24.8111047 5.81872854,25.0296183 L5.81872854,28.283382 C5.81872854,28.5117534 5.83950024,28.6471802 5.97469233,28.7094953 C6.10976706,28.771693 6.24495915,28.7822549 6.39047841,28.8030266 L6.39047841,28.8756689 L3.61505054,28.8756689 L3.61505054,28.8030266 Z" id="Fill-28"></path>
                            <path d="M10.309629,28.5845952 L10.0705784,28.9383009 L9.98749161,28.9383009 L9.93550368,27.1398471 L10.0083807,27.1398471 C10.2888573,27.753023 10.9854721,28.9175292 11.8376986,28.9175292 C12.3679051,28.9175292 12.6901598,28.5638235 12.6901598,28.0753951 C12.6901598,27.5348615 12.3679051,27.3164652 11.4323571,27.004655 C10.735977,26.7759316 10.0705784,26.37059 10.0705784,25.4039431 C10.0705784,24.6034698 10.7567487,23.9380712 11.9105756,23.9380712 C12.4197757,23.9380712 13.0124146,24.0733807 13.3035705,24.2188999 L13.5218494,23.9275094 L13.6050535,23.9275094 L13.6673686,25.5701167 L13.5840471,25.5701167 C13.2410207,24.7800879 12.6487338,24.0524916 12.0665394,24.0524916 C11.5674318,24.0524916 11.318054,24.4370615 11.318054,24.8217487 C11.318054,25.362165 11.598648,25.5285733 12.5134244,25.8300564 C13.3346694,26.1004405 13.9064192,26.5679798 13.9064192,27.4203237 C13.9064192,28.4702921 13.0333037,29.0318322 11.9105756,29.0318322 C11.2454117,29.0318322 10.5175807,28.7511208 10.309629,28.5845952" id="Fill-30"></path>
                            <path d="M14.9474101,22.0773845 C14.9474101,21.5576226 15.352869,21.1833799 15.8621864,21.1833799 C16.3716212,21.1833799 16.7666355,21.5679497 16.7666355,22.0773845 C16.7666355,22.5869366 16.3716212,22.9713891 15.8621864,22.9713891 C15.352869,22.9713891 14.9474101,22.5869366 14.9474101,22.0773845 L14.9474101,22.0773845 Z M14.5108523,28.8030736 C14.6875878,28.7925117 14.8227798,28.7925117 14.9579719,28.7407585 C15.1450346,28.6678815 15.2282388,28.5015905 15.2282388,28.283429 L15.2282388,24.8424852 C15.2282388,24.6139965 15.1345901,24.4370263 14.9682991,24.3227232 C14.8435515,24.2396364 14.5421858,24.198093 14.3548885,24.1875312 L14.3548885,24.1252161 L16.6938759,24.0004685 L16.735302,24.0420119 L16.735302,28.2936388 C16.735302,28.511683 16.7769627,28.6366653 16.9641427,28.7300792 C17.109662,28.8030736 17.3279409,28.8030736 17.463133,28.8030736 L17.463133,28.8757158 L14.5108523,28.8757158 L14.5108523,28.8030736 Z" id="Fill-32"></path>
                            <path d="M21.1847177,28.1376398 L21.1847177,24.863339 C21.1013962,24.5514115 20.8935618,24.0939646 20.3843618,24.0939646 C19.7397349,24.0939646 19.407153,25.1333712 19.407153,26.505829 C19.407153,27.6284397 19.635759,28.5743149 20.4050161,28.5743149 C20.7481599,28.5743149 20.9663215,28.4184685 21.1847177,28.1376398 M17.7544532,26.4121804 C17.7544532,24.9568704 18.8146314,23.9381182 20.0098844,23.9381182 C20.5713071,23.9381182 20.9975377,24.1045265 21.1847177,24.1876133 L21.1847177,22.0671395 C21.1847177,21.8382987 21.1119581,21.5889209 20.9246607,21.4746179 C20.737598,21.3601975 20.3114848,21.3288639 20.0204463,21.3082096 L20.0204463,21.2455424 L22.6088115,21.1210296 L22.6815711,21.1939065 L22.6815711,28.0546704 C22.6815711,28.2833938 22.7855469,28.4392402 22.9413934,28.5536606 C23.0556964,28.63663 23.367624,28.6989452 23.5443595,28.709507 L23.5443595,28.7717048 L21.2365883,28.9175761 L21.1949275,28.8756806 L21.1949275,28.3663632 L21.1533841,28.3558013 C20.9246607,28.5950866 20.457004,29.0211999 19.8229391,29.0211999 C18.6275687,29.0211999 17.7544532,28.0025651 17.7544532,26.4121804" id="Fill-34"></path>
                            <path d="M26.5694937,25.913061 C26.5694937,25.1024953 26.5591665,24.0629714 25.966645,24.0629714 C25.4884264,24.0629714 25.2702649,24.8838643 25.2389313,25.9339501 L26.5694937,25.913061 Z M23.6173304,26.4535947 C23.6173304,25.1130571 24.4697916,23.9381064 26.0392872,23.9381064 C27.629672,23.9381064 28.1807675,24.9257598 28.1807675,26.0068271 L28.1807675,26.0691422 L25.2389313,26.0691422 L25.2389313,26.3705079 C25.2389313,27.5972118 25.6235012,28.5117534 26.6318088,28.5117534 C27.2659912,28.5117534 27.8065248,28.2521658 28.1807675,27.5244521 L28.2950705,27.6074216 C27.910618,28.3974504 27.1516881,29.0317501 26.1121642,29.0317501 C24.4073591,29.0317501 23.6173304,27.8882503 23.6173304,26.4535947 L23.6173304,26.4535947 Z" id="Fill-36"></path>
                            <path d="M29.0840196,28.0962607 C29.0840196,27.5763814 29.5102502,27.1812497 30.0198024,27.1812497 C30.5288851,27.1812497 30.9552331,27.5763814 30.9552331,28.0962607 C30.9552331,28.6159053 30.5288851,29.011037 30.0198024,29.011037 C29.5102502,29.011037 29.0840196,28.6159053 29.0840196,28.0962607" id="Fill-38"></path>
                        </g>
                    </g>
                </g>
            </g>
        </g>
    </g>
</svg>