<?xml version="1.0" encoding="UTF-8"?>
<svg width="13px" height="13px" viewBox="0 0 13 13" version="1.1" xmlns="http://www.w3.org/2000/svg" xmlns:xlink="http://www.w3.org/1999/xlink">
    <!-- Generator: Sketch 64 (93537) - https://sketch.com -->
    <title>Group 22</title>
    <desc>Created with Sketch.</desc>
    <defs>
        <polygon id="path-1" points="5.38299462e-05 0.0226049382 11.9904932 0.0226049382 11.9904932 3.35678522 5.38299462e-05 3.35678522"></polygon>
        <polygon id="path-3" points="0 0.023729339 11.9897477 0.023729339 11.9897477 3.35838756 0 3.35838756"></polygon>
        <polygon id="path-5" points="0.000431136314 0.0152493523 11.9902849 0.0152493523 11.9902849 3.25565217 0.000431136314 3.25565217"></polygon>
    </defs>
    <g id="Page-1" stroke="none" stroke-width="1" fill="none" fill-rule="evenodd">
        <g id="Group-22">
            <g id="Group-16" transform="translate(0.152174, 0.621005)">
                <g id="Group-3" transform="translate(0.000000, 4.209934)">
                    <mask id="mask-2" fill="white">
                        <use xlink:href="#path-1"></use>
                    </mask>
                    <g id="Clip-2"></g>
                    <path d="M8.39170378,1.68810762 C8.39211507,2.18320779 8.77611507,2.58153057 9.25753973,2.58617927 C9.74016986,2.59085614 10.1389918,2.18357405 10.1383077,1.68669892 C10.1376219,1.18678101 9.74419726,0.787443965 9.25622466,0.791388313 C8.77340274,0.795276313 8.39129315,1.19162692 8.39170378,1.68810762 M10.8122247,2.20323944 C10.6878959,2.5550471 10.4891014,2.84490031 10.190937,3.05716257 C9.34441644,3.65983075 8.17652603,3.31867283 7.77504658,2.34436257 C7.72685479,2.22746901 7.67066301,2.20042205 7.5557863,2.20061927 C5.23795068,2.20419736 2.92008767,2.20354936 0.602252055,2.2023097 C0.521073973,2.20225336 0.437156164,2.19839353 0.359238356,2.17757301 C0.13789589,2.11840779 -0.00459726027,1.91282275 5.38299466e-05,1.67540118 C0.00490958904,1.43905023 0.156964384,1.24169197 0.381731507,1.19140153 C0.456416438,1.1746944 0.535128767,1.17148257 0.611978082,1.1714544 C2.9298411,1.17046831 5.24770411,1.16993301 7.56553973,1.1728631 C7.67493699,1.17300397 7.72614247,1.14313962 7.77474521,1.03334588 C8.06438904,0.379034922 8.56912877,0.0216770087 9.26597808,0.0226049382 C9.96285479,0.023536487 10.4657863,0.381852313 10.7547726,1.0373184 C10.7989644,1.13753301 10.8422521,1.18069544 10.9521151,1.17353927 C11.1199233,1.16260779 11.2889644,1.16843979 11.4574027,1.17125718 C11.7721699,1.1765257 11.9901425,1.38870344 11.9904991,1.68664257 C11.9908548,1.98455353 11.7709918,2.19946414 11.4588548,2.20278866 C11.2451014,2.20507075 11.0313205,2.20323944 10.8122247,2.20323944" id="Fill-1" fill="#A774C8" mask="url(#mask-2)"></path>
                </g>
                <g id="Group-6" transform="translate(0.000000, 0.077761)">
                    <mask id="mask-4" fill="white">
                        <use xlink:href="#path-3"></use>
                    </mask>
                    <g id="Clip-5"></g>
                    <path d="M2.74780822,2.5854708 C3.2349863,2.58456772 3.62054795,2.18548424 3.61869165,1.68404494 C3.61687671,1.19297363 3.22915068,0.792706852 2.75131507,0.788649809 C2.27279452,0.784564591 1.87139726,1.19424146 1.87057406,1.68751033 C1.86975342,2.18424459 2.26260274,2.58637085 2.74780822,2.5854708 M7.92791781,2.2060512 C6.7620274,2.2060512 5.59610959,2.20740355 4.43024658,2.20368459 C4.3290411,2.2033465 4.28189041,2.23219659 4.24194521,2.33198859 C3.99134247,2.95804111 3.39520548,3.37490233 2.74345205,3.35788529 C2.04673973,3.33968494 1.54339726,2.99359659 1.25413699,2.33883485 C1.20909589,2.23687346 1.16463014,2.19706372 1.05652055,2.20343103 C0.888547945,2.21332007 0.719616438,2.20824877 0.551150685,2.20548772 C0.214794521,2.19996563 -0.00424657534,1.98995729 -7.43079222e-06,1.6805232 C0.00424657534,1.37875242 0.226109589,1.17643555 0.554410959,1.17556216 C0.736575342,1.1750832 0.918794521,1.17285746 1.10090411,1.17682998 C1.16753425,1.17829503 1.20416438,1.16217955 1.23293151,1.09247729 C1.51512329,0.408301983 2.01871233,0.0399844174 2.74249315,0.0241225043 C3.41767123,0.00930302609 3.98446575,0.4143312 4.25676712,1.08534929 C4.29205479,1.17229398 4.34134247,1.17629468 4.41282192,1.17621016 C5.46939726,1.17513955 6.526,1.17547763 7.58257534,1.17547763 C8.87145205,1.17547763 10.1603014,1.17516772 11.4491507,1.1757312 C11.7388767,1.17587207 11.9512603,1.34978963 11.9846575,1.61028563 C12.0231233,1.91059137 11.840274,2.15790198 11.5480274,2.19700737 C11.4851233,2.2054032 11.4209041,2.20565677 11.3572603,2.20568494 C10.214137,2.2061639 9.0710411,2.2060512 7.92791781,2.2060512" id="Fill-4" fill="#A774C8" mask="url(#mask-4)"></path>
                </g>
                <g id="Group-9" transform="translate(0.000000, 8.216891)">
                    <mask id="mask-6" fill="white">
                        <use xlink:href="#path-5"></use>
                    </mask>
                    <g id="Clip-8"></g>
                    <path d="M5.75079726,0.765589397 C5.26312603,0.763844396 4.8734,1.14954342 4.8727691,1.63447145 C4.87213973,2.11849664 5.26411233,2.51177395 5.7464137,2.5110636 C6.2214274,2.51035132 6.61570137,2.12013815 6.62082466,1.64563368 C6.62603014,1.16393395 6.23394795,0.767318916 5.75079726,0.765589397 M9.44208493,2.13403623 C8.77249589,2.13409094 8.10290685,2.13592396 7.43334521,2.13203906 C7.33545479,2.13146453 7.28498904,2.15165505 7.24413973,2.25274442 C6.99720822,2.86412307 6.40898904,3.25365227 5.75019452,3.25565694 C5.09159178,3.25761924 4.5014,2.87161927 4.25024932,2.26166326 C4.20786575,2.15868616 4.15805753,2.13127303 4.05208493,2.13162869 C2.87687945,2.13551358 1.70167397,2.13482962 0.526468493,2.13357113 C0.187345205,2.13321547 -0.0356684932,1.88608685 0.0052630137,1.56257352 C0.0325506849,1.34668821 0.212084932,1.16899526 0.429810959,1.1458774 C0.488468493,1.13963968 0.548030137,1.14059722 0.607208219,1.14056986 C1.75507123,1.14029628 2.90293425,1.13895572 4.05079726,1.14273118 C4.15660548,1.14308684 4.20764658,1.11597464 4.24986575,1.01253245 C4.49759178,0.405558506 5.09583836,0.0125547797 5.74879726,0.0152493523 C6.40627671,0.0179717472 6.99449589,0.408048123 7.24381096,1.01898904 C7.28424932,1.11805388 7.33301644,1.14273118 7.43296164,1.14248495 C8.77213973,1.13933873 10.1113178,1.13980383 11.4504959,1.14081609 C11.7761397,1.14106231 11.9934822,1.34597689 11.9902849,1.64344501 C11.9872082,1.92373204 11.7727973,2.13242208 11.4781945,2.13335227 C10.7995096,2.13543151 10.1207973,2.13400887 9.44208493,2.13403623" id="Fill-7" fill="#A774C8" mask="url(#mask-6)"></path>
                </g>
                <path d="M2.75779434,2.78807092 C2.20267668,2.78907273 1.75322257,2.34148281 1.75416144,1.78858868 C1.75510326,1.23955173 2.21433697,0.783557546 2.76180648,0.788104631 C3.30849238,0.792620356 3.75208499,1.23814057 3.75416144,1.7847315 C3.7562852,2.34286261 3.31516884,2.78706574 2.75779434,2.78807092" id="Fill-12" fill="#E4CBF6"></path>
            </g>
        </g>
    </g>
</svg>