<?xml version="1.0" encoding="UTF-8"?>
<svg width="22px" height="22px" viewBox="0 0 22 22" version="1.1" xmlns="http://www.w3.org/2000/svg" xmlns:xlink="http://www.w3.org/1999/xlink">
    <title>Cancel</title>
    <defs>
        <path d="M0.807854514,10.0410967 C0.596371065,9.8296133 0.596371065,9.4855883 0.807854514,9.27410485 L4.68145676,5.44844865 L0.807854514,1.57484641 C0.596371065,1.36336296 0.596371065,1.01933796 0.807854514,0.807854514 C1.01933796,0.596371065 1.36336296,0.596371065 1.57484641,0.807854514 L5.40050261,4.68145676 L9.27410485,0.807854514 C9.4855883,0.596371065 9.8296133,0.596371065 10.0410967,0.807854514 C10.2525802,1.01933796 10.2525802,1.36336296 10.0410967,1.57484641 L6.1674945,5.40050261 L10.0410967,9.27410485 C10.2525802,9.4855883 10.2525802,9.8296133 10.0410967,10.0410967 C9.8296133,10.2525802 9.4855883,10.2525802 9.27410485,10.0410967 L5.44844865,6.1674945 L1.57484641,10.0410967 C1.36336296,10.2525802 1.01933796,10.2525802 0.807854514,10.0410967 Z" id="path-1"></path>
    </defs>
    <g id="Page-1" stroke="none" stroke-width="1" fill="none" fill-rule="evenodd">
        <g id="LL21---Payment-Confirmation-filled" transform="translate(-310.000000, -369.000000)">
            <g id="Group-2" transform="translate(16.000000, 357.000000)">
                <g id="Group-10" transform="translate(108.000000, 1.000000)">
                    <g id="Cancel" transform="translate(186.000000, 11.000000)">
                        <circle id="Oval" fill="#8B7FBF" cx="11" cy="11" r="11"></circle>
                        <g id="Components-/-Icons-/-Close" transform="translate(1.833333, 1.833333)">
                            <polygon id="Bound" points="0 0 18.3333333 0 18.3333333 18.3333333 0 18.3333333"></polygon>
                            <g id="Close" transform="translate(3.659574, 3.659574)">
                                <mask id="mask-2" fill="white">
                                    <use xlink:href="#path-1"></use>
                                </mask>
                                <use id="Path" fill="#000000" fill-rule="nonzero" xlink:href="#path-1"></use>
                                <g id="Group" mask="url(#mask-2)">
                                    <g transform="translate(-2.712238, -2.712238)" id="Icon-Color">
                                        <path d="M12.6138524,0.457446809 C13.4980956,0.457446809 14.2986275,0.815857155 14.8780986,1.39532829 C15.4575697,1.97479942 15.8159801,2.77533133 15.8159801,3.65957447 L15.8159801,3.65957447 L15.8159801,12.6138524 C15.8159801,13.4980956 15.4575697,14.2986275 14.8780986,14.8780986 C14.2986275,15.4575697 13.4980956,15.8159801 12.6138524,15.8159801 L12.6138524,15.8159801 L3.65957447,15.8159801 C2.77533133,15.8159801 1.97479942,15.4575697 1.39532829,14.8780986 C0.815857155,14.2986275 0.457446809,13.4980956 0.457446809,12.6138524 L0.457446809,12.6138524 L0.457446809,3.65957447 C0.457446809,2.77533133 0.815857155,1.97479942 1.39532829,1.39532829 C1.97479942,0.815857155 2.77533133,0.457446809 3.65957447,0.457446809 L3.65957447,0.457446809 Z" id="Button" stroke="#000000" stroke-width="0.914893617" fill="#FFFFFF"></path>
                                    </g>
                                </g>
                            </g>
                        </g>
                    </g>
                </g>
            </g>
        </g>
    </g>
</svg>