<?xml version="1.0" encoding="UTF-8"?>
<svg width="37px" height="32px" viewBox="0 0 37 32" version="1.1" xmlns="http://www.w3.org/2000/svg" xmlns:xlink="http://www.w3.org/1999/xlink">
    <title>image</title>
    <g id="Page-1" stroke="none" stroke-width="1" fill="none" fill-rule="evenodd">
        <g id="LL21---Payment-Confirmation" transform="translate(-163.000000, -399.000000)" fill="#8B7FBF" fill-rule="nonzero">
            <g id="Group-2" transform="translate(16.000000, 357.000000)">
                <g id="Group-4" transform="translate(43.000000, 42.000000)">
                    <g id="image" transform="translate(104.000000, 0.000000)">
                        <path d="M16.60182,14.4448864 C18.6209073,14.4448864 20.2638627,12.7761364 20.2638627,10.725 C20.2638627,8.67357956 18.6209073,7.00482953 16.60182,7.00482953 C14.5827326,7.00482953 12.9400568,8.67357956 12.9400568,10.725 C12.9400568,12.7761364 14.5827326,14.4448864 16.60182,14.4448864 L16.60182,14.4448864 Z M16.60182,9.18664771 C17.4368608,9.18664771 18.1161355,9.87670458 18.1161355,10.725 C18.1161355,11.5730113 17.4368608,12.2630682 16.60182,12.2630682 C15.7670588,12.2630682 15.0877841,11.5730113 15.0877841,10.725 C15.0877841,9.87670458 15.7670588,9.18664771 16.60182,9.18664771 Z" id="Shape"></path>
                        <path d="M35.3161311,0.0363636364 L1.33841438,0.0363636364 C0.600412838,0.0363636364 0,0.646306836 0,1.39602269 L0,30.6125 C0,31.3622159 0.600412838,31.9721591 1.33841438,31.9721591 L35.3161311,31.9721591 C36.0541326,31.9721591 36.6545455,31.3622159 36.6545455,30.6125 L36.6545455,1.39602269 C36.6545455,0.646306836 36.0541326,0.0363636364 35.3161311,0.0363636364 Z M34.5068182,2.21818182 L34.5068182,19.4840909 L27.7521041,12.621875 C27.3116522,12.1752841 26.5954635,12.1755681 26.1552912,12.6227273 L16.6020996,22.3275568 L10.4998135,16.1286932 C10.2864391,15.9116477 10.0025923,15.7920455 9.70056818,15.7920455 C9.39882367,15.7920455 9.11525659,15.9113636 8.9018821,16.128125 L2.14772727,22.9894887 L2.14772727,2.21818182 L34.5068182,2.21818182 Z M2.14772727,29.7903409 L2.14772727,26.075 L9.70056818,18.4022727 L15.8025746,24.6011364 C16.0162287,24.8181818 16.3000755,24.9380682 16.6020996,24.9380682 C16.9035644,24.9380682 17.1874112,24.8184659 17.4005061,24.6017046 L26.9539773,14.8965909 L34.5070978,22.5696023 L34.5070978,29.7903409 L2.14772727,29.7903409 Z" id="Shape"></path>
                    </g>
                </g>
            </g>
        </g>
    </g>
</svg>