<?xml version="1.0" encoding="UTF-8"?>
<svg width="35px" height="31px" viewBox="0 0 35 31" version="1.1" xmlns="http://www.w3.org/2000/svg" xmlns:xlink="http://www.w3.org/1999/xlink">
    <!-- Generator: Sketch 64 (93537) - https://sketch.com -->
    <title>Group 34</title>
    <desc>Created with Sketch.</desc>
    <defs>
        <polygon id="path-1" points="0 0.0666232116 9.0036122 0.0666232116 9.0036122 12.0254636 0 12.0254636"></polygon>
        <polygon id="path-3" points="0.0841791339 0.105614719 24.4470728 0.105614719 24.4470728 12.6545087 0.0841791339 12.6545087"></polygon>
    </defs>
    <g id="Page-1" stroke="none" stroke-width="1" fill="none" fill-rule="evenodd">
        <g id="Group-34">
            <g id="Group-33">
                <path d="M26.5216909,17.9160675 L26.5216909,13.7485134 C26.5216909,13.7485134 26.607813,12.7108857 27.7552343,12.7108857 C28.9025177,12.7108857 34.1474193,12.5058294 34.1474193,17.9160675 C34.1474193,23.3263056 27.7552343,23.3263056 27.7552343,23.3263056 C27.7552343,23.3263056 26.5216909,23.397968 26.5216909,21.9653922 L26.5216909,17.9160675 Z" id="Fill-1" fill="#FFEBDE"></path>
                <path d="M27.2106673,13.7907459 L27.2106673,21.9653519 C27.2106673,22.1502784 27.2393287,22.3982784 27.3754705,22.5288541 C27.5098209,22.6575511 27.7261594,22.6563433 27.727813,22.6559937 L27.7626752,22.6524515 L27.7552343,22.6552697 C27.9870059,22.6544645 33.4585807,22.5821312 33.4585807,17.9160273 C33.4585807,16.5112307 33.0697224,15.4222048 32.3027539,14.6792784 C30.9469862,13.3657372 28.7204902,13.377681 27.8807657,13.3814385 L27.7552343,13.3818411 C27.4369272,13.3818411 27.2536594,13.5193952 27.2106673,13.7907459 M27.7301555,23.9977978 C27.5236004,23.9977978 26.9218484,23.9564645 26.4362579,23.5109234 C26.1609429,23.2582264 25.8327146,22.7850403 25.8327146,21.9653519 L25.8350571,13.6945251 C25.8901752,13.0294342 26.4471437,12.0398498 27.7552343,12.0398498 L27.8736004,12.0394472 C28.8693091,12.0347502 31.5126358,12.0209277 33.274624,13.7278065 C34.3109823,14.7318844 34.8365335,16.1411095 34.8365335,17.9160273 C34.8365335,20.4160229 33.5879705,22.2658238 31.2260217,23.2654732 C29.5788169,23.9625035 27.949939,23.9956506 27.769565,23.997261 C27.7588169,23.9975294 27.7455886,23.9977978 27.7301555,23.9977978" id="Fill-3" fill="#A179C5"></path>
                <path d="M27.7256496,22.5888545 L27.7256496,22.5891229 L27.755689,22.5856338 L28.2445866,22.5369195 L28.162874,22.5688589 C29.4665551,22.4671359 33.3895866,21.8353264 33.3895866,17.9160407 C33.3895866,16.5298978 33.0076181,15.4567074 32.2541535,14.7267983 C30.9208465,13.4349974 28.7151575,13.4437203 27.8849409,13.4485515 L27.7555512,13.4489541 C27.4741732,13.4489541 27.3186024,13.5624866 27.2796063,13.7959931 L27.2796063,21.9653654 C27.2796063,22.2086684 27.3308661,22.3918502 27.423878,22.4809584 C27.5345276,22.58711 27.719311,22.5888545 27.7255118,22.5888545 L27.7256496,22.5888545 Z M27.3943898,22.7235905 L27.5014567,22.6818545 C27.4415157,22.6599801 27.3793701,22.6266987 27.3271457,22.5766424 C27.1739173,22.4296944 27.141811,22.1631749 27.141811,21.9653654 L27.1426378,13.7805602 C27.1763976,13.5679887 27.3099213,13.314755 27.7552756,13.314755 L27.8805315,13.3143524 C28.7308661,13.3111316 30.9773425,13.3005299 32.3512992,14.6316511 C33.1316339,15.387729 33.5273819,16.4928589 33.5273819,17.9160407 C33.5273819,22.648439 27.9911811,22.7215775 27.7555512,22.7223827 L27.7347441,22.7226511 C27.7330906,22.7231879 27.7201378,22.7235905 27.6996063,22.7226511 L27.3943898,22.7235905 Z M28.0607677,12.1058892 C27.9942126,12.1058892 27.9324803,12.1062918 27.876122,12.1065602 L27.7555512,12.1069628 C26.4937598,12.1069628 25.9567717,13.0596424 25.9035827,13.6999065 L25.9016535,21.9653654 C25.9016535,22.761032 26.2180315,23.2185169 26.4834252,23.4620883 C26.9444882,23.8849498 27.5088976,23.9307117 27.7300591,23.9307117 L27.7674016,23.9301749 C27.9477756,23.9285645 29.5641142,23.8955515 31.1985039,23.2038892 C33.5333071,22.215781 34.7675394,20.3873177 34.7675394,17.9160407 C34.7675394,16.1595082 34.2490157,14.766387 33.2260236,13.7753264 C31.5851575,12.1857377 29.1599606,12.1058892 28.0607677,12.1058892 L28.0607677,12.1058892 Z M27.7300591,24.0649108 C27.4925,24.0649108 26.8859252,24.0156597 26.3890354,23.5597853 C26.1036614,23.298097 25.7638583,22.8089411 25.7638583,21.9653654 L25.766063,13.6945385 C25.8235236,12.9992528 26.4004724,11.9727636 27.7552756,11.9727636 L27.8732283,11.972361 C28.8792717,11.9677983 31.5421654,11.9549152 33.3231693,13.6801792 C34.3730315,14.6974087 34.9053346,16.1224693 34.9053346,17.9160407 C34.9053346,20.4448892 33.6425787,22.3158935 31.2534843,23.3269498 C29.5940157,24.0292139 27.9519094,24.0627636 27.7700197,24.064374 L27.7300591,24.0649108 Z" id="Fill-5" fill="#A179C5"></path>
                <path d="M8.3147185,17.9160675 L8.3147185,13.7485134 C8.3147185,13.7485134 8.22859646,12.7108857 7.0811752,12.7108857 C5.93389173,12.7108857 0.688990157,12.5058294 0.688990157,17.9160675 C0.688990157,23.3263056 7.0811752,23.3263056 7.0811752,23.3263056 C7.0811752,23.3263056 8.3147185,23.397968 8.3147185,21.9653922 L8.3147185,17.9160675 Z" id="Fill-7" fill="#FFEBDE"></path>
                <g id="Group-11" transform="translate(0.000000, 11.972307)">
                    <mask id="mask-2" fill="white">
                        <use xlink:href="#path-1"></use>
                    </mask>
                    <g id="Clip-10"></g>
                    <path d="M6.78331693,1.40856753 C5.84286417,1.40856753 3.80500984,1.4752645 2.53371063,2.70680996 C1.76687992,3.44987056 1.37788386,4.53889654 1.37788386,5.94369307 C1.37788386,10.609797 6.84945866,10.6822645 7.08247047,10.6829355 L7.12187992,10.6841433 C7.12684055,10.6836065 7.33160433,10.6805199 7.4608563,10.5565199 C7.59699803,10.4259442 7.62565945,10.1780784 7.62565945,9.99301775 L7.62565945,1.81411732 C7.58583661,1.54947662 7.40229331,1.40950693 7.08123031,1.40950693 L6.95569882,1.40910433 C6.90347441,1.40883593 6.84573819,1.40856753 6.78331693,1.40856753 M7.10644685,12.0254636 C7.09087598,12.0254636 7.07778543,12.0251952 7.0670374,12.0249268 C6.8863878,12.0234506 5.25778543,11.9901693 3.61058071,11.293139 C1.24849409,10.2936238 -6.88976378e-05,8.44368874 -6.88976378e-05,5.94369307 C-6.88976378e-05,4.16864113 0.525482283,2.75955022 1.56184055,1.75547229 C3.32382874,0.0487277056 5.96880906,0.0629528139 6.96300197,0.067112987 L7.08123031,0.0675155844 C8.38918307,0.0675155844 8.94615157,1.0571 9.00140748,1.72219091 L9.0036122,1.77627316 L9.0036122,9.99301775 C9.0036122,10.8128403 8.67538386,11.2860264 8.4000689,11.5387234 C7.91461614,11.9841303 7.31286417,12.0254636 7.10644685,12.0254636" id="Fill-9" fill="#A179C5" mask="url(#mask-2)"></path>
                </g>
                <path d="M29.1126969,12.2690082 C28.8084449,5.61474416 23.5871063,0.402583983 17.2263386,0.402583983 C10.8654331,0.402583983 5.64409449,5.61474416 5.33984252,12.2690082 L5.33309055,12.4147485 L6.19362205,12.4147485 L6.20037402,12.2816229 C6.49732283,6.11450173 11.3405512,1.2837355 17.2263386,1.2837355 C23.112126,1.2837355 27.9552165,6.11450173 28.2521654,12.2816229 L28.2589173,12.4147485 L29.1194488,12.4147485 L29.1126969,12.2690082 Z" id="Fill-12" fill="#A179C5"></path>
                <path d="M28.390126,12.2804823 L28.9753425,12.2804823 L28.9750669,12.2749801 C28.6742598,5.69278095 23.5134134,0.536716017 17.2262283,0.536716017 C10.9390433,0.536716017 5.77833465,5.69278095 5.47752756,12.2749801 L5.47725197,12.2804823 L6.06274409,12.2748459 C6.3631378,6.03646494 11.2667205,1.14946926 17.2262283,1.14946926 C23.1857362,1.14946926 28.0893189,6.03646494 28.3898504,12.2752485 L28.390126,12.2804823 Z M29.2636102,12.5488805 L28.1277638,12.5488805 L28.1145354,12.2881316 C27.8210315,6.19253853 23.0382953,1.41786753 17.2262283,1.41786753 C11.4142992,1.41786753 6.63156299,6.19253853 6.33805906,12.2878632 L6.32483071,12.5488805 L5.18898425,12.5488805 L5.2022126,12.2630364 C5.50963386,5.53697576 10.7913268,0.268317749 17.2262283,0.268317749 C23.6612677,0.268317749 28.9429606,5.53697576 29.2503819,12.2630364 L29.2636102,12.5488805 Z" id="Fill-14" fill="#A179C5"></path>
                <g id="Group-18" transform="translate(4.960630, 0.028584)">
                    <mask id="mask-4" fill="white">
                        <use xlink:href="#path-3"></use>
                    </mask>
                    <g id="Clip-17"></g>
                    <path d="M12.2127815,1.2552316 C12.196935,1.2552316 12.1813642,1.2553658 12.1655177,1.2555 C12.1813642,1.2553658 12.196935,1.2552316 12.2127815,1.2552316 L12.2127815,1.2552316 Z M12.2961476,1.2552316 C12.333628,1.2552316 12.3705571,1.2555 12.4077618,1.2560368 C12.3705571,1.2555 12.333628,1.2552316 12.2961476,1.2552316 L12.2961476,1.2552316 Z M12.4475846,1.25657359 C15.1830965,1.30287229 17.6836673,2.39270346 19.5939232,4.17124459 C17.6836673,2.39270346 15.1830965,1.30287229 12.4475846,1.25657359 L12.4475846,1.25657359 Z M23.560498,12.1177121 L23.8699862,12.1177121 C23.5056555,5.66890693 18.4342382,0.642344156 12.2656949,0.642344156 C6.09549803,0.642344156 1.02325394,5.67105411 0.661403543,12.1163701 L0.971167323,12.1134177 C1.33508465,5.86389827 6.27311614,0.986699134 12.2656949,0.986699134 C18.2597894,0.986699134 23.1986476,5.86577706 23.560498,12.1177121 L23.560498,12.1177121 Z M12.1675846,0.374348485 C5.85931693,0.427357143 0.695714567,5.60704113 0.380438976,12.2142013 C0.698194882,5.60422294 5.86069488,0.427357143 12.1675846,0.374348485 L12.1675846,0.374348485 Z M12.1476043,1.2557684 C6.31555709,1.32004978 1.53475,6.12719697 1.23973031,12.2525823 L1.23876575,12.2728463 L1.23973031,12.2525823 C1.53475,6.12733117 6.31541929,1.32004978 12.1476043,1.2557684 L12.1476043,1.2557684 Z M0.517269685,12.3861104 L1.23297835,12.3861104 L1.23339173,12.3792662 L0.517269685,12.3861104 Z M23.2982736,12.3861104 L24.1588051,12.3861104 L24.1521909,12.2405043 C24.1453012,12.0893961 24.1357933,11.9389589 24.1238051,11.789461 C24.1357933,11.9389589 24.1453012,12.0892619 24.1521909,12.2403701 L24.1585295,12.3806082 L24.0146713,12.3861104 L23.2984114,12.3861104 L23.2915217,12.2533874 C23.2231752,10.8327554 22.9134114,9.48284632 22.405498,8.2467381 C22.9134114,9.48284632 23.2231752,10.8327554 23.2915217,12.2532532 L23.2982736,12.3861104 Z M24.4470728,12.6545087 L23.0359114,12.6545087 L23.0162067,12.2661364 C22.7262854,6.24207143 18.0039035,1.52349567 12.2656949,1.52349567 C6.52734843,1.52349567 1.80510433,6.24193723 1.51504528,12.2654654 L1.49547835,12.6545087 L0.0841791339,12.6545087 L0.103883858,12.2284264 C0.414612205,5.43056926 5.75665945,0.105547619 12.2656949,0.105547619 C18.7745925,0.105547619 24.1167776,5.43056926 24.4275059,12.2285606 L24.4470728,12.6545087 Z" id="Fill-16" fill="#A179C5" mask="url(#mask-4)"></path>
                </g>
                <path d="M6.77854921,12.7098658 C5.78807677,12.7098658 3.63392323,12.7813939 2.25018307,14.1224459 C1.40425787,14.9414632 0.975714567,16.1237576 0.975714567,17.6367186 C0.975714567,19.7590779 1.99305709,21.2655974 3.9992185,22.1145411 C5.52475,22.760039 7.06599016,22.7677002 7.08100984,22.7677002 C7.10291929,22.7671515 7.47207283,22.7812424 7.73539961,22.5357922 C7.92927756,22.3551602 8.02780118,22.069316 8.02780118,21.6861775 L8.02780118,13.4692987 C8.02118701,13.4137403 7.9281752,12.7109394 7.08100984,12.7109394 L6.95782087,12.7104026 C6.90352953,12.7104026 6.84358858,12.7098658 6.77854921,12.7098658 M7.1056752,23.3268961 C7.07825394,23.3268961 7.0676437,23.3268961 7.06309646,23.3258225 C6.97077362,23.3258225 0.402072835,23.2428874 0.402072835,17.6367186 C0.402072835,15.9698312 0.887663386,14.6538745 1.84520276,13.72629 C3.48827362,12.1342857 6.01047835,12.1554892 6.96057677,12.1517316 L7.08100984,12.1522684 C8.19756496,12.1522684 8.56341142,12.9990649 8.60047835,13.4470216 L8.60158071,21.6861775 C8.60158071,22.2318312 8.4413248,22.6557662 8.12425787,22.9465758 C7.74049803,23.2985801 7.2513248,23.3268961 7.1056752,23.3268961" id="Fill-19" fill="#A179C5"></path>
                <path d="M6.77861811,12.7769788 C6.02611811,12.7769788 3.73623622,12.7769788 2.29875591,14.1699658 C1.46661024,14.9755632 1.0446811,16.1420221 1.0446811,17.636732 C1.0446811,19.7298359 2.0479685,21.2156887 4.02670866,22.0530913 C5.5365315,22.6918792 7.06592126,22.700468 7.08107874,22.700468 C7.19517323,22.699126 7.47972047,22.6811433 7.68779134,22.4872255 C7.86775197,22.3196108 7.95897244,22.050139 7.95897244,21.6861909 L7.95897244,13.4693121 C7.9454685,13.3604766 7.83674803,12.7780524 7.08107874,12.7780524 L6.77861811,12.7769788 Z M7.0911378,22.8346671 L7.08617717,22.8346671 C7.06564567,22.8346671 5.51062598,22.8271519 3.97186614,22.1761519 C1.93800787,21.3153987 0.906885827,19.7882126 0.906885827,17.636732 C0.906885827,16.1048489 1.34245669,14.9065848 2.20161024,14.0748186 C3.67932677,12.6427797 6.01206299,12.6427797 6.77861811,12.6427797 L7.08135433,12.6438532 C7.9717874,12.6438532 8.08615748,13.3777883 8.09635433,13.4615286 L8.09676772,21.6861909 C8.09676772,22.0881173 7.99121654,22.3903338 7.78300787,22.5842515 C7.54172835,22.8093035 7.22245669,22.8346671 7.0911378,22.8346671 L7.0911378,22.8346671 Z M6.96037008,12.2188446 L6.90662992,12.2189788 C5.88322441,12.222468 3.48641339,12.2306541 1.89377559,13.7739442 C0.949602362,14.6886455 0.470901575,15.9882299 0.470901575,17.636732 C0.470901575,23.1943208 6.99716142,23.2586022 7.06302756,23.2586022 L7.07983858,23.2607494 C7.07859843,23.2599442 7.0881063,23.25981 7.10574409,23.25981 C7.24092126,23.25981 7.71080315,23.2336411 8.07706299,22.8977407 C8.37938583,22.6204853 8.53261417,22.2127883 8.53261417,21.6861909 L8.53151181,13.4470351 C8.49664961,13.025784 8.14816535,12.2193814 7.08107874,12.2193814 L6.96037008,12.2188446 Z M7.10574409,23.3940091 C7.0794252,23.3940091 7.06688583,23.3940091 7.05710236,23.3928013 C6.82367717,23.3901173 0.333106299,23.2531 0.333106299,17.636732 C0.333106299,15.9511909 0.825448819,14.6195329 1.79662992,13.678797 C3.42936614,12.0967234 5.95515354,12.0880004 6.90621654,12.0847797 L6.96037008,12.0846455 L7.08135433,12.0851823 C8.2488937,12.0851823 8.63031102,12.9725069 8.6690315,13.4416671 L8.67040945,21.6861909 C8.67040945,22.2513035 8.5025748,22.691745 8.17145276,22.9954377 C7.76826378,23.3651563 7.25373622,23.3940091 7.10574409,23.3940091 L7.10574409,23.3940091 Z" id="Fill-21" fill="#A179C5"></path>
                <path d="M6.93147441,12.7104026 L7.08139567,12.7109394 C7.09379724,12.7109394 7.10619882,12.7110736 7.11818701,12.711342 C7.10619882,12.7110736 7.09393504,12.7109394 7.08139567,12.7109394 L6.93147441,12.7104026 Z M6.77838386,12.7098658 C6.12344291,12.7098658 4.31350197,12.7098658 2.89297047,13.6165152 C4.31336417,12.71 6.12302953,12.7098658 6.77838386,12.7098658 L6.77838386,12.7098658 Z M2.07377756,14.3050909 C1.34484055,15.1132381 0.975687008,16.2324589 0.975687008,17.6367186 C0.975687008,16.2325931 1.34484055,15.1133723 2.07377756,14.3050909 L2.07377756,14.3050909 Z M0.975687008,17.6367186 C0.975687008,18.5141126 1.14958465,19.2861602 1.49531299,19.9500433 C1.14958465,19.2861602 0.975687008,18.5141126 0.975687008,17.6367186 L0.975687008,17.6367186 Z M6.77838386,12.8440649 C6.03263583,12.8440649 3.76452559,12.8443333 2.34730118,14.2175931 C1.52865945,15.0101732 1.11348228,16.1605281 1.11348228,17.6367186 C1.11348228,19.7005671 2.10285236,21.1657532 4.05417126,21.9914805 C5.54980118,22.6243636 7.06610039,22.633355 7.08112008,22.633355 C7.24261614,22.631342 7.47149409,22.5959134 7.64015551,22.4387662 C7.80606102,22.284303 7.89011614,22.0312035 7.89011614,21.6861775 L7.89011614,13.4692987 C7.87743898,13.3718701 7.77657283,12.8451385 7.08112008,12.8451385 L6.77838386,12.8440649 Z M7.08291142,22.7675541 L7.0862185,22.7675541 L7.09104134,22.7675541 C7.20995866,22.7675541 7.51104134,22.7450087 7.73537205,22.5357922 C7.74804921,22.5239827 7.76031299,22.5117706 7.77216339,22.4991558 C7.76031299,22.5117706 7.74804921,22.5239827 7.73537205,22.5357922 C7.53474213,22.7227316 7.2700374,22.7651385 7.08291142,22.7675541 L7.08291142,22.7675541 Z M7.09104134,22.9017532 L7.0862185,22.9017532 C7.07050984,22.9017532 5.49619882,22.8942381 3.94434843,22.2376017 C1.8830689,21.3654416 0.837891732,19.8173203 0.837891732,17.6367186 C0.837891732,16.086316 1.28035236,14.8719481 2.15300984,14.0272987 C3.65084449,12.5756667 6.00493898,12.5756667 6.77865945,12.5756667 L7.08167126,12.5767403 C8.03149409,12.5767403 8.1538563,13.3639524 8.16460433,13.4537316 L8.16570669,21.6861775 C8.16570669,22.1071602 8.05299016,22.4256147 7.83058858,22.6328182 C7.5704311,22.8755844 7.22676969,22.9017532 7.09104134,22.9017532 L7.09104134,22.9017532 Z M6.96013583,12.1517316 L6.90639567,12.1518658 C6.88889567,12.152 6.87112008,12.152 6.85251772,12.1521342 C6.87084449,12.152 6.88875787,12.152 6.90625787,12.1518658 L6.96041142,12.1517316 L6.96013583,12.1517316 Z M1.65970276,13.9172554 C0.824938976,14.8311515 0.40190748,16.0808139 0.40190748,17.6367186 C0.40190748,16.0809481 0.824938976,14.8312857 1.65970276,13.9172554 L1.65970276,13.9172554 Z M8.60155315,21.6861775 C8.60155315,21.7144935 8.60113976,21.7424069 8.6001752,21.7700519 C8.60113976,21.7424069 8.60155315,21.7144935 8.60155315,21.6861775 L8.60155315,21.6861775 Z M0.40190748,17.6455758 C0.404663386,19.8645584 1.41360039,21.4795108 3.40212402,22.4496364 C1.85633661,21.6920823 0.405352362,20.2789654 0.40190748,17.6455758 L0.40190748,17.6455758 Z M6.96054921,12.2859307 L6.90680906,12.2860649 C5.89180906,12.2895541 3.51497835,12.2976061 1.94232087,13.8214372 C1.01165157,14.7232554 0.539702756,16.0067359 0.539702756,17.6367186 C0.539702756,23.128013 6.99775394,23.1916234 7.0630689,23.1916234 L7.08112008,23.193368 C7.08980118,23.192697 7.09820669,23.192697 7.10578543,23.192697 C7.23448622,23.192697 7.68190748,23.1678701 8.02984055,22.8488788 C8.31783268,22.5847749 8.46375787,22.1935844 8.46375787,21.6861775 L8.46251772,13.4470216 C8.42944685,13.0491212 8.09777362,12.2864675 7.08112008,12.2864675 L6.96054921,12.2859307 Z M6.94897441,23.3224675 C7.01360039,23.3251515 7.04694685,23.3240779 7.05934843,23.3258225 L7.05452559,23.3252857 C7.05259646,23.3258225 7.01442717,23.3250173 6.94897441,23.3224675 L6.94897441,23.3224675 Z M7.10578543,23.4610952 C7.0746437,23.4610952 7.0600374,23.4606926 7.04860039,23.4593506 C6.98383661,23.4590823 5.26153346,23.431303 3.57891535,22.6808615 C1.4104311,21.7138225 0.264112205,19.9696364 0.264112205,17.6367186 C0.264112205,15.932658 0.763344488,14.5850303 1.74802953,13.6311429 C3.40102165,12.0296104 5.94734055,12.0208874 6.90584449,12.0176667 L6.96013583,12.0175325 L7.08167126,12.0180693 C8.29923031,12.0180693 8.69718307,12.9456537 8.73755709,13.4362857 L8.73934843,21.6861775 C8.73934843,22.2704805 8.56421063,22.7274286 8.21875787,23.0442727 C7.79696654,23.4310346 7.26025394,23.4610952 7.10578543,23.4610952 L7.10578543,23.4610952 Z" id="Fill-23" fill="#A179C5"></path>
                <path d="M18.6189528,26.5808494 L15.7241496,26.5808494 C14.6487953,26.5808494 13.7580866,27.3562519 13.6044449,28.3627455 C8.41493701,28.1023991 6.77517323,24.1745247 6.35655118,22.7874424 C6.01605906,22.7679835 5.67501575,22.7623472 5.33314567,22.7728147 C5.67997638,24.0297238 7.46084252,29.0874208 13.689189,29.3283082 C13.9730472,30.1588667 14.7772205,30.760213 15.7241496,30.760213 L18.6189528,30.760213 C19.802063,30.760213 20.764563,29.8226978 20.764563,28.6704641 C20.764563,27.5182303 19.802063,26.5808494 18.6189528,26.5808494" id="Fill-25" fill="#A179C5"></path>
                <path d="M5.42286417,22.8375255 C5.87000984,24.3930277 7.70737205,29.0298762 13.6918209,29.2612355 L13.7393602,29.2631143 L13.7545177,29.3071316 C14.0379626,30.1360797 14.8294587,30.6931403 15.7241634,30.6931403 L18.6189665,30.6931403 C19.7640453,30.6931403 20.6956791,29.7858199 20.6956791,28.6704909 C20.6956791,27.5552961 19.7640453,26.6479758 18.6189665,26.6479758 L15.7241634,26.6479758 C14.7044783,26.6479758 13.8225886,27.389426 13.6725295,28.3725688 L13.663435,28.4329584 L13.6010138,28.4297377 C8.37512795,28.1675126 6.70766732,24.15469 6.30420276,22.8518848 C6.00656496,22.8359152 5.71099409,22.8313524 5.42286417,22.8375255 M18.6189665,30.8273394 L15.7241634,30.8273394 C14.7857776,30.8273394 13.9540453,30.2529671 13.6393209,29.3934216 C10.9936516,29.2805602 8.84500984,28.2987593 7.25306102,26.4749931 C5.97308071,25.0087333 5.43747047,23.4096165 5.26660433,22.7901532 L5.24400591,22.708426 L5.33095472,22.705742 C5.66565945,22.6958113 6.01221457,22.7005082 6.36056102,22.7205039 L6.40892717,22.7233221 L6.4225689,22.7685472 C6.79254921,23.9944563 8.39772638,28.0029844 13.5464469,28.2924519 C13.7326083,27.2741489 14.6579035,26.5137766 15.7241634,26.5137766 L18.6189665,26.5137766 C19.8399705,26.5137766 20.8334744,27.4813524 20.8334744,28.6704909 C20.8334744,29.8597636 19.8399705,30.8273394 18.6189665,30.8273394" id="Fill-27" fill="#A179C5"></path>
                <path d="M5.67073031,22.7677957 C5.88279724,22.7677957 6.09624213,22.773432 6.30803346,22.784839 L6.33380118,22.7863152 C6.09651772,22.7730294 5.85909646,22.7672589 5.62387992,22.7677957 C5.63945079,22.7677957 5.65515945,22.7677957 5.67073031,22.7677957 L5.67073031,22.7677957 Z M6.35639961,22.7875229 L6.36508071,22.8157048 C6.36218701,22.8061766 6.35915551,22.7966485 6.3565374,22.7875229 L6.35639961,22.7875229 Z M13.1729941,28.331826 C13.3040374,28.3441723 13.437561,28.3538346 13.5734272,28.3612156 L13.5424232,28.359471 C13.4173051,28.3523584 13.2942539,28.3430987 13.1729941,28.331826 L13.1729941,28.331826 Z M13.6036043,28.3626918 L13.6042933,28.3626918 C13.606498,28.3490035 13.6087028,28.3353152 13.6110453,28.321761 L13.6036043,28.3626918 Z M10.823998,28.8123931 C11.5789783,29.0736788 12.3932106,29.2379385 13.2638012,29.3039645 C12.3543524,29.2348519 11.5442539,29.0611983 10.823998,28.8123931 L10.823998,28.8123931 Z M13.6609272,29.327181 L13.6887618,29.3283887 L13.7019902,29.3651593 C13.6977185,29.352813 13.6934469,29.3407351 13.6890374,29.3282545 C13.6798051,29.3279861 13.6702972,29.3275835 13.6609272,29.327181 L13.6609272,29.327181 Z M5.5136437,22.9030684 C5.97126181,24.4301203 7.82626181,28.9672589 13.6944114,29.1941896 L13.7897657,29.1979472 L13.8199429,29.2858476 C14.0938799,30.087419 14.8591949,30.6259602 15.7241358,30.6259602 L18.618939,30.6259602 C19.7259862,30.6259602 20.6267539,29.7488346 20.6267539,28.6705446 C20.6267539,27.5922545 19.7259862,26.715129 18.618939,26.715129 L15.7241358,26.715129 C14.7384862,26.715129 13.8856713,27.4318866 13.7405728,28.382419 L13.7223839,28.5030641 L13.5974035,28.4967567 C8.36517913,28.2342632 6.66602559,24.2194277 6.25250197,22.9163541 C6.0065374,22.904142 5.7587815,22.8997134 5.5136437,22.9030684 L5.5136437,22.9030684 Z M15.7241358,30.7601593 L18.618939,30.7601593 C19.8020492,30.7601593 20.7645492,29.8227784 20.7645492,28.6705446 C20.7645492,29.8227784 19.8020492,30.7601593 18.618939,30.7601593 L15.7241358,30.7601593 Z M18.618939,30.8943584 L15.7241358,30.8943584 C14.7776201,30.8943584 13.9260453,30.319181 13.5905138,29.4584277 C10.9456713,29.3352329 8.79606496,28.3463195 7.20067126,26.5183931 C5.91173425,25.0419342 5.37226575,23.4315446 5.20015945,22.8076528 L5.1549626,22.6440641 L5.32886024,22.6386961 C5.66893898,22.6283628 6.01756102,22.6335219 6.36452953,22.6535922 L6.46139961,22.6590944 L6.48868307,22.749813 C6.85301378,23.9568 8.43297441,27.9068173 13.4901988,28.2219169 C13.706124,27.205761 14.6555335,26.4467307 15.7241358,26.4467307 L18.618939,26.4467307 C19.8779744,26.4467307 20.9023445,27.4443671 20.9023445,28.6705446 C20.9023445,29.8967221 19.8779744,30.8943584 18.618939,30.8943584 L18.618939,30.8943584 Z" id="Fill-29" fill="#A179C5"></path>
                <path d="M18.3327933,30.0453342 L15.9979902,30.0453342 C15.231435,30.0453342 14.6099783,29.4400961 14.6099783,28.6934121 L14.6099783,28.6934121 C14.6099783,27.9468623 15.231435,27.34149 15.9979902,27.34149 L18.3327933,27.34149 C19.0994862,27.34149 19.7209429,27.9468623 19.7209429,28.6934121 L19.7209429,28.6934121 C19.7209429,29.4400961 19.0994862,30.0453342 18.3327933,30.0453342" id="Fill-31" fill="#D4B1EF"></path>
            </g>
        </g>
    </g>
</svg>