<?xml version="1.0" encoding="UTF-8"?>
<svg width="46px" height="36px" viewBox="0 0 46 36" version="1.1" xmlns="http://www.w3.org/2000/svg" xmlns:xlink="http://www.w3.org/1999/xlink">
    <title>Group 4</title>
    <g id="Page-1" stroke="none" stroke-width="1" fill="none" fill-rule="evenodd">
        <g id="Group-4" fill="#8C8582" fill-rule="nonzero">
            <path d="M41.5654656,0 L4.43453441,0 C3.2583451,0 2.13031177,0.46602994 1.29900503,1.29558013 C0.467249067,2.12514312 0,3.25027913 0,4.42335455 L0,31.5766455 C0,32.7497337 0.467261901,33.8747929 1.29900503,34.7044199 C2.13026043,35.5339829 3.25835793,36 4.43453441,36 L41.5654656,36 C42.7416549,36 43.8696882,35.5339701 44.700995,34.7044199 C45.5327509,33.8748569 46,32.7497209 46,31.5766455 L46,4.42335455 C46,3.25026633 45.5327381,2.12520713 44.700995,1.29558013 C43.8697396,0.466017139 42.7416421,0 41.5654656,0 Z M44.5626364,31.5772855 C44.5626364,32.3703403 44.246786,33.1304199 43.6847652,33.6914838 C43.1227443,34.2520229 42.360219,34.5665413 41.5654913,34.5665413 L4.43456007,34.5665413 C3.63990938,34.5665413 2.87731988,34.2520229 2.31528619,33.6914838 C1.75326533,33.1304455 1.43741497,32.3704299 1.43741497,31.5772855 L1.43741497,4.4239946 C1.43741497,3.6309398 1.75326533,2.87086015 2.31528619,2.30979625 C2.87730705,1.74925719 3.63983237,1.43473883 4.43456007,1.43473883 L41.5654913,1.43473883 C42.360142,1.43473883 43.1227315,1.74925719 43.6847652,2.30979625 C44.246786,2.87083455 44.5626364,3.63085019 44.5626364,4.4239946 L44.5626364,31.5772855 Z" id="Shape"></path>
            <path d="M41.6873957,8.10809658 C41.6873957,10.2422643 39.9526509,11.9719233 37.8128414,11.9719233 C35.6735453,11.9719233 33.9388006,10.2422643 33.9388006,8.10809658 C33.9388006,5.97444085 35.6735453,4.24426981 37.8128414,4.24426981 C39.9526509,4.24426981 41.6873957,5.97444085 41.6873957,8.10809658" id="Path"></path>
            <path d="M42.1763997,27.857341 L33.6162633,21.233894 C33.087831,20.8243672 32.4380718,20.6023483 31.7692145,20.6023483 C31.1004085,20.6023483 30.4501872,20.8243672 29.9221656,21.233894 L27.1692401,23.3845749 L27.1692401,23.3840749 C26.6408078,23.7936016 25.9910486,24.0156206 25.3221913,24.0156206 C24.6528847,24.0156206 24.003164,23.7936016 23.474629,23.3840749 L14.2170524,16.2155651 C13.6891206,15.8065377 13.0388608,15.5845187 12.3700035,15.5845187 C11.7011975,15.5845187 11.0514897,15.8065377 10.5229547,16.2155651 L3.8243704,21.3983977 C3.09639623,21.9584375 2.66523848,22.8190427 2.65269892,23.7355879 L2.65269892,30.1869907 C2.65269892,30.9835529 2.97006378,31.7475496 3.53458742,32.3111737 C4.09961161,32.874209 4.86516593,33.1907371 5.6643858,33.1907371 L40.3297616,33.1907371 C41.1725426,33.1907371 41.9762033,32.8392113 42.5467079,32.2206713 C43.117251,31.6021313 43.4015279,30.7740404 43.3313346,29.9364768 C43.261144,29.0994125 42.8425104,28.3293226 42.1767077,27.8143419 L42.1763997,27.857341 Z" id="Path"></path>
        </g>
    </g>
</svg>