<?xml version="1.0" encoding="UTF-8"?>
<svg width="60px" height="14px" viewBox="0 0 60 14" version="1.1" xmlns="http://www.w3.org/2000/svg" xmlns:xlink="http://www.w3.org/1999/xlink">
    <title>Group 16</title>
    <defs>
        <polygon id="path-1" points="0 0 10.6434641 0 10.6434641 11.4609286 0 11.4609286"></polygon>
        <polygon id="path-3" points="0 0 4.84077746 0 4.84077746 4.77835198 0 4.77835198"></polygon>
    </defs>
    <g id="Page-1" stroke="none" stroke-width="1" fill="none" fill-rule="evenodd">
        <g id="Group-16">
            <g id="Group-3" transform="translate(0.000000, 2.389499)">
                <mask id="mask-2" fill="white">
                    <use xlink:href="#path-1"></use>
                </mask>
                <g id="Clip-2"></g>
                <path d="M10.6434641,10.7596872 L10.6434641,6.68532863 C9.40302816,6.58186431 8.39721169,6.59915849 7.58853645,6.80789173 C5.49219675,7.34867324 4.49415013,8.75311107 4.10428579,9.98581018 C3.92801653,10.5434347 3.87027578,10.9333809 3.87027578,10.9333809 L3.87027578,0 L-3.04700539e-05,0 L-3.04700539e-05,11.4609286 L9.9332071,11.4609286 C10.325509,11.4609286 10.6434641,11.1469264 10.6434641,10.7596872" id="Fill-1" fill="#A775C8" mask="url(#mask-2)"></path>
            </g>
            <path d="M31.4498337,13.1491865 L31.4498337,9.07482794 C30.2093978,8.97136363 29.2035813,8.98865781 28.3949061,9.19739105 C26.2985664,9.73817255 25.3005198,11.1426104 24.9106555,12.3753095 C24.7343862,12.932934 24.6766454,13.3228802 24.6766454,13.3228802 L24.6766454,2.38949932 L20.8063392,2.38949932 L20.8063392,13.8504279 L30.7395768,13.8504279 C31.1318787,13.8504279 31.4498337,13.5364257 31.4498337,13.1491865" id="Fill-4" fill="#A775C8"></path>
            <path d="M44.9928738,13.1491865 L44.9928738,9.07482794 C43.7524379,8.97136363 42.7466214,8.98865781 41.9377939,9.19739105 C39.8414542,9.73817255 38.8435599,11.1426104 38.4536955,12.3753095 C38.2774263,12.932934 38.2196855,13.3228802 38.2196855,13.3228802 L38.2196855,2.38949932 L34.3493793,2.38949932 L34.3493793,13.8504279 L44.2826169,13.8504279 C44.6747665,13.8504279 44.9928738,13.5364257 44.9928738,13.1491865" id="Fill-6" fill="#A775C8"></path>
            <path d="M16.7114382,13.8449389 L13.5384391,13.8503527 L13.549713,7.18652902 L17.4200193,7.18652902 L17.4200193,13.144299 C17.4200193,13.5307863 17.1029784,13.8443373 16.7114382,13.8449389" id="Fill-8" fill="#A775C8"></path>
            <g id="Group-12" transform="translate(46.935355, 2.239506)" fill="#A775C8">
                <path d="M9.1847407,6.17507511 C9.1847407,7.95532301 8.1391608,9.19839862 6.48783623,9.19839862 C4.8339217,9.19839862 3.8986434,7.93712652 3.8986434,5.99521563 C3.8986434,4.04563515 4.84321507,2.7924838 6.51114582,2.7924838 C8.17496311,2.7924838 9.1847407,4.00758796 9.1847407,5.81565693 L9.1847407,6.17507511 Z M9.19510052,2.95865832 L9.12821875,2.95865832 L9.08677948,2.83850136 C8.36479155,0.783351183 6.93925008,0 5.01582792,0 C1.72216745,0 0,2.21154972 0,5.98754604 C0,9.70038101 1.80428424,11.7604939 5.01384737,11.7604939 C6.99942843,11.7604939 8.36296334,11.1924928 9.08007606,9.1140331 L9.12105829,8.9980869 L9.19205351,8.9980869 L9.19098706,11.6108616 L13.0548946,11.6108616 L13.064645,0.149632257 L12.0892986,0.149632257 C10.6626907,0.159707997 9.67302331,1.11359484 9.36893217,2.01860682 C9.19525287,2.53562762 9.19510052,2.95865832 9.19510052,2.95865832 L9.19510052,2.95865832 Z" id="Fill-10"></path>
            </g>
            <g id="Group-15" transform="translate(13.058856, 0.000000)">
                <mask id="mask-4" fill="white">
                    <use xlink:href="#path-3"></use>
                </mask>
                <g id="Clip-14"></g>
                <path d="M2.42038873,-0.000105268925 C1.08580037,-0.000105268925 0,1.07168277 0,2.38919855 C0,3.70641356 1.08580037,4.77835198 2.42038873,4.77835198 C3.75497709,4.77835198 4.84077746,3.70641356 4.84077746,2.38919855 C4.84077746,1.07168277 3.75497709,-0.000105268925 2.42038873,-0.000105268925" id="Fill-13" fill="#A775C8" mask="url(#mask-4)"></path>
            </g>
        </g>
    </g>
</svg>