<?xml version="1.0" encoding="UTF-8"?>
<svg width="14px" height="14px" viewBox="0 0 14 14" version="1.1" xmlns="http://www.w3.org/2000/svg" xmlns:xlink="http://www.w3.org/1999/xlink">
    <title>text-template</title>
    <g id="Page-1" stroke="none" stroke-width="1" fill="none" fill-rule="evenodd">
        <g id="text-template" fill="#EF6354" fill-rule="nonzero">
            <path d="M2.05883002,0 C0.921767611,0 0,0.921763306 0,2.0588204 L0,10.294102 C0,11.4311591 0.921767611,12.3529224 2.05883002,12.3529224 L3.29412803,12.3529224 L3.29412803,13.5882147 C3.29412803,13.7400997 3.37776947,13.879573 3.51161401,13.9512729 C3.64545855,14.0229728 3.80790906,14.0150375 3.93429181,13.9308227 L6.30115221,12.3529427 L11.94117,12.3529427 C13.0782324,12.3529427 14,11.4311794 14,10.2941223 L14,2.0588407 C14,0.9217836 13.0782324,0 11.94117,0 L2.05883002,0 Z M0.823532007,2.0588204 C0.823532007,1.37661556 1.37662199,0.823528161 2.05883002,0.823528161 L11.9412141,0.823528161 C12.6234221,0.823528161 13.1765121,1.37661556 13.1765121,2.0588204 L13.1765121,10.294102 C13.1765121,10.9763069 12.6234221,11.5293943 11.9412141,11.5293943 L6.17649005,11.5293943 C6.09526333,11.5293943 6.01576013,11.5534063 5.94808933,11.5985589 L4.1176718,12.8187923 L4.1176718,11.9411466 C4.1176718,11.8320026 4.07424225,11.7272234 3.99703613,11.6500176 C3.91983,11.5728118 3.81505026,11.5293825 3.7059058,11.5293825 L2.05884178,11.5293825 C1.37663375,11.5293825 0.823532007,10.9762951 0.823532007,10.2940902 L0.823532007,2.0588204 Z M3.29412803,3.29411264 C3.06675966,3.29411264 2.88236202,3.47850942 2.88236202,3.70587672 C2.88236202,3.93324403 3.06675966,4.1176408 3.29412803,4.1176408 L10.7059161,4.1176408 C10.9332845,4.1176408 11.1176821,3.93324403 11.1176821,3.70587672 C11.1176821,3.47850942 10.9332845,3.29411264 10.7059161,3.29411264 L3.29412803,3.29411264 Z M2.88236202,6.17646121 C2.88236202,5.94909391 3.06675966,5.76469713 3.29412803,5.76469713 L10.7059161,5.76469713 C10.9332845,5.76469713 11.1176821,5.94909391 11.1176821,6.17646121 C11.1176821,6.40382851 10.9332845,6.58822529 10.7059161,6.58822529 L3.29412803,6.58822529 C3.06675966,6.58822529 2.88236202,6.40382851 2.88236202,6.17646121 Z M3.29412803,8.23528161 C3.06675966,8.23528161 2.88236202,8.41967839 2.88236202,8.64704569 C2.88236202,8.87441299 3.06675966,9.05880977 3.29412803,9.05880977 L8.23532007,9.05880977 C8.46268843,9.05880977 8.64708607,8.87441299 8.64708607,8.64704569 C8.64708607,8.41967839 8.46268843,8.23528161 8.23532007,8.23528161 L3.29412803,8.23528161 Z" id="Shape"></path>
        </g>
    </g>
</svg>