<?xml version="1.0" encoding="UTF-8"?>
<svg width="39px" height="47px" viewBox="0 0 39 47" version="1.1" xmlns="http://www.w3.org/2000/svg" xmlns:xlink="http://www.w3.org/1999/xlink">
    <title>Group 2</title>
    <defs>
        <path d="M36.8431554,14.4403663 L36.8431554,14.4383673 C35.7868625,10.7041689 34.1527067,7.24183937 30.8973646,4.68307389 C27.8639449,2.30155624 24.5019648,0.451782029 20.433868,0 C13.6436193,0.00932883246 6.85337052,0.0199903553 0.0631217795,0.0306518781 L0.0631217795,9.5020822 C0.107794469,13.7733548 -0.416749365,18.0472927 0.943606071,22.3225634 C2.6397272,27.6491934 10.1934466,33.8993779 16.2098491,34.0075924 L16.2095609,34.0078589 L16.2324736,34.0078589 C20.7086771,34.0887532 25.1873303,34.0763592 29.6664159,34.0573017 L33.4463018,34.0714286 L37.3205768,34.0714286 L37.3205768,18.4649579 C37.3205768,15.9718941 36.8552603,14.4788811 36.8431554,14.4403663" id="path-1"></path>
    </defs>
    <g id="Page-1" stroke="none" stroke-width="1" fill="none" fill-rule="evenodd" opacity="0.971458072">
        <g id="LL21---My-Orders" transform="translate(-231.000000, -339.000000)">
            <g id="card-delivered" transform="translate(8.000000, 144.000000)">
                <g id="Group" transform="translate(16.000000, 184.000000)">
                    <g id="Group-17" transform="translate(259.905652, 16.678316) scale(-1, 1) translate(-259.905652, -16.678316) translate(207.745070, -25.377964)">
                        <g id="Group-16" transform="translate(0.000000, 21.095411)">
                            <g id="Group-2" transform="translate(67.000586, 15.753016)">
                                <g id="Fill-1">
                                    <mask id="mask-2" fill="white">
                                        <use xlink:href="#path-1" transform="translate(18.660288, 17.035714) rotate(-180.000000) translate(-18.660288, -17.035714) "></use>
                                    </mask>
                                    <use id="Mask" fill="#FFD3CD" transform="translate(18.660288, 17.035714) rotate(-180.000000) translate(-18.660288, -17.035714) " xlink:href="#path-1"></use>
                                </g>
                                <path d="M8.85550046,33.1355404 L8.85550046,33.1342031 C9.44794528,30.7484713 10.364435,28.5364761 12.1902345,26.9017461 C13.8915177,25.3801288 15.7770246,24.198407 18.0586599,23.9097744 C21.8669908,23.9156808 25.6752273,23.9224787 29.4835582,23.9292766 L29.4835582,29.9805304 C29.4585227,32.7093895 29.7527139,35.4399202 28.989744,38.1713425 C28.0384879,41.574532 23.8020019,45.5676908 20.4276834,45.6368957 L20.4278723,45.6370072 L20.4150239,45.6370072 C17.9045732,45.6887158 15.3927054,45.6808035 12.8805542,45.668545 L10.7605634,45.6776316 L8.58776188,45.6776316 L8.58776188,35.7068218 C8.58776188,34.114105 8.84869835,33.1601689 8.85550046,33.1355404" id="Fill-6" fill="#E4CBF6"></path>
                                <path d="M26.5402299,33.125 C26.5402299,36.2611629 24.2242377,38.8035714 21.3673683,38.8035714 C18.5103594,38.8035714 16.1943672,36.2611629 16.1943672,33.125 C16.1943672,29.9888371 18.5103594,27.4464286 21.3673683,27.4464286 C24.2242377,27.4464286 26.5402299,29.9888371 26.5402299,33.125" id="Fill-14" fill="#FFFFFF"></path>
                            </g>
                        </g>
                    </g>
                </g>
            </g>
        </g>
    </g>
</svg>