<?xml version="1.0" encoding="UTF-8"?>
<svg width="56px" height="56px" viewBox="0 0 56 56" version="1.1" xmlns="http://www.w3.org/2000/svg" xmlns:xlink="http://www.w3.org/1999/xlink">
    <title>Group 22</title>
    <defs>
        <polygon id="path-1" points="0 0 56 0 56 56 0 56"></polygon>
    </defs>
    <g id="Page-1" stroke="none" stroke-width="1" fill="none" fill-rule="evenodd">
        <g id="Contact-Us---Submitted" transform="translate(-963.000000, -415.000000)">
            <g id="Group-37" transform="translate(229.000000, 235.000000)">
                <g id="Group-20" transform="translate(678.000000, 0.000000)">
                    <g id="Group-22" transform="translate(56.000000, 180.000000)">
                        <g id="Group-3">
                            <mask id="mask-2" fill="white">
                                <use xlink:href="#path-1"></use>
                            </mask>
                            <g id="Clip-2"></g>
                            <path d="M44.6870882,56 L-3.06060435e-05,56 L-3.06060435e-05,11.3129056 C-3.06060435e-05,5.06499135 5.06496351,0 11.3128812,0 L56,0 L56,44.6870944 C56,50.9350086 50.9350059,56 44.6870882,56" id="Fill-1" fill="#FFF0E5" mask="url(#mask-2)"></path>
                        </g>
                        <g id="Components/Icons/email-address/24px" transform="translate(9.333333, 9.333333)">
                            <rect id="Rectangle" x="0" y="0" width="37.3333333" height="37.3333333"></rect>
                            <circle id="Oval" fill="#F1AA78" cx="18.5" cy="18.5" r="15.5"></circle>
                            <g id="whatsapp" transform="translate(10.000000, 9.000000)" fill="#FFFFFF" fill-rule="nonzero">
                                <path d="M15.3040179,3.115625 C13.6205357,1.428125 11.3785714,0.5 8.99598214,0.5 C4.078125,0.5 0.0763392857,4.50178571 0.0763392857,9.41964286 C0.0763392857,10.990625 0.486160714,12.5254464 1.265625,13.8794643 L0,18.5 L4.72901786,17.2584821 C6.03080357,17.9696429 7.49732143,18.3433036 8.99196429,18.3433036 L8.99598214,18.3433036 C13.9098214,18.3433036 18,14.3415179 18,9.42366071 C18,7.04107143 16.9875,4.803125 15.3040179,3.115625 Z M8.99598214,16.840625 C7.66205357,16.840625 6.35625,16.4830357 5.21919643,15.8080357 L4.95,15.6473214 L2.14553571,16.3825893 L2.89285714,13.6464286 L2.71607143,13.3651786 C1.97276786,12.1839286 1.58303571,10.821875 1.58303571,9.41964286 C1.58303571,5.33348214 4.90982143,2.00669643 9,2.00669643 C10.9808036,2.00669643 12.8410714,2.778125 14.2392857,4.18035714 C15.6375,5.58258929 16.4973214,7.44285714 16.4933176,9.42366071 C16.4933176,13.5138393 13.0821429,16.840625 8.99598214,16.840625 Z M13.0620536,11.2879464 C12.8410714,11.1754464 11.7441964,10.6370536 11.5392857,10.5647321 C11.334375,10.4883929 11.1857143,10.4522321 11.0370536,10.6772321 C10.8883929,10.9022321 10.4625,11.4004464 10.3299107,11.553125 C10.2013393,11.7017857 10.06875,11.721875 9.84776786,11.609375 C8.53794643,10.9544643 7.678125,10.4401786 6.81428571,8.95758929 C6.58526786,8.56383929 7.04330357,8.59196429 7.46919643,7.74017857 C7.54151786,7.59151786 7.50535714,7.46294643 7.44910714,7.35044643 C7.39285714,7.23794643 6.946875,6.14107143 6.76205357,5.69508929 C6.58125,5.26116071 6.39642857,5.32142857 6.25982143,5.31339286 C6.13125,5.30535714 5.98258929,5.30535714 5.83392857,5.30535714 C5.68526786,5.30535714 5.44419643,5.36160714 5.23928571,5.58258929 C5.034375,5.80758929 4.45982143,6.34598214 4.45982143,7.44285714 C4.45982143,8.53973214 5.259375,9.60044643 5.36785714,9.74910714 C5.48035714,9.89776786 6.93883929,12.1477679 9.17678571,13.1160714 C10.5910714,13.7267857 11.1455357,13.7790179 11.8526786,13.6745536 C12.2825893,13.6102679 13.1705357,13.1361607 13.3553571,12.6138393 C13.5401786,12.0915179 13.5401786,11.6455357 13.4839286,11.553125 C13.4316964,11.4526786 13.2830357,11.3964286 13.0620536,11.2879464 Z" id="Shape"></path>
                            </g>
                        </g>
                    </g>
                </g>
            </g>
        </g>
    </g>
</svg>