<?xml version="1.0" encoding="UTF-8"?>
<svg width="56px" height="56px" viewBox="0 0 56 56" version="1.1" xmlns="http://www.w3.org/2000/svg" xmlns:xlink="http://www.w3.org/1999/xlink">
    <title>Group 22</title>
    <defs>
        <polygon id="path-1" points="0 0 56 0 56 56 0 56"></polygon>
    </defs>
    <g id="Page-1" stroke="none" stroke-width="1" fill="none" fill-rule="evenodd">
        <g id="Contact-Us---Submitted" transform="translate(-963.000000, -339.000000)">
            <g id="Group-37" transform="translate(229.000000, 235.000000)">
                <g id="Group-20" transform="translate(678.000000, 0.000000)">
                    <g id="Group-22" transform="translate(56.000000, 104.000000)">
                        <g id="Group-3">
                            <mask id="mask-2" fill="white">
                                <use xlink:href="#path-1"></use>
                            </mask>
                            <g id="Clip-2"></g>
                            <path d="M44.6870882,56 L-3.06060435e-05,56 L-3.06060435e-05,11.3129056 C-3.06060435e-05,5.06499135 5.06496351,0 11.3128812,0 L56,0 L56,44.6870944 C56,50.9350086 50.9350059,56 44.6870882,56" id="Fill-1" fill="#FFF0E5" mask="url(#mask-2)"></path>
                        </g>
                        <g id="Components/Icons/email-address/24px" transform="translate(9.333333, 9.333333)">
                            <rect id="Rectangle" x="0" y="0" width="37.3333333" height="37.3333333"></rect>
                            <g id="email-(2)" transform="translate(3.111111, 3.111111)" fill="#F1AA78" fill-rule="nonzero">
                                <polygon id="Path" points="21.8315972 10 9.27951389 10 15.5555556 15.3795031"></polygon>
                                <path d="M15.5555556,16.6666667 C15.4229058,16.6666667 15.2945964,16.6191949 15.1939562,16.5326606 L8.33333333,10.6521267 L8.33333333,21.1111111 L22.7777778,21.1111111 L22.7777778,10.6521267 L15.9171549,16.5326606 C15.8165147,16.6191949 15.6882053,16.6666667 15.5555556,16.6666667 Z" id="Path"></path>
                                <path d="M15.5555556,0 C6.96451819,0 0,6.96451819 0,15.5555556 C0,24.1465929 6.96451819,31.1111111 15.5555556,31.1111111 C24.1465929,31.1111111 31.1111111,24.1465929 31.1111111,15.5555556 C31.1013455,6.96858722 24.1425239,0.009765625 15.5555556,0 Z M23.8888889,21.6666667 C23.8888889,21.9734701 23.6401367,22.2222222 23.3333333,22.2222222 L7.77777778,22.2222222 C7.47097437,22.2222222 7.22222222,21.9734701 7.22222222,21.6666667 L7.22222222,9.44444444 C7.22222222,9.13764104 7.47097437,8.88888889 7.77777778,8.88888889 L23.3333333,8.88888889 C23.6401367,8.88888889 23.8888889,9.13764104 23.8888889,9.44444444 L23.8888889,21.6666667 Z" id="Shape"></path>
                            </g>
                        </g>
                    </g>
                </g>
            </g>
        </g>
    </g>
</svg>