<?xml version="1.0" encoding="UTF-8"?>
<svg width="23px" height="16px" viewBox="0 0 23 16" version="1.1" xmlns="http://www.w3.org/2000/svg" xmlns:xlink="http://www.w3.org/1999/xlink">
    <!-- Generator: Sketch 60.1 (88133) - https://sketch.com -->
    <title>Fill 1</title>
    <desc>Created with Sketch.</desc>
    <defs>
        <polygon id="path-1" points="0.0137652178 0.0120591509 20.8327592 0.0120591509 20.8327592 14.3296703 0.0137652178 14.3296703"></polygon>
    </defs>
    <g id="Fill-1" stroke="none" stroke-width="1" fill="none" fill-rule="evenodd">
        <g>
            <polygon fill="#D4B1EF" points="0.0482637363 -3.28626015e-14 -1.01785247e-12 13.3665934 19.8915165 13.4384176 19.9397802 0.0718241758"></polygon>
            <polygon id="Fill-2" fill="#A179C5" points="22.1031473 15.5474989 2.21163077 15.4756747 2.25989451 2.10899341 22.151411 2.18090549"></polygon>
            <g id="Group-14" transform="translate(1.758242, 1.657415)">
                <g id="Group-5">
                    <mask id="mask-2" fill="white">
                        <use xlink:href="#path-1"></use>
                    </mask>
                    <g id="Clip-4"></g>
                    <path d="M0.939569231,0.892764835 L0.894558242,13.3803253 L19.9069538,13.4489846 L19.9520527,0.961424176 L0.939569231,0.892764835 Z M0.0945582418,14.0721934 C0.0419868132,13.9979077 0.0135032967,13.9087648 0.0137652178,13.816633 L0.0620307692,0.45003956 C0.0629098901,0.207226374 0.260448352,0.0112703297 0.503173626,0.0120591509 L20.394778,0.0838857143 C20.5113495,0.0843252747 20.6229978,0.131006593 20.7051077,0.213731868 C20.7872176,0.296281319 20.8331956,0.408457143 20.8327592,0.525116484 L20.7844923,13.8917099 C20.7836132,14.1344352 20.5860747,14.3304791 20.3433495,14.3296903 L0.451745055,14.2578637 C0.335173626,14.2573363 0.223525275,14.2106549 0.141415385,14.1279297 C0.124184615,14.110611 0.108536264,14.0918857 0.0945582418,14.0721934 L0.0945582418,14.0721934 Z" id="Fill-3" fill="#A179C5" mask="url(#mask-2)"></path>
                </g>
                <path d="M15.8071742,7.19029451 C15.7964132,10.1637451 13.3772484,12.5655033 10.4037978,12.5547265 C7.43034725,12.5439648 5.02867692,10.1248 5.03936641,7.15143736 C5.05012747,4.17798681 7.46929231,1.77622857 10.4427429,1.78691806 C13.4161055,1.79767912 15.8178637,4.21684396 15.8071742,7.19029451" id="Fill-6" fill="#FFFFFF"></path>
                <path d="M14.3742154,4.38767473 C14.2192264,4.16868571 14.0448967,3.96103736 13.8520176,3.76675165 C12.9427429,2.85088352 11.7313143,2.34398242 10.4407648,2.33928947 C9.15012747,2.33457582 7.93500659,2.83286154 7.01913846,3.74204835 C6.10327033,4.65132308 5.59636923,5.86283956 5.59158959,7.1533011 C5.58696264,8.44385055 6.08516044,9.65861978 6.99452308,10.5750154 C7.9037978,11.4908835 9.11522637,11.9976967 10.4057758,12.0023897 C11.6964132,12.0071033 12.9115341,11.5089055 13.8274022,10.5997187 C14.7432703,9.69035604 15.2501714,8.47892747 15.2548635,7.18837802 C15.2585231,6.1714989 14.9500396,5.20138901 14.3742154,4.38767473 M5.56902857,10.5903121 C4.86151209,9.5904 4.48252308,8.39883956 4.48696727,7.14934505 C4.49280879,5.56385055 5.11566593,4.07532308 6.24094066,2.95822418 C7.36612747,1.84103736 8.85913846,1.22899341 10.4447209,1.23466804 C12.0303033,1.24042198 13.5187429,1.86327912 14.6358418,2.98846593 C15.7532923,4.11382857 16.3652484,5.60675165 16.359487,7.19233407 C16.3537319,8.77791648 15.7308747,10.266444 14.6056,11.3835429 C13.4804132,12.5007297 11.9874022,13.1127736 10.4018198,13.1070123 C8.81623736,13.1012571 7.3277978,12.4784 6.21061099,11.3532132 C5.97377582,11.1146198 5.75935824,10.8593231 5.56902857,10.5903121" id="Fill-8" fill="#A179C5"></path>
                <path d="M9.09105934,7.05859633 C9.36701538,7.05956044 9.60754286,6.82087912 9.60860073,6.52918681 C9.60956484,6.25323077 9.3707956,6.02316484 9.09483956,6.0221978 L8.24587253,6.01912088 L8.24209231,7.05551648 L9.09105934,7.05859633 Z M7.56543297,5.49059341 C7.5656967,5.43854945 7.60754286,5.39178022 7.66477363,5.39204285 L9.15435604,5.39740659 C9.77932308,5.39969231 10.2878945,5.90149451 10.2856165,6.52127473 C10.2838505,7.0003956 9.96481758,7.38984615 9.51101538,7.57050549 L10.2197626,8.89595604 C10.2559824,8.96373626 10.2192352,9.04698901 10.1307077,9.04663847 L9.58380659,9.0447033 C9.53694945,9.04452747 9.51101538,9.01841758 9.50064176,8.99749451 L8.81299341,7.6149011 L8.23488352,7.61279121 L8.23004835,8.94087912 C8.22987253,8.99292308 8.18283956,9.0396044 8.1307956,9.03942857 L7.65158681,9.03767033 C7.59435604,9.03749451 7.55286154,8.99046154 7.55303681,8.93841758 L7.56543297,5.49059341 Z" id="Fill-10" fill="#A179C5"></path>
                <path d="M12.4292747,7.09669806 C12.7208791,7.09774945 12.9457582,6.86416703 12.9468169,6.55691429 C12.9478681,6.2704967 12.7246593,6.05089231 12.4330549,6.04983736 L11.8080879,6.04755165 L11.8043077,7.09440879 L12.4292747,7.09669806 Z M11.133011,5.50346374 C11.1331868,5.45141978 11.175033,5.40473846 11.2322637,5.40491379 L12.4561758,5.40930989 C13.0967912,5.41168352 13.621011,5.93440879 13.6187327,6.56456264 C13.6163516,7.21036484 13.0884396,7.7344967 12.4530989,7.73221099 L11.802022,7.72983736 L11.7976264,8.95374945 C11.7973626,9.00579341 11.7504176,9.05247473 11.6982857,9.0522994 L11.2190769,9.05062857 C11.1618462,9.05036484 11.1203516,9.00333187 11.1205269,8.95128791 L11.133011,5.50346374 Z" id="Fill-12" fill="#A179C5"></path>
            </g>
        </g>
    </g>
</svg>