<?xml version="1.0" encoding="UTF-8"?>
<svg width="41px" height="34px" viewBox="0 0 41 34" version="1.1" xmlns="http://www.w3.org/2000/svg" xmlns:xlink="http://www.w3.org/1999/xlink">
    <!-- Generator: Sketch 60.1 (88133) - https://sketch.com -->
    <title>Group 36</title>
    <desc>Created with Sketch.</desc>
    <g id="Page-1" stroke="none" stroke-width="1" fill="none" fill-rule="evenodd">
        <g id="Promotion---popup-lilla-voucher" transform="translate(-384.000000, -267.000000)">
            <g id="Group-35" transform="translate(353.000000, 230.000000)">
                <g id="Group-2-Copy" transform="translate(25.000000, 37.000000)">
                    <g id="Group-36" transform="translate(6.000000, 0.000000)">
                        <path d="M8.36205722,1.17538147 L6.36818801,7.54935967 C8.04257493,8.07320163 8.97540872,9.85521798 8.45156676,11.5296049 C7.92786104,13.2041281 6.14570845,14.1369619 4.47132153,13.6131199 L2.47745232,19.9870981 L30.7521117,28.831921 L36.6367166,10.0202044 L8.36205722,1.17538147 Z" id="Fill-4" fill="#FFEBDE"></path>
                        <path d="M3.33094005,19.5402861 L30.305327,27.9784332 L35.7831199,10.4669891 L8.80886921,2.02884196 L7.2036921,7.16004087 C8.82862398,8.00649864 9.66745232,9.92461853 9.10178474,11.7330654 C8.53598093,13.5415123 6.75328338,14.6397411 4.93598093,14.4090872 L3.33094005,19.5402861 Z M30.7520572,29.5130381 C30.6838011,29.5130381 30.6152725,29.5028202 30.5486512,29.4819755 L2.27399183,20.6371526 C1.915,20.524891 1.715,20.1427384 1.82739782,19.7837466 L3.82126703,13.4097684 C3.93352861,13.0507766 4.31581744,12.8509128 4.67467302,12.9630381 C5.9876158,13.3742098 7.39047684,12.6396049 7.80151226,11.3262534 C8.2122752,10.0130381 7.47807902,8.61031335 6.16472752,8.19955041 C5.99224796,8.14559946 5.84851499,8.02529973 5.76459128,7.86535422 C5.68080381,7.70527248 5.66404632,7.51848774 5.71799728,7.34600817 L7.71200272,0.972029973 C7.82426431,0.613038147 8.20641689,0.413174387 8.56554496,0.525299728 L36.8400681,9.37012262 C37.1990599,9.4823842 37.3991962,9.86453678 37.2866621,10.2235286 L31.4023297,29.0352452 C31.3482425,29.2075886 31.228079,29.351594 31.0679973,29.4353815 C30.9696322,29.4868801 30.861049,29.5130381 30.7520572,29.5130381 L30.7520572,29.5130381 Z" id="Fill-6" fill="#A179C5"></path>
                        <path d="M22.0180109,11.8409401 C21.857248,11.8409401 21.6978474,11.8797684 21.5513896,11.9564714 C21.3125613,12.0815395 21.136812,12.2918937 21.0564305,12.5491144 C20.976049,12.8063351 21.000436,13.0793597 21.1253678,13.3180518 C21.2502997,13.5568801 21.4607902,13.7326294 21.7180109,13.8131471 C21.9750954,13.8933924 22.2481199,13.8690054 22.4869482,13.7440736 C22.7257766,13.6191417 22.9015259,13.4086512 22.9819074,13.1514305 C23.1479837,12.6205041 22.8512534,12.0534741 22.3204632,11.8873978 C22.2210082,11.8563351 22.1192371,11.8409401 22.0180109,11.8409401 M22.0219619,15.2226839 C21.7840872,15.2226839 21.5448501,15.1864441 21.3113351,15.1134196 C20.7068392,14.9241826 20.2121526,14.5111035 19.9184196,13.9499319 C19.6246866,13.3887602 19.5670572,12.7467984 19.756158,12.1423025 C19.9451226,11.5378065 20.3583379,11.0432561 20.9195095,10.7495232 C21.4808174,10.4557902 22.1226431,10.3981608 22.7270027,10.5871253 C23.9748229,10.9774523 24.6725068,12.3102861 24.2823161,13.5581063 C24.0932153,14.1627384 23.68,14.6572888 23.1188283,14.951158 C22.7746866,15.131267 22.399891,15.2226839 22.0219619,15.2226839" id="Fill-8" fill="#A775C8"></path>
                        <polygon id="Fill-10" fill="#FFFFFF" points="19.5060899 19.889455 18.7035014 18.7885014 27.5067711 12.3710627 28.3092234 13.4720163"></polygon>
                        <path d="M25.1318256,18.4443733 C24.7022616,18.4443733 24.303079,18.7210763 24.1682016,19.152139 C24.0022616,19.6829292 24.2991281,20.2499591 24.8299183,20.4161717 C25.3605722,20.582248 25.9277384,20.285109 26.093951,19.754455 C26.259891,19.2236649 25.9631608,18.6566349 25.4322343,18.4904223 C25.3325068,18.4592234 25.2312807,18.4443733 25.1318256,18.4443733 M25.1295095,21.8247548 C24.8957221,21.8247548 24.6578474,21.7898774 24.4232425,21.7164441 C23.1754223,21.3259809 22.4777384,19.9932834 22.8679292,18.745327 C23.2582561,17.4975068 24.5908174,16.7996866 25.8389101,17.1901499 C27.0868665,17.5806131 27.7845504,18.9133106 27.3942234,20.161267 C27.3942234,20.161267 27.3940872,20.161267 27.3940872,20.161267 C27.0771935,21.174346 26.1390463,21.8247548 25.1295095,21.8247548" id="Fill-12" fill="#FFFFFF"></path>
                        <path d="M16.0273569,3.57322888 L8.36209809,1.17540872 L6.36822888,7.54938692 C8.0426158,8.07322888 8.97544959,9.85524523 8.45160763,11.5296322 C7.92776567,13.2041553 6.14574932,14.1368529 4.4713624,13.6131471 L2.47749319,19.9869891 L10.142752,22.3849455 L16.0273569,3.57322888 Z" id="Fill-14" fill="#D4B1EF"></path>
                        <path d="M3.33094005,19.5402861 L9.69606267,21.5314305 L15.1738556,4.01998638 L8.80886921,2.02884196 L7.20382834,7.15949591 C7.89919619,7.52012262 8.46690736,8.08361035 8.83775204,8.79205722 C9.3156812,9.70513624 9.40941417,10.7495504 9.10178474,11.7330654 C8.53611717,13.5415123 6.75287466,14.6396049 4.93598093,14.4090872 L3.33094005,19.5402861 Z M10.5895232,23.2383787 L1.62399183,20.4338828 L4.02453678,12.7596322 L4.67453678,12.9630381 C5.98720708,13.3735286 7.39074932,12.6396049 7.80151226,11.3262534 C8.00042234,10.6901499 7.93979564,10.0145368 7.63080381,9.42393733 C7.32167575,8.83333787 6.8009673,8.39859673 6.16472752,8.19955041 L5.51459128,7.99614441 L7.91527248,0.321893733 L16.8808038,3.12638965 L10.5895232,23.2383787 Z" id="Fill-16" fill="#A179C5"></path>
                        <path d="M1.21901907,13.1059809 L1.21901907,19.7845913 C2.97351499,19.7845913 4.39572207,21.2067984 4.39572207,22.9612943 C4.39572207,24.7157902 2.97351499,26.1379973 1.21901907,26.1379973 L1.21901907,32.8166076 L30.8447684,32.8166076 L30.8447684,13.1059809 L1.21901907,13.1059809 Z" id="Fill-18" fill="#FFEBDE"></path>
                        <path d="M1.90014986,32.1354087 L30.1635014,32.1354087 L30.1635014,13.7871798 L1.90014986,13.7871798 L1.90014986,19.1636104 C3.70355586,19.4862262 5.07685286,21.0664714 5.07685286,22.9612943 C5.07685286,24.8561172 3.70355586,26.4363624 1.90014986,26.7591144 L1.90014986,32.1354087 Z M30.8447003,33.4978065 L1.21895095,33.4978065 C0.842656676,33.4978065 0.537752044,33.1927657 0.537752044,32.8166076 L0.537752044,26.1379973 C0.537752044,25.7618392 0.842656676,25.4567984 1.21895095,25.4567984 C2.59510899,25.4567984 3.71445504,24.3373161 3.71445504,22.9612943 C3.71445504,21.5852725 2.59510899,20.4657902 1.21895095,20.4657902 C0.842656676,20.4657902 0.537752044,20.1607493 0.537752044,19.7845913 L0.537752044,13.1059809 C0.537752044,12.7298229 0.842656676,12.424782 1.21895095,12.424782 L30.8447003,12.424782 C31.2209946,12.424782 31.5258992,12.7298229 31.5258992,13.1059809 L31.5258992,32.8166076 C31.5258992,33.1927657 31.2209946,33.4978065 30.8447003,33.4978065 L30.8447003,33.4978065 Z" id="Fill-20" fill="#A179C5"></path>
                        <path d="M17.7388283,19.1622207 C17.1825613,19.1622207 16.730109,19.6148093 16.730109,20.1710763 C16.730109,20.7273433 17.1825613,21.1799319 17.7388283,21.1799319 C18.2950954,21.1799319 18.7476839,20.7273433 18.7476839,20.1710763 C18.7476839,19.6148093 18.2950954,19.1622207 17.7388283,19.1622207 M17.7388283,22.5423297 C16.4313351,22.5423297 15.3677112,21.4785695 15.3677112,20.1710763 C15.3677112,18.8635831 16.4313351,17.7998229 17.7388283,17.7998229 C19.0464578,17.7998229 20.1100817,18.8635831 20.1100817,20.1710763 C20.1100817,21.4785695 19.0464578,22.5423297 17.7388283,22.5423297" id="Fill-22" fill="#A775C8"></path>
                        <polygon id="Fill-24" fill="#A775C8" points="17.4420027 27.6394278 16.3473161 26.8283924 22.8330109 18.0755313 23.9276975 18.8865668"></polygon>
                        <path d="M22.6801771,24.5351226 C22.1239101,24.5351226 21.6714578,24.9877112 21.6714578,25.543842 C21.6714578,26.100109 22.1239101,26.5526975 22.6801771,26.5526975 C23.2364441,26.5526975 23.6888965,26.100109 23.6888965,25.543842 C23.6888965,24.9877112 23.2364441,24.5351226 22.6801771,24.5351226 M22.6801771,27.9150954 C21.3726839,27.9150954 20.3090599,26.8513351 20.3090599,25.543842 C20.3090599,24.236485 21.3726839,23.1727248 22.6801771,23.1727248 C23.9876703,23.1727248 25.0512943,24.236485 25.0512943,25.543842 C25.0512943,26.8513351 23.9876703,27.9150954 22.6801771,27.9150954" id="Fill-26" fill="#A775C8"></path>
                        <path d="M9.25061308,13.1059946 L1.21900545,13.1059946 L1.21900545,19.7846049 C2.97350136,19.7846049 4.39570845,21.206812 4.39570845,22.9613079 C4.39570845,24.7158038 2.97350136,26.1380109 1.21900545,26.1380109 L1.21900545,32.8166213 L9.25061308,32.8166213 L9.25061308,13.1059946 Z" id="Fill-28" fill="#D4B1EF"></path>
                        <path d="M1.9002861,32.1353406 L8.56935967,32.1353406 L8.56935967,13.787248 L1.9002861,13.787248 L1.9002861,19.1635422 C3.7036921,19.4862943 5.07685286,21.0664033 5.07685286,22.9613624 C5.07685286,24.8561853 3.7036921,26.4362943 1.9002861,26.7590463 L1.9002861,32.1353406 Z M9.93175749,33.4977384 L0.537888283,33.4977384 L0.537888283,25.4568665 L1.21908719,25.4568665 C2.59510899,25.4568665 3.71445504,24.3373842 3.71445504,22.9613624 C3.71445504,21.5852044 2.59510899,20.4657221 1.21908719,20.4657221 L0.537888283,20.4657221 L0.537888283,12.4248501 L9.93175749,12.4248501 L9.93175749,33.4977384 Z" id="Fill-30" fill="#A179C5"></path>
                        <path d="M40.0747411,27.6519346 C36.2066213,28.227139 35.7402725,28.6933515 35.1652044,32.5614714 C34.59,28.6933515 34.1236512,28.227139 30.2555313,27.6519346 C34.1236512,27.0767302 34.59,26.6105177 35.1652044,22.7423978 C35.7402725,26.6105177 36.2066213,27.0767302 40.0747411,27.6519346" id="Fill-32" fill="#FFFFFF"></path>
                        <path d="M33.2568665,27.6519346 C34.2090463,28.0421253 34.7749864,28.6079292 35.1651771,29.5602452 C35.5553678,28.6079292 36.1210354,28.0421253 37.0734877,27.6519346 C36.1210354,27.2617439 35.5553678,26.6959401 35.1651771,25.743624 C34.7749864,26.6959401 34.2090463,27.2617439 33.2568665,27.6519346 M35.1651771,33.2428065 C34.8275749,33.2428065 34.5410627,32.9956676 34.4914714,32.6617439 C33.9616349,29.0986649 33.7184469,28.8554768 30.1553678,28.3257766 C29.8215804,28.276049 29.5744414,27.9895368 29.5744414,27.6519346 C29.5744414,27.3143324 29.8215804,27.0278202 30.1553678,26.9780926 C33.7184469,26.4483924 33.9616349,26.2052044 34.4914714,22.6421253 C34.5410627,22.3082016 34.8275749,22.0610627 35.1651771,22.0610627 C35.5026431,22.0610627 35.7892916,22.3082016 35.8388828,22.6421253 C36.3687193,26.2052044 36.6119074,26.4483924 40.1748501,26.9780926 C40.5087738,27.0278202 40.7559128,27.3143324 40.7559128,27.6519346 C40.7559128,27.9895368 40.5087738,28.276049 40.1748501,28.3257766 C36.6119074,28.8554768 36.3687193,29.0986649 35.8388828,32.6617439 C35.7892916,32.9956676 35.5026431,33.2428065 35.1651771,33.2428065" id="Fill-34" fill="#A179C5"></path>
                    </g>
                </g>
            </g>
        </g>
    </g>
</svg>