<?xml version="1.0" encoding="UTF-8"?>
<svg width="31px" height="41px" viewBox="0 0 31 41" version="1.1" xmlns="http://www.w3.org/2000/svg" xmlns:xlink="http://www.w3.org/1999/xlink">
    <!-- Generator: Sketch 60.1 (88133) - https://sketch.com -->
    <title>Group 20</title>
    <desc>Created with Sketch.</desc>
    <g id="Page-1" stroke="none" stroke-width="1" fill="none" fill-rule="evenodd">
        <g id="Promotion" transform="translate(-704.000000, -1649.000000)">
            <g id="Group-20" transform="translate(704.511349, 1649.151873)">
                <path d="M30.013999,24 C30.013999,32.8373826 23.2948085,40 15.0073101,40 C11.476909,40 8.23097727,38.700716 5.66888995,36.5253094 L2.83040774,33.3532552 C1.0490583,30.7229005 -8.17124146e-13,27.4925707 -8.17124146e-13,24 L30.013999,24 Z" id="Fill-1" fill="#D5BBE9"></path>
                <path d="M27.8222435,11 C27.8222435,18.1803733 22.0726414,24 14.9810403,24 C11.9600809,24 9.18254156,22.9443318 6.99016694,21.1768139 L4.5612816,18.5995199 C3.03698331,16.4623567 2.13930556,13.8377137 2.13930556,11 L27.8222435,11 Z" id="Fill-4" fill="#EDDDF5"></path>
                <path d="M25.3569403,0 C25.3569403,6.07570051 20.622118,11 14.7821538,11 C12.2943807,11 10.007065,10.1067423 8.20163499,8.6111502 L6.20143739,6.43036298 C4.94617115,4.62199412 4.20692963,2.40114234 4.20692963,0 L25.3569403,0 Z" id="Fill-7" fill="#F7EFFF"></path>
            </g>
        </g>
    </g>
</svg>