<?xml version="1.0" encoding="UTF-8"?>
<svg width="63px" height="63px" viewBox="0 0 63 63" version="1.1" xmlns="http://www.w3.org/2000/svg" xmlns:xlink="http://www.w3.org/1999/xlink">
    <title>Slice</title>
    <defs>
        <path d="M76.543254,27.8925756 L76.543254,27.8888206 C74.3640453,20.8744773 70.9926638,14.3708143 64.2766578,9.56441207 C58.0184938,5.09095332 51.0824858,1.61632504 42.6897081,0.767694646 C28.6809342,0.785217988 14.6721603,0.805244664 0.663386423,0.82527134 L0.663386423,18.6164696 C0.755549409,26.6396567 -0.326622428,34.6678504 2.47988915,42.6985475 C5.97910962,52.7041251 21.5629787,64.4445136 33.9752518,64.6477843 L33.9746572,64.648285 L34.0219279,64.648285 C43.2566591,64.8002374 52.4964444,64.7769564 61.7371216,64.7411587 L69.5352994,64.7676946 L77.5282087,64.7676946 L77.5282087,35.4523954 C77.5282087,30.7694076 76.5682272,27.9649219 76.543254,27.8925756" id="path-1"></path>
    </defs>
    <g id="Page-1" stroke="none" stroke-width="1" fill="none" fill-rule="evenodd">
        <g id="Group" transform="translate(-1.000000, -40.000000)">
            <g id="Group-2" opacity="0.971458072">
                <g id="Group-17" transform="translate(118.500000, 79.500000) scale(-1, 1) translate(-118.500000, -79.500000) ">
                    <g id="Group-16" transform="translate(0.000000, 26.907675)">
                        <g id="Fill-1" transform="translate(158.693890, 0.256488)">
                            <mask id="mask-2" fill="white">
                                <use xlink:href="#path-1"></use>
                            </mask>
                            <use id="Mask" fill-opacity="0.6" fill="#EEDDFF" transform="translate(39.030685, 32.767695) rotate(-180.000000) translate(-39.030685, -32.767695) " xlink:href="#path-1"></use>
                        </g>
                    </g>
                </g>
            </g>
            <path d="M24.4024597,85.7147554 L24.4024597,85.7129124 C25.2930119,82.4249472 26.6706625,79.3764223 29.4151707,77.123472 C31.9725083,75.0264113 34.8067676,73.3977873 38.2364799,73 C43.961093,73.00814 49.6855641,73.0175088 55.4101772,73.0268775 L55.4101772,81.3665874 C55.3725442,85.1274432 55.8147671,88.8906029 54.6678847,92.6549913 C53.237974,97.3451949 46.8697662,102.848482 41.7975525,102.943859 L41.7978365,102.944012 L41.778523,102.944012 C38.0048596,103.015276 34.2290661,103.004372 30.4528465,102.987477 L27.2661154,103 L24,103 L24,89.2584409 C24,87.0633925 24.3922349,85.7486979 24.4024597,85.7147554" id="Fill-6" fill="#ECDCFB" transform="translate(39.731707, 88.000000) scale(-1, 1) translate(-39.731707, -88.000000) "></path>
            <path d="M45.6310976,85.804878 C45.6310976,90.0480069 42.191346,93.4878049 37.9482743,93.4878049 C33.7049955,93.4878049 30.2652439,90.0480069 30.2652439,85.804878 C30.2652439,81.5617492 33.7049955,78.1219512 37.9482743,78.1219512 C42.191346,78.1219512 45.6310976,81.5617492 45.6310976,85.804878" id="Fill-14" fill="#F6ECFF" transform="translate(37.948171, 85.804878) scale(-1, 1) translate(-37.948171, -85.804878) "></path>
        </g>
    </g>
</svg>