<?xml version="1.0" encoding="UTF-8"?>
<svg width="11px" height="8px" viewBox="0 0 11 8" version="1.1" xmlns="http://www.w3.org/2000/svg" xmlns:xlink="http://www.w3.org/1999/xlink">
    <title>Arrow_Simple_left</title>
    <g id="Symbols" stroke="none" stroke-width="1" fill="none" fill-rule="evenodd">
        <g id="Components-/-Header-/-Before-Login" transform="translate(-300.000000, -20.000000)">
            <g id="main-header" transform="translate(0.000000, 0.000000)">
                <g id="Components/Header/item/shop-for" transform="translate(201.000000, 14.000000)">
                    <g id="Arrow_Simple_left" transform="translate(104.500000, 10.000000) rotate(-90.000000) translate(-104.500000, -10.000000) translate(101.000000, 4.500000)">
                        <path d="M5.26285714,9.98666667 C5.41295734,10.1265315 5.64686208,10.1224045 5.79193488,9.97733171 C5.93700768,9.83225891 5.94113466,9.59835416 5.80126984,9.44825397 L1.73777778,5.3847619 L5.80126984,1.46349206 C5.94113466,1.31339187 5.93700768,1.07948713 5.79193488,0.934414324 C5.64686208,0.789341523 5.41295734,0.785214547 5.26285714,0.925079365 L0.732063492,5.3847619 L5.26285714,9.98666667 Z" id="Shape" fill="#000000"></path>
                        <path d="M4.99016823,0.632434945 L0.451466731,5.09969094 C0.29401267,5.25467374 0.292024884,5.5079588 0.447027085,5.66539378 L4.97782074,10.2672985 C5.29787362,10.566034 5.77737835,10.5575737 6.07477759,10.2601744 L6.1727461,10.1408047 C6.36967967,9.84558336 6.34479678,9.44480728 6.09391426,9.17556505 L2.3072,5.3888 L6.07903059,1.75132703 C6.38063714,1.42847558 6.37217684,0.948970854 6.07477759,0.651571612 C5.77737835,0.35417237 5.29787362,0.345712068 4.99016823,0.632434945 Z" id="Shape" fill="#25182E" fill-rule="nonzero"></path>
                    </g>
                </g>
            </g>
        </g>
    </g>
</svg>