<?xml version="1.0" encoding="UTF-8"?>
<svg width="40px" height="41px" viewBox="0 0 40 41" version="1.1" xmlns="http://www.w3.org/2000/svg" xmlns:xlink="http://www.w3.org/1999/xlink">
    <title>icon-mom-40</title>
    <g id="Page-1" stroke="none" stroke-width="1" fill="none" fill-rule="evenodd">
        <g id="Artboard" transform="translate(-188.000000, -32.000000)">
            <g id="icon-mom-40" transform="translate(188.000000, 32.142856)">
                <g id="Group-5" transform="translate(3.039220, 5.196353)">
                    <path d="M1.97542489,15.4788879 C1.89441028,16.1257178 1.85205332,16.7801799 1.84964878,17.4342604 C1.91068719,25.9546704 8.68964995,32.8955942 16.9607244,32.8955942 C25.2299492,32.8955942 32.0076172,25.9573417 32.071985,17.4285363 C32.0692105,16.7809431 32.0277784,16.13335 31.9484284,15.4945339 C31.5731347,15.5242995 31.1971011,15.5393731 30.8242119,15.5393731 C24.5111757,15.5393731 19.1307323,11.476747 17.0480278,5.69534693 C14.9656932,11.4771286 9.58524989,15.5393731 3.27202869,15.5393731 C2.8432801,15.5393731 2.40972243,15.5191478 1.97542489,15.4788879" id="Fill-3" fill="#FFFFFF"></path>
                    <path d="M1.97542489,15.4788879 C1.89441028,16.1257178 1.85205332,16.7801799 1.84964878,17.4342604 C1.91068719,25.9546704 8.68964995,32.8955942 16.9607244,32.8955942 C25.2299492,32.8955942 32.0076172,25.9573417 32.071985,17.4285363 C32.0692105,16.7809431 32.0277784,16.13335 31.9484284,15.4945339 C31.5731347,15.5242995 31.1971011,15.5393731 30.8242119,15.5393731 C24.5111757,15.5393731 19.1307323,11.476747 17.0480278,5.69534693 C14.9656932,11.4771286 9.58524989,15.5393731 3.27202869,15.5393731 C2.8432801,15.5393731 2.40972243,15.5191478 1.97542489,15.4788879 M16.9607244,34.8036471 C7.67733718,34.8036471 0.0686219696,27.0132581 0,17.4375041 C0.00406922731,16.3581186 0.102655507,15.2878918 0.293169331,14.2451409 C0.38528184,13.7402701 0.84750907,13.4002551 1.34118033,13.4786761 C1.98615286,13.5799937 2.63574951,13.6313203 3.27202869,13.6313203 C10.1932294,13.6313203 15.8322537,8.04606803 16.109886,0.915674559 C16.1296772,0.403743981 16.5380796,0 17.0337855,0 L17.0426638,0 C17.047103,0 17.0655995,0.000381610568 17.0700386,0.000572415852 C17.557791,0.0125931488 17.9669333,0.413475051 17.9865396,0.916246975 C18.2641719,8.04625883 23.9031961,13.6313203 30.8242119,13.6313203 C31.4122152,13.6313203 32.008727,13.5883891 32.5969153,13.5034808 C33.0859624,13.4342184 33.5433806,13.7723254 33.6340134,14.2733801 C33.8206429,15.3050643 33.9173796,16.3657508 33.9216337,17.4262466 L33.9216337,17.4371225 C33.8530118,27.0130673 26.2442966,34.8036471 16.9607244,34.8036471" id="Fill-3" fill="#A179C5"></path>
                </g>
                <rect id="Rectangle" x="0" y="0" width="40" height="40"></rect>
                <path d="M20.0000555,33.7776489 C17.511538,33.7776489 15.4870974,31.689285 15.4870974,29.1223816 L17.3367462,29.1223816 C17.3367462,30.6371847 18.5316193,31.869596 20.0000555,31.869596 C21.4684917,31.869596 22.6631798,30.6371847 22.6631798,29.1223816 L24.5128286,29.1223816 C24.5128286,31.689285 22.488388,33.7776489 20.0000555,33.7776489" id="Fill-1" fill="#A179C5"></path>
                <g id="Group-8" transform="translate(0.000000, 3.000000)" fill="#A179C5">
                    <path d="M19.9999159,0 C31.0280264,0 40,9.38261504 40,20.9152991 L40,33.12077 C40,33.6062808 39.6235124,34 39.1592506,34 L28.7366478,34 C28.3746211,34 28.0534548,33.7578601 27.9389448,33.3987825 C27.8246029,33.039705 27.9428122,32.6444032 28.2323663,32.417386 C31.7317337,29.6738367 33.7387707,25.4809647 33.7387707,20.9137165 C33.7387707,20.2982555 33.7007689,19.6803327 33.6254377,19.0685644 C33.2840934,19.0961722 32.9422447,19.1100641 32.6030864,19.1100641 C26.8641307,19.1100641 21.9726504,15.3661269 20.0792827,10.0376414 C18.1862512,15.3663027 13.2949391,19.1100641 7.5556471,19.1100641 C7.16587566,19.1100641 6.77156417,19.0914244 6.37674823,19.0543209 C6.29990373,19.6717162 6.26122926,20.294211 6.26122926,20.9137165 C6.26122926,25.4807888 8.26826633,29.6736609 11.7676337,32.417386 C12.0571878,32.6444032 12.1753971,33.039705 12.0608871,33.3987825 C11.9465452,33.7578601 11.6252107,34 11.2633522,34 L0.840749444,34 C0.376487601,34 0,33.6062808 0,33.12077 L0,20.9152991 C0,9.38261504 8.97197362,0 19.9999159,0 Z" id="Combined-Shape"></path>
                </g>
            </g>
        </g>
    </g>
</svg>