<?xml version="1.0" encoding="UTF-8"?>
<svg width="40px" height="40px" viewBox="0 0 40 40" version="1.1" xmlns="http://www.w3.org/2000/svg" xmlns:xlink="http://www.w3.org/1999/xlink">
    <title>icon-all</title>
    <g id="Page-1" stroke="none" stroke-width="1" fill="none" fill-rule="evenodd">
        <g id="LL21---Shop-for" transform="translate(-34.000000, -83.000000)">
            <g id="Group-12" transform="translate(0.000000, 54.000000)">
                <g id="Group-5" transform="translate(18.000000, 16.000000)">
                    <g id="Components/Nav/ShopbyCat" transform="translate(0.000000, 13.000000)">
                        <g id="icon-all" transform="translate(16.000000, 0.000000)">
                            <circle id="Oval" stroke="#A179C5" stroke-width="1.746269" fill="#FFFFFF" cx="20" cy="20" r="19.1268655"></circle>
                            <g id="ALL" transform="translate(7.953000, 15.130000)" fill="#A775C8" fill-rule="nonzero">
                                <path d="M6.916,8.26 L3.416,8.26 L2.884,9.87 L0,9.87 L3.598,0 L6.762,0 L10.346,9.87 L7.448,9.87 L6.916,8.26 Z M6.23,6.16 L5.166,2.968 L4.116,6.16 L6.23,6.16 Z" id="Shape"></path>
                                <polygon id="Path" points="13.986 7.77 17.052 7.77 17.052 9.87 11.242 9.87 11.242 0 13.986 0"></polygon>
                                <polygon id="Path" points="20.86 7.77 23.926 7.77 23.926 9.87 18.116 9.87 18.116 0 20.86 0"></polygon>
                            </g>
                        </g>
                    </g>
                </g>
            </g>
        </g>
    </g>
</svg>