<?xml version="1.0" encoding="UTF-8"?>
<svg width="40px" height="41px" viewBox="0 0 40 41" version="1.1" xmlns="http://www.w3.org/2000/svg" xmlns:xlink="http://www.w3.org/1999/xlink">
    <title>icon-girl-40</title>
    <defs>
        <polygon id="path-1" points="0 0 35 0 35 35.2408123 0 35.2408123"></polygon>
    </defs>
    <g id="Page-1" stroke="none" stroke-width="1" fill="none" fill-rule="evenodd">
        <g id="Artboard" transform="translate(-136.000000, -32.000000)">
            <g id="icon-girl-40" transform="translate(136.000000, 32.142856)">
                <rect id="Rectangle" x="0" y="0" width="40" height="40"></rect>
                <g id="Group-10" transform="translate(3.000000, 0.000000)">
                    <g id="Group-9" transform="translate(0.000000, 4.759188)">
                        <g id="Group-6">
                            <mask id="mask-2" fill="white">
                                <use xlink:href="#path-1"></use>
                            </mask>
                            <g id="Clip-5"></g>
                            <ellipse id="Oval" fill="#FFFFFF" mask="url(#mask-2)" cx="18" cy="17.6131081" rx="17" ry="17.5151515"></ellipse>
                            <path d="M17.5,1.92141215 C8.90266177,1.92141215 1.90827209,8.96396409 1.90827209,17.6205022 C1.90827209,26.2768482 8.90266177,33.3194002 17.5,33.3194002 C26.0973382,33.3194002 33.0917279,26.2768482 33.0917279,17.6205022 C33.0917279,8.96396409 26.0973382,1.92141215 17.5,1.92141215 M17.5,35.2408123 C7.85044054,35.2408123 0,27.3363149 0,17.6205022 C0,7.90449743 7.85044054,0 17.5,0 C27.1493686,0 35,7.90449743 35,17.6205022 C35,27.3363149 27.1493686,35.2408123 17.5,35.2408123" id="Fill-4" fill="#A179C5" mask="url(#mask-2)"></path>
                        </g>
                        <path d="M17.3004282,28.4837998 C14.8024264,28.4837998 12.7702703,26.3808142 12.7702703,23.7959384 L14.6269684,23.7959384 C14.6269684,25.3213475 15.8262098,26.5623876 17.3004282,26.5623876 C18.7744608,26.5623876 19.9737022,25.3213475 19.9737022,23.7959384 L21.8304004,23.7959384 C21.8304004,26.3808142 19.7982442,28.4837998 17.3004282,28.4837998" id="Fill-7" fill="#A179C5"></path>
                    </g>
                    <g id="Group-2-Copy" transform="translate(6.621622, 0.000000)" fill="#FFFFFF" stroke="#A775C8">
                        <rect id="Rectangle" stroke-width="1.2" x="10.0594595" y="2.50367507" width="1.63783784" height="2.60735015"></rect>
                        <path d="M20.9504341,0.75 C20.7882183,1.81971356 20.2843994,2.77728128 19.5537061,3.50797457 C18.6559371,4.40574356 17.4156808,4.96102522 16.0457315,4.96102522 L12.1013514,4.96102522 L12.1013514,2.85551261 C12.1013514,2.27409136 12.3370189,1.74771321 12.7180417,1.36669037 C13.0990646,0.985667526 13.6254427,0.75 14.206864,0.75 Z" id="Rectangle-Copy" stroke-width="1.5"></path>
                        <path d="M9.59908277,0.75 C9.43686692,1.81971356 8.93304805,2.77728128 8.20235476,3.50797457 C7.30458578,4.40574356 6.06432947,4.96102522 4.69438019,4.96102522 L0.75,4.96102522 L0.75,2.85551261 C0.75,2.27409136 0.985667526,1.74771321 1.36669037,1.36669037 C1.74771321,0.985667526 2.27409136,0.75 2.85551261,0.75 Z" id="Rectangle-Copy-2" stroke-width="1.5" transform="translate(5.202703, 2.855513) scale(-1, 1) translate(-5.202703, -2.855513) "></path>
                    </g>
                </g>
            </g>
        </g>
    </g>
</svg>