<?xml version="1.0" encoding="UTF-8"?>
<svg width="101px" height="34px" viewBox="0 0 101 34" version="1.1" xmlns="http://www.w3.org/2000/svg" xmlns:xlink="http://www.w3.org/1999/xlink">
    <title>Group 9</title>
    <g id="Design" stroke="none" stroke-width="1" fill="none" fill-rule="evenodd">
        <g id="Register-filled" transform="translate(-1039.000000, -835.000000)" fill="#2A1630">
            <g id="Group-9" transform="translate(1039.405549, 835.444549)">
                <g id="Group-8">
                    <path d="M4.9645092,1.15248113 C2.87331655,1.15248113 1.17254792,2.82313208 1.17254792,4.8779434 L1.17254792,28.104969 C1.17254792,30.1597803 2.87331655,31.8304313 4.9645092,31.8304313 L95.2558025,31.8304313 C97.3469952,31.8304313 99.0477638,30.1597803 99.0477638,28.104969 L99.0477638,4.8779434 C99.0477638,2.82313208 97.3469952,1.15248113 95.2558025,1.15248113 L4.9645092,1.15248113 Z M95.2558025,32.9829124 L4.9645092,32.9829124 C2.22643756,32.9829124 0,30.7953679 0,28.104969 L0,4.8779434 C0,2.18882075 2.22643756,4.54747351e-13 4.9645092,4.54747351e-13 L95.2558025,4.54747351e-13 C97.9938742,4.54747351e-13 100.220312,2.18882075 100.220312,4.8779434 L100.220312,28.104969 C100.220312,30.7953679 97.9938742,32.9829124 95.2558025,32.9829124 L95.2558025,32.9829124 Z" id="Fill-30"></path>
                    <path d="M31.7649483,8.47271456 C31.5314594,7.7694841 31.415353,7.38915256 31.415353,7.33299623 L31.3834556,7.33299623 C31.3834556,7.38532372 31.2622455,7.76565526 31.0211013,8.47271456 L31.7649483,8.47271456 Z M32.7091109,9.62774825 L32.0545766,9.62774825 C32.0545766,9.53713235 31.9933336,9.28315256 31.8695717,8.86325633 L30.9254091,8.86325633 C30.7965437,9.27549488 30.7327489,9.53075094 30.7327489,9.62774825 L30.1177673,9.62774825 C30.1177673,9.57414447 30.2772542,9.13893288 30.5949522,8.31956092 C30.9126501,7.50018895 31.0721371,7.04966199 31.0721371,6.96670377 L31.8440538,6.96670377 C31.8440538,7.04455687 31.98823,7.48870243 32.2765824,8.30041671 C32.5649348,9.11085472 32.7091109,9.55372399 32.7091109,9.62774825 L32.7091109,9.62774825 Z" id="Fill-32"></path>
                    <path d="M35.3431971,9.62749299 L34.8379425,9.62749299 C34.8379425,9.57133666 34.6516618,9.2765159 34.2765485,8.74303073 C33.8848486,8.18019111 33.6615669,7.79475445 33.6067034,7.58799704 L33.5735301,7.58799704 C33.6079793,7.88664663 33.6245659,8.15594178 33.6245659,8.39715876 C33.6245659,8.73409677 33.6347731,9.14378275 33.6539115,9.62749299 L33.1512087,9.62749299 C33.171623,9.2050442 33.1818302,8.74175445 33.1818302,8.23634744 C33.1818302,7.73859811 33.171623,7.31487305 33.1512087,6.96644852 L33.7572591,6.96644852 C33.7572591,7.0391965 33.9256773,7.32763585 34.2625136,7.8304903 C34.6210403,8.36652803 34.8264594,8.73026792 34.880047,8.92043369 L34.9106685,8.92043369 C34.8774953,8.61667898 34.8609086,8.34355499 34.8609086,8.10233801 C34.8609086,7.73349299 34.8519773,7.35443774 34.8328389,6.96644852 L35.3431971,6.96644852 C35.3240587,7.3046628 35.3151274,7.72711159 35.3151274,8.23634744 C35.3151274,8.74813585 35.3240587,9.21142561 35.3431971,9.62749299" id="Fill-34"></path>
                    <path d="M37.7467289,8.29288666 C37.7467289,8.03124919 37.6701752,7.8104527 37.5183437,7.63177345 C37.3652362,7.4530942 37.1330232,7.3624783 36.819153,7.3624783 C36.7604618,7.3624783 36.6800803,7.3688597 36.5780087,7.38162251 C36.5920436,7.65347022 36.598423,7.93808073 36.598423,8.23545404 C36.598423,8.56090553 36.6048025,8.88380445 36.6188374,9.20415081 C36.7068742,9.22201873 36.7961868,9.2309527 36.8842236,9.2309527 C37.1776796,9.2309527 37.3945818,9.14033679 37.5349303,8.95782871 C37.6765547,8.7765969 37.7467289,8.55452412 37.7467289,8.29288666 M38.3042953,8.20482332 C38.3042953,8.59153625 38.1805334,8.92975054 37.9330097,9.21818989 C37.6842101,9.50790553 37.3371665,9.6521252 36.8906031,9.6521252 C36.6890116,9.6521252 36.4108664,9.64319124 36.0574434,9.62787588 C36.0753059,9.21563733 36.0842372,8.75234757 36.0842372,8.23545404 C36.0842372,7.74025728 36.0753059,7.31653221 36.0574434,6.9668314 L36.4146941,6.9668314 C36.4733853,6.9668314 36.5601462,6.96427884 36.6762527,6.96045 C36.7923591,6.95662116 36.867637,6.9540686 36.9033621,6.9540686 C37.3945818,6.9540686 37.7505566,7.07659151 37.9725624,7.32163733 C38.1932924,7.56795943 38.3042953,7.86150391 38.3042953,8.20482332" id="Fill-36"></path>
                    <path d="M40.2687915,7.74727682 C40.2687915,7.47670539 40.0939938,7.3401434 39.7456743,7.3401434 C39.6180848,7.3401434 39.5045301,7.35035364 39.4062862,7.36949784 C39.4215969,7.5800841 39.4292523,7.85576065 39.4292523,8.19525121 C39.5045301,8.19780377 39.567049,8.19908005 39.6193607,8.19908005 C40.0518893,8.19908005 40.2687915,8.04847898 40.2687915,7.74727682 M41.0343288,9.62723774 L40.4308302,9.62723774 C40.2726192,9.14480377 40.1514091,8.84743046 40.0659241,8.73384151 C39.981715,8.62152884 39.8464701,8.56537251 39.6576376,8.56537251 C39.578532,8.56537251 39.5032542,8.56537251 39.4318041,8.56664879 C39.4318041,8.9163496 39.4369076,9.27115553 39.4496666,9.62723774 L38.8818931,9.62723774 C38.8997557,9.21627547 38.9086869,8.75170943 38.9086869,8.23609218 C38.9086869,7.73961914 38.8997557,7.31717035 38.8818931,6.96619326 L39.2353162,6.96619326 C39.2761448,6.96619326 39.3616298,6.96491698 39.4917712,6.95981186 C39.6219125,6.95598302 39.7418467,6.95470674 39.8515737,6.95470674 C40.4767624,6.95470674 40.7893568,7.16784555 40.7893568,7.59667574 C40.7893568,7.93489003 40.6107315,8.17227817 40.2547566,8.30501132 L40.2547566,8.33564205 C40.3925533,8.37393046 40.5124875,8.48113801 40.615835,8.65726469 C40.7191826,8.83466765 40.8595311,9.15756658 41.0343288,9.62723774" id="Fill-38"></path>
                    <path d="M43.3997113,8.307181 C43.3997113,8.02257049 43.3269853,7.79156375 43.1815332,7.61416078 C43.0348052,7.43675782 42.854904,7.34869447 42.6418294,7.34869447 C42.4427897,7.34869447 42.2743715,7.4380341 42.1352989,7.61671334 C41.9962263,7.79539259 41.927328,8.02001792 41.927328,8.29314191 C41.927328,8.57647615 42.000054,8.80748288 42.146782,8.98488585 C42.2922341,9.16228881 42.4721353,9.25162844 42.6852099,9.25162844 C42.8829737,9.25162844 43.0526678,9.16228881 43.1917404,8.98233329 C43.330813,8.80365404 43.3997113,8.57775243 43.3997113,8.307181 M43.9636571,8.2484721 C43.9636571,8.66581577 43.8360676,9.01296402 43.5796126,9.28864057 C43.3231576,9.56304084 43.0067355,9.70087911 42.6290705,9.70087911 C42.2705439,9.70087911 41.9694325,9.57452736 41.7270124,9.32182385 C41.4845923,9.06912035 41.3633822,8.74749771 41.3633822,8.35823221 C41.3633822,7.93961226 41.4909717,7.5937403 41.7474267,7.31806375 C42.0026058,7.0423872 42.3203038,6.9058252 42.6966929,6.9058252 C43.0564955,6.9058252 43.3576068,7.03090067 43.6000269,7.28360418 C43.842447,7.5350314 43.9636571,7.85665404 43.9636571,8.2484721" id="Fill-40"></path>
                    <path d="M45.1187253,9.62749299 L44.5407446,9.62749299 C44.5586072,9.2050442 44.5675384,8.74175445 44.5675384,8.23634744 C44.5675384,7.73859811 44.5586072,7.31487305 44.5407446,6.96644852 L45.1187253,6.96644852 C45.1008627,7.30976792 45.0919315,7.73349299 45.0919315,8.23634744 C45.0919315,8.74941213 45.1008627,9.21270189 45.1187253,9.62749299" id="Fill-42"></path>
                    <path d="M47.5222571,8.29288666 C47.5222571,8.03124919 47.4457034,7.8104527 47.2938718,7.63177345 C47.1407644,7.4530942 46.9085514,7.3624783 46.5946811,7.3624783 C46.5359899,7.3624783 46.4556085,7.3688597 46.3535369,7.38162251 C46.3675717,7.65347022 46.3739512,7.93808073 46.3739512,8.23545404 C46.3739512,8.56090553 46.3803307,8.88380445 46.3943655,9.20415081 C46.4824023,9.22201873 46.571715,9.2309527 46.6597518,9.2309527 C46.9532077,9.2309527 47.17011,9.14033679 47.3104585,8.95782871 C47.4520829,8.7765969 47.5222571,8.55452412 47.5222571,8.29288666 M48.0798234,8.20482332 C48.0798234,8.59153625 47.9560616,8.92975054 47.7085379,9.21818989 C47.4597382,9.50790553 47.1126947,9.6521252 46.6661313,9.6521252 C46.4645398,9.6521252 46.1863946,9.64319124 45.8329715,9.62787588 C45.8508341,9.21563733 45.8597653,8.75234757 45.8597653,8.23545404 C45.8597653,7.74025728 45.8508341,7.31653221 45.8329715,6.9668314 L46.1902223,6.9668314 C46.2489135,6.9668314 46.3356743,6.96427884 46.4517808,6.96045 C46.5678873,6.95662116 46.6431652,6.9540686 46.6788902,6.9540686 C47.17011,6.9540686 47.5260848,7.07659151 47.7480906,7.32163733 C47.9688205,7.56795943 48.0798234,7.86150391 48.0798234,8.20482332" id="Fill-44"></path>
                    <path d="M51.0646532,8.47271456 C50.8311644,7.7694841 50.7150579,7.38915256 50.7150579,7.33299623 L50.6818846,7.33299623 C50.6818846,7.38532372 50.5619504,7.76565526 50.3208062,8.47271456 L51.0646532,8.47271456 Z M52.0088159,9.62774825 L51.3542815,9.62774825 C51.3542815,9.53713235 51.2930385,9.28315256 51.1680008,8.86325633 L50.225114,8.86325633 C50.0962486,9.27549488 50.0324538,9.53075094 50.0324538,9.62774825 L49.4174722,9.62774825 C49.4174722,9.57414447 49.5769591,9.13893288 49.8946571,8.31956092 C50.2123551,7.50018895 50.371842,7.04966199 50.371842,6.96670377 L51.1437588,6.96670377 C51.1437588,7.04455687 51.2879349,7.48870243 51.5762873,8.30041671 C51.8646397,9.11085472 52.0088159,9.55372399 52.0088159,9.62774825 L52.0088159,9.62774825 Z" id="Fill-46"></path>
                    <path d="M53.8647334,7.7758655 C53.8647334,7.48487358 53.6707973,7.33810135 53.284201,7.33810135 C53.1872329,7.33810135 53.0851613,7.34831159 52.9779861,7.36873208 C52.9932968,7.6265407 53.0009522,7.91880889 53.0009522,8.24426038 C53.0341255,8.24681294 53.0736782,8.24808922 53.1183346,8.24808922 C53.6159338,8.24808922 53.8647334,8.09110674 53.8647334,7.7758655 M54.3916782,7.66355283 C54.3916782,7.98900431 54.2704682,8.22894501 54.0293239,8.38465121 C53.7869038,8.54035741 53.490896,8.61821051 53.1400248,8.61821051 C53.0749541,8.61821051 53.0302978,8.61693423 53.0022281,8.61310539 C53.0022281,8.86963774 53.0098834,9.20785202 53.0251942,9.62774825 L52.4510412,9.62774825 C52.4689038,9.23337763 52.477835,8.77008787 52.477835,8.23532642 C52.477835,7.74523477 52.4689038,7.3215097 52.4510412,6.96670377 L52.8070161,6.96670377 C52.856776,6.96670377 52.953744,6.96415121 53.0966443,6.96032237 C53.2395446,6.95649353 53.3633065,6.95394097 53.4679299,6.95394097 C53.7269367,6.95394097 53.9451148,7.01264987 54.1237402,7.13006765 C54.3023655,7.24748544 54.3916782,7.42488841 54.3916782,7.66355283" id="Fill-48"></path>
                    <path d="M56.314963,7.7758655 C56.314963,7.48487358 56.1210269,7.33810135 55.7344306,7.33810135 C55.6374625,7.33810135 55.5353909,7.34831159 55.4282157,7.36873208 C55.4435264,7.6265407 55.4511818,7.91880889 55.4511818,8.24426038 C55.4843551,8.24681294 55.5239078,8.24808922 55.5698401,8.24808922 C56.0661634,8.24808922 56.314963,8.09110674 56.314963,7.7758655 M56.8419078,7.66355283 C56.8419078,7.98900431 56.7206978,8.22894501 56.4795535,8.38465121 C56.2371334,8.54035741 55.9411257,8.61821051 55.5902544,8.61821051 C55.5251837,8.61821051 55.4805274,8.61693423 55.4524577,8.61310539 C55.4524577,8.86963774 55.4601131,9.20785202 55.4754238,9.62774825 L54.9012709,9.62774825 C54.9191334,9.23337763 54.9280647,8.77008787 54.9280647,8.23532642 C54.9280647,7.74523477 54.9191334,7.3215097 54.9012709,6.96670377 L55.2572457,6.96670377 C55.3070056,6.96670377 55.4039737,6.96415121 55.546874,6.96032237 C55.6897742,6.95649353 55.8135361,6.95394097 55.9181595,6.95394097 C56.1771663,6.95394097 56.3953444,7.01264987 56.5739698,7.13006765 C56.7525952,7.24748544 56.8419078,7.42488841 56.8419078,7.66355283" id="Fill-50"></path>
                    <path d="M60.2845289,8.307181 C60.2845289,8.02257049 60.2118029,7.79156375 60.0663508,7.61416078 C59.9196228,7.43675782 59.7397216,7.34869447 59.526647,7.34869447 C59.3276074,7.34869447 59.1591892,7.4380341 59.0201166,7.61671334 C58.8810439,7.79539259 58.8121456,8.02001792 58.8121456,8.29314191 C58.8121456,8.57647615 58.8848716,8.80748288 59.0315996,8.98488585 C59.1770517,9.16228881 59.356953,9.25162844 59.5700275,9.25162844 C59.7677913,9.25162844 59.9374854,9.16228881 60.076558,8.98233329 C60.2156306,8.80365404 60.2845289,8.57775243 60.2845289,8.307181 M60.8484747,8.2484721 C60.8484747,8.66581577 60.7208852,9.01296402 60.4644302,9.28864057 C60.2079752,9.56304084 59.8915531,9.70087911 59.5138881,9.70087911 C59.1553615,9.70087911 58.8542501,9.57452736 58.61183,9.32182385 C58.3694099,9.06912035 58.2481998,8.74749771 58.2481998,8.35823221 C58.2481998,7.93961226 58.3757894,7.5937403 58.6322443,7.31806375 C58.8874234,7.0423872 59.2051214,6.9058252 59.5815106,6.9058252 C59.9413131,6.9058252 60.2424244,7.03090067 60.4848445,7.28360418 C60.7272647,7.5350314 60.8484747,7.85665404 60.8484747,8.2484721" id="Fill-52"></path>
                    <path d="M63.6176782,9.62749299 L63.1124236,9.62749299 C63.1124236,9.57133666 62.9261429,9.2765159 62.5510296,8.74303073 C62.1593297,8.18019111 61.936048,7.79475445 61.8811845,7.58799704 L61.8480112,7.58799704 C61.8824604,7.88664663 61.899047,8.15594178 61.899047,8.39715876 C61.899047,8.73409677 61.9092542,9.14378275 61.9283926,9.62749299 L61.4256898,9.62749299 C61.4461042,9.2050442 61.4563113,8.74175445 61.4563113,8.23634744 C61.4563113,7.73859811 61.4461042,7.31487305 61.4256898,6.96644852 L62.0317402,6.96644852 C62.0317402,7.0391965 62.2001584,7.32763585 62.5369948,7.8304903 C62.8955214,8.36652803 63.1009406,8.73026792 63.1532523,8.92043369 L63.1838738,8.92043369 C63.1519764,8.61667898 63.1353897,8.34355499 63.1353897,8.10233801 C63.1353897,7.73349299 63.1264585,7.35443774 63.10732,6.96644852 L63.6176782,6.96644852 C63.5985398,7.3046628 63.5896085,7.72711159 63.5896085,8.23634744 C63.5896085,8.74813585 63.5985398,9.21142561 63.6176782,9.62749299" id="Fill-54"></path>
                    <path d="M39.5155028,18.152535 C39.5155028,19.4734852 39.1238029,20.5251402 38.3404031,21.3087763 C37.451104,22.2417372 36.2938668,22.7088558 34.8686916,22.7088558 C33.5034834,22.7088558 32.3436945,22.2353558 31.3893247,21.2896321 C30.433679,20.3426321 29.95777,19.1697305 29.95777,17.7696509 C29.95777,16.3695714 30.433679,15.1966698 31.3893247,14.2496698 C32.3436945,13.3039461 33.5034834,12.8304461 34.8686916,12.8304461 C35.5461921,12.8304461 36.1930711,12.961903 36.8093286,13.226093 C37.4255861,13.490283 37.9180817,13.8425364 38.2880914,14.2828531 L37.4562076,15.1149879 C36.8310188,14.3670876 35.9685135,13.9918612 34.8686916,13.9918612 C33.8734931,13.9918612 33.0135396,14.341562 32.2875551,15.0422399 C31.5615706,15.7429178 31.1979404,16.6516294 31.1979404,17.7696509 C31.1979404,18.8876725 31.5615706,19.7963841 32.2875551,20.497062 C33.0135396,21.1964636 33.8734931,21.5461644 34.8686916,21.5461644 C35.9238571,21.5461644 36.804225,21.1939111 37.5085193,20.4906806 C37.9665657,20.032496 38.2306761,19.3930795 38.3008503,18.5749838 L34.8686916,18.5749838 L34.8686916,17.4390943 L39.4491562,17.4390943 C39.4938126,17.6866927 39.5155028,17.9240809 39.5155028,18.152535" id="Fill-56"></path>
                    <path d="M41.8591952,20.9588202 C42.2776889,21.3863741 42.7714604,21.5995129 43.3443375,21.5995129 C43.9159386,21.5995129 44.4109861,21.3863741 44.8294798,20.9588202 C45.2479735,20.5312663 45.4572203,19.9658741 45.4572203,19.2626437 C45.4572203,18.5581369 45.2479735,17.9927447 44.8294798,17.5651908 C44.4109861,17.1376369 43.9159386,16.9244981 43.3443375,16.9244981 C42.7714604,16.9244981 42.2776889,17.1376369 41.8591952,17.5651908 C41.4407015,17.9927447 41.2314546,18.5581369 41.2314546,19.2626437 C41.2314546,19.9658741 41.4407015,20.5312663 41.8591952,20.9588202 M40.9545853,16.7994226 C41.5797741,16.1434146 42.3759328,15.8154105 43.3443375,15.8154105 C44.3127421,15.8154105 45.1089009,16.1434146 45.7340896,16.7994226 C46.3592784,17.4554307 46.6705969,18.276079 46.6705969,19.2626437 C46.6705969,20.2479321 46.3592784,21.0685803 45.7340896,21.7245884 C45.1089009,22.3805965 44.3127421,22.7086005 43.3443375,22.7086005 C42.3759328,22.7086005 41.5797741,22.3805965 40.9545853,21.7245884 C40.3293965,21.0685803 40.0168021,20.2479321 40.0168021,19.2626437 C40.0168021,18.276079 40.3293965,17.4554307 40.9545853,16.7994226" id="Fill-58"></path>
                    <path d="M48.92268,20.9588202 C49.3411737,21.3863741 49.8349452,21.5995129 50.4078223,21.5995129 C50.9794234,21.5995129 51.4744709,21.3863741 51.8929646,20.9588202 C52.3114583,20.5312663 52.5207051,19.9658741 52.5207051,19.2626437 C52.5207051,18.5581369 52.3114583,17.9927447 51.8929646,17.5651908 C51.4744709,17.1376369 50.9794234,16.9244981 50.4078223,16.9244981 C49.8349452,16.9244981 49.3411737,17.1376369 48.92268,17.5651908 C48.5041863,17.9927447 48.2949394,18.5581369 48.2949394,19.2626437 C48.2949394,19.9658741 48.5041863,20.5312663 48.92268,20.9588202 M48.0180701,16.7994226 C48.6432589,16.1434146 49.4394176,15.8154105 50.4078223,15.8154105 C51.3762269,15.8154105 52.1723857,16.1434146 52.7975744,16.7994226 C53.4227632,17.4554307 53.7353576,18.276079 53.7353576,19.2626437 C53.7353576,20.2479321 53.4227632,21.0685803 52.7975744,21.7245884 C52.1723857,22.3805965 51.3762269,22.7086005 50.4078223,22.7086005 C49.4394176,22.7086005 48.6432589,22.3805965 48.0180701,21.7245884 C47.3928813,21.0685803 47.0802869,20.2479321 47.0802869,19.2626437 C47.0802869,18.276079 47.3928813,17.4554307 48.0180701,16.7994226" id="Fill-60"></path>
                    <path d="M57.4186126,21.5996406 C57.9902137,21.5996406 58.4776058,21.387778 58.8769611,20.9653292 C59.2775923,20.5428805 59.4779078,19.9749357 59.4779078,19.261495 C59.4779078,18.5493306 59.2775923,17.9813858 58.8769611,17.5589371 C58.4776058,17.135212 57.9902137,16.9246257 57.4186126,16.9246257 C56.8546668,16.9246257 56.3711024,17.1377646 55.9666436,17.5653185 C55.5609088,17.9928724 55.3593173,18.5582646 55.3593173,19.261495 C55.3593173,19.9660018 55.5609088,20.5313939 55.9666436,20.9589478 C56.3711024,21.3865018 56.8546668,21.5996406 57.4186126,21.5996406 M57.3267481,25.5612147 C56.5599349,25.5612147 55.9360221,25.3697726 55.4511818,24.9868885 C54.9663415,24.6040044 54.619298,24.1662403 54.4087752,23.6723198 L55.5175284,23.2103063 C55.6412902,23.5625597 55.8671237,23.8573805 56.1975806,24.0947686 C56.5267617,24.333433 56.9031508,24.4521271 57.3267481,24.4521271 C57.9953173,24.4521271 58.5209863,24.2517511 58.9037549,23.8509991 C59.2865235,23.450247 59.4779078,22.9065516 59.4779078,22.2199128 L59.4779078,21.5996406 L59.4255961,21.5996406 C59.2137975,21.9161581 58.9152379,22.1803481 58.5273657,22.3922106 C58.1407694,22.6027969 57.7044132,22.7087282 57.2208488,22.7087282 C56.3838614,22.7087282 55.6629804,22.3794478 55.0556542,21.7183346 C54.448328,21.0584977 54.1446649,20.2391257 54.1446649,19.261495 C54.1446649,18.2851406 54.448328,17.4657686 55.0556542,16.8046554 C55.6629804,16.1448185 56.3838614,15.8155381 57.2208488,15.8155381 C57.7044132,15.8155381 58.1407694,15.9214694 58.5273657,16.1320557 C58.9152379,16.3439182 59.2137975,16.6068319 59.4255961,16.9246257 L59.4779078,16.9246257 L59.4779078,16.0261244 L60.6402486,16.0261244 L60.6402486,22.1675853 C60.6402486,23.2766729 60.3187229,24.1190179 59.6756716,24.6971729 C59.0338962,25.2727753 58.2504964,25.5612147 57.3267481,25.5612147" id="Fill-62"></path>
                    <polygon id="Fill-64" points="61.7879166 22.4978867 63.002569 22.4978867 63.002569 13.0419257 61.7879166 13.0419257"></polygon>
                    <path d="M68.7592817,18.4828364 C68.7324879,18.1127151 68.5627938,17.7604617 68.2514753,17.4260763 C67.937605,17.0916908 67.4731791,16.9244981 66.8581975,16.9244981 C66.4090823,16.9244981 66.0199342,17.0648889 65.6894773,17.3469469 C65.3590203,17.6290049 65.1331868,18.0080601 65.009425,18.4828364 L68.7592817,18.4828364 Z M67.0164085,22.7086005 C66.0390726,22.7086005 65.2441897,22.3831491 64.6330358,21.7309698 C64.0218819,21.0800668 63.715667,20.256866 63.715667,19.2613674 C63.715667,18.3194725 64.0129506,17.5103108 64.6075179,16.8313296 C65.2008093,16.1536248 65.9599671,15.8154105 66.8837154,15.8154105 C67.8431888,15.8154105 68.6112778,16.1280992 69.1879826,16.7522003 C69.7646873,17.3775776 70.0530397,18.2148175 70.0530397,19.2613674 L70.0402807,19.4859927 L64.9303195,19.4859927 C64.9647686,20.138172 65.1829468,20.6537892 65.5835779,21.0315682 C65.9842091,21.4093472 66.4524627,21.5995129 66.9896147,21.5995129 C67.8610513,21.5995129 68.450515,21.2293916 68.7592817,20.4904253 L69.841241,20.939676 C69.6307183,21.4412542 69.2823988,21.8611504 68.7988345,22.200641 C68.3139942,22.5388553 67.7207028,22.7086005 67.0164085,22.7086005 L67.0164085,22.7086005 Z" id="Fill-66"></path>
                    <path d="M74.8324165,17.5055885 L76.8661938,17.5055885 C77.3752761,17.5055885 77.7848385,17.3332907 78.0936052,16.9899713 C78.401096,16.6466519 78.5554794,16.2688729 78.5554794,15.8540818 C78.5554794,15.440567 78.401096,15.062788 78.0936052,14.7194686 C77.7848385,14.3748729 77.3752761,14.2038513 76.8661938,14.2038513 L74.8324165,14.2038513 L74.8324165,17.5055885 Z M74.8324165,22.4971209 L73.617764,22.4971209 L73.617764,13.04116 L76.8394,13.04116 C77.6406623,13.04116 78.3334736,13.3079026 78.9178337,13.8401115 C79.5034697,14.3735966 79.7969257,15.0449201 79.7969257,15.8540818 C79.7969257,16.6645198 79.5034697,17.3358433 78.9178337,17.8680522 C78.3334736,18.4015373 77.6406623,18.6670036 76.8394,18.6670036 L74.8324165,18.6670036 L74.8324165,22.4971209 Z" id="Fill-67"></path>
                    <polygon id="Fill-68" points="80.588236 22.4978867 81.8028885 22.4978867 81.8028885 13.0419257 80.588236 13.0419257"></polygon>
                    <path d="M85.1297859,21.5996406 C85.6312128,21.5996406 86.0867075,21.4120274 86.4962699,21.0380772 C86.9058323,20.6641271 87.1099756,20.2212578 87.1099756,19.7107457 C86.7667597,19.4286877 86.2525739,19.2882969 85.5661421,19.2882969 C84.9754025,19.2882969 84.5313909,19.4159249 84.2328314,19.671181 C83.9329959,19.9264371 83.7837162,20.2263629 83.7837162,20.5696823 C83.7837162,20.8861999 83.9189611,21.1376271 84.1932786,21.3226877 C84.4650443,21.5064721 84.7776387,21.5996406 85.1297859,21.5996406 M84.9320221,22.7087282 C84.2455903,22.7087282 83.6714374,22.5109047 83.2095632,22.1139815 C82.7464132,21.7183346 82.5154761,21.1950597 82.5154761,20.5428805 C82.5154761,19.8383737 82.7885177,19.2857443 83.334601,18.8862686 C83.8806842,18.4855166 84.5530811,18.2851406 85.3543435,18.2851406 C86.067569,18.2851406 86.653205,18.4165974 87.1099756,18.6807875 L87.1099756,18.4957268 C87.1099756,18.0209505 86.9479369,17.6393427 86.6213076,17.3534559 C86.2959543,17.0675691 85.8953231,16.9246257 85.42069,16.9246257 C85.0685429,16.9246257 84.749569,17.0088602 84.4637684,17.1747767 C84.176692,17.3419694 83.98148,17.5716999 83.8755806,17.8614155 L82.7668275,17.3866392 C82.9161073,16.9999263 83.2108391,16.6400152 83.651023,16.3107349 C84.091207,15.9801783 84.6717394,15.8155381 85.3938962,15.8155381 C86.2219524,15.8155381 86.9071082,16.0580314 87.4531915,16.5417416 C87.9992747,17.0254519 88.2723164,17.7082619 88.2723164,18.5888953 L88.2723164,22.4981419 L87.1099756,22.4981419 L87.1099756,21.5996406 L87.0576639,21.5996406 C86.5740995,22.3386069 85.8647016,22.7087282 84.9320221,22.7087282" id="Fill-69"></path>
                    <polygon id="Fill-70" points="90.9131648 25.3498627 89.6589595 25.3498627 91.1645162 22.0876902 88.4966188 16.0253586 89.8171706 16.0253586 91.7450486 20.6748478 91.7718424 20.6748478 93.6461328 16.0253586 94.9654087 16.0253586"></polygon>
                    <path d="M7.30131171,17.6090949 C7.30131171,14.5894156 7.30258761,11.5684601 7.30003582,8.54878086 C7.30003582,8.17738329 7.37148596,7.839169 7.63432043,7.55966361 C7.73639206,7.4499035 7.8091181,7.42054906 7.93543175,7.54817709 C9.96665731,9.62213261 12.0029864,11.690983 14.0393156,13.7611097 C15.3573156,15.101204 16.6753156,16.4412984 17.9996951,17.7762876 C18.1272846,17.9051919 18.1387677,17.9741111 18.0035227,18.1093968 C14.7653001,21.329452 11.5296292,24.5533361 8.30288964,27.7861542 C8.10512585,27.9827013 7.96732914,27.9622809 7.77849661,27.8167849 C7.43272894,27.5500423 7.30003582,27.1939601 7.30003582,26.770235 C7.30131171,24.98089 7.29748403,23.191545 7.29620813,21.4034763 C7.29620813,20.1386825 7.29620813,18.8738887 7.29620813,17.6090949 L7.30131171,17.6090949 Z" id="Fill-71"></path>
                </g>
                <path d="M8.4619938,7.21423588 C8.70951752,7.2117496 8.8830393,7.28322129 9.0514575,7.37766604 C13.1866347,9.69539111 17.3205359,12.0143925 21.4582649,14.3270124 C21.6483733,14.4342199 21.6445456,14.4929288 21.4978176,14.6384248 C20.5727934,15.5484127 19.6554246,16.4660582 18.7393317,17.3837038 C18.6398118,17.4832536 18.5798447,17.5406863 18.4471516,17.4054005 C15.1566172,14.0487833 11.8622552,10.6972712 8.56789313,7.34448275 C8.54109932,7.31640458 8.5181332,7.28322129 8.4619938,7.21423588" id="Fill-72"></path>
                <path d="M9.38740077,27.7088116 C12.3895828,24.673817 15.3930407,21.6413749 18.3875673,18.5999989 C18.5725721,18.4111094 18.659333,18.4353588 18.8264753,18.6089329 C19.586909,19.401503 20.3588258,20.1838628 21.1345702,20.9611175 C21.271091,21.0976795 21.2825741,21.1538358 21.0962933,21.254662 C17.2430891,23.3656296 13.3937125,25.4817024 9.54306002,27.5952226 C9.47926525,27.6309585 9.42057406,27.6871148 9.38740077,27.7088116" id="Fill-73"></path>
                <path d="M26.5344149,17.6930741 C26.521656,18.033841 26.3608931,18.2725054 26.118473,18.4511846 C25.9385717,18.5839178 25.739532,18.6936779 25.54432,18.8021617 C24.3794275,19.4466833 23.2107073,20.0848235 22.0483665,20.7331739 C21.8914314,20.8199609 21.798291,20.8161321 21.6681497,20.6821226 C20.8400935,19.8270148 20.0056579,18.9795647 19.1661187,18.1359434 C19.0436327,18.0134205 19.0410809,17.9457776 19.1661187,17.8219784 C20.1447305,16.8583868 21.1169628,15.88969 22.0853675,14.9158881 C22.1989222,14.8010229 22.2805795,14.7882601 22.4234798,14.8686658 C23.5743375,15.520845 24.7302987,16.1640903 25.8849841,16.8111644 C26.240959,17.0115404 26.5191042,17.2706253 26.5344149,17.6930741" id="Fill-74"></path>
            </g>
        </g>
    </g>
</svg>