<?xml version="1.0" encoding="UTF-8"?>
<svg width="103px" height="203px" viewBox="0 0 103 203" version="1.1" xmlns="http://www.w3.org/2000/svg" xmlns:xlink="http://www.w3.org/1999/xlink">
    <title>Group 16</title>
    <defs>
        <path d="M84.7431499,0.214391019 C92.1874699,0.197220809 98.2339018,6.18796835 98.2511925,13.5963232 L98.2511925,13.5963232 L98.6449261,186.721779 C98.6621796,194.128811 92.6423489,200.147354 85.1980288,200.164562 L85.1980288,200.164562 L14.5694269,200.323434 C7.12643684,200.340604 1.07867493,194.349857 1.06138421,186.941502 L1.06138421,186.941502 L0.667650657,13.8160457 C0.650397091,6.40769086 6.67022784,0.39047073 14.1145479,0.373263545 L14.1145479,0.373263545 L84.7431499,0.214391019 Z M84.7484701,2.79547866 L14.1211982,2.95434125 C8.11865817,2.96757755 3.24799529,7.83721082 3.26126867,13.8107512 L3.26126867,13.8107512 L3.65499224,186.934884 C3.66962285,192.908424 8.56289668,197.755556 14.5641066,197.742346 L14.5641066,197.742346 L85.1913785,197.583484 C91.1939186,197.568924 96.0645814,192.699291 96.0513081,186.727074 L96.0513081,186.727074 L95.6575845,13.6016177 C95.6442839,7.62940097 90.7496801,2.7822694 84.7484701,2.79547866 L84.7484701,2.79547866 Z" id="path-1"></path>
        <path d="M5.16672661,9.76801777 L5.56138752,185.20946 C5.57059628,189.189268 3.70779679,192.735855 0.807039124,195 L0.807039124,195 C4.71286657,192.945179 7.37945877,188.820964 7.36896552,184.087324 L7.36896552,184.087324 L6.97953571,10.8835299 C6.96901142,6.14988994 4.28400172,2.03759817 0.368965517,0 L0.368965517,0 C3.28024748,2.25089681 5.1588334,5.7868848 5.16672661,9.76801777" id="path-3"></path>
        <linearGradient x1="50.029058%" y1="49.9941885%" x2="50.0614757%" y2="49.9921289%" id="linearGradient-5">
            <stop stop-color="#1C1A1C" offset="0%"></stop>
            <stop stop-color="#808080" offset="100%"></stop>
        </linearGradient>
        <path d="M0.593103448,10.913927 L0.983848787,184.115219 C0.994373078,188.848827 3.67938278,192.962416 7.59310345,195 L7.59310345,195 C4.68313703,192.747794 2.80455111,189.210505 2.79534235,185.230724 L2.79534235,185.230724 L2.40068144,9.79047347 C2.39278823,5.81069238 4.25427217,2.26412979 7.1537143,0 L7.1537143,0 C3.2492024,2.05613191 0.582610198,6.18031918 0.593103448,10.913927" id="path-6"></path>
        <linearGradient x1="49.9709529%" y1="50.0054022%" x2="49.9385353%" y2="50.0074617%" id="linearGradient-8">
            <stop stop-color="#808080" offset="0%"></stop>
            <stop stop-color="#1C1A1C" offset="100%"></stop>
        </linearGradient>
        <path d="M85.6706236,0 L15.2114571,0.158449943 C7.16161595,0.178256186 0.650598728,6.73280218 0.669004444,14.8005451 L0.669004444,14.8005451 L1.05901948,187.425156 C1.07746428,195.492899 7.61878369,202.019717 15.6686249,201.999955 L15.6686249,201.999955 L86.1264739,201.84146 C94.1763151,201.821654 100.687332,195.267108 100.668927,187.199365 L100.668927,187.199365 L100.278912,14.5734335 C100.261784,6.51889475 93.7389096,0 85.7061958,0 L85.7061958,0 C85.6943384,0 85.682481,0 85.6706236,0 M2.44238007,187.477973 L2.05237319,14.7411264 C2.0365943,7.25172574 8.08122137,1.1659275 15.5540036,1.14876209 L15.5540036,1.14876209 L85.3333471,0.990275765 C92.8048119,0.973146735 98.8784236,7.03253665 98.895551,14.5219373 L98.895551,14.5219373 L99.2855632,187.257463 C99.3026542,194.748185 93.2567097,200.835303 85.7839275,200.851148 L85.7839275,200.851148 L16.0059014,201.009598 C15.996679,201.009598 15.9861391,201.009598 15.9755992,201.009598 L15.9755992,201.009598 C8.51599185,201.009598 2.4595074,194.958131 2.44238007,187.477973" id="path-9"></path>
    </defs>
    <g id="Design" stroke="none" stroke-width="1" fill="none" fill-rule="evenodd">
        <g id="Register-filled" transform="translate(-586.000000, -681.000000)">
            <g id="Group-16" transform="translate(586.000000, 681.000000)">
                <path d="M88.5487761,202.828804 L12.9115906,203 C6.01939543,203.014567 0.419154189,197.456287 0.403187713,190.581748 L0,12.6438262 C-0.0159322653,5.77061361 5.55902872,0.18579662 12.4512239,0.169874119 L88.0884094,0 C94.9806046,-0.0158883845 100.580846,5.54371798 100.596812,12.4169306 L101,190.354852 C101.015932,197.228065 95.4409713,202.812882 88.5487761,202.828804" id="Fill-78" fill="#000000"></path>
                <g id="Group-15">
                    <g id="Group-14" transform="translate(1.000000, 0.000000)">
                        <g id="Group-82">
                            <mask id="mask-2" fill="white">
                                <use xlink:href="#path-1"></use>
                            </mask>
                            <g id="Clip-81"></g>
                            <path d="M96.0513081,186.727074 C96.0645814,192.699291 91.1939186,197.568924 85.1913785,197.583484 L14.5641066,197.742346 C8.56289668,197.755556 3.66962285,192.908424 3.65499224,186.934884 L3.26126867,13.8107512 C3.24799529,7.83721082 8.11865817,2.96757755 14.1211982,2.95434125 L84.7484701,2.79547866 C90.7496801,2.7822694 95.6442839,7.62940097 95.6575845,13.6016177 L96.0513081,186.727074 Z M84.7431499,0.214391019 L14.1145479,0.373263545 C6.67022784,0.39047073 0.650397091,6.40769086 0.667650657,13.8160457 L1.06138421,186.941502 C1.07867493,194.349857 7.12643684,200.340604 14.5694269,200.323434 L85.1980288,200.164562 C92.6423489,200.147354 98.6621796,194.128811 98.6449261,186.721779 L98.2511925,13.5963232 C98.2339018,6.18796835 92.1874699,0.197220809 84.7431499,0.214391019 L84.7431499,0.214391019 Z" id="Fill-80" mask="url(#mask-2)"></path>
                        </g>
                        <g id="Group-89" transform="translate(89.631034, 3.000000)">
                            <mask id="mask-4" fill="white">
                                <use xlink:href="#path-3"></use>
                            </mask>
                            <g id="Clip-88"></g>
                            <path d="M5.16672661,9.76801777 L5.56138752,185.20946 C5.57059628,189.189268 3.70779679,192.735855 0.807039124,195 L0.807039124,195 C4.71286657,192.945179 7.37945877,188.820964 7.36896552,184.087324 L7.36896552,184.087324 L6.97953571,10.8835299 C6.96901142,6.14988994 4.28400172,2.03759817 0.368965517,0 L0.368965517,0 C3.28024748,2.25089681 5.1588334,5.7868848 5.16672661,9.76801777" id="Fill-87" fill="url(#linearGradient-5)" mask="url(#mask-4)"></path>
                        </g>
                        <g id="Group-92" transform="translate(1.406897, 3.000000)">
                            <mask id="mask-7" fill="white">
                                <use xlink:href="#path-6"></use>
                            </mask>
                            <g id="Clip-91"></g>
                            <path d="M0.593103448,10.913927 L0.983848787,184.115219 C0.994373078,188.848827 3.67938278,192.962416 7.59310345,195 L7.59310345,195 C4.68313703,192.747794 2.80455111,189.210505 2.79534235,185.230724 L2.79534235,185.230724 L2.40068144,9.79047347 C2.39278823,5.81069238 4.25427217,2.26412979 7.1537143,0 L7.1537143,0 C3.2492024,2.05613191 0.582610198,6.18031918 0.593103448,10.913927" id="Fill-90" fill="url(#linearGradient-8)" mask="url(#mask-7)"></path>
                        </g>
                        <g id="Group-126" transform="translate(8.325042, 198.000000)">
                            <path d="M7.062511,1.99996643 L77.2966981,1.86722529 C80.0247162,1.86280059 82.5602464,1.17586522 84.6749583,0 C82.8071619,0.765473875 80.7004151,1.19688256 78.466228,1.20130727 L5.89032608,1.33847311 C3.65613898,1.34289781 1.54540964,0.91812618 -0.325041713,0.160395537 C1.79498015,1.32741134 4.33449288,2.00549731 7.062511,1.99996643" id="Fill-122" fill="#333333"></path>
                            <path d="M7.062511,2.99996643 L77.2966981,2.86722529 C80.0247162,2.86280059 82.5602464,2.17586522 84.6749583,1 C82.8071619,1.76547388 80.6990876,2.19688256 78.466228,2.20130727 L5.89032608,2.33847311 C3.65613898,2.34289781 1.54540964,1.91812618 -0.325041713,1.16039554 C1.79498015,2.32741134 4.33449288,3.00549731 7.062511,2.99996643" id="Fill-124" fill="#808080"></path>
                        </g>
                    </g>
                    <g id="Group-13">
                        <g id="Group-86" transform="translate(0.331034, 0.000000)">
                            <mask id="mask-10" fill="white">
                                <use xlink:href="#path-9"></use>
                            </mask>
                            <g id="Clip-85"></g>
                            <path d="M85.6706236,0 L15.2114571,0.158449943 C7.16161595,0.178256186 0.650598728,6.73280218 0.669004444,14.8005451 L0.669004444,14.8005451 L1.05901948,187.425156 C1.07746428,195.492899 7.61878369,202.019717 15.6686249,201.999955 L15.6686249,201.999955 L86.1264739,201.84146 C94.1763151,201.821654 100.687332,195.267108 100.668927,187.199365 L100.668927,187.199365 L100.278912,14.5734335 C100.261784,6.51889475 93.7389096,0 85.7061958,0 L85.7061958,0 C85.6943384,0 85.682481,0 85.6706236,0 M2.44238007,187.477973 L2.05237319,14.7411264 C2.0365943,7.25172574 8.08122137,1.1659275 15.5540036,1.14876209 L15.5540036,1.14876209 L85.3333471,0.990275765 C92.8048119,0.973146735 98.8784236,7.03253665 98.895551,14.5219373 L98.895551,14.5219373 L99.2855632,187.257463 C99.3026542,194.748185 93.2567097,200.835303 85.7839275,200.851148 L85.7839275,200.851148 L16.0059014,201.009598 C15.996679,201.009598 15.9861391,201.009598 15.9755992,201.009598 L15.9755992,201.009598 C8.51599185,201.009598 2.4595074,194.958131 2.44238007,187.477973" id="Fill-84" mask="url(#mask-10)"></path>
                        </g>
                        <g id="Group-12">
                            <g id="Group-11">
                                <g id="Group-99">
                                    <path d="M85.6124473,2.00003357 L15.3782602,2.13277471 C12.6502421,2.13719941 10.1147119,2.82413478 8,4 C9.86779635,3.23452612 11.9745432,2.80311744 14.2087303,2.79869273 L86.7846322,2.66152689 C89.0188193,2.65710219 91.1295486,3.08187382 93,3.83960446 C90.8799781,2.67258866 88.3404654,1.99450269 85.6124473,2.00003357" id="Fill-93" fill="#333333"></path>
                                    <path d="M85.6124473,2.00003357 L15.3782602,2.13277471 C12.6502421,2.13719941 10.1147119,2.82413478 8,4 C9.86779635,3.23452612 11.9758707,2.80311744 14.2087303,2.79869273 L86.7846322,2.66152689 C89.0188193,2.65710219 91.1295486,3.08187382 93,3.83960446 C90.8799781,2.67258866 88.3404654,1.99450269 85.6124473,2.00003357" id="Fill-95" fill="#464448"></path>
                                    <path d="M14.8302297,0.554880284 C6.85383704,0.573329805 0.380473548,7.03856891 0.397669723,14.9692271 L0.790029101,187.256121 C0.808585016,195.185461 7.31243323,201.623026 15.2875004,201.604616 L86.1710958,201.44512 C94.1461629,201.427988 100.620852,194.961431 100.602336,187.030773 L100.209971,14.7451972 C100.19274,6.81453902 93.6888922,0.376974194 85.7124996,0.395384157 L14.8302297,0.554880284 Z M86.1710958,201.840467 L15.2888258,201.999962 C7.09373851,202.018373 0.410958265,195.40422 0.39240235,187.256121 L3.85644549e-05,14.9705449 C-0.0184786248,6.82244596 6.63381691,0.177982937 14.8289042,0.159533417 L85.7124996,3.83433368e-05 C93.9075869,-0.0183726735 100.589042,6.59578042 100.607598,14.7438794 L100.999961,187.029455 C101.018479,195.177554 94.3675085,201.822017 86.1710958,201.840467 L86.1710958,201.840467 Z" id="Fill-97" fill="#471E0F"></path>
                                </g>
                                <g id="Fill-128" transform="translate(6.227669, 5.000000)" fill="#FFFFFF">
                                    <path d="M0.398729004,183.482455 L0,7.71742995 C-0.00925322665,3.55691154 3.35924941,0.176076663 7.52252262,0.166810475 L81.0679427,0 C85.2325405,-0.00924709638 88.615614,3.35570289 88.6248863,7.51754503 L89.0222965,183.281246 C89.0328685,187.443088 85.6643659,190.823923 81.5010927,190.83319 L7.95434797,191 C3.79107476,191.009247 0.408001327,187.642973 0.398729004,183.482455" id="Fill-127"></path>
                                </g>
                                <path d="M80.108634,194 L20.6399255,194 C20.1975032,194 19.8398565,193.512342 19.8398565,192.910897 L19.8398565,192.089103 C19.8398565,191.487658 20.1975032,191 20.6399255,191 L80.108634,191 C80.5497317,191 80.9073785,191.487658 80.9073785,192.089103 L80.9073785,192.910897 C80.9073785,193.512342 80.5497317,194 80.108634,194" id="Fill-129" fill="#6D6E71"></path>
                                <path d="M72.1349658,119 L72.1349658,97.3325662 C66.5397809,96.8630788 62.0016409,96.9419843 58.3536439,97.8888495 C48.8971987,100.342809 44.3948233,106.714423 42.6370557,112.307504 C41.8409605,114.837738 41.5813355,116.606535 41.5813355,116.606535 L41.5813355,67 L24.1215505,67 L24.1215505,119 L72.1349658,119 Z" id="Fill-131" fill="#C5A0CA"></path>
                                <path d="M64.03122,74.0240857 C64.1080478,74.123444 64.2034203,74.2151593 64.3067405,74.2903149 C75.8507831,82.6274928 88.9048899,70.0752314 80.2352675,58.9725816 C80.1584397,58.8732233 80.0630672,58.7827818 79.959747,58.7076262 C68.417029,50.3755435 55.3682207,62.9227097 64.03122,74.0240857 Z" id="Fill-133" fill="#C5A0CA"></path>
                            </g>
                            <polygon id="Fill-110" fill="#582C12" points="25.5375667 201.896 24.5441035 201.898 24.5414543 201.104 25.5349175 201.102"></polygon>
                            <polygon id="Fill-112" fill="#582C12" points="2.23542323 179.896 1.04724122 179.898 1.04459198 179.104 2.23277399 179.102"></polygon>
                            <polygon id="Fill-114" fill="#582C12" points="100.791346 179.896 99.6031642 179.898 99.6005149 179.104 100.788697 179.102"></polygon>
                            <polygon id="Fill-116" fill="#582C12" points="1.88704879 26.792 0.698866778 26.796 0.696217543 25.208 1.88439956 25.204"></polygon>
                            <polygon id="Fill-118" fill="#582C12" points="100.442839 25.896 99.2546573 25.898 99.252008 25.104 100.44019 25.102"></polygon>
                            <polygon id="Fill-120" fill="#582C12" points="72.7307788 201.896 71.7373155 201.898 71.7346663 201.104 72.7281295 201.102"></polygon>
                        </g>
                    </g>
                </g>
            </g>
        </g>
    </g>
</svg>