<?xml version="1.0" encoding="UTF-8"?>
<svg width="101px" height="34px" viewBox="0 0 101 34" version="1.1" xmlns="http://www.w3.org/2000/svg" xmlns:xlink="http://www.w3.org/1999/xlink">
    <title>Group</title>
    <g id="Design" stroke="none" stroke-width="1" fill="none" fill-rule="evenodd">
        <g id="Register-filled" transform="translate(-928.000000, -835.000000)" fill="#2A1630">
            <g id="Group" transform="translate(928.483745, 835.444549)">
                <path d="M19.4493675,3.87465943 C19.8691371,6.50890202 17.3709338,9.62174973 14.7119677,9.32437642 C14.6941051,9.17505162 14.6456211,9.01168774 14.6583801,8.85470526 C14.7974527,7.15980499 15.5438515,5.79929016 16.9333016,4.81017291 C17.5291448,4.38644784 18.1836792,4.07886429 18.9032842,3.93081577 C19.0831855,3.89380364 19.2694662,3.89252736 19.4493675,3.87465943" id="Fill-22"></path>
                <path d="M4.9645092,1.15248113 C2.87331655,1.15248113 1.17254792,2.82313208 1.17254792,4.8779434 L1.17254792,28.104969 C1.17254792,30.1597803 2.87331655,31.8304313 4.9645092,31.8304313 L95.2558025,31.8304313 C97.3469952,31.8304313 99.0477638,30.1597803 99.0477638,28.104969 L99.0477638,4.8779434 C99.0477638,2.82313208 97.3469952,1.15248113 95.2558025,1.15248113 L4.9645092,1.15248113 Z M95.2558025,32.9829124 L4.9645092,32.9829124 C2.22643756,32.9829124 0,30.7953679 0,28.104969 L0,4.8779434 C0,2.18882075 2.22643756,4.54747351e-13 4.9645092,4.54747351e-13 L95.2558025,4.54747351e-13 C97.9938742,4.54747351e-13 100.220312,2.18882075 100.220312,4.8779434 L100.220312,28.104969 C100.220312,30.7953679 97.9938742,32.9829124 95.2558025,32.9829124 L95.2558025,32.9829124 Z" id="Fill-24"></path>
                <path d="M21.295333,16.8828914 C21.4344056,19.0015167 22.5852633,20.4488186 24.4723127,21.3868846 C24.4212769,21.570669 24.3842759,21.7429668 24.3243088,21.9063307 C23.955575,22.9031057 23.4707348,23.8398954 22.8659603,24.7154237 C22.3798441,25.4199305 21.8988316,26.1231609 21.2851258,26.7306704 C20.2873756,27.717235 19.1365179,27.9227162 17.8402081,27.4772943 C17.4816815,27.3547714 17.1346379,27.1939601 16.7786631,27.061227 C15.6992556,26.6617512 14.619848,26.6783429 13.5442682,27.0790949 C13.1206709,27.2373536 12.7060048,27.4185854 12.2798558,27.5653577 C11.398212,27.8678361 10.5395344,27.8359291 9.76634172,27.2730895 C9.40271152,27.0088995 9.05056438,26.7140787 8.75710842,26.3771407 C7.68152856,25.1429776 6.78074637,23.792673 6.1555576,22.2700706 C5.64009584,21.0129345 5.23563698,19.7251677 5.08508132,18.3684817 C5.02128654,17.8043658 4.95238819,17.2338685 4.96514714,16.6672 C4.99832043,15.1879911 5.27901742,13.762386 6.08793514,12.4912108 C7.06271926,10.9571218 8.43047919,10.0126744 10.2499061,9.72551132 C11.3076234,9.55959488 12.2722004,9.83527143 13.2303979,10.2207081 C13.5378887,10.3445073 13.851759,10.4568199 14.1618015,10.575514 C14.6377106,10.7567458 15.1097919,10.7554695 15.584425,10.5678563 C16.0258848,10.3917296 16.475,10.2334709 16.9151839,10.0573442 C18.4309477,9.45111105 19.9505392,9.43196685 21.466303,10.0445814 C22.2943591,10.3802431 23.003757,10.889479 23.5728064,11.586328 C23.6621191,11.6960881 23.7386728,11.8147822 23.8509516,11.9692121 C22.1361481,13.1880598 21.1575363,14.7655423 21.295333,16.8828914 Z" id="Fill-26"></path>
                <path d="M90.0028134,8.54086792 C89.372521,8.54086792 89.1084106,9.11264151 89.0663061,9.52743261 L90.8398008,9.52743261 C90.848732,9.15348248 90.6815897,8.54086792 90.0028134,8.54086792 L90.0028134,8.54086792 Z M50.3594658,10.753938 C50.3594658,11.1521375 50.6159208,11.3346456 50.9387224,11.3346456 C51.3533884,11.3346456 51.6430167,11.0691792 51.7425365,10.7794636 C51.7680544,10.7041631 51.7680544,10.6301388 51.7680544,10.5548383 L51.7680544,9.99965633 C51.0471735,9.99199865 50.3594658,10.1400472 50.3594658,10.753938 L50.3594658,10.753938 Z M69.9738066,8.58170889 C69.2516498,8.58170889 68.9620215,9.28621563 68.9620215,9.95753908 C68.9620215,10.7373464 69.3524455,11.3257116 69.9648753,11.3257116 C70.5454077,11.3257116 70.9511425,10.762872 70.9511425,9.94222372 C70.9511425,9.31174124 70.6691696,8.58170889 69.9738066,8.58170889 L69.9738066,8.58170889 Z M63.1260757,8.54086792 C62.4957833,8.54086792 62.2303971,9.11264151 62.1895684,9.52743261 L63.9630631,9.52743261 C63.9707185,9.15348248 63.8048521,8.54086792 63.1260757,8.54086792 L63.1260757,8.54086792 Z M55.788401,8.64041779 C55.3750108,8.64041779 54.9935181,8.93906739 54.885067,9.3857655 C54.8684803,9.46106604 54.8518937,9.55168194 54.8518937,9.65123181 L54.8518937,10.3059636 C54.8518937,10.3889218 54.860825,10.4718801 54.8774116,10.5471806 C54.9845868,10.9606954 55.3405617,11.259345 55.7794697,11.259345 C56.4186933,11.259345 56.8078414,10.753938 56.8078414,9.93328976 C56.8078414,9.22112534 56.4684532,8.64041779 55.788401,8.64041779 L55.788401,8.64041779 Z M91.7750321,21.8243935 L86.5515162,21.8243935 C86.5719305,22.5965431 86.8245578,23.1861846 87.3093981,23.5945943 C87.749582,23.9608868 88.3186314,24.1433949 89.0178221,24.1433949 C89.7922906,24.1433949 90.495309,24.020872 91.129429,23.7694447 L91.4037466,24.9806348 C90.6650031,25.3060863 89.787187,25.4630687 88.774126,25.4630687 C87.5620254,25.4630687 86.6076556,25.1082628 85.9148443,24.3935458 C85.2220331,23.6788288 84.8724378,22.719066 84.8724378,21.5155337 C84.8724378,20.3311456 85.1977911,19.349686 85.8408424,18.562221 C86.5208947,17.7237049 87.4344358,17.3050849 88.5827417,17.3050849 C89.714461,17.3050849 90.5667591,17.7237049 91.1460157,18.562221 C91.6066139,19.2297156 91.8388269,20.0529164 91.8388269,21.0318235 C91.8388269,21.3419596 91.8158608,21.6048733 91.7750321,21.8243935 L91.7750321,21.8243935 Z M84.589189,9.55168194 L84.589189,11.9727857 L83.5710244,11.9727857 L83.5710244,6.08785714 L84.589189,6.08785714 L84.589189,8.48215903 L84.6057756,8.48215903 C84.7295375,8.29199326 84.9043351,8.13501078 85.1110302,8.02652695 C85.3190012,7.91038544 85.5588695,7.84401887 85.8166004,7.84401887 C86.504308,7.84401887 87.225189,8.29965094 87.225189,9.59379919 L87.225189,11.9727857 L86.2057485,11.9727857 L86.2057485,9.70100674 C86.2057485,9.12157547 85.9901222,8.67360108 85.4261764,8.67360108 C85.0293729,8.67360108 84.7474,8.93906739 84.6312935,9.24537466 C84.5981202,9.33599057 84.589189,9.44447439 84.589189,9.55168194 L84.589189,9.55168194 Z M84.3250786,19.0140243 C84.1541086,18.9833935 83.9691038,18.9693544 83.7777195,18.9693544 C83.1640137,18.9693544 82.6932083,19.2003612 82.3589237,19.6610984 C82.0680196,20.0707844 81.9238434,20.5800202 81.9238434,21.2079501 L81.9238434,25.3201253 L80.1822461,25.3201253 L80.1822461,19.9482615 C80.1822461,19.0497601 80.1669353,18.2265593 80.1363138,17.4824879 L81.6508017,17.4824879 L81.7158724,18.9833935 L81.7630805,18.9833935 C81.9455336,18.4690526 82.233886,18.0529852 82.6332412,17.7441253 C83.0211135,17.4607911 83.442159,17.3255054 83.89255,17.3255054 C84.052037,17.3255054 84.198765,17.3344394 84.3250786,17.3548598 L84.3250786,19.0140243 Z M79.8556168,7.93591105 L80.4284939,7.93591105 L80.4284939,7.18162938 L81.4313477,6.89957143 L81.4313477,7.93591105 L82.3997524,7.93591105 L82.3997524,8.6978504 L81.4313477,8.6978504 L81.4313477,10.480814 C81.4313477,10.9785633 81.562765,11.2261617 81.953189,11.2261617 C82.1343661,11.2261617 82.233886,11.218504 82.3512683,11.1853208 L82.367855,11.9561941 C82.2172993,12.0136267 81.9442577,12.0634016 81.6303874,12.0634016 C81.2488947,12.0634016 80.9414039,11.9396024 80.7512955,11.732845 C80.5280137,11.500562 80.4284939,11.1266119 80.4284939,10.5969555 L80.4284939,8.6978504 L79.8556168,8.6978504 L79.8556168,7.93591105 Z M78.0566043,24.3067588 C77.3344474,25.1006051 76.3775258,25.4975283 75.1883913,25.4975283 C74.0362577,25.4975283 73.1163371,25.1171968 72.4350089,24.3527049 C71.7536807,23.5907655 71.4142925,22.6258976 71.4142925,21.4657588 C71.4142925,20.2520162 71.7651638,19.2565175 72.4681822,18.4830916 C73.1737524,17.7071132 74.1191909,17.3242291 75.3121531,17.3242291 C76.4668385,17.3242291 77.3893109,17.7020081 78.0885016,18.4690526 C78.7532432,19.2067426 79.0862519,20.1665054 79.0862519,21.3381307 C79.0862519,22.5454919 78.7455878,23.5307803 78.0566043,24.3067588 L78.0566043,24.3067588 Z M69.931702,12.0634016 C68.7961551,12.0634016 67.9094077,11.2848706 67.9094077,9.98306469 C67.9094077,8.65700943 68.7795684,7.84401887 69.9980486,7.84401887 C71.1999421,7.84401887 72.0037562,8.69019272 72.0037562,9.91669811 C72.0037562,11.4010121 70.9587979,12.0634016 69.931702,12.0634016 L69.931702,12.0634016 Z M70.9141415,18.7868464 L68.992643,18.7868464 L68.992643,22.5965431 C68.992643,23.5639636 69.3333071,24.043845 70.0108076,24.043845 C70.322126,24.043845 70.578581,24.020872 70.7840002,23.9672682 L70.8337601,25.286942 C70.4892683,25.4158464 70.0388773,25.4809367 69.480035,25.4809367 C68.7948792,25.4809367 68.2538995,25.2741792 67.8685791,24.8517305 C67.4781551,24.4343868 67.2854949,23.7298801 67.2854949,22.7407628 L67.2854949,18.7868464 L66.1422925,18.7868464 L66.1422925,17.4824879 L67.2854949,17.4824879 L67.2854949,16.0479488 L68.992643,15.5323315 L68.992643,17.4824879 L70.9141415,17.4824879 L70.9141415,18.7868464 Z M64.7758085,24.5288315 C64.0651348,25.1644191 63.0788676,25.4796604 61.8157311,25.4796604 C60.6431832,25.4796604 59.7066759,25.2524825 58.9998298,24.8032318 L59.4030128,23.3521011 C60.1659983,23.8013518 61.0042616,24.0298059 61.9152509,24.0298059 C62.573613,24.0298059 63.0826953,23.8804811 63.4488773,23.5869367 C63.8125075,23.2921159 63.9949605,22.8977453 63.9949605,22.3974434 C63.9949605,21.9622318 63.8444048,21.5908342 63.5458453,21.2883558 C63.2421822,20.9871536 62.7458589,20.7102008 62.0466682,20.4498396 C60.1455839,19.7427803 59.1937659,18.7038881 59.1937659,17.3395445 C59.1937659,16.4474245 59.5254987,15.7148396 60.1991715,15.1443423 C60.8702925,14.5763976 61.7595917,14.2905108 62.8683448,14.2905108 C63.8571638,14.2905108 64.6788405,14.4640849 65.3359266,14.806128 L64.8970186,16.2253518 C64.2833129,15.8935189 63.5879499,15.7250499 62.8109295,15.7250499 C62.1972238,15.7250499 61.7162112,15.8807561 61.3704436,16.1743005 C61.0808153,16.4474245 60.9353632,16.7754286 60.9353632,17.1608652 C60.9353632,17.5884191 61.1025055,17.9445013 61.4342383,18.2278356 C61.7251425,18.4843679 62.2520873,18.762597 63.012521,19.0637992 C63.9503042,19.436473 64.6367359,19.8806186 65.0781957,20.3873019 C65.5183797,20.8927089 65.7391096,21.5206388 65.7391096,22.2710916 C65.7391096,23.1963949 65.416308,23.9519528 64.7758085,24.5288315 L64.7758085,24.5288315 Z M56.0129586,12.0634016 C55.4898414,12.0634016 55.0254155,11.8655782 54.7357872,11.3678288 L54.7192006,11.3678288 L54.6694407,11.9727857 L53.79928,11.9727857 C53.8158666,11.6983854 53.8324532,11.2516873 53.8324532,10.8368962 L53.8324532,6.08785714 L54.8518937,6.08785714 L54.8518937,8.49109299 L54.8684803,8.49109299 C55.11728,8.10182749 55.556188,7.84401887 56.1609624,7.84401887 C57.1472296,7.84401887 57.8515239,8.66466712 57.8438685,9.89117251 C57.8438685,11.3423032 56.9239479,12.0634016 56.0129586,12.0634016 L56.0129586,12.0634016 Z M54.8161686,24.4675701 C54.1680137,25.1529326 53.3641996,25.4975283 52.4008985,25.4975283 C51.3648714,25.4975283 50.6184726,25.127407 50.1668056,24.3833356 L50.1668056,28.4993396 L48.4252083,28.4993396 L48.4252083,20.0580216 C48.4252083,19.2195054 48.4022422,18.3631213 48.3601377,17.4824879 L49.8873845,17.4824879 L49.9881803,18.7243086 L50.0188017,18.7243086 C50.6031619,17.7913477 51.4809779,17.3242291 52.6624571,17.3242291 C53.5874813,17.3242291 54.3593981,17.6866927 54.9769315,18.4205539 C55.5970167,19.14931 55.9045075,20.1141779 55.9045075,21.3062237 C55.9045075,22.6437655 55.543429,23.6928679 54.8161686,24.4675701 L54.8161686,24.4675701 Z M47.0025849,11.9727857 L48.0207495,11.9727857 L48.0207495,6.08785714 L47.0025849,6.08785714 L47.0025849,11.9727857 Z M46.2089779,24.4675701 C45.5620989,25.1529326 44.7544571,25.4975283 43.7937078,25.4975283 C42.753853,25.4975283 42.010006,25.127407 41.5570631,24.3833356 L41.5570631,28.4993396 L39.8167417,28.4993396 L39.8167417,20.0580216 C39.8167417,19.2195054 39.7950515,18.3631213 39.7503952,17.4824879 L41.2827456,17.4824879 L41.3784378,18.7243086 L41.4090592,18.7243086 C41.9921435,17.7913477 42.8725113,17.3242291 44.0552664,17.3242291 C44.9802906,17.3242291 45.7483797,17.6866927 46.3710167,18.4205539 C46.9872742,19.14931 47.2973167,20.1141779 47.2973167,21.3062237 C47.2973167,22.6437655 46.9349624,23.6928679 46.2089779,24.4675701 L46.2089779,24.4675701 Z M39.3918685,10.8611456 C39.3918685,9.85033154 40.2952025,9.32833288 41.7867243,9.33599057 L41.7867243,9.26962399 C41.7867243,9.00543396 41.6782732,8.56511725 40.9663235,8.56511725 C40.5682441,8.56511725 40.1535781,8.69019272 39.8805365,8.86376685 L39.6814968,8.20137736 C39.9800563,8.01886927 40.5018976,7.84401887 41.1398453,7.84401887 C42.4323274,7.84401887 42.8061648,8.66466712 42.8061648,9.55168194 L42.8061648,11.0028127 C42.8061648,11.3678288 42.8214755,11.7239111 42.8725113,11.9727857 L41.9513148,11.9727857 L41.8773129,11.5248113 L41.8530709,11.5248113 C41.6119266,11.8400526 41.1896052,12.0634016 40.6588327,12.0634016 C39.8473632,12.0634016 39.3918685,11.4750364 39.3918685,10.8611456 L39.3918685,10.8611456 Z M37.2930205,11.9727857 L36.2901667,11.9727857 L34.7897136,7.93591105 L35.8933632,7.93591105 L36.5466217,9.98306469 C36.6627282,10.3391469 36.7456614,10.6633221 36.8209392,10.995155 L36.8464571,10.995155 C36.9204591,10.6633221 37.0110476,10.3480809 37.1194987,9.98306469 L37.7651018,7.93591105 L38.8343022,7.93591105 L37.2930205,11.9727857 Z M36.8974929,25.3201253 L35.8831561,22.1294245 L32.3514774,22.1294245 L31.3830728,25.3201253 L29.5789566,25.3201253 L33.0749102,14.4513221 L35.237553,14.4513221 L38.7526449,25.3201253 L36.8974929,25.3201253 Z M31.3817969,6.38523046 L32.6832103,6.38523046 L34.4975336,11.9727857 L33.3964358,11.9727857 L32.8911812,10.3889218 L31.1253419,10.3889218 L30.6443293,11.9727857 L29.5917156,11.9727857 L31.3817969,6.38523046 Z M44.3831715,11.9727857 L45.4013361,11.9727857 L45.4013361,7.93591105 L44.3831715,7.93591105 L44.3831715,11.9727857 Z M44.8960815,6.2524973 C45.244401,6.2524973 45.4600273,6.49371429 45.4676827,6.80767925 C45.4676827,7.10632884 45.244401,7.3552035 44.8871502,7.3552035 C44.5477621,7.3552035 44.3244803,7.10632884 44.3244803,6.80767925 C44.3244803,6.49371429 44.5554174,6.2524973 44.8960815,6.2524973 L44.8960815,6.2524973 Z M50.9221357,8.56511725 C50.5240563,8.56511725 50.1106662,8.69019272 49.8376246,8.86376685 L49.6385849,8.20137736 C49.9358685,8.01886927 50.4589857,7.84401887 51.0969334,7.84401887 C52.3894155,7.84401887 52.7632529,8.66466712 52.7632529,9.55168194 L52.7632529,11.0028127 C52.7632529,11.3678288 52.7785636,11.7239111 52.8283235,11.9727857 L51.9084029,11.9727857 L51.834401,11.5248113 L51.810159,11.5248113 C51.5690147,11.8400526 51.1466933,12.0634016 50.6159208,12.0634016 C49.8031754,12.0634016 49.3476807,11.4750364 49.3476807,10.8611456 C49.3476807,9.85033154 50.2510147,9.32833288 51.7425365,9.33599057 L51.7425365,9.26962399 C51.7425365,9.00543396 51.6340854,8.56511725 50.9221357,8.56511725 L50.9221357,8.56511725 Z M59.0062093,11.9727857 L60.0243739,11.9727857 L60.0243739,6.08785714 L59.0062093,6.08785714 L59.0062093,11.9727857 Z M63.183491,7.84401887 C64.4925597,7.84401887 64.9238124,8.92247574 64.9238124,9.80949057 C64.9238124,9.99965633 64.9072258,10.1489811 64.8906391,10.239597 L62.1895684,10.239597 C62.2138105,10.9696294 62.7777562,11.2848706 63.4322906,11.2848706 C63.9043719,11.2848706 64.2361047,11.2095701 64.5512509,11.1023625 L64.6992548,11.7992116 C64.3522112,11.9472601 63.8711986,12.0557439 63.2906662,12.0557439 C61.9815975,12.0557439 61.2109566,11.2516873 61.2109566,10.016248 C61.2109566,8.89695013 61.8910089,7.84401887 63.183491,7.84401887 L63.183491,7.84401887 Z M73.8869779,7.93591105 L73.9367379,8.54086792 L73.9622558,8.54086792 C74.1434329,8.22562668 74.5823409,7.84401887 75.2547379,7.84401887 C75.9590321,7.84401887 76.6875684,8.29965094 76.6875684,9.57720755 L76.6875684,11.9727857 L75.6694039,11.9727857 L75.6694039,9.69207278 C75.6694039,9.11264151 75.4537775,8.67360108 74.898763,8.67360108 C74.4917524,8.67360108 74.2097795,8.96331671 74.1026043,9.26962399 C74.0681551,9.35385849 74.0528443,9.47765768 74.0528443,9.59379919 L74.0528443,11.9727857 L73.0334039,11.9727857 L73.0334039,9.13816712 C73.0334039,8.67360108 73.0168172,8.28433558 73.0002306,7.93591105 L73.8869779,7.93591105 Z M90.0615045,7.84401887 C91.3705733,7.84401887 91.8018259,8.92247574 91.8018259,9.80949057 C91.8018259,9.99965633 91.7852393,10.1489811 91.7686527,10.239597 L89.0663061,10.239597 C89.0905481,10.9696294 89.6544939,11.2848706 90.3090283,11.2848706 C90.7811096,11.2848706 91.1128424,11.2095701 91.4279886,11.1023625 L91.5772683,11.7992116 C91.2289489,11.9472601 90.7492122,12.0557439 90.1686798,12.0557439 C88.859611,12.0557439 88.0889702,11.2516873 88.0889702,10.016248 C88.0889702,8.89695013 88.7677466,7.84401887 90.0615045,7.84401887 L90.0615045,7.84401887 Z M32.2864068,8.24221833 C32.1779557,7.90272776 32.0873671,7.52111995 32.0044339,7.19822102 L31.9865713,7.19822102 C31.904914,7.52111995 31.8130496,7.91038544 31.7211851,8.24221833 L31.2912083,9.61804852 L32.7253148,9.61804852 L32.2864068,8.24221833 Z M41.7867243,10.7794636 C41.8109663,10.7041631 41.8109663,10.6301388 41.8109663,10.5548383 L41.8109663,9.99965633 C41.0900854,9.99199865 40.4023777,10.1400472 40.4023777,10.753938 C40.4023777,11.1521375 40.6588327,11.3346456 40.9829102,11.3346456 C41.3963003,11.3346456 41.6859286,11.0691792 41.7867243,10.7794636 L41.7867243,10.7794636 Z M88.4538763,18.5137224 C87.8848269,18.5137224 87.4229528,18.7562156 87.0669779,19.2258868 C86.7773497,19.6011132 86.6038279,20.0529164 86.5515162,20.5774677 L90.177611,20.5774677 C90.1878182,20.0631267 90.0768153,19.6189811 89.8407746,19.2412022 C89.5383874,18.7587682 89.0752374,18.5137224 88.4538763,18.5137224 L88.4538763,18.5137224 Z M34.1083855,15.9037291 L34.077764,15.9037291 C33.968037,16.3657426 33.7983429,17.0472763 33.5597504,17.9508827 L32.6564165,20.7906065 L35.5743894,20.7906065 L34.6595723,17.9508827 C34.5600525,17.6598908 34.3750476,16.9770809 34.1083855,15.9037291 L34.1083855,15.9037291 Z M52.0997872,18.7064407 C51.6685346,18.7064407 51.2832141,18.8481078 50.9323429,19.1327183 C50.5827475,19.4211577 50.3530864,19.7951078 50.2446352,20.2583976 C50.1910476,20.4740889 50.1668056,20.6502156 50.1668056,20.7906065 L50.1668056,22.094965 C50.1668056,22.6667385 50.3377756,23.1478962 50.6886469,23.5409906 C51.0382422,23.9302561 51.492461,24.1268032 52.0487514,24.1268032 C52.7083894,24.1268032 53.2174716,23.8766523 53.5836536,23.3686927 C53.9498356,22.864562 54.1335646,22.1983437 54.1335646,21.3674852 C54.1335646,20.6068221 53.9600428,19.9763396 53.6168269,19.4836954 C53.237886,18.9693544 52.7326314,18.7064407 52.0997872,18.7064407 L52.0997872,18.7064407 Z M75.2483584,18.5979569 C74.5517195,18.5979569 74.0196711,18.908093 73.6560409,19.5309178 C73.3408947,20.0427062 73.1865113,20.6680836 73.1865113,21.4096024 C73.1865113,22.1294245 73.3408947,22.7445916 73.6560409,23.2589326 C74.0286023,23.8804811 74.5555471,24.189341 75.2355994,24.189341 C75.8977892,24.189341 76.4209063,23.8766523 76.7947437,23.2397884 C77.120097,22.719066 77.2821357,22.094965 77.2821357,21.3789717 C77.2821357,20.6617022 77.1264765,20.0427062 76.8164339,19.5309178 C76.4464242,18.908093 75.9271348,18.5979569 75.2483584,18.5979569 L75.2483584,18.5979569 Z M43.4887688,18.7064407 C43.060068,18.7064407 42.6721957,18.8481078 42.3226004,19.1327183 C41.9717291,19.4211577 41.7446197,19.7951078 41.6361686,20.2583976 C41.5838569,20.4740889 41.5570631,20.6502156 41.5570631,20.7906065 L41.5570631,22.094965 C41.5570631,22.6667385 41.7280331,23.1478962 42.0801803,23.5409906 C42.4284997,23.9302561 42.8839944,24.1268032 43.4415607,24.1268032 C44.0948192,24.1268032 44.609005,23.8766523 44.9739111,23.3686927 C45.3400931,22.864562 45.5199944,22.1983437 45.5199944,21.3674852 C45.5199944,20.6068221 45.3503003,19.9763396 45.0058085,19.4836954 C44.6281435,18.9693544 44.1241648,18.7064407 43.4887688,18.7064407 L43.4887688,18.7064407 Z" id="Fill-28"></path>
            </g>
        </g>
    </g>
</svg>