<?xml version="1.0" encoding="UTF-8"?>
<svg width="10px" height="10px" viewBox="0 0 10 10" version="1.1" xmlns="http://www.w3.org/2000/svg" xmlns:xlink="http://www.w3.org/1999/xlink">
    <title>arrow_carrot-2right copy</title>
    <g id="Design" stroke="none" stroke-width="1" fill="none" fill-rule="evenodd">
        <g id="complete-profile---date-picker" transform="translate(-580.000000, -236.000000)" fill="#25182E" fill-rule="nonzero">
            <g id="Group-21" transform="translate(560.000000, 213.000000)">
                <g id="Group-2" transform="translate(20.000000, 18.000000)">
                    <g id="arrow_carrot-2right-copy" transform="translate(5.000000, 10.000000) scale(-1, 1) translate(-5.000000, -10.000000) translate(0.000000, 5.000000)">
                        <path d="M9.81625,4.57 L6.1175,0.38875 C5.8725,0.14375 5.47375,0.14375 5.22875,0.38875 C4.98375,0.63375 4.98375,1.0325 5.22875,1.2775 L8.54125,5.0225 L5.22875,8.7675 C4.98375,9.0125 4.98375,9.41125 5.22875,9.65625 C5.47375,9.90125 5.8725,9.90125 6.1175,9.65625 L9.81625,5.475 C9.94125,5.35 10.00125,5.18625 9.99875,5.0225 C10,4.85875 9.94125,4.695 9.81625,4.57 Z M0.745,9.6575 C0.99,9.9025 1.38875,9.9025 1.63375,9.6575 L5.3325,5.47625 C5.4575,5.35125 5.5175,5.1875 5.515,5.02375 C5.5175,4.86 5.4575,4.695 5.3325,4.57125 L1.635,0.38875 C1.39,0.14375 0.99125,0.14375 0.74625,0.38875 C0.50125,0.63375 0.50125,1.0325 0.74625,1.2775 L4.05875,5.0225 L0.74625,8.7675 C0.5,9.01375 0.5,9.4125 0.745,9.6575 Z" id="Shape"></path>
                    </g>
                </g>
            </g>
        </g>
    </g>
</svg>