<svg width="5" height="9" viewBox="0 0 5 9" fill="none" xmlns="http://www.w3.org/2000/svg">
<path d="M4.66492 4.09018C4.65436 4.19148 4.61288 4.28707 4.5461 4.36397L1.57059 7.83539C1.46385 7.99335 1.27602 8.07615 1.08742 8.04839C0.898811 8.02063 0.74281 7.88722 0.686116 7.7052C0.629422 7.52319 0.682072 7.32479 0.821553 7.19483L3.52327 4.04369L0.821553 0.892547C0.682072 0.762592 0.629422 0.564192 0.686116 0.382178C0.74281 0.200164 0.898811 0.0667544 1.08742 0.0389921C1.27602 0.0112297 1.46385 0.0940288 1.57059 0.251986L4.5461 3.72341C4.63354 3.82464 4.67639 3.9569 4.66492 4.09018Z" fill="#25182E"/>
</svg>
