<?xml version="1.0" encoding="UTF-8"?>
<svg width="360px" height="156px" viewBox="0 0 360 156" version="1.1" xmlns="http://www.w3.org/2000/svg" xmlns:xlink="http://www.w3.org/1999/xlink">
    <title>Group 7</title>
    <defs>
        <rect id="path-1" x="0" y="0" width="360" height="127"></rect>
    </defs>
    <g id="Page-1" stroke="none" stroke-width="1" fill="none" fill-rule="evenodd">
        <g id="LL21---Home-Copy-15" transform="translate(0.000000, -465.000000)">
            <g id="Group-7" transform="translate(0.000000, 465.000000)">
                <g id="Path">
                    <mask id="mask-2" fill="white">
                        <use xlink:href="#path-1"></use>
                    </mask>
                    <g id="Mask"></g>
                    <path d="M302.913942,-288.192377 C305.370303,-293.841331 310.758979,-298.382221 317.021305,-298.884296 C323.620119,-299.707395 330.451124,-296.067274 333.615023,-290.248603 C333.995665,-289.698861 334.290069,-288.551817 335.205955,-288.941077 C341.870163,-290.474385 348.902985,-290.495228 355.546715,-288.854903 C363.088151,-286.899624 370.05832,-282.736432 375.260176,-276.935942 C381.856021,-269.664524 385.710329,-259.959715 385.757528,-250.132734 C389.965376,-249.719686 394.312843,-248.352801 397.289465,-245.211788 C402.341882,-240.585089 403.760383,-232.656865 401.048308,-226.443304 C400.465453,-224.948642 399.258071,-223.733239 398.883367,-222.161288 C403.02582,-213.469301 404.155871,-203.366179 401.753029,-194.014648 C400.533755,-188.83521 398.026922,-184.059866 394.931234,-179.748105 L395.050185,-179.284537 C398.003132,-176.948899 400.631923,-173.977298 401.631109,-170.266202 C403.626512,-164.123996 401.720324,-156.923934 396.840346,-152.66238 C394.844943,-150.757613 392.245842,-149.747301 389.750884,-148.695378 C391.18423,-143.141513 392.382644,-137.394882 391.764101,-131.621017 C390.842261,-118.908625 383.389971,-106.963039 372.461733,-100.425412 C372.857243,-99.7211523 373.484747,-99.2070425 374.121105,-98.7137916 C380.942899,-93.2936616 386.016175,-85.6834188 388.154623,-77.2264946 C390.435507,-68.745988 389.442259,-59.7093952 386.608302,-51.4867727 C390.509885,-49.0322336 393.620417,-45.12761 394.589608,-40.5689193 C396.017016,-34.6168939 393.843191,-27.9516174 389.180301,-23.9844626 C387.122473,-22.0707954 384.422273,-21.1763408 381.897549,-20.0739054 C381.552596,-11.8725831 378.370671,-3.86144083 373.276764,2.55142875 C372.902067,3.10413748 372.099133,3.73708694 372.628485,4.47696321 C375.194851,10.0248942 377.163456,16.0246928 376.952352,22.2024999 C377.460867,32.2995364 373.59798,42.4087445 366.912532,49.9299831 C365.859828,51.1364089 364.601882,52.149764 363.60871,53.3978013 C363.784163,54.3189571 364.54547,54.9965304 365.003383,55.7928521 C366.04718,57.1716571 366.72518,59.1032012 368.589718,59.5578075 C371.807363,60.7196552 374.849532,62.6304317 376.848132,65.4622879 C381.282005,71.277612 381.270129,80.0437688 376.779736,85.8176336 C375.147162,87.9898696 372.863308,89.505376 370.632973,90.9881714 C369.618942,92.3521423 369.217441,94.0667291 368.438342,95.5673254 C364.260184,104.966021 356.177856,112.472806 346.610793,116.198812 C336.62807,120.237171 325.179113,119.693408 315.293834,115.640155 C313.524457,119.081196 311.419048,122.596559 307.939674,124.542861 C302.128941,128.147381 294.105612,127.764054 288.71115,123.538482 C285.689764,121.384123 283.923356,117.990551 282.60306,114.620562 C276.735841,116.507528 270.628056,118.189404 264.400748,117.725821 C254.206388,117.294942 244.22671,112.825719 237.208428,105.409003 C235.742347,103.961886 234.564716,102.262133 233.199809,100.722816 C232.20953,101.673716 231.576141,102.900986 230.734541,103.973677 C224.335032,112.603285 214.37606,118.602323 203.658697,119.862836 C194.772985,121.078238 185.56601,119.182349 177.798625,114.730942 C174.836772,117.03988 171.497245,119.164495 167.661361,119.494343 C161.496708,120.367954 155.115393,117.384562 151.596736,112.300214 C148.165018,114.855777 144.694626,117.42024 140.784212,119.209073 C129.061954,124.397411 114.808425,123.78526 103.763709,117.173538 C102.172777,116.210771 100.254645,116.644602 98.5030815,116.463338 C89.9294957,116.112691 81.6718429,112.671605 74.965688,107.406205 C74.3679578,106.749491 73.5293725,107.138767 72.8780937,107.447807 C64.5869444,111.503966 54.8866576,112.671823 45.8821848,110.553066 C36.2176783,108.431342 27.4682358,102.476502 21.8545241,94.355055 C21.6255449,94.1084143 21.1794779,93.6091918 20.9594058,93.3655104 C18.0777918,93.1961285 15.1605497,93.5943197 12.3150205,93.029721 C3.48259803,91.5260818 -4.45683779,85.5829568 -8.25184091,77.4585433 C-11.3891704,71.0102242 -11.8025478,63.3585982 -9.68518733,56.5326576 C-8.34997048,52.295219 -5.88767197,48.497933 -2.89902136,45.2435729 C-2.79791517,44.2480947 -3.47593035,43.3447397 -3.74655937,42.420617 C-6.76193106,34.9619857 -6.86607478,26.6828417 -5.50406072,18.8618794 C-7.78197613,15.509995 -9.70003238,11.688518 -9.45619296,7.50737272 C-9.62570056,-0.369882856 -3.46107769,-7.56401188 4.25301792,-8.91657203 C4.25004435,-12.3427788 3.80100527,-15.890853 5.11836999,-19.153581 C5.78747053,-21.4505751 7.56574733,-23.1414274 8.58876141,-25.2482414 C2.33793069,-27.0281741 -3.37482416,-31.2389114 -6.14057067,-37.214367 C-9.95293108,-44.9257856 -8.35301562,-54.5739974 -3.00324121,-61.1648754 C-4.29087777,-68.7691086 -4.33252003,-76.8045179 -1.67693139,-84.1378586 C-0.484455383,-86.8301228 -0.966203814,-89.837325 -0.45468916,-92.6723763 C0.565279784,-99.3405435 5.2460374,-105.024948 11.0985641,-108.169003 C12.4754232,-108.599883 12.0144654,-110.25505 12.1988485,-111.351552 C12.3772784,-116.147663 13.8700964,-120.750247 15.3153949,-125.276531 C6.9351754,-131.920964 1.15398107,-141.872399 0.039460595,-152.549864 C-1.33739851,-163.940125 2.46011685,-175.864411 10.2421952,-184.31601 C9.30840363,-185.822616 8.17546007,-187.204388 7.32495305,-188.767439 C4.39575876,-193.973655 4.68124044,-200.775404 7.98215472,-205.752795 C9.6444955,-208.397515 12.0651518,-210.480518 14.7385545,-212.06738 C9.22518001,-219.317954 5.85893231,-228.298102 5.957138,-237.45641 C5.82628843,-249.963407 12.0057716,-262.316739 22.0841884,-269.733759 C25.3612897,-272.336867 29.2301374,-273.997975 33.0010078,-275.754174 C34.7346809,-282.11927 40.4146244,-287.310271 47.0193002,-288.106745 C52.7824521,-289.039844 58.5695083,-286.484281 62.5038265,-282.341933 C64.4338349,-282.606405 66.2091503,-283.753449 68.1777558,-284.044652 C75.1512739,-285.726528 82.5827807,-283.402795 87.9087269,-278.74038 C97.2405521,-281.096862 107.416642,-280.639213 116.236884,-276.630599 C121.961362,-274.09588 126.874312,-270.027778 130.888565,-265.264682 C131.501163,-264.711973 132.039398,-263.517384 133.062413,-263.9869 C139.509579,-265.734198 146.352156,-265.69852 152.900725,-264.539609 C153.989133,-264.263255 154.780184,-265.315163 155.654443,-265.775779 C162.327558,-270.435189 170.421839,-272.705482 178.513532,-272.901595 C179.358101,-277.332181 181.784695,-281.489363 185.561351,-284.024082 C189.305348,-286.784659 194.224008,-287.494867 198.726244,-286.630157 C199.826528,-286.514269 201.123072,-285.798081 202.047956,-286.757935 C209.244455,-292.041364 218.064621,-295.26887 227.051584,-295.021636 C241.123166,-295.15833 254.749397,-287.105584 261.707537,-274.94015 C262.040599,-274.538992 262.335003,-273.320653 263.063537,-273.870425 C267.027545,-278.09303 271.33337,-282.169881 276.638762,-284.657435 C284.67412,-288.835461 294.070654,-289.581347 302.915257,-288.193566 L302.913942,-288.192377 Z" fill="#F4EEF8" mask="url(#mask-2)"></path>
                    <g id="Group-8" mask="url(#mask-2)" fill="#FFFFFF" fill-rule="nonzero">
                        <g transform="translate(-4.000000, -3.000000)" id="Path">
                            <path d="M290.174376,13.9158294 C283.51455,15.3379156 277.885336,20.640164 276.029356,27.2038029 C273.455736,35.5222961 277.422795,45.2657197 285.113515,49.3435519 C292.44382,53.5792356 302.477599,51.9988712 308.223548,45.7827902 C312.783499,41.0360087 314.531539,33.8422435 312.76967,27.5011611 C311.459279,22.6238321 308.098941,18.3713677 303.72168,15.8912494 C299.646539,13.5831324 294.729008,12.974835 290.174517,13.9164694 L290.174376,13.9158294 Z"></path>
                            <path d="M358.571765,12.6970013 C355.282981,14.0746932 355.330603,19.7671471 358.676526,21.0235139 C361.425618,22.4247465 364.492138,19.2045845 363.93351,16.2370755 C363.838274,13.5491232 360.889176,11.5516984 358.571773,12.696915 L358.571765,12.6970013 Z"></path>
                            <path d="M202.74236,20.4541509 C199.278338,21.5119177 198.993978,27.3597316 202.301373,28.8082323 C204.857831,30.2802753 208.069398,27.6696626 207.826514,24.7355799 C208.034229,21.9969072 205.266865,19.4704605 202.742393,20.4541509 L202.74236,20.4541509 Z"></path>
                            <path d="M77.1539869,24.243623 C74.7955446,25.8664274 74.602506,29.9353266 76.8627434,31.7486035 C79.1451696,33.854513 83.1560289,31.8030367 83.0769334,28.5438413 C83.6530831,25.1486066 79.8764796,22.2976163 77.1540031,24.243623 L77.1539869,24.243623 Z"></path>
                            <path d="M255.045295,23.716562 C254.211967,23.9370441 253.78193,24.8598497 253.930086,25.6190351 C254.049139,26.7850746 255.81543,27.4828711 256.687694,26.5509822 C258.065254,25.5145286 256.797026,23.0732881 255.045295,23.716562 Z"></path>
                            <path d="M13.9642729,41.9768576 C8.98147352,43.7391822 7.3555074,50.8214927 10.8631464,54.7262015 C13.1316104,57.7748031 17.9078807,58.201333 20.7599301,55.7644663 C23.6512546,53.4598163 24.3134738,49.1184201 22.8185921,45.8287474 C21.3795176,42.5123266 17.3408276,40.7830985 13.9641051,41.9766883 L13.9642729,41.9768576 Z"></path>
                            <path d="M57.5042892,44.1763664 C49.1132457,45.4601553 41.508973,51.0082308 37.731589,58.6177201 C35.5630187,62.8216279 34.599578,67.6148144 34.87234,72.3336444 C35.1710389,79.0739454 38.2081157,85.6346584 43.082161,90.2880228 C47.9924067,95.0740877 54.8023944,97.8404509 61.6583508,97.8112568 C67.6859879,97.8924651 73.7047847,95.8224744 78.4285038,92.08523 C82.6431202,88.7728927 85.8683502,84.1957426 87.4807884,79.0761571 C89.6096666,72.408399 89.0657781,64.8922424 85.8577863,58.6579726 C83.181572,53.2721014 78.6097705,48.881484 73.1673495,46.3522124 C68.3225208,44.050699 62.7903726,43.3612757 57.5035378,44.1768087 L57.5042892,44.1763664 Z"></path>
                            <path d="M157.403029,48.408872 C155.784734,48.705423 155.736007,51.2352198 157.322601,51.6344288 C158.282858,51.965201 159.367336,51.2625968 159.489248,50.3364157 C159.767081,49.2437302 158.606979,48.052936 157.403022,48.4088136 L157.403029,48.408872 Z"></path>
                            <path d="M257.01906,62.1356557 C254.409744,62.9064793 252.417664,65.3144617 251.855939,67.9728694 C250.801127,72.311208 254.008034,77.4371855 258.606169,77.5485006 C263.031247,77.9701489 266.737846,73.5165316 266.208809,69.2077928 C266.287187,64.5993463 261.463701,60.7090511 257.019227,62.1353184 L257.01906,62.1356557 Z"></path>
                            <path d="M361.581411,95.7335126 C360.511736,96.1842915 360.437617,97.5065768 360.897133,98.380415 C361.843297,99.4414958 364.09136,98.9167253 363.977714,97.4072152 C364.195108,96.1774149 362.779594,95.148705 361.581411,95.7335718 L361.581411,95.7335126 Z"></path>
                            <path d="M181.800078,0.161414423 C179.92464,0.933650911 181.158421,4.15488503 183.244426,3.19634175 C185.285907,2.43088632 183.908408,-0.74552383 181.800078,0.161414423 Z"></path>
                            <path d="M150.101055,25.0944318 C147.005953,26.0344176 144.922938,29.2501096 144.932717,32.4625087 C144.762938,36.3576282 147.796047,40.4341084 151.850998,40.443987 C156.372917,40.8991282 160.075238,36.1926473 159.464759,31.8293502 C159.285193,27.2944022 154.485817,23.5312505 150.101138,25.0945162 L150.101055,25.0944318 Z"></path>
                            <path d="M25.3951044,60.9949919 C24.4158758,61.7181509 24.4646997,63.5294276 25.7443047,63.9472201 C26.9530869,64.4798189 28.3132795,63.3755925 28.0544066,62.1772584 C28.0470805,60.9467421 26.4060842,60.3039799 25.3950982,60.9949919 L25.3951044,60.9949919 Z"></path>
                            <path d="M328.539022,65.7274077 C325.477348,66.9254397 323.256328,70.1362185 323.588445,73.4574761 C323.533092,78.11482 328.435313,81.8020717 332.922254,80.7766517 C337.139429,80.1172348 340.090486,75.5979364 339.087139,71.47257 C338.336413,66.7806683 332.89108,63.99457 328.53911,65.7276729 L328.539022,65.7274077 Z"></path>
                            <path d="M109.690497,87.9702622 C108.613224,88.6715298 108.772632,90.5058079 110.035896,90.9466732 C111.20252,91.440081 112.545495,90.3413094 112.320852,89.1809313 C112.289451,87.9862266 110.692884,87.2712751 109.690491,87.9702622 L109.690497,87.9702622 Z"></path>
                            <path d="M277.45752,92.6284758 C274.584142,94.152953 274.450992,99.2628502 277.416291,100.756819 C279.693413,102.013063 282.658697,100.376547 282.975905,97.6365906 C283.841709,94.349999 280.37849,90.9682308 277.457535,92.6285628 L277.45752,92.6284758 Z"></path>
                            <path d="M113.584195,55.4610317 C110.407114,56.8185095 110.413503,62.6106692 113.734568,63.7786166 C116.242962,64.966843 119.279245,62.5057211 119.064895,59.6722981 C119.378442,56.6797632 116.204547,54.1069336 113.584187,55.4610317 L113.584195,55.4610317 Z"></path>
                            <path d="M37.2587694,47.2838908 C36.1546336,47.4556091 35.6545192,48.7377841 36.1305123,49.6375509 C36.5146529,50.9769731 38.8774924,50.8785034 39.1819152,49.5299434 C39.725516,48.3920324 38.5899977,46.8923624 37.2587694,47.2838967 L37.2587694,47.2838908 Z"></path>
                            <path d="M308.515423,65.3724896 C305.110639,66.2161427 304.544158,71.7490241 307.469051,73.5955615 C309.827463,75.2862331 313.44352,73.2228626 313.373069,70.2006007 C313.923477,67.3477442 311.193817,64.488209 308.515423,65.3724896 L308.515423,65.3724896 Z"></path>
                        </g>
                    </g>
                </g>
                <g id="Group-6" transform="translate(128.000000, 51.000000)">
                    <circle id="Oval" stroke="#F4EEF8" stroke-width="6" fill="#FFFFFF" cx="52.5" cy="52.5" r="49.5"></circle>
                    <g id="noun-rocket-1282644" transform="translate(23.000000, 23.000000)" fill-rule="nonzero">
                        <path d="M4.34159078,23.6586889 C4.34863665,23.92366 4.50496479,24.1621644 4.74584338,24.2732679 C4.8392006,24.3160332 4.93871986,24.3371952 5.03780171,24.3371952 C5.19412985,24.3371952 5.34913901,24.2847315 5.47552502,24.1820071 L9.09710254,21.2528447 L13.5619299,22.5759507 C13.8151415,22.6517818 14.0899305,22.5759507 14.2704852,22.3815197 C14.4501605,22.1870887 14.5038782,21.9067003 14.4092043,21.6589297 L12.7437859,17.3062122 L15.3819853,13.4635277 C15.5321469,13.2452936 15.5453594,12.9600521 15.4154538,12.7290306 C15.2864298,12.498009 15.0371751,12.359141 14.7720813,12.3736892 L10.1200029,12.6139656 L7.28621006,8.91585999 C7.12547402,8.70600046 6.85904992,8.60636401 6.59879237,8.6566224 C6.33941415,8.70864599 6.13112694,8.90307249 6.06198722,9.15965777 L4.85404315,13.6610173 L0.463620223,15.2163977 C0.213937113,15.3050141 0.0364600864,15.5276544 0.00475930509,15.7908535 C-0.0260666609,16.0540526 0.0945947197,16.31285 0.316096601,16.4574515 L4.21950895,19.0003929 L4.34159078,23.6586889 Z" id="Path" fill="#FFBE91"></path>
                        <path d="M16.6690461,3.44461282 C17.6180403,3.44461282 18.3895913,2.67219339 18.3895913,1.72253214 C18.3895913,0.772442011 17.6171835,0 16.6690461,0 C15.7204915,0 14.9489518,0.773299778 14.9489518,1.72253214 C14.9493921,2.6721821 15.7209199,3.44461282 16.6690461,3.44461282 Z" id="Path" fill="#A775C8"></path>
                        <path d="M42.3475808,47.9120588 C41.3985866,47.9120588 40.6274865,48.6844782 40.6274865,49.6332366 C40.6274865,50.584207 41.399015,51.3557687 42.3475808,51.3557687 C43.2961354,51.3557687 44.0681268,50.5833493 44.0681268,49.6332366 C44.0690068,48.6840268 43.2970485,47.9120588 42.3475808,47.9120588 Z" id="Path" fill="#A775C8"></path>
                        <path d="M27.3753875,2.18279201 C27.3789104,2.19910426 27.38992,2.2127721 27.3943234,2.22908435 C27.4405623,2.382952 27.5326028,2.52403215 27.6792359,2.61661458 C27.6862817,2.62102339 27.6937684,2.62366859 27.7008143,2.62851836 C28.2627253,2.98253923 28.6912044,3.64385523 28.8766292,4.45149956 C29.0668677,5.28035106 28.9572159,6.12504868 28.5877485,6.71984257 C28.5820236,6.72954189 28.5736567,6.73880036 28.5688125,6.7484999 C28.3666806,7.07562525 28.4679687,7.50547952 28.7947201,7.70696454 C28.9083333,7.77706332 29.035159,7.81101172 29.160226,7.81101172 L29.1628682,7.81101172 L29.1650701,7.81101172 C29.3949458,7.81101172 29.6204137,7.69638692 29.752955,7.48872823 C29.7586797,7.48035157 29.7626431,7.47065192 29.7674875,7.46139367 C30.122419,6.90148608 30.7816532,6.47383266 31.586224,6.28997701 C32.4083926,6.10039915 33.2472457,6.20929723 33.8413536,6.57521849 C33.8497206,6.58006815 33.8558861,6.58712227 33.8646929,6.59197204 C33.9461612,6.64531839 34.0359921,6.67221166 34.1262694,6.68764244 C34.1297923,6.68852424 34.1324346,6.68852424 34.1359575,6.68896509 C34.1716277,6.69469644 34.206857,6.70351441 34.2420864,6.70351441 C34.3790356,6.70351441 34.5115881,6.65854483 34.6265316,6.5818356 C34.6362198,6.5756634 34.6445871,6.56860906 34.6547151,6.56155505 C34.7207704,6.51305847 34.7811011,6.45750788 34.8273333,6.38520487 C34.828214,6.38388221 34.828214,6.38255956 34.8286544,6.38079606 C34.8299756,6.37859171 34.833058,6.37726905 34.8343792,6.3750647 C35.0404681,6.05058037 34.9453522,5.61940559 34.6212444,5.4130787 C34.6115564,5.40734734 34.601428,5.40249769 34.5917397,5.39676645 C34.0135386,5.00703537 33.5674505,4.28928731 33.3969855,3.46261409 C33.2292036,2.64434924 33.3459035,1.85655771 33.7166876,1.30104053 C33.7175683,1.30015884 33.7175683,1.29883619 33.7180087,1.29751353 C33.7224124,1.29134133 33.7272564,1.28560975 33.7312199,1.27943721 C33.755,1.24019888 33.7611643,1.19743466 33.7761377,1.15598644 C33.7915506,1.11454387 33.8148899,1.07530666 33.8210554,1.03253567 C33.8294224,0.985361859 33.8223765,0.93995211 33.8210554,0.892776039 C33.8197342,0.850010696 33.8245783,0.807686653 33.8153306,0.767124418 C33.8056425,0.721273371 33.7818622,0.680713393 33.763367,0.637951437 C33.7457524,0.598713099 33.7351836,0.55859442 33.7109638,0.522886471 C33.684982,0.484089431 33.6457901,0.455432103 33.6114412,0.422367432 C33.5819364,0.393710104 33.5607988,0.359322665 33.5251298,0.33507381 C33.5207261,0.332869461 33.5167628,0.332869461 33.5123593,0.330224151 C33.5079556,0.328019802 33.5066345,0.324051839 33.5026712,0.320965795 C33.4639189,0.297158238 33.4212029,0.291426999 33.3806931,0.275996217 C33.3384178,0.260565435 33.2992248,0.237199177 33.255626,0.230145169 C33.2080659,0.221768508 33.160066,0.229263475 33.111631,0.231026977 C33.0711167,0.232349519 33.0301627,0.227499973 32.9900925,0.235876522 C32.9429731,0.246457533 32.9011387,0.27026509 32.8566607,0.290545643 C32.8196704,0.306857893 32.780917,0.317438904 32.7465692,0.340364992 C32.7060549,0.367699553 32.6756697,0.40781936 32.6422024,0.444412164 C32.6153402,0.473069491 32.5818717,0.492908746 32.5594129,0.526414716 C32.5558899,0.532146069 32.552367,0.538318494 32.548844,0.544049734 C32.547523,0.545372389 32.5462019,0.546695043 32.5444404,0.548458545 C32.1939055,1.11851262 31.5258668,1.5527686 30.7120631,1.74019075 C29.8815297,1.93064894 29.0355968,1.82087053 28.4428418,1.4487756 C28.4331537,1.44304425 28.4252272,1.43554905 28.4159796,1.43069928 C28.0892316,1.22921426 27.6603128,1.33018024 27.4586205,1.6581882 C27.3731896,1.79706749 27.3524917,1.95401633 27.3701063,2.10391116 C27.3745101,2.12992296 27.3687853,2.15725752 27.3753909,2.18282801 L27.3753875,2.18279201 Z" id="Path" fill="#EADEF2"></path>
                        <path d="M58.678218,26.7308501 C58.6584016,26.7180649 58.6368232,26.7092468 58.6170068,26.6964616 C57.7948383,26.134782 57.1637537,25.1172669 56.9241941,23.9511548 C56.6850742,22.788993 56.8554963,21.6630606 57.3905406,20.8624025 C57.3914213,20.8615207 57.3914213,20.8610799 57.3918616,20.8597573 C57.3953845,20.853585 57.4011094,20.8469721 57.4050729,20.8407996 C57.4297334,20.8006797 57.4358989,20.7565928 57.4513118,20.7142676 C57.4658444,20.6737065 57.4883021,20.635792 57.495348,20.5934691 C57.503715,20.5462953 57.4966691,20.5000041 57.495348,20.452389 C57.4940268,20.4100649 57.4988709,20.3686224 57.4896232,20.3271775 C57.4799351,20.2808852 57.4561548,20.2394437 57.4363384,20.1957924 C57.420045,20.1569954 57.4094762,20.117757 57.3856961,20.0829283 C57.358393,20.0423672 57.3169983,20.0119469 57.2813292,19.9775595 C57.2531458,19.9502249 57.2337691,19.9180417 57.1998609,19.8955569 C57.196338,19.8933526 57.1919343,19.8933526 57.1888517,19.8911481 C57.1844481,19.8885029 57.1826866,19.8840941 57.1782829,19.8814489 C57.140411,19.8580827 57.0990174,19.8527916 57.0585031,19.8373619 C57.0157871,19.8210497 56.9748331,19.7981236 56.9307981,19.7901881 C56.8858804,19.7822523 56.8409627,19.7893063 56.7960472,19.7901881 C56.7520111,19.7910699 56.7084146,19.7857793 56.6657042,19.7950378 C56.6199061,19.804737 56.5802733,19.8285449 56.5366803,19.8475015 C56.4974872,19.8642551 56.4574148,19.8757176 56.421748,19.8995251 C56.3812337,19.9268597 56.3508485,19.967861 56.3165008,20.0040125 C56.2896385,20.0322285 56.2570516,20.0516276 56.2345928,20.0855749 C56.2310699,20.0913063 56.2284276,20.0965968 56.2249047,20.1023284 C56.2235835,20.1045328 56.2213817,20.1049737 56.2200606,20.1071781 C55.7136372,20.9289643 54.7589161,21.5531931 53.6003495,21.8186495 C52.4267893,22.0875821 51.2259475,21.9297507 50.3751445,21.4002622 C50.3610528,21.3918856 50.3482823,21.380423 50.3346302,21.3720462 C50.0078822,21.1705612 49.5789634,21.2724086 49.3772711,21.5995351 C49.276868,21.7617773 49.2522041,21.9491543 49.2922799,22.1219718 C49.3006469,22.1563604 49.3209041,22.1850166 49.3345551,22.2180824 C49.3856371,22.3521085 49.467987,22.4759995 49.5983299,22.5588756 C49.6080181,22.5646069 49.6185871,22.5685748 49.6282743,22.5743064 C50.4363511,23.0839556 51.0506383,24.0300277 51.3139848,25.17684 C51.5817279,26.345548 51.4284774,27.5425848 50.9048846,28.3952732 C50.8938755,28.4133495 50.8797833,28.4296617 50.868334,28.4477369 C50.6670814,28.7748623 50.7679309,29.2047165 51.0955605,29.4062016 C51.2091738,29.4763003 51.3355598,29.5102487 51.4601872,29.5102487 L51.4637101,29.5102487 L51.467233,29.5102487 C51.6971088,29.5102487 51.9216861,29.3956239 52.0551179,29.1879653 C52.0656867,29.1725345 52.0718522,29.1548995 52.082421,29.1385872 C52.5936919,28.3379517 53.5329684,27.730043 54.6700029,27.4685369 C55.8268785,27.2031256 57.0136286,27.3539121 57.8635297,27.8666425 C57.8824656,27.8794277 57.9000803,27.8948585 57.9181357,27.9067623 C58.0352775,27.9825923 58.1664998,28.0191851 58.2964144,28.0191851 C58.4338145,28.0191851 58.5672351,27.9742155 58.6821787,27.8970661 C58.6931878,27.8900121 58.7024358,27.8829581 58.712123,27.8754628 C58.7768571,27.8278477 58.8354314,27.7722982 58.8812239,27.7013135 C58.8821046,27.7004317 58.8821046,27.6999908 58.8821046,27.6991091 C58.8847469,27.6955821 58.8891505,27.6942595 58.8913524,27.6898507 C59.0970016,27.3684475 59.0023254,26.9381531 58.6782176,26.7309458 L58.678218,26.7308501 Z" id="Path" fill="#FFBE91"></path>
                        <path d="M43.9123277,10.1386964 C43.8806213,10.1148889 43.8440707,10.1069534 43.8106034,10.0888771 C43.7810987,10.064188 43.7595214,10.0328863 43.7251725,10.0121645 C41.6827719,8.81738492 29.7439104,10.0580155 18.518993,26.7803862 C17.826739,27.8129123 17.2115048,28.7943335 16.6447914,29.746568 C10.916104,30.1482063 5.4238196,35.7764463 3.38164445,41.0860258 C3.297094,41.3064607 3.32924121,41.5542313 3.46751614,41.7451296 C3.59918937,41.9276535 3.8083559,42.0330234 4.03074613,42.0330234 L4.06641627,42.0330234 C6.25153805,41.919279 8.9289689,41.8822483 10.8837753,41.8562331 C11.6931711,41.8452112 12.3837002,41.8359525 12.8975415,41.8231673 C13.0763262,42.9672708 13.4841074,44.0002032 14.1306252,44.9287363 C8.52955258,48.418269 9.27776768,52.1656963 9.8855163,55.1980165 C10.1660321,56.5995631 10.4320166,57.9234592 10.103059,59.113837 C10.0968938,59.1372033 10.1021782,59.1601294 10.0982149,59.1839358 C10.0924902,59.2139147 10.0933708,59.2430134 10.0920498,59.2729923 C10.0898479,59.3333927 10.0907287,59.3911498 10.103059,59.4484622 C10.109224,59.4784411 10.1211144,59.506217 10.1316832,59.5348732 C10.1519404,59.5895423 10.1752797,59.6415648 10.208747,59.6913819 C10.2166736,59.7041671 10.218435,59.7173937 10.2268025,59.7284149 C10.239573,59.7447271 10.2576285,59.7500182 10.2708386,59.7641262 C10.3157563,59.8135042 10.3646366,59.8531827 10.4232098,59.887577 C10.4597604,59.9091803 10.4941093,59.9290195 10.5333012,59.9435677 C10.5531176,59.9506217 10.5667697,59.965171 10.5879073,59.9709023 C10.6438335,59.9854516 10.69932,59.9925056 10.7548099,59.9942685 C10.7627364,59.9942685 10.7693424,60 10.7781492,60 C10.9269918,60 11.0762741,59.9523849 11.2026601,59.8545069 C12.1798378,59.0988478 13.5049124,58.8444633 14.9069843,58.5764336 C17.9402034,57.9949238 21.6780097,57.2581807 22.7935119,50.7579977 C23.3329663,50.8801167 23.8728491,50.9555099 24.4158659,50.9555099 C24.9874607,50.9555099 25.5634973,50.8805614 26.1429497,50.7425692 C26.3248234,51.2200408 26.5692192,51.8478475 26.8625078,52.5973781 C27.578109,54.4235195 28.5579134,56.9245883 29.279636,58.997112 C29.3566998,59.2206394 29.5420919,59.3894954 29.7706487,59.4459275 C29.8261352,59.4587127 29.8816217,59.4648853 29.9362323,59.4648853 C30.1114997,59.4648853 30.2827989,59.3987537 30.4131532,59.2753074 C34.5517285,55.3784481 37.6818988,48.1651895 35.8930368,42.7023406 C36.5579866,41.818829 37.234796,40.8701045 37.9257423,39.839768 C49.1542673,23.113306 45.7863411,11.5774647 43.9121395,10.1395759 L43.9123277,10.1386964 Z M12.7932536,40.4314252 C12.2974046,40.442447 11.636378,40.4517057 10.8661797,40.4614042 C9.21834788,40.4847704 7.06095865,40.5134277 5.10355941,40.5905771 C7.27233477,35.9203729 11.7174337,32.0609844 15.776757,31.2665339 C13.7928653,34.8904878 12.8015959,37.9109573 12.7932536,40.4314387 L12.7932536,40.4314252 Z M14.6463739,57.2064188 C13.6300099,57.4008498 12.5915725,57.6067365 11.6413382,58.0127765 C11.6580725,56.9784784 11.4555076,55.9388983 11.2511774,54.9226698 C10.6430342,51.8889952 10.0838175,49.0167163 15.0374592,46.0121607 C15.2514733,46.2290743 15.4725445,46.4424552 15.7165007,46.6470214 C15.7759498,46.6963994 15.8428867,46.730788 15.9107075,46.7581225 C15.0563985,48.8963332 14.7295941,50.8018181 15.482668,51.7717723 C15.5407959,51.8467209 15.6152206,51.8983043 15.6918458,51.9415087 C15.76847,52.008963 15.8560992,52.0636276 15.9595889,52.0922838 C16.1110808,52.1350492 16.2687279,52.1553286 16.4343002,52.1553286 C17.5620905,52.1553286 18.9959533,51.2021573 20.4425551,49.8015475 C20.492317,49.853571 20.543399,49.9042719 20.610337,49.9399866 C20.8921719,50.0894412 21.173567,50.2172937 21.4554018,50.3341306 C20.5478035,56.0580343 17.681859,56.6237092 14.6464979,57.2065395 L14.6463739,57.2064188 Z M25.1178905,40.9246414 C22.9825971,45.5582777 18.1350381,50.7451739 16.5117823,50.7561217 C15.9023201,49.2461127 18.8782929,42.7925425 22.357262,39.0633992 C23.8029619,37.5150164 25.0580288,36.7880587 25.6524748,37.1433549 C26.204251,37.5626225 26.0043287,38.9994053 25.117868,40.9247542 L25.1178905,40.9246414 Z M30.2239484,57.491965 C29.5541511,55.6442665 28.7637058,53.6268205 28.1608048,52.088144 C27.8838175,51.3818629 27.6460165,50.7730513 27.4707491,50.3135815 C29.7976902,49.3520356 32.2161712,47.2887103 34.816943,44.0808864 C35.6131263,48.1448975 33.723514,53.7201591 30.2239372,57.4914007 L30.2239484,57.491965 Z M36.6876611,30.5817738 C35.6620416,32.1076966 33.9525104,33.020203 32.1135946,33.020203 C31.017956,33.020203 29.9571072,32.6948383 29.0455407,32.08202 C27.8244067,31.2602338 26.9960378,30.0125436 26.7133011,28.5673186 C26.4297076,27.1220936 26.7260716,25.6531671 27.5464725,24.4310745 C28.5712014,22.9034587 30.2816231,21.9912909 32.1214409,21.9912909 C33.2161888,21.9912909 34.2770263,22.3157752 35.1890438,22.9303542 C36.4097268,23.75126 37.2385467,24.9993792 37.5212834,26.4450556 C37.8053165,27.8889263 37.5085129,29.3583042 36.6876723,30.5817512 L36.6876611,30.5817738 Z" id="Shape" fill="#A775C8"></path>
                    </g>
                </g>
            </g>
        </g>
    </g>
</svg>