<?xml version="1.0" encoding="UTF-8"?>
<svg width="53px" height="55px" viewBox="0 0 53 55" version="1.1" xmlns="http://www.w3.org/2000/svg" xmlns:xlink="http://www.w3.org/1999/xlink">
    <title>Group 5</title>
    <defs>
        <path d="M50.5720831,18.2093977 L50.5720831,18.2069335 C49.1364377,13.6037707 46.9153984,9.33574185 42.490947,6.18154039 C38.3681182,3.24583309 33.7987313,0.965608279 28.269636,0.408694583 C19.040767,0.420194276 9.81189808,0.433336782 0.583029124,0.446479288 L0.583029124,12.1219531 C0.643745367,17.3871697 -0.0691808428,22.6556718 1.77972669,27.9258167 C4.08498534,34.4919771 14.3515145,42.196607 22.5286214,42.3300034 L22.5282297,42.330332 L22.5593713,42.330332 C28.6431388,42.4300508 34.730236,42.4147726 40.8179207,42.3912804 L45.9552983,42.4086946 L51.2209635,42.4086946 L51.2209635,23.1705295 C51.2209635,20.0973187 50.5885353,18.256875 50.5720831,18.2093977" id="path-1"></path>
    </defs>
    <g id="Page-1" stroke="none" stroke-width="1" fill="none" fill-rule="evenodd" opacity="0.971458072">
        <g id="LL21---My-Interest-Copy-2" transform="translate(-301.000000, -67.000000)">
            <g id="Group-12" transform="translate(16.000000, 68.000000)">
                <g id="banner-hpht" transform="translate(285.895778, -26.727338)">
                    <g id="Group-17" transform="translate(62.793752, 42.409614) scale(-1, 1) translate(-62.793752, -42.409614) ">
                        <g id="Group-16" transform="translate(0.000000, 20.894409)">
                            <g id="Group-5" transform="translate(73.587504, 5.545323)">
                                <g id="Fill-1">
                                    <mask id="mask-2" fill="white">
                                        <use xlink:href="#path-1"></use>
                                    </mask>
                                    <use id="Mask" fill="#FFD3CD" transform="translate(25.859101, 21.408695) rotate(-180.000000) translate(-25.859101, -21.408695) " xlink:href="#path-1"></use>
                                </g>
                                <path d="M15.0486936,41.544235 L15.0486936,41.5428977 C15.7019019,39.1571658 16.7123907,36.9451707 18.7254516,35.3104407 C20.6012253,33.7888234 22.6801176,32.6071016 25.1957667,32.318469 C29.3946957,32.3243754 33.5935205,32.3311733 37.7924495,32.3379712 L37.7924495,38.389225 C37.7648462,41.1180841 38.0892109,43.8486148 37.2479877,46.5800371 C36.1991669,49.9832265 31.5281695,53.9763854 27.807767,54.0455903 L27.8079753,54.0457017 L27.7938091,54.0457017 C25.0258763,54.0974104 22.256381,54.0894981 19.4865733,54.0772396 L17.1491476,54.0863262 L14.7534946,54.0863262 L14.7534946,44.1155163 C14.7534946,42.5227996 15.0411938,41.5688635 15.0486936,41.544235" id="Fill-6" fill="#E4CBF6"></path>
                                <path d="M33.5472414,41.5336946 C33.5472414,44.6698575 30.9937115,47.212266 27.8438299,47.212266 C24.6937945,47.212266 22.1402646,44.6698575 22.1402646,41.5336946 C22.1402646,38.3975316 24.6937945,35.8551232 27.8438299,35.8551232 C30.9937115,35.8551232 33.5472414,38.3975316 33.5472414,41.5336946" id="Fill-14" fill="#FFFFFF"></path>
                            </g>
                        </g>
                    </g>
                </g>
            </g>
        </g>
    </g>
</svg>