<?xml version="1.0" encoding="UTF-8"?>
<svg width="28px" height="28px" viewBox="0 0 28 28" version="1.1" xmlns="http://www.w3.org/2000/svg" xmlns:xlink="http://www.w3.org/1999/xlink">
    <!-- Generator: Sketch 64 (93537) - https://sketch.com -->
    <title>cancel</title>
    <desc>Created with Sketch.</desc>
    <g id="Page-1" stroke="none" stroke-width="1" fill="none" fill-rule="evenodd">
        <g id="PMB---galaxys9-Copy" transform="translate(-322.000000, -72.000000)" fill-rule="nonzero">
            <g id="cancel" transform="translate(324.000000, 74.000000)">
                <path d="M12.046875,-1 C8.47182504,-1 5.20471623,0.456086482 2.83462832,2.80773012 C0.470803869,5.15315905 -1,8.38782431 -1,11.953125 C-1,15.5222322 0.47472987,18.7853887 2.84467056,21.1553294 C5.21461126,23.5252701 8.47776781,25 12.046875,25 C15.6121757,25 18.8468409,23.5291961 21.1922699,21.1653717 C23.5439135,18.7952838 25,15.528175 25,11.953125 C25,8.38187224 23.5477564,5.14334749 21.2022044,2.79779556 C18.8566525,0.452243631 15.6181278,-1 12.046875,-1 Z" id="Path" stroke="#FFFFFF" stroke-width="2" fill="#000000"></path>
                <path d="M17.9634375,15.8807812 C18.511875,16.4292187 18.511875,17.32125 17.9634375,17.8701562 C17.4192188,18.4139062 16.5271875,18.4228125 15.9740625,17.8701562 L12.046875,13.9415625 L8.02546875,17.870625 C7.47703125,18.4190625 6.585,18.4190625 6.03609375,17.870625 C5.48765625,17.3221875 5.48765625,16.4301562 6.03609375,15.88125 L9.96421875,11.953125 L6.03609375,8.025 C5.48765625,7.47609375 5.48765625,6.5840625 6.03609375,6.035625 C6.585,5.4871875 7.47703125,5.4871875 8.02546875,6.035625 L12.046875,9.9646875 L15.9740625,6.035625 C16.5215625,5.488125 17.4135938,5.48625 17.9634375,6.035625 C18.511875,6.5840625 18.511875,7.47609375 17.9634375,8.025 L14.0353125,11.953125 L17.9634375,15.8807812 Z" id="Path" fill="#FFFFFF"></path>
            </g>
        </g>
    </g>
</svg>