<?xml version="1.0" encoding="UTF-8"?>
<svg width="103px" height="88px" viewBox="0 0 103 88" version="1.1" xmlns="http://www.w3.org/2000/svg" xmlns:xlink="http://www.w3.org/1999/xlink">
    <!-- Generator: Sketch 64 (93537) - https://sketch.com -->
    <title>Group 29</title>
    <desc>Created with Sketch.</desc>
    <defs>
        <polygon id="path-1" points="0 0.0525139423 102.462544 0.0525139423 102.462544 62.1525773 0 62.1525773"></polygon>
        <polygon id="path-3" points="0.129164315 87.0927835 102.434811 87.0927835 102.434811 0 0.129164315 0"></polygon>
    </defs>
    <g id="Page-1" stroke="none" stroke-width="1" fill="none" fill-rule="evenodd">
        <g id="Group-29">
            <g id="Group-28" transform="translate(0.391007, 0.000000)">
                <g id="Group-3" transform="translate(0.129164, 24.940206)">
                    <mask id="mask-2" fill="white">
                        <use xlink:href="#path-1"></use>
                    </mask>
                    <g id="Clip-2"></g>
                    <path d="M77.8921611,62.1525773 L-0.000132945825,62.1525773 L-0.000132945825,24.6233887 C-0.000132945825,11.0531878 11.0004693,0.0525139423 24.570582,0.0525139423 L102.462544,0.0525139423 L102.462544,37.5820349 C102.462544,51.1519035 91.4619414,62.1525773 77.8921611,62.1525773" id="Fill-1" fill="#E9D9FF" mask="url(#mask-2)"></path>
                </g>
                <path d="M40.0244167,13.0639175 C40.0244167,6.72353979 45.0646804,1.58350515 51.2819879,1.58350515 C57.4992954,1.58350515 62.5395591,6.72353979 62.5395591,13.0639175" id="Fill-4" fill="#FFFFFF"></path>
                <path d="M64.1195691,13.0639175 L60.777326,13.0639175 C60.777326,7.70751371 56.4290677,3.34963655 51.0844867,3.34963655 C45.7399057,3.34963655 41.3916473,7.70751371 41.3916473,13.0639175 L38.0494042,13.0639175 C38.0494042,5.86052412 43.8969928,0 51.0844867,0 C58.2719805,0 64.1195691,5.86052412 64.1195691,13.0639175" id="Fill-6" fill="#A179C5"></path>
                <path d="M72.9052232,71.6536082 L29.2637501,71.6536082 C27.3530606,71.6536082 25.8043267,70.1004327 25.8043267,68.1842634 L25.8043267,16.9288069 C25.8043267,15.0129694 27.3530606,13.4597938 29.2637501,13.4597938 L72.9052232,13.4597938 C74.8159127,13.4597938 76.3646466,15.0129694 76.3646466,16.9288069 L76.3646466,68.1842634 C76.3646466,70.1004327 74.8159127,71.6536082 72.9052232,71.6536082" id="Fill-8" fill="#D4B1EF"></path>
                <path d="M29.3614453,14.8116618 C28.3613405,14.8116618 27.5480283,15.6268186 27.5480283,16.6291915 L27.5480283,68.0886674 C27.5480283,69.0907072 28.3613405,69.905864 29.3614453,69.905864 L73.2028628,69.905864 C74.2026353,69.905864 75.0159475,69.0907072 75.0159475,68.0886674 L75.0159475,16.6291915 C75.0159475,15.6268186 74.2026353,14.8116618 73.2028628,14.8116618 L29.3614453,14.8116618 Z M73.2028628,73.2371134 L29.3614453,73.2371134 C26.5289783,73.2371134 24.2243167,70.9275582 24.2243167,68.0886674 L24.2243167,16.6291915 C24.2243167,13.7899676 26.5289783,11.4804124 29.3614453,11.4804124 L73.2028628,11.4804124 C76.0356622,11.4804124 78.3396591,13.7899676 78.3396591,16.6291915 L78.3396591,68.0886674 C78.3396591,70.9275582 76.0356622,73.2371134 73.2028628,73.2371134 L73.2028628,73.2371134 Z" id="Fill-10" fill="#A179C5"></path>
                <path d="M29.3999282,70.8618557 C27.8528023,70.8618557 26.5943317,69.600233 26.5943317,68.0492321 L26.5943317,16.6679611 C26.5943317,15.1172928 27.8528023,13.8556701 29.3999282,13.8556701 L73.1643794,13.8556701 C74.7111735,13.8556701 75.9696441,15.1172928 75.9696441,16.6679611 L75.9696441,68.0492321 C75.9696441,69.600233 74.7111735,70.8618557 73.1643794,70.8618557 L29.3999282,70.8618557 Z" id="Fill-12" fill="#D4B1EF"></path>
                <path d="M72.9052232,13.4597938 L29.2637501,13.4597938 C27.3530606,13.4597938 25.8043267,15.0129694 25.8043267,16.9291387 L25.8043267,68.1845952 C25.8043267,70.1004327 27.3530606,71.6536082 29.2637501,71.6536082 L72.9052232,71.6536082 C74.8159127,71.6536082 76.3646466,70.1004327 76.3646466,68.1845952 L76.3646466,16.9291387 C76.3646466,15.0129694 74.8159127,13.4597938 72.9052232,13.4597938 M72.9052232,14.7870107 C74.0830682,14.7870107 75.0412252,15.7479157 75.0412252,16.9291387 L75.0412252,68.1845952 C75.0412252,69.3654864 74.0830682,70.3263914 72.9052232,70.3263914 L29.2637501,70.3263914 C28.0859051,70.3263914 27.1277481,69.3654864 27.1277481,68.1845952 L27.1277481,16.9291387 C27.1277481,15.7479157 28.0859051,14.7870107 29.2637501,14.7870107 L72.9052232,14.7870107" id="Fill-14" fill="#A179C5"></path>
                <path d="M30.1960719,71.257732 C28.2100595,71.257732 26.5943317,69.6579449 26.5943317,67.6919298 L26.5943317,60.9649485 L76.3646466,60.9649485 L76.3646466,67.6919298 C76.3646466,69.6579449 74.7485873,71.257732 72.7625749,71.257732 L30.1960719,71.257732 Z" id="Fill-16" fill="#FFEBDE"></path>
                <path d="M77.1546516,59.7773196 L75.499663,59.7773196 L27.4593154,59.7773196 L25.8043267,59.7773196 L25.8043267,61.464679 L25.8043267,67.5388354 C25.8043267,70.0260031 27.7889891,72.0494845 30.2284423,72.0494845 L72.730536,72.0494845 C75.1699892,72.0494845 77.1546516,70.0260031 77.1546516,67.5388354 L77.1546516,61.464679 L77.1546516,59.7773196 Z M75.499663,61.464679 L75.499663,67.5388354 C75.499663,69.0979555 74.2600765,70.3621251 72.730536,70.3621251 L30.2284423,70.3621251 C28.6992328,70.3621251 27.4593154,69.0979555 27.4593154,67.5388354 L27.4593154,61.464679 L75.499663,61.464679 L75.499663,61.464679 Z" id="Fill-18" fill="#A179C5"></path>
                <mask id="mask-4" fill="white">
                    <use xlink:href="#path-3"></use>
                </mask>
                <g id="Clip-21"></g>
                <polygon id="Fill-20" fill="#FFFFFF" mask="url(#mask-4)" points="44.3694442 45.5257732 48.3194692 45.5257732 48.3194692 33.2536082 44.3694442 33.2536082"></polygon>
                <path d="M48.3194692,45.5257732 L54.5311342,45.5257732 C55.0272842,45.5257732 55.4295141,45.1131631 55.4295141,44.6038688 L55.4295141,40.3793814 L53.3363918,40.3793814 C50.5655849,40.3793814 48.3194692,42.6834616 48.3194692,45.5257732 Z" id="Fill-22" fill="#FFFFFF" mask="url(#mask-4)"></path>
                <path d="M58.1945316,33.4515464 C58.1945316,34.872626 57.0450344,36.0247423 55.6271852,36.0247423 C54.2089964,36.0247423 53.0594991,34.872626 53.0594991,33.4515464 C53.0594991,32.0304668 54.2089964,30.8783505 55.6271852,30.8783505 C57.0450344,30.8783505 58.1945316,32.0304668 58.1945316,33.4515464" id="Fill-23" fill="#FFFFFF" mask="url(#mask-4)"></path>
                <path d="M90.5847365,25.1381443 C90.5847365,32.8996411 84.3065878,39.1917526 76.5623146,39.1917526 C68.8177078,39.1917526 62.5395591,32.8996411 62.5395591,25.1381443 C62.5395591,17.3766476 68.8177078,11.0845361 76.5623146,11.0845361 C84.3065878,11.0845361 90.5847365,17.3766476 90.5847365,25.1381443" id="Fill-24" fill="#FFFFFF" mask="url(#mask-4)"></path>
                <path d="M76.5623137,12.8256006 C69.7879354,12.8256006 64.2767454,18.3490406 64.2767454,25.1381443 C64.2767454,31.9275805 69.7879354,37.4506881 76.5623137,37.4506881 C83.3363603,37.4506881 88.8475502,31.9275805 88.8475502,25.1381443 C88.8475502,18.3490406 83.3363603,12.8256006 76.5623137,12.8256006 M76.5623137,40.7752577 C67.9588333,40.7752577 60.9595491,33.7604157 60.9595491,25.1381443 C60.9595491,16.5158729 67.9588333,9.50103093 76.5623137,9.50103093 C85.165794,9.50103093 92.1647465,16.5158729 92.1647465,25.1381443 C92.1647465,33.7604157 85.165794,40.7752577 76.5623137,40.7752577" id="Fill-25" fill="#A179C5" mask="url(#mask-4)"></path>
                <path d="M81.1368008,30.8783505 C80.8429607,30.8783505 80.5491205,30.7658703 80.3241286,30.5409098 L71.5698668,21.779064 C71.1182359,21.3268205 71.11593,20.5918832 71.5645962,20.1366535 C72.0132624,19.6817555 72.7435803,19.6791011 73.1952112,20.1313447 L81.949473,28.8931904 C82.401104,29.345434 82.4034099,30.080703 81.9544142,30.535601 C81.7294223,30.7638795 81.4329468,30.8783505 81.1368008,30.8783505" id="Fill-26" fill="#A179C5" mask="url(#mask-4)"></path>
                <path d="M72.3824974,30.8783505 C72.0863513,30.8783505 71.7898758,30.7638795 71.5648839,30.535601 C71.1158883,30.080703 71.1181942,29.345434 71.5698252,28.8931904 L80.3240869,20.1313447 C80.7757179,19.6791011 81.5060358,19.6817555 81.954702,20.1366535 C82.4033682,20.5918832 82.4010623,21.3268205 81.9494313,21.779064 L73.1951696,30.5409098 C72.9701776,30.7658703 72.6763375,30.8783505 72.3824974,30.8783505" id="Fill-27" fill="#A179C5" mask="url(#mask-4)"></path>
            </g>
        </g>
    </g>
</svg>