<?xml version="1.0" encoding="UTF-8"?>
<svg width="106px" height="90px" viewBox="0 0 106 90" version="1.1" xmlns="http://www.w3.org/2000/svg" xmlns:xlink="http://www.w3.org/1999/xlink">
    <!-- Generator: Sketch 60.1 (88133) - https://sketch.com -->
    <title>Group 23</title>
    <desc>Created with Sketch.</desc>
    <defs>
        <polygon id="path-1" points="0 0.388233687 104.912582 0.388233687 104.912582 89.688044 0 89.688044"></polygon>
    </defs>
    <g id="Page-1" stroke="none" stroke-width="1" fill="none" fill-rule="evenodd">
        <g id="Category---Filtered-/-Sorted-not-found" transform="translate(-827.000000, -471.000000)">
            <g id="Group-23" transform="translate(827.000000, 471.000000)">
                <g id="Group-20" transform="translate(0.418182, 0.000000)">
                    <path d="M94.1336118,32.8913656 C93.8639059,32.8913656 93.5983176,32.9079745 93.3347882,32.9320575 C88.0963176,15.3307462 71.7570824,2.4912146 52.4078471,2.4912146 C33.0565529,2.4912146 16.7123765,15.3328224 11.4759647,32.9378706 C11.3816706,33.2551011 11.2968471,33.5764839 11.2095529,33.8966209 C11.0658471,33.8895622 10.9242,33.8746141 10.7792588,33.8746141 C5.96284706,33.8746141 2.05890588,37.8117605 2.05890588,42.6682109 C2.05890588,47.3261847 5.65237647,51.1279683 10.1949647,51.4323269 C13.2762,71.924422 31.0014353,87.6389591 52.4078471,87.6389591 C74.1564353,87.6389591 92.1056706,71.4186802 94.7582588,50.446587 C99.2819059,50.1222977 102.853965,46.3288186 102.853965,41.6849624 C102.853965,36.8285119 98.9496118,32.8913656 94.1336118,32.8913656" id="Fill-1" fill="#FFEBDE"></path>
                    <g id="Group-5" transform="translate(0.000000, 0.026990)">
                        <mask id="mask-2" fill="white">
                            <use xlink:href="#path-1"></use>
                        </mask>
                        <g id="Clip-4"></g>
                        <path d="M10.7790529,35.9236991 C7.10611176,35.9236991 4.11752353,38.937389 4.11752353,42.6415951 C4.11752353,46.1606117 6.84711176,49.0999767 10.3314647,49.3337474 L11.9822294,49.444612 L12.2301118,51.0938785 C13.6568765,60.580898 18.4658765,69.2902046 25.7709941,75.6186213 C33.1539353,82.0138889 42.6138176,85.5358121 52.4080529,85.5358121 C72.8361118,85.5358121 90.1652294,70.3266017 92.7161118,50.1567197 L92.9298176,48.4692527 L94.6127,48.3488379 C98.0797588,48.1005345 100.794935,45.1611695 100.794935,41.6579314 C100.794935,37.9537253 97.8071706,34.9404505 94.1338176,34.9404505 C93.9551118,34.9404505 93.7607588,34.9504159 93.5223471,34.9728379 L91.8464647,35.127301 L91.3626412,33.5021174 C88.9245824,25.3093485 83.7981118,17.9378912 76.9278176,12.7455251 C69.8252882,7.37751964 61.3466412,4.54029955 52.4080529,4.54029955 C43.4674059,4.54029955 34.9871118,7.37835008 27.8837588,12.747186 C21.0118176,17.9403825 15.8853471,25.3135008 13.4481118,33.5075153 C13.3739941,33.7570644 13.3056412,34.0103506 13.2372882,34.2632215 L12.7584059,36.0275049 L10.9223471,35.9320035 C10.8749941,35.9286817 10.8276412,35.9236991 10.7790529,35.9236991 M52.4080529,89.688044 C41.6297,89.688044 31.2174059,85.8102746 23.0879353,78.7685044 C15.4270529,72.1319921 10.2557,63.1133443 8.41511176,53.2372606 C3.58305294,52.1431475 -0.000123529412,47.7729234 -0.000123529412,42.6415951 C-0.000123529412,37.0319298 4.2357,32.4013607 9.65122941,31.830844 C12.3952294,22.9861748 17.9779353,15.0446159 25.4139941,9.42456999 C33.2358765,3.51262214 42.5701706,0.388067598 52.4080529,0.388067598 C62.2438765,0.388067598 71.5769353,3.51220692 79.3975824,9.4229091 C86.5466412,14.8257933 91.9831706,22.3753814 94.8309353,30.8106406 C100.4507,31.1743762 104.912582,35.9004466 104.912582,41.6579314 C104.912582,46.7531352 101.365641,51.1104874 96.5764059,52.2361575 C93.0916412,73.6957227 74.3761118,89.688044 52.4080529,89.688044" id="Fill-3" fill="#A179C5" mask="url(#mask-2)"></path>
                    </g>
                    <path d="M64.8834529,70.5680124 C64.6656294,70.0211635 64.5993353,69.6715455 64.4099235,69.4132767 C63.7951588,68.5757715 63.2380412,67.6535608 62.4750412,66.9738404 C58.0036882,62.9897739 52.8014529,62.147286 47.1619235,63.6375221 C44.1844529,64.4239548 41.6731,66.0321142 39.8234529,68.5658062 C39.4359824,69.0960462 39.1778059,69.7222028 38.7676882,70.4733415 C39.4804529,70.4413693 39.9638647,70.4650371 40.4312176,70.3894664 C41.5277471,70.2125814 42.6222176,70.0153503 43.7072176,69.7786731 C47.3192176,68.9897491 50.9682765,68.5828303 54.6502765,68.9831055 C56.9499824,69.2330698 59.2241588,69.7197114 61.5119235,70.0863535 C62.5693353,70.2553494 63.6321,70.3902969 64.8834529,70.5680124 M52.0541,59.4059825 C56.9339235,59.4881967 61.4831,60.9979482 65.2157471,64.6191097 C66.4469235,65.8137068 67.4450412,67.1876804 68.0281,68.824075 C69.0760412,71.7655161 67.5586882,74.0392783 64.4564529,73.9944342 C62.9259235,73.9720122 61.3838647,73.6826016 59.8755706,73.3724299 C56.7881588,72.7367232 53.6818059,72.1728501 50.5338647,72.4697346 C47.7775118,72.7300796 45.0532765,73.31679 42.3039235,73.6742971 C40.9512765,73.8499365 39.5553941,74.0106279 38.2126294,73.8640541 C36.1484529,73.6385879 35.0441,71.9166574 35.4393941,69.8484306 C35.9322765,67.266988 37.5204529,65.376892 39.4388647,63.7587672 C43.0179235,60.7392642 47.2228647,59.4624528 52.0541,59.4059825" id="Fill-6" fill="#A179C5"></path>
                    <path d="M27.4131941,51.2441478 C26.6987824,52.1044902 25.9749,54.3462803 26.0675471,55.2676605 C26.1367235,55.956931 26.7061941,56.483434 27.3781941,56.4797168 C28.0324882,56.4755448 28.6464294,55.9627441 28.6542529,55.3071067 C28.6715471,53.8459363 28.1432529,52.5442116 27.4131941,51.2441478 M23.4199,54.8619875 C23.5916059,53.2617173 24.0062529,51.4729357 25.0566647,49.9071291 C25.3621941,49.4520445 25.7900176,49.0368213 26.2487235,48.7391062 C27.1126059,48.1793854 28.1864882,48.3550248 29.0021941,49.0970286 C29.9097235,49.9220771 30.3803706,51.0116228 30.7287235,52.1530713 C31.1005471,53.3721666 31.4896647,54.6008121 31.2475471,55.9083499 C30.8827235,57.8789992 29.0441941,59.3239759 27.1364882,59.1491669 C24.9512529,58.9490294 23.4026059,57.270282 23.4199,54.8619875" id="Fill-8" fill="#A179C5"></path>
                    <path d="M35.9475941,36.3534551 C39.0020647,36.4298561 41.3627118,37.5260454 43.2123588,39.703891 C44.0050059,40.6373128 43.9959471,41.6699729 43.2185353,42.3729457 C42.4180647,43.0966798 41.3672412,42.9696215 40.5437118,42.0490716 C37.3611824,38.4939306 32.0704176,39.5668674 30.4707118,44.092385 C30.4221235,44.2298239 30.3809471,44.3705845 30.3249471,44.5051168 C29.9477706,45.4165317 29.0464176,45.8417203 28.1306529,45.5431748 C27.2597706,45.2591622 26.7722412,44.3871934 26.9657706,43.46 C27.6740059,40.0709483 31.2077706,36.8712384 34.6509471,36.5000289 C35.1545353,36.4460498 35.6573,36.3862577 35.9475941,36.3534551" id="Fill-10" fill="#A179C5"></path>
                    <path d="M67.5784941,36.3650809 C71.7241412,36.366327 75.3872,39.0785649 76.6348471,43.0717664 C77.0058471,44.2593047 76.5858471,45.2209616 75.5506706,45.5531402 C74.5587294,45.8712011 73.6610824,45.3633832 73.2896706,44.1961908 C71.8258471,39.59967 66.0850235,38.4470104 63.0960235,42.12049 C62.3783176,43.0024241 61.3184353,43.0792404 60.5286706,42.4053331 C59.7714353,41.7588306 59.7294353,40.6684545 60.4282,39.7923336 C62.1308471,37.6564255 64.8262588,36.3642509 67.5784941,36.3650809" id="Fill-12" fill="#A179C5"></path>
                    <path d="M51.1317471,12.7897464 C51.1313353,12.7897464 51.1309235,12.7901616 51.1301,12.7905768 C51.1078647,12.8034487 51.0856294,12.8163207 51.0633941,12.8291926 C51.0790412,12.8204729 51.1016882,12.807601 51.1317471,12.7897464" id="Fill-14" fill="#A179C5"></path>
                    <path d="M57.9433235,14.7098215 C57.9923235,14.6749427 58.0433824,14.6442162 57.9433235,14.7098215 M50.6793824,13.7647735 C50.6513824,13.6568154 50.6666176,13.7041509 50.6793824,13.7647735 M51.1590882,12.7736357 C51.1475588,12.7802793 51.1413824,12.7840163 51.1319118,12.7898294 C51.1545588,12.7794488 51.1776176,12.7698987 51.1982059,12.7653312 C51.2492647,12.7528746 51.3003235,12.7408331 51.3509706,12.7279612 C51.3147353,12.7470614 51.5033235,12.7341895 51.6017353,12.7233937 C51.6050294,12.7238089 51.6083235,12.7246394 51.6116176,12.7250546 C51.6087353,12.7292068 51.6350882,12.7412483 51.7133235,12.7653312 C51.7112647,12.761179 51.7071471,12.757442 51.7063235,12.7528746 C51.7112647,12.7578572 51.7157941,12.7628399 51.7207353,12.7678226 C51.7232059,12.768653 51.7244412,12.7690683 51.7273235,12.7698987 C51.7302059,12.7707291 51.7310294,12.7711444 51.7335,12.7719748 C51.7351471,12.7761271 51.7380294,12.7819402 51.7442059,12.792736 C51.7475,12.7960578 51.7503824,12.7989643 51.7536765,12.8022861 C51.7512059,12.8010404 51.7495588,12.7993795 51.7470882,12.7981339 C51.7590294,12.8180646 51.7767353,12.846715 51.8006176,12.8836699 C51.8014412,12.8774415 51.8014412,12.8745349 51.8022647,12.8687218 C51.8043235,12.8982027 51.8088529,12.9314205 51.8191471,12.9642232 C51.8269706,12.9883061 51.8327353,12.9991019 51.8376765,13.0074064 C51.8372647,13.0186174 51.8368529,13.0231849 51.8368529,13.036472 C51.8364412,13.0721812 51.8150294,13.322976 51.8265588,13.3188238 C51.8035,13.4180621 51.7767353,13.5156396 51.7475,13.6140475 C51.8417941,13.2993083 51.5543824,13.9017971 51.6124412,13.856953 C51.5189706,13.9765373 51.4045,14.078267 51.2995,14.1866402 C51.2533824,14.2339757 51.2299118,14.26055 51.2142647,14.2796502 C51.1932647,14.2908613 51.1619706,14.3087159 51.1018529,14.3485773 C51.0413235,14.3884387 50.9894412,14.4179196 50.9326176,14.4536288 C50.9219118,14.4341133 50.9083235,14.4162587 50.8976176,14.3971584 C50.8778529,14.361034 50.8214412,14.2356366 50.8037353,14.2020035 C50.7654412,14.0886476 50.7341471,13.9736307 50.7036765,13.8573682 C50.6975,13.8353614 50.6937941,13.8208286 50.6892647,13.8042197 C50.6884412,13.7128706 50.7007941,13.4355015 50.6884412,13.4130794 C50.7073824,13.3271282 50.7259118,13.241177 50.7526765,13.1573019 C50.7658529,13.133219 50.7823235,13.1020773 50.8066176,13.055157 C50.8206176,13.0269219 50.8272059,13.0094825 50.8325588,12.9932888 C50.8440882,12.9870604 50.8515,12.9841539 50.8675588,12.9737733 C50.8930882,12.9567491 50.9532059,12.9048462 50.9688529,12.8861612 C51.0001471,12.8670609 51.0314412,12.8475454 51.0631471,12.8292756 C50.9898529,12.8695523 51.0545,12.8247082 51.1302647,12.7902446 C51.1397353,12.7848467 51.1496176,12.7794488 51.1590882,12.7736357 M51.8039118,12.7960578 C51.8030882,12.8022861 51.8022647,12.8093449 51.8018529,12.818895 C51.7903235,12.8164037 51.7792059,12.8126667 51.7672647,12.807684 C51.7532647,12.7898294 51.7442059,12.7790336 51.7388529,12.7736357 C51.7652059,12.7819402 51.7882647,12.7898294 51.8039118,12.7960578 M62.7321471,9.3721273 C62.5917353,8.54251136 61.5792059,8.07746138 60.8326765,8.28465775 C59.9617941,8.52590243 59.6134412,9.36797507 59.7542647,10.2000823 C59.7645588,10.2623658 59.7727941,10.3043034 59.7785588,10.3312929 C59.7789706,10.3566215 59.7797941,10.3865176 59.7810294,10.4267942 C59.7863824,10.5887313 59.7987353,10.7490074 59.7979118,10.9109445 C59.7975,11.0184873 59.7942059,11.1264453 59.7884412,11.2335729 C59.7880294,11.2381403 59.7571471,11.5246443 59.7592059,11.5512186 C59.7196765,11.7870654 59.6669706,12.0212513 59.6015,12.2504545 C59.5566176,12.4061632 59.5043235,12.5585501 59.4503824,12.710937 C59.4265,12.7794488 59.4174412,12.8101754 59.4153824,12.8222168 C59.4063235,12.8359192 59.3882059,12.8666457 59.3523824,12.9330814 C59.2251471,13.1718348 59.1020294,13.408512 58.9537941,13.6348086 C58.7660294,13.9221431 58.8080294,13.8648423 58.5477941,14.1426266 C58.3555,14.3481621 58.1496176,14.5462235 57.9280882,14.7197868 C57.9083235,14.7326587 57.8848529,14.748022 57.8552059,14.7671223 C57.6793824,14.880063 57.5080882,14.9971559 57.3260882,15.1005465 C57.2350882,15.1516189 57.1432647,15.2014457 57.0502059,15.2487812 C57.0502059,15.2487812 56.8064412,15.3617219 56.7735,15.3808222 C56.5552647,15.4692647 56.3296176,15.5448353 56.1035588,15.6100254 C55.8495,15.6835199 55.5925588,15.7345923 55.3343824,15.7906474 C55.2849706,15.8014432 55.2512059,15.8093325 55.2252647,15.8159761 C55.1989118,15.817637 55.1659706,15.8197131 55.1182059,15.8238653 C54.9337353,15.840059 54.7500882,15.8545918 54.5652059,15.8608202 C54.3692059,15.8670485 54.1732059,15.8637267 53.9772059,15.8558375 C54.1200882,15.6735545 54.2502059,15.4800605 54.3650882,15.274525 C55.2956765,13.6069887 55.0659118,11.393849 53.4851471,10.2237501 C52.0962647,9.19607266 50.1214412,9.52160765 48.8680294,10.6024336 C47.4915,11.789972 47.3148529,13.8395137 47.9876765,15.4435209 C47.9893235,15.4480883 47.9922059,15.4522405 47.9942647,15.456808 C47.2547353,15.5560463 46.5230294,15.5298873 45.7888529,15.302345 C45.7810294,15.2998536 45.5632059,15.220546 45.5154412,15.2080893 C45.4030294,15.1570168 45.2910294,15.1022074 45.1835588,15.0432457 C45.0505588,14.9697512 44.9262059,14.8846304 44.7965,14.805738 C44.7433824,14.7737658 44.7170294,14.7596483 44.7001471,14.751759 C44.6906765,14.7397175 44.6725588,14.7206173 44.6309706,14.6820015 C44.5206176,14.5794414 44.4102647,14.4797878 44.3069118,14.3701689 C44.2830294,14.3448403 44.1582647,14.1878859 44.1315,14.1608964 C44.0615,14.0591667 43.9939706,13.9553609 43.9346765,13.8474029 C43.9013235,13.7871955 43.8720882,13.7244968 43.8420294,13.6626286 C43.8370882,13.644774 43.8239118,13.6069887 43.7975588,13.5351551 C43.5307353,12.738757 42.7352059,12.2155757 41.8985,12.4476855 C41.1280882,12.6611102 40.5516176,13.562975 40.8196765,14.3631101 C41.3714412,16.0090548 42.5906765,17.3082882 44.1718529,17.9942369 C45.9795,18.7781783 47.9761471,18.7586628 49.8583235,18.2442013 C50.0493824,18.1922984 50.2420882,18.1333367 50.4352059,18.0710532 C52.4067353,19.1331942 55.0156765,19.2075191 57.0757353,18.5676602 C58.9517353,17.985102 60.5971471,16.8108508 61.6640294,15.138747 C62.7597353,13.4213839 63.0685588,11.3614616 62.7321471,9.3721273" id="Fill-16" fill="#A179C5"></path>
                    <path d="M51.7472941,12.7983 C51.7452353,12.7949782 51.7460588,12.7953934 51.7444118,12.7929021 C51.7365882,12.7845976 51.7283529,12.7762931 51.7205294,12.7675735 C51.7176471,12.766743 51.716,12.7663278 51.7131176,12.7654973 C51.7201176,12.7783693 51.7312353,12.7895803 51.7472941,12.7983" id="Fill-18" fill="#A179C5"></path>
                </g>
            </g>
        </g>
    </g>
</svg>