<?xml version="1.0" encoding="UTF-8"?>
<svg width="10px" height="10px" viewBox="0 0 10 10" version="1.1" xmlns="http://www.w3.org/2000/svg" xmlns:xlink="http://www.w3.org/1999/xlink">
    <title>Fill 2</title>
    <g id="Page-1" stroke="none" stroke-width="1" fill="none" fill-rule="evenodd">
        <g id="LL21---pop-up-Shipping-method" transform="translate(-46.000000, -398.000000)" fill="#A774C8">
            <path d="M55.8720756,402.238263 L55.8720756,402.237676 C55.5890433,401.141685 55.1511733,400.125487 54.2789087,399.374487 C53.4661078,398.675509 52.5652696,398.132598 51.4752283,398 C49.65579,398.002738 47.8363517,398.005867 46.0169134,398.008996 L46.0169134,400.788871 C46.0288834,402.042494 45.8883325,403.296899 46.252838,404.551696 C46.7073115,406.115067 48.7313208,407.949503 50.343408,407.981264 L50.3433308,407.981342 L50.3494702,407.981342 C51.5488631,408.005085 52.7489124,408.001447 53.9490775,407.995854 L54.9618931,408 L56,408 L56,403.419484 C56,402.687768 55.8753191,402.249567 55.8720756,402.238263" id="Fill-2"></path>
        </g>
    </g>
</svg>