<?xml version="1.0" encoding="UTF-8"?>
<svg width="21px" height="21px" viewBox="0 0 21 21" version="1.1" xmlns="http://www.w3.org/2000/svg" xmlns:xlink="http://www.w3.org/1999/xlink">
    <title>Group 31</title>
    <g id="Page-1" stroke="none" stroke-width="1" fill="none" fill-rule="evenodd">
        <g id="LL22---Entry-Point---My-Profile" transform="translate(-32.000000, -412.000000)" fill-rule="nonzero">
            <g id="Group-6" transform="translate(16.000000, 67.000000)">
                <g id="Group-15" transform="translate(0.000000, 335.000000)">
                    <g id="Group-31" transform="translate(16.000000, 10.000000)">
                        <g id="Group-11" transform="translate(10.500000, 10.500000) scale(-1, 1) translate(-10.500000, -10.500000) ">
                            <path d="M3.00338634,12.5994435 C3.16256211,12.5994435 3.31504484,12.5361555 3.42752368,12.4236463 C3.54000251,12.3111372 3.60327346,12.1586133 3.60327346,11.9993946 L3.60327346,9.59919887 L9.30220112,9.59919887 L9.30220112,18.5999329 L8.10242688,18.5999329 C7.77118207,18.5999329 7.50253976,18.8686476 7.50253976,19.1999818 C7.50253976,19.5313159 7.77118207,19.8000307 8.10242688,19.8000307 L16.8007901,19.8000307 C17.5960262,19.7990262 18.3584399,19.4825963 18.9206627,18.9202304 C19.4828855,18.3578645 19.7992402,17.5952366 19.8002258,16.7997861 L19.8002258,10.7992967 C19.8002258,10.4679626 19.5315834,10.1992478 19.2003386,10.1992478 C18.8690938,10.1992478 18.6004515,10.4679626 18.6004515,10.7992967 L18.6004515,16.7997861 C18.5999494,17.277125 18.4101416,17.7345337 18.0727222,18.0720612 C17.7353029,18.4095888 17.2780004,18.5994614 16.8007901,18.5999329 L12.9015239,18.5999329 L12.9015239,12.5994435 C12.9015239,12.2681094 12.6328815,11.9993946 12.3016367,11.9993946 C11.9703919,11.9993946 11.7017496,12.2681094 11.7017496,12.5994435 L11.7017496,18.5999329 L10.5019754,18.5999329 L10.5019754,9.59919887 L19.2003386,9.59919887 C19.6775488,9.59869659 20.1348342,9.40883764 20.4722707,9.07132726 C20.8097072,8.73381688 20.9995287,8.276391 21,7.79905208 L21,5.99890528 C20.9994979,5.52156636 20.8096901,5.06415763 20.4722707,4.7266301 C20.1348514,4.38910258 19.6775488,4.19922995 19.2003386,4.19875849 L15.4445311,4.19875849 C15.964419,3.42105221 16.0445896,2.42959993 15.6564326,1.5785591 C15.2682799,0.727389693 14.4670279,0.138055921 13.5390882,0.0211749607 C12.6111485,-0.0957059991 11.6888649,0.276662938 11.1018753,1.00495518 C10.5148858,0.276667224 9.59260219,-0.0957059991 8.66466251,0.0211749607 C7.73672283,0.138055921 6.93548789,0.727389693 6.54731807,1.5785591 C6.15916539,2.42955707 6.23934031,3.42105221 6.75921962,4.19875849 L3.00341205,4.19875849 C2.52620185,4.19926077 2.06891646,4.38911972 1.73147996,4.7266301 C1.39404345,5.06414048 1.20422203,5.52156636 1.20375069,5.99890528 L1.20375069,7.79905208 C1.20425284,8.1709024 1.31974315,8.53355483 1.53466128,8.83709387 C1.74940801,9.14063291 2.05304945,9.37019449 2.40351208,9.49423317 L2.40351208,11.9993946 C2.40351208,12.1586133 2.46678303,12.3111372 2.57926186,12.4236463 C2.6917407,12.5361555 2.84422343,12.5994435 3.0033992,12.5994435 L3.00338634,12.5994435 Z M11.7017496,5.39885635 L11.7017496,8.39910101 L10.5019754,8.39910101 L10.5019754,5.39885635 L11.7017496,5.39885635 Z M19.8002258,5.99890528 L19.8002258,7.79905208 C19.8002258,7.95827078 19.7369548,8.11079464 19.624476,8.22330382 C19.5119971,8.33581299 19.3595144,8.39910101 19.2003386,8.39910101 L12.9015239,8.39910101 L12.9015239,5.39885635 L19.2003386,5.39885635 C19.3595144,5.39885635 19.5119971,5.46214437 19.624476,5.57465354 C19.7369548,5.68716272 19.8002258,5.83968658 19.8002258,5.99890528 Z M13.2014674,1.19851383 C13.5991583,1.19851383 13.9806351,1.35656243 14.2619821,1.63783537 C14.5431792,1.91927546 14.7011852,2.30084657 14.7011852,2.69863616 C14.7011852,3.09642574 14.5431792,3.478014 14.2619821,3.75943695 C13.9806179,4.04070988 13.5991497,4.19875849 13.2014674,4.19875849 C12.8037851,4.19875849 12.4222997,4.04070988 12.1409527,3.75943695 C11.8597556,3.47799685 11.7017496,3.09642574 11.7017496,2.69863616 C11.7022518,2.30100516 11.860424,1.9196012 12.1414669,1.63834969 C12.422664,1.35724391 12.8039565,1.19902815 13.2014674,1.19851383 Z M7.50253976,2.69863616 C7.50253976,2.300838 7.66054574,1.91925831 7.94174283,1.63783537 C8.22310703,1.35656243 8.60457525,1.19851383 9.00225756,1.19851383 C9.39993987,1.19851383 9.78142524,1.35656243 10.0627723,1.63783537 C10.3439694,1.91927546 10.5019754,2.30084657 10.5019754,2.69863616 C10.5019754,3.09642574 10.3439694,3.478014 10.0627723,3.75943695 C9.7814081,4.04070988 9.39993987,4.19875849 9.00225756,4.19875849 C8.60473379,4.1982562 8.22343268,4.04004126 7.94225702,3.75892262 C7.66122704,3.47764968 7.50305395,3.09625429 7.50253976,2.69863616 Z M2.40349922,5.99890528 C2.40349922,5.66757112 2.67214153,5.39885635 3.00338634,5.39885635 L9.30220112,5.39885635 L9.30220112,8.39910101 L3.00338634,8.39910101 C2.67214153,8.39910101 2.40349922,8.13038624 2.40349922,7.79905208 L2.40349922,5.99890528 Z" id="Shape" fill="#A775C8"></path>
                            <path d="M12.9015239,10.7992967 C12.9015239,11.1306309 12.6328815,11.3993457 12.3016367,11.3993457 C11.9703919,11.3993457 11.7017496,11.1306309 11.7017496,10.7992967 C11.7017496,10.4679626 11.9703919,10.1992478 12.3016367,10.1992478 C12.6328815,10.1992478 12.9015239,10.4679626 12.9015239,10.7992967" id="Path" fill="#A775C8"></path>
                            <path d="M3.12336377,20.5295188 C3.40288546,20.8295432 3.79438036,21 4.20444606,21 C4.61451176,21 5.0060238,20.8295604 5.28552835,20.5295188 L7.56758466,18.0675609 C8.17432764,17.4646831 8.47611371,16.6198571 8.38908723,15.7688163 C8.31142327,15.1024619 8.00562224,14.4836829 7.52392145,14.0170591 C7.04222066,13.5504354 6.41387318,13.2648121 5.74568462,13.2087504 C5.21444173,13.1657226 4.68148487,13.2680181 4.20397472,13.5047545 C3.53728588,13.1774407 2.77238695,13.1113067 2.05950681,13.3197508 C1.11447034,13.5946633 0.377851807,14.3370052 0.10987366,15.284311 C-0.0297200737,15.7691506 -0.0364173849,16.2826639 0.0904578844,16.7708894 C0.217496837,17.2592864 0.473421538,17.704437 0.831447027,18.0597088 L3.12336377,20.5295188 Z M1.2654705,15.603117 C1.42129975,15.0569868 1.84727531,14.6297091 2.39261555,14.4721534 C2.55832152,14.423768 2.73005206,14.3989903 2.90260531,14.398655 C3.21242558,14.3983211 3.51671832,14.4820328 3.78268256,14.6410843 C3.91022714,14.7169262 4.05601256,14.7569409 4.20448034,14.7569409 C4.35294812,14.7569409 4.49873354,14.7169266 4.62644522,14.6410843 C5.12053797,14.345916 5.73015183,14.3196295 6.24785442,14.5712686 C6.765557,14.8229077 7.12176141,15.318501 7.19503333,15.8895761 C7.24591662,16.3843165 7.06933127,16.8755422 6.71516649,17.2245993 L4.40568676,19.7148881 C4.29320793,19.8230426 4.1154528,19.8230426 4.00314108,19.7148881 L1.69366136,17.2245993 L1.69349399,17.2245993 C1.48292933,17.017831 1.33195488,16.7581469 1.25664762,16.4726951 C1.18134036,16.1872432 1.1843398,15.8868759 1.26551866,15.6030956 L1.2654705,15.603117 Z" id="Shape" fill="#F05868"></path>
                        </g>
                    </g>
                </g>
            </g>
        </g>
    </g>
</svg>