<?xml version="1.0" encoding="UTF-8"?>
<svg width="17px" height="18px" viewBox="0 0 17 18" version="1.1" xmlns="http://www.w3.org/2000/svg" xmlns:xlink="http://www.w3.org/1999/xlink">
    <title>Search</title>
    <g id="Symbols" stroke="none" stroke-width="1" fill="none" fill-rule="evenodd">
        <g id="Components/icons/search" transform="translate(-4.000000, -3.000000)" fill="#404040">
            <g id="Search" transform="translate(4.000000, 3.000000)">
                <path d="M16.5307812,16.5385714 L12.5707812,12.6 C15.3454765,9.80814463 15.4300257,5.32654357 12.7626088,2.43201814 C10.0951918,-0.46250729 5.62161696,-0.743621031 2.61283704,1.79421942 C-0.395942871,4.33205987 -0.873079656,8.78899123 1.53029576,11.90623 C3.93367118,15.0234687 8.3653739,15.6957094 11.5850669,13.4314286 L15.6222097,17.4685714 C15.8755038,17.7045933 16.2702181,17.697629 16.5150284,17.4528187 C16.7598388,17.2080083 16.766803,16.8132941 16.5307812,16.56 L16.5307812,16.5385714 Z M1.39792402,7.45714286 C1.39792402,4.14343436 4.08421552,1.45714286 7.39792402,1.45714286 C10.7116325,1.45714286 13.397924,4.14343436 13.397924,7.45714286 C13.397924,10.7708514 10.7116325,13.4571429 7.39792402,13.4571429 C4.08421552,13.4571429 1.39792402,10.7708514 1.39792402,7.45714286 Z" id="Shape"></path>
            </g>
        </g>
    </g>
</svg>