<?xml version="1.0" encoding="UTF-8"?>
<svg width="24px" height="21px" viewBox="0 0 24 21" version="1.1" xmlns="http://www.w3.org/2000/svg" xmlns:xlink="http://www.w3.org/1999/xlink">
    <!-- Generator: Sketch 64 (93537) - https://sketch.com -->
    <title>Group 37</title>
    <desc>Created with Sketch.</desc>
    <defs>
        <polygon id="path-1" points="8.19672131e-06 0.00483666796 29.9951639 0.00483666796 29.9951639 30.0037369 8.19672131e-06 30.0037369"></polygon>
    </defs>
    <g id="Page-1" stroke="none" stroke-width="1" fill="none" fill-rule="evenodd">
        <g id="Group-37" transform="translate(-3.000000, -5.000000)">
            <g id="Group-36" transform="translate(0.000000, 0.450715)">
                <g id="Group-3" transform="translate(0.000000, 0.077141)">
                    <mask id="mask-2" fill="white">
                        <use xlink:href="#path-1"></use>
                    </mask>
                    <g id="Clip-2"></g>
                </g>
                <path d="M8.64077869,5.52095811 L7.44118852,9.35627185 C8.44856557,9.67147504 9.00979508,10.7437397 8.69463115,11.7512423 C8.37954918,12.7588268 7.30733607,13.3201262 6.29995902,13.004923 L5.10036885,16.8402367 L22.1115164,22.162293 L25.6519262,10.8430144 L8.64077869,5.52095811 Z" id="Fill-4" fill="#D4B1EF"></path>
                <path d="M5.61387705,16.5713672 L21.8426475,21.6487209 L25.1383852,11.1118348 L8.90961475,6.03448108 L7.94395902,9.12166886 C8.36231967,9.3386631 8.70387705,9.67772172 8.9269918,10.1040043 C9.21453279,10.653417 9.27092623,11.2818559 9.0857623,11.873651 C8.74543443,12.9618193 7.67297541,13.6224753 6.57953279,13.4838515 L5.61387705,16.5713672 Z M22.1115,22.5722785 C22.0710082,22.5722785 22.0297787,22.5661302 21.989041,22.5534237 L4.97797541,17.2313674 C4.7619918,17.163818 4.64166393,16.9338714 4.70928689,16.7178608 L5.90887705,12.8825471 C5.9765,12.6665366 6.2062541,12.5462757 6.42231967,12.6137431 C7.21215574,12.860987 8.0565,12.4191287 8.30354918,11.6288664 C8.42322131,11.2461138 8.3867459,10.8395877 8.20084426,10.4842156 C8.01477869,10.1288435 7.70158197,9.86725352 7.31879508,9.74748451 C7.21502459,9.71502145 7.12854918,9.64263538 7.07805738,9.54639389 C7.02764754,9.45007042 7.01756557,9.33767937 7.05002459,9.23389595 L8.24969672,5.39858221 C8.31731967,5.1825717 8.54707377,5.06231082 8.76322131,5.12977824 L25.7742869,10.4518345 C25.8780574,10.4842976 25.9645328,10.5566017 26.0150246,10.6529251 C26.0654344,10.7492486 26.0755164,10.8616397 26.0429754,10.9653411 L22.5025656,22.2846197 C22.4477295,22.4599694 22.2860082,22.5722785 22.1115,22.5722785 L22.1115,22.5722785 Z" id="Fill-6" fill="#A179C5"></path>
                <path d="M16.8567541,11.9386017 C16.7600328,11.9386017 16.6641311,11.9619652 16.5760164,12.0081185 C16.4323279,12.0832918 16.3265902,12.2099469 16.2782295,12.3646383 C16.2298689,12.5194117 16.244541,12.6837764 16.3197049,12.8274009 C16.3948689,12.9710253 16.5215082,13.0768582 16.6762623,13.1252249 C16.9952787,13.2253193 17.3368361,13.0466085 17.4367541,12.7271425 C17.5365902,12.4076765 17.3579836,12.0664864 17.0386393,11.966556 C16.9788033,11.9478651 16.9176557,11.9386017 16.8567541,11.9386017 M16.8565082,13.9727894 C16.7157705,13.9727894 16.5727377,13.9518032 16.4315902,13.9076174 C16.0678197,13.7938327 15.7701967,13.5451952 15.5935574,13.2075302 C15.4168361,12.8698652 15.3821639,12.4835876 15.4959344,12.1198537 C15.609623,11.7562019 15.8582295,11.4586239 16.1958525,11.2817986 C16.5333934,11.1051372 16.919623,11.0703788 17.2833934,11.1841634 C18.0340492,11.4191107 18.4538033,12.2210139 18.2190492,12.9718451 L18.2189672,12.9719271 C18.0283115,13.5814292 17.4638033,13.9727894 16.8565082,13.9727894" id="Fill-8" fill="#FFFFFF"></path>
                <polygon id="Fill-10" fill="#FFFFFF" points="15.3454836 16.7814753 14.8626148 16.1190158 20.1590082 12.2576332 20.6417951 12.9200928"></polygon>
                <path d="M18.7300738,15.91199 C18.4717131,15.91199 18.2315492,16.0784861 18.1504016,16.3378627 C18.0505656,16.6572467 18.2291721,16.9984368 18.5485164,17.0983672 C18.7031885,17.1467339 18.8674508,17.13206 19.0111393,17.0568047 C19.1548279,16.9816314 19.2605656,16.8549763 19.3089262,16.7002849 L19.3089262,16.7002029 C19.3572869,16.5455115 19.3426148,16.3812288 19.2674508,16.2375223 C19.1922869,16.0938979 19.0656475,15.988147 18.9108934,15.9396983 C18.8508934,15.9209255 18.7899098,15.91199 18.7300738,15.91199 M18.7313852,17.9465057 C18.5882705,17.9465057 18.4443361,17.9247817 18.3037623,17.8807598 C17.5531066,17.6458945 17.1333525,16.8439093 17.3681066,16.0930781 C17.6030246,15.3422469 18.4049918,14.9223585 19.1555656,15.1573058 C19.5193361,15.2711725 19.816959,15.519728 19.9935984,15.857393 C20.1703197,16.195058 20.2049918,16.5813356 20.0911393,16.9450695 C19.9774508,17.3087213 19.7289262,17.6063813 19.3912213,17.7831247 C19.1841721,17.8915808 18.9586803,17.9465057 18.7313852,17.9465057" id="Fill-12" fill="#FFFFFF"></path>
                <path d="M13.2525246,6.96377715 L8.64080328,5.5209745 L7.44121311,9.35628824 C8.44859016,9.67149144 9.00981967,10.7437561 8.69465574,11.7512587 C8.3794918,12.7588432 7.30736066,13.3200606 6.29998361,13.0049394 L5.10039344,16.8401712 L9.71211475,18.2830558 L13.2525246,6.96377715 Z" id="Fill-14" fill="#FFECD8"></path>
                <path d="M5.61387705,16.5713672 L9.44330328,17.7694672 L12.739041,7.23258112 L8.90961475,6.03448108 L7.94387705,9.12199677 C8.9215,9.6313225 9.42617213,10.7854826 9.0857623,11.873651 C8.74543443,12.9618193 7.67297541,13.6224753 6.57953279,13.4838515 L5.61387705,16.5713672 Z M9.98084426,18.7965624 L4.58690984,17.1090571 L6.03117213,12.4913508 L6.42231967,12.6137431 C7.21215574,12.860987 8.0565,12.4191287 8.30354918,11.6288664 C8.55068033,10.838686 8.10895902,9.99464644 7.31879508,9.74748451 L6.92764754,9.62509221 L8.3719918,5.00738595 L13.7660082,6.6948912 L9.98084426,18.7965624 Z" id="Fill-16" fill="#A179C5"></path>
                <path d="M4.3432459,12.6997702 L4.3432459,16.7183855 C5.39881967,16.7183855 6.25447541,17.5741478 6.25447541,18.6298531 C6.25447541,19.6855583 5.39881967,20.5413206 4.3432459,20.5413206 L4.3432459,24.5599359 L22.1672623,24.5599359 L22.1672623,12.6997702 L4.3432459,12.6997702 Z" id="Fill-18" fill="#D4B1EF"></path>
                <path d="M4.75305738,24.1500406 L21.7574016,24.1500406 L21.7574016,13.1096492 L4.75305738,13.1096492 L4.75305738,16.3447242 C5.83805738,16.5388467 6.66428689,17.4897029 6.66428689,18.6298449 C6.66428689,19.7699869 5.83805738,20.720843 4.75305738,20.9150475 L4.75305738,24.1500406 Z M22.1672377,24.9698148 L4.34322131,24.9698148 C4.11682787,24.9698148 3.93338525,24.7862674 3.93338525,24.5599277 L3.93338525,20.5413124 C3.93338525,20.3149728 4.11682787,20.1314253 4.34322131,20.1314253 C5.17117213,20.1314253 5.84461475,19.4578168 5.84461475,18.6298449 C5.84461475,17.8018729 5.17117213,17.1282644 4.34322131,17.1282644 C4.11682787,17.1282644 3.93338525,16.944717 3.93338525,16.7183773 L3.93338525,12.699762 C3.93338525,12.4734224 4.11682787,12.2898749 4.34322131,12.2898749 L22.1672377,12.2898749 C22.3936311,12.2898749 22.5770738,12.4734224 22.5770738,12.699762 L22.5770738,24.5599277 C22.5770738,24.7862674 22.3936311,24.9698148 22.1672377,24.9698148 L22.1672377,24.9698148 Z" id="Fill-20" fill="#A179C5"></path>
                <path d="M14.2822295,16.343929 C13.9475574,16.343929 13.6753443,16.616258 13.6753443,16.9508899 C13.6753443,17.2856037 13.9475574,17.5579327 14.2822295,17.5579327 C14.6169016,17.5579327 14.8891148,17.2856037 14.8891148,16.9508899 C14.8891148,16.616258 14.6169016,16.343929 14.2822295,16.343929 M14.2822295,18.3777069 C13.4955902,18.3777069 12.8556721,17.7376272 12.8556721,16.9508899 C12.8556721,16.1642345 13.4955902,15.5241548 14.2822295,15.5241548 C15.0688689,15.5241548 15.7087869,16.1642345 15.7087869,16.9508899 C15.7087869,17.7376272 15.0688689,18.3777069 14.2822295,18.3777069" id="Fill-22" fill="#FFFFFF"></path>
                <polygon id="Fill-24" fill="#FFFFFF" points="14.1036475 21.4447446 13.445041 20.956733 17.3470902 15.6900115 18.0056967 16.1780231"></polygon>
                <path d="M17.2551393,19.5768317 C16.9204672,19.5768317 16.6482541,19.8491607 16.6482541,20.1838745 C16.6482541,20.5185063 16.9204672,20.7908353 17.2551393,20.7908353 C17.5898115,20.7908353 17.8620246,20.5185063 17.8620246,20.1838745 C17.8620246,19.8491607 17.5898115,19.5768317 17.2551393,19.5768317 M17.2551393,21.6106096 C16.4685,21.6106096 15.828582,20.9705298 15.828582,20.1838745 C15.828582,19.3971372 16.4685,18.7570574 17.2551393,18.7570574 C18.0417787,18.7570574 18.6816967,19.3971372 18.6816967,20.1838745 C18.6816967,20.9705298 18.0417787,21.6106096 17.2551393,21.6106096" id="Fill-26" fill="#FFFFFF"></path>
                <path d="M9.17536885,12.6997784 L4.3432377,12.6997784 L4.3432377,16.7183937 C5.39881148,16.7183937 6.25446721,17.574156 6.25446721,18.6298613 C6.25446721,19.6855665 5.39881148,20.5413288 4.3432377,20.5413288 L4.3432377,24.5599441 L9.17536885,24.5599441 L9.17536885,12.6997784 Z" id="Fill-28" fill="#FFECD8"></path>
                <path d="M4.75305738,24.1500406 L8.76551639,24.1500406 L8.76551639,13.1096492 L4.75305738,13.1096492 L4.75305738,16.3447242 C5.83805738,16.5388467 6.66428689,17.4897029 6.66428689,18.6298449 C6.66428689,19.7699869 5.83805738,20.720843 4.75305738,20.9150475 L4.75305738,24.1500406 Z M9.58518852,24.9698148 L3.93338525,24.9698148 L3.93338525,20.1314253 L4.34322131,20.1314253 C5.17117213,20.1314253 5.84461475,19.4578168 5.84461475,18.6298449 C5.84461475,17.8018729 5.17117213,17.1282644 4.34322131,17.1282644 L3.93338525,17.1282644 L3.93338525,12.2898749 L9.58518852,12.2898749 L9.58518852,24.9698148 Z" id="Fill-30" fill="#A179C5"></path>
            </g>
        </g>
    </g>
</svg>