<?xml version="1.0" encoding="UTF-8"?>
<svg width="34px" height="34px" viewBox="0 0 34 34" version="1.1" xmlns="http://www.w3.org/2000/svg" xmlns:xlink="http://www.w3.org/1999/xlink">
    <title>Group 12</title>
    <defs>
        <polygon id="path-1" points="0 31.8871915 31.8871915 31.8871915 31.8871915 0 0 0"></polygon>
    </defs>
    <g id="Page-1" stroke="none" stroke-width="1" fill="none" fill-rule="evenodd">
        <g id="LL21---Shopping-Bag---Full" transform="translate(-15.000000, -1012.000000)">
            <g id="Group-11" transform="translate(0.000000, 1001.000000)">
                <g id="Group-12" transform="translate(16.000000, 12.000000)">
                    <path d="M31.6491177,15.9434929 L31.4115066,15.9434929 C31.4109923,20.2158623 29.6803407,24.0808985 26.8809539,26.8807996 C24.0810528,29.6801864 20.2155022,31.4113524 15.9436472,31.4113524 C11.6717922,31.4113524 7.80624164,29.6801864 5.0063405,26.8807996 C2.20695367,24.0808985 0.476302066,20.2158623 0.475787756,15.9434929 C0.476302066,11.6716379 2.20695367,7.80608735 5.0063405,5.00618621 C7.80624164,2.20679938 11.6717922,0.476147773 15.9436472,0.476147773 C20.2155022,0.476147773 24.0810528,2.20679938 26.8809539,5.00618621 C29.6803407,7.80608735 31.4109923,11.6716379 31.4115066,15.9434929 L31.6491177,15.9434929 L31.887243,15.9434929 C31.8867287,7.13799926 24.7486265,-0.000102861908 15.9436472,-0.000102861908 C7.13815355,-0.000102861908 5.14309541e-05,7.13799926 5.14309541e-05,15.9434929 C5.14309541e-05,24.7489866 7.13815355,31.8870887 15.9436472,31.8870887 C24.7486265,31.8870887 31.8867287,24.7489866 31.887243,15.9434929 L31.6491177,15.9434929 Z" id="Fill-3" stroke="#8B7FBF" stroke-width="0.5" fill="#8B7FBF"></path>
                    <mask id="mask-2" fill="white">
                        <use xlink:href="#path-1"></use>
                    </mask>
                    <g id="Clip-7"></g>
                    <polygon id="Fill-6" fill="#F3F0FC" mask="url(#mask-2)" points="9.49621136 24.1715198 23.8073887 24.1715198 23.8073887 12.5434954 9.49621136 12.5434954"></polygon>
                    <polygon id="Fill-8" fill="#8B7FBF" mask="url(#mask-2)" points="22.6148077 23.1279857 22.6148077 22.9042611 8.52684074 22.9042611 8.52684074 11.723686 22.391083 11.723686 22.391083 23.1279857 22.6148077 23.1279857 22.6148077 22.9042611 22.6148077 23.1279857 22.8385323 23.1279857 22.8385323 11.276751 8.07990575 11.276751 8.07990575 23.3517104 22.8385323 23.3517104 22.8385323 23.1279857"></polygon>
                    <path d="M15.1698685,11.3297763 C14.0738749,11.0376485 13.0066826,10.6354584 11.9898926,10.1314351 C11.7162799,9.99617167 11.4303238,9.81513471 11.2235714,9.60941089 C11.015276,9.40162984 10.8964705,9.18356259 10.8969848,8.96138087 C10.8969848,8.92126473 10.9010993,8.88166289 10.9082996,8.84000382 L10.9088139,8.83948951 C10.9329865,8.70731196 11.001904,8.58284905 11.1057945,8.47638698 C11.2081421,8.3699249 11.3449484,8.28454952 11.4874122,8.23466149 C11.6319332,8.18477347 11.7872546,8.16317247 11.9497765,8.16317247 C12.1174414,8.16265816 12.2923066,8.18631639 12.4646003,8.2243753 C13.2262927,8.39255452 13.912896,8.85080432 14.4071474,9.46694715 C14.9019132,10.08309 15.2007271,10.8530114 15.2002128,11.6327046 L15.2002128,11.6512198 L15.6476621,11.6388763 L15.6270897,11.6393907 L15.6476621,11.6393907 L15.6471478,11.6388763 L15.6270897,11.6393907 L15.6476621,11.6393907 L15.6476621,11.6327046 C15.6471478,10.7383203 15.3082178,9.87530893 14.7558493,9.18716276 C14.2039952,8.4990166 13.4345881,7.9816212 12.5612905,7.7877265 C12.3648243,7.7445245 12.1591004,7.71572316 11.9497765,7.71572316 C11.7476528,7.71572316 11.5414147,7.74298157 11.340834,7.81241336 C11.1330529,7.884931 10.9401868,8.00476513 10.7848654,8.16471539 C10.6295439,8.32415135 10.5112527,8.526275 10.468565,8.75874291 L10.4649648,8.77880099 L10.468565,8.7582286 C10.4557072,8.82663177 10.4500498,8.89452063 10.4500498,8.96138087 C10.4510785,9.34814165 10.6526878,9.67267097 10.9082996,9.92622557 C11.166483,10.1823517 11.4889551,10.3813895 11.7913691,10.5320822 C12.8349032,11.0494776 13.9298682,11.4619539 15.0546632,11.7617963 L15.1698685,11.3297763 Z" id="Fill-9" fill="#8B7FBF" mask="url(#mask-2)"></path>
                    <path d="M15.8130126,11.7619506 C16.9383219,11.4621082 18.0332869,11.0496319 19.0763066,10.5322365 C19.3792349,10.3815438 19.701707,10.182506 19.9593761,9.92637986 C20.2155022,9.67282526 20.4171116,9.34829594 20.4181402,8.96050655 C20.4181402,8.89416062 20.4114542,8.82678607 20.3991108,8.75889721 L20.3934533,8.72752432 L20.3991108,8.75889721 C20.3564231,8.52591498 20.2381319,8.32379133 20.0833247,8.16435538 C19.9274889,8.00491942 19.7346228,7.88457099 19.5273561,7.81256765 C19.3267754,7.74313586 19.1205372,7.71587746 18.9178993,7.71587746 C18.7085753,7.71587746 18.5028515,7.74467879 18.3068995,7.78788079 C17.4330876,7.98126118 16.6641949,8.49917089 16.1118264,9.18731705 C15.5599723,9.87546322 15.2210423,10.7379603 15.220528,11.6328589 L15.220528,11.6508598 L15.6679773,11.6390306 L15.6679773,11.6328589 C15.667463,10.8526513 15.9662768,10.0832443 16.4605283,9.46710144 C16.9547798,8.85095861 17.6418973,8.39270881 18.4035897,8.22452959 C18.5758834,8.18647069 18.7502344,8.16281245 18.9178993,8.16281245 C19.0804211,8.16281245 19.2362569,8.18492776 19.3807779,8.23533009 C19.5232416,8.2841895 19.6595336,8.36956488 19.7623955,8.47602696 C19.8657718,8.58248903 19.9352035,8.70746625 19.9593761,8.8396438 L19.9593761,8.83912949 C19.9670907,8.88130288 19.9706909,8.92141902 19.9706909,8.96050655 C19.9712052,9.18320258 19.8523997,9.40178413 19.6441043,9.60905088 C19.4378662,9.81477469 19.1513958,9.99632596 18.8777831,10.1315894 C17.8615075,10.6356127 16.7943152,11.0372885 15.6978072,11.3299306 L15.8130126,11.7619506 Z" id="Fill-10" fill="#8B7FBF" mask="url(#mask-2)"></path>
                    <polyline id="Fill-11" fill="#8B7FBF" mask="url(#mask-2)" points="15.2353915 11.5000128 15.2353915 23.1280372 15.6828408 23.1280372 15.6828408 11.5000128"></polyline>
                </g>
            </g>
        </g>
    </g>
</svg>