<?xml version="1.0" encoding="UTF-8"?>
<svg width="27px" height="27px" viewBox="0 0 27 27" version="1.1" xmlns="http://www.w3.org/2000/svg" xmlns:xlink="http://www.w3.org/1999/xlink">
    <title>Group 3</title>
    <g id="Page-1" stroke="none" stroke-width="1" fill="none" fill-rule="evenodd">
        <g id="LL21---Shopping-Bag---Full" transform="translate(-26.000000, -1404.000000)">
            <g id="Group-15" transform="translate(0.000000, 1173.000000)">
                <g id="Group-14" transform="translate(16.000000, 16.000000)">
                    <g id="Group-5-Copy" transform="translate(0.000000, 106.000000)">
                        <g id="Components-/-Form-/-Default-/-Empty" transform="translate(0.000000, 23.000000)">
                            <g id="Group-17" transform="translate(0.000000, 80.000000)">
                                <g id="Group-3" transform="translate(10.672918, 6.544743)">
                                    <path d="M1.44974684,9.57554803 C2.93350036,4.58292763 7.56314823,0.940329835 13.0397585,0.940329835 C18.5609457,0.940329835 23.222457,4.64657496 24.6679903,9.70292215 C24.9736723,10.7664126 25.1392666,11.8808368 25.1392666,13.039838 C25.1392666,19.7201058 19.7199469,25.1393461 13.0397585,25.1393461 C11.8808368,25.1393461 10.7663331,24.9737518 9.70284269,24.6680698 C4.64657496,23.222457 0.940329835,18.5610252 0.940329835,13.039838 C0.940329835,11.8362598 1.11863771,10.6772587 1.44974684,9.57554803" id="Fill-1" stroke="#8B7FBF" stroke-width="1.41049475" fill="#FFFFFF"></path>
                                    <g id="coupon" transform="translate(12.950736, 13.306094) rotate(-315.000000) translate(-12.950736, -13.306094) translate(4.950736, 8.306094)" fill="#8B7FBF" fill-rule="nonzero">
                                        <path d="M8.43358321,1.76311844 C7.70444558,1.76311844 7.11124438,2.35631964 7.11124438,3.08545727 C7.11124438,3.8145949 7.70444558,4.4077961 8.43358321,4.4077961 C9.16272084,4.4077961 9.75592204,3.8145949 9.75592204,3.08545727 C9.75592204,2.35631964 9.16272084,1.76311844 8.43358321,1.76311844 Z M8.43358321,3.52623688 C8.19053733,3.52623688 7.9928036,3.32850315 7.9928036,3.08545727 C7.9928036,2.84241139 8.19053733,2.64467766 8.43358321,2.64467766 C8.67662909,2.64467766 8.87436282,2.84241139 8.87436282,3.08545727 C8.87436282,3.32850315 8.67662909,3.52623688 8.43358321,3.52623688 Z" id="Shape"></path>
                                        <path d="M11.9598201,5.28935532 C11.2306825,5.28935532 10.6374813,5.88255652 10.6374813,6.61169415 C10.6374813,7.34083178 11.2306825,7.93403298 11.9598201,7.93403298 C12.6889577,7.93403298 13.2821589,7.34083178 13.2821589,6.61169415 C13.2821589,5.88255652 12.6889577,5.28935532 11.9598201,5.28935532 Z M11.9598201,7.05247376 C11.7167742,7.05247376 11.5190405,6.85474003 11.5190405,6.61169415 C11.5190405,6.36864828 11.7167742,6.17091454 11.9598201,6.17091454 C12.202866,6.17091454 12.4005997,6.36864828 12.4005997,6.61169415 C12.4005997,6.85474003 12.202866,7.05247376 11.9598201,7.05247376 Z" id="Shape"></path>
                                        <path d="M12.2043058,1.83714003 C12.0018117,1.70214393 11.7280876,1.75685937 11.5930621,1.95941229 L8.06682519,7.24876762 C7.9317997,7.45129115 7.98654453,7.72495652 8.18909745,7.86001139 C8.39162099,7.9950075 8.66528636,7.94032144 8.80034123,7.73773913 L12.3265781,2.44838381 C12.4616036,2.24583088 12.4068588,1.97216552 12.2043058,1.83714003 Z" id="Path"></path>
                                        <path d="M14.6044978,0 L0.44077961,0 C0.197351724,0 0,0.197351724 0,0.44077961 L0,3.08545727 C0,3.32888516 0.197351724,3.52623688 0.44077961,3.52623688 C1.16991724,3.52623688 1.76311844,4.11943808 1.76311844,4.84857571 C1.76311844,5.57771334 1.16991724,6.17091454 0.44077961,6.17091454 C0.197351724,6.17091454 0,6.36826627 0,6.61169415 L0,9.25637181 C0,9.4997997 0.197351724,9.69715142 0.44077961,9.69715142 L14.6044978,9.69715142 C14.8479256,9.69715142 15.0452774,9.4997997 15.0452774,9.25637181 L15.0452774,0.44077961 C15.0452774,0.197351724 14.8479256,0 14.6044978,0 Z M14.1637181,8.8155922 L4.4077961,8.8155922 L4.4077961,8.37481259 C4.4077961,8.13138471 4.21044438,7.93403298 3.96701649,7.93403298 C3.72358861,7.93403298 3.52623688,8.13138471 3.52623688,8.37481259 L3.52623688,8.8155922 L0.88155922,8.8155922 L0.88155922,7.00821949 C1.88627226,6.80343328 2.64467766,5.91288216 2.64467766,4.84857571 C2.64467766,3.78426927 1.88627226,2.89374753 0.88155922,2.68896132 L0.88155922,0.88155922 L3.56296852,0.88155922 L3.56296852,1.32233883 C3.56296852,1.56576672 3.76032024,1.76311844 4.00374813,1.76311844 C4.24717601,1.76311844 4.44452774,1.56576672 4.44452774,1.32233883 L4.44452774,0.88155922 L14.1637181,0.88155922 L14.1637181,8.8155922 Z" id="Shape"></path>
                                        <path d="M3.96701649,5.28935532 C3.72358861,5.28935532 3.52623688,5.48670705 3.52623688,5.73013493 L3.52623688,6.61169415 C3.52623688,6.85512204 3.72358861,7.05247376 3.96701649,7.05247376 C4.21044438,7.05247376 4.4077961,6.85512204 4.4077961,6.61169415 L4.4077961,5.73013493 C4.4077961,5.48670705 4.21044438,5.28935532 3.96701649,5.28935532 Z" id="Path"></path>
                                        <path d="M3.96701649,2.64467766 C3.72358861,2.64467766 3.52623688,2.84202939 3.52623688,3.08545727 L3.52623688,3.96701649 C3.52623688,4.21044438 3.72358861,4.4077961 3.96701649,4.4077961 C4.21044438,4.4077961 4.4077961,4.21044438 4.4077961,3.96701649 L4.4077961,3.08545727 C4.4077961,2.84202939 4.21044438,2.64467766 3.96701649,2.64467766 Z" id="Path"></path>
                                    </g>
                                </g>
                            </g>
                        </g>
                    </g>
                </g>
            </g>
        </g>
    </g>
</svg>