<?xml version="1.0" encoding="UTF-8"?>
<svg width="18px" height="16px" viewBox="0 0 18 16" version="1.1" xmlns="http://www.w3.org/2000/svg" xmlns:xlink="http://www.w3.org/1999/xlink">
    <title>Слой_249</title>
    <g id="Symbols" stroke="none" stroke-width="1" fill="none" fill-rule="evenodd">
        <g id="Components-/-Misc-/-Icons-/-wishlist" transform="translate(-3.000000, -4.000000)" fill="#404040">
            <g id="Слой_249" transform="translate(3.000000, 4.000000)">
                <path d="M13.2266667,0.152380952 C11.4019048,0.152380952 9.94285714,1.53904762 9.03619048,2.45714286 C8.11047619,1.54666667 6.6247619,0.152380952 4.80380952,0.152380952 C2.13714286,0.152380952 0.285714286,2.03047619 0.285714286,4.72380952 C0.285714286,10.5714286 7.94666667,15.3904762 8.28571429,15.5847619 C8.65538898,15.8148007 9.12365864,15.8148007 9.49333333,15.5847619 C9.81714286,15.3828571 17.4438095,10.5409524 17.4438095,4.72761905 C17.4171429,1.9047619 15.8133333,0.152380952 13.2266667,0.152380952 Z M8.84571429,14.6285714 C8.84571429,14.6285714 1.40190476,10.0190476 1.40190476,4.72380952 C1.40190476,2.67809524 2.73142857,1.2952381 4.77714286,1.2952381 C6.82285714,1.2952381 8.64,3.96190476 9.02095238,3.96190476 C9.40190476,3.96190476 11.1657143,1.2952381 13.2114286,1.2952381 C15.2571429,1.2952381 16.2590476,2.67809524 16.2590476,4.72380952 C16.2742857,9.96952381 8.84571429,14.6285714 8.84571429,14.6285714 Z" id="Shape"></path>
            </g>
        </g>
    </g>
</svg>