<?xml version="1.0" encoding="UTF-8"?>
<svg width="22px" height="16px" viewBox="0 0 22 16" version="1.1" xmlns="http://www.w3.org/2000/svg" xmlns:xlink="http://www.w3.org/1999/xlink">
    <!-- Generator: Sketch 64 (93537) - https://sketch.com -->
    <title>Group 7</title>
    <desc>Created with Sketch.</desc>
    <defs>
        <polygon id="path-1" points="0 0.085710718 5.43723475 0.085710718 5.43723475 15.383965 0 15.383965"></polygon>
        <polygon id="path-3" points="0.0330632911 0.0830322581 15.9136203 0.0830322581 15.9136203 14.9032161 0.0330632911 14.9032161"></polygon>
    </defs>
    <g id="Page-1" stroke="none" stroke-width="1" fill="none" fill-rule="evenodd">
        <g id="Group-7" transform="translate(0.000000, -1.000000)">
            <g id="Group-12" transform="translate(0.000000, 0.916045)">
                <g id="Group-9" transform="translate(0.000000, 0.269796)">
                    <g id="Group-3" transform="translate(0.000000, 0.010217)">
                        <mask id="mask-2" fill="white">
                            <use xlink:href="#path-1"></use>
                        </mask>
                        <g id="Clip-2"></g>
                        <path d="M5.43723475,0.0857007284 L0.466073729,0.0857007284 C0.208692373,0.0857007284 -2.79661017e-05,0.309367742 -2.79661017e-05,0.585180437 L-2.79661017e-05,5.43023351 C-2.79661017e-05,5.7060462 0.208692373,5.92971322 0.466073729,5.92971322 C1.39492119,5.92971322 2.15056525,6.73946972 2.15056525,7.73483288 C2.15056525,8.73019605 1.39492119,9.53995255 0.466073729,9.53995255 C0.208692373,9.53995255 -2.79661017e-05,9.76361956 -2.79661017e-05,10.0394323 L-2.79661017e-05,14.8844853 C-2.79661017e-05,15.160298 0.208692373,15.383965 0.466073729,15.383965 L5.43723475,15.383965 L5.43723475,0.0857007284 Z" id="Fill-1" fill="#A179C5" mask="url(#mask-2)"></path>
                    </g>
                    <path d="M21.4258623,0.0959177848 L6.53203006,0.0959177848 L6.53203006,15.3941821 L21.4258623,15.3941821 C21.6967199,15.3941821 21.9163687,15.1705151 21.9163687,14.8947024 L21.9163687,0.595397493 C21.9163687,0.319584798 21.6967199,0.0959177848 21.4258623,0.0959177848" id="Fill-4" fill="#A179C5"></path>
                </g>
                <g id="Group-11" transform="translate(6.000000, 1.269796)">
                    <g id="Group-6">
                        <mask id="mask-4" fill="white">
                            <use xlink:href="#path-3"></use>
                        </mask>
                        <g id="Clip-5"></g>
                    </g>
                </g>
            </g>
        </g>
    </g>
</svg>