<?xml version="1.0" encoding="UTF-8"?>
<svg width="24px" height="24px" viewBox="0 0 24 24" version="1.1" xmlns="http://www.w3.org/2000/svg" xmlns:xlink="http://www.w3.org/1999/xlink">
    <!-- Generator: Sketch 64 (93537) - https://sketch.com -->
    <title>Bound</title>
    <desc>Created with Sketch.</desc>
    <g id="Page-1" stroke="none" stroke-width="1" fill="none" fill-rule="evenodd">
        <g id="icon-wishlist-v2">
            <polygon id="Bound" points="0 0 24 0 24 24 0 24"></polygon>
            <g id="heart-(1)" transform="translate(2.000000, 3.000000)" fill="#FFFFFF" fill-rule="nonzero">
                <path d="M10.1052632,17.9808799 C9.81753703,17.9808799 9.54014187,17.8766447 9.32396175,17.6872944 C8.50750413,16.9733758 7.72034333,16.3024774 7.0258532,15.7106805 L7.02230676,15.7075966 C4.98617392,13.9724507 3.22789887,12.4739926 2.00452303,10.9978927 C0.63697575,9.34770766 0,7.78310033 0,6.07385897 C0,4.41318872 0.569438724,2.88111636 1.60331005,1.75966283 C2.64951687,0.624948592 4.08506372,1.12190958e-15 5.64597039,1.12190958e-15 C6.81260282,1.12190958e-15 7.88101358,0.368832237 8.82144324,1.0961657 C9.29605263,1.46330179 9.72625413,1.91262336 10.1052632,2.43672904 C10.4844264,1.91262336 10.9144737,1.46330179 11.3892373,1.0961657 C12.3296669,0.368832237 13.3980777,1.12190958e-15 14.5647101,1.12190958e-15 C16.1254626,1.12190958e-15 17.5611636,0.624948592 18.6073705,1.75966283 C19.6412418,2.88111636 20.2105263,4.41318872 20.2105263,6.07385897 C20.2105263,7.78310033 19.5737048,9.34770766 18.2061575,10.9977385 C16.9827817,12.4739926 15.2246608,13.9722965 13.1888364,15.7072882 C12.4931127,16.3000103 11.7047183,16.9719881 10.8864103,17.6876028 C10.6703844,17.8766447 10.3928351,17.9808799 10.1052632,17.9808799 L10.1052632,17.9808799 Z M5.64597039,1.18390216 C4.41966489,1.18390216 3.29312293,1.67331414 2.47358139,2.56208882 C1.64185855,3.46427838 1.18374793,4.71140009 1.18374793,6.07385897 C1.18374793,7.51141034 1.71803045,8.79708059 2.91596424,10.2424959 C4.07380757,11.6396484 5.79600122,13.1072677 7.79003905,14.8066406 L7.79373971,14.8097245 C8.49085113,15.4038343 9.28109582,16.077354 10.103567,16.7965152 C10.9309725,16.0759663 11.7224507,15.4013672 12.4209498,14.8063322 C14.4148335,13.1069593 16.1368729,11.6396484 17.2947163,10.2424959 C18.4924959,8.79708059 19.0267784,7.51141034 19.0267784,6.07385897 C19.0267784,4.71140009 18.5686678,3.46427838 17.7369449,2.56208882 C16.9175576,1.67331414 15.7908614,1.18390216 14.5647101,1.18390216 C13.6663754,1.18390216 12.8415913,1.46946955 12.1133327,2.03258637 C11.4643298,2.53464229 11.0122327,3.16930508 10.7471731,3.61338403 C10.6108656,3.84174549 10.3709396,3.97805305 10.1052632,3.97805305 C9.83958675,3.97805305 9.59966076,3.84174549 9.4633532,3.61338403 C9.19844779,3.16930508 8.74635075,2.53464229 8.09719366,2.03258637 C7.36893505,1.46946955 6.54415089,1.18390216 5.64597039,1.18390216 Z" id="Shape"></path>
            </g>
        </g>
    </g>
</svg>