<?xml version="1.0" encoding="UTF-8"?>
<svg width="22px" height="16px" viewBox="0 0 22 16" version="1.1" xmlns="http://www.w3.org/2000/svg" xmlns:xlink="http://www.w3.org/1999/xlink">
    <!-- Generator: Sketch 64 (93537) - https://sketch.com -->
    <title>Group 16</title>
    <desc>Created with Sketch.</desc>
    <defs>
        <polygon id="path-1" points="0.0235193972 0.050910687 19.882458 0.050910687 19.882458 13.6870229 0.0235193972 13.6870229"></polygon>
    </defs>
    <g id="Page-1" stroke="none" stroke-width="1" fill="none" fill-rule="evenodd">
        <g id="Group-16">
            <polygon id="Fill-1" fill="#A179C5" points="21.5617969 15.2746756 2.56219389 15.3038969 2.54262901 2.5365916 21.5421481 2.5074542"></polygon>
            <g id="Group-15" transform="translate(0.000000, 0.021412)">
                <g id="Group-4" transform="translate(2.099237, 2.015267)">
                    <mask id="mask-2" fill="white">
                        <use xlink:href="#path-1"></use>
                    </mask>
                    <g id="Clip-3"></g>
                    <path d="M0.86388626,0.919154962 L0.882191603,12.8466817 L19.0421,12.8188038 L19.0237107,0.891277099 L0.86388626,0.919154962 Z M0.463016031,13.6870481 C0.351840458,13.6870481 0.245283206,13.6429641 0.166519847,13.5645366 C0.0876725191,13.4858573 0.0433366412,13.379216 0.0431687023,13.2678725 L0.0235193972,0.500651145 C0.0231839695,0.268727481 0.210855725,0.0804679389 0.44269542,0.0801320611 L19.4422145,0.050910687 L19.4428863,0.050910687 C19.674474,0.050910687 19.8623977,0.238498473 19.8627336,0.47008626 L19.8824669,13.2373076 C19.8824669,13.3486511 19.8385504,13.4555443 19.759955,13.5343916 C19.6812756,13.6132389 19.5746344,13.6576588 19.4632069,13.6578267 L0.463603817,13.6870481 L0.463016031,13.6870481 Z" id="Fill-2" fill="#A179C5" mask="url(#mask-2)"></path>
                </g>
                <path d="M16.4761071,8.88669847 C16.479545,11.1470725 14.6500183,12.9823092 12.3895603,12.985757 C10.1291863,12.9892786 8.29403359,11.1596679 8.29050202,8.89929389 C8.28706412,6.63891985 10.1166748,4.80368321 12.3770489,4.80015164 C14.6374229,4.79671374 16.4726595,6.62632443 16.4761071,8.88669847" id="Fill-5" fill="#FFFFFF"></path>
                <path d="M12.3834053,5.2200458 L12.3776954,5.2200458 C11.3965962,5.22155725 10.4748634,5.6050458 9.78211527,6.29980916 C9.08945115,6.99465649 8.70890153,7.91756489 8.71032501,8.89866412 C8.71184046,9.87967939 9.09532901,10.8014962 9.79017634,11.4941603 C10.4849397,12.1868244 11.4084359,12.5659466 12.3889473,12.5658626 C14.4142069,12.5627557 16.0593366,10.9125878 16.0562342,8.88732824 C16.0548023,7.90622901 15.6712298,6.98449618 14.9764664,6.29183206 C14.2830466,5.60059542 13.3622374,5.2200458 12.3834053,5.2200458 L12.3834053,5.2200458 Z M12.3829855,13.4055573 C11.1802908,13.4055573 10.0493061,12.9381832 9.19735191,12.0888321 C8.34363435,11.2378015 7.87248168,10.1053053 7.8706289,8.89992366 C7.86878702,7.69454198 8.33649695,6.56061832 9.18744351,5.70698473 C10.038558,4.85335115 11.1710542,4.3821145 12.3763519,4.38035115 L12.3834053,4.38035115 C13.586184,4.38035115 14.7173366,4.84780916 15.5692908,5.69716031 C16.4229244,6.54810687 16.8941611,7.68068702 16.8959297,8.88598473 C16.8997031,11.3743359 14.878474,13.4018626 12.3902908,13.4055573 L12.3829855,13.4055573 Z" id="Fill-7" fill="#A179C5"></path>
                <path d="M11.3701626,8.81286412 C11.5800023,8.81252824 11.7618802,8.63014656 11.7615447,8.40838321 C11.7612084,8.19862748 11.5787427,8.02464275 11.368987,8.02497814 L10.7235977,8.02598626 L10.7247733,8.81387176 L11.3701626,8.81286412 Z M10.2043304,7.62687939 C10.2042466,7.58732977 10.2359031,7.55164275 10.2793992,7.55155878 L11.4117275,7.54979453 C11.8868267,7.54912366 12.2754374,7.92858168 12.2761102,8.39973435 C12.2766969,8.76399389 12.0357046,9.0612458 11.6914298,9.20038321 L12.235384,10.2051618 C12.2631779,10.2565511 12.2355519,10.3199481 12.1682924,10.320116 L11.7525595,10.3207038 C11.7169565,10.3207878 11.6970557,10.300971 11.6891626,10.2851847 L11.1609947,9.23682595 L10.7214985,9.23749771 L10.7230099,10.2470626 C10.7230939,10.2866962 10.6874908,10.3223832 10.6479412,10.3223832 L10.2836817,10.3229711 C10.2401015,10.323055 10.2083611,10.2874519 10.2083611,10.2479023 L10.2043304,7.62687939 Z" id="Fill-9" fill="#A179C5"></path>
                <path d="M13.907955,8.82875954 C14.1296344,8.82842366 14.2996725,8.64998855 14.2992534,8.4163855 C14.2989168,8.19865267 14.1284588,8.03264504 13.9066954,8.03298041 L13.4315962,8.03365267 L13.4328557,8.82951527 L13.907955,8.82875954 Z M12.9162756,7.62270611 C12.9162756,7.58315649 12.9478481,7.54746947 12.9914282,7.5473855 L13.9218099,7.54595693 C14.4088328,7.54520229 14.8092832,7.94053053 14.81004,8.41957634 C14.8107947,8.9105458 14.4115198,9.31099618 13.9285275,9.31175191 L13.4336115,9.31250763 L13.4350389,10.2428893 C13.4351229,10.2825229 13.3995198,10.3182099 13.3599702,10.3182099 L12.9956267,10.3187979 C12.9521305,10.3188817 12.9203901,10.2832786 12.9203061,10.243729 L12.9162756,7.62270611 Z" id="Fill-11" fill="#A179C5"></path>
                <path d="M19.8393061,0.482421374 C19.8389702,0.25041374 19.6507947,0.0625740458 19.418787,0.0625740458 L19.418787,0.0625740458 L0.419183969,0.0917954198 C0.307840458,0.0919633588 0.201115267,0.136383206 0.122519847,0.215146565 C0.0439244275,0.294077863 7.91887545e-06,0.400887023 7.91887545e-06,0.512230534 L0.0196572519,13.2795359 C0.0198251908,13.3908794 0.0642450382,13.4976046 0.143092366,13.5762 C0.221771756,13.6547115 0.328412977,13.6987115 0.43950458,13.6987115 L0.440176336,13.6987115 L1.0040313,13.6978718 C1.23595496,13.6974519 1.42379466,13.5093603 1.42379466,13.2773527 L1.42379466,1.84742901 C1.42379466,1.61861221 1.60936718,1.43303969 1.83818397,1.43303969 L19.4202985,1.43303969 C19.531726,1.43303969 19.6386191,1.38870382 19.7173824,1.30985649 C19.7961458,1.23100916 19.8401463,1.12403206 19.8401463,1.01252061 L19.8393061,0.482421374 Z" id="Fill-13" fill="#A179C5"></path>
            </g>
        </g>
    </g>
</svg>