<?xml version="1.0" encoding="UTF-8"?>
<svg width="25px" height="28px" viewBox="0 0 25 28" version="1.1" xmlns="http://www.w3.org/2000/svg" xmlns:xlink="http://www.w3.org/1999/xlink">
    <!-- Generator: Sketch 64 (93537) - https://sketch.com -->
    <title>Group 2</title>
    <desc>Created with Sketch.</desc>
    <defs>
        <polygon id="path-1" points="7.89824346e-13 5.74417706e-13 48 5.74417706e-13 48 48 7.89824346e-13 48"></polygon>
    </defs>
    <g id="Page-1" stroke="none" stroke-width="1" fill="none" fill-rule="evenodd">
        <g id="Group-2" transform="translate(-12.000000, -9.000000)">
            <g id="Group" transform="translate(-0.000000, 0.000000)">
                <g id="Group-3" transform="translate(24.000000, 24.000000) rotate(-270.000000) translate(-24.000000, -24.000000) ">
                    <mask id="mask-2" fill="white">
                        <use xlink:href="#path-1"></use>
                    </mask>
                    <g id="Clip-2"></g>
                </g>
                <polygon id="Fill-4" fill="#D4B1EF" points="13.5157505 25.6769513 24.2912607 25.6769513 24.2912607 14.9014411 13.5157505 14.9014411"></polygon>
                <polygon id="Fill-6" fill="#FFEBDE" points="24.2912607 25.6769513 35.0667709 25.6769513 35.0667709 14.9014411 24.2912607 14.9014411"></polygon>
                <polygon id="Fill-7" fill="#FFEBDE" points="13.5157505 36.4524616 24.2912607 36.4524616 24.2912607 25.6769513 13.5157505 25.6769513"></polygon>
                <path d="M32.8335858,36.4524616 L24.2912607,36.4524616 L24.2912607,25.6769513 L35.0667709,25.6769513 L35.0667709,34.2192765 C35.0667709,35.4526335 34.0669428,36.4524616 32.8335858,36.4524616" id="Fill-8" fill="#D4B1EF"></path>
                <path d="M13.8600283,35.6459684 L33.437148,35.6459684 C34.1458155,35.6459684 34.7224931,35.0426755 34.7224931,34.3010686 L34.7224931,15.2181383 L13.8600283,15.2181383 L13.8600283,35.6459684 Z M33.437148,36.9422575 L12.5361587,36.9422575 L12.5361587,13.9218493 L36.0463627,13.9218493 L36.0463627,34.3010686 C36.0463627,35.7573197 34.8757972,36.9422575 33.437148,36.9422575 L33.437148,36.9422575 Z" id="Fill-9" fill="#A179C5"></path>
                <path d="M16.8496813,10.8296932 C17.1641504,12.6697343 18.7740898,14.0752299 20.7066766,14.0752299 L23.4063095,14.0752299 C23.0918404,12.2350572 21.481901,10.8296932 19.5493142,10.8296932 L16.8496813,10.8296932 Z M24.1215157,15.3912371 L20.7066766,15.3912371 C17.8218446,15.3912371 15.4749342,13.0497972 15.4749342,10.1716896 C15.4749342,9.80834004 15.7701447,9.51368604 16.1344751,9.51368604 L19.5493142,9.51368604 C22.4341462,9.51368604 24.7810566,11.8551259 24.7810566,14.7332335 C24.7810566,15.0965831 24.4858461,15.3912371 24.1215157,15.3912371 L24.1215157,15.3912371 Z" id="Fill-10" fill="#A179C5"></path>
                <path d="M25.1762314,14.0752299 L27.8759025,14.0752299 C29.8085168,14.0752299 31.4183471,12.6698659 31.7328206,10.8296932 L29.0331495,10.8296932 C27.1005352,10.8296932 25.4907049,12.2351888 25.1762314,14.0752299 M27.8759025,15.3912371 L24.461015,15.3912371 C24.0966795,15.3912371 23.8014648,15.0965831 23.8014648,14.7332335 C23.8014648,11.8551259 26.1484085,9.51368604 29.0331495,9.51368604 L32.448037,9.51368604 C32.8123725,9.51368604 33.1075872,9.80834004 33.1075872,10.1716896 C33.1075872,13.0497972 30.7606435,15.3912371 27.8759025,15.3912371" id="Fill-11" fill="#A179C5"></path>
                <polygon id="Fill-12" fill="#A179C5" points="23.3116689 36.4524616 24.7810566 36.4524616 24.7810566 14.4116452 23.3116689 14.4116452"></polygon>
                <polygon id="Fill-13" fill="#A179C5" points="13.0259546 26.1667473 35.0667709 26.1667473 35.0667709 24.6973595 13.0259546 24.6973595"></polygon>
            </g>
        </g>
    </g>
</svg>