<?xml version="1.0" encoding="UTF-8"?>
<svg width="20px" height="16px" viewBox="0 0 20 16" version="1.1" xmlns="http://www.w3.org/2000/svg" xmlns:xlink="http://www.w3.org/1999/xlink">
    <title>Voucher 2</title>
    <g id="Page-1" stroke="none" stroke-width="1" fill="none" fill-rule="evenodd">
        <g id="LL21---Shopping-Bag--popup-detail-voucher" transform="translate(-32.000000, -384.000000)" fill="#8B7FBF">
            <g id="Pop-Up-Added-to-Shopping-Bag" transform="translate(0.000000, 134.000000)">
                <g id="Group-10" transform="translate(16.000000, 59.000000)">
                    <g id="Group-4" transform="translate(0.000000, 65.000000)">
                        <g id="Group-5-Copy-3" transform="translate(0.000000, 112.000000)">
                            <g id="Voucher-2" transform="translate(16.000000, 14.000000)">
                                <path d="M5.996,0 L5.99617769,2.25047779 C5.99617769,2.66442748 6.33175021,3 6.7456999,3 C7.15964959,3 7.49522211,2.66442748 7.49522211,2.25047779 L7.49522211,2.25047779 L7.495,0 L17.6015289,0 C18.9261679,0 20,1.0745166 20,2.4 L20,4.81974895 C20,5.33991632 19.7335033,5.6 19.2005098,5.6 C17.8758706,5.6 16.8020386,6.6745166 16.8020386,8 C16.8020386,9.3254834 17.8758706,10.4 19.2005096,10.4 C19.7335032,10.4 20,10.663696 20,11.191088 L20,13.6 C20,14.9254834 18.9261679,16 17.6015289,16 L7.495,16 L7.49522211,13.7495222 C7.49522211,13.3700683 7.21324798,13.056473 6.84740563,13.0068423 L6.7456999,13 C6.33175021,13 5.99617769,13.3355725 5.99617769,13.7495222 L5.99617769,13.7495222 L5.996,16 L2.39847108,16 C1.07383208,16 0,14.9254834 0,13.6 L0,11.1802511 C0,10.6600837 0.26649674,10.4 0.79949022,10.4 C2.12412936,10.4 3.19796143,9.3254834 3.19796143,8 C3.19796143,6.6745166 2.12412936,5.6 0.799490359,5.6 C0.266496786,5.6 0,5.336304 0,4.80891199 L0,2.4 C0,1.0745166 1.07383208,0 2.39847108,0 L5.996,0 Z M6.7456999,6 C6.33175021,6 5.99617769,6.33557252 5.99617769,6.74952221 L5.99617769,6.74952221 L5.99617769,9.25047779 C5.99617769,9.66442748 6.33175021,10 6.7456999,10 C7.15964959,10 7.49522211,9.66442748 7.49522211,9.25047779 L7.49522211,9.25047779 L7.49522211,6.74952221 C7.49522211,6.33557252 7.15964959,6 6.7456999,6 Z" id="Voucher"></path>
                            </g>
                        </g>
                    </g>
                </g>
            </g>
        </g>
    </g>
</svg>