<?xml version="1.0" encoding="UTF-8"?>
<svg width="32px" height="32px" viewBox="0 0 32 32" version="1.1" xmlns="http://www.w3.org/2000/svg" xmlns:xlink="http://www.w3.org/1999/xlink">
    <title>Group 25</title>
    <defs>
        <path d="M3.61816263,1.9842944 C3.70941899,2.0228032 3.80102878,2.0615936 3.89249719,2.098272 L3.89249719,2.098272 C5.61173588,2.7869248 6.4915009,3.4958528 6.4915009,4.529536 L6.4915009,4.529536 C6.4915009,5.4006656 5.69366161,6.0893888 4.62912191,6.0893888 L4.62912191,6.0893888 C3.29929552,6.0893888 2.37846161,5.4613504 1.53976549,4.8335232 L1.53976549,4.8335232 C1.35520287,4.6917376 1.00763701,4.6917376 0.843714866,4.9753088 L0.843714866,4.9753088 L0.107372896,6.2311744 C-0.0769069851,6.5559296 0.00501874627,6.6770176 0.209727045,6.8392896 L0.209727045,6.8392896 C0.80285803,7.3459584 2.13310854,8.4197696 4.71133039,8.4197696 L4.71133039,8.4197696 C7.59647331,8.4197696 9.41757134,6.4950336 9.41757134,4.4079552 L9.41757134,4.4079552 C9.41757134,1.9949952 7.46457218,0.8088256 5.60282937,0.0190784 L5.60282937,0.0190784 L3.61816263,1.9842944 Z" id="path-1"></path>
        <path d="M0.045576063,3.89512096 C0.045576063,6.16724568 1.79898457,7.37125962 3.62929386,8.14235788 L3.62929386,8.14235788 L5.60994772,6.18804075 C5.44930268,6.11991412 5.28908094,6.05360793 5.1310463,5.99101265 L5.1310463,5.99101265 C3.47683276,5.32613032 2.72122961,4.68113285 2.72122961,3.73450174 L2.72122961,3.73450174 C2.72122961,2.9683747 3.35449701,2.32344725 4.51866205,2.32344725 L4.51866205,2.32344725 C5.64155465,2.32344725 6.47920882,2.88813511 7.35728882,3.43209791 L7.35728882,3.43209791 C7.60217197,3.59327726 7.90885795,3.43209791 8.07211339,3.18983877 L8.07211339,3.18983877 L8.84803528,2.04141839 C8.99097197,1.83983918 8.92959244,1.49745559 8.72577008,1.37681614 L8.72577008,1.37681614 C8.31692598,1.07441231 6.72380976,0.026046359 4.64092724,0.026046359 L4.64092724,0.026046359 C1.39395024,0.026046359 0.045576063,2.10170311 0.045576063,3.89512096 L0.045576063,3.89512096 Z" id="path-3"></path>
    </defs>
    <g id="Page-1" stroke="none" stroke-width="1" fill="none" fill-rule="evenodd">
        <g id="LL21---Shopping-Bag---Redeem-SP" transform="translate(-28.000000, -401.000000)">
            <g id="Pop-Up-Added-to-Shopping-Bag" transform="translate(0.000000, 328.000000)">
                <g id="Group-2" transform="translate(16.000000, 62.000000)">
                    <g id="Group-25" transform="translate(12.000000, 11.000000)">
                        <g id="Group-9">
                            <path d="M30.8777011,16.7102652 C30.8777011,24.7991698 24.3203264,31.3564736 16.2314927,31.3564736 C8.14258803,31.3564736 1.5852133,24.7991698 1.5852133,16.7102652 C1.5852133,8.62136053 8.14258803,2.06405676 16.2314927,2.06405676 C24.3203264,2.06405676 30.8777011,8.62136053 30.8777011,16.7102652" id="Fill-1" fill="#FFFFFF"></path>
                            <path d="M30.8777011,16.7102652 C30.8777011,24.7991698 24.3203264,31.3564736 16.2314927,31.3564736 C8.14258803,31.3564736 1.5852133,24.7991698 1.5852133,16.7102652 C1.5852133,8.62136053 8.14258803,2.06405676 16.2314927,2.06405676 C24.3203264,2.06405676 30.8777011,8.62136053 30.8777011,16.7102652" id="Fill-1" fill="#F7C3DA" opacity="0.6"></path>
                            <path d="M6.13107228,6.29541463 C11.5011831,0.844558758 20.3048018,0.778572062 25.7556576,6.14861197 L27.2257419,4.6564612 C20.9518262,-1.52450554 10.8196044,-1.44837251 4.63885055,4.82533038 C-1.54183237,11.0990333 -1.46669268,21.231255 4.80715211,27.4122217 L6.27730732,25.92 C0.826451441,20.5498891 0.760961419,11.7462705 6.13107228,6.29541463" id="Fill-3" fill="#F4AFB2"></path>
                            <path d="M27.3946182,27.2438634 C33.5753721,20.9701605 33.4997357,10.8374421 27.225749,4.65640443 L25.7556647,6.14862616 C31.2068044,11.5190208 31.2725073,20.3229233 25.9023965,25.7737792 C20.5323565,31.224635 11.7281703,31.2900541 6.27724346,25.9199432 L4.8071592,27.412165 C11.0811459,33.5932027 21.2138643,33.5175663 27.3946182,27.2438634" id="Fill-5" fill="#F7C3DA"></path>
                            <path d="M11.0164647,14.9194359 L9.02423415,16.9001011 C9.11590599,16.9389836 9.20779069,16.9780789 9.29967539,17.0149747 C11.0254049,17.7091122 11.9084914,18.4236133 11.9084914,19.4653517 C11.9084914,20.3434004 11.1076399,21.037467 10.0390812,21.037467 C8.70423415,21.037467 7.77992373,20.4044914 6.93799024,19.7717996 C6.75280177,19.6288993 6.40385277,19.6288993 6.23938271,19.9146998 L5.50026075,21.1803672 C5.31528514,21.5076754 5.39752018,21.6297153 5.60300133,21.793192 C6.19837162,22.3039149 7.53364435,23.3862386 10.121529,23.3862386 C13.0175645,23.3862386 14.8455379,21.4463007 14.8455379,19.3428151 C14.8455379,16.910886 12.8851654,15.7154625 11.0164647,14.9194359" id="Fill-7" fill="#EE82A5"></path>
                        </g>
                        <g id="Group-13" transform="translate(5.376000, 14.848000)">
                            <mask id="mask-2" fill="white">
                                <use xlink:href="#path-1"></use>
                            </mask>
                            <g id="Clip-11"></g>
                            <polygon id="Fill-10" fill="#EE82A5" mask="url(#mask-2)" points="-6.78591045 41.7472 74.7029072 41.7472 74.7029072 -39.4112576 -6.78591045 -39.4112576"></polygon>
                            <polygon id="Fill-12" fill="#EE82A5" mask="url(#mask-2)" points="-1.3534357 9.7724352 10.7756724 9.7724352 10.7756724 -1.3335872 -1.3534357 -1.3335872"></polygon>
                        </g>
                        <path d="M8.99181526,16.896 L10.9902481,14.9234579 C10.8281611,14.854696 10.6665723,14.7878421 10.5071191,14.7245218 C8.83791443,14.0535098 8.07559992,13.4024974 8.07559992,12.4470385 C8.07559992,11.673767 8.71455174,11.0228252 9.88916671,11.0228252 C11.02221,11.0228252 11.867312,11.5928498 12.7532739,12.1418146 C13.0002841,12.304497 13.3097941,12.1418146 13.474515,11.8972963 L14.257473,10.7381663 C14.4016216,10.5347073 14.3396911,10.1891308 14.1340392,10.0673664 C13.7215251,9.76214246 12.1141086,8.704 10.0126006,8.704 C6.73640645,8.704 5.376,10.7990132 5.376,12.6092262 C5.376,14.9024689 7.1450765,16.1177109 8.99181526,16.896" id="Fill-14" fill="#B22755"></path>
                        <g id="Group-19" transform="translate(5.376000, 8.704000)">
                            <mask id="mask-4" fill="white">
                                <use xlink:href="#path-3"></use>
                            </mask>
                            <g id="Clip-17"></g>
                            <polygon id="Fill-16" fill="#B22755" mask="url(#mask-4)" points="-6.77291339 47.681641 74.5598287 47.681641 74.5598287 -33.0353953 -6.77291339 -33.0353953"></polygon>
                            <polygon id="Fill-18" fill="#B22755" mask="url(#mask-4)" points="-1.30992378 9.48759631 10.2814942 9.48759631 10.2814942 -1.31926209 -1.30992378 -1.31926209"></polygon>
                        </g>
                        <g id="Group-24" transform="translate(16.384000, 8.704000)">
                            <path d="M2.82298182,2.62476948 L5.3657958,2.62476948 C5.80539972,2.62476948 6.20697958,2.74676578 6.53866965,2.95913502 L8.41753063,1.06315963 C7.60277035,0.416272246 6.56974769,0.0265122462 5.45058014,0.0265122462 L0.470860979,0.0265122462 C0.237775664,0.0265122462 0.0682786014,0.216680862 0.0682786014,0.427907938 L0.0682786014,9.48825748 L2.82298182,6.70854055 L2.82298182,2.62476948 Z" id="Fill-20" fill="#EE82A5"></path>
                            <path d="M0.47086814,14.8132999 L2.4204066,14.8132999 C2.63229583,14.8132999 2.82298898,14.6232027 2.82298898,14.4119756 L2.82298898,9.44781809 L5.47178338,9.44781809 C8.05691793,9.44781809 10.1971495,7.31427471 10.1971495,4.69495902 C10.1971495,3.23649994 9.50011345,1.92273748 8.41753779,1.06319532 L6.53867681,2.95909932 C7.10230646,3.32001994 7.46364241,3.94235102 7.46364241,4.67382917 C7.46364241,5.92013317 6.55249723,6.87069071 5.36580297,6.87069071 L2.82298898,6.87069071 L2.82298898,6.70857625 L0.0682857622,9.48829317 L0.0682857622,14.4119756 C0.0682857622,14.6232027 0.237782825,14.8132999 0.47086814,14.8132999" id="Fill-22" fill="#B22755"></path>
                        </g>
                    </g>
                </g>
            </g>
        </g>
    </g>
</svg>