<?xml version="1.0" encoding="UTF-8"?>
<svg width="73px" height="61px" viewBox="0 0 73 61" version="1.1" xmlns="http://www.w3.org/2000/svg" xmlns:xlink="http://www.w3.org/1999/xlink">
    <title>Group 37</title>
    <defs>
        <polygon id="path-1" points="0 0.194004617 71.8734729 0.194004617 71.8734729 42.5429182 0 42.5429182"></polygon>
        <polygon id="path-3" points="0.0596411215 0.00890951167 43.2289121 0.00890951167 43.2289121 32.0336592 0.0596411215 32.0336592"></polygon>
    </defs>
    <g id="Page-1" stroke="none" stroke-width="1" fill="none" fill-rule="evenodd">
        <g id="LL21---Verify-Email" transform="translate(-144.000000, -91.000000)">
            <g id="Group-37" transform="translate(144.000000, 91.000000)">
                <g id="Group-35" transform="translate(0.601695, 0.442368)">
                    <g id="Group-3" transform="translate(0.000000, 16.028211)">
                        <mask id="mask-2" fill="white">
                            <use xlink:href="#path-1"></use>
                        </mask>
                        <g id="Clip-2"></g>
                        <path d="M55.921772,42.5429182 L-2.24299065e-05,42.5429182 L-2.24299065e-05,16.0344481 C-2.24299065e-05,7.2859759 7.14188411,0.194004617 15.9516785,0.194004617 L71.8734729,0.194004617 L71.8734729,26.7022519 C71.8734729,35.4509469 64.7315664,42.5429182 55.921772,42.5429182" id="Fill-1" fill="#E9D9FF" mask="url(#mask-2)"></path>
                    </g>
                    <path d="M18.5548037,46.9124323 C15.1586916,46.9124323 12.396,44.1689709 12.396,40.7967207 L12.396,15.6456148 C12.396,14.67871 13.1882243,13.8917774 14.1623551,13.8917774 L52.7673645,13.8917774 C56.1632523,13.8917774 58.9259439,16.6352388 58.9259439,20.007489 L58.9259439,45.1583722 C58.9259439,46.1254997 58.1337196,46.9124323 57.1598131,46.9124323 L18.5548037,46.9124323 Z" id="Fill-4" fill="#FFEBDE"></path>
                    <path d="M52.7674766,12.7781107 L14.162243,12.7781107 C12.5699439,12.7781107 11.2746168,14.0644215 11.2746168,15.6456371 L11.2746168,40.796743 C11.2746168,44.7830813 14.5404112,48.0261435 18.5546916,48.0261435 L57.1599252,48.0261435 C58.7522243,48.0261435 60.0475514,46.7398328 60.0475514,45.1586172 L60.0475514,20.0075112 C60.0475514,16.021173 56.781757,12.7781107 52.7674766,12.7781107 M52.7674766,15.0054886 C55.5494579,15.0054886 57.8045607,17.2448944 57.8045607,20.0075112 L57.8045607,45.1586172 C57.8045607,45.5121021 57.5158879,45.7987656 57.1599252,45.7987656 L18.5546916,45.7987656 C15.7727103,45.7987656 13.5176075,43.5593598 13.5176075,40.796743 L13.5176075,15.6456371 C13.5176075,15.2921522 13.8062804,15.0054886 14.162243,15.0054886 L52.7674766,15.0054886" id="Fill-6" fill="#A179C5"></path>
                    <path d="M35.1645533,31.1337094 C34.3467589,31.1337094 33.4652636,30.7071665 32.5447402,29.8656632 C29.3267215,26.9241879 18.7023477,17.2177204 15.3203664,14.1279017 L33.242086,2.09226517 C33.2864972,2.06241831 33.3288897,2.02945312 33.3685907,1.99336959 C33.368815,1.99336959 34.1377121,1.33651585 35.1845159,1.33651585 C35.8147963,1.33651585 36.4486654,1.57707266 37.0677308,2.05150416 C39.4343103,3.86458978 51.0570393,11.5982686 54.8710206,14.1294609 L37.4719178,29.8616539 C37.4167402,29.9115471 37.3667215,29.9665634 37.3227589,30.0264798 C37.3193944,30.0302664 36.460329,31.1337094 35.1645533,31.1337094" id="Fill-8" fill="#D4B1EF"></path>
                    <g id="Group-12" transform="translate(13.457944, 0.213828)">
                        <mask id="mask-4" fill="white">
                            <use xlink:href="#path-3"></use>
                        </mask>
                        <g id="Clip-11"></g>
                        <path d="M21.7264822,0.00886496411 C20.2039402,0.00886496411 19.1557907,0.955946054 19.1557907,0.955946054 L0.0596411215,13.7802971 C0.0596411215,13.7802971 14.4813981,26.9559057 18.3272299,30.4711536 C19.6093234,31.6431998 20.7521271,32.0336592 21.7065196,32.0336592 C23.6148561,32.0336592 24.7688748,30.4711536 24.7688748,30.4711536 L43.2289121,13.7802971 C43.2289121,13.7802971 27.0764636,3.08687851 24.2949308,0.955946054 C23.3679028,0.245635237 22.4879776,0.00886496411 21.7264822,0.00886496411 M21.7267065,0.00886496411 L21.7267065,2.23624288 C22.1084636,2.23624288 22.5005383,2.39438671 22.9249121,2.71958389 C25.1050991,4.38967185 34.9724636,10.9751374 39.5986318,14.0502554 L23.2588935,28.8242303 C23.1330617,28.9380493 23.0650991,29.002866 22.972015,29.1369542 C22.8872299,29.235627 22.3690991,29.8062813 21.7065196,29.8062813 C21.0495477,29.8062813 20.3322393,29.2766108 19.8461832,28.8324716 C16.9092112,26.147813 7.80468785,17.8296702 3.6652486,14.0478052 L20.412314,2.80110592 C20.5215477,2.72760245 20.5608,2.70466046 20.647828,2.62046557 C20.740015,2.55074864 21.1852486,2.23624288 21.7267065,2.23624288 L21.7267065,0.00886496411" id="Fill-10" fill="#A179C5" mask="url(#mask-4)"></path>
                    </g>
                    <path d="M33.3617689,16.2336203 C33.3635664,17.196293 34.1448,17.9736479 35.1126505,17.974986 C36.0888,17.9763208 36.8736224,17.192061 36.869378,16.2186968 C36.8653234,15.2615926 36.0681645,14.4764418 35.1079402,14.4842377 C34.1396411,14.4922562 33.3599776,15.2731749 33.3617689,16.2336203 M37.2035664,18.5044321 C37.1463701,18.5485341 37.092314,18.5890724 37.0391551,18.6311699 C36.0141084,19.4439401 34.5785944,19.5234575 33.4698841,18.8287383 C32.3578093,18.1317917 31.8082766,16.8142977 32.100314,15.5462515 C32.3923514,14.2793189 33.4662953,13.3288967 34.7703701,13.183449 C36.5963888,12.9800894 38.1815103,14.3771008 38.2043888,16.2122375 C38.2093234,16.6035878 38.2037159,16.9949381 38.2079776,17.3860656 C38.2117907,17.7411097 38.438557,17.9787709 38.7604262,17.9745389 C39.0710804,17.9703068 39.3007626,17.7324229 39.2962766,17.3891839 C39.2870804,16.6837734 39.3512299,15.9754672 39.1854729,15.2767387 C38.7205009,13.3177598 36.868015,11.9519317 34.8468561,12.0851289 C32.8066318,12.2194398 31.1513047,13.8104558 30.9575103,15.8233373 C30.7242393,18.2438289 32.5554168,20.2968031 35.0393047,20.3769887 C35.5450991,20.3934713 35.829286,20.7574248 35.7747813,21.1452113 C35.7258841,21.4926823 35.4320523,21.7245523 35.0249495,21.706956 C32.9250617,21.6167472 31.3024822,20.6877079 30.2931364,18.8592534 C29.2579963,16.9840239 29.3248374,15.0660288 30.4932112,13.2709849 C31.6658467,11.4690362 33.4032673,10.6306511 35.5605757,10.7787718 C38.4076037,10.9743355 40.6187439,13.369435 40.6286131,16.2019915 C40.6304075,16.6893418 40.6649495,17.1815923 40.6073047,17.6624832 C40.5117533,18.4589936 40.0438654,19.0038102 39.2655477,19.2220932 C38.4811738,19.4421582 37.8076037,19.2140747 37.277585,18.5910771 C37.2553794,18.5650167 37.2331738,18.5391792 37.2035664,18.5044321" id="Fill-13" fill="#A179C5"></path>
                    <path d="M35.1149607,40.1513157 C37.5463626,40.1513157 39.9779888,40.1484201 42.4093907,40.1530976 C43.1592224,40.1546568 43.6479701,40.8219792 43.3985495,41.4919745 C43.2545495,41.8784246 42.9629607,42.0924756 42.5542879,42.1472691 C42.461428,42.1597424 42.3661009,42.1543967 42.271671,42.1543967 C37.4925308,42.1546194 32.7133907,42.1548422 27.9342505,42.1535057 C27.7985495,42.1535057 27.6592598,42.1552876 27.5280449,42.1265545 C27.0220262,42.0160765 26.6900636,41.5452088 26.7461383,41.035362 C26.8017645,40.5326428 27.2200822,40.1555477 27.7575028,40.1539886 C29.6965682,40.1484201 31.6354093,40.1515385 33.5742505,40.1513157 C34.0878953,40.1513157 34.6013159,40.1513157 35.1149607,40.1513157" id="Fill-15" fill="#A179C5"></path>
                    <line x1="58.4166729" y1="46.4445938" x2="40.6405234" y2="28.5026192" id="Fill-17" fill="#FFEBDE"></line>
                    <polygon id="Fill-19" fill="#A179C5" points="57.6172262 47.2256907 39.8408523 29.2839389 41.4398804 27.721656 59.2162542 45.6634079"></polygon>
                    <line x1="13.2216" y1="44.5424576" x2="30.5042916" y2="27.6569284" id="Fill-21" fill="#FFEBDE"></line>
                    <polygon id="Fill-23" fill="#A179C5" points="14.0081495 45.3363397 12.4349159 43.7486647 29.7178318 26.8629127 31.2910654 28.4505877"></polygon>
                    <path d="M18.5099888,16.9387413 L18.5099888,10.6412757 C18.5099888,10.6412757 18.1665869,7.95951271 21.2105495,7.95951271 L49.5285308,7.95951271 C49.5285308,7.95951271 51.6281944,8.0053967 51.6281944,10.0445612 L51.6281944,16.9387413 L36.8693159,30.4021271 C36.8693159,30.4021271 35.0978019,32.1261176 33.3617271,30.4021271 C31.6258766,28.6781366 18.5099888,16.9387413 18.5099888,16.9387413" id="Fill-25" fill="#FFFFFF"></path>
                    <path d="M19.6313944,16.4433947 C21.8187589,18.4025963 32.5622355,28.033333 34.1547589,29.6145486 C34.9635813,30.417741 35.716329,29.9493235 36.0929271,29.5987342 C36.1014505,29.5902701 36.1018991,29.5900474 36.1106467,29.5820289 L50.5066093,16.4496314 L50.5066093,10.0445835 C50.5066093,9.19706616 49.8213757,9.08191072 49.5145346,9.07322394 L21.2106841,9.07322394 C20.5965533,9.07322394 20.162086,9.20820305 19.919843,9.47437471 C19.5683664,9.86060204 19.6233196,10.5076553 19.6239925,10.5141147 C19.6300486,10.5606669 19.6313944,10.5943003 19.6313944,10.641298 L19.6313944,16.4433947 Z M35.0418617,32.279829 C34.2334879,32.279829 33.3679178,31.9831422 32.5689645,31.1897502 C30.872815,29.5056298 17.8899364,17.8831718 17.7589458,17.7660117 C17.5232075,17.5548563 17.3884037,17.2541603 17.3884037,16.9387636 L17.3884037,10.6958688 C17.3570019,10.3287969 17.3213383,9.03357662 18.2290766,8.01054194 C18.7005533,7.47908957 19.6004411,6.84584603 21.2106841,6.84584603 L49.5286654,6.84584603 C49.5367402,6.84584603 49.5450393,6.84584603 49.553114,6.84584603 C50.8381234,6.87413373 52.7496,7.74904777 52.7496,10.0445835 L52.7496,16.9387636 C52.7496,17.2505965 52.6179364,17.5479514 52.3869084,17.7588841 L37.6399178,31.2113558 C37.0533757,31.7755506 36.095843,32.279829 35.0418617,32.279829 L35.0418617,32.279829 Z" id="Fill-27" fill="#A179C5"></path>
                    <path d="M67.8124262,16.8986708 C67.8124262,22.0695286 63.5911178,26.2614539 58.384015,26.2614539 C53.1766879,26.2614539 48.9553794,22.0695286 48.9553794,16.8986708 C48.9553794,11.7278129 53.1766879,7.53588771 58.384015,7.53588771 C63.5911178,7.53588771 67.8124262,11.7278129 67.8124262,16.8986708" id="Fill-29" fill="#FFFFFF"></path>
                    <path d="M58.3840374,8.4268166 C53.8034019,8.4268166 50.0768972,12.3501201 50.0768972,16.8986485 C50.0768972,21.4473997 53.8034019,25.1477426 58.3840374,25.1477426 C62.9644486,25.1477426 66.6909533,21.4473997 66.6909533,16.8986485 C66.6909533,12.3501201 62.9644486,8.4268166 58.3840374,8.4268166 M58.3840374,27.3751205 C52.5666168,27.3751205 47.8339065,22.6753531 47.8339065,16.8986485 C47.8339065,11.1219439 52.5666168,6.42217647 58.3840374,6.42217647 C64.2014579,6.42217647 68.9339439,11.1219439 68.9339439,16.8986485 C68.9339439,22.6753531 64.2014579,27.3751205 58.3840374,27.3751205" id="Fill-31" fill="#A179C5"></path>
                    <path d="M58.3588262,18.3487384 L58.3565832,18.3487384 C57.4762093,18.3476247 56.7584523,17.6223904 56.7568797,16.7323302 C56.7553121,15.8444974 57.4712748,15.115922 58.3529944,15.108349 L58.3660037,15.108349 C58.7789383,15.108349 59.171686,15.2707248 59.4731439,15.5662979 C59.7864897,15.873676 59.9600972,16.2828453 59.9619057,16.718075 C59.963686,17.1613232 59.7938916,17.5753927 59.4841346,17.8843301 C59.1833495,18.1836896 58.7836486,18.3487384 58.3588262,18.3487384 M64.2280598,17.0967292 C64.2253682,16.9639775 64.2224523,16.8314485 64.2220037,16.699365 C64.2114617,13.6315974 61.8430879,11.0638761 58.8305271,10.8542799 C56.5343776,10.6943541 54.6733682,11.6233935 53.4430879,13.5409431 C52.2072,15.4658431 52.1336299,17.5475505 53.2300037,19.5615456 C54.2848822,21.4989189 55.9763215,22.5317541 58.257443,22.6310951 C58.274714,22.6317633 58.291985,22.6322088 58.3088075,22.6322088 C58.7941907,22.6322088 59.1710131,22.3268353 59.2338168,21.8753458 C59.2688075,21.6225384 59.1988262,21.3781951 59.0368822,21.1873088 C58.8610318,20.9801626 58.5950131,20.8607752 58.2877234,20.850752 C57.1135178,20.8122183 56.0501159,20.3208588 55.2933308,19.4671048 C54.5325084,18.6093416 54.1749757,17.4932025 54.2860037,16.3240518 C54.4746393,14.3387899 56.1129196,12.7417599 58.0966206,12.6094537 C60.0677607,12.4740291 61.891985,13.8411937 62.346415,15.7810171 C62.4700037,16.3091284 62.4634991,16.8392443 62.4569944,17.4003208 C62.4547514,17.5798475 62.4527327,17.7593742 62.4549757,17.9389008 C62.4581159,18.1807941 62.315686,18.3451745 62.1008075,18.3480701 C62.0007701,18.3469564 61.9175551,18.3180005 61.8552,18.2574159 C61.7791626,18.1836896 61.7365458,18.067866 61.7352,17.9308823 C61.7331813,17.7359867 61.7334056,17.5404229 61.7336299,17.3450819 C61.7338542,17.1330355 61.7340785,16.9205436 61.7316112,16.7082745 C61.7194991,15.7288964 61.296471,14.8027527 60.5706393,14.167059 C59.8531065,13.5387157 58.9341533,13.2509385 57.9820037,13.3596346 C56.5577047,13.5204512 55.386415,14.5708827 55.0674617,15.9732398 C54.7494056,17.3740378 55.3498542,18.8323021 56.5612935,19.6023066 C57.7736299,20.3720884 59.3403589,20.2838843 60.4605084,19.3838009 C60.4656673,19.3795689 60.4708262,19.3755596 60.475985,19.3713276 C61.072172,20.0466685 61.8320972,20.2760885 62.6772561,20.0353089 C63.5511252,19.7869563 64.0914617,19.1508171 64.1986766,18.2442743 C64.243985,17.8611653 64.2359103,17.4724879 64.2280598,17.0967292" id="Fill-33" fill="#A179C5"></path>
                </g>
            </g>
        </g>
    </g>
</svg>