<?xml version="1.0" encoding="UTF-8"?>
<svg width="15px" height="16px" viewBox="0 0 15 16" version="1.1" xmlns="http://www.w3.org/2000/svg" xmlns:xlink="http://www.w3.org/1999/xlink">
    <title>Shape</title>
    <g id="Page-1" stroke="none" stroke-width="1" fill="none" fill-rule="evenodd">
        <g id="LL21---Shopping-Bag--popup-detail-voucher" transform="translate(-313.000000, -384.000000)" fill="#8B7FBF" fill-rule="nonzero">
            <g id="Pop-Up-Added-to-Shopping-Bag" transform="translate(0.000000, 134.000000)">
                <g id="Group-10" transform="translate(16.000000, 59.000000)">
                    <g id="Group-4" transform="translate(0.000000, 65.000000)">
                        <g id="Group-5-Copy-3" transform="translate(0.000000, 112.000000)">
                            <g id="Group-6" transform="translate(16.000000, 14.000000)">
                                <path d="M291.5,0 L282.5,0 C281.675,0 281,0.654545455 281,1.45454545 L281,11.6363636 L282.5,11.6363636 L282.5,1.45454545 L291.5,1.45454545 L291.5,0 L291.5,0 Z M285.5,2.90909091 C284.675,2.90909091 284,3.56363636 284,4.36363636 L284,14.5454545 C284,15.3454545 284.675,16 285.5,16 L293.75,16 C294.575,16 295.25,15.3454545 295.25,14.5454545 L295.25,4.36363636 C295.25,3.56363636 294.575,2.90909091 293.75,2.90909091 L285.5,2.90909091 Z M293.75,14.5454545 L285.5,14.5454545 L285.5,4.36363636 L293.75,4.36363636 L293.75,14.5454545 L293.75,14.5454545 Z" id="Shape"></path>
                            </g>
                        </g>
                    </g>
                </g>
            </g>
        </g>
    </g>
</svg>