<?xml version="1.0" encoding="UTF-8"?>
<svg width="12px" height="12px" viewBox="0 0 12 12" version="1.1" xmlns="http://www.w3.org/2000/svg" xmlns:xlink="http://www.w3.org/1999/xlink">
    <title>Group 25</title>
    <defs>
        <path d="M1.35681099,0.7441104 C1.39103212,0.7585512 1.42538579,0.7730976 1.45968645,0.786852 L1.45968645,0.786852 C2.10440096,1.0450968 2.43431284,1.3109448 2.43431284,1.698576 L2.43431284,1.698576 C2.43431284,2.0252496 2.1351231,2.2835208 1.73592072,2.2835208 L1.73592072,2.2835208 C1.23723582,2.2835208 0.891923104,2.0480064 0.57741206,1.8125712 L0.57741206,1.8125712 C0.508201075,1.7594016 0.377863881,1.7594016 0.316393075,1.8657408 L0.316393075,1.8657408 L0.0402648358,2.3366904 C-0.0288401194,2.4584736 0.00188202985,2.5038816 0.0786476418,2.5647336 L0.0786476418,2.5647336 C0.301071761,2.7547344 0.799915701,3.1574136 1.7667489,3.1574136 L1.7667489,3.1574136 C2.84867749,3.1574136 3.53158925,2.4356376 3.53158925,1.6529832 L3.53158925,1.6529832 C3.53158925,0.7481232 2.79921457,0.3033096 2.10106101,0.0071544 L2.10106101,0.0071544 L1.35681099,0.7441104 Z" id="path-1"></path>
        <path d="M0.0170910236,1.46067036 C0.0170910236,2.31271713 0.674619213,2.76422236 1.3609852,3.05338421 L1.3609852,3.05338421 L2.10373039,2.32051528 C2.0434885,2.29496779 1.98340535,2.27010297 1.92414236,2.24662974 L1.92414236,2.24662974 C1.30381228,1.99729887 1.0204611,1.75542482 1.0204611,1.40043815 L1.0204611,1.40043815 C1.0204611,1.11314051 1.25793638,0.871292718 1.69449827,0.871292718 L1.69449827,0.871292718 C2.11558299,0.871292718 2.42970331,1.08305067 2.75898331,1.28703672 L2.75898331,1.28703672 C2.85081449,1.34747897 2.96582173,1.28703672 3.02704252,1.19618954 L3.02704252,1.19618954 L3.31801323,0.765531897 C3.37161449,0.689939692 3.34859717,0.561545846 3.27216378,0.516306051 L3.27216378,0.516306051 C3.11884724,0.402904615 2.52142866,0.00976738462 1.74034772,0.00976738462 L1.74034772,0.00976738462 C0.522731339,0.00976738462 0.0170910236,0.788138667 0.0170910236,1.46067036 L0.0170910236,1.46067036 Z" id="path-3"></path>
    </defs>
    <g id="Page-1" stroke="none" stroke-width="1" fill="none" fill-rule="evenodd">
        <g id="LL21---Shopping-Bag---Full" transform="translate(-124.000000, -1249.000000)">
            <g id="Group-15" transform="translate(0.000000, 1173.000000)">
                <g id="Group-14" transform="translate(16.000000, 16.000000)">
                    <g id="Group-5" transform="translate(0.000000, 35.000000)">
                        <g id="Group-6" transform="translate(0.000000, 23.000000)">
                            <g id="Group-25" transform="translate(108.000000, 2.000000)">
                                <g id="Group-9">
                                    <path d="M11.5791379,6.26634945 C11.5791379,9.29968869 9.12012239,11.7586776 6.08680976,11.7586776 C3.05347051,11.7586776 0.594454989,9.29968869 0.594454989,6.26634945 C0.594454989,3.2330102 3.05347051,0.774021286 6.08680976,0.774021286 C9.12012239,0.774021286 11.5791379,3.2330102 11.5791379,6.26634945" id="Fill-1" fill="#FFFFFF"></path>
                                    <path d="M11.5791379,6.26634945 C11.5791379,9.29968869 9.12012239,11.7586776 6.08680976,11.7586776 C3.05347051,11.7586776 0.594454989,9.29968869 0.594454989,6.26634945 C0.594454989,3.2330102 3.05347051,0.774021286 6.08680976,0.774021286 C9.12012239,0.774021286 11.5791379,3.2330102 11.5791379,6.26634945" id="Fill-1" fill="#F7C3DA" opacity="0.6"></path>
                                    <path d="M2.29915211,2.36078049 C4.31294368,0.316709534 7.61430067,0.291964523 9.65837162,2.30572949 L10.2096532,1.74617295 C7.85693481,-0.571689579 4.05735166,-0.54313969 1.73956896,1.80949889 C-0.57818714,4.16213747 -0.550009756,7.96172062 1.80268204,10.2795831 L2.35399024,9.72 C0.30991929,7.70620843 0.285360532,4.40485144 2.29915211,2.36078049" id="Fill-3" fill="#F4AFB2"></path>
                                    <path d="M10.2729818,10.2164488 C12.5907645,7.8638102 12.5624009,4.0640408 10.2096559,1.74615166 L9.65837428,2.30573481 C11.7025517,4.31963282 11.7271902,7.62109623 9.71339867,9.66516718 C7.6996337,11.7092381 4.39806386,11.7337703 2.3539663,9.71997871 L1.8026847,10.2795619 C4.15542971,12.597451 7.95519911,12.5690874 10.2729818,10.2164488" id="Fill-5" fill="#F7C3DA"></path>
                                    <path d="M4.13117428,5.59478847 L3.3840878,6.33753792 C3.41846475,6.35211885 3.45292151,6.3667796 3.48737827,6.38061552 C4.13452683,6.64091707 4.46568426,6.90885499 4.46568426,7.29950687 C4.46568426,7.62877517 4.16536497,7.88905011 3.76465543,7.88905011 C3.2640878,7.88905011 2.9174714,7.65168426 2.60174634,7.41442483 C2.53230067,7.36083725 2.40144479,7.36083725 2.33976851,7.46801242 L2.06259778,7.94263769 C1.99323193,8.06537827 2.02407007,8.11114324 2.1011255,8.17244701 C2.32438936,8.36396807 2.82511663,8.76983947 3.79557339,8.76983947 C4.8815867,8.76983947 5.56707672,8.04236275 5.56707672,7.25355565 C5.56707672,6.34158226 4.83193703,5.89329845 4.13117428,5.59478847" id="Fill-7" fill="#EE82A5"></path>
                                </g>
                                <g id="Group-13" transform="translate(2.016000, 5.568000)">
                                    <mask id="mask-2" fill="white">
                                        <use xlink:href="#path-1"></use>
                                    </mask>
                                    <g id="Clip-11"></g>
                                    <polygon id="Fill-10" fill="#EE82A5" mask="url(#mask-2)" points="-2.54471642 15.6552 28.0135902 15.6552 28.0135902 -14.7792216 -2.54471642 -14.7792216"></polygon>
                                    <polygon id="Fill-12" fill="#EE82A5" mask="url(#mask-2)" points="-0.507538388 3.6646632 4.04087713 3.6646632 4.04087713 -0.5000952 -0.507538388 -0.5000952"></polygon>
                                </g>
                                <path d="M3.37193072,6.336 L4.12134305,5.59629672 C4.06056041,5.57051099 3.99996462,5.5454408 3.94016967,5.52169567 C3.31421791,5.27006617 3.02834997,5.02593652 3.02834997,4.66763944 C3.02834997,4.37766261 3.2679569,4.13355947 3.70843752,4.13355947 C4.13332873,4.13355947 4.450242,4.34731866 4.78247773,4.55318048 C4.87510652,4.61418639 4.99117281,4.55318048 5.05294313,4.46148611 L5.34655238,4.02681238 C5.40060809,3.95051524 5.37738416,3.82092406 5.30026468,3.77526238 C5.14557193,3.66080342 4.54279071,3.264 3.75472522,3.264 C2.52615242,3.264 2.016,4.04962997 2.016,4.72845984 C2.016,5.58842585 2.67940369,6.04414158 3.37193072,6.336" id="Fill-14" fill="#B22755"></path>
                                <g id="Group-19" transform="translate(2.016000, 3.264000)">
                                    <mask id="mask-4" fill="white">
                                        <use xlink:href="#path-3"></use>
                                    </mask>
                                    <g id="Clip-17"></g>
                                    <polygon id="Fill-16" fill="#B22755" mask="url(#mask-4)" points="-2.53984252 17.8806154 27.9599357 17.8806154 27.9599357 -12.3882732 -2.53984252 -12.3882732"></polygon>
                                    <polygon id="Fill-18" fill="#B22755" mask="url(#mask-4)" points="-0.491221417 3.55784862 3.85556031 3.55784862 3.85556031 -0.494723282 -0.491221417 -0.494723282"></polygon>
                                </g>
                                <g id="Group-24" transform="translate(6.144000, 3.264000)">
                                    <path d="M1.05861818,0.984288554 L2.01217343,0.984288554 C2.1770249,0.984288554 2.32761734,1.03003717 2.45200112,1.10967563 L3.15657399,0.398684862 C2.85103888,0.156102092 2.46365538,0.00994209231 2.04396755,0.00994209231 L0.176572867,0.00994209231 C0.0891658741,0.00994209231 0.0256044755,0.0812553231 0.0256044755,0.160465477 L0.0256044755,3.55809655 L1.05861818,2.51570271 L1.05861818,0.984288554 Z" id="Fill-20" fill="#EE82A5"></path>
                                    <path d="M0.176575552,5.55498748 L0.907652476,5.55498748 C0.987110937,5.55498748 1.05862087,5.48370102 1.05862087,5.40449086 L1.05862087,3.54293178 L2.05191877,3.54293178 C3.02134422,3.54293178 3.82393108,2.74285302 3.82393108,1.76060963 C3.82393108,1.21368748 3.56254255,0.721026554 3.15657667,0.398698246 L2.4520038,1.10966225 C2.66336492,1.24500748 2.7988659,1.47838163 2.7988659,1.75268594 C2.7988659,2.22004994 2.45718646,2.57650902 2.01217611,2.57650902 L1.05862087,2.57650902 L1.05862087,2.51571609 L0.0256071608,3.55810994 L0.0256071608,5.40449086 C0.0256071608,5.48370102 0.0891685594,5.55498748 0.176575552,5.55498748" id="Fill-22" fill="#B22755"></path>
                                </g>
                            </g>
                        </g>
                    </g>
                </g>
            </g>
        </g>
    </g>
</svg>