<?xml version="1.0" encoding="UTF-8"?>
<svg width="20px" height="20px" viewBox="0 0 20 20" version="1.1" xmlns="http://www.w3.org/2000/svg" xmlns:xlink="http://www.w3.org/1999/xlink">
    <title>Group</title>
    <g id="Page-1" stroke="none" stroke-width="1" fill="none" fill-rule="evenodd">
        <g id="LL21---Shopping-Bag--popup-detail-voucher" transform="translate(-32.000000, -270.000000)" fill-rule="nonzero">
            <g id="Pop-Up-Added-to-Shopping-Bag" transform="translate(0.000000, 134.000000)">
                <g id="Group-10" transform="translate(16.000000, 59.000000)">
                    <g id="Group-4" transform="translate(0.000000, 65.000000)">
                        <g id="Group" transform="translate(16.000000, 12.000000)">
                            <path d="M19.8028305,11.7117071 C20.259588,12.6087799 19.8973822,13.6789704 18.9786313,14.1469089 L17.4343313,14.9335368 C17.3014373,15.0012531 17.210751,15.1210959 17.1847361,15.2633683 L16.882668,16.916422 C16.702946,17.899995 15.7548992,18.5613461 14.7249106,18.4214669 L12.9940486,18.1864202 C12.8448622,18.1663168 12.6981606,18.2120563 12.5900749,18.3124044 L11.3335643,19.4793027 C10.969378,19.8175916 10.4931591,20 10.0000106,20 C9.50684097,20 9.03085807,19.8177366 8.66644327,19.4793106 L7.40997726,18.3124163 C7.30174481,18.211932 7.15497641,18.1661197 7.00612121,18.1864025 L5.27512962,18.4214668 C5.18365236,18.4338898 5.09191285,18.4400833 5.00074653,18.4400833 C4.07285383,18.4401666 3.27948495,17.8038779 3.11733066,16.9164581 L2.81530637,15.263347 C2.7892851,15.1210705 2.69858146,15.001216 2.56568346,14.9335448 L1.02136868,14.1469093 C0.102608407,13.6789248 -0.259584537,12.60881 0.197170029,11.7117428 L0.964945737,10.2039333 C1.03102276,10.0741689 1.03102276,9.92605017 0.96494427,9.7962521 L0.197208758,8.28844259 C-0.259548666,7.39136981 0.102657088,6.32117932 1.02140802,5.85324078 L2.565708,5.06661289 C2.69860202,4.99889655 2.78928834,4.87905374 2.81530273,4.73678398 L3.11733111,3.08372773 C3.29705007,2.10017111 4.24520542,1.43875918 5.27508851,1.57868278 L7.0059985,1.813736 C7.15515318,1.83389241 7.3018012,1.78815881 7.40991978,1.68774938 L8.66643704,0.520729057 C9.41393879,-0.173581687 10.5860267,-0.17356909 11.333596,0.520723273 L12.5900752,1.68762977 C12.6982255,1.78806767 12.8448832,1.83382884 12.9939181,1.81363138 L14.7249067,1.57856751 C15.7545959,1.43870604 16.7029704,2.10017241 16.8826684,3.08361444 L17.1846927,4.73672545 C17.210714,4.87900203 17.3014176,4.99885647 17.4343156,5.06652772 L18.9786304,5.85316314 C19.8973907,6.32114768 20.2595836,7.39126253 19.8028296,8.28832862 L19.0350534,9.79617779 C18.9689763,9.92594218 18.9689763,10.0740609 19.0350584,10.2038661 L19.8028305,11.7117071 Z" id="Path" fill="#8B7FBF"></path>
                            <path d="M14.1782242,6.84756471 L7.13619178,13.8895971 C7.01377938,14.0120944 6.85014375,14.0784463 6.68036134,14.0784463 C6.51062928,14.0784463 6.34702462,14.0120908 6.22455814,13.8896243 C5.97281967,13.6378859 5.97281967,13.2297203 6.22455794,12.977982 L13.2666178,5.93588606 C13.5183574,5.68414645 13.9265643,5.68414645 14.1782671,5.93589287 C14.4300428,6.18766855 14.4300293,6.59580324 14.1782242,6.84756471 Z" id="Path" fill="#FFFFFF"></path>
                            <path d="M8.06735321,5 C9.20738123,5 10.1347064,5.92732518 10.1347064,7.06735321 C10.1347064,8.20738123 9.20738123,9.13470641 8.06735321,9.13470641 C6.92732518,9.13470641 6,8.20738123 6,7.06735321 C6,5.92732518 6.92732518,5 8.06735321,5 Z M8.06735321,6.067028 C7.51569013,6.067028 7.06706414,6.515654 7.06706414,7.06731707 C7.06706414,7.61900999 7.51568384,8.06764228 8.06735321,8.06764228 C8.61901492,8.06764228 9.06763775,7.61901944 9.06767841,7.06732526 C9.06767841,6.51565948 8.61902176,6.067028 8.06735321,6.067028 Z" id="Shape" fill="#FFFFFF"></path>
                            <path d="M12.3354652,10.6908401 C13.4754932,10.6908401 14.4028184,11.6181653 14.4028184,12.7581933 C14.4028184,13.8982213 13.4754932,14.8255465 12.3354652,14.8255465 C11.1954372,14.8255465 10.268112,13.8982213 10.268112,12.7581933 C10.268112,11.6181653 11.1954372,10.6908401 12.3354652,10.6908401 Z M12.3354652,11.7579042 C11.7837723,11.7579042 11.33514,12.2065239 11.33514,12.7581933 C11.33514,13.3098509 11.7837967,13.7584824 12.3354652,13.7584824 C12.8871283,13.7584824 13.3357543,13.3098564 13.3357543,12.7581933 C13.3357543,12.2065302 12.8871283,11.7579042 12.3354652,11.7579042 Z" id="Shape" fill="#FFFFFF"></path>
                        </g>
                    </g>
                </g>
            </g>
        </g>
    </g>
</svg>