<?xml version="1.0" encoding="UTF-8"?>
<svg width="24px" height="24px" viewBox="0 0 24 24" version="1.1" xmlns="http://www.w3.org/2000/svg" xmlns:xlink="http://www.w3.org/1999/xlink">
    <!-- Generator: Sketch 64 (93537) - https://sketch.com -->
    <title>Rectangle</title>
    <desc>Created with Sketch.</desc>
    <g id="Page-1" stroke="none" stroke-width="1" fill="none" fill-rule="evenodd">
        <g id="icon-bag-v2">
            <rect id="Rectangle" x="0" y="0" width="24" height="24"></rect>
            <g id="Bag" transform="translate(4.000000, 3.000000)" fill="#FFFFFF" fill-rule="nonzero">
                <path d="M13.9773913,3.67826087 L11.5434783,3.67826087 C11.2705398,1.77450236 9.63974609,0.360837869 7.71652174,0.360837869 C5.79329739,0.360837869 4.16250369,1.77450236 3.88956522,3.67826087 L1.45565217,3.67826087 C0.807317902,3.67826087 0.28173913,4.20383964 0.28173913,4.85217391 L0.28173913,16.5913043 C0.28173913,17.2396386 0.807317902,17.7652174 1.45565217,17.7652174 L13.9773913,17.7652174 C14.6257256,17.7652174 15.1513043,17.2396386 15.1513043,16.5913043 L15.1513043,4.85217391 C15.1513043,4.20383964 14.6257256,3.67826087 13.9773913,3.67826087 Z M7.71652174,1.52608696 C8.96282832,1.60800427 10.0193891,2.47274893 10.346087,3.67826087 L5.08695652,3.67826087 C5.41365441,2.47274893 6.47021516,1.60800427 7.71652174,1.52608696 L7.71652174,1.52608696 Z M13.9773913,16.5913043 L1.45565217,16.5913043 L1.45565217,4.85217391 L3.80347826,4.85217391 L3.80347826,6.02608696 C3.80347826,6.35025409 4.06626765,6.61304348 4.39043478,6.61304348 C4.71460192,6.61304348 4.9773913,6.35025409 4.9773913,6.02608696 L4.9773913,4.85217391 L10.4556522,4.85217391 L10.4556522,6.02608696 C10.4556522,6.35025409 10.7184416,6.61304348 11.0426087,6.61304348 C11.3667758,6.61304348 11.6295652,6.35025409 11.6295652,6.02608696 L11.6295652,4.85217391 L13.9773913,4.85217391 L13.9773913,16.5913043 Z" id="Shape"></path>
            </g>
        </g>
    </g>
</svg>