<svg width="29" height="29" viewBox="0 0 29 29" fill="none" xmlns="http://www.w3.org/2000/svg">
<path fill-rule="evenodd" clip-rule="evenodd" d="M2.62231 15.6541C2.62231 23.0248 8.52729 29.0001 15.8112 29.0001C23.0955 29.0001 29.0001 23.0248 29.0001 15.6541C29.0001 8.2834 23.0955 2.30811 15.8112 2.30811C8.52729 2.30811 2.62231 8.2834 2.62231 15.6541Z" fill="#FFEBDE"/>
<path fill-rule="evenodd" clip-rule="evenodd" d="M13.6141 19.4441C13.2685 19.4574 13.002 19.2875 12.7485 19.079C11.5081 18.0575 10.2672 17.0355 9.0233 16.0178C8.49152 15.5827 8.18166 15.0645 8.65909 14.4374C9.16559 13.7722 9.75346 13.9337 10.3244 14.4091C11.1643 15.1087 12.044 15.7624 12.8482 16.5009C13.353 16.9641 13.6424 16.8803 14.079 16.4039C15.6231 14.7177 17.2147 13.0764 18.7851 11.4151C19.1908 10.9863 19.6298 10.7001 20.2222 11.0361C20.8333 11.3825 20.9537 12.1039 20.4126 12.6844C18.415 14.8277 16.3862 16.9416 14.3671 19.065C14.1625 19.2805 13.9187 19.4276 13.6141 19.4441Z" fill="#A179C5"/>
<path fill-rule="evenodd" clip-rule="evenodd" d="M14.4926 1.61378C7.38731 1.61378 1.60663 7.46296 1.60663 14.6532C1.60663 21.8428 7.38731 27.6919 14.4926 27.6919C21.5976 27.6919 27.3782 21.8428 27.3782 14.6532C27.3782 7.46296 21.5976 1.61378 14.4926 1.61378ZM14.4925 28.3057C7.05281 28.3057 1 22.1812 1 14.6532C1 7.12454 7.05281 1 14.4925 1C21.9319 1 27.9847 7.12454 27.9847 14.6532C27.9847 22.1812 21.9319 28.3057 14.4925 28.3057Z" fill="#A179C5"/>
<path d="M14.4926 1.11378C7.10562 1.11378 1.10663 7.1924 1.10663 14.6532H2.10663C2.10663 7.73351 7.66901 2.11378 14.4926 2.11378V1.11378ZM1.10663 14.6532C1.10663 22.1133 7.10563 28.1919 14.4926 28.1919V27.1919C7.66899 27.1919 2.10663 21.5722 2.10663 14.6532H1.10663ZM14.4926 28.1919C21.8792 28.1919 27.8782 22.1133 27.8782 14.6532H26.8782C26.8782 21.5722 21.3159 27.1919 14.4926 27.1919V28.1919ZM27.8782 14.6532C27.8782 7.19241 21.8793 1.11378 14.4926 1.11378V2.11378C21.3158 2.11378 26.8782 7.7335 26.8782 14.6532H27.8782ZM14.4925 27.8057C7.33449 27.8057 1.5 21.9106 1.5 14.6532H0.5C0.5 22.4518 6.77113 28.8057 14.4925 28.8057V27.8057ZM1.5 14.6532C1.5 7.39509 7.33451 1.5 14.4925 1.5V0.5C6.77111 0.5 0.5 6.85399 0.5 14.6532H1.5ZM14.4925 1.5C21.6502 1.5 27.4847 7.39509 27.4847 14.6532H28.4847C28.4847 6.854 22.2136 0.5 14.4925 0.5V1.5ZM27.4847 14.6532C27.4847 21.9106 21.6502 27.8057 14.4925 27.8057V28.8057C22.2136 28.8057 28.4847 22.4518 28.4847 14.6532H27.4847Z" fill="#A179C5"/>
</svg>
