<svg width="92" height="23" viewBox="0 0 92 23" fill="none" xmlns="http://www.w3.org/2000/svg">
<g id="Group 16">
<g id="Group 3">
<mask id="mask0_2225_8148" style="mask-type:luminance" maskUnits="userSpaceOnUse" x="0" y="4" width="17" height="18">
<path id="Clip 2" fill-rule="evenodd" clip-rule="evenodd" d="M0.443359 4.18921H16.6061V21.8208H0.443359V4.18921Z" fill="white"/>
</mask>
<g mask="url(#mask0_2225_8148)">
<path id="Fill 1" fill-rule="evenodd" clip-rule="evenodd" d="M16.6061 20.7421V14.474C14.7225 14.3148 13.1951 14.3414 11.967 14.6626C8.78363 15.4945 7.26804 17.6551 6.67601 19.5515C6.40833 20.4094 6.32065 21.0093 6.32065 21.0093V4.18921H0.443359V21.8208H15.5276C16.1233 21.8208 16.6061 21.3378 16.6061 20.7421Z" fill="black"/>
</g>
</g>
<path id="Fill 4" fill-rule="evenodd" clip-rule="evenodd" d="M48.2018 20.7421V14.474C46.3182 14.3148 44.7908 14.3414 43.5628 14.6626C40.3793 15.4945 38.8637 17.6551 38.2717 19.5515C38.004 20.4094 37.9164 21.0093 37.9164 21.0093V4.18921H32.0391V21.8208H47.1233C47.719 21.8208 48.2018 21.3378 48.2018 20.7421Z" fill="black"/>
<path id="Fill 6" fill-rule="evenodd" clip-rule="evenodd" d="M68.7678 20.7421V14.474C66.8841 14.3148 65.3567 14.3414 64.1284 14.6626C60.945 15.4945 59.4297 17.6551 58.8376 19.5515C58.57 20.4094 58.4823 21.0093 58.4823 21.0093V4.18921H52.605V21.8208H67.6892C68.2847 21.8208 68.7678 21.3378 68.7678 20.7421Z" fill="black"/>
<path id="Fill 8" fill-rule="evenodd" clip-rule="evenodd" d="M25.8208 21.8124L21.0024 21.8207L21.0196 11.569H26.8969V20.7345C26.8969 21.3291 26.4154 21.8115 25.8208 21.8124Z" fill="black"/>
<g id="Group 12">
<path id="Fill 10" fill-rule="evenodd" clip-rule="evenodd" d="M85.6649 13.4583C85.6649 16.1971 84.0771 18.1094 81.5695 18.1094C79.0579 18.1094 77.6376 16.1691 77.6376 13.1816C77.6376 10.1824 79.072 8.25449 81.6048 8.25449C84.1315 8.25449 85.6649 10.1238 85.6649 12.9054V13.4583ZM85.6806 8.51013H85.579L85.5161 8.32528C84.4197 5.16361 82.2549 3.9585 79.3341 3.9585C74.3325 3.9585 71.7173 7.36077 71.7173 13.1698C71.7173 18.8817 74.4572 22.051 79.3311 22.051C82.3463 22.051 84.4169 21.1772 85.5059 17.9796L85.5682 17.8013H85.676L85.6743 21.8208H91.5419L91.5567 4.18869H90.0756C87.9092 4.20419 86.4063 5.67166 85.9446 7.06395C85.6808 7.85934 85.6806 8.51013 85.6806 8.51013Z" fill="black"/>
</g>
<g id="Group 15">
<mask id="mask1_2225_8148" style="mask-type:luminance" maskUnits="userSpaceOnUse" x="20" y="0" width="8" height="8">
<path id="Clip 14" fill-rule="evenodd" clip-rule="evenodd" d="M20.2739 0.513184H27.6249V7.86426H20.2739V0.513184Z" fill="white"/>
</mask>
<g mask="url(#mask1_2225_8148)">
<path id="Fill 13" fill-rule="evenodd" clip-rule="evenodd" d="M23.9494 0.513C21.9228 0.513 20.2739 2.16185 20.2739 4.18874C20.2739 6.21516 21.9228 7.86424 23.9494 7.86424C25.9761 7.86424 27.6249 6.21516 27.6249 4.18874C27.6249 2.16185 25.9761 0.513 23.9494 0.513Z" fill="black"/>
</g>
</g>
</g>
</svg>
