<?xml version="1.0" encoding="UTF-8"?>
<svg width="50px" height="57px" viewBox="0 0 50 57" version="1.1" xmlns="http://www.w3.org/2000/svg" xmlns:xlink="http://www.w3.org/1999/xlink">
    <title>smartphone</title>
    <g id="Page-1" stroke="none" stroke-width="1" fill="none" fill-rule="evenodd">
        <g id="LL21---Verify-SMS-Copy-2" transform="translate(-163.000000, -86.000000)" fill-rule="nonzero">
            <g id="smartphone" transform="translate(163.000000, 86.000000)">
                <path d="M18.1579662,0.863636364 L29.2104548,0.863636364 C31.0029767,0.863636364 32.4561404,2.31644494 32.4561404,4.10852883 L32.4561404,52.8914712 C32.4561404,54.6835551 31.0029767,56.1363636 29.2104548,56.1363636 L18.1579662,56.1363636 C16.3654444,56.1363636 14.9122807,54.6835551 14.9122807,52.8914712 L14.9122807,4.10852883 C14.9122807,2.31644494 16.3653326,0.863636364 18.1579662,0.863636364 Z" id="Path" fill="#D7CDF5"></path>
                <path d="M4.12287851,0.863636364 L15.1753671,0.863636364 C16.967889,0.863636364 18.4210526,2.31644494 18.4210526,4.10852883 L18.4210526,52.8914712 C18.4210526,54.6835551 16.967889,56.1363636 15.1753671,56.1363636 L4.12287851,56.1363636 C2.33035663,56.1363636 0.877192982,54.6835551 0.877192982,52.8914712 L0.877192982,4.10852883 C0.877192982,2.31644494 2.33024493,0.863636364 4.12287851,0.863636364 Z" id="Path" fill="#FFFFFF"></path>
                <path d="M7.22140196,0.863636364 L25.6733349,0.863636364 C27.4815128,0.863636364 28.9473684,2.31644494 28.9473684,4.10852883 L28.9473684,52.8914712 C28.9473684,54.6835551 27.4815128,56.1363636 25.6733349,56.1363636 L7.22140196,56.1363636 C5.41322409,56.1363636 3.94736842,54.6835551 3.94736842,52.8914712 L3.94736842,4.10852883 C3.94736842,2.31644494 5.41311141,0.863636364 7.22140196,0.863636364 Z" id="Path" fill="#F3F0FC"></path>
                <rect id="Rectangle" fill="#F3F0FC" x="3.94736842" y="6.47727273" width="25" height="38"></rect>
                <polygon id="Path" fill="#F3F0FC" points="49.122807 12.5227273 14.4736842 12.5227273 14.4736842 30.5727451 18.3236619 30.5727451 18.3236619 36.2727273 26.0233918 30.5727451 49.122807 30.5727451"></polygon>
                <g id="Group" transform="translate(13.157895, 12.090909)">
                    <polygon id="Path" fill="#FFFFFF" points="32.8645551 0.104005991 1.03239736 0.104005991 1.03239736 18.1778616 4.89091608 18.1778616 4.89091608 23.8853715 12.6077274 18.1778616 32.8645551 18.1778616"></polygon>
                    <ellipse id="Oval" fill="#F3F0FC" cx="2.96165672" cy="38.1541462" rx="2.89383252" ry="2.85375494"></ellipse>
                </g>
                <g id="Group">
                    <path d="M15.3904279,54.15 C13.2675676,54.15 11.5466216,52.4486836 11.5466216,50.3500371 C11.5466216,48.2513906 13.2675676,46.5500742 15.3904279,46.5500742 C17.5132883,46.5500742 19.2342342,48.2513906 19.2342342,50.3500371 C19.231982,52.447793 17.5123874,54.1477734 15.3904279,54.15 L15.3904279,54.15 Z M15.3904279,48.45 C14.3289414,48.45 13.4684685,49.3006582 13.4684685,50.3500371 C13.4684685,51.399416 14.3289414,52.2500742 15.3904279,52.2500742 C16.4519144,52.2500742 17.3123874,51.399416 17.3123874,50.3500371 C17.3111486,49.3011035 16.4513514,48.4512246 15.3904279,48.45 L15.3904279,48.45 Z" id="Shape" fill="#8B7FBF"></path>
                    <path d="M31.7266892,45.6 L0.976013514,45.6 C0.44527027,45.6 0.0150900901,45.1746152 0.0150900901,44.6500371 C0.0150900901,44.125459 0.445382883,43.7000742 0.976013514,43.7000742 L31.7268018,43.7000742 C32.257545,43.7000742 32.6877252,44.1253477 32.6877252,44.6500371 C32.6877252,45.1747266 32.2574324,45.6 31.7266892,45.6 Z" id="Path" fill="#8B7FBF"></path>
                    <path d="M31.7266892,7.60003711 L0.976013514,7.60003711 C0.44527027,7.60003711 0.0150900901,7.17465234 0.0150900901,6.65007422 C0.0150900901,6.12549609 0.445382883,5.70011133 0.976013514,5.70011133 L31.7268018,5.70011133 C32.257545,5.70011133 32.6877252,6.12549609 32.6877252,6.65007422 C32.6877252,7.17465234 32.2574324,7.60003711 31.7266892,7.60003711 Z" id="Path" fill="#8B7FBF"></path>
                    <path d="M16.3513514,4.75003711 L12.507545,4.75003711 C11.9768018,4.75003711 11.5466216,4.32465234 11.5466216,3.80007422 C11.5466216,3.27549609 11.9769144,2.85011133 12.507545,2.85011133 L16.3513514,2.85011133 C16.8820946,2.85011133 17.3122748,3.27549609 17.3122748,3.80007422 C17.3122748,4.32465234 16.8820946,4.75003711 16.3513514,4.75003711 Z" id="Path" fill="#8B7FBF"></path>
                    <path d="M20.1951577,4.75003711 L19.2342342,4.75003711 C18.703491,4.75003711 18.2733108,4.32465234 18.2733108,3.80007422 C18.2733108,3.27549609 18.7036036,2.85011133 19.2342342,2.85011133 L20.1951577,2.85011133 C20.7259009,2.85011133 21.1560811,3.27549609 21.1560811,3.80007422 C21.1560811,4.32465234 20.7259009,4.75003711 20.1951577,4.75003711 Z" id="Path" fill="#8B7FBF"></path>
                    <path d="M17.5936937,36.771791 C17.4135135,36.593666 17.3122748,36.3519727 17.3122748,36.0999258 L17.3122748,31.35 L14.4293919,31.35 C14.1745495,31.3501113 13.9300676,31.2500273 13.7497748,31.071791 C13.5695946,30.893666 13.4683558,30.6519727 13.4683558,30.3999258 L13.4683558,12.3499629 C13.4683558,12.0980273 13.569482,11.856334 13.7497748,11.6780977 C13.929955,11.4999727 14.1744369,11.3998886 14.4293919,11.3998886 L49.0239865,11.3998886 C49.2788288,11.3998886 49.5233108,11.4998613 49.7036036,11.6780977 C49.8838964,11.856334 49.9850226,12.097916 49.9850226,12.3499629 L49.9850226,30.3999258 C49.9850226,30.6518613 49.8838964,30.8935547 49.7036036,31.071791 C49.5234234,31.249916 49.2789414,31.35 49.0239865,31.35 L26.2814189,31.35 L18.8498874,36.8598516 C18.6836712,36.9834258 18.4813063,37.0500001 18.2733108,37.0500001 C18.0184685,37.0500001 17.7739865,36.9500273 17.5936937,36.771791 Z M15.3904279,29.4499629 L18.2733108,29.4499629 C18.5281532,29.4498516 18.7726351,29.5499355 18.9529279,29.7281719 C19.1331081,29.9062969 19.2343468,30.1479902 19.2343468,30.4000371 L19.2343468,34.2 L25.3844595,29.6402227 C25.5507883,29.5168711 25.7531532,29.4500742 25.9611486,29.4500742 L48.0630631,29.4500742 L48.0630631,13.3000371 L15.3904279,13.3000371 L15.3904279,29.4499629 Z" id="Shape" fill="#8B7FBF"></path>
                    <path d="M28.4543919,57 L4.24831081,57 C1.91148649,56.9973281 0.0177927928,55.1252344 0.0149774775,52.8149531 L0.0149774775,4.18504688 C0.0177927928,1.87476562 1.91148649,0.002671875 4.24831081,0 L28.4543919,0 C30.7912162,0.002671875 32.6849099,1.87476562 32.6879505,4.18504688 L32.6879505,12.3500742 C32.6879505,12.6020098 32.5865991,12.8437031 32.4063063,13.0219395 C32.2261261,13.2000645 31.9816441,13.3001484 31.7266892,13.3001484 L15.3904279,13.3001484 L15.3904279,29.4501855 L18.2733108,29.4501855 C18.5281532,29.4500742 18.7726351,29.5501582 18.9529279,29.7283945 C19.1331081,29.9065195 19.2343468,30.1482129 19.2343468,30.4002598 L19.2343468,34.2 L25.3844595,29.6402227 C25.5507883,29.5168711 25.7531532,29.4500742 25.9611486,29.4500742 L31.7269144,29.4500742 C31.9817568,29.4499629 32.2262387,29.5500469 32.4065315,29.7282832 C32.5868243,29.9065195 32.6879505,30.1481016 32.6879505,30.4001484 L32.6879505,52.8151758 C32.6850225,55.1252344 30.7912162,56.9973281 28.4543919,57 Z M4.24831081,1.90003711 C2.97240991,1.90148437 1.9384009,2.92369922 1.93693694,4.18504687 L1.93693694,52.8150645 C1.9384009,54.0764121 2.97240991,55.098627 4.24831081,55.1000742 L28.4543919,55.1000742 C29.7302928,55.098627 30.7643018,54.0764121 30.7657658,52.8150645 L30.7657658,31.35 L26.2814189,31.35 L18.8498874,36.8598516 C18.5587838,37.0759395 18.1691441,37.1107852 17.8434685,36.949916 C17.5177928,36.7890469 17.3121622,36.4599609 17.3122748,36.1000371 L17.3122748,31.35 L14.4293919,31.35 C14.1745495,31.3501113 13.9300676,31.2500273 13.7497748,31.071791 C13.5695946,30.893666 13.4683559,30.6519727 13.4683559,30.3999258 L13.4683559,12.3499629 C13.4682432,12.0980273 13.569482,11.856334 13.7497748,11.6780977 C13.929955,11.4999727 14.1744369,11.3998887 14.4293919,11.3998887 L30.7657658,11.3998887 L30.7657658,4.18504687 C30.7643018,2.92369922 29.7302928,1.90148437 28.4543919,1.90003711 L4.24831081,1.90003711 Z" id="Shape" fill="#8B7FBF"></path>
                    <path d="M29.8048423,19.95 L20.1952703,19.95 C19.664527,19.95 19.2343468,19.5246152 19.2343468,19.0000371 C19.2343468,18.4753477 19.6646396,18.0500742 20.1952703,18.0500742 L29.8048423,18.0500742 C30.3355856,18.0500742 30.7657658,18.475459 30.7657658,19.0000371 C30.7657658,19.5247266 30.3355856,19.95 29.8048423,19.95 Z" id="Path" fill="#D7CDF5"></path>
                    <path d="M43.2582207,24.7000371 L20.1951577,24.7000371 C19.6644144,24.7000371 19.2342342,24.2746523 19.2342342,23.7500742 C19.2342342,23.2254961 19.664527,22.8001113 20.1951577,22.8001113 L43.2582207,22.8001113 C43.788964,22.8001113 44.2191441,23.2253848 44.2191441,23.7500742 C44.2191441,24.2747637 43.788964,24.7000371 43.2582207,24.7000371 Z" id="Path" fill="#D7CDF5"></path>
                </g>
            </g>
        </g>
    </g>
</svg>