<?xml version="1.0" encoding="UTF-8"?>
<svg width="32px" height="28px" viewBox="0 0 32 28" version="1.1" xmlns="http://www.w3.org/2000/svg" xmlns:xlink="http://www.w3.org/1999/xlink">
    <title>Group 29</title>
    <defs>
        <polygon id="path-1" points="0 0.0860988506 31.9437657 0.0860988506 31.9437657 18.8804598 0 18.8804598"></polygon>
        <polygon id="path-3" points="0.036635514 0.0965770115 16.156162 0.0965770115 16.156162 23.8407421 0.036635514 23.8407421"></polygon>
    </defs>
    <g id="Page-1" stroke="none" stroke-width="1" fill="none" fill-rule="evenodd">
        <g id="LL21---Verify-Copy" transform="translate(-25.000000, -287.000000)">
            <g id="Group-9-Copy" transform="translate(16.000000, 277.000000)">
                <g id="Group-27" transform="translate(9.000000, 10.000000)">
                    <g id="Group-3" transform="translate(0.000000, 8.701124)">
                        <mask id="mask-2" fill="white">
                            <use xlink:href="#path-1"></use>
                        </mask>
                        <g id="Clip-2"></g>
                        <path d="M24.8541209,18.8804598 L-9.96884735e-06,18.8804598 L-9.96884735e-06,7.11605517 C-9.96884735e-06,3.23350115 3.17417072,0.0860988506 7.08963489,0.0860988506 L31.9437657,0.0860988506 L31.9437657,11.8504046 C31.9437657,15.7330575 28.769585,18.8804598 24.8541209,18.8804598" id="Fill-1" fill="#E9D9FF" mask="url(#mask-2)"></path>
                    </g>
                    <path d="M11.1476935,23.3487529 C9.63840997,23.3487529 8.41054704,22.1312103 8.41054704,20.6346126 L8.41054704,1.37140345 C8.41054704,0.942293103 8.76264673,0.593054023 9.19549408,0.593054023 L20.7959427,0.593054023 C22.3052262,0.593054023 23.5330891,1.8106954 23.5330891,3.30719425 L23.5330891,22.5703046 C23.5330891,22.9995138 23.1809894,23.3487529 22.7481421,23.3487529 L11.1476935,23.3487529 Z" id="Fill-4" fill="#FFEBDE"></path>
                    <g id="Group-8" transform="translate(7.875389, 0.002274)">
                        <mask id="mask-4" fill="white">
                            <use xlink:href="#path-3"></use>
                        </mask>
                        <g id="Clip-7"></g>
                        <path d="M12.9205732,0.0965374713 L1.32012461,0.0965374713 C0.612436137,0.0965374713 0.036635514,0.66739954 0.036635514,1.36913977 L0.036635514,20.632349 C0.036635514,22.4014777 1.48819938,23.8407421 3.27232399,23.8407421 L14.8727726,23.8407421 C15.5804611,23.8407421 16.156162,23.2697811 16.156162,22.5680409 L16.156162,3.30493057 C16.156162,1.53580184 14.7046978,0.0965374713 12.9205732,0.0965374713 M12.9205732,1.08504322 C14.1570093,1.08504322 15.1592773,2.0788869 15.1592773,3.30493057 L15.1592773,22.5680409 C15.1592773,22.7250156 15.0309782,22.8522363 14.8727726,22.8522363 L3.27232399,22.8522363 C2.03588785,22.8522363 1.03352025,21.8582938 1.03352025,20.632349 L1.03352025,1.36913977 C1.03352025,1.21226391 1.16181931,1.08504322 1.32012461,1.08504322 L12.9205732,1.08504322" id="Fill-6" fill="#A179C5" mask="url(#mask-4)"></path>
                    </g>
                    <path d="M10.8464847,18.0344175 L10.8464847,2.96247264 L20.1448274,2.96247264 C20.6698866,2.96247264 21.0970517,3.38604736 21.0970517,3.90669333 L21.0970517,18.0344175 L10.8464847,18.0344175 Z" id="Fill-9" fill="#D4B1EF"></path>
                    <path d="M20.1448972,2.46823954 L10.5682243,2.46823954 C10.4466044,2.46823954 10.3481121,2.56600276 10.3481121,2.68650161 L10.3481121,18.310428 C10.3481121,18.4309269 10.4466044,18.5286901 10.5682243,18.5286901 L21.3754517,18.5286901 C21.496972,18.5286901 21.5955639,18.4309269 21.5955639,18.310428 L21.5955639,3.90661425 C21.5955639,3.11225103 20.9460935,2.46823954 20.1448972,2.46823954 M20.1448972,3.45674529 C20.3951153,3.45674529 20.5986791,3.65859816 20.5986791,3.90661425 L20.5986791,17.5401844 L11.3449969,17.5401844 L11.3449969,3.45674529 L20.1448972,3.45674529" id="Fill-11" fill="#A179C5"></path>
                    <path d="M14.8555564,20.7057257 C14.8555564,21.3170177 15.3552947,21.8125556 15.9717682,21.8125556 C16.5883414,21.8125556 17.0880798,21.3170177 17.0880798,20.7057257 C17.0880798,20.0944338 16.5883414,19.5988959 15.9717682,19.5988959 C15.3552947,19.5988959 14.8555564,20.0944338 14.8555564,20.7057257" id="Fill-13" fill="#FFFFFF"></path>
                    <path d="M15.971838,20.0930795 C15.6311028,20.0930795 15.3539688,20.3678841 15.3539688,20.7057554 C15.3539688,21.0435278 15.6311028,21.3183324 15.971838,21.3183324 C16.3124735,21.3183324 16.5896075,21.0435278 16.5896075,20.7057554 C16.5896075,20.3678841 16.3124735,20.0930795 15.971838,20.0930795 M15.971838,22.3068382 C15.0814206,22.3068382 14.3570841,21.5885899 14.3570841,20.7057554 C14.3570841,19.8228221 15.0814206,19.1045738 15.971838,19.1045738 C16.8622555,19.1045738 17.5864922,19.8228221 17.5864922,20.7057554 C17.5864922,21.5885899 16.8622555,22.3068382 15.971838,22.3068382" id="Fill-15" fill="#A179C5"></path>
                    <path d="M26.8625545,11.5222108 L17.5733832,11.5222108 C16.0723738,11.5222108 14.8555763,10.3156407 14.8555763,8.82724759 L14.8555763,8.82724759 C14.8555763,7.33885448 16.0723738,6.13228437 17.5733832,6.13228437 L26.8625545,6.13228437 C28.3635639,6.13228437 29.5803614,7.33885448 29.5803614,8.82724759 L29.5803614,8.82724759 C29.5803614,10.3156407 28.3635639,11.5222108 26.8625545,11.5222108" id="Fill-17" fill="#FFFFFF"></path>
                    <path d="M17.5733832,6.62652736 C16.3496075,6.62652736 15.353919,7.61374805 15.353919,8.8272377 C15.353919,10.0407274 16.3496075,11.027948 17.5733832,11.027948 L26.8625545,11.027948 C28.0863302,11.027948 29.081919,10.0407274 29.081919,8.8272377 C29.081919,7.61374805 28.0863302,6.62652736 26.8625545,6.62652736 L17.5733832,6.62652736 Z M26.8625545,12.0164538 L17.5733832,12.0164538 C15.7999252,12.0164538 14.3570343,10.5857894 14.3570343,8.8272377 C14.3570343,7.06868598 15.7999252,5.63802161 17.5733832,5.63802161 L26.8625545,5.63802161 C28.6360125,5.63802161 30.0788037,7.06868598 30.0788037,8.8272377 C30.0788037,10.5857894 28.6360125,12.0164538 26.8625545,12.0164538 L26.8625545,12.0164538 Z" id="Fill-19" fill="#A179C5"></path>
                    <polygon id="Fill-21" fill="#A179C5" points="19.7589732 7.97863517 20.0973159 8.57925126 19.4587115 8.79573402 20.0973159 9.00134322 19.7370417 9.62914322 19.2241445 9.15831793 19.3714841 9.82931563 18.6728673 9.82931563 18.8148237 9.15831793 18.3126928 9.63991793 17.9362692 8.99600529 18.5746741 8.77952253 17.9471352 8.58468805 18.2854779 7.98407195 18.8203065 8.4385869 18.6620012 7.76215241 19.376967 7.76215241 19.2241445 8.4385869"></polygon>
                    <polygon id="Fill-23" fill="#A179C5" points="23.022405 7.97863517 23.3607477 8.57925126 22.7221433 8.79573402 23.3607477 9.00134322 23.0004735 9.62914322 22.4875763 9.15831793 22.6349159 9.82931563 21.9362991 9.82931563 22.0782555 9.15831793 21.5761246 9.63991793 21.1997009 8.99600529 21.8381059 8.77952253 21.210567 8.58468805 21.5489097 7.98407195 22.0837383 8.4385869 21.925433 7.76215241 22.6403988 7.76215241 22.4875763 8.4385869"></polygon>
                    <polygon id="Fill-25" fill="#A179C5" points="26.285747 7.97863517 26.6240897 8.57925126 25.9854854 8.79573402 26.6240897 9.00134322 26.2638156 9.62914322 25.7509184 9.15831793 25.8982579 9.82931563 25.1996411 9.82931563 25.3415975 9.15831793 24.8394667 9.63991793 24.463043 8.99600529 25.101448 8.77952253 24.473909 8.58468805 24.8122517 7.98407195 25.3470804 8.4385869 25.1887751 7.76215241 25.9037408 7.76215241 25.7509184 8.4385869"></polygon>
                </g>
            </g>
        </g>
    </g>
</svg>