<?xml version="1.0" encoding="UTF-8"?>
<svg width="21px" height="21px" viewBox="0 0 21 21" version="1.1" xmlns="http://www.w3.org/2000/svg" xmlns:xlink="http://www.w3.org/1999/xlink">
    <title>arrow_carrot-down</title>
    <g id="Page-1" stroke="none" stroke-width="1" fill="none" fill-rule="evenodd">
        <g id="LL21---Category" transform="translate(-308.000000, -169.000000)" stroke="#A775C8">
            <g id="Group-4" transform="translate(16.000000, 154.000000)">
                <g id="Group-3" transform="translate(15.501684, 13.000000)">
                    <g id="arrow_carrot-down" transform="translate(286.984848, 12.520202) rotate(-90.000000) translate(-286.984848, -12.520202) translate(276.984848, 2.520202)">
                        <g id="Group-5" transform="translate(0.168775, 0.476943)">
                            <g id="Group" transform="translate(5.351427, 4.036525)">
                                <path d="M7.08846899,5.17237254 L4,8.57975044 L0.911531014,5.17237254 C0.703211591,4.94254249 0.36455899,4.94254249 0.156239567,5.17237254 C-0.0520798558,5.4022026 -0.0520798558,5.77582376 0.156239567,6.00565382 L3.62075182,9.82790443 C3.72544568,9.94340877 3.86325699,10.0011609 4,10 C4.13781131,10 4.27455432,9.94340877 4.37924818,9.82790443 L7.84376043,6.00565382 C8.05207986,5.77582376 8.05207986,5.4022026 7.84376043,5.17237254 C7.63544101,4.94254249 7.29678841,4.94254249 7.08846899,5.17237254 Z" id="Path" stroke-width="0.2" fill="#A775C8" fill-rule="nonzero"></path>
                                <polyline id="Path-5" stroke-width="1.3" transform="translate(4.000000, 4.500000) rotate(90.000000) translate(-4.000000, -4.500000) " points="8.5 4.5 0.277471241 4.5 -0.5 4.5"></polyline>
                            </g>
                            <circle id="Oval" stroke-width="1.5" transform="translate(9.351427, 9.036525) rotate(90.000000) translate(-9.351427, -9.036525) " cx="9.35142707" cy="9.03652546" r="8.25"></circle>
                        </g>
                    </g>
                </g>
            </g>
        </g>
    </g>
</svg>