<?xml version="1.0" encoding="UTF-8"?>
<svg width="360px" height="116px" viewBox="0 0 360 116" version="1.1" xmlns="http://www.w3.org/2000/svg" xmlns:xlink="http://www.w3.org/1999/xlink">
    <title>Group</title>
    <defs>
        <rect id="path-1" x="0" y="0" width="360" height="116"></rect>
    </defs>
    <g id="Page-1" stroke="none" stroke-width="1" fill="none" fill-rule="evenodd">
        <g id="LL21---Help-Center---after-login--without-order" transform="translate(0.000000, -56.000000)">
            <g id="Group" transform="translate(0.000000, 56.000000)">
                <mask id="mask-2" fill="white">
                    <use xlink:href="#path-1"></use>
                </mask>
                <use id="Rectangle" fill="#F3F0FC" xlink:href="#path-1"></use>
                <circle id="Oval" fill="#EDE7FF" mask="url(#mask-2)" cx="304" cy="-11" r="123"></circle>
                <circle id="Oval-Copy" fill="#EBE6FC" mask="url(#mask-2)" cx="48" cy="112" r="71"></circle>
                <path d="M345.442,73.442 C342.23,73.442 339.410667,71.728 337.850667,69.1673333 C337.758,69.016 337.672,68.8606667 337.588667,68.7033333 C337.566,68.6606667 337.544,68.6173333 337.522,68.574 C337.459333,68.4513333 337.4,68.3266667 337.343333,68.2006667 C337.324,68.1593333 337.304667,68.118 337.286667,68.076 C337.216667,67.914 337.15,67.75 337.089333,67.5826667 C337.078667,67.5533333 337.069333,67.5226667 337.059333,67.4926667 C337.01,67.3526667 336.964,67.2113333 336.922,67.068 C336.906667,67.016 336.892,66.964 336.878,66.912 C336.839333,66.7713333 336.804,66.6293333 336.772,66.4866667 C336.764,66.45 336.754667,66.4146667 336.746667,66.378 C336.710667,66.2033333 336.679333,66.0266667 336.653333,65.848 C336.646667,65.7986667 336.640667,65.7486667 336.634667,65.6986667 C336.616667,65.562 336.602667,65.4246667 336.591333,65.286 C336.586667,65.2293333 336.581333,65.1726667 336.578,65.1153333 C336.567333,64.9386667 336.56,64.7606667 336.559333,64.5806667 C336.559333,64.5733333 336.558667,64.566 336.558667,64.5586667 C336.558667,64.4046667 336.496,64.2646667 336.395333,64.164 C336.294,64.0626667 336.154667,64 336.000667,64 C335.692,64 335.442,64.25 335.442,64.5586667 C335.442,64.7393333 335.435333,64.9186667 335.424667,65.0973333 C335.421333,65.1453333 335.417333,65.1926667 335.413333,65.2406667 C335.403333,65.374 335.390667,65.5066667 335.374667,65.6386667 C335.368,65.6886667 335.362,65.7386667 335.355333,65.7886667 C335.334667,65.9366667 335.310667,66.084 335.282667,66.2293333 C335.278,66.2546667 335.274,66.28 335.269333,66.3046667 C335.234,66.48 335.193333,66.654 335.148,66.8253333 C335.142,66.8486667 335.134667,66.8713333 335.128667,66.8946667 C335.088667,67.0413333 335.044667,67.186 334.997333,67.33 C334.985333,67.3673333 334.972667,67.404 334.959333,67.4413333 C334.911333,67.5806667 334.86,67.7186667 334.805333,67.8553333 C334.795333,67.88 334.786667,67.9046667 334.776,67.9293333 C334.64,68.26 334.484667,68.5806667 334.310667,68.89 C334.302667,68.9046667 334.294,68.9193333 334.285333,68.934 C334.204,69.0766667 334.119333,69.2173333 334.030667,69.3546667 C334.022,69.368 334.013333,69.382 334.004667,69.3953333 C333.706667,69.8513333 333.368667,70.2786667 332.995333,70.672 C332.994,70.6733333 332.993333,70.674 332.992,70.6753333 C332.487333,71.2053333 331.917333,71.674 331.296,72.0673333 C330.959333,72.2806667 330.608,72.4713333 330.243333,72.6386667 C330.23,72.6446667 330.216,72.6506667 330.202667,72.6566667 C329.845333,72.818 329.476,72.9566667 329.095333,73.0706667 C329.069333,73.0786667 329.042667,73.0853333 329.016,73.0933333 C328.854667,73.14 328.692,73.1813333 328.526667,73.2193333 C328.494,73.2266667 328.460667,73.2353333 328.428,73.242 C328.242667,73.282 328.055333,73.3166667 327.866,73.3446667 C327.833333,73.3493333 327.8,73.3526667 327.768,73.3573333 C327.612,73.3786667 327.454667,73.3953333 327.296,73.4086667 C327.242,73.4133333 327.187333,73.4173333 327.132667,73.4213333 C326.95,73.4326667 326.766,73.4406667 326.58,73.4413333 C326.572667,73.4413333 326.566,73.4413333 326.558667,73.4413333 C326.25,73.4413333 326,73.6913333 326,74 C326,74.154 326.062667,74.294 326.164,74.3946667 C326.265333,74.496 326.404667,74.5586667 326.558667,74.5586667 C326.582,74.5586667 326.605333,74.56 326.628667,74.56 C326.794,74.562 326.958667,74.568 327.122,74.578 C327.184,74.582 327.246,74.5873333 327.308,74.5926667 C327.454,74.6046667 327.598667,74.6206667 327.742667,74.64 C327.786667,74.6453333 327.831333,74.65 327.874667,74.6566667 C328.057333,74.684 328.238,74.7173333 328.416667,74.7553333 C328.459333,74.7646667 328.500667,74.7753333 328.543333,74.7846667 C328.697333,74.82 328.85,74.8593333 329.001333,74.9026667 C329.035333,74.9126667 329.069333,74.9213333 329.102667,74.9313333 C329.478,75.044 329.842667,75.1806667 330.195333,75.34 C330.214,75.3486667 330.233333,75.3573333 330.252,75.366 C330.611333,75.5313333 330.958667,75.7193333 331.290667,75.9286667 C331.294667,75.932 331.299333,75.9346667 331.304,75.938 C331.454667,76.0333333 331.602667,76.1333333 331.747333,76.238 C331.75,76.24 331.752667,76.242 331.755333,76.244 C332.194667,76.562 332.604,76.9193333 332.978,77.3106667 C332.988,77.3206667 332.997333,77.3313333 333.007333,77.342 C333.373333,77.728 333.704667,78.1473333 333.997333,78.5946667 C334.011333,78.616 334.025333,78.638 334.039333,78.66 C334.121333,78.788 334.2,78.918 334.276,79.05 C334.289333,79.0733333 334.302667,79.096 334.315333,79.1193333 C334.486,79.4233333 334.639333,79.7393333 334.773333,80.064 C334.786667,80.0953333 334.798,80.1273333 334.810667,80.1586667 C334.862,80.2873333 334.910667,80.418 334.956667,80.55 C334.971333,80.5926667 334.985333,80.6346667 334.999333,80.6773333 C335.044667,80.814 335.086,80.952 335.124,81.0913333 C335.132,81.1206667 335.141333,81.1493333 335.149333,81.1786667 C335.194,81.348 335.234,81.5193333 335.268667,81.6926667 C335.274,81.7213333 335.278667,81.7506667 335.284,81.78 C335.311333,81.9213333 335.334667,82.0646667 335.354667,82.2086667 C335.362,82.2606667 335.368667,82.3126667 335.374667,82.3646667 C335.390667,82.4946667 335.403333,82.6253333 335.413333,82.7566667 C335.417333,82.8053333 335.421333,82.854 335.424667,82.9033333 C335.435333,83.0813333 335.442,83.2606667 335.442,83.4413333 C335.442,83.5186667 335.458,83.592 335.486,83.6586667 C335.570667,83.8593333 335.769333,84 336.000667,84 C336.308667,84 336.558667,83.75 336.558667,83.442 C336.558667,83.434 336.559333,83.4273333 336.559333,83.4193333 C336.56,83.24 336.567333,83.062 336.578,82.8846667 C336.581333,82.8273333 336.586667,82.77 336.591333,82.7126667 C336.602667,82.5753333 336.616667,82.4393333 336.634,82.3033333 C336.640667,82.2526667 336.646667,82.2013333 336.654,82.1506667 C336.68,81.9733333 336.71,81.7973333 336.746667,81.624 C336.754667,81.584 336.765333,81.5446667 336.774,81.5046667 C336.805333,81.366 336.839333,81.2293333 336.876,81.0933333 C336.891333,81.0373333 336.907333,80.982 336.924,80.9266667 C336.964,80.7893333 337.008,80.654 337.055333,80.5193333 C337.067333,80.484 337.078,80.4486667 337.091333,80.4133333 C337.150667,80.2493333 337.216,80.088 337.284667,79.9286667 C337.304667,79.8813333 337.326667,79.8353333 337.348,79.7886667 C337.402,79.67 337.458,79.5526667 337.516667,79.4366667 C337.542,79.3873333 337.566667,79.3373333 337.592667,79.2886667 C337.673333,79.1373333 337.756667,78.9873333 337.845333,78.8413333 C339.404667,76.276 342.226667,74.5586667 345.442,74.5586667 C345.750667,74.5586667 346,74.3086667 346,74 C346,73.692 345.75,73.442 345.442,73.442" id="Fill-7-Copy" fill="#D7CDF5" mask="url(#mask-2)"></path>
                <path d="M190.442,13.442 C187.23,13.442 184.410667,11.728 182.850667,9.16733333 C182.758,9.016 182.672,8.86066667 182.588667,8.70333333 C182.566,8.66066667 182.544,8.61733333 182.522,8.574 C182.459333,8.45133333 182.4,8.32666667 182.343333,8.20066667 C182.324,8.15933333 182.304667,8.118 182.286667,8.076 C182.216667,7.914 182.15,7.75 182.089333,7.58266667 C182.078667,7.55333333 182.069333,7.52266667 182.059333,7.49266667 C182.01,7.35266667 181.964,7.21133333 181.922,7.068 C181.906667,7.016 181.892,6.964 181.878,6.912 C181.839333,6.77133333 181.804,6.62933333 181.772,6.48666667 C181.764,6.45 181.754667,6.41466667 181.746667,6.378 C181.710667,6.20333333 181.679333,6.02666667 181.653333,5.848 C181.646667,5.79866667 181.640667,5.74866667 181.634667,5.69866667 C181.616667,5.562 181.602667,5.42466667 181.591333,5.286 C181.586667,5.22933333 181.581333,5.17266667 181.578,5.11533333 C181.567333,4.93866667 181.56,4.76066667 181.559333,4.58066667 C181.559333,4.57333333 181.558667,4.566 181.558667,4.55866667 C181.558667,4.40466667 181.496,4.26466667 181.395333,4.164 C181.294,4.06266667 181.154667,4 181.000667,4 C180.692,4 180.442,4.25 180.442,4.55866667 C180.442,4.73933333 180.435333,4.91866667 180.424667,5.09733333 C180.421333,5.14533333 180.417333,5.19266667 180.413333,5.24066667 C180.403333,5.374 180.390667,5.50666667 180.374667,5.63866667 C180.368,5.68866667 180.362,5.73866667 180.355333,5.78866667 C180.334667,5.93666667 180.310667,6.084 180.282667,6.22933333 C180.278,6.25466667 180.274,6.28 180.269333,6.30466667 C180.234,6.48 180.193333,6.654 180.148,6.82533333 C180.142,6.84866667 180.134667,6.87133333 180.128667,6.89466667 C180.088667,7.04133333 180.044667,7.186 179.997333,7.33 C179.985333,7.36733333 179.972667,7.404 179.959333,7.44133333 C179.911333,7.58066667 179.86,7.71866667 179.805333,7.85533333 C179.795333,7.88 179.786667,7.90466667 179.776,7.92933333 C179.64,8.26 179.484667,8.58066667 179.310667,8.89 C179.302667,8.90466667 179.294,8.91933333 179.285333,8.934 C179.204,9.07666667 179.119333,9.21733333 179.030667,9.35466667 C179.022,9.368 179.013333,9.382 179.004667,9.39533333 C178.706667,9.85133333 178.368667,10.2786667 177.995333,10.672 C177.994,10.6733333 177.993333,10.674 177.992,10.6753333 C177.487333,11.2053333 176.917333,11.674 176.296,12.0673333 C175.959333,12.2806667 175.608,12.4713333 175.243333,12.6386667 C175.23,12.6446667 175.216,12.6506667 175.202667,12.6566667 C174.845333,12.818 174.476,12.9566667 174.095333,13.0706667 C174.069333,13.0786667 174.042667,13.0853333 174.016,13.0933333 C173.854667,13.14 173.692,13.1813333 173.526667,13.2193333 C173.494,13.2266667 173.460667,13.2353333 173.428,13.242 C173.242667,13.282 173.055333,13.3166667 172.866,13.3446667 C172.833333,13.3493333 172.8,13.3526667 172.768,13.3573333 C172.612,13.3786667 172.454667,13.3953333 172.296,13.4086667 C172.242,13.4133333 172.187333,13.4173333 172.132667,13.4213333 C171.95,13.4326667 171.766,13.4406667 171.58,13.4413333 C171.572667,13.4413333 171.566,13.4413333 171.558667,13.4413333 C171.25,13.4413333 171,13.6913333 171,14 C171,14.154 171.062667,14.294 171.164,14.3946667 C171.265333,14.496 171.404667,14.5586667 171.558667,14.5586667 C171.582,14.5586667 171.605333,14.56 171.628667,14.56 C171.794,14.562 171.958667,14.568 172.122,14.578 C172.184,14.582 172.246,14.5873333 172.308,14.5926667 C172.454,14.6046667 172.598667,14.6206667 172.742667,14.64 C172.786667,14.6453333 172.831333,14.65 172.874667,14.6566667 C173.057333,14.684 173.238,14.7173333 173.416667,14.7553333 C173.459333,14.7646667 173.500667,14.7753333 173.543333,14.7846667 C173.697333,14.82 173.85,14.8593333 174.001333,14.9026667 C174.035333,14.9126667 174.069333,14.9213333 174.102667,14.9313333 C174.478,15.044 174.842667,15.1806667 175.195333,15.34 C175.214,15.3486667 175.233333,15.3573333 175.252,15.366 C175.611333,15.5313333 175.958667,15.7193333 176.290667,15.9286667 C176.294667,15.932 176.299333,15.9346667 176.304,15.938 C176.454667,16.0333333 176.602667,16.1333333 176.747333,16.238 C176.75,16.24 176.752667,16.242 176.755333,16.244 C177.194667,16.562 177.604,16.9193333 177.978,17.3106667 C177.988,17.3206667 177.997333,17.3313333 178.007333,17.342 C178.373333,17.728 178.704667,18.1473333 178.997333,18.5946667 C179.011333,18.616 179.025333,18.638 179.039333,18.66 C179.121333,18.788 179.2,18.918 179.276,19.05 C179.289333,19.0733333 179.302667,19.096 179.315333,19.1193333 C179.486,19.4233333 179.639333,19.7393333 179.773333,20.064 C179.786667,20.0953333 179.798,20.1273333 179.810667,20.1586667 C179.862,20.2873333 179.910667,20.418 179.956667,20.55 C179.971333,20.5926667 179.985333,20.6346667 179.999333,20.6773333 C180.044667,20.814 180.086,20.952 180.124,21.0913333 C180.132,21.1206667 180.141333,21.1493333 180.149333,21.1786667 C180.194,21.348 180.234,21.5193333 180.268667,21.6926667 C180.274,21.7213333 180.278667,21.7506667 180.284,21.78 C180.311333,21.9213333 180.334667,22.0646667 180.354667,22.2086667 C180.362,22.2606667 180.368667,22.3126667 180.374667,22.3646667 C180.390667,22.4946667 180.403333,22.6253333 180.413333,22.7566667 C180.417333,22.8053333 180.421333,22.854 180.424667,22.9033333 C180.435333,23.0813333 180.442,23.2606667 180.442,23.4413333 C180.442,23.5186667 180.458,23.592 180.486,23.6586667 C180.570667,23.8593333 180.769333,24 181.000667,24 C181.308667,24 181.558667,23.75 181.558667,23.442 C181.558667,23.434 181.559333,23.4273333 181.559333,23.4193333 C181.56,23.24 181.567333,23.062 181.578,22.8846667 C181.581333,22.8273333 181.586667,22.77 181.591333,22.7126667 C181.602667,22.5753333 181.616667,22.4393333 181.634,22.3033333 C181.640667,22.2526667 181.646667,22.2013333 181.654,22.1506667 C181.68,21.9733333 181.71,21.7973333 181.746667,21.624 C181.754667,21.584 181.765333,21.5446667 181.774,21.5046667 C181.805333,21.366 181.839333,21.2293333 181.876,21.0933333 C181.891333,21.0373333 181.907333,20.982 181.924,20.9266667 C181.964,20.7893333 182.008,20.654 182.055333,20.5193333 C182.067333,20.484 182.078,20.4486667 182.091333,20.4133333 C182.150667,20.2493333 182.216,20.088 182.284667,19.9286667 C182.304667,19.8813333 182.326667,19.8353333 182.348,19.7886667 C182.402,19.67 182.458,19.5526667 182.516667,19.4366667 C182.542,19.3873333 182.566667,19.3373333 182.592667,19.2886667 C182.673333,19.1373333 182.756667,18.9873333 182.845333,18.8413333 C184.404667,16.276 187.226667,14.5586667 190.442,14.5586667 C190.750667,14.5586667 191,14.3086667 191,14 C191,13.692 190.75,13.442 190.442,13.442" id="Fill-7-Copy-2" fill="#D7CDF5" mask="url(#mask-2)"></path>
                <path d="M29.2467,36.7467 C24.9105,36.7467 21.1044,34.4328 18.9984,30.9759 C18.8733,30.7716 18.7572,30.5619 18.6447,30.3495 C18.6141,30.2919 18.5844,30.2334 18.5547,30.1749 C18.4701,30.0093 18.39,29.841 18.3135,29.6709 C18.2874,29.6151 18.2613,29.5593 18.237,29.5026 C18.1425,29.2839 18.0525,29.0625 17.9706,28.8366 C17.9562,28.797 17.9436,28.7556 17.9301,28.7151 C17.8635,28.5261 17.8014,28.3353 17.7447,28.1418 C17.724,28.0716 17.7042,28.0014 17.6853,27.9312 C17.6331,27.7413 17.5854,27.5496 17.5422,27.357 C17.5314,27.3075 17.5188,27.2598 17.508,27.2103 C17.4594,26.9745 17.4171,26.736 17.382,26.4948 C17.373,26.4282 17.3649,26.3607 17.3568,26.2932 C17.3325,26.1087 17.3136,25.9233 17.2983,25.7361 C17.292,25.6596 17.2848,25.5831 17.2803,25.5057 C17.2659,25.2672 17.256,25.0269 17.2551,24.7839 C17.2551,24.774 17.2542,24.7641 17.2542,24.7542 C17.2542,24.5463 17.1696,24.3573 17.0337,24.2214 C16.8969,24.0846 16.7088,24 16.5009,24 C16.0842,24 15.7467,24.3375 15.7467,24.7542 C15.7467,24.9981 15.7377,25.2402 15.7233,25.4814 C15.7188,25.5462 15.7134,25.6101 15.708,25.6749 C15.6945,25.8549 15.6774,26.034 15.6558,26.2122 C15.6468,26.2797 15.6387,26.3472 15.6297,26.4147 C15.6018,26.6145 15.5694,26.8134 15.5316,27.0096 C15.5253,27.0438 15.5199,27.078 15.5136,27.1113 C15.4659,27.348 15.411,27.5829 15.3498,27.8142 C15.3417,27.8457 15.3318,27.8763 15.3237,27.9078 C15.2697,28.1058 15.2103,28.3011 15.1464,28.4955 C15.1302,28.5459 15.1131,28.5954 15.0951,28.6458 C15.0303,28.8339 14.961,29.0202 14.8872,29.2047 C14.8737,29.238 14.862,29.2713 14.8476,29.3046 C14.664,29.751 14.4543,30.1839 14.2194,30.6015 C14.2086,30.6213 14.1969,30.6411 14.1852,30.6609 C14.0754,30.8535 13.9611,31.0434 13.8414,31.2288 C13.8297,31.2468 13.818,31.2657 13.8063,31.2837 C13.404,31.8993 12.9477,32.4762 12.4437,33.0072 C12.4419,33.009 12.441,33.0099 12.4392,33.0117 C11.7579,33.7272 10.9884,34.3599 10.1496,34.8909 C9.6951,35.1789 9.2208,35.4363 8.7285,35.6622 C8.7105,35.6703 8.6916,35.6784 8.6736,35.6865 C8.1912,35.9043 7.6926,36.0915 7.1787,36.2454 C7.1436,36.2562 7.1076,36.2652 7.0716,36.276 C6.8538,36.339 6.6342,36.3948 6.411,36.4461 C6.3669,36.456 6.3219,36.4677 6.2778,36.4767 C6.0276,36.5307 5.7747,36.5775 5.5191,36.6153 C5.475,36.6216 5.43,36.6261 5.3868,36.6324 C5.1762,36.6612 4.9638,36.6837 4.7496,36.7017 C4.6767,36.708 4.6029,36.7134 4.5291,36.7188 C4.2825,36.7341 4.0341,36.7449 3.783,36.7458 C3.7731,36.7458 3.7641,36.7458 3.7542,36.7458 C3.3375,36.7458 3,37.0833 3,37.5 C3,37.7079 3.0846,37.8969 3.2214,38.0328 C3.3582,38.1696 3.5463,38.2542 3.7542,38.2542 C3.7857,38.2542 3.8172,38.256 3.8487,38.256 C4.0719,38.2587 4.2942,38.2668 4.5147,38.2803 C4.5984,38.2857 4.6821,38.2929 4.7658,38.3001 C4.9629,38.3163 5.1582,38.3379 5.3526,38.364 C5.412,38.3712 5.4723,38.3775 5.5308,38.3865 C5.7774,38.4234 6.0213,38.4684 6.2625,38.5197 C6.3201,38.5323 6.3759,38.5467 6.4335,38.5593 C6.6414,38.607 6.8475,38.6601 7.0518,38.7186 C7.0977,38.7321 7.1436,38.7438 7.1886,38.7573 C7.6953,38.9094 8.1876,39.0939 8.6637,39.309 C8.6889,39.3207 8.715,39.3324 8.7402,39.3441 C9.2253,39.5673 9.6942,39.8211 10.1424,40.1037 C10.1478,40.1082 10.1541,40.1118 10.1604,40.1163 C10.3638,40.245 10.5636,40.38 10.7589,40.5213 C10.7625,40.524 10.7661,40.5267 10.7697,40.5294 C11.3628,40.9587 11.9154,41.4411 12.4203,41.9694 C12.4338,41.9829 12.4464,41.9973 12.4599,42.0117 C12.954,42.5328 13.4013,43.0989 13.7964,43.7028 C13.8153,43.7316 13.8342,43.7613 13.8531,43.791 C13.9638,43.9638 14.07,44.1393 14.1726,44.3175 C14.1906,44.349 14.2086,44.3796 14.2257,44.4111 C14.4561,44.8215 14.6631,45.2481 14.844,45.6864 C14.862,45.7287 14.8773,45.7719 14.8944,45.8142 C14.9637,45.9879 15.0294,46.1643 15.0915,46.3425 C15.1113,46.4001 15.1302,46.4568 15.1491,46.5144 C15.2103,46.6989 15.2661,46.8852 15.3174,47.0733 C15.3282,47.1129 15.3408,47.1516 15.3516,47.1912 C15.4119,47.4198 15.4659,47.6511 15.5127,47.8851 C15.5199,47.9238 15.5262,47.9634 15.5334,48.003 C15.5703,48.1938 15.6018,48.3873 15.6288,48.5817 C15.6387,48.6519 15.6477,48.7221 15.6558,48.7923 C15.6774,48.9678 15.6945,49.1442 15.708,49.3215 C15.7134,49.3872 15.7188,49.4529 15.7233,49.5195 C15.7377,49.7598 15.7467,50.0019 15.7467,50.2458 C15.7467,50.3502 15.7683,50.4492 15.8061,50.5392 C15.9204,50.8101 16.1886,51 16.5009,51 C16.9167,51 17.2542,50.6625 17.2542,50.2467 C17.2542,50.2359 17.2551,50.2269 17.2551,50.2161 C17.256,49.974 17.2659,49.7337 17.2803,49.4943 C17.2848,49.4169 17.292,49.3395 17.2983,49.2621 C17.3136,49.0767 17.3325,48.8931 17.3559,48.7095 C17.3649,48.6411 17.373,48.5718 17.3829,48.5034 C17.418,48.264 17.4585,48.0264 17.508,47.7924 C17.5188,47.7384 17.5332,47.6853 17.5449,47.6313 C17.5872,47.4441 17.6331,47.2596 17.6826,47.076 C17.7033,47.0004 17.7249,46.9257 17.7474,46.851 C17.8014,46.6656 17.8608,46.4829 17.9247,46.3011 C17.9409,46.2534 17.9553,46.2057 17.9733,46.158 C18.0534,45.9366 18.1416,45.7188 18.2343,45.5037 C18.2613,45.4398 18.291,45.3777 18.3198,45.3147 C18.3927,45.1545 18.4683,44.9961 18.5475,44.8395 C18.5817,44.7729 18.615,44.7054 18.6501,44.6397 C18.759,44.4354 18.8715,44.2329 18.9912,44.0358 C21.0963,40.5726 24.906,38.2542 29.2467,38.2542 C29.6634,38.2542 30,37.9167 30,37.5 C30,37.0842 29.6625,36.7467 29.2467,36.7467" id="Fill-7" fill="#8B7FBF" mask="url(#mask-2)"></path>
            </g>
        </g>
    </g>
</svg>