<?xml version="1.0" encoding="UTF-8"?>
<svg width="75px" height="82px" viewBox="0 0 75 82" version="1.1" xmlns="http://www.w3.org/2000/svg" xmlns:xlink="http://www.w3.org/1999/xlink">
    <title>Group 17</title>
    <defs>
        <path d="M73.0533592,27.5487072 L73.0533592,27.5448935 C70.9589201,20.4209512 67.7186827,13.8156684 61.2639241,8.93416613 C55.2491977,4.39080959 48.582995,0.861890244 40.5166898,0 C27.0528462,0.0177971437 13.5890027,0.0381367365 0.12515915,0.0584763292 L0.12515915,18.1276621 C0.213737068,26.2762114 -0.826339131,34.4298457 1.87100134,42.5860224 C5.23410487,52.7479372 20.2117736,64.6717692 32.141219,64.8782161 L32.1406476,64.8787246 L32.1860795,64.8787246 C41.0615868,65.0330512 49.9419517,65.0094064 58.8231738,64.9730494 L66.3180086,65 L74,65 L74,35.2266492 C74,30.4704897 73.077361,27.622184 73.0533592,27.5487072" id="path-1"></path>
    </defs>
    <g id="Page-1" stroke="none" stroke-width="1" fill="none" fill-rule="evenodd">
        <g id="LL21---Help-Center---after-login-" transform="translate(-263.000000, -52.000000)">
            <g id="Group" transform="translate(0.000000, 36.000000)">
                <g id="Group-17" transform="translate(263.901060, 16.524170)">
                    <mask id="mask-2" fill="white">
                        <use xlink:href="#path-1"></use>
                    </mask>
                    <use id="Mask" fill="#E4CBF6" transform="translate(37.000000, 32.500000) rotate(-180.000000) translate(-37.000000, -32.500000) " xlink:href="#path-1"></use>
                    <g id="Group-16" transform="translate(30.376717, 52.475830)">
                        <path d="M0.396532014,12.2909302 L0.396532014,12.2891486 C1.27396753,9.1107823 2.63132712,6.16387493 5.3354124,3.98602293 C7.85508372,1.95886422 10.6475982,0.384527689 14.0267953,0 C19.6670924,0.00786871333 25.3072496,0.016925157 30.9475467,0.0259816006 L30.9475467,8.08770111 C30.910468,11.7231951 31.3461775,15.3609161 30.2161872,18.9998249 C28.8073372,23.5336884 22.5329247,28.8535325 17.535418,28.9457301 L17.5356978,28.9458785 L17.5166688,28.9458785 C13.7985865,29.0147669 10.0784054,29.0042258 6.35780458,28.9878945 L3.2180098,29 L0,29 L0,15.7164929 C0,13.5946127 0.386457806,12.3237413 0.396532014,12.2909302" id="Fill-6" fill="#FFD3CD" transform="translate(15.500000, 14.500000) scale(-1, 1) translate(-15.500000, -14.500000) "></path>
                        <path d="M12.5001011,20 C8.35785272,20 5,16.642102 5,12.5 C5,8.357898 8.35785272,5 12.5001011,5 C16.6421473,5 20,8.357898 20,12.5 C20,16.642102 16.6421473,20 12.5001011,20 Z" id="Fill-14" fill="#FFFFFF" transform="translate(12.500000, 12.500000) scale(-1, 1) translate(-12.500000, -12.500000) "></path>
                    </g>
                </g>
            </g>
        </g>
    </g>
</svg>