<?xml version="1.0" encoding="UTF-8"?>
<svg width="297px" height="331px" viewBox="0 0 297 331" version="1.1" xmlns="http://www.w3.org/2000/svg" xmlns:xlink="http://www.w3.org/1999/xlink">
    <title>Group 23</title>
    <g id="Page-1" stroke="none" stroke-width="1" fill="none" fill-rule="evenodd">
        <g id="LL21---Help-Center---after-login--without-order" transform="translate(-1162.000000, -409.000000)">
            <g id="Group-23" transform="translate(1162.604242, 409.748965)">
                <path d="M292.213437,111.476164 L292.213437,111.460732 C283.83568,82.6336163 270.874731,55.9052628 245.055696,36.1522071 C220.996791,17.7674621 194.33198,3.48764889 162.066759,0 C108.211385,0.0720163489 54.3560108,0.154320748 0.500636601,0.236625146 L0.500636601,73.3537953 C0.854948273,106.326995 -3.30535652,139.320771 7.48400537,172.324835 C20.9364195,213.445141 80.8470944,261.695066 128.564876,262.530456 L128.56259,262.532513 L128.744318,262.532513 C164.246347,263.156998 199.767807,263.061319 235.292695,262.9142 L265.272034,263.023256 L296,263.023256 L296,142.545046 C296,123.299191 292.309444,111.773489 292.213437,111.476164" id="Mask" fill="#E4CBF6" transform="translate(148.000000, 131.511628) rotate(-180.000000) translate(-148.000000, -131.511628) "></path>
                <path d="M123.092997,262.07945 L123.092997,262.072241 C126.602739,249.210945 132.032178,237.28625 142.848519,228.473546 C152.927204,220.270625 164.097262,213.900054 177.61405,212.344058 C200.175239,212.375899 222.735868,212.412546 245.297056,212.449193 L245.297056,245.071035 C245.148741,259.782104 246.891579,274.502184 242.371618,289.227071 C236.736218,307.573402 211.638568,329.100213 191.648541,329.473292 L191.649661,329.473892 L191.573544,329.473892 C176.701215,329.75265 161.820491,329.709995 146.938088,329.64391 L134.378908,329.692895 L121.506869,329.692895 L121.506869,275.941029 C121.506869,267.354817 123.0527,262.212221 123.092997,262.07945" id="Fill-6" fill="#FFD3CD" transform="translate(183.506869, 271.018477) scale(-1, 1) translate(-183.506869, -271.018477) "></path>
                <path d="M171.507274,293.274291 C154.93828,293.274291 141.506869,279.686517 141.506869,262.925454 C141.506869,246.16439 154.93828,232.576616 171.507274,232.576616 C188.075458,232.576616 201.506869,246.16439 201.506869,262.925454 C201.506869,279.686517 188.075458,293.274291 171.507274,293.274291 Z" id="Fill-14" fill="#FFFFFF" transform="translate(171.506869, 262.925454) scale(-1, 1) translate(-171.506869, -262.925454) "></path>
            </g>
        </g>
    </g>
</svg>