<?xml version="1.0" encoding="UTF-8"?>
<svg width="38px" height="40px" viewBox="0 0 38 40" version="1.1" xmlns="http://www.w3.org/2000/svg" xmlns:xlink="http://www.w3.org/1999/xlink">
    <title>Group 30</title>
    <defs>
        <polygon id="path-1" points="0 0 3.92963816 0 3.92963816 2.4629932 0 2.4629932"></polygon>
    </defs>
    <g id="Page-1" stroke="none" stroke-width="1" fill="none" fill-rule="evenodd">
        <g id="LL21---Help-Center---after-login--without-order" transform="translate(-459.000000, -478.000000)">
            <g id="Group-25" transform="translate(400.000000, 458.000000)">
                <g id="Group-30" transform="translate(59.000000, 20.000000)">
                    <path d="M26.7584566,18.9919707 C26.7472789,19.2166568 26.7291503,19.4429769 26.7042587,19.6709312 C26.7291503,19.4429769 26.7472789,19.2166568 26.7584566,18.9919707 C26.7696344,18.7671939 26.7740491,18.5440511 26.7716069,18.3225424 C26.7641864,17.657744 26.695617,17.0072892 26.567026,16.3710872 C26.695617,17.0072892 26.7641864,17.657744 26.7716069,18.3225424 C26.7740491,18.5440511 26.7696344,18.7671939 26.7584566,18.9919707 M20.201065,29.0139679 C20.2590777,28.9483395 20.3230179,28.8852721 20.3926332,28.8233252 C20.3230179,28.8852721 20.2590777,28.9483395 20.201065,29.0139679 M20.0031203,29.1751064 C19.9494894,29.2647085 19.9168842,29.3642966 19.9074378,29.4785007 C19.9168842,29.3642966 19.9494894,29.2647085 20.0031203,29.1751064 C20.0299358,29.13026 20.0619316,29.0879555 20.099006,29.0475574 C20.0619316,29.0879555 20.0299358,29.13026 20.0031203,29.1751064 M23.8224667,11.0364499 C24.2204508,11.4939016 24.5792659,11.9616118 24.8983482,12.4394895 C25.0897789,12.7261799 25.2669321,13.0165015 25.429526,13.3104544 C25.2669321,13.0165015 25.0897789,12.7261799 24.8983482,12.4394895 C24.5792659,11.9616118 24.2204508,11.4939016 23.8224667,11.0364499 C23.5942153,10.7740892 23.3559133,10.5251642 23.1078425,10.2892212 C23.3559133,10.5251642 23.5942153,10.7740892 23.8224667,11.0364499 M26.002315,14.5057843 C25.8786084,14.2022085 25.7402485,13.9020823 25.5873295,13.6056783 C25.7402485,13.9020823 25.8786084,14.2022085 26.002315,14.5057843 M26.421665,15.7397874 C26.3645289,15.5308975 26.3007047,15.3236416 26.2300968,15.1180198 C26.3007047,15.3236416 26.3645289,15.5308975 26.421665,15.7397874 M25.1906604,9.5474394 C23.3577919,8.33231899 21.3138612,7.71154997 19.0791575,7.71781394 C18.4037962,7.65481106 17.7396127,7.74940617 17.077026,7.85489514 C12.4423005,8.59295483 8.79704041,12.1152153 7.95730053,16.6647678 C7.1493092,21.0418339 9.36344215,25.6029157 13.413919,27.7900416 C14.1567225,28.1910268 14.7723439,28.5673193 14.6870549,29.4994714 C14.669302,29.6929284 14.7809855,29.7872511 15.0063251,29.785373 C16.6456965,29.7712735 18.2850679,29.7682776 19.9244393,29.7618321 C20.7826835,29.7683684 21.6409277,29.7770835 22.4991719,29.780624 C23.2288251,29.7837106 23.2586011,29.781895 23.2802991,29.0729764 C23.2951401,28.5862928 23.5089263,28.3042323 23.945328,28.0881705 C31.570711,24.3128999 32.2510506,14.2283537 25.1906604,9.5474394" id="Fill-1" fill="#FFFFFF"></path>
                    <path d="M18.9948172,31.342578 C18.9948172,31.3376758 18.9948172,31.3326828 18.9948172,31.3277805 C17.7769125,31.3277805 16.558914,31.3360417 15.3411972,31.3216981 C15.0562117,31.3183392 14.9559877,31.3895124 14.9728952,31.6742056 C14.9979747,32.0952536 14.997505,32.5198422 14.9730831,32.9409811 C14.9560816,33.2354787 15.0495426,33.3255347 15.3608287,33.320814 C16.5315802,33.303293 17.7028013,33.312916 18.8738345,33.3143685 C19.5120932,33.3150947 19.8648027,33.588077 19.869875,34.0793905 C19.8748533,34.57488 19.5230831,34.8603902 18.8903663,34.862115 C17.7193331,34.8652924 16.5482059,34.8694684 15.3772666,34.8586653 C15.0898388,34.8560326 14.9641596,34.8831765 15.0322594,35.2243362 C15.2454819,36.2913908 15.8414718,37.0633122 16.8244559,37.5738716 C17.7431914,38.0510231 18.7425195,37.9599685 19.7149834,37.9094936 C21.4080831,37.8215256 22.7169125,36.6584234 22.8697377,35.0395036 C22.9785094,33.8868413 22.8981987,32.7178383 22.9109732,31.5562794 C22.914073,31.2695891 22.7071438,31.3453923 22.5543186,31.3448476 C21.3677868,31.3406716 20.181349,31.342578 18.9948172,31.342578 L18.9948172,31.342578 Z M19.0791669,7.71776855 C18.4038056,7.65476567 17.7396221,7.74945156 17.0770354,7.85494053 C12.4423099,8.59290944 8.79704981,12.1152607 7.95730992,16.6647224 C7.14931859,21.0418793 9.36345154,25.6029611 13.4139284,27.7899963 C14.156638,28.1910722 14.7723533,28.5672739 14.6870643,29.499426 C14.6693114,29.692883 14.7809949,29.7872965 15.0063345,29.7853303 C16.645612,29.7712281 18.2850773,29.768323 19.9244487,29.7617867 C20.7826929,29.768323 21.6409371,29.7770381 22.4990874,29.7806694 C23.2287406,29.7836652 23.2586105,29.7819404 23.2803085,29.0730218 C23.2951495,28.5862474 23.5089357,28.3041869 23.9452435,28.0881252 C31.5706264,24.3128545 32.25106,14.2283991 25.1906698,9.54748479 C23.3578013,8.33236438 21.3138706,7.71150458 19.0791669,7.71776855 L19.0791669,7.71776855 Z M13.3772015,32.892231 C13.3772015,32.51494 13.3442319,32.13429 13.3840585,31.7609026 C13.4661539,30.9920678 13.2233432,30.2734355 13.0782203,29.5380992 C13.0423388,29.3566255 12.8974039,29.3076939 12.7648677,29.2339787 C9.44770732,27.3891018 7.3578446,24.6673592 6.49715818,21.0611251 C4.9375339,14.5267096 9.49392119,7.72557583 16.3127218,6.4169497 C23.4938128,5.03869359 30.1641091,9.40123459 31.5146438,16.3593309 C32.4875773,21.3721451 29.9373605,26.5886747 25.2468403,29.1748795 C25.0122016,29.3042442 24.8767536,29.4486787 24.7901495,29.7348244 C24.2869631,31.3977736 24.5961828,33.0920427 24.5323099,34.7693356 C24.4542536,36.8194711 23.1559443,38.6890408 21.1086322,39.2060457 C18.9728374,39.745383 16.8264284,39.7757951 15.0130975,38.2277762 C13.9660527,37.3339341 13.4422015,36.1817258 13.3868764,34.8389656 C13.3602001,34.1910527 13.3822738,33.5412333 13.3822738,32.892231 L13.3772015,32.892231 Z" id="Fill-3" fill="#A179C5"></path>
                    <path d="M18.6264588,8.15122656 C18.1527666,8.15122656 17.6729689,8.22013029 17.1532507,8.30283292 C12.731466,9.00694004 9.22165385,12.3993819 8.41958015,16.7444019 C7.6458735,20.9362723 9.79387929,25.3153357 13.6429689,27.3937953 C14.2908085,27.7434885 15.1644573,28.2151931 15.1647391,29.3300899 C16.3553099,29.3203762 17.561849,29.316291 18.73044,29.3122058 L19.9225137,29.3078482 L20.7040166,29.314203 C21.3030123,29.319196 21.9021019,29.3242798 22.5010975,29.3267309 C22.6039516,29.3272756 22.7150715,29.3276388 22.798388,29.3247337 C22.8053388,29.2379459 22.8087203,29.1258298 22.8107868,29.0595588 C22.8304183,28.4223582 23.1228244,27.9853324 23.7312131,27.6842077 C27.1680412,25.9825852 29.3646091,22.7801506 29.607138,19.1174499 C29.8491972,15.4635552 28.0987998,12.0259037 24.9250715,9.92175277 C23.1732651,8.76037545 21.2176293,8.17165257 19.1121741,8.17165257 C19.1015599,8.17165257 19.0910397,8.17165257 19.0805195,8.17174335 L19.0572247,8.17174335 L19.0340238,8.16965536 C18.8982001,8.15694584 18.7624703,8.15122656 18.6264588,8.15122656 L18.6264588,8.15122656 Z M14.9998909,30.2392741 C14.6826871,30.2392741 14.4979255,30.1160826 14.398453,30.0120461 C14.3028316,29.9119133 14.1940599,29.7347971 14.2192333,29.4594546 C14.2756857,28.8428615 13.9473981,28.5980218 13.1848692,28.1863243 C8.99180559,25.922215 6.65199344,21.1516078 7.49492697,16.5849883 C8.3666972,11.861951 12.1867622,8.17364978 17.0006134,7.40708446 C17.7008663,7.29560386 18.3884386,7.20082719 19.1007146,7.26383007 L19.112362,7.26383007 C21.4111264,7.26383007 23.5451365,7.90611449 25.4563432,9.17316234 C28.9057579,11.460058 30.8079472,15.1991973 30.5445657,19.1754598 C30.2806207,23.1604374 27.8936553,26.6432984 24.159349,28.4921697 C23.8584891,28.6411434 23.7589227,28.7854872 23.7497175,29.0864303 C23.7374125,29.4879602 23.7277377,29.8051534 23.4702738,30.0302934 C23.2334747,30.23764 22.940599,30.236823 22.4970585,30.2345534 C21.8965599,30.2320115 21.2962492,30.2270185 20.6958446,30.2220255 L19.920729,30.2156707 L18.7339154,30.2200283 C17.5132868,30.2242043 16.2512348,30.2285618 15.010505,30.2392741 C15.0069357,30.2392741 15.0034602,30.2392741 14.9998909,30.2392741 L14.9998909,30.2392741 Z M15.5331351,35.3140018 C15.7448547,36.1461119 16.241466,36.7557148 17.0468273,37.1740394 C17.789255,37.5596824 18.6197897,37.5142912 19.4990744,37.466449 L19.6897536,37.4561906 C21.1573258,37.3800243 22.2725643,36.3692547 22.4019068,34.9982612 C22.4725426,34.2496708 22.4605195,33.4688526 22.448966,32.7138167 C22.4443634,32.4138721 22.4396669,32.1059387 22.4399487,31.7983685 C21.5715599,31.795645 20.7031712,31.7960081 19.8348764,31.7962805 L18.5252016,31.796462 L18.5252016,31.7820277 C18.3565961,31.7823 18.1878966,31.7825723 18.0192912,31.7829355 C17.1769212,31.7844788 16.3074992,31.7860221 15.4486914,31.7768531 C15.4657868,32.1356245 15.4653172,32.5009323 15.4473764,32.8656954 C16.3215888,32.8536213 17.2066033,32.856254 18.0631568,32.8585236 C18.3335831,32.8592498 18.6040094,32.8600669 18.8744357,32.86043 C19.9454328,32.8617009 20.3334602,33.4886432 20.3394718,34.0749149 C20.3429472,34.4160746 20.2266611,34.7120248 20.0032001,34.9307192 C19.824544,35.1056566 19.4866755,35.314365 18.891625,35.3159991 L18.6685397,35.3166345 C17.6414082,35.3195396 16.5808374,35.3224446 15.5331351,35.3140018 L15.5331351,35.3140018 Z M18.6633735,38.4046835 C17.9846307,38.4046835 17.2759241,38.3237058 16.6020657,37.9736494 C15.4923692,37.3972729 14.8089299,36.5011613 14.5710975,35.3103706 C14.5476148,35.1928075 14.4852449,34.8805166 14.6945224,34.6378557 C14.8992911,34.4002785 15.201466,34.4032743 15.3817189,34.4047268 C16.4755411,34.4148945 17.5889949,34.4118079 18.6658157,34.408812 L18.8890888,34.4081766 C19.0980845,34.4076319 19.2605845,34.3655997 19.3348836,34.2928831 C19.3514154,34.2767239 19.4016683,34.2275199 19.4001654,34.0839024 C19.3990383,33.966067 19.3969718,33.768888 18.8732146,33.7682525 C18.6023186,33.7678894 18.3313287,33.7670723 18.0604328,33.7663461 C17.1774848,33.7638949 16.2640094,33.761353 15.3680989,33.774698 C15.1790166,33.7768768 14.9042695,33.7579033 14.70307,33.5555497 C14.5032796,33.3545578 14.4938865,33.0941035 14.504125,32.9158072 C14.5277955,32.5079225 14.5277015,32.0990393 14.5039371,31.7002328 C14.4982073,31.6017341 14.4803605,31.3022435 14.6971524,31.0830951 C14.9151654,30.8626758 15.2288937,30.866761 15.3470585,30.8677596 C16.236018,30.8781996 17.1417911,30.8765655 18.0176004,30.875113 C18.3432579,30.8744775 18.6691033,30.873842 18.9948547,30.873842 L19.4645079,30.873842 L19.4645079,30.8885488 L19.8345007,30.888458 C20.7418706,30.8881856 21.6489588,30.8877317 22.5560469,30.8909999 C22.5696669,30.8909091 22.5843201,30.889275 22.5990672,30.8881856 C22.719768,30.8787443 22.9709386,30.8591353 23.1757073,31.0435141 C23.3139732,31.1682489 23.3830123,31.3422784 23.3805701,31.5610637 C23.3764371,31.9383547 23.3824487,32.3257225 23.3880845,32.7002901 C23.4001076,33.4790202 23.4125065,34.2842588 23.337362,35.0806915 C23.1645296,36.9121326 21.6853099,38.2617015 19.7401943,38.3627421 L19.5520513,38.372819 C19.2657507,38.3884335 18.9675209,38.4046835 18.6633735,38.4046835 L18.6633735,38.4046835 Z M13.8379689,32.4383833 L13.8519646,32.4383833 L13.8519646,32.8922946 C13.8519646,33.0961007 13.8497102,33.3000884 13.8476437,33.5040761 C13.8430411,33.9378337 13.8382507,34.386298 13.8561914,34.8208727 C13.9075715,36.0682208 14.4014588,37.099961 15.3240455,37.8875878 C16.7486914,39.1038884 18.548966,39.3832254 20.9899414,38.7669047 C22.7535831,38.321527 23.9885831,36.7083264 24.0629761,34.7526044 C24.0825137,34.2402294 24.0656062,33.7096979 24.0492623,33.1965059 C24.0120657,32.0264135 23.9735542,30.8163769 24.339414,29.6073389 C24.4552305,29.2246917 24.6569935,28.9774916 25.0141178,28.7805849 C27.2311626,27.5581112 28.9829689,25.7263069 30.0799848,23.4830775 C31.1756857,21.2425716 31.5121452,18.8081548 31.0531062,16.4430049 C30.4229256,13.1966316 28.5694863,10.4241417 25.8343201,8.63618534 C23.1011264,6.84968145 19.7521235,6.21947107 16.4041539,6.86211862 C13.2748547,7.46273398 10.4493273,9.34764582 8.65215241,12.0336202 C6.85920443,14.7133307 6.24057726,17.9665126 6.95473188,20.9590587 C7.78019431,24.4173177 9.81388651,27.0689764 12.9991683,28.8405012 C13.0142911,28.848944 13.0296958,28.8569328 13.0449125,28.8649216 C13.1819573,28.9365488 13.4669429,29.0856133 13.5395513,29.453009 C13.5718634,29.6169618 13.608966,29.7784634 13.6481351,29.9494972 C13.7829255,30.5366768 13.9221307,31.1437377 13.851307,31.8075375 C13.8298909,32.0086201 13.8323331,32.2181456 13.8379689,32.4383833 L13.8379689,32.4383833 Z M18.6980339,40 C17.3994429,40 15.9888865,39.666466 14.7021307,38.5680008 C13.5799414,37.6100665 12.9796307,36.3614474 12.9176365,34.857004 C12.8987565,34.3997338 12.9036409,33.9396494 12.9083374,33.4947256 C12.9093706,33.4004936 12.9104039,33.3062616 12.9111553,33.2121204 L12.9075859,32.8922946 C12.9075859,32.7786352 12.9044862,32.6646127 12.9013865,32.5507717 C12.8940599,32.2802406 12.8864515,32.0005405 12.916979,31.7143041 C12.9722102,31.1968453 12.8550787,30.6863767 12.7310903,30.14595 C12.696242,29.9939805 12.6602666,29.8373811 12.6281423,29.6792384 C12.6179978,29.6738823 12.6072897,29.6682538 12.5979906,29.6633515 C12.5755411,29.6516406 12.5529978,29.6397481 12.5306423,29.627311 C9.10997033,27.7249689 6.92598911,24.8772205 6.03947177,21.1632279 C5.26848911,17.9326508 5.93323622,14.4253694 7.86341686,11.5405818 C9.79782437,8.64962111 12.8440888,6.61982079 16.2212709,5.97172632 C19.8168417,5.28159965 23.4179545,5.96074166 26.3605195,7.88423596 C29.305151,9.80900122 31.2994863,12.7891101 31.9762565,16.2756024 C32.4720224,18.8299426 32.1100137,21.4564546 30.9292117,23.8709901 C29.7494429,26.2835284 27.8650065,28.2538663 25.4795441,29.5691195 C25.3444718,29.643561 25.2911192,29.6963963 25.2409602,29.8622554 C24.9169935,30.9327597 24.9515599,32.0187878 24.9881929,33.1686357 C25.0049125,33.6968069 25.0223836,34.2429529 25.0017189,34.7860123 C24.9118273,37.1450798 23.3951293,39.097806 21.2273042,39.645223 C20.4998114,39.8289662 19.6275715,40 18.6980339,40 L18.6980339,40 Z" id="Fill-5" fill="#A179C5"></path>
                    <path d="M1.96690239,19.1344353 C1.70258159,19.1344353 1.43544286,19.1584926 1.17469141,19.1289884 C0.749373491,19.0808738 0.443911063,18.7481568 0.471338809,18.3640571 C0.500269444,17.9610747 0.718470312,17.6742028 1.15186627,17.6257251 C1.69300066,17.5652641 2.24099199,17.5623591 2.78165673,17.6264514 C3.20800789,17.6770171 3.44001656,17.9428275 3.45260326,18.362877 C3.46481425,18.7690367 3.19513939,19.0788766 2.75911338,19.1288976 C2.49845586,19.1588557 2.2312232,19.1344353 1.96690239,19.1344353" id="Fill-7" fill="#A179C5"></path>
                    <path d="M1.96679907,18.6805059 L1.966893,18.6805059 C2.05349705,18.6805059 2.14038289,18.682957 2.22717479,18.6854081 C2.39747104,18.6902196 2.55846815,18.6949403 2.70359098,18.6782363 C2.89182797,18.6565394 2.9884826,18.552049 2.98312855,18.3760222 C2.97636555,18.1496113 2.88703751,18.0962313 2.72444358,18.0769855 C2.23450138,18.0188849 1.72351872,18.0187941 1.20577306,18.0766224 C1.08178462,18.0905121 0.959111208,18.1265526 0.939855428,18.3954496 C0.92980485,18.5367976 1.05416901,18.658355 1.22925572,18.6781456 C1.37522393,18.6946679 1.53659676,18.6901288 1.70726872,18.6853174 C1.79387277,18.6828662 1.88047682,18.6805059 1.96679907,18.6805059 M2.46068636,19.5977697 C2.37210977,19.5977697 2.28522393,19.5953186 2.19946526,19.5928675 C2.04410398,19.5884192 1.88958809,19.5884192 1.73460254,19.5927767 C1.53800572,19.5983144 1.3343641,19.6040337 1.12010832,19.5798856 C0.449067855,19.5039009 -0.0417197184,18.9561208 0.00280340308,18.3328099 C0.0489233454,17.6888914 0.468605427,17.2451478 1.09794069,17.1748823 C1.68923404,17.108702 2.27498549,17.1090652 2.83875717,17.1758809 C3.48763,17.2527735 3.90270948,17.7025995 3.92205919,18.3497862 C3.94150283,18.9967005 3.48603318,19.5025392 2.81442913,19.5796133 C2.69344647,19.5935938 2.57565745,19.5977697 2.46068636,19.5977697" id="Fill-9" fill="#A179C5"></path>
                    <path d="M6.50780052,5.63177403 C7.02188289,5.63231872 8.32169504,6.89991127 8.30666613,7.37760746 C8.297367,7.67137882 8.15224417,7.89533863 7.88689012,8.03695894 C7.6007774,8.18974547 7.29578463,8.19137955 7.05635544,7.98158177 C6.64183954,7.61845277 6.24301006,7.23517012 5.87048116,6.83200615 C5.65491035,6.59887733 5.67566902,6.30011295 5.8307485,6.02740307 C5.97859532,5.76758427 6.22572682,5.65528663 6.50780052,5.63177403" id="Fill-11" fill="#A179C5"></path>
                    <path d="M6.50830775,6.08832704 C6.34111122,6.1110226 6.27977451,6.18019867 6.24239012,6.2460158 C6.13427596,6.43611383 6.19927596,6.50656086 6.22069214,6.52971033 C6.56626295,6.90355164 6.95353896,7.27884546 7.37171816,7.64524261 C7.40318492,7.67284042 7.47645081,7.73747738 7.65989735,7.63961411 C7.77702885,7.57706514 7.82906642,7.50080806 7.83658087,7.37861515 C7.76143636,7.05597503 6.84899417,6.17184671 6.50830775,6.08832704 M7.48471671,8.60072579 C7.21325717,8.60072579 6.95513578,8.50558599 6.74097393,8.3178483 C6.29846671,7.93020809 5.88770804,7.53203715 5.52015746,7.1344109 C5.18867624,6.77573023 5.15101006,6.28014993 5.41927596,5.80862693 C5.63080775,5.43669205 5.99338,5.219087 6.46744792,5.17950594 L6.50840168,5.17787186 C7.03187711,5.17841655 7.65980342,5.72683212 7.98743347,6.05364822 C8.35489012,6.42022694 8.78997683,6.94985058 8.77616903,7.39141544 C8.76179764,7.84369261 8.52659533,8.21408419 8.11395804,8.43432193 C7.90543203,8.54562096 7.69117625,8.60072579 7.48471671,8.60072579" id="Fill-13" fill="#A179C5"></path>
                    <path d="M19.7628034,1.88444618 C19.7624277,2.12529148 19.7757659,2.36686305 19.7595159,2.60670975 C19.7303974,3.03738074 19.4426878,3.31907806 19.0295809,3.34431553 C18.61638,3.36964378 18.2364306,3.12371466 18.2002673,2.71301577 C18.1531141,2.17612954 18.1535838,1.62952962 18.2008309,1.0926434 C18.2361488,0.691295073 18.6438078,0.424213695 19.0339956,0.456532176 C19.439682,0.490121608 19.7332153,0.785345483 19.7605491,1.20730138 C19.7751084,1.43216901 19.7631792,1.65867072 19.7628034,1.88444618" id="Fill-15" fill="#A179C5"></path>
                    <path d="M18.9696156,0.907756268 C18.8996373,0.907756268 18.825432,0.931995129 18.7669133,0.974572004 C18.7257716,1.00443936 18.6754248,1.0559129 18.6688497,1.1310806 C18.6234812,1.64527126 18.6232933,2.16454573 18.6682861,2.67456041 C18.68463,2.86120871 18.8927803,2.89779396 18.9998612,2.89134842 C19.1795505,2.88036377 19.2775202,2.77460245 19.2908583,2.57715105 C19.3006271,2.43153632 19.2981849,2.28038388 19.2956488,2.12033477 C19.2943338,2.041445 19.2930188,1.96255522 19.2931127,1.88375623 L19.2931127,1.88375623 C19.2932066,1.81267373 19.2945216,1.74159123 19.2957427,1.67041795 C19.2983728,1.51808533 19.300815,1.37410468 19.2918916,1.23566175 C19.2793049,1.04256791 19.1707211,0.923370815 18.9938497,0.908754873 C18.9858656,0.908119397 18.9777875,0.907756268 18.9696156,0.907756268 M18.9674552,3.80016952 C18.3097529,3.80016952 17.7860896,3.36241751 17.7322673,2.75154375 C17.6829537,2.19041867 17.6831416,1.61939832 17.7328309,1.05418804 C17.7610101,0.734816083 17.9274552,0.449033562 18.2018266,0.249403395 C18.4505549,0.0682928076 18.7674768,-0.0210369259 19.0739725,0.00420053947 C19.7127008,0.0571265909 20.187802,0.54017894 20.2293193,1.17883206 C20.240591,1.35331555 20.2376792,1.52226131 20.2349552,1.68557858 C20.2337341,1.75212197 20.232513,1.81866536 20.232419,1.88520875 C20.2323251,1.95874237 20.2335462,2.03236677 20.2347673,2.10599118 C20.2375852,2.27702494 20.2404971,2.45395954 20.2280982,2.63634108 C20.1840448,3.29060875 19.7142037,3.75722951 19.0592254,3.79735527 C19.0283222,3.79926169 18.9977948,3.80016952 18.9674552,3.80016952" id="Fill-17" fill="#A179C5"></path>
                    <path d="M32.2863311,6.35541749 C32.2868945,6.84845589 30.9633179,8.12276632 30.4775087,8.10161406 C30.1798425,8.0886322 29.9358107,7.9556362 29.7914393,7.69572662 C29.6384263,7.4202025 29.6310058,7.12370767 29.8490188,6.89130511 C30.2250231,6.49068304 30.6203772,6.1037691 31.0385563,5.7447253 C31.2781734,5.53910351 31.5872991,5.55045129 31.8714393,5.70614284 C32.1376387,5.85193914 32.2574003,6.08770064 32.2863311,6.35541749" id="Fill-19" fill="#A179C5"></path>
                    <path d="M31.4587269,6.04422502 C31.3970144,6.04422502 31.365078,6.07164126 31.3505188,6.08416921 C30.9698179,6.41089452 30.5924985,6.774659 30.1969566,7.19625176 C30.1688714,7.22630069 30.1027442,7.29656615 30.2052225,7.48112646 C30.2446734,7.55211818 30.3114581,7.63418534 30.4797818,7.64698563 C30.8129537,7.56845899 31.719948,6.68941447 31.8129393,6.35860395 C31.7855116,6.20118753 31.7108367,6.13981873 31.6399191,6.10096393 C31.5615809,6.0581147 31.5025925,6.04422502 31.4587269,6.04422502 M30.4871084,8.55571595 C30.476776,8.55571595 30.4665376,8.55553439 30.4563931,8.55508047 C29.9800708,8.53429134 29.5969277,8.30533851 29.3775997,7.91034494 C29.11713,7.44136384 29.1633439,6.94641901 29.5011185,6.58637661 C29.9196734,6.14036342 30.3205694,5.75408495 30.7267254,5.40539033 C31.1044205,5.0812977 31.6188786,5.04607419 32.1029971,5.31124914 C32.4805043,5.5180511 32.7052803,5.8627513 32.7533728,6.30840137 L32.7560032,6.35497266 C32.7565665,6.89049715 32.0970795,7.55829138 31.8134089,7.82056129 C31.4483006,8.15845283 30.9254826,8.55571595 30.4871084,8.55571595" id="Fill-21" fill="#A179C5"></path>
                    <path d="M36.008323,19.1097879 C35.7747175,19.1102418 35.5403605,19.1219527 35.3076004,19.1077907 C34.8629328,19.0806468 34.5684603,18.8031255 34.5420657,18.4060439 C34.5141683,17.9860852 34.7898548,17.6176909 35.2316105,17.5865526 C35.7580918,17.5493318 36.291336,17.5520553 36.8184747,17.5856447 C37.2343996,17.6122439 37.5347897,17.9747375 37.5302811,18.3532994 C37.5253967,18.7565542 37.2036842,19.0781957 36.7556351,19.1065198 C36.5075643,19.1222251 36.257521,19.109334 36.008323,19.1097879" id="Fill-23" fill="#A179C5"></path>
                    <g id="Group-27" transform="translate(34.070362, 17.105708)">
                        <mask id="mask-2" fill="white">
                            <use xlink:href="#path-1"></use>
                        </mask>
                        <g id="Clip-26"></g>
                        <path d="M1.94390694,0.907802489 C1.68794596,0.907802489 1.43790261,0.91633602 1.1953737,0.933493865 C1.00469451,0.94702042 0.929925727,1.11287959 0.940352028,1.27120383 C0.951811565,1.44305463 1.06161648,1.53646957 1.26694885,1.54899752 C1.41038093,1.55789418 1.56001243,1.55535227 1.71790983,1.55271959 C1.79089394,1.55144864 1.86387804,1.55026847 1.93695608,1.55017769 L1.93714394,1.55017769 C2.01745463,1.5500869 2.1010529,1.55126707 2.18314827,1.55244724 C2.34827833,1.55498914 2.50439105,1.55734948 2.65458613,1.54781735 C2.85334336,1.5352894 2.98822775,1.41246101 2.99031315,1.2422443 C2.99198498,1.10434606 2.88020752,0.943298348 2.71714394,0.932858389 C2.45498353,0.916154456 2.19658035,0.907802489 1.94390694,0.907802489 M1.49914538,2.4629932 C1.40371185,2.4629932 1.30658758,2.46108678 1.20777255,2.45509515 C0.529029772,2.41360766 0.0449112745,1.96123971 0.00301821088,1.32939526 C-0.0429138701,0.636000434 0.440171391,0.0766002128 1.1269922,0.0281224916 C1.65234625,-0.00900744841 2.20803989,-0.00937057741 2.77904423,0.0270331046 C3.42115405,0.0680666814 3.9373029,0.617934766 3.92960059,1.2529566 C3.92171041,1.89433319 3.39992573,2.41052106 2.71592284,2.45373341 C2.52777978,2.46562589 2.34508469,2.46281164 2.16840116,2.46017895 C2.09184769,2.45899878 2.01566995,2.45818174 1.93892862,2.45800018 C1.87073498,2.45809096 1.80235347,2.45927113 1.7340659,2.4604513 C1.65685492,2.46172225 1.57851677,2.4629932 1.49914538,2.4629932" id="Fill-25" fill="#A179C5" mask="url(#mask-2)"></path>
                    </g>
                    <path d="M18.9948172,31.342578 C20.181349,31.342578 21.3677868,31.3406716 22.5543186,31.3448476 C22.7071438,31.3453923 22.914073,31.2695891 22.9109732,31.5562794 C22.8981987,32.7178383 22.9785094,33.8868413 22.8697377,35.0395036 C22.7169125,36.6584234 21.4080831,37.8215256 19.7149834,37.9094936 C18.7425195,37.9599685 17.7431914,38.0510231 16.8244559,37.5738716 C15.8414718,37.0633122 15.2454819,36.2913908 15.0322594,35.2243362 C14.9641596,34.8831765 15.0898388,34.8560326 15.3772666,34.8586653 C16.5482059,34.8694684 17.7193331,34.8652924 18.8903663,34.862115 C19.5230831,34.8603902 19.8748533,34.57488 19.869875,34.0793905 C19.8648027,33.588077 19.5120932,33.3150947 18.8738345,33.3143685 C17.7028013,33.312916 16.5315802,33.303293 15.3608287,33.320814 C15.0495426,33.3255347 14.9560816,33.2354787 14.9730831,32.9409811 C14.997505,32.5198422 14.9979747,32.0952536 14.9728952,31.6742056 C14.9559877,31.3895124 15.0562117,31.3183392 15.3411972,31.3216981 C16.558914,31.3360417 17.7769125,31.3277805 18.9948172,31.3277805 C18.9948172,31.3326828 18.9948172,31.3376758 18.9948172,31.342578" id="Fill-28" fill="#FFEBDE"></path>
                </g>
            </g>
        </g>
    </g>
</svg>