<?xml version="1.0" encoding="UTF-8"?>
<svg width="16px" height="16px" viewBox="0 0 16 16" version="1.1" xmlns="http://www.w3.org/2000/svg" xmlns:xlink="http://www.w3.org/1999/xlink">
    <title>icon_close_alt</title>
    <g id="Page-1" stroke="none" stroke-width="1" fill="none" fill-rule="evenodd">
        <g id="LL21---Search---Result" transform="translate(-316.000000, -164.000000)" fill="#D7CDF5" fill-rule="nonzero">
            <g id="Group-14" transform="translate(16.000000, 150.000000)">
                <g id="icon_close_alt" transform="translate(300.000000, 14.000000)">
                    <path d="M8,0 C3.58186667,0 0,3.58186667 0,8 C0,12.4181333 3.58186667,16 8,16 C12.4181333,16 16,12.4181333 16,8 C16,3.58186667 12.4181333,0 8,0 Z M11.7066667,5.04746667 L8.73386667,8.02026667 L11.3642667,10.9525333 C11.5722667,11.1605333 11.5722667,11.4986667 11.3642667,11.7066667 C11.1562667,11.9146667 10.8181333,11.9146667 10.6101333,11.7066667 L7.97973333,8.7744 L5.04746667,11.7066667 C4.83946667,11.9146667 4.50133333,11.9146667 4.29333333,11.7066667 C4.08533333,11.4986667 4.08533333,11.1605333 4.29333333,10.9525333 L7.26613333,7.97973333 L4.63573333,5.04746667 C4.42773333,4.83946667 4.42773333,4.50133333 4.63573333,4.29333333 C4.84373333,4.08533333 5.18186667,4.08533333 5.38986667,4.29333333 L8.02026667,7.2256 L10.9525333,4.29333333 C11.1605333,4.08533333 11.4986667,4.08533333 11.7066667,4.29333333 C11.9146667,4.50133333 11.9146667,4.83946667 11.7066667,5.04746667 Z" id="Shape"></path>
                </g>
            </g>
        </g>
    </g>
</svg>