<?xml version="1.0" encoding="UTF-8"?>
<svg width="69px" height="49px" viewBox="0 0 69 49" version="1.1" xmlns="http://www.w3.org/2000/svg" xmlns:xlink="http://www.w3.org/1999/xlink">
    <title>Group 13</title>
    <defs>
        <polygon id="path-1" points="0 0.186401177 68.890072 0.186401177 68.890072 33.0675234 0 33.0675234"></polygon>
    </defs>
    <g id="Page-1" stroke="none" stroke-width="1" fill="none" fill-rule="evenodd">
        <g id="LL21---Related-Order" transform="translate(-146.000000, -669.000000)">
            <g id="Group-13" transform="translate(146.000000, 669.000000)">
                <g id="Group-12" transform="translate(0.000000, 0.245928)">
                    <g id="Group-3" transform="translate(0.000000, 13.341613)">
                        <mask id="mask-2" fill="white">
                            <use xlink:href="#path-1"></use>
                        </mask>
                        <g id="Clip-2"></g>
                        <path d="M52.9058961,32.0675234 L-2.24755702e-05,32.0675234 L-2.24755702e-05,15.2936824 C-2.24755702e-05,6.39783916 7.15642378,-0.813598823 15.9841534,-0.813598823 L68.890072,-0.813598823 L68.890072,15.9600157 C68.890072,24.8560854 61.7336257,32.0675234 52.9058961,32.0675234" id="Fill-1" fill="#E9D9FF" mask="url(#mask-2)"></path>
                    </g>
                    <path d="M16.0598736,1.13254003 L16.0598736,25.9272939 L16.0598736,29.1470741 L16.0598736,34.0800238 L21.5796489,29.1470741 L50.7996879,29.1470741 C52.5815511,29.1470741 54.026056,27.6914236 54.026056,25.8958118 L54.026056,1.13254003 L16.0598736,1.13254003 Z" id="Fill-4" fill="#FFEBDE"></path>
                    <path d="M17.1836072,2.26501211 L17.1836072,31.5621584 L20.8340893,28.3000246 C21.0397407,28.1161148 21.3049524,28.0146473 21.5798287,28.0146473 L50.799643,28.0146473 C51.9591577,28.0146473 52.9024573,27.0640692 52.9024573,25.8956079 L52.9024573,2.26501211 L17.1836072,2.26501211 Z M16.0596039,35.2124959 C15.9036235,35.2124959 15.7465192,35.1798813 15.5988547,35.1128403 C15.1954182,34.930063 14.9360502,34.5257786 14.9360502,34.0800465 L14.9360502,1.13256268 C14.9360502,0.507224101 15.4390534,0.000113244943 16.0598287,0.000113244943 L54.0262358,0.000113244943 C54.6470111,0.000113244943 55.1500143,0.507224101 55.1500143,1.13256268 L55.1500143,25.8956079 C55.1500143,28.3129345 53.1984606,30.2795462 50.799643,30.2795462 L22.0061902,30.2795462 L16.8053433,34.9273451 C16.595871,35.1148787 16.3293107,35.2124959 16.0596039,35.2124959 L16.0596039,35.2124959 Z" id="Fill-6" fill="#A179C5"></path>
                    <path d="M32.3408674,20.12075 C32.1107176,20.12075 31.880343,20.0496322 31.6841313,19.9073965 C31.290584,19.6215663 31.123141,19.113776 31.2690075,18.6476598 L32.1507241,15.832164 L29.791014,14.1047256 C29.3985906,13.81731 29.2336199,13.3086137 29.3815091,12.843177 C29.5293984,12.3775137 29.9571085,12.0602014 30.4421313,12.0561246 L33.3718218,12.0309842 C33.3718218,12.0309842 34.2784863,9.2186593 34.2814081,9.21050567 C34.4394114,8.75661994 34.8797078,8.44225197 35.3570889,8.44225197 C35.8425612,8.44225197 36.2731932,8.75639345 36.4246785,9.22115069 L37.3392094,12.0264544 L40.2527176,12.0264544 C40.7377404,12.0264544 41.1681476,12.3401429 41.3200824,12.8044472 C41.4720173,13.2687515 41.3110922,13.7788067 40.921141,14.0693932 L38.5657013,15.8249163 L39.4667469,18.620028 C39.616659,19.0847852 39.4537111,19.594161 39.0624114,19.8831621 C38.8648511,20.0292481 38.63133,20.1021778 38.3980336,20.1021778 C38.169457,20.1021778 37.9406557,20.0321924 37.745343,19.8915422 L35.3609098,18.1767873 L33.0014244,19.9044521 C32.8045384,20.0487262 32.5725906,20.12075 32.3408674,20.12075" id="Fill-8" fill="#FFFFFF"></path>
                    <path d="M35.3570664,7.30966665 C34.3802782,7.30966665 33.5169915,7.93704363 33.2088515,8.87108792 C33.2075029,8.87584421 33.2057049,8.88082699 33.2041313,8.88580977 L32.5530143,10.9054201 L30.4326691,10.9237658 C29.4626235,10.9321459 28.6072033,11.5667706 28.3114248,12.4978705 C28.0154215,13.4289704 28.3458124,14.4461365 29.1306593,15.0207413 L30.8354313,16.2691536 L30.1973498,18.3066566 C29.9056169,19.2391155 30.2402782,20.2549226 31.0275974,20.8263566 C31.4197961,21.1108279 31.8803205,21.2530635 32.340845,21.2530635 C32.804516,21.2530635 33.268187,21.109016 33.661959,20.8206943 L35.3667309,19.5722821 L37.09263,20.8134467 C37.4832554,21.0942941 37.940858,21.2347178 38.3982358,21.2347178 C38.8650534,21.2347178 39.3316463,21.0884054 39.7269915,20.7964599 C40.5093661,20.2184577 40.8354866,19.1997062 40.5356625,18.2697387 L39.8845453,16.2505814 L41.5893173,14.9797467 C42.3692195,14.3983471 42.6910697,13.3782367 42.3872,12.4498546 C42.083555,11.5212461 41.2229655,10.8940956 40.2526951,10.8940956 L38.1528026,10.8940956 L37.4922456,8.86769058 C37.1892749,7.93817608 36.3280111,7.30966665 35.3570664,7.30966665 M35.3570664,9.57456551 L36.43477,12.8806384 C36.4887114,13.0473349 36.6413205,13.1589945 36.8148319,13.1589945 L40.2526951,13.1589945 L37.4810078,15.2250352 C37.3405355,15.3276351 37.282099,15.5086005 37.3358156,15.6750706 L38.3982358,18.969819 L35.5919362,16.9517941 C35.5218124,16.9003809 35.439327,16.874561 35.3570664,16.874561 C35.2748059,16.874561 35.1923205,16.9003809 35.1221967,16.9517941 L32.340845,18.9881647 L33.3783173,15.6750706 C33.4320339,15.5086005 33.3735974,15.3276351 33.2329003,15.2248087 L30.4517733,13.1884381 L33.899301,13.1589945 C34.0728124,13.1589945 34.2254215,13.0473349 34.2793629,12.8808649 L35.3417831,9.58566352 C35.3435811,9.58000127 35.3453792,9.57456551 35.3570664,9.57456551" id="Fill-10" fill="#A179C5"></path>
                </g>
            </g>
        </g>
    </g>
</svg>