<?xml version="1.0" encoding="UTF-8"?>
<svg width="47px" height="47px" viewBox="0 0 47 47" version="1.1" xmlns="http://www.w3.org/2000/svg" xmlns:xlink="http://www.w3.org/1999/xlink">
    <title>Group 12</title>
    <g id="Page-1" stroke="none" stroke-width="1" fill="none" fill-rule="evenodd">
        <g id="LL21---Related-Order-details---Contact-us-sent" transform="translate(-157.000000, -270.000000)">
            <g id="Group-12" transform="translate(157.508976, 270.674897)">
                <path d="M44.1703782,23.0238646 C44.1703782,34.7209547 34.695129,44.2033072 23.0068014,44.2033072 C11.3184737,44.2033072 1.84285597,34.7209547 1.84285597,23.0238646 C1.84285597,11.3267745 11.3184737,1.84442196 23.0068014,1.84442196 C34.695129,1.84442196 44.1703782,11.3267745 44.1703782,23.0238646" id="Fill-4" fill="#FFEBDE"></path>
                <path d="M23.0065802,3.68877014 C12.3532833,3.68877014 3.68600683,12.3625442 3.68600683,23.0238277 C3.68600683,33.6851112 12.3532833,42.3592541 23.0065802,42.3592541 C33.6598771,42.3592541 42.3275222,33.6851112 42.3275222,23.0238277 C42.3275222,12.3625442 33.6598771,3.68877014 23.0065802,3.68877014 M23.0065802,46.0480243 C10.3208191,46.0480243 0,35.7194679 0,23.0238277 C0,10.3285564 10.3208191,0 23.0065802,0 C35.6927099,0 46.013529,10.3285564 46.013529,23.0238277 C46.013529,35.7194679 35.6927099,46.0480243 23.0065802,46.0480243" id="Fill-6" fill="#A179C5"></path>
                <path d="M22.4569966,30.4268943 C21.8064164,30.4268943 21.179058,30.1745824 20.7087235,29.7201259 L12.639686,21.9235413 C11.6393038,20.9574524 11.6116587,19.3624282 12.5773925,18.361296 C13.5420205,17.3605327 15.136587,17.3317603 16.1366007,18.2989558 L22.2623754,24.2175875 L40.4502389,2.49589565 C41.3426212,1.42984108 42.9309215,1.28929894 43.9961775,2.18308794 C45.0621706,3.07650807 45.2022389,4.66563025 44.3091195,5.7320537 L24.3862526,29.5257277 C23.9380341,30.0613372 23.2870853,30.3866867 22.5896928,30.4235744 C22.5454608,30.4257876 22.5012287,30.4268943 22.4569966,30.4268943" id="Fill-10" fill="#A179C5"></path>
            </g>
        </g>
    </g>
</svg>