<?xml version="1.0" encoding="UTF-8"?>
<svg width="64px" height="64px" viewBox="0 0 64 64" version="1.1" xmlns="http://www.w3.org/2000/svg" xmlns:xlink="http://www.w3.org/1999/xlink">
    <title>Group</title>
    <defs>
        <circle id="path-1" cx="26" cy="26" r="26"></circle>
        <filter x="-17.8%" y="-13.9%" width="135.6%" height="135.6%" filterUnits="objectBoundingBox" id="filter-2">
            <feMorphology radius="0.75" operator="dilate" in="SourceAlpha" result="shadowSpreadOuter1"></feMorphology>
            <feOffset dx="0" dy="2" in="shadowSpreadOuter1" result="shadowOffsetOuter1"></feOffset>
            <feGaussianBlur stdDeviation="2.5" in="shadowOffsetOuter1" result="shadowBlurOuter1"></feGaussianBlur>
            <feComposite in="shadowBlurOuter1" in2="SourceAlpha" operator="out" result="shadowBlurOuter1"></feComposite>
            <feColorMatrix values="0 0 0 0 0.784560178   0 0 0 0 0.68499106   0 0 0 0 0.874554178  0 0 0 0.527168221 0" type="matrix" in="shadowBlurOuter1"></feColorMatrix>
        </filter>
        <polygon id="path-3" points="0.138044282 0.0383994902 29.7735163 0.0383994902 29.7735163 28.0201005 0.138044282 28.0201005"></polygon>
    </defs>
    <g id="Page-1" stroke="none" stroke-width="1" fill="none" fill-rule="evenodd">
        <g id="LL21---Feedback---negative" transform="translate(-184.000000, -322.000000)">
            <g id="Group" transform="translate(190.000000, 326.000000)">
                <g id="Oval">
                    <use fill="black" fill-opacity="1" filter="url(#filter-2)" xlink:href="#path-1"></use>
                    <use stroke="#F497A1" stroke-width="1.5" fill="#F5EEF9" fill-rule="evenodd" xlink:href="#path-1"></use>
                </g>
                <g id="Group-17" transform="translate(11.136364, 14.913558)">
                    <mask id="mask-4" fill="white">
                        <use xlink:href="#path-3"></use>
                    </mask>
                    <g id="Clip-16"></g>
                    <path d="M27.7957636,10.0827035 C27.7957636,7.7209799 27.7691727,5.35863819 27.8115136,2.99753266 C27.8246045,2.26200503 27.5734227,2.05782915 26.8779682,2.08378894 C25.6220591,2.13096985 24.3630818,2.10521608 23.1055364,2.0951206 C22.2644455,2.08832161 21.8633318,2.46535678 21.8657752,3.33645226 C21.8782636,7.78629146 21.8782636,12.2361307 21.8659909,16.6859698 C21.8633318,17.5898241 22.2621955,18.0095075 23.1568773,18.0004422 C24.4144227,17.9876683 25.6744227,17.9524372 26.9289,18.0156884 C27.6912409,18.0540101 27.8192864,17.7410503 27.8092636,17.0652714 C27.7742864,14.7381608 27.7957636,12.4102261 27.7957636,10.0827035 M19.8641045,9.92900503 C19.8641045,8.14684422 19.8673773,6.36447739 19.8614455,4.58211055 C19.8602182,4.22114573 19.9704682,3.79466332 19.4652409,3.64570352 C17.4204,3.04244724 15.4790591,2.05638693 13.2660818,2.08935176 C10.6800136,2.12808543 8.09271818,2.10068342 5.50603636,2.0951206 C4.85783182,2.09367839 4.21842273,2.13838693 4.12412727,2.95735678 C4.03965,3.68896985 4.50601364,3.96690452 5.16567273,4.07877889 C5.73328636,4.17520101 6.09737727,4.55141206 6.02537727,5.15899497 C5.95562727,5.74844724 5.55615,6.0488392 4.9644,6.05811055 C4.38594545,6.06717588 3.80728636,6.06326131 3.22862727,6.06470352 C2.58492273,6.06635176 2.14494545,6.39455779 2.12694545,7.02686432 C2.10833182,7.67235678 2.54810455,7.99726633 3.19058182,8.01436683 C3.83653636,8.03146734 4.48392273,8.02817085 5.12762727,8.07432161 C5.68112727,8.11408543 6.00471818,8.43858291 5.99980909,9.01320101 C5.99469545,9.6220201 5.67417273,9.96361809 5.06319545,10.0062663 C4.89362727,10.0180101 4.72017273,9.99266834 4.55326364,10.0171859 C3.66246818,10.1486332 2.42128636,9.5291005 2.13246818,11.0040704 C1.98335455,11.7657638 2.62951364,12.0206231 4.50069545,12.0321608 C4.70483182,12.033603 4.91019545,12.0237136 5.11310455,12.0420503 C5.67130909,12.0925276 5.99121818,12.4304171 6.02803636,12.9689799 C6.06628636,13.5264975 5.75169545,13.8930251 5.20371818,13.9587487 C4.66596818,14.0232362 4.11860455,14.0310653 3.57615,14.0230302 C2.83324091,14.0119045 2.10444545,14.1194523 2.13512727,15.0426734 C2.16253636,15.873593 2.84612727,15.9908241 3.55876364,15.9869095 C6.41769545,15.9714573 9.27683182,15.9803166 12.1357636,15.9809347 C12.4080136,15.9811407 12.6835364,15.9609497 12.9516955,15.9953568 C13.5225818,16.0687035 13.9093773,16.3705377 13.9208318,16.987392 C13.9326955,17.6174322 13.5334227,17.9190603 12.9666273,17.9814874 C12.5291045,18.0294925 12.0797182,18.0323769 11.6413773,17.9926131 C11.1062864,17.9439899 10.8319909,18.1615578 10.6935136,18.6712764 C10.2058773,20.4670352 9.92278636,22.2877236 10.0387636,24.1520905 C10.0929682,25.023392 10.5728318,25.5982161 11.3920364,25.9025226 C11.90115,26.0916583 12.2241273,26.0533367 12.3415364,25.420206 C12.4470818,24.8515628 12.6111273,24.2866281 12.8132182,23.7441508 C14.0705591,20.3689648 15.8615591,17.4536382 19.4748545,16.1939698 C19.9600364,16.0248191 19.8575591,15.6937286 19.8591955,15.3787085 C19.8690136,13.5621407 19.8641045,11.7455729 19.8641045,9.92900503 M29.7702409,9.9889598 C29.7702409,12.7676884 29.7774,15.5464171 29.7673773,18.3249397 C29.7622636,19.7543769 29.5127182,19.9921357 28.0843773,19.9966683 C26.5515136,20.001407 25.0182409,19.9810101 23.4855818,20.0028492 C22.1850818,20.0211859 21.04065,19.7222362 20.3190136,18.5270553 C19.9581955,17.9295678 19.5534,18.2476784 19.1876727,18.443407 C17.2256727,19.4927186 16.0687636,21.2491256 15.1384909,23.1948744 C14.5880591,24.3463769 14.3133545,25.5864724 14.0413091,26.8220352 C13.8555818,27.6653166 13.3877864,28.0052663 12.5344227,28.0192764 C9.75915,28.064603 8.03380909,26.4046181 8.01315,23.6186784 C8.00046818,21.928201 8.24674091,20.2686281 8.66237727,18.6399598 C8.79983182,18.101191 8.68385455,17.9884925 8.17699091,17.9948794 C6.64433182,18.0142462 5.10819545,17.9396633 3.57880909,18.0150704 C0.793513636,18.1524925 -0.69435,15.4440201 0.650945455,13.3645578 C0.875331818,13.017809 0.722127273,12.8070402 0.569740909,12.5369347 C0.00110454545,11.5292412 -0.0164863636,10.4978543 0.580786364,9.51241206 C0.819490909,9.11868844 0.742377273,8.87680905 0.547240909,8.50760302 C-0.276463636,6.94877889 0.173331818,5.35513568 1.70844545,4.44221608 C2.12817273,4.19271357 2.23924091,4.00172362 2.16171818,3.49694975 C1.91155909,1.86313065 3.01794545,0.201909548 4.59376364,0.161527638 C8.12933182,0.0708743719 11.6755364,-0.111668342 15.2059909,0.275256281 C16.6691045,0.435341709 18.0125591,1.0810402 19.4012182,1.53574874 C19.8434455,1.68058794 20.1615136,1.77618593 20.50965,1.27161809 C21.0868773,0.434723618 21.9574227,0.077879397 22.9873091,0.0892110553 C24.7584682,0.10898995 26.5300364,0.0885929648 28.3014,0.0962160804 C29.4648545,0.101160804 29.7587864,0.376417085 29.7651273,1.54975879 C29.7804682,4.36268844 29.7700364,7.17582412 29.7702409,9.9889598" id="Fill-15" fill-opacity="0.625046096" fill="#F05B68" mask="url(#mask-4)"></path>
                </g>
                <path d="M31.0004068,24.842604 C31.0004068,26.6591719 31.0055205,28.4757397 30.9954977,30.2923075 C30.9938614,30.6073276 31.0963386,30.9384181 30.6111568,31.1073628 C26.9978614,32.3670312 25.2070659,35.2823578 23.9495205,38.6577497 C23.7474295,39.2002271 23.5835886,39.7649558 23.4778386,40.333805 C23.3604295,40.9669357 23.0374523,41.0052573 22.5283386,40.8161216 C21.7091341,40.5118151 21.2292705,39.9367849 21.1750659,39.0656894 C21.0590886,37.2013226 21.3421795,35.3806342 21.8298159,33.5848754 C21.9682932,33.0749508 22.2425886,32.8573829 22.7776795,32.9062121 C23.216225,32.9459759 23.6654068,32.9428854 24.1029295,32.8948804 C24.6699295,32.8326593 25.0689977,32.5308251 25.0573386,31.900991 C25.0456795,31.2839307 24.6588841,30.9820965 24.0879977,30.9089558 C23.8198386,30.8745487 23.5443159,30.8945337 23.2720659,30.8945337 C20.4131341,30.8939156 17.5539977,30.8850563 14.6950659,30.9005085 C13.9824295,30.9044231 13.2988386,30.787192 13.2714295,29.9562724 C13.2409523,29.0330513 13.9695432,28.9255035 14.7124523,28.9364231 C15.2549068,28.9446643 15.8022705,28.9366291 16.3400205,28.8723477 C16.8879977,28.8066241 17.2025886,28.4400965 17.1643386,27.8823729 C17.1275205,27.3440161 16.8076114,27.0059206 16.2494068,26.9556492 C16.0467023,26.9373126 15.8413386,26.946996 15.6369977,26.9457598 C13.7658159,26.9342221 13.1196568,26.6791568 13.2687705,25.9176693 C13.5575886,24.4424935 14.7987705,25.0620261 15.6895659,24.9307849 C15.856475,24.9060613 16.0299295,24.931609 16.1994977,24.9196593 C16.810475,24.8770111 17.1309977,24.5356191 17.1361114,23.9268 C17.1410205,23.3519759 16.8174295,23.0276844 16.2639295,22.9879206 C15.620225,22.9415638 14.9728386,22.9450663 14.3268841,22.9279658 C13.6844068,22.9106593 13.2448386,22.5859558 13.2632477,21.9402573 C13.2814523,21.3081568 13.721225,20.9799508 14.3649295,20.9783025 C14.9435886,20.9768603 15.5222477,20.9807749 16.1007023,20.9717095 C16.6924523,20.9624382 17.0919295,20.6620462 17.1616795,20.072594 C17.2336795,19.4650111 16.8695886,19.0888 16.301975,18.9923779 C15.6423159,18.8805035 15.1759523,18.6023628 15.2604295,17.8709558 C15.3549295,17.0517799 15.9941341,17.0070714 16.6423386,17.0085136 C19.2290205,17.0142824 21.8163159,17.0416844 24.4023841,17.0029508 C26.6153614,16.9697799 28.5569068,17.9560462 30.6015432,18.5593025 C31.1067705,18.7082623 30.9965205,19.1347447 30.9977477,19.4957095 C31.0036795,21.2780764 31.0004068,23.0602372 31.0004068,24.842604" id="Fill-18" fill="#FFECD8"></path>
                <path d="M34.9702045,19.9969603 C35.0741136,20.5860005 35.39075,20.9889955 35.9894545,20.9477894 C36.5542045,20.9090558 36.9475455,20.5604528 36.9095,19.933091 C36.8728864,19.3290106 36.4903864,18.9738146 35.9096818,18.990503 C35.3156818,19.0073975 35.0233864,19.4239905 34.9702045,19.9969603 M38.9320455,24.9962819 C38.9320455,27.3238045 38.9107727,29.6517392 38.9455455,31.9788497 C38.9557727,32.6546286 38.8275227,32.9675884 38.0651818,32.9290608 C36.8107045,32.8660156 35.5507045,32.9012467 34.2931591,32.9140206 C33.3984773,32.9230859 32.9998182,32.5034025 33.0022727,31.5995482 C33.0145455,27.149709 33.0145455,22.6998698 33.002057,18.2500307 C32.9996136,17.3787291 33.4009318,17.0019 34.2418182,17.008699 C35.4993636,17.0187945 36.7583409,17.0443422 38.01425,16.9973673 C38.7099091,16.9714075 38.9608864,17.1755834 38.9477955,17.9111111 C38.9056591,20.2722166 38.9320455,22.6343523 38.9320455,24.9962819" id="Fill-20" fill="#E9D9FF"></path>
                <path d="M34.9702045,19.9969603 C35.0233864,19.4239905 35.3156818,19.0073975 35.9096818,18.990503 C36.4903864,18.9738146 36.8728864,19.3290106 36.9095,19.933091 C36.9475455,20.5604528 36.5542045,20.9090558 35.9894545,20.9477894 C35.39075,20.9889955 35.0741136,20.5860005 34.9702045,19.9969603" id="Fill-22" fill="#F5ACB5"></path>
            </g>
        </g>
    </g>
</svg>