<?xml version="1.0" encoding="UTF-8"?>
<svg width="58px" height="58px" viewBox="0 0 58 58" version="1.1" xmlns="http://www.w3.org/2000/svg" xmlns:xlink="http://www.w3.org/1999/xlink">
    <title>Group</title>
    <defs>
        <circle id="path-1" cx="26" cy="26" r="26"></circle>
        <filter x="-9.6%" y="-7.7%" width="119.2%" height="119.2%" filterUnits="objectBoundingBox" id="filter-2">
            <feOffset dx="0" dy="1" in="SourceAlpha" result="shadowOffsetOuter1"></feOffset>
            <feGaussianBlur stdDeviation="1.5" in="shadowOffsetOuter1" result="shadowBlurOuter1"></feGaussianBlur>
            <feComposite in="shadowBlurOuter1" in2="SourceAlpha" operator="out" result="shadowBlurOuter1"></feComposite>
            <feColorMatrix values="0 0 0 0 0.8412588   0 0 0 0 0.75530176   0 0 0 0 0.918949735  0 0 0 0.527168221 0" type="matrix" in="shadowBlurOuter1"></feColorMatrix>
        </filter>
    </defs>
    <g id="Page-1" stroke="none" stroke-width="1" fill="none" fill-rule="evenodd">
        <g id="LL21--Feedback" transform="translate(-115.000000, -323.000000)">
            <g id="Group" transform="translate(118.000000, 325.000000)">
                <g id="Oval">
                    <use fill="black" fill-opacity="1" filter="url(#filter-2)" xlink:href="#path-1"></use>
                    <use fill="#FBFAFF" fill-rule="evenodd" xlink:href="#path-1"></use>
                </g>
                <path d="M11.9778114,29.9355528 C11.9778114,32.2972764 12.0044023,34.6596181 11.9620614,37.0207236 C11.9489705,37.7562513 12.2001523,37.9604271 12.8956068,37.9344673 C14.1515159,37.8872864 15.4104932,37.9130402 16.6680386,37.9231357 C17.5091295,37.9299347 17.9102432,37.5528995 17.9077998,36.681804 C17.8953114,32.2319648 17.8953114,27.7821256 17.9075841,23.3322864 C17.9102432,22.4284322 17.5113795,22.0087487 16.6166977,22.0178141 C15.3591523,22.0305879 14.0991523,22.0658191 12.844675,22.0025678 C12.0823341,21.9642462 11.9542886,22.277206 11.9643114,22.9529849 C11.9992886,25.2800955 11.9778114,27.6080302 11.9778114,29.9355528 M19.9094705,30.0892513 C19.9094705,31.8714121 19.9061977,33.6537789 19.9121295,35.4361457 C19.9133568,35.7971106 19.8031068,36.223593 20.3083341,36.3725528 C22.353175,36.975809 24.2945159,37.9618693 26.5074932,37.9289045 C29.0935614,37.8901709 31.6808568,37.9175729 34.2675386,37.9231357 C34.9157432,37.9245779 35.5551523,37.8798693 35.6494477,37.0608995 C35.733925,36.3292864 35.2675614,36.0513518 34.6079023,35.9394774 C34.0402886,35.8430553 33.6761977,35.4668442 33.7481977,34.8592613 C33.8179477,34.269809 34.217425,33.9694171 34.809175,33.9601457 C35.3876295,33.9510804 35.9662886,33.954995 36.5449477,33.9535528 C37.1886523,33.9519045 37.628425,33.6236985 37.6466295,32.991392 C37.6652432,32.3458995 37.2254705,32.0209899 36.5829932,32.0038894 C35.9370386,31.9867889 35.2896523,31.9900854 34.6459477,31.9439347 C34.0924477,31.9041709 33.7688568,31.5796734 33.7737659,31.0050553 C33.7788795,30.3962362 34.0994023,30.0546382 34.7103795,30.0119899 C34.8799477,30.0002462 35.0534023,30.0255879 35.2203114,30.0010704 C36.1111068,29.8696231 37.3522886,30.4891558 37.6411068,29.0141859 C37.7902205,28.2524925 37.1440614,27.9976332 35.2728795,27.9860955 C35.0687432,27.9846533 34.8633795,27.9945427 34.6604705,27.976206 C34.1022659,27.9257286 33.7823568,27.5878392 33.7455386,27.0492764 C33.7072886,26.4917588 34.0218795,26.1252312 34.5698568,26.0595075 C35.1076068,25.9950201 35.6549705,25.987191 36.197425,25.9952261 C36.9403341,26.0063518 37.6691295,25.898804 37.6384477,24.9755829 C37.6110386,24.1446633 36.9274477,24.0274322 36.2148114,24.0313467 C33.3558795,24.046799 30.4967432,24.0379397 27.6378114,24.0373216 C27.3655614,24.0371156 27.0900386,24.0573065 26.8218795,24.0228995 C26.2509932,23.9495528 25.8641977,23.6477186 25.8527432,23.0308643 C25.8408795,22.4008241 26.2401523,22.099196 26.8069477,22.0367688 C27.2444705,21.9887638 27.6938568,21.9858794 28.1321977,22.0256432 C28.6672886,22.0742663 28.9415841,21.8566985 29.0800614,21.3469799 C29.5676977,19.5512211 29.8507886,17.7305327 29.7348114,15.8661658 C29.6806068,14.9948643 29.2007432,14.4200402 28.3815386,14.1157337 C27.872425,13.926598 27.5494477,13.9649196 27.4320386,14.5980503 C27.3262886,15.1666935 27.1624477,15.7316281 26.9603568,16.2741055 C25.7030159,19.6492915 23.9120159,22.5646181 20.2987205,23.8242864 C19.8135386,23.9934372 19.9160159,24.3245276 19.9143795,24.6395477 C19.9045614,26.4561156 19.9094705,28.2726834 19.9094705,30.0892513 M10.0033341,30.0292965 C10.0033341,27.2505678 9.996175,24.4718392 10.0061977,21.6933166 C10.0113114,20.2638794 10.2608568,20.0261206 11.6891977,20.0215879 C13.2220614,20.0168492 14.7553341,20.0372462 16.2879932,20.015407 C17.5884932,19.9970704 18.732925,20.2960201 19.4545614,21.491201 C19.8153795,22.0886884 20.220175,21.7705779 20.5859023,21.5748492 C22.5479023,20.5255377 23.7048114,18.7691307 24.6350841,16.8233819 C25.1855159,15.6718794 25.4602205,14.4317839 25.7322659,13.1962211 C25.9179932,12.3529397 26.3857886,12.0129899 27.2391523,11.9989799 C30.014425,11.9536533 31.7397659,13.6136382 31.760425,16.3995779 C31.7731068,18.0900553 31.5268341,19.7496281 31.1111977,21.3782965 C30.9737432,21.9170653 31.0897205,22.0297638 31.5965841,22.0233769 C33.1292432,22.0040101 34.6653795,22.078593 36.1947659,22.0031859 C38.9800614,21.8657638 40.467925,24.5742362 39.1226295,26.6536985 C38.8982432,27.0004472 39.0514477,27.2112161 39.2038341,27.4813216 C39.7724705,28.4890151 39.7900614,29.520402 39.1927886,30.5058442 C38.9540841,30.8995678 39.0311977,31.1414472 39.2263341,31.5106533 C40.0500386,33.0694774 39.6002432,34.6631206 38.0651295,35.5760402 C37.6454023,35.8255427 37.5343341,36.0165327 37.6118568,36.5213065 C37.8620159,38.1551256 36.7556295,39.8163467 35.1798114,39.8567286 C31.6442432,39.9473819 28.0980386,40.1299246 24.5675841,39.743206 C23.1044705,39.5829146 21.7610159,38.9372161 20.3723568,38.4825075 C19.9301295,38.3376683 19.6120614,38.2420704 19.263925,38.7466382 C18.6866977,39.5835327 17.8161523,39.9403769 16.7862659,39.9290452 C15.0151068,39.9092663 13.2435386,39.9296633 11.472175,39.9220402 C10.3087205,39.9170955 10.0147886,39.6418392 10.0084477,38.4684975 C9.99310682,35.6555678 10.0035386,32.8424322 10.0033341,30.0292965" id="Fill-1" fill="#A775C8"></path>
                <path d="M29.75005,8.02294824 C29.75005,8.36537035 29.7662091,8.70882261 29.7465727,9.05000854 C29.7113909,9.66253618 29.3440273,10.010109 28.7663909,10.016496 C28.2247545,10.0226769 27.8639364,9.66150603 27.8242545,9.12047085 C27.7716864,8.40616432 27.7659591,7.68361658 27.8091182,6.96889799 C27.8440955,6.38974724 28.1963227,5.97500854 28.7944136,6.00117437 C29.4256409,6.02878241 29.7598682,6.44207889 29.7547545,7.09828492 C29.7523,7.40650603 29.7543455,7.71472714 29.7543455,8.02294824 L29.75005,8.02294824 Z" id="Fill-3" fill="#A775C8"></path>
                <path d="M23.8979227,12.074902 C23.2462409,12.0854095 21.5151727,10.2785251 21.5452409,9.61861055 C21.5791955,8.86536432 22.4110818,8.38861055 23.0097864,8.85423869 C23.6213773,9.32996231 24.1458318,9.92662563 24.6694682,10.5061884 C24.9421273,10.8080226 24.92065,11.2042186 24.7308318,11.5631231 C24.5569682,11.8921533 24.2511727,12.0289573 23.8979227,12.074902" id="Fill-5" fill="#A775C8"></path>
                <path d="M33.6431023,12.0710905 C32.9188068,12.0558442 32.4013068,11.1734171 32.8511023,10.5831407 C33.342625,9.93847236 33.9351932,9.34716583 34.5719432,8.84692462 C35.1542841,8.38953769 36.0231932,8.89966834 36.049375,9.63725628 C36.0722841,10.2858392 34.2937614,12.0846884 33.6431023,12.0710905" id="Fill-7" fill="#A775C8"></path>
                <path d="M19.9095114,30.0892101 C19.9095114,28.2726422 19.9043977,26.4560744 19.9144205,24.6395065 C19.9160568,24.3244864 19.8135795,23.993396 20.2987614,23.8244513 C23.9120568,22.5647829 25.7028523,19.6494563 26.9603977,16.2740643 C27.1624886,15.7315869 27.3263295,15.1668583 27.431875,14.598009 C27.5494886,13.9648784 27.8724659,13.9265568 28.3815795,14.1156925 C29.2007841,14.419999 29.6806477,14.9950291 29.7348523,15.8661246 C29.8508295,17.7304915 29.5677386,19.5511799 29.0801023,21.3469387 C28.941625,21.8568633 28.6673295,22.0744312 28.1322386,22.025602 C27.6936932,21.9858382 27.2445114,21.9889286 26.8069886,22.0369337 C26.2399886,22.0991548 25.8409205,22.4009889 25.8525795,23.0308231 C25.8642386,23.6478834 26.2510341,23.9497176 26.8219205,24.0228583 C27.0900795,24.0572653 27.3656023,24.0372804 27.6378523,24.0372804 C30.4967841,24.0378985 33.3559205,24.0467578 36.2148523,24.0313055 C36.9274886,24.027391 37.6110795,24.1446221 37.6384886,24.9755417 C37.6689659,25.8987628 36.940375,26.0063106 36.1974659,25.9951849 C35.6550114,25.9871497 35.1076477,25.9951849 34.5698977,26.0594663 C34.0219205,26.1251899 33.7073295,26.4917176 33.7455795,27.0494412 C33.7823977,27.587798 34.1023068,27.9258935 34.6605114,27.9761648 C34.8632159,27.9945015 35.0685795,27.9848181 35.2729205,27.9860543 C37.1441023,27.997592 37.7902614,28.2526573 37.6411477,29.0141447 C37.3523295,30.4893206 36.1111477,29.8697879 35.2203523,30.0010291 C35.0534432,30.0257528 34.8799886,30.000205 34.7104205,30.0121548 C34.0994432,30.054803 33.7789205,30.396195 33.7738068,31.0050141 C33.7688977,31.5798382 34.0924886,31.9041296 34.6459886,31.9438935 C35.2896932,31.9902503 35.9370795,31.9867477 36.5830341,32.0038482 C37.2255114,32.0211548 37.6650795,32.3458583 37.6466705,32.9915568 C37.6284659,33.6236573 37.1886932,33.9518633 36.5449886,33.9535116 C35.9663295,33.9549538 35.3876705,33.9510392 34.8092159,33.9601045 C34.2174659,33.9693759 33.8179886,34.2697678 33.7482386,34.8592201 C33.6762386,35.466803 34.0403295,35.8430141 34.6079432,35.9394362 C35.2676023,36.0513106 35.7339659,36.3294513 35.6494886,37.0608583 C35.5549886,37.8800342 34.9157841,37.9247427 34.2675795,37.9233005 C31.6808977,37.9175317 29.0936023,37.8901296 26.5075341,37.9288633 C24.2945568,37.9620342 22.3530114,36.9757678 20.308375,36.3725116 C19.8031477,36.2235518 19.9133977,35.7970693 19.9121705,35.4361045 C19.9062386,33.6537377 19.9095114,31.8715769 19.9095114,30.0892101" id="Fill-9" fill="#FFECD8"></path>
                <path d="M15.9397341,34.9348538 C15.835825,34.3458136 15.5191886,33.9428186 14.9204841,33.9840246 C14.3557341,34.0227583 13.9623932,34.3713613 14.0004386,34.9987231 C14.0370523,35.6028035 14.4195523,35.9579995 15.0002568,35.9413111 C15.5942568,35.9244166 15.8865523,35.5078236 15.9397341,34.9348538 M11.9778932,29.9355322 C11.9778932,27.6080095 11.9991659,25.2800749 11.9643932,22.9529643 C11.9541659,22.2771854 12.0824159,21.9642256 12.8447568,22.0027533 C14.0992341,22.0657985 15.3592341,22.0305673 16.6167795,22.0177935 C17.5114614,22.0087281 17.9101205,22.4284116 17.9076659,23.3322658 C17.8953932,27.782105 17.8953932,32.2319442 17.9078816,36.6817834 C17.910325,37.5530849 17.5090068,37.9299141 16.6681205,37.9231151 C15.410575,37.9130196 14.1515977,37.8874719 12.8956886,37.9344467 C12.2000295,37.9604065 11.9490523,37.7562307 11.9621432,37.020703 C12.0042795,34.6595975 11.9778932,32.2974618 11.9778932,29.9355322" id="Fill-11" fill="#E9D9FF"></path>
                <path d="M15.9397341,34.9348538 C15.8865523,35.5078236 15.5942568,35.9244166 15.0002568,35.9413111 C14.4195523,35.9579995 14.0370523,35.6028035 14.0004386,34.9987231 C13.9623932,34.3713613 14.3557341,34.0227583 14.9204841,33.9840246 C15.5191886,33.9428186 15.835825,34.3458136 15.9397341,34.9348538" id="Fill-13" fill="#A775C8"></path>
            </g>
        </g>
    </g>
</svg>