<?xml version="1.0" encoding="UTF-8"?>
<svg width="54px" height="53px" viewBox="0 0 54 53" version="1.1" xmlns="http://www.w3.org/2000/svg" xmlns:xlink="http://www.w3.org/1999/xlink">
    <!-- Generator: Sketch 64 (93537) - https://sketch.com -->
    <title>Group 41</title>
    <desc>Created with Sketch.</desc>
    <defs>
        <path d="M4.65572397,2.55332 C4.77314943,2.60287176 4.89102968,2.65278588 5.00872801,2.69998235 L5.00872801,2.69998235 C7.22098367,3.58611647 8.35303424,4.49834 8.35303424,5.82844706 L8.35303424,5.82844706 C8.35303424,6.94938588 7.32640281,7.83561059 5.95659069,7.83561059 L5.95659069,7.83561059 C4.24541703,7.83561059 3.06052046,7.02747294 1.98131589,6.21960706 L1.98131589,6.21960706 C1.74382722,6.03716235 1.29659175,6.03716235 1.08566251,6.40205176 L1.08566251,6.40205176 L0.138163652,8.01805529 C-0.098961194,8.43593882 0.00645794557,8.59175059 0.269869359,8.80055647 L0.269869359,8.80055647 C1.03308938,9.45252 2.74480878,10.8342624 6.06237366,10.8342624 L6.06237366,10.8342624 C9.77487375,10.8342624 12.1181984,8.35758 12.1181984,5.67200118 L12.1181984,5.67200118 C12.1181984,2.56708941 9.60514802,1.04076824 7.20952309,0.0245494118 L7.20952309,0.0245494118 L4.65572397,2.55332 Z" id="path-1"></path>
    </defs>
    <g id="Page-1" stroke="none" stroke-width="1" fill="none" fill-rule="evenodd">
        <g id="PNR21---scroll-to-mission" transform="translate(-152.000000, -539.000000)">
            <g id="Group-34" transform="translate(0.000000, 388.000000)">
                <g id="Group-10" transform="translate(43.000000, 152.000000)">
                    <g id="Group-5">
                        <g id="Group-41" transform="translate(110.000000, 0.000000)">
                            <g id="Group-25">
                                <g id="Group-9">
                                    <path d="M48.246408,26.1097894 C48.246408,38.7487029 38.00051,48.99449 25.3617073,48.99449 C12.7227938,48.99449 2.47689579,38.7487029 2.47689579,26.1097894 C2.47689579,13.4708758 12.7227938,3.22508869 25.3617073,3.22508869 C38.00051,3.22508869 48.246408,13.4708758 48.246408,26.1097894" id="Fill-1" fill="#FFFFFF"></path>
                                    <path d="M52.4768958,27.99449 C52.4768958,41.2493684 41.731684,51.99449 28.4769539,51.99449 C15.2221076,51.99449 4.47689579,41.2493684 4.47689579,27.99449 C4.47689579,14.7396116 15.2221076,3.99449002 28.4769539,3.99449002 C41.731684,3.99449002 52.4768958,14.7396116 52.4768958,27.99449" id="Fill-1" fill="#FFDFE2" opacity="0.6"></path>
                                    <path d="M7.21999442,42.5400237 C-2.29307796,32.8578069 -2.31253991,17.2442129 7.24820399,7.53957871 C16.9056319,-2.26308204 32.7372284,-2.38203991 42.5402217,7.27572062 C52.343337,16.9335033 52.4615188,32.7658758 42.8040909,42.5685366 C33.146663,52.3711973 17.3142905,52.4893792 7.51118625,42.8315078 L7.51118625,42.8315078 Z M39.9605523,9.33366712 C31.4245786,1.21980092 17.8783921,1.41321605 9.57980044,9.83658537 C1.18900222,18.3535477 1.29133038,32.1092018 9.80829268,40.5 C18.3252661,48.8907095 32.0818071,48.7884922 40.4724945,40.2715299 C48.8632927,31.7545676 48.7606319,17.9984701 40.2432262,9.60722838 L40.2432262,9.60722838 Z" id="Combined-Shape" stroke="#EE365D" stroke-width="0.5"></path>
                                </g>
                                <g id="Group-2" transform="translate(12.000000, 16.000000)">
                                    <g id="Group-13" transform="translate(0.000000, 7.905882)">
                                        <mask id="mask-2" fill="white">
                                            <use xlink:href="#path-1"></use>
                                        </mask>
                                        <g id="Clip-11"></g>
                                        <polygon id="Fill-10" fill="#EE82A5" mask="url(#mask-2)" points="-8.73187006 53.7188235 96.1250644 53.7188235 96.1250644 -50.7130153 -8.73187006 -50.7130153"></polygon>
                                        <polygon id="Fill-12" fill="#EE82A5" mask="url(#mask-2)" points="-1.74155329 12.5748247 13.8657549 12.5748247 13.8657549 -1.71601294 -1.74155329 -1.71601294"></polygon>
                                    </g>
                                    <path d="M4.65270346,10.5411765 L7.22421634,8.00297896 C7.01564845,7.91449851 6.80772175,7.82847333 6.60254298,7.74699494 C4.4546693,6.88356038 3.47374989,6.04586062 3.47374989,4.81640984 C3.47374989,3.82139131 4.29593055,2.98378249 5.80738364,2.98378249 C7.26534369,2.98378249 8.35279119,3.71726992 9.49281574,4.42365851 C9.81065964,4.63299251 10.2089263,4.42365851 10.4208833,4.10902095 L11.428366,2.61749345 C11.6138513,2.35568955 11.5341613,1.91101393 11.2695357,1.7543317 C10.7387272,1.36158037 8.67036029,0 5.96621399,0 C1.750523,0 2.92576421e-13,2.6957891 2.92576421e-13,5.02510729 C2.92576421e-13,7.97597105 2.2763852,9.53970151 4.65270346,10.5411765" id="Fill-14" fill="#B22755"></path>
                                    <g id="Group-24" transform="translate(14.164706, 0.000000)">
                                        <path d="M3.63251337,3.37746072 L6.90451666,3.37746072 C7.47018346,3.37746072 7.98692225,3.53444127 8.41372933,3.8077105 L10.8313813,1.36803629 C9.78297655,0.535644434 8.45371946,0.0341150226 7.01361415,0.0341150226 L0.605887289,0.0341150226 C0.305961333,0.0341150226 0.0878584944,0.278817285 0.0878584944,0.550616833 L0.0878584944,12.2091548 L3.63251337,8.63231321 L3.63251337,3.37746072 Z" id="Fill-20" fill="#EE82A5"></path>
                                        <path d="M0.605896503,19.0612315 L3.11449379,19.0612315 C3.38714537,19.0612315 3.63252258,18.8166211 3.63252258,18.5448216 L3.63252258,12.1571189 L7.04089774,12.1571189 C10.3673576,12.1571189 13.1213321,9.41175054 13.1213321,6.04130756 C13.1213321,4.16461389 12.2244107,2.47411072 10.8313905,1.36808222 L8.41373854,3.80766457 C9.13899729,4.27208448 9.60395162,5.07287814 9.60395162,6.01411842 C9.60395162,7.61781842 8.43152217,8.84096231 6.90452587,8.84096231 L3.63252258,8.84096231 L3.63252258,8.63235914 L0.0878677088,12.2092008 L0.0878677088,18.5448216 C0.0878677088,18.8166211 0.305970547,19.0612315 0.605896503,19.0612315" id="Fill-22" fill="#B22755"></path>
                                    </g>
                                </g>
                            </g>
                        </g>
                    </g>
                </g>
            </g>
        </g>
    </g>
</svg>