<svg width="38" height="24" viewBox="0 0 38 24" fill="none" xmlns="http://www.w3.org/2000/svg">
<g clip-path="url(#clip0_2_31)">
<path d="M24.3733 20.7041H16.1348V18.9677H23.5092V1.73649H7.56967V18.9677H9.57269V20.7041H7.08749C6.39965 20.7041 5.84143 20.1433 5.84143 19.4521V1.25201C5.84143 0.560886 6.39965 0 7.08749 0H23.9914C24.6792 0 25.2374 0.560886 25.2374 1.25201V19.8359C25.2374 20.3152 24.8503 20.7041 24.3733 20.7041Z" fill="#EEDDFF"/>
<path d="M25.2374 11.2368H23.5092V2.87389H28.2376C30.9821 2.87389 33.215 5.11743 33.215 7.87497V10.0907H31.4867V7.87497C31.4867 6.07423 30.0298 4.61037 28.2376 4.61037H25.2374V11.2368Z" fill="#EEDDFF"/>
<path d="M36.0873 20.7041H33.8112V18.9677H35.6051V13.5238C35.6051 12.1103 34.4593 10.959 33.0525 10.959H25.2374V18.9677H27.2491V20.7041H24.3733C23.8963 20.7041 23.5092 20.3152 23.5092 19.8359V10.0907C23.5092 9.61146 23.8963 9.22249 24.3733 9.22249H33.0525C35.4133 9.22249 37.3333 11.1517 37.3333 13.5238V19.4521C37.3333 20.1433 36.7751 20.7041 36.0873 20.7041Z" fill="#EEDDFF"/>
<path d="M12.8529 24C10.5664 24 8.70858 22.1315 8.70858 19.8342C8.70858 17.5368 10.5682 15.6701 12.8529 15.6701C15.1376 15.6701 16.9972 17.5385 16.9972 19.8342C16.9972 22.1298 15.1376 24 12.8529 24ZM12.8529 17.4066C11.5204 17.4066 10.4368 18.4953 10.4368 19.8342C10.4368 21.173 11.5204 22.2635 12.8529 22.2635C14.1854 22.2635 15.269 21.1747 15.269 19.8342C15.269 18.4936 14.1854 17.4066 12.8529 17.4066Z" fill="#EEDDFF"/>
<path d="M30.531 24C28.2446 24 26.3867 22.1315 26.3867 19.8342C26.3867 17.5368 28.2463 15.6701 30.531 15.6701C32.8157 15.6701 34.6753 17.5385 34.6753 19.8342C34.6753 22.1298 32.8157 24 30.531 24ZM30.531 17.4066C29.1985 17.4066 28.1149 18.4953 28.1149 19.8342C28.1149 21.173 29.1985 22.2635 30.531 22.2635C31.8635 22.2635 32.9471 21.1747 32.9471 19.8342C32.9471 18.4936 31.8635 17.4066 30.531 17.4066Z" fill="#EEDDFF"/>
<path d="M11.6449 8.41675H0.864118C0.387125 8.41675 0 8.02778 0 7.54851C0 7.06924 0.387125 6.68027 0.864118 6.68027H11.6449C12.1218 6.68027 12.509 7.06924 12.509 7.54851C12.509 8.02778 12.1218 8.41675 11.6449 8.41675Z" fill="#EEDDFF"/>
<path d="M11.6448 11.4435H2.59235C2.11536 11.4435 1.72824 11.0545 1.72824 10.5752C1.72824 10.0959 2.11536 9.70697 2.59235 9.70697H11.6448C12.1218 9.70697 12.509 10.0959 12.509 10.5752C12.509 11.0545 12.1218 11.4435 11.6448 11.4435Z" fill="#EEDDFF"/>
<path d="M11.6448 14.4684H4.32059C3.8436 14.4684 3.45647 14.0794 3.45647 13.6002C3.45647 13.1209 3.8436 12.7319 4.32059 12.7319H11.6448C12.1218 12.7319 12.509 13.1209 12.509 13.6002C12.509 14.0794 12.1218 14.4684 11.6448 14.4684Z" fill="#EEDDFF"/>
</g>
<defs>
<clipPath id="clip0_2_31">
<rect width="37.3333" height="24" fill="white"/>
</clipPath>
</defs>
</svg>
