<svg width="34" height="32" viewBox="0 0 34 32" fill="none" xmlns="http://www.w3.org/2000/svg">
<g clip-path="url(#clip0_1_14)">
<path d="M11.7245 26.7417H1.49147C0.669319 26.7417 0 26.0699 0 25.2425V10.9859C0 10.1585 0.669319 9.48493 1.49147 9.48493H21.7608C22.5829 9.48493 23.2505 10.1585 23.2505 10.9859V11.4084H21.4937V11.2529H1.75674V24.9737H11.7245V26.7417Z" fill="#EEDDFF"/>
<path d="M11.6254 -0.000358582C12.8887 1.27101 12.8874 3.33494 11.6254 4.60506C10.362 3.33369 10.3633 1.26976 11.6254 -0.000358582Z" fill="#EEDDFF"/>
<path d="M14.4615 31.4815C13.9837 31.4815 13.5216 31.2216 13.2862 30.7672L7.59088 19.8167C7.25183 19.1661 7.50305 18.3582 8.14953 18.0187L26.3652 8.4171C27.0117 8.07589 27.8145 8.3287 28.1518 8.9793L29.826 12.2005C30.1246 12.7733 29.97 13.4787 29.4588 13.8747C28.981 14.246 28.8369 14.9072 29.118 15.4464C29.3991 15.9856 30.0192 16.2437 30.5954 16.0599C31.2103 15.8636 31.8726 16.1359 32.1712 16.7105L33.8454 19.9316C34.1845 20.5822 33.9332 21.3884 33.2868 21.7296L15.0711 31.3312C14.8761 31.4338 14.6653 31.4833 14.4597 31.4833L14.4615 31.4815ZM9.34763 19.3836L14.6424 29.5615L32.0922 20.363L30.7764 17.8331C29.494 18.0788 28.1834 17.4547 27.5633 16.2632C26.9432 15.0716 27.1821 13.6343 28.1131 12.7132L26.7973 10.1833L9.34763 19.3836Z" fill="#EEDDFF"/>
<path d="M20.7208 23.593C21.3446 23.593 21.8504 23.084 21.8504 22.4562C21.8504 21.8284 21.3446 21.3194 20.7208 21.3194C20.0969 21.3194 19.5912 21.8284 19.5912 22.4562C19.5912 23.084 20.0969 23.593 20.7208 23.593Z" fill="#EEDDFF"/>
<path d="M17.2849 17.8491L16.1574 25.087L17.8929 25.3608L19.0204 18.1229L17.2849 17.8491Z" fill="#EEDDFF"/>
<path d="M14.5775 21.9329C15.2013 21.9329 15.707 21.4239 15.707 20.7961C15.707 20.1683 15.2013 19.6593 14.5775 19.6593C13.9536 19.6593 13.4479 20.1683 13.4479 20.7961C13.4479 21.4239 13.9536 21.9329 14.5775 21.9329Z" fill="#EEDDFF"/>
<path d="M21.7261 11.8642L20.1697 12.6841L26.2784 24.4283L27.8348 23.6084L21.7261 11.8642Z" fill="#EEDDFF"/>
<path d="M10.1065 17.1012H0.878371V18.8691H10.1065V17.1012Z" fill="#EEDDFF"/>
<path d="M13.1931 11.2529H10.0591C9.57425 11.2529 9.18074 10.8568 9.18074 10.3689V5.07749C9.18074 4.58954 9.57425 4.19353 10.0591 4.19353H13.1931C13.678 4.19353 14.0715 4.58954 14.0715 5.07749V10.3671C14.0715 10.8551 13.678 11.2511 13.1931 11.2511V11.2529ZM10.9375 9.48494H12.3148V5.96322H10.9375V9.48494Z" fill="#EEDDFF"/>
</g>
<defs>
<clipPath id="clip0_1_14">
<rect width="34" height="31.4815" fill="white"/>
</clipPath>
</defs>
</svg>
