<svg width="28" height="26" viewBox="0 0 28 26" fill="none" xmlns="http://www.w3.org/2000/svg">
<path fill-rule="evenodd" clip-rule="evenodd" d="M23.1705 12.5079C23.1705 18.5881 18.2416 23.517 12.1615 23.517C6.08131 23.517 1.15235 18.5881 1.15235 12.5079C1.15235 6.42776 6.08131 1.49886 12.1615 1.49886C18.2416 1.49886 23.1705 6.42776 23.1705 12.5079" fill="white"/>
<path opacity="0.6" fill-rule="evenodd" clip-rule="evenodd" d="M22.7808 12.5601C22.7808 18.6402 17.8518 23.5691 11.7717 23.5691C5.69154 23.5691 0.762581 18.6402 0.762581 12.5601C0.762581 6.47992 5.69154 1.55102 11.7717 1.55102C17.8518 1.55102 22.7808 6.47992 22.7808 12.5601" fill="#F7C3DA"/>
<path fill-rule="evenodd" clip-rule="evenodd" d="M4.56935 4.67948C8.60589 0.582252 15.2233 0.532653 19.3205 4.56913L20.4255 3.44753C15.7096 -1.19849 8.09357 -1.14127 3.4477 3.57447C-1.19811 8.2902 -1.14163 15.9063 3.57421 20.5523L4.67927 19.4306C0.582048 15.3941 0.532822 8.77671 4.56935 4.67948" fill="#F4AFB2"/>
<path fill-rule="evenodd" clip-rule="evenodd" d="M20.5525 20.4256C25.1983 15.7099 25.1415 8.09343 20.4255 3.44735L19.3205 4.569C23.4179 8.60575 23.4673 15.2233 19.4308 19.3206C15.3943 23.4178 8.77651 23.467 4.67923 19.4304L3.57422 20.5521C8.29016 25.1982 15.9066 25.1413 20.5525 20.4256" fill="#F7C3DA"/>
<path fill-rule="evenodd" clip-rule="evenodd" d="M9.26456 11.1107L7.98099 12.3868C8.04005 12.4119 8.09925 12.4371 8.15845 12.4608C9.27032 12.9081 9.83928 13.3684 9.83928 14.0396C9.83928 14.6053 9.3233 15.0525 8.63484 15.0525C7.77482 15.0525 7.1793 14.6447 6.63685 14.237C6.51754 14.145 6.29272 14.145 6.18675 14.3291L5.71055 15.1445C5.59137 15.3554 5.64435 15.4341 5.77674 15.5394C6.16033 15.8684 7.02063 16.5658 8.68796 16.5658C10.5538 16.5658 11.7316 15.3159 11.7316 13.9606C11.7316 12.3938 10.4685 11.6236 9.26456 11.1107" fill="#EE82A5"/>
<path fill-rule="evenodd" clip-rule="evenodd" d="M7.96167 12.3431C8.02047 12.3679 8.07949 12.3929 8.13842 12.4166V12.4166C9.2461 12.8602 9.81292 13.317 9.81292 13.983V13.983C9.81292 14.5442 9.29889 14.988 8.61302 14.988V14.988C7.75623 14.988 7.16295 14.5833 6.62259 14.1788V14.1788C6.50368 14.0875 6.27975 14.0875 6.17414 14.2702V14.2702L5.69972 15.0793C5.58099 15.2886 5.63378 15.3666 5.76567 15.4711V15.4711C6.14781 15.7976 7.00487 16.4894 8.66599 16.4894V16.4894C10.5248 16.4894 11.6981 15.2493 11.6981 13.9047V13.9047C11.6981 12.35 10.4399 11.5858 9.24037 11.077V11.077L7.96167 12.3431Z" fill="#D8D8D8"/>
<path fill-rule="evenodd" clip-rule="evenodd" d="M7.96167 12.3431C8.02047 12.3679 8.07949 12.3929 8.13842 12.4166V12.4166C9.2461 12.8602 9.81292 13.317 9.81292 13.983V13.983C9.81292 14.5442 9.29889 14.988 8.61302 14.988V14.988C7.75623 14.988 7.16295 14.5833 6.62259 14.1788V14.1788C6.50368 14.0875 6.27975 14.0875 6.17414 14.2702V14.2702L5.69972 15.0793C5.58099 15.2886 5.63378 15.3666 5.76567 15.4711V15.4711C6.14781 15.7976 7.00487 16.4894 8.66599 16.4894V16.4894C10.5248 16.4894 11.6981 15.2493 11.6981 13.9047V13.9047C11.6981 12.35 10.4399 11.5858 9.24037 11.077V11.077L7.96167 12.3431Z" fill="#EE82A5"/>
<path fill-rule="evenodd" clip-rule="evenodd" d="M7.96019 12.3841L9.24775 11.1133C9.14332 11.069 9.03921 11.0259 8.93648 10.9851C7.86103 10.5528 7.36988 10.1333 7.36988 9.51773C7.36988 9.01953 7.78155 8.60013 8.53834 8.60013C9.26834 8.60013 9.81283 8.96739 10.3836 9.32108C10.5428 9.4259 10.7422 9.32108 10.8483 9.16354L11.3528 8.41673C11.4456 8.28565 11.4057 8.063 11.2732 7.98455C11.0075 7.78789 9.97184 7.10615 8.61786 7.10615C6.50706 7.10615 5.63057 8.45593 5.63057 9.62223C5.63057 11.0997 6.77036 11.8827 7.96019 12.3841" fill="#B22755"/>
<path fill-rule="evenodd" clip-rule="evenodd" d="M5.65989 9.61582C5.65989 11.0797 6.78958 11.8554 7.96883 12.3523V12.3523L9.24493 11.0931C9.14143 11.0492 9.0382 11.0065 8.93638 10.9662V10.9662C7.8706 10.5378 7.38377 10.1222 7.38377 9.51234V9.51234C7.38377 9.01873 7.79178 8.60321 8.54183 8.60321V8.60321C9.2653 8.60321 9.80499 8.96703 10.3707 9.3175V9.3175C10.5285 9.42135 10.7261 9.3175 10.8313 9.16142V9.16142L11.3312 8.42151C11.4233 8.29163 11.3837 8.07104 11.2524 7.99331V7.99331C10.989 7.79848 9.96258 7.12303 8.62061 7.12303V7.12303C6.52863 7.12303 5.65989 8.46035 5.65989 9.61582V9.61582Z" fill="#D8D8D8"/>
<path fill-rule="evenodd" clip-rule="evenodd" d="M5.65989 9.61582C5.65989 11.0797 6.78958 11.8554 7.96883 12.3523V12.3523L9.24493 11.0931C9.14143 11.0492 9.0382 11.0065 8.93638 10.9662V10.9662C7.8706 10.5378 7.38377 10.1222 7.38377 9.51234V9.51234C7.38377 9.01873 7.79178 8.60321 8.54183 8.60321V8.60321C9.2653 8.60321 9.80499 8.96703 10.3707 9.3175V9.3175C10.5285 9.42135 10.7261 9.3175 10.8313 9.16142V9.16142L11.3312 8.42151C11.4233 8.29163 11.3837 8.07104 11.2524 7.99331V7.99331C10.989 7.79848 9.96258 7.12303 8.62061 7.12303V7.12303C6.52863 7.12303 5.65989 8.46035 5.65989 9.61582V9.61582Z" fill="#B22755"/>
<path fill-rule="evenodd" clip-rule="evenodd" d="M15.3434 8.79731H16.9817C17.265 8.79731 17.5237 8.87591 17.7374 9.01274L18.9479 7.79119C18.423 7.37441 17.7574 7.12329 17.0364 7.12329H13.828C13.6778 7.12329 13.5686 7.24581 13.5686 7.3819V13.2194L15.3434 11.4284V8.79731Z" fill="#EE82A5"/>
<path fill-rule="evenodd" clip-rule="evenodd" d="M13.828 16.6502H15.084C15.2206 16.6502 15.3434 16.5277 15.3434 16.3916V13.1933H17.05C18.7156 13.1933 20.0945 11.8187 20.0945 10.1311C20.0945 9.19142 19.6454 8.34498 18.9479 7.79119L17.7374 9.01269C18.1005 9.24523 18.3333 9.64619 18.3333 10.1175C18.3333 10.9204 17.7463 11.5329 16.9817 11.5329H15.3434V11.4284L13.5686 13.2194V16.3916C13.5686 16.5277 13.6778 16.6502 13.828 16.6502" fill="#B22755"/>
<circle cx="21.4826" cy="19.4826" r="4.26424" fill="white"/>
<path fill-rule="evenodd" clip-rule="evenodd" d="M21.58 16.0137C19.6104 16.0137 18.0137 17.6104 18.0137 19.58C18.0137 21.5496 19.6104 23.1463 21.58 23.1463C23.5496 23.1463 25.1463 21.5496 25.1463 19.58C25.1463 17.6104 23.5496 16.0137 21.58 16.0137ZM16 19.58C16 16.4982 18.4983 14 21.58 14C24.6618 14 27.16 16.4982 27.16 19.58C27.16 22.6617 24.6618 25.16 21.58 25.16C18.4983 25.16 16 22.6617 16 19.58Z" fill="white"/>
<path d="M22.44 19.2056H24.0651V20.3756H22.44V21.9342H21.2982V20.3756H19.6551V19.2056H21.2982V17.6551H22.44V19.2056Z" fill="#B075CC"/>
</svg>
