<?xml version="1.0" encoding="UTF-8"?>
<svg width="22px" height="22px" viewBox="0 0 22 22" version="1.1" xmlns="http://www.w3.org/2000/svg" xmlns:xlink="http://www.w3.org/1999/xlink">
    <title>Group 30</title>
    <g id="Page-1" stroke="none" stroke-width="1" fill="none" fill-rule="evenodd">
        <g id="PDP---if-Size-Copy-3" transform="translate(-528.000000, -624.000000)" fill-rule="nonzero">
            <g id="Group-44" transform="translate(84.000000, 195.000000)">
                <g id="Group-22" transform="translate(436.500000, 312.000000)">
                    <g id="Group-31" transform="translate(0.500000, 110.000000)">
                        <g id="Group-30" transform="translate(18.000000, 18.000000) scale(-1, 1) translate(-18.000000, -18.000000) translate(7.200000, 7.200000)">
                            <path d="M8.94857143,19.1276747 C8.60779837,19.1276747 8.33142857,19.4044648 8.33142857,19.745756 C8.33142857,20.0870473 8.60779837,20.3638373 8.94857143,20.3638373 L17.28,20.3638373 C18.0984196,20.3638373 18.8832931,20.0382409 19.4618645,19.4586131 C20.0406122,18.8791618 20.3657143,18.0930948 20.3657143,17.2734307 L20.3657143,11.0926174 C20.3657143,10.7513262 20.0893445,10.4745361 19.7485714,10.4745361 C19.4077984,10.4745361 19.1314286,10.7513262 19.1314286,11.0926174 L19.1314286,17.2734307 C19.1314286,17.765291 18.9363321,18.2367546 18.5891804,18.5846019 C18.2418656,18.9322727 17.7710694,19.1276747 17.28,19.1276747 L13.2685714,19.1276747 L13.2685714,12.9468614 C13.2685714,12.6055701 12.9922016,12.3287801 12.6514286,12.3287801 C12.3106555,12.3287801 12.0342857,12.6055701 12.0342857,12.9468614 L12.0342857,19.1276747 L10.8,19.1276747 L10.8,9.85645478 L19.7485714,9.85645478 C20.2396849,9.85645478 20.7104327,9.66106161 21.0577518,9.31338203 C21.4048947,8.96553911 21.6,8.49402694 21.6,8.00221079 L21.6,6.14796681 C21.6,5.65610652 21.4049035,5.18464291 21.0577518,4.83679557 C20.7104371,4.48912483 20.2396408,4.29372283 19.7485714,4.29372283 L15.8852131,4.29372283 C16.4037012,3.49233624 16.4753339,2.4807137 16.0751432,1.61411953 C15.6751376,0.74752536 14.8591073,0.146882756 13.9137767,0.0233989362 C12.968446,-0.100080468 12.0258485,0.270702105 11.4171252,1.00553017 C10.808402,0.270675616 9.86584849,-0.100084883 8.9204738,0.0233989362 C7.97514318,0.146878341 7.159104,0.74752536 6.75910727,1.61411953 C6.3589298,2.4807137 6.43056245,3.49233624 6.94903739,4.29372283 L3.08567902,4.29372283 C2.59456555,4.29372283 2.1238178,4.489116 1.77649861,4.83679557 C1.42935576,5.1846385 1.23425045,5.65615067 1.23425045,6.14796681 L1.23425045,8.00221079 C1.23476704,8.38523579 1.35357943,8.75878649 1.57467967,9.07144734 C1.79560359,9.3841082 2.10797927,9.62056845 2.46852294,9.74833469 L2.46852294,12.3287801 C2.46852294,12.6700714 2.74489273,12.9468614 3.0856658,12.9468614 C3.42643886,12.9468614 3.70280865,12.6700714 3.70280865,12.3287801 L3.70280865,9.85645478 L9.5656658,9.85645478 L9.5656658,19.1276747 L8.94857143,19.1276747 Z M19.7485714,5.52988548 C19.9123259,5.52988548 20.0691948,5.5950754 20.1849091,5.71096565 C20.3006233,5.8268559 20.3657143,5.98396335 20.3657143,6.14796681 L20.3657143,8.00221079 C20.3657143,8.16621426 20.3006233,8.3233217 20.1849091,8.43921195 C20.0691948,8.5551022 19.9123259,8.62029212 19.7485714,8.62029212 L13.2685714,8.62029212 L13.2685714,5.52988548 L19.7485714,5.52988548 Z M13.5771429,1.20331619 C13.9862733,1.20331619 14.3787233,1.3661144 14.6681633,1.65584002 C14.957449,1.94573782 15.12,2.33877574 15.12,2.74851951 C15.12,3.15826328 14.957449,3.55131886 14.6681633,3.841199 C14.3787056,4.13092462 13.9862645,4.29372283 13.5771429,4.29372283 C13.1680212,4.29372283 12.7755624,4.13092462 12.4861224,3.841199 C12.1968367,3.5513012 12.0342857,3.15826328 12.0342857,2.74851951 C12.0342857,2.33877574 12.1968367,1.94572016 12.4861224,1.65584002 C12.7755801,1.3661144 13.1680212,1.20331619 13.5771429,1.20331619 Z M12.0342857,5.52988548 L12.0342857,8.62029212 L10.8,8.62029212 L10.8,5.52988548 L12.0342857,5.52988548 Z M9.25714286,1.20331619 C9.66627331,1.20331619 10.0587233,1.3661144 10.3481633,1.65584002 C10.637449,1.94573782 10.8,2.33877574 10.8,2.74851951 C10.8,3.15826328 10.637449,3.55131886 10.3481633,3.841199 C10.0587056,4.13092462 9.66626449,4.29372283 9.25714286,4.29372283 C8.84802122,4.29372283 8.45556245,4.13092462 8.16612245,3.841199 C7.87683673,3.5513012 7.71428571,3.15826328 7.71428571,2.74851951 C7.71428571,2.33877574 7.87683673,1.94572016 8.16612245,1.65584002 C8.45558008,1.3661144 8.84802122,1.20331619 9.25714286,1.20331619 Z M3.08571429,8.62029212 C2.74494122,8.62029212 2.46857143,8.34350206 2.46857143,8.00221079 L2.46857143,6.14796681 C2.46857143,5.80667555 2.74494122,5.52988548 3.08571429,5.52988548 L9.56571429,5.52988548 L9.56571429,8.62029212 L3.08571429,8.62029212 Z" id="Shape" fill="#A775C8"></path>
                            <path d="M13.2685714,11.0926174 C13.2685714,11.4339087 12.9922016,11.7106988 12.6514286,11.7106988 C12.3106555,11.7106988 12.0342857,11.4339087 12.0342857,11.0926174 C12.0342857,10.7513262 12.3106555,10.4745361 12.6514286,10.4745361 C12.9922016,10.4745361 13.2685714,10.7513262 13.2685714,11.0926174" id="Path" fill="#A775C8"></path>
                            <g id="Group-38" transform="translate(0.000000, 13.564943)" fill="#F05868">
                                <path d="M4.01142857,8.03505726 C5.07525061,8.03505726 6.09565224,7.61185256 6.84799347,6.85840701 C7.60033469,6.10496145 8.02285714,5.08296839 8.02285714,4.01752863 C8.02285714,2.95208887 7.60029502,1.93013554 6.84799347,1.17665025 C6.09569192,0.423164966 5.07525061,0 4.01142857,0 C2.94760653,0 1.9272049,0.4232047 1.17486367,1.17665025 C0.422522449,1.93009581 0,2.95208887 0,4.01752863 C0,5.08296839 0.422562122,6.10492172 1.17486367,6.85840701 C1.92716522,7.61189229 2.94760653,8.03505726 4.01142857,8.03505726 Z M4.01142857,1.23616266 C4.74790041,1.23616266 5.45439673,1.52916411 5.97513306,2.05083799 C6.49600163,2.57232204 6.78857143,3.27993686 6.78857143,4.01752863 C6.78857143,4.7551204 6.49601486,5.46269107 5.97513306,5.98421926 C5.45444082,6.50587991 4.74790041,6.7988946 4.01142857,6.7988946 C3.27495673,6.7988946 2.56846041,6.50589315 2.04772408,5.98421926 C1.52685551,5.46273522 1.23428571,4.7551204 1.23428571,4.01752863 C1.23428571,3.27993686 1.52684229,2.57236619 2.04772408,2.05083799 C2.56841633,1.52917735 3.27495673,1.23616266 4.01142857,1.23616266 Z" id="Shape"></path>
                                <path d="M3.39428571,4.63560996 L3.39428571,5.56273195 C3.39428571,5.90402321 3.67065551,6.18081328 4.01142857,6.18081328 C4.35220163,6.18081328 4.62857143,5.90402321 4.62857143,5.56273195 L4.62857143,4.63560996 L5.55428571,4.63560996 C5.89505878,4.63560996 6.17142857,4.35881989 6.17142857,4.01752863 C6.17142857,3.67623736 5.89505878,3.3994473 5.55428571,3.3994473 L4.62857143,3.3994473 L4.62857143,2.47232531 C4.62857143,2.13103405 4.35220163,1.85424398 4.01142857,1.85424398 C3.67065551,1.85424398 3.39428571,2.13103405 3.39428571,2.47232531 L3.39428571,3.3994473 L2.46857143,3.3994473 C2.12779837,3.3994473 1.85142857,3.67623736 1.85142857,4.01752863 C1.85142857,4.35881989 2.12779837,4.63560996 2.46857143,4.63560996 L3.39428571,4.63560996 Z" id="Path"></path>
                            </g>
                        </g>
                    </g>
                </g>
            </g>
        </g>
    </g>
</svg>