<?xml version="1.0" encoding="UTF-8"?>
<svg width="16px" height="16px" viewBox="0 0 16 16" version="1.1" xmlns="http://www.w3.org/2000/svg" xmlns:xlink="http://www.w3.org/1999/xlink">
    <title>Search</title>
    <g id="Page-1" stroke="none" stroke-width="1" fill="none" fill-rule="evenodd">
        <g id="Search" transform="translate(1.000000, 1.000000)" fill="#ACA7AF" stroke="#ACA7AF" stroke-width="0.5">
            <g>
                <path d="M10.1188842,10.1188842 C12.2549847,7.98278372 12.2549847,4.51953014 10.1188842,2.38345312 C7.98278372,0.247376093 4.51953014,0.247376093 2.38345312,2.38345312 C0.247376093,4.51953014 0.247376093,7.98278372 2.38345312,10.1188842 C4.51953014,12.2549847 7.98278372,12.2549847 10.1188842,10.1188842 Z M10.6714088,10.6714088 C13.1126442,8.23017349 13.1126442,4.272156 10.6714088,1.83092065 C8.23017349,-0.610306884 4.272156,-0.610306884 1.83092065,1.83092065 C-0.610306884,4.272156 -0.610306884,8.23017349 1.83092065,10.6714088 C4.272156,13.1126442 8.23017349,13.1126442 10.6714088,10.6714088 Z" id="Shape"></path>
                <path d="M10.3951074,10.3951074 C10.547714,10.2425791 10.7951037,10.2425791 10.9476321,10.3951074 L13.7103335,13.1578088 C13.8628619,13.3103372 13.8628619,13.557727 13.7103335,13.7103335 C13.557727,13.8628619 13.3103372,13.8628619 13.1578088,13.7103335 L10.3951074,10.9476321 C10.2425791,10.7951037 10.2425791,10.547714 10.3951074,10.3951074 Z" id="Path"></path>
            </g>
        </g>
    </g>
</svg>