<?xml version="1.0" encoding="UTF-8"?>
<svg width="114px" height="122px" viewBox="0 0 114 122" version="1.1" xmlns="http://www.w3.org/2000/svg" xmlns:xlink="http://www.w3.org/1999/xlink">
    <title>Group 4</title>
    <g id="Main-Page" stroke="none" stroke-width="1" fill="none" fill-rule="evenodd">
        <g id="Our-Store" transform="translate(-205.000000, -158.000000)">
            <g id="Group-4" transform="translate(205.000000, 158.000000)">
                <path d="M112.541661,43.2242945 C109.315093,32.0451849 104.323376,21.6799719 94.3795587,14.0197684 C85.1136289,6.89019351 74.8440734,1.35250469 62.4176032,0 C41.6760064,0.0279278255 20.9344096,0.0598453403 0.192812745,0.0917628551 L0.192812745,28.4464851 C0.329270619,41.2334395 -1.27300893,54.0283732 2.88235342,66.8272967 C8.06335075,82.773686 31.1370566,101.48493 49.5148509,101.808893 L49.5839602,101.809691 C63.2570392,102.051865 76.9376013,102.014761 90.619484,101.957708 L102.165581,102 L114,102 L114,55.2787419 C114,47.81523 112.578637,43.345581 112.541661,43.230279 L112.541661,43.2242945 Z" id="Mask" fill="#905EB2" transform="translate(57.000000, 51.000000) rotate(-180.000000) translate(-57.000000, -51.000000) "></path>
                <g id="Group-2" transform="translate(36.000000, 60.000000)">
                    <path d="M0.844229449,26.2733522 C2.71231797,19.4782242 5.60218031,13.1779395 11.3592651,8.52184213 C16.7237266,4.18791661 22.66908,0.82209368 29.8634996,0 C41.8718741,0.0168227664 53.8799507,0.0361848184 65.8883252,0.0555468703 L65.8883252,17.2909472 C65.8093835,25.0633827 66.7370231,32.8405794 64.3312372,40.6203153 C61.3317502,50.3134029 47.9733235,61.6868626 37.3334706,61.8839747 L37.2935529,61.8842921 C29.3776358,62.0315706 21.4572502,62.0090345 13.535971,61.9741193 L6.85124668,62 L9.45480253e-15,62 L9.45480253e-15,33.6007779 C9.45480253e-15,29.0643444 0.822781135,26.3473089 0.844229449,26.2771612 L0.844229449,26.2733522 Z" id="Fill-6" fill="#FFD7BB" transform="translate(33.000000, 31.000000) scale(-1, 1) translate(-33.000000, -31.000000) "></path>
                    <path d="M26.0808605,42.2302814 C17.26188,42.2302814 10.1129032,35.0513271 10.1129032,26.1957987 C10.1129032,17.3402702 17.26188,10.1613159 26.0808605,10.1613159 C34.8994103,10.1613159 42.0483871,17.3402702 42.0483871,26.1957987 C42.0483871,35.0513271 34.8994103,42.2302814 26.0808605,42.2302814 Z" id="Fill-14" fill="#FFFFFF" transform="translate(26.080645, 26.195799) scale(-1, 1) translate(-26.080645, -26.195799) "></path>
                </g>
            </g>
        </g>
    </g>
</svg>