<?xml version="1.0" encoding="UTF-8"?>
<svg width="122px" height="30px" viewBox="0 0 122 30" version="1.1" xmlns="http://www.w3.org/2000/svg" xmlns:xlink="http://www.w3.org/1999/xlink">
    <title>Group 16</title>
    <defs>
        <polygon id="path-1" points="0 0 21.6417103 0 21.6417103 23.8482708 0 23.8482708"></polygon>
        <polygon id="path-3" points="0 0 9.84291418 0 9.84291418 9.9429493 0 9.9429493"></polygon>
    </defs>
    <g id="Main-Page" stroke="none" stroke-width="1" fill="none" fill-rule="evenodd">
        <g id="Our-Store" transform="translate(-41.000000, -78.000000)">
            <g id="Group-3" transform="translate(0.000000, 56.000000)">
                <g id="Group-16" transform="translate(41.000000, 22.000000)">
                    <g id="Group-3" transform="translate(0.000000, 4.972147)">
                        <mask id="mask-2" fill="white">
                            <use xlink:href="#path-1"></use>
                        </mask>
                        <g id="Clip-2"></g>
                        <path d="M21.6417103,22.3891049 L21.6417103,13.911048 C19.1194906,13.6957561 17.0743304,13.7317424 15.4300241,14.1660812 C11.1674667,15.2913569 9.13810527,18.2137565 8.34538111,20.7787967 C7.98696694,21.9391198 7.86956075,22.7505325 7.86956075,22.7505325 L7.86956075,0 L-6.19557763e-05,0 L-6.19557763e-05,23.8482708 L20.1975211,23.8482708 C20.9952017,23.8482708 21.6417103,23.1948849 21.6417103,22.3891049" id="Fill-1" fill="#FFFFFF" mask="url(#mask-2)"></path>
                    </g>
                    <path d="M63.9479952,27.3612524 L63.9479952,18.8831954 C61.4257756,18.6679035 59.3806154,18.7038898 57.7363091,19.1382287 C53.4737517,20.2635043 51.4443902,23.185904 50.6516661,25.7509441 C50.2932519,26.9112673 50.1758457,27.7226799 50.1758457,27.7226799 L50.1758457,4.97214744 L42.306223,4.97214744 L42.306223,28.8204182 L62.5038061,28.8204182 C63.3014867,28.8204182 63.9479952,28.1670323 63.9479952,27.3612524" id="Fill-4" fill="#FFFFFF"></path>
                    <path d="M91.4855101,27.3612524 L91.4855101,18.8831954 C88.9632904,18.6679035 86.9181303,18.7038898 85.2735142,19.1382287 C81.0109568,20.2635043 78.9819051,23.185904 78.1891809,25.7509441 C77.8307668,26.9112673 77.7133606,27.7226799 77.7133606,27.7226799 L77.7133606,4.97214744 L69.8437379,4.97214744 L69.8437379,28.8204182 L90.0413209,28.8204182 C90.8386918,28.8204182 91.4855101,28.1670323 91.4855101,27.3612524" id="Fill-6" fill="#FFFFFF"></path>
                    <path d="M33.9799243,28.8089965 L27.5281595,28.8202617 L27.5510832,14.9539619 L35.4207059,14.9539619 L35.4207059,27.3510823 C35.4207059,28.1552977 34.776056,28.8077448 33.9799243,28.8089965" id="Fill-8" fill="#FFFFFF"></path>
                    <g id="Group-12" transform="translate(95.435222, 4.660037)" fill="#FFFFFF">
                        <path d="M18.6756394,12.849296 C18.6756394,16.5536933 16.549627,19.1403253 13.1919337,19.1403253 C9.82897413,19.1403253 7.92724157,16.5158295 7.92724157,12.4750385 C7.92724157,8.41828843 9.84787064,5.81069058 13.2393298,5.81069058 C16.622425,5.81069058 18.6756394,8.3391186 18.6756394,12.101407 L18.6756394,12.849296 Z M18.6967044,6.15647188 L18.5607115,6.15647188 L18.4764516,5.9064454 C17.0084095,1.63002247 14.1098085,0 10.1988501,0 C3.50174047,0 0,4.60186416 0,12.4590794 C0,20.1848664 3.66871129,24.4716159 10.194823,24.4716159 C14.2321711,24.4716159 17.0046921,23.2897009 18.4628213,18.9647748 L18.5461518,18.7235102 L18.6905088,18.7235102 L18.6883404,24.1602562 L26.5449523,24.1602562 L26.5647782,0.311359638 L24.5815738,0.311359638 C21.6808043,0.332325564 19.6684807,2.31720414 19.0501621,4.20038234 C18.6970142,5.27621594 18.6967044,6.15647188 18.6967044,6.15647188 L18.6967044,6.15647188 Z" id="Fill-10"></path>
                    </g>
                    <g id="Group-15" transform="translate(26.553007, 0.000000)">
                        <mask id="mask-4" fill="white">
                            <use xlink:href="#path-3"></use>
                        </mask>
                        <g id="Clip-14"></g>
                        <path d="M4.92145709,-0.000219046982 C2.20779409,-0.000219046982 0,2.22999215 0,4.97152159 C0,7.71242518 2.20779409,9.9429493 4.92145709,9.9429493 C7.63512009,9.9429493 9.84291418,7.71242518 9.84291418,4.97152159 C9.84291418,2.22999215 7.63512009,-0.000219046982 4.92145709,-0.000219046982" id="Fill-13" fill="#FFFFFF" mask="url(#mask-4)"></path>
                    </g>
                </g>
            </g>
        </g>
    </g>
</svg>