<?xml version="1.0" encoding="UTF-8"?>
<svg width="90px" height="83px" viewBox="0 0 90 83" version="1.1" xmlns="http://www.w3.org/2000/svg" xmlns:xlink="http://www.w3.org/1999/xlink">
    <title>Group 27</title>
    <defs>
        <polygon id="path-1" points="0 0 90 0 90 51.3355715 0 51.3355715"></polygon>
        <polygon id="path-3" points="0 0 23.3042961 0 23.3042961 23.3751605 0 23.3751605"></polygon>
    </defs>
    <g id="Page-1" stroke="none" stroke-width="1" fill="none" fill-rule="evenodd">
        <g id="LL21---Shipping-address---empty" transform="translate(-130.000000, -141.000000)">
            <g id="Group-25" transform="translate(130.000000, 141.000000)">
                <g id="Group-3" transform="translate(0.000000, 31.664429)">
                    <mask id="mask-2" fill="white">
                        <use xlink:href="#path-1"></use>
                    </mask>
                    <g id="Clip-2"></g>
                    <path d="M70.0252781,51.3355715 L0,51.3355715 L0,19.2018673 C0,8.59692417 8.94309628,0 19.9747219,0 L90,0 L90,32.1334341 C90,42.7386473 81.0569037,51.3355715 70.0252781,51.3355715" id="Fill-1" fill="#E9D9FF" mask="url(#mask-2)"></path>
                </g>
                <path d="M65.0648969,61.2117576 C65.0648969,64.66793 55.6186412,67.4698853 43.9660365,67.4698853 C32.3134317,67.4698853 22.8671761,64.66793 22.8671761,61.2117576 C22.8671761,57.7555852 32.3134317,54.9536299 43.9660365,54.9536299 C55.6186412,54.9536299 65.0648969,57.7555852 65.0648969,61.2117576" id="Fill-4" fill="#D4B1EF"></path>
                <path d="M43.9659147,56.0226122 C38.4296409,56.0226122 33.2389656,56.6581985 29.3490802,57.8117831 C25.3511001,58.9974372 23.9327763,60.3843653 23.9327763,61.2117576 C23.9327763,63.3277317 31.7369065,66.400903 43.9659147,66.400903 C49.5021884,66.400903 54.6931682,65.7656221 58.5830537,64.6120375 C62.5807293,63.426078 63.9990531,62.0391499 63.9990531,61.2117576 C63.9990531,59.096089 56.1949228,56.0226122 43.9659147,56.0226122 M43.9659147,68.5388675 C38.2308077,68.5388675 32.825161,67.8724334 28.7446636,66.6620401 C24.2022517,65.314817 21.8013322,63.4300485 21.8013322,61.2117576 C21.8013322,58.9934667 24.2022517,57.1090036 28.7446636,55.7614751 C32.825161,54.5513872 38.2308077,53.8846477 43.9659147,53.8846477 C49.7013262,53.8846477 55.1069729,54.5513872 59.1871658,55.7614751 C63.7295776,57.1086982 66.1304971,58.9934667 66.1304971,61.2117576 C66.1304971,63.4300485 63.7295776,65.314817 59.1871658,66.6620401 C55.1069729,67.8724334 49.7013262,68.5388675 43.9659147,68.5388675" id="Fill-6" fill="#A774C8"></path>
                <path d="M60.9924989,38.0050992 C57.9853358,45.1321568 50.4037893,53.9500388 43.7853509,57.8777851 C35.2955047,51.387841 28.0032255,43.9568871 25.2926376,33.1073279 C22.4139702,21.5843098 28.8089114,10.8150769 39.8921161,8.41383732 C52.0300811,5.78566804 63.4135149,15.109026 63.2597465,27.550758 C63.2155951,31.1929333 62.4026014,34.6594901 60.9924989,38.0050992 M43.972309,5.47474691 C43.972309,5.47474691 41.628025,5.51842247 38.771281,6.1775264 C38.7383958,6.18485656 38.7015523,6.19218673 38.6686672,6.20318197 C37.3356011,6.54708884 36.0317664,6.94597194 34.7937018,7.49512341 C24.5968734,12.0340221 19.8538013,23.1181466 23.0805032,34.6374996 C26.2158574,45.823941 33.757211,53.7011187 42.9467799,60.2277136 C43.4300087,60.5719259 44.6498037,60.443648 45.1808378,60.0594253 C47.4005846,58.4596169 49.6054112,56.8014727 51.6013563,54.9347242 C58.6960202,48.305507 64.1056253,40.6955749 65.6000721,30.7757248 C67.6072834,17.4479592 57.4287244,5.47841199 43.972309,5.47474691" id="Fill-8" fill="#A774C8"></path>
                <path d="M43.9160084,34.3277354 C48.5765632,34.3447817 52.430823,30.5355398 52.4725384,25.8705011 C52.5142538,21.2158469 48.7190654,17.3351358 44.0557703,17.2642775 C39.3370576,17.192503 35.3932771,21.0948992 35.4063377,25.8231605 C35.4194634,30.480869 39.2514953,34.3105743 43.9160084,34.3277354 M43.7850769,57.8779684 C35.2937082,51.387108 28.0029515,43.9555432 25.2926681,33.1062894 C22.4143051,21.5841876 28.8086373,10.8137331 39.8915375,8.41340972 C52.0298071,5.7846296 63.4123274,15.1101255 63.2609949,27.5524684 C63.2168435,31.1943383 62.4023274,34.6578408 60.9907024,38.0065042 C57.9865843,45.1332563 50.4019928,53.9508329 43.7850769,57.8779684" id="Fill-10" fill="#FFEBDE"></path>
                <path d="M43.9509946,19.8118092 C40.6268553,19.8072337 37.9043922,22.52703 37.9243781,25.8323232 C37.9442807,29.0988276 40.7739249,31.8824574 44.0201143,31.8290083 C47.2130175,31.7764755 49.9248233,29.0466002 49.955577,25.8540082 C49.9875487,22.5484096 47.2723934,19.8163964 43.9509946,19.8118092 M43.915978,34.3277354 C39.2514649,34.3105743 35.4194329,30.480869 35.4063073,25.8231605 C35.3932466,21.0948992 39.3370271,17.192503 44.0557398,17.2642775 C48.719035,17.3351358 52.5142234,21.2158469 52.472508,25.8705011 C52.4307926,30.5355398 48.5765327,34.3447817 43.915978,34.3277354" id="Fill-12" fill="#A774C8"></path>
                <path d="M43.9509946,19.8118092 C40.6268553,19.8072337 37.9043922,22.52703 37.9243781,25.8323232 C37.9442807,29.0988276 40.7739249,31.8824574 44.0201143,31.8290083 C47.2130175,31.7764755 49.9248233,29.0466002 49.955577,25.8540082 C49.9875487,22.5484096 47.2723934,19.8163964 43.9509946,19.8118092 Z M43.915978,34.3277354 C39.2514649,34.3105743 35.4194329,30.480869 35.4063073,25.8231605 C35.3932466,21.0948992 39.3370271,17.192503 44.0557398,17.2642775 C48.719035,17.3351358 52.5142234,21.2158469 52.472508,25.8705011 C52.4307926,30.5355398 48.5765327,34.3447817 43.915978,34.3277354 Z" id="Stroke-14" stroke="#A179C5"></path>
                <path d="M43.9509946,19.8118092 C47.2723934,19.8163964 49.9875487,22.5484096 49.955577,25.8540082 C49.9248233,29.0466002 47.2130175,31.7764755 44.0201143,31.8290083 C40.7739249,31.8824574 37.9442807,29.0988276 37.9243781,25.8323232 C37.9043922,22.52703 40.6268553,19.8072337 43.9509946,19.8118092" id="Fill-16" fill="#FFFFFF"></path>
                <path d="M74.6932692,11.6875497 C74.6932692,17.4563889 70.0308875,22.1327282 64.2799469,22.1327282 C58.5287018,22.1327282 53.8666247,17.4563889 53.8666247,11.6875497 C53.8666247,5.91871052 58.5287018,1.2423712 64.2799469,1.2423712 C70.0308875,1.2423712 74.6932692,5.91871052 74.6932692,11.6875497" id="Fill-18" fill="#FFFFFF"></path>
                <g id="Group-22" transform="translate(52.627768, 0.000000)">
                    <mask id="mask-4" fill="white">
                        <use xlink:href="#path-3"></use>
                    </mask>
                    <g id="Clip-21"></g>
                    <path d="M11.6519958,2.48480348 C6.59316551,2.48480348 2.477347,6.61321303 2.477347,11.6875192 C2.477347,16.7621307 6.59316551,20.8902349 11.6519958,20.8902349 C16.7111305,20.8902349 20.8269491,16.7621307 20.8269491,11.6875192 C20.8269491,6.61321303 16.7111305,2.48480348 11.6519958,2.48480348 M11.6519958,23.3751605 C5.22690986,23.3751605 0,18.1322606 0,11.6875192 C0,5.24308318 5.22690986,-0.000122169403 11.6519958,-0.000122169403 C18.0770817,-0.000122169403 23.3042961,5.24308318 23.3042961,11.6875192 C23.3042961,18.1322606 18.0770817,23.3751605 11.6519958,23.3751605" id="Fill-20" fill="#A179C5" mask="url(#mask-4)"></path>
                </g>
                <path d="M65.7711052,6.42788205 L65.4492572,13.1270413 L63.1107585,13.1270413 L62.788606,6.42788205 L65.7711052,6.42788205 Z M63.1177618,16.5468683 C62.8236226,16.2802335 62.6765529,15.940908 62.6765529,15.5288917 C62.6765529,15.1168754 62.8236226,14.7751065 63.1177618,14.503585 C63.4119011,14.2320635 63.8013464,14.09615 64.2870112,14.09615 C64.7629322,14.09615 65.1478101,14.2320635 65.4419494,14.503585 C65.7360886,14.7751065 65.8831583,15.1168754 65.8831583,15.5288917 C65.8831583,15.9314399 65.7360886,16.2686274 65.4419494,16.5398435 C65.1478101,16.8116704 64.7629322,16.9472785 64.2870112,16.9472785 C63.8013464,16.9472785 63.4119011,16.8138084 63.1177618,16.5468683 L63.1177618,16.5468683 Z" id="Fill-23" fill="#A179C5"></path>
            </g>
        </g>
    </g>
</svg>