<?xml version="1.0" encoding="UTF-8"?>
<svg width="92px" height="22px" viewBox="0 0 92 22" version="1.1" xmlns="http://www.w3.org/2000/svg" xmlns:xlink="http://www.w3.org/1999/xlink">
    <!-- Generator: Sketch 64 (93537) - https://sketch.com -->
    <title>Group 16</title>
    <desc>Created with Sketch.</desc>
    <defs>
        <polygon id="path-1" points="0 0.183763641 16.1627329 0.183763641 16.1627329 17.8154026 0 17.8154026"></polygon>
        <polygon id="path-3" points="0.165648706 0.209374412 7.51665706 0.209374412 7.51665706 7.56045217 0.165648706 7.56045217"></polygon>
    </defs>
    <g id="Page-1" stroke="none" stroke-width="1" fill="none" fill-rule="evenodd">
        <g id="Group-16">
            <g id="Group-3" transform="translate(0.000000, 3.723718)">
                <mask id="mask-2" fill="white">
                    <use xlink:href="#path-1"></use>
                </mask>
                <g id="Clip-2"></g>
                <path d="M16.1627329,16.7366039 L16.1627329,10.4685586 C14.2790573,10.3093878 12.7516651,10.3359934 11.5236437,10.6571113 C8.34022726,11.4890565 6.82463414,13.6496616 6.23260196,15.5460616 C5.96492661,16.4039183 5.87724385,17.0038165 5.87724385,17.0038165 L5.87724385,0.183763641 L-4.62705882e-05,0.183763641 L-4.62705882e-05,17.8154026 L15.0841655,17.8154026 C15.6798993,17.8154026 16.1627329,17.3323377 16.1627329,16.7366039" id="Fill-1" fill="#000000" mask="url(#mask-2)"></path>
            </g>
            <path d="M47.7584421,20.460322 L47.7584421,14.1922768 C45.8747665,14.0331059 44.3473744,14.0597115 43.119353,14.3808294 C39.9359365,15.2127746 38.4203434,17.3733797 37.8283112,19.2697798 C37.5606358,20.1276365 37.4729531,20.7275347 37.4729531,20.7275347 L37.4729531,3.90748177 L31.595663,3.90748177 L31.595663,21.5391208 L46.6798747,21.5391208 C47.2756085,21.5391208 47.7584421,21.0560558 47.7584421,20.460322" id="Fill-4" fill="#000000"></path>
            <path d="M68.3243536,20.460322 L68.3243536,14.1922768 C66.440678,14.0331059 64.9132859,14.0597115 63.6850331,14.3808294 C60.5016166,15.2127746 58.9862549,17.3733797 58.3942227,19.2697798 C58.1265473,20.1276365 58.0388646,20.7275347 58.0388646,20.7275347 L58.0388646,3.90748177 L52.1615744,3.90748177 L52.1615744,21.5391208 L67.2457862,21.5391208 C67.8412887,21.5391208 68.3243536,21.0560558 68.3243536,20.460322" id="Fill-6" fill="#000000"></path>
            <path d="M25.3773123,21.5306764 L20.5589246,21.5390051 L20.5760447,11.2872936 L26.4533349,11.2872936 L26.4533349,20.452803 C26.4533349,21.0473801 25.9718894,21.529751 25.3773123,21.5306764" id="Fill-8" fill="#000000"></path>
            <g id="Group-12" transform="translate(71.256706, 3.492365)" fill="#FFFFFF">
                <path d="M13.9649956,9.68417963 C13.9649956,12.4229357 12.3772204,14.3352992 9.86958588,14.3352992 C7.35801835,14.3352992 5.93774264,12.394942 5.93774264,9.40748151 C5.93774264,6.40822198 7.37213088,4.48035792 9.90498288,4.48035792 C12.4315883,4.48035792 13.9649956,6.34968969 13.9649956,9.1312461 L13.9649956,9.68417963 Z M13.9807276,4.73600292 L13.8791637,4.73600292 L13.8162357,4.55115192 C12.7198541,1.38948263 10.5550846,0.184365159 7.63425376,0.184365159 C2.63263452,0.184365159 0.0174208765,3.58664151 0.0174208765,9.39568251 C0.0174208765,15.1075553 2.75733376,18.2768592 7.63124617,18.2768592 C10.6464691,18.2768592 12.7170779,17.4030392 13.8060562,14.2055102 L13.8682901,14.027137 L13.9761006,14.027137 L13.9744811,18.046663 L19.8420544,18.046663 L19.856861,0.414561335 L18.3757395,0.414561335 C16.2093505,0.430061982 14.7064818,1.89753369 14.2447013,3.28981569 C13.980959,4.0852071 13.9807276,4.73600292 13.9807276,4.73600292 L13.9807276,4.73600292 Z" id="Fill-10"></path>
            </g>
            <g id="Group-15" transform="translate(19.665000, 0.022071)">
                <mask id="mask-4" fill="white">
                    <use xlink:href="#path-3"></use>
                </mask>
                <g id="Clip-14"></g>
                <path d="M3.84115288,0.209212465 C1.81450112,0.209212465 0.165648706,1.85806488 0.165648706,3.88494799 C0.165648706,5.91136841 1.81450112,7.56045217 3.84115288,7.56045217 C5.86780465,7.56045217 7.51665706,5.91136841 7.51665706,3.88494799 C7.51665706,1.85806488 5.86780465,0.209212465 3.84115288,0.209212465" id="Fill-13" fill="#000000" mask="url(#mask-4)"></path>
            </g>
        </g>
    </g>
</svg>