<?xml version="1.0" encoding="UTF-8"?>
<svg width="362px" height="59px" viewBox="0 0 362 59" version="1.1" xmlns="http://www.w3.org/2000/svg" xmlns:xlink="http://www.w3.org/1999/xlink">
    <title>Group</title>
    <defs>
        <rect id="path-1" x="0" y="0" width="361" height="58.3632112"></rect>
        <polygon id="path-3" points="0.197727788 0.217388764 12.5319811 0.217388764 12.5319811 15.505618 0.197727788 15.505618"></polygon>
        <polygon id="path-5" points="0.143931947 0.142651685 11.746276 0.142651685 11.746276 11.6038876 0.143931947 11.6038876"></polygon>
    </defs>
    <g id="Page-1" stroke="none" stroke-width="1" fill="none" fill-rule="evenodd">
        <g id="Lilla-about-us-mob" transform="translate(1.000000, -757.000000)">
            <g id="Group" transform="translate(-0.122101, 757.317753)">
                <mask id="mask-2" fill="white">
                    <use xlink:href="#path-1"></use>
                </mask>
                <use id="Mask" fill="#E9D9FF" xlink:href="#path-1"></use>
                <g id="Group-46" mask="url(#mask-2)">
                    <g transform="translate(45.199723, 18.797484)" id="Group-45">
                        <g transform="translate(0.000000, 0.000000)">
                            <path d="M144.872711,12.1126787 C146.254866,12.1126787 147.047002,11.5369034 147.047002,10.4463416 C147.047002,9.33510562 146.214034,8.75829663 144.913543,8.75829663 C143.633467,8.75829663 142.739251,9.33510562 142.739251,10.4256674 C142.739251,11.5162292 143.47014,12.1126787 144.872711,12.1126787 M144.973769,20.6934876 C146.681558,20.6934876 148.327078,20.3017124 148.327078,19.1501618 C148.327078,18.4296674 147.738079,18.2032854 145.766926,18.2032854 L143.450745,18.2032854 C142.45445,18.2032854 142.027758,18.5320045 142.027758,19.1904764 C142.027758,20.0960045 142.84031,20.6934876 144.973769,20.6934876 M139.284885,19.8902966 C139.284885,18.7790607 140.341406,18.285982 141.520423,18.1619371 L141.520423,18.0999146 C139.884091,18.0492629 138.817361,17.2253978 138.817361,15.8164539 C138.817361,14.7672404 139.590102,13.6146562 141.479592,13.2859371 L141.479592,13.2135775 C140.300575,12.606791 139.610518,11.6495775 139.610518,10.4256674 C139.610518,8.36755506 141.58065,6.94827416 144.933958,6.94827416 C145.817966,6.94827416 146.630518,7.05061124 147.321595,7.24598202 L147.656416,3.88229663 L151.131198,3.88229663 L151.131198,3.98463371 L148.164771,7.5447236 C149.434639,8.13083596 150.175735,9.1087236 150.175735,10.4256674 C150.175735,12.606791 148.12394,13.9237348 144.954374,13.9237348 C144.191841,13.9237348 143.500764,13.8513753 142.870934,13.7076899 C141.906284,13.8513753 141.459176,14.1904315 141.459176,14.7879146 C141.459176,15.2200045 141.82462,15.5280494 142.739251,15.5280494 L146.883675,15.5280494 C149.322352,15.5280494 151.110783,16.4129034 151.110783,18.4503416 C151.110783,20.9808584 148.347493,22.482836 144.34496,22.482836 C140.462881,22.482836 139.284885,21.0635551 139.284885,19.8902966" id="Fill-1" fill="#4E2F63"></path>
                            <path d="M160.254238,11.3719236 C159.938813,9.86994607 158.994578,9.17012584 157.632839,9.17012584 C156.260892,9.17012584 155.234994,9.83893483 154.889966,11.3719236 L160.254238,11.3719236 Z M157.551176,18.4094067 C153.975335,18.4094067 151.780628,16.1662607 151.780628,12.8325528 C151.780628,9.35515955 154.077414,6.94765393 157.632839,6.94765393 C161.087206,6.94765393 163.382972,9.10810337 163.382972,13.2036539 L154.787887,13.2036539 C154.930798,14.9010022 155.74335,16.1249124 157.734919,16.1249124 C159.218132,16.1249124 160.477792,15.4457663 160.884068,13.9231146 L163.362556,14.7056315 C162.448945,17.2981708 160.172575,18.4094067 157.551176,18.4094067 L157.551176,18.4094067 Z" id="Fill-3" fill="#4E2F63"></path>
                            <path d="M166.369815,7.19491685 L167.730533,4.00592809 L169.092272,4.00592809 L169.092272,7.19491685 L172.323085,7.19491685 L172.323085,9.39671461 L169.092272,9.39671461 L169.092272,14.3347371 C169.092272,15.7137034 169.498548,16.1044449 170.737792,16.1044449 C171.266563,16.1044449 171.81473,16.0217483 172.425164,15.9194112 L172.425164,18.0798607 C171.469701,18.2648944 170.79904,18.3682652 169.53938,18.3682652 C166.917981,18.3682652 166.044181,17.3386921 166.044181,15.5286697 L166.044181,9.39671461 L164.316998,9.39671461 L164.316998,7.19491685 L166.369815,7.19491685 Z" id="Fill-5" fill="#4E2F63"></path>
                            <path d="M179.211096,16.2485438 C180.673894,16.2485438 181.690605,15.7130831 181.690605,14.8695775 C181.690605,14.2317798 181.100586,13.944409 179.962401,13.8410382 C179.170265,13.7790157 178.499603,13.7583416 177.707467,13.6766787 C176.366144,13.5526337 174.11121,13.0182067 174.11121,10.590027 C174.11121,8.32620674 176.224253,6.94827416 179.007958,6.94827416 C180.93828,6.94827416 182.848185,7.56539775 184.067013,9.12939775 L182.279603,10.6520494 C181.446635,9.60283596 180.30845,9.08804944 179.110038,9.08804944 C177.849357,9.08804944 176.956163,9.54081348 176.956163,10.2613079 C176.956163,10.816409 177.280775,11.1048135 178.378129,11.2071506 C178.987543,11.269173 179.840926,11.2898472 180.491172,11.350836 C182.177524,11.4955551 184.493705,12.0920045 184.493705,14.6028809 C184.493705,17.0093528 182.298998,18.4089933 179.170265,18.4089933 C176.244669,18.4089933 174.35518,17.2977573 173.420132,15.1166337 L175.614839,14.2317798 C176.265085,15.6107461 177.606408,16.2485438 179.211096,16.2485438" id="Fill-7" fill="#4E2F63"></path>
                            <path d="M200.017633,11.3719236 C199.702208,9.86994607 198.757974,9.17012584 197.396234,9.17012584 C196.024287,9.17012584 194.998389,9.83893483 194.653361,11.3719236 L200.017633,11.3719236 Z M197.314571,18.4094067 C193.73873,18.4094067 191.544023,16.1662607 191.544023,12.8325528 C191.544023,9.35515955 193.840809,6.94765393 197.396234,6.94765393 C200.850601,6.94765393 203.146367,9.10810337 203.146367,13.2036539 L194.551282,13.2036539 C194.694193,14.9010022 195.506745,16.1249124 197.498314,16.1249124 C198.981527,16.1249124 200.241187,15.4457663 200.647463,13.9231146 L203.125951,14.7056315 C202.21234,17.2981708 199.93597,18.4094067 197.314571,18.4094067 L197.314571,18.4094067 Z" id="Fill-9" fill="#4E2F63"></path>
                            <path d="M209.0389,16.0838742 C210.267936,16.0838742 211.933871,15.1783461 212.452435,13.7797393 L212.452435,12.7098517 L208.916405,13.9440989 C208.144684,14.2118292 207.616934,14.4175371 207.616934,15.0139865 C207.616934,15.528773 208.043626,16.0838742 209.0389,16.0838742 M204.62907,15.4667506 C204.62907,13.8820764 205.665176,12.9352 207.53527,12.4214472 L212.452435,11.0734921 L212.452435,10.9401438 C212.452435,9.66454831 211.70113,9.08773933 210.359807,9.08773933 C208.998068,9.08773933 207.941546,9.80823371 207.311716,11.5779416 L204.852624,10.6517393 C205.828503,7.99717753 207.880299,6.9686382 210.481282,6.9686382 C213.73251,6.9686382 215.459694,8.63497528 215.459694,10.8781213 L215.459694,14.725582 C215.459694,15.528773 215.724079,15.9598292 216.39372,15.9598292 C216.698938,15.9598292 217.125629,15.8574921 217.410431,15.6931326 L217.410431,17.9352449 C216.902076,18.161627 215.947633,18.3673348 215.23614,18.3673348 C213.712095,18.3673348 212.534098,17.5238292 212.534098,15.8988404 L212.534098,15.6724584 L212.452435,15.6724584 C211.680715,17.3077843 210.187293,18.4086831 208.1651,18.4086831 C205.808087,18.4086831 204.62907,16.8860315 204.62907,15.4667506" id="Fill-11" fill="#4E2F63"></path>
                            <path d="M224.013335,16.2485438 C225.476132,16.2485438 226.492843,15.7130831 226.492843,14.8695775 C226.492843,14.2317798 225.902824,13.944409 224.764639,13.8410382 C223.972503,13.7790157 223.301841,13.7583416 222.509705,13.6766787 C221.168382,13.5526337 218.913448,13.0182067 218.913448,10.590027 C218.913448,8.32620674 221.026491,6.94827416 223.810197,6.94827416 C225.740518,6.94827416 227.650423,7.56539775 228.869251,9.12939775 L227.081841,10.6520494 C226.248873,9.60283596 225.110688,9.08804944 223.912276,9.08804944 C222.652616,9.08804944 221.758401,9.54081348 221.758401,10.2613079 C221.758401,10.816409 222.083013,11.1048135 223.180367,11.2071506 C223.789781,11.269173 224.643164,11.2898472 225.29341,11.350836 C226.979762,11.4955551 229.296964,12.0920045 229.296964,14.6028809 C229.296964,17.0093528 227.102257,18.4089933 223.972503,18.4089933 C221.046907,18.4089933 219.157418,17.2977573 218.222371,15.1166337 L220.417078,14.2317798 C221.067323,15.6107461 222.408647,16.2485438 224.013335,16.2485438" id="Fill-13" fill="#4E2F63"></path>
                            <g id="Group-17" transform="translate(229.423236, 6.977528)">
                                <mask id="mask-4" fill="white">
                                    <use xlink:href="#path-3"></use>
                                </mask>
                                <g id="Clip-16"></g>
                                <path d="M12.5319811,0.217388764 L7.73629112,12.3159056 C6.86249149,14.5383775 5.44052552,15.5059281 2.96101701,15.5059281 C2.02699055,15.5059281 1.17360681,15.361209 0.62441966,15.1555011 L0.62441966,13.0364 C1.43799244,13.2834562 2.08823819,13.3661528 2.79871078,13.3661528 C3.53062004,13.3661528 3.95731191,13.2421079 4.2625293,12.9950517 C4.5667259,12.7479955 4.68922117,12.3986022 4.68922117,11.9458382 C4.68922117,11.3700629 4.4646465,10.6288944 4.11961815,9.78538876 L0.197727788,0.217388764 L3.44895652,0.217388764 L6.44600756,8.50979326 L6.54808696,8.50979326 L9.36241588,0.217388764 L12.5319811,0.217388764 Z" id="Fill-15" fill="#4E2F63" mask="url(#mask-4)"></path>
                            </g>
                            <g id="Group-20" transform="translate(247.797527, 0.000000)">
                                <mask id="mask-6" fill="white">
                                    <use xlink:href="#path-5"></use>
                                </mask>
                                <g id="Clip-19"></g>
                                <path d="M8.61754253,4.56640449 C8.3021172,3.06442697 7.3578828,2.36460674 5.99614367,2.36460674 C4.62521739,2.36460674 3.59829868,3.03341573 3.25327032,4.56640449 L8.61754253,4.56640449 Z M5.91448015,11.6038876 C2.33863894,11.6038876 0.143931947,9.36074157 0.143931947,6.02703371 C0.143931947,2.54964045 2.44071834,0.142134831 5.99614367,0.142134831 C9.4505104,0.142134831 11.746276,2.30258427 11.746276,6.39813483 L3.15119093,6.39813483 C3.29410208,8.09548315 4.10665406,9.31939326 6.09822306,9.31939326 C7.58143667,9.31939326 8.84109641,8.64024719 9.2473724,7.11759551 L11.7258601,7.90011236 C10.8122495,10.4926517 8.53587902,11.6038876 5.91448015,11.6038876 L5.91448015,11.6038876 Z" id="Fill-18" fill="#4E2F63" mask="url(#mask-6)"></path>
                            </g>
                            <path d="M268.809346,2.89965393 C266.310442,2.89965393 264.765981,4.9980809 264.765981,7.79632809 L264.765981,11.356418 L261.71789,11.356418 L261.71789,0.389811236 L264.684318,0.389811236 L264.684318,4.21659775 L264.725149,4.21659775 C265.192673,2.13884494 265.802087,1.15062022 267.183221,0.554170787 C267.609913,0.369137079 268.199932,0.265766292 268.768514,0.265766292 C269.133958,0.265766292 269.480008,0.307114607 269.784204,0.389811236 L269.784204,3.02266517 C269.520839,2.9616764 269.17479,2.89965393 268.809346,2.89965393" id="Fill-21" fill="#4E2F63"></path>
                            <path d="M242.99755,20.057964 C242.922011,20.057964 242.845452,20.0455596 242.770934,20.0186831 C242.50859,19.923582 242.329951,19.6765258 242.320764,19.3943236 L242.155395,14.1017393 C242.144166,13.7234022 242.437134,13.4070876 242.810745,13.3946831 C242.818911,13.3946831 242.826057,13.3946831 242.833202,13.3946831 C243.196605,13.3946831 243.497739,13.6872225 243.508968,14.0583236 L243.619214,17.6008404 L248.335282,12.1004809 C248.581293,11.8141438 249.009006,11.7831326 249.290745,12.0322562 C249.573505,12.2803461 249.603108,12.7134697 249.358117,12.998773 L243.508968,19.8222787 C243.378306,19.9742337 243.19048,20.057964 242.99755,20.057964" id="Fill-23" fill="#4E2F63"></path>
                            <polygon id="Fill-25" fill="#4E2F63" points="17.1289225 18.1623506 14.0808318 18.1623506 14.0808318 6.47524944 13.9899811 6.47524944 9.97621928 18.1623506 7.11187146 18.1623506 2.99705104 6.47524944 2.90517958 6.47524944 2.90517958 18.1623506 0 18.1623506 0 3.14154157 4.81508507 3.14154157 8.61550095 14.4585753 8.67572779 14.4585753 12.4353119 3.14154157 17.1289225 3.14154157"></polygon>
                            <path d="M25.6018185,16.1457933 C27.4708922,16.1457933 28.5478299,14.766827 28.5478299,12.6890742 C28.5478299,10.6102876 27.4708922,9.2116809 25.6018185,9.2116809 C23.7327448,9.2116809 22.6558072,10.6102876 22.6558072,12.6890742 C22.6558072,14.766827 23.7327448,16.1457933 25.6018185,16.1457933 M19.5260529,12.6890742 C19.5260529,9.23235506 21.9238979,6.94786067 25.6018185,6.94786067 C29.2797391,6.94786067 31.6775841,9.23235506 31.6775841,12.6890742 C31.6775841,16.1457933 29.2797391,18.4096135 25.6018185,18.4096135 C21.9238979,18.4096135 19.5260529,16.1457933 19.5260529,12.6890742" id="Fill-27" fill="#4E2F63"></path>
                            <path d="M34.6636106,7.19502022 L36.0253497,4.00603146 L37.3870888,4.00603146 L37.3870888,7.19502022 L40.6168809,7.19502022 L40.6168809,9.39681798 L37.3870888,9.39681798 L37.3870888,14.3348404 C37.3870888,15.7138067 37.7933648,16.1045483 39.0326087,16.1045483 C39.5603592,16.1045483 40.1095463,16.0218517 40.7189603,15.9195146 L40.7189603,18.079964 C39.7634972,18.2649978 39.0928355,18.3683685 37.8331758,18.3683685 C35.2127977,18.3683685 34.3379773,17.3387955 34.3379773,15.528773 L34.3379773,9.39681798 L32.6118147,9.39681798 L32.6118147,7.19502022 L34.6636106,7.19502022 Z" id="Fill-29" fill="#4E2F63"></path>
                            <path d="M45.6764461,3.14154157 L45.6764461,9.58154157 L45.7376938,9.58154157 C46.2460491,7.95655281 47.6067675,6.94765393 49.6789792,6.94765393 C52.2197353,6.94765393 53.6417013,8.49097978 53.6417013,11.3305753 L53.6417013,18.1623506 L50.5936106,18.1623506 L50.5936106,11.741991 C50.5936106,10.2400135 49.8423062,9.43785618 48.3999244,9.43785618 C46.7942155,9.43785618 45.6764461,10.4457213 45.6764461,12.2981258 L45.6764461,18.1623506 L42.6283554,18.1623506 L42.6283554,3.14154157 L45.6764461,3.14154157 Z" id="Fill-31" fill="#4E2F63"></path>
                            <path d="M64.1464877,11.372027 C63.8310624,9.87004944 62.886828,9.17022921 61.5250888,9.17022921 C60.1541626,9.17022921 59.1272439,9.8390382 58.7822155,11.372027 L64.1464877,11.372027 Z M61.4434253,18.4095101 C57.8675841,18.4095101 55.6728771,16.166364 55.6728771,12.8326562 C55.6728771,9.35526292 57.9696635,6.9477573 61.5250888,6.9477573 C64.9794556,6.9477573 67.2752212,9.10820674 67.2752212,13.2037573 L58.6801361,13.2037573 C58.8230473,14.9011056 59.6355992,16.1250157 61.6271682,16.1250157 C63.1103819,16.1250157 64.3700416,15.4458697 64.7763176,13.923218 L67.2548053,14.7057348 C66.3411947,17.2982742 64.0648242,18.4095101 61.4434253,18.4095101 L61.4434253,18.4095101 Z" id="Fill-33" fill="#4E2F63"></path>
                            <path d="M76.5407637,9.70537978 C74.0418601,9.70537978 72.4973989,11.8038067 72.4973989,14.6020539 L72.4973989,18.1621438 L69.4493081,18.1621438 L69.4493081,7.19553708 L72.4157353,7.19553708 L72.4157353,11.0223236 L72.4565671,11.0223236 C72.9240907,8.94457079 73.5335047,7.95634607 74.9146389,7.35989663 C75.3413308,7.17486292 75.9313497,7.07149213 76.4999319,7.07149213 C76.8653762,7.07149213 77.2114253,7.11284045 77.5156219,7.19553708 L77.5156219,9.82839101 C77.2522571,9.76740225 76.9062079,9.70537978 76.5407637,9.70537978" id="Fill-35" fill="#4E2F63"></path>
                            <path d="M82.168707,3.14154157 L82.168707,9.58154157 L82.2299546,9.58154157 C82.73831,7.95655281 84.0990284,6.94765393 86.1712401,6.94765393 C88.7119962,6.94765393 90.1339622,8.49097978 90.1339622,11.3305753 L90.1339622,18.1623506 L87.0858715,18.1623506 L87.0858715,11.741991 C87.0858715,10.2400135 86.3345671,9.43785618 84.8921853,9.43785618 C83.2864764,9.43785618 82.168707,10.4457213 82.168707,12.2981258 L82.168707,18.1623506 L79.1206163,18.1623506 L79.1206163,3.14154157 L82.168707,3.14154157 Z" id="Fill-37" fill="#4E2F63"></path>
                            <path d="M98.2412098,16.1457933 C100.110284,16.1457933 101.187221,14.766827 101.187221,12.6890742 C101.187221,10.6102876 100.110284,9.2116809 98.2412098,9.2116809 C96.3721361,9.2116809 95.2951985,10.6102876 95.2951985,12.6890742 C95.2951985,14.766827 96.3721361,16.1457933 98.2412098,16.1457933 M92.1654442,12.6890742 C92.1654442,9.23235506 94.5632892,6.94786067 98.2412098,6.94786067 C101.91913,6.94786067 104.316975,9.23235506 104.316975,12.6890742 C104.316975,16.1457933 101.91913,18.4096135 98.2412098,18.4096135 C94.5632892,18.4096135 92.1654442,16.1457933 92.1654442,12.6890742" id="Fill-39" fill="#4E2F63"></path>
                            <path d="M111.936079,16.1457933 C113.805153,16.1457933 114.882091,14.766827 114.882091,12.6890742 C114.882091,10.6102876 113.805153,9.2116809 111.936079,9.2116809 C110.067006,9.2116809 108.990068,10.6102876 108.990068,12.6890742 C108.990068,14.766827 110.067006,16.1457933 111.936079,16.1457933 M105.860314,12.6890742 C105.860314,9.23235506 108.258159,6.94786067 111.936079,6.94786067 C115.614,6.94786067 118.011845,9.23235506 118.011845,12.6890742 C118.011845,16.1457933 115.614,18.4096135 111.936079,18.4096135 C108.258159,18.4096135 105.860314,16.1457933 105.860314,12.6890742" id="Fill-41" fill="#4E2F63"></path>
                            <path d="M125.610737,16.1252225 C127.398147,16.1252225 128.658828,14.6645933 128.658828,12.9569079 L128.658828,12.400773 C128.658828,10.6310652 127.398147,9.23245843 125.610737,9.23245843 C123.863138,9.23245843 122.685142,10.6310652 122.685142,12.7098517 C122.685142,14.725582 123.863138,16.1252225 125.610737,16.1252225 M119.555388,12.7098517 C119.555388,9.21178427 121.627599,6.94796404 124.595047,6.94796404 C126.525369,6.94796404 127.947335,7.95686292 128.577164,9.47951461 L128.638412,9.47951461 L128.638412,3.14185169 L131.686503,3.14185169 L131.686503,18.1626607 L128.638412,18.1626607 L128.638412,15.7758292 L128.577164,15.7758292 C127.906503,17.400818 126.525369,18.4086831 124.5338,18.4086831 C121.810321,18.4086831 119.555388,16.289582 119.555388,12.7098517" id="Fill-43" fill="#4E2F63"></path>
                        </g>
                    </g>
                </g>
            </g>
        </g>
    </g>
</svg>