<?xml version="1.0" encoding="UTF-8"?>
<svg width="13px" height="13px" viewBox="0 0 13 13" version="1.1" xmlns="http://www.w3.org/2000/svg" xmlns:xlink="http://www.w3.org/1999/xlink">
    <!-- Generator: Sketch 64 (93537) - https://sketch.com -->
    <title>cancel</title>
    <desc>Created with Sketch.</desc>
    <g id="Page-1" stroke="none" stroke-width="1" fill="none" fill-rule="evenodd">
        <g id="LL21---Saved-Card-failed---add-new" transform="translate(-289.000000, -622.000000)">
            <rect fill="#FFFFFF" x="0" y="0" width="360" height="1016"></rect>
            <g id="Group-5" transform="translate(16.000000, 619.000000)" fill-rule="nonzero">
                <g id="edit" transform="translate(273.000000, 2.000000)">
                    <g id="cancel" transform="translate(0.000000, 1.000000)">
                        <circle id="Oval" fill="#DA2A52" cx="6.5" cy="6.5" r="6.5"></circle>
                        <path d="M10.1867188,9.18125 L7.50546875,6.5 L10.1765625,3.81875 C10.2171875,3.778125 10.2171875,3.7171875 10.1765625,3.6765625 L9.31328125,2.81328125 C9.27265625,2.77265625 9.21171875,2.77265625 9.17109375,2.81328125 L6.5,5.49453125 L3.82890625,2.8234375 C3.78828125,2.7828125 3.72734375,2.7828125 3.68671875,2.8234375 L2.8234375,3.68671875 C2.7828125,3.72734375 2.7828125,3.78828125 2.8234375,3.82890625 L5.484375,6.5 L2.81328125,9.17109375 C2.77265625,9.21171875 2.77265625,9.27265625 2.81328125,9.31328125 L3.6765625,10.1765625 C3.7171875,10.2171875 3.78828125,10.2171875 3.81875,10.1765625 L6.5,7.50546875 L9.17109375,10.1765625 C9.21171875,10.2171875 9.2828125,10.2171875 9.3234375,10.1867188 L10.1867188,9.3234375 C10.2273438,9.2828125 10.2273438,9.221875 10.1867188,9.18125 Z" id="Path" fill="#FFFFFF"></path>
                    </g>
                </g>
            </g>
        </g>
    </g>
</svg>