<?xml version="1.0" encoding="UTF-8"?>
<svg width="65px" height="56px" viewBox="0 0 65 56" version="1.1" xmlns="http://www.w3.org/2000/svg" xmlns:xlink="http://www.w3.org/1999/xlink">
    <!-- Generator: Sketch 64 (93537) - https://sketch.com -->
    <title>Group 26</title>
    <desc>Created with Sketch.</desc>
    <defs>
        <polygon id="path-1" points="0 0.176370717 64.8857741 0.176370717 64.8857741 38.6760125 0 38.6760125"></polygon>
    </defs>
    <g id="Page-1" stroke="none" stroke-width="1" fill="none" fill-rule="evenodd">
        <g id="Group-26">
            <g id="Group-3" transform="translate(0.000000, 17.238364)">
                <mask id="mask-2" fill="white">
                    <use xlink:href="#path-1"></use>
                </mask>
                <g id="Clip-2"></g>
                <path d="M50.484933,38.6760125 L-2.02492212e-05,38.6760125 L-2.02492212e-05,14.5770093 C-2.02492212e-05,6.62372274 6.44753427,0.176370717 14.4008209,0.176370717 L64.8857741,0.176370717 L64.8857741,24.2751713 C64.8857741,32.2286604 58.4382196,38.6760125 50.484933,38.6760125" id="Fill-1" fill="#E9D9FF" mask="url(#mask-2)"></path>
            </g>
            <polyline id="Fill-4" fill="#F8CAC3" points="13.8790997 38.6641262 8.95043925 38.6716184 8.90690343 10.2457617 49.7307508 10.1829891 51.2089439 10.1807617 51.2160312 14.7981916"></polyline>
            <path d="M8.950419,39.6841604 C8.39194548,39.6841604 7.93876791,39.2319953 7.93795794,38.6733193 L7.89421847,10.2472601 C7.89421847,9.97875545 8.00012305,9.72098287 8.18965576,9.53084268 C8.37939097,9.34070249 8.63655607,9.23358411 8.90506075,9.23317913 L51.2075062,9.16838162 L51.2089237,9.16838162 C51.7673972,9.16838162 52.2205748,9.62054673 52.2213847,10.1792227 L52.2286745,14.7966526 L50.2037523,14.79969 L50.1980826,11.1949237 L49.732148,11.1955312 L9.92076168,11.2564813 L9.96126012,37.6576184 L13.8774595,37.6517461 L13.8806994,39.6766682 L8.95203894,39.6841604 L8.950419,39.6841604 Z" id="Fill-6" fill="#A179C5"></path>
            <polygon id="Fill-8" fill="#FFEBDE" points="55.9789112 43.0676231 13.6766682 43.1326231 13.6331324 14.7065639 55.9351729 14.6415639"></polygon>
            <path d="M14.6470919,15.7175062 L14.6875903,42.1186433 L54.9647087,42.0566807 L54.9244128,15.6555436 L14.6470919,15.7175062 Z M13.6767492,44.1451854 C13.408852,44.1451854 13.1516869,44.0388769 12.9619517,43.8497492 C12.7718115,43.660014 12.6646931,43.4028489 12.6642882,43.1341417 L12.6205488,14.708285 C12.6197399,14.1490016 13.07231,13.695014 13.631391,13.694204 L55.9338364,13.629204 L55.9352539,13.629204 C56.2033536,13.629204 56.4603162,13.73531 56.6502539,13.9246402 C56.8403941,14.1141729 56.94731,14.3715405 56.947715,14.6400452 L56.9912519,43.0661044 C56.9920607,43.6251854 56.5396931,44.0791729 55.9804097,44.0799829 L13.6783692,44.1451854 L13.6767492,44.1451854 Z" id="Fill-10" fill="#A179C5"></path>
            <path d="M44.2507352,28.892581 C44.258419,33.9253224 40.1848832,38.0114128 35.1521417,38.0191184 C30.1196028,38.0268022 26.0335125,33.9532664 26.0256044,28.9205249 C26.0179206,23.8877835 30.0914564,19.8016931 35.1241978,19.7939876 C40.1569393,19.7863037 44.2430296,23.8598396 44.2507352,28.892581" id="Fill-12" fill="#FFFFFF"></path>
            <path d="M35.1385545,20.8065 L35.126,20.8065 C30.6594268,20.8133847 27.0311713,24.4525748 27.0380463,28.9189455 C27.0449408,33.3810639 30.6778536,37.0066869 35.137947,37.0066869 L35.150704,37.0066869 C39.6168723,36.9998022 43.2451277,33.3606121 43.2382528,28.8940389 C43.2348006,26.7306121 42.3893956,24.6977928 40.8569346,23.1701916 C39.3277134,21.6458302 37.297324,20.8065 35.1385545,20.8065 L35.1385545,20.8065 Z M35.137947,39.031609 C29.562324,39.031609 25.0218411,34.5000358 25.0131223,28.9221854 C25.0090841,26.2176994 26.0581963,23.6733847 27.9676978,21.7580109 C29.8771994,19.8428396 32.4180717,18.7858302 35.1227601,18.7815779 L35.1385545,18.7815779 C40.7143801,18.7815779 45.2546604,23.3131511 45.2631771,28.8910016 C45.2716698,34.4739143 40.7366542,39.0231044 35.1537414,39.031609 L35.137947,39.031609 Z" id="Fill-14" fill="#A179C5"></path>
            <path d="M32.8824673,28.7281978 C33.3496168,28.7273879 33.7546012,28.321391 33.7537925,27.827715 C33.7529813,27.3605654 33.3469844,26.9731978 32.8798349,26.9740065 L31.4429502,26.9762352 L31.4455826,28.7304252 L32.8824673,28.7281978 Z M30.2867192,26.0876994 C30.2865171,25.9996153 30.3569844,25.9200358 30.4539782,25.9198333 L32.9750062,25.9159837 C34.0328255,25.914366 34.8980748,26.759366 34.8996968,27.8082757 C34.9009097,28.619257 34.3643053,29.281204 33.5978723,29.5910171 L34.8087757,31.8281511 C34.8707383,31.9425592 34.8091807,32.0836963 34.6593364,32.0841012 L33.7337445,32.0855187 C33.6545701,32.0855187 33.6102243,32.0415779 33.5926075,32.0063442 L32.4167352,29.6722165 L31.4380903,29.673634 L31.4417352,31.9215 C31.4417352,32.0095841 31.3625607,32.0891636 31.2744766,32.0891636 L30.4634953,32.0903789 C30.3665016,32.090581 30.2958318,32.0114065 30.2956293,31.9233224 L30.2867192,26.0876994 Z" id="Fill-16" fill="#A179C5"></path>
            <path d="M38.53281,28.7635935 C39.026486,28.7627835 39.4049439,28.3654938 39.4041353,27.8454938 C39.403324,27.3607274 39.0236511,26.9909766 38.5301776,26.9917853 L37.4723583,26.9934065 L37.4749907,28.7652134 L38.53281,28.7635935 Z M36.3248349,26.0783442 C36.3248349,25.9902601 36.3953022,25.9108832 36.4920935,25.9106807 L38.5635888,25.9074386 C39.6479346,25.9058209 40.5397103,26.785852 40.5413324,27.852581 C40.5429502,28.945634 39.6540093,29.8372072 38.5785732,29.8390296 L37.4766106,29.8406495 L37.4798505,31.9121449 C37.480053,32.000229 37.4008785,32.0798084 37.3125919,32.0800109 L36.5016106,32.0812259 C36.4046168,32.0812259 36.333947,32.0020514 36.333947,31.9139673 L36.3248349,26.0783442 Z" id="Fill-18" fill="#A179C5"></path>
            <path d="M59.7279128,9.52422118 C59.7279128,14.2250779 55.9170093,18.0359813 51.2161526,18.0359813 C46.5150935,18.0359813 42.70419,14.2250779 42.70419,9.52422118 C42.70419,4.82336449 46.5150935,1.01246106 51.2161526,1.01246106 C55.9170093,1.01246106 59.7279128,4.82336449 59.7279128,9.52422118" id="Fill-20" fill="#FFFFFF"></path>
            <path d="M51.2161121,2.02496262 C47.0810187,2.02496262 43.7168131,5.38916822 43.7168131,9.52426168 C43.7168131,13.6593551 47.0810187,17.0235607 51.2161121,17.0235607 C55.3512056,17.0235607 58.7154112,13.6593551 58.7154112,9.52426168 C58.7154112,5.38916822 55.3512056,2.02496262 51.2161121,2.02496262 M51.2161121,19.0484829 C45.9642741,19.0484829 41.691891,14.7760997 41.691891,9.52426168 C41.691891,4.27262617 45.9642741,4.04984424e-05 51.2161121,4.04984424e-05 C56.4679502,4.04984424e-05 60.7403333,4.27262617 60.7403333,9.52426168 C60.7403333,14.7760997 56.4679502,19.0484829 51.2161121,19.0484829" id="Fill-22" fill="#A179C5"></path>
            <path d="M52.4349938,5.23810903 L52.1717539,10.6972991 L50.2604299,10.6972991 L49.99719,5.23810903 L52.4349938,5.23810903 Z M50.2660997,13.4841994 C50.0259439,13.2667227 49.9056636,12.9903209 49.9056636,12.6543863 C49.9056636,12.3186542 50.0259439,12.0402274 50.2660997,11.8189034 C50.5066604,11.5977819 50.8249782,11.4870187 51.2218629,11.4870187 C51.611053,11.4870187 51.9255234,11.5977819 52.1660841,11.8189034 C52.4062399,12.0402274 52.5265202,12.3186542 52.5265202,12.6543863 C52.5265202,12.9826262 52.4062399,13.2572056 52.1660841,13.4783271 C51.9255234,13.6998536 51.611053,13.8102118 51.2218629,13.8102118 C50.8249782,13.8102118 50.5066604,13.7014735 50.2660997,13.4841994 L50.2660997,13.4841994 Z" id="Fill-24" fill="#A179C5"></path>
        </g>
    </g>
</svg>