<?xml version="1.0" encoding="UTF-8"?>
<svg width="10px" height="12px" viewBox="0 0 10 12" version="1.1" xmlns="http://www.w3.org/2000/svg" xmlns:xlink="http://www.w3.org/1999/xlink">
    <!-- Generator: Sketch 64 (93537) - https://sketch.com -->
    <title>Shape</title>
    <desc>Created with Sketch.</desc>
    <g id="Page-1" stroke="none" stroke-width="1" fill="none" fill-rule="evenodd">
        <path d="M7,0 L1,0 C0.45,0 0,0.50625 0,1.125 L0,9 L1,9 L1,1.125 L7,1.125 L7,0 L7,0 Z M3.06666667,2 C2.48,2 2,2.5 2,3.11111111 L2,10.8888889 C2,11.5 2.48,12 3.06666667,12 L8.93333333,12 C9.52,12 10,11.5 10,10.8888889 L10,3.11111111 C10,2.5 9.52,2 8.93333333,2 L3.06666667,2 Z M9,11 L3,11 L3,3 L9,3 L9,11 L9,11 Z" id="Shape" fill="#A179C5" fill-rule="nonzero"></path>
    </g>
</svg>