<?xml version="1.0" encoding="UTF-8"?>
<svg width="96px" height="23px" viewBox="0 0 96 23" version="1.1" xmlns="http://www.w3.org/2000/svg" xmlns:xlink="http://www.w3.org/1999/xlink">
    <!-- Generator: Sketch 64 (93537) - https://sketch.com -->
    <title>gopay_vertical</title>
    <desc>Created with Sketch.</desc>
    <g id="Page-1" stroke="none" stroke-width="1" fill="none" fill-rule="evenodd">
        <g id="gopay_vertical" fill-rule="nonzero">
            <g id="Group">
                <circle id="Oval" fill="#00AED6" cx="11.1816964" cy="11.1816964" r="11.1816964"></circle>
                <path d="M17.703497,10.8325893 C17.6206829,9.40889523 16.4069894,8.31733443 14.9825149,8.38541667 L7.91994048,8.38541667 C7.66286507,8.38541667 7.45446429,8.17701588 7.45446429,7.91994048 C7.45446429,7.66286507 7.66286507,7.45446429 7.91994048,7.45446429 L15.0766369,7.45446429 C15.0304315,6.5218006 14.330506,5.53950893 13.4457589,5.40089286 C11.3609493,5.03297073 9.22781557,5.03297073 7.14300595,5.40089286 C5.97760417,5.58571429 5.09285714,6.73571429 4.9063244,7.8874256 C4.57549832,10.082047 4.57549832,12.3138608 4.9063244,14.5084821 C5.1578869,15.785119 6.17269345,16.774256 7.45446429,16.9950149 C10.0419643,17.3167411 12.6602679,17.3167411 15.2494792,16.9950149 C16.4131696,16.8615327 17.178125,15.7970982 17.4108631,14.6676339 C17.6470238,13.4012649 17.7445685,12.1177827 17.703497,10.8325893 L17.703497,10.8325893 Z M15.3761161,12.3967262 L15.3761161,12.8125744 C15.3761161,13.0701224 15.1673322,13.2789063 14.9097842,13.2789063 C14.6522363,13.2789063 14.4434524,13.0701224 14.4434524,12.8125744 L14.4434524,12.3967262 C14.2276786,12.2037323 14.1533794,11.8976041 14.2566761,11.6271697 C14.3599728,11.3567354 14.6194377,11.1780937 14.9089286,11.1780937 C15.1984194,11.1780937 15.4578843,11.3567354 15.5611811,11.6271697 C15.6644778,11.8976041 15.5901785,12.2037323 15.3744048,12.3967262 L15.3761161,12.3967262 Z" id="Shape" fill="#FFFFFF"></path>
            </g>
            <path d="M52.1470238,9.9718006 C52.1567305,8.68778446 51.390729,7.52479345 50.2072274,7.02668128 C49.0237259,6.52856911 47.6566231,6.79377915 46.7452224,7.69829026 C45.8338216,8.60280136 45.5582457,9.96785237 46.0473632,11.1550995 C46.5364806,12.3423467 47.6936257,13.1171508 48.9776786,13.1171875 C49.8271213,13.1625438 50.656134,12.8465863 51.2599142,12.2473703 C51.8636943,11.6481544 52.1859332,10.8215631 52.1470238,9.9718006 M42.7040179,9.9718006 C42.7040179,6.64330357 45.325744,4.09858631 48.9776786,4.09858631 C52.6296131,4.09858631 55.2513393,6.66041667 55.2513393,9.9718006 C55.2513393,13.2831845 52.6467262,15.8450149 48.9776786,15.8450149 C45.308631,15.8450149 42.7040179,13.2831845 42.7040179,9.9718006 M37.7292411,10.5793155 C37.7292411,11.9517857 36.3396577,13.0744048 34.5684524,13.0744048 C33.7004577,13.1650127 32.8368253,12.8671367 32.2092517,12.2606913 C31.5816781,11.6542459 31.2544121,10.8013169 31.315253,9.93072917 C31.315253,8.11674107 32.6466518,6.86748512 34.693378,6.86748512 C36.3156994,6.86748512 37.7292411,8.00892857 37.7292411,9.29754464 L37.7292411,10.5793155 L37.7292411,10.5793155 Z M37.8541667,4.09858631 L37.8541667,5.41287202 C36.8471436,4.48930743 35.5078882,4.01488484 34.1440476,4.09858631 C32.5768088,4.05025575 31.0580241,4.64519588 29.9405991,5.74516622 C28.823174,6.84513655 28.2043982,8.35436713 28.2280506,9.92217262 C28.2089637,11.5120205 28.8407457,13.040545 29.9767534,14.15296 C31.1127612,15.265375 32.6542062,15.8649436 34.2433036,15.8125 C35.5848456,15.8922462 36.8972225,15.3990164 37.8541667,14.4554315 L37.8541667,15.5866071 C37.8541667,17.1096726 36.5484375,18.2237351 34.8183036,18.2237351 C33.4672767,18.3119191 32.1423341,17.8223745 31.1732143,16.8769345 L29.1521577,18.8244048 C30.6693445,20.3359468 32.7446723,21.1518294 34.8850446,21.0781994 C38.4274554,21.0781994 40.8575149,18.6994792 40.8575149,15.5284226 L40.8575149,4.096875 L37.8541667,4.096875 L37.8541667,4.09858631 Z M57.1063988,4.39806548 L60.0584077,4.39806548 L60.0584077,5.39575893 C61.0352013,4.5056197 62.3251083,4.03913616 63.6453125,4.09858631 C66.8091212,4.20664419 69.3180478,6.80272445 69.3180478,9.96837798 C69.3180478,13.1340315 66.8091212,15.7301118 63.6453125,15.8381696 C62.3827248,15.8682301 61.1504501,15.4491839 60.1679315,14.6556548 L60.1679315,20.2054315 L57.1046875,20.2054315 L57.1046875,4.39806548 L57.1063988,4.39806548 Z M63.2294643,6.828125 C61.5643601,6.828125 60.209003,7.97470238 60.209003,9.24107143 L60.209003,10.6375 C60.209003,11.9843006 61.5489583,13.1325893 63.2448661,13.1325893 C64.9048806,13.0374982 66.2023025,11.6636287 66.2023025,10.0008929 C66.2023025,8.33815703 64.9048806,6.96428753 63.2448661,6.86919643 L63.227753,6.82641369 L63.2294643,6.828125 Z M75.325,8.89880952 C77.3563244,8.625 77.962128,8.33407738 77.962128,7.76763393 C77.962128,7.03519345 77.1886161,6.5936756 75.9906994,6.5936756 C74.7120768,6.47781115 73.5397329,7.31094532 73.2286458,8.55654762 L70.2920387,7.95074405 C70.7078869,5.68668155 73.0369792,4.07291667 75.9085565,4.07291667 C79.1600446,4.07291667 81.1656994,5.73630952 81.1656994,8.43162202 L81.1656994,15.4959077 L78.3625744,15.4959077 L78.3625744,14.3065476 C77.4163861,15.3706791 76.030159,15.9357894 74.6096726,15.8364583 C72.1642113,15.8364583 70.4511905,14.4896577 70.4511905,12.5096726 C70.4511905,10.5296875 71.8236607,9.38995536 75.325,8.89880952 Z M78.2119792,10.0710565 C77.9381696,10.471503 77.3802827,10.6956845 75.850372,10.969494 C74.0192708,11.3031994 73.3535714,11.6608631 73.3535714,12.3094494 C73.3535714,12.959747 73.9029018,13.274628 75.0768601,13.274628 C76.856622,13.274628 78.2376488,12.4429315 78.2376488,11.3938988 L78.2119792,10.0710565 L78.2119792,10.0710565 Z M86.7907738,14.9140625 L81.6910714,4.39806548 L85.1017113,4.39806548 L88.478125,11.64375 L91.806622,4.39806548 L95.2429315,4.39806548 L87.5471726,20.2054315 L84.1861607,20.2054315 L86.7907738,14.9140625 Z" id="Shape" fill="#000000"></path>
        </g>
    </g>
</svg>