<?xml version="1.0" encoding="UTF-8"?>
<svg width="35px" height="29px" viewBox="0 0 35 29" version="1.1" xmlns="http://www.w3.org/2000/svg" xmlns:xlink="http://www.w3.org/1999/xlink">
    <!-- Generator: Sketch 64 (93537) - https://sketch.com -->
    <title>Group 37</title>
    <desc>Created with Sketch.</desc>
    <defs>
        <polygon id="path-1" points="1.17486339e-05 0.00695381978 42.9930683 0.00695381978 42.9930683 43.1372549 1.17486339e-05 43.1372549"></polygon>
    </defs>
    <g id="Page-1" stroke="none" stroke-width="1" fill="none" fill-rule="evenodd">
        <g id="Group-37" transform="translate(-6.000000, -7.000000)">
            <g id="Group-36" transform="translate(0.000000, -0.001694)">
                <g id="Group-3" transform="translate(0.000000, 0.490303)">
                    <mask id="mask-2" fill="white">
                        <use xlink:href="#path-1"></use>
                    </mask>
                    <g id="Clip-2"></g>
                </g>
                <path d="M12.7771649,7.39226401 L11.0704321,12.9596748 C12.5036912,13.4172295 13.3021879,14.9737483 12.8537842,16.4362572 C12.4054972,17.8988851 10.8799918,18.7136775 9.44673277,18.2561228 L7.74,23.8235336 L31.9428351,31.5491268 L36.98,15.1178572 L12.7771649,7.39226401 Z" id="Fill-4" fill="#D9D9D9"></path>
                <path d="M8.21772566,23.8133821 L31.7279155,31.0885393 L36.5023634,15.9906146 L12.9921736,8.71545732 L11.5932537,13.1389775 C12.1993217,13.4499008 12.6941268,13.9357257 13.0173472,14.5465307 C13.4339002,15.3337643 13.5155959,16.2342318 13.2473538,17.0821936 C12.7543299,18.6413908 11.2006869,19.5880211 9.61664555,19.389392 L8.21772566,23.8133821 Z M32.117395,32.4118719 C32.0587356,32.4118719 31.9990075,32.4030622 31.9399918,32.3848555 L7.2965118,24.7590726 C6.98362207,24.6622835 6.80930628,24.3328012 6.90726986,24.0232875 L8.64508435,18.5278046 C8.74304792,18.2182909 9.0758866,18.0459734 9.38889507,18.142645 C10.5331097,18.4969119 11.7562888,17.8637891 12.1141824,16.7314506 C12.2875483,16.1830182 12.2347073,15.6005217 11.9653965,15.0913217 C11.6958483,14.5821218 11.2421285,14.207299 10.6875952,14.0356862 C10.5372657,13.9891711 10.4119911,13.8854517 10.3388449,13.7475507 C10.2658175,13.6095323 10.251212,13.4484912 10.2982346,13.2997837 L12.0361678,7.80430072 C12.1341314,7.49478704 12.46697,7.32246955 12.7800973,7.41914119 L37.4235773,15.044924 C37.5739069,15.0914392 37.6991815,15.1950411 37.7723276,15.3330595 C37.845355,15.471078 37.8599605,15.6321191 37.8128192,15.7807091 L32.6839213,31.9996959 C32.6044817,32.2509482 32.3702004,32.4118719 32.117395,32.4118719 L32.117395,32.4118719 Z" id="Fill-6" fill="#BEBDBF"></path>
                <path d="M24.5093474,17.2592362 C24.3636231,17.2592362 24.2191337,17.2945448 24.0863763,17.3642948 C23.8698892,17.4779019 23.7105803,17.6693118 23.6377181,17.903092 C23.5648559,18.1369962 23.5869616,18.3853955 23.7002067,18.6024506 C23.8134518,18.8195057 24.004252,18.9794476 24.237411,19.0525427 C24.7180544,19.2038122 25.232659,18.9337322 25.3831997,18.4509332 C25.5336169,17.9681342 25.2645208,17.4525044 24.7833834,17.3014826 C24.6932318,17.2732357 24.6011044,17.2592362 24.5093474,17.2592362 M24.508977,20.3334405 C24.2969357,20.3334405 24.0814365,20.3017247 23.8687777,20.234948 C23.3207059,20.0629888 22.8722947,19.6872307 22.6061625,19.1769281 C22.3399068,18.6666256 22.2876683,18.0828563 22.4590797,17.5331568 C22.6303676,16.9835811 23.0049286,16.5338607 23.5136054,16.2666302 C24.0221588,15.9996474 24.6040683,15.9471181 25.1521401,16.1190773 C26.2831094,16.4741458 26.9155284,17.6860369 26.5618381,18.8207446 L26.5617146,18.8208685 C26.2744647,19.74199 25.4239531,20.3334405 24.508977,20.3334405" id="Fill-8" fill="#FFFFFF"></path>
                <polygon id="Fill-10" fill="#FFFFFF" points="22.2185573 24.647166 21.5 23.636461 29.3815647 17.7452052 30.1 18.7559102"></polygon>
                <path d="M27.0901728,22.4352706 C26.7009133,22.4352706 26.3390699,22.6868862 26.2168088,23.0788663 C26.0663906,23.5615321 26.3354885,24.0771519 26.8166291,24.2281708 C27.0496661,24.3012644 27.2971522,24.2790886 27.5136408,24.1653598 C27.7301293,24.051755 27.8894392,23.8603488 27.9623019,23.626573 L27.9623019,23.6264491 C28.0351646,23.3926734 28.0130588,23.1444028 27.8998129,22.927228 C27.786567,22.710177 27.5957656,22.5503621 27.3626051,22.4771446 C27.272206,22.4487744 27.1803249,22.4352706 27.0901728,22.4352706 M27.0921488,25.5099111 C26.8765247,25.5099111 26.6596656,25.4770809 26.4478699,25.4105533 C25.3168931,25.0556155 24.6844699,23.8436239 25.0381625,22.7089382 C25.3921022,21.5742524 26.6003875,20.9397005 27.7312408,21.2947621 C28.2793163,21.4668419 28.7277304,21.8424688 28.9938644,22.3527615 C29.2601219,22.8630542 29.3123607,23.4468122 29.1408247,23.9965011 C28.9695357,24.5460662 28.5950957,24.9959018 28.0862919,25.2630032 C27.7743409,25.4269064 27.4346033,25.5099111 27.0921488,25.5099111" id="Fill-12" fill="#FFFFFF"></path>
                <path d="M18.92,10.3032792 L12.1088823,8.25500911 L10.3371903,13.6997997 C11.825,14.1472769 12.653888,15.669514 12.1884178,17.0998117 C11.7229476,18.5302257 10.1395017,19.3269563 8.651692,18.8795955 L6.88,24.3242697 L13.6911177,26.3726562 L18.92,10.3032792 Z" id="Fill-14" fill="#EEEEEE"></path>
                <path d="M8.32326562,24.0332627 L13.7050141,25.7573732 L18.3367344,10.5944026 L12.9549859,8.87029207 L11.5977702,13.3133419 C12.9716891,14.0462805 13.6809385,15.7071599 13.2025378,17.2730745 C12.7242524,18.8389891 11.2170541,19.7896978 9.68036612,19.5902129 L8.32326562,24.0332627 Z M14.4604563,27.2354013 L6.88,24.8070185 L8.90971827,18.1619676 L9.45942403,18.3380946 C10.5694334,18.6938878 11.7560468,18.0580373 12.1032415,16.9208204 C12.4505514,15.7837215 11.829771,14.5691172 10.7193008,14.213442 L10.169595,14.0373149 L12.1994285,7.39226401 L19.78,9.82064678 L14.4604563,27.2354013 Z" id="Fill-16" fill="#BEBDBF"></path>
                <path d="M6.02,17.7452052 L6.02,23.591735 C7.54792741,23.591735 8.78647643,24.8367509 8.78647643,26.3726562 C8.78647643,27.9085614 7.54792741,29.1535773 6.02,29.1535773 L6.02,35.0001071 L31.82,35.0001071 L31.82,17.7452052 L6.02,17.7452052 Z" id="Fill-18" fill="#D9D9D9"></path>
                <path d="M7.19211028,34.6915233 L31.5078897,34.6915233 L31.5078897,18.9165341 L7.19211028,18.9165341 L7.19211028,23.5389494 C8.74363266,23.8163201 9.92511983,25.1749445 9.92511983,26.8040287 C9.92511983,28.433113 8.74363266,29.7917374 7.19211028,30.0692252 L7.19211028,34.6915233 Z M32.0939449,35.8628522 L6.60605514,35.8628522 C6.28231828,35.8628522 6.02,35.6005917 6.02,35.2771878 L6.02,29.5352163 C6.02,29.2118124 6.28231828,28.9495519 6.60605514,28.9495519 C7.79000374,28.9495519 8.75300954,27.9870709 8.75300954,26.8040287 C8.75300954,25.6209865 7.79000374,24.6585055 6.60605514,24.6585055 C6.28231828,24.6585055 6.02,24.396245 6.02,24.0728411 L6.02,18.3308696 C6.02,18.0074657 6.28231828,17.7452052 6.60605514,17.7452052 L32.0939449,17.7452052 C32.4176817,17.7452052 32.68,18.0074657 32.68,18.3308696 L32.68,35.2771878 C32.68,35.6005917 32.4176817,35.8628522 32.0939449,35.8628522 L32.0939449,35.8628522 Z" id="Fill-20" fill="#BEBDBF"></path>
                <path d="M20.21,23.2981865 C19.7056073,23.2981865 19.2953482,23.7098672 19.2953482,24.2157315 C19.2953482,24.7217196 19.7056073,25.1334004 20.21,25.1334004 C20.7143927,25.1334004 21.1246518,24.7217196 21.1246518,24.2157315 C21.1246518,23.7098672 20.7143927,23.2981865 20.21,23.2981865 M20.21,26.3726562 C19.0244363,26.3726562 18.06,25.4050452 18.06,24.2157315 C18.06,23.0265416 19.0244363,22.0589307 20.21,22.0589307 C21.3955637,22.0589307 22.36,23.0265416 22.36,24.2157315 C22.36,25.4050452 21.3955637,26.3726562 20.21,26.3726562" id="Fill-22" fill="#FFFFFF"></path>
                <polygon id="Fill-24" fill="#FFFFFF" points="19.9135442 30.6863817 18.92 29.9547585 24.8064558 22.0589307 25.8 22.7905539"></polygon>
                <path d="M24.51,28.4746571 C24.0056073,28.4746571 23.5953482,28.8863378 23.5953482,29.392326 C23.5953482,29.8981902 24.0056073,30.309871 24.51,30.309871 C25.0143927,30.309871 25.4246518,29.8981902 25.4246518,29.392326 C25.4246518,28.8863378 25.0143927,28.4746571 24.51,28.4746571 M24.51,31.5491268 C23.3244363,31.5491268 22.36,30.5815158 22.36,29.392326 C22.36,28.2030122 23.3244363,27.2354013 24.51,27.2354013 C25.6955637,27.2354013 26.66,28.2030122 26.66,29.392326 C26.66,30.5815158 25.6955637,31.5491268 24.51,31.5491268" id="Fill-26" fill="#FFFFFF"></path>
                <path d="M12.9,17.7452052 L6.02,17.7452052 L6.02,23.591735 C7.52292848,23.591735 8.74121319,24.8367509 8.74121319,26.3726562 C8.74121319,27.9085614 7.52292848,29.1535773 6.02,29.1535773 L6.02,35.0001071 L12.9,35.0001071 L12.9,17.7452052 Z" id="Fill-28" fill="#EEEEEE"></path>
                <path d="M7.14252001,34.6915233 L12.63748,34.6915233 L12.63748,18.9165341 L7.14252001,18.9165341 L7.14252001,23.5389494 C8.62839976,23.8163201 9.75989993,25.1749445 9.75989993,26.8040287 C9.75989993,28.433113 8.62839976,29.7917374 7.14252001,30.0692252 L7.14252001,34.6915233 Z M13.76,35.8628522 L6.02,35.8628522 L6.02,28.9495519 L6.58126001,28.9495519 C7.71511747,28.9495519 8.63737992,27.9870709 8.63737992,26.8040287 C8.63737992,25.6209865 7.71511747,24.6585055 6.58126001,24.6585055 L6.02,24.6585055 L6.02,17.7452052 L13.76,17.7452052 L13.76,35.8628522 Z" id="Fill-30" fill="#BEBDBF"></path>
                <path d="M39.56,30.6863817 C36.1721682,31.1917804 35.763724,31.6014143 35.2600597,35.0001071 C34.756276,31.6014143 34.3478318,31.1917804 30.96,30.6863817 C34.3478318,30.1809829 34.756276,29.771349 35.2600597,26.3726562 C35.763724,29.771349 36.1721682,30.1809829 39.56,30.6863817" id="Fill-32" fill="#FFFFFF"></path>
                <path d="M34.0755654,31.1176964 C34.8811402,31.448864 35.3599437,31.9290802 35.6900576,32.737342 C36.0201716,31.9290802 36.4987445,31.448864 37.3045499,31.1176964 C36.4987445,30.7865288 36.0201716,30.3063126 35.6900576,29.4980508 C35.3599437,30.3063126 34.8811402,30.7865288 34.0755654,31.1176964 M35.6900576,35.8628522 C35.4044353,35.8628522 35.1620367,35.6530973 35.1200809,35.3696854 C34.6718222,32.3455837 34.4660773,32.139182 31.4514825,31.6896081 C31.1690875,31.6474027 30.96,31.4042304 30.96,31.1176964 C30.96,30.8311624 31.1690875,30.5879901 31.4514825,30.5457847 C34.4660773,30.0962107 34.6718222,29.8898091 35.1200809,26.8658231 C35.1620367,26.5824111 35.4044353,26.3726562 35.6900576,26.3726562 C35.9755647,26.3726562 36.2180785,26.5824111 36.2600344,26.8658231 C36.7082931,29.8898091 36.914038,30.0962107 39.9284023,30.5457847 C40.2109125,30.5879901 40.42,30.8311624 40.42,31.1176964 C40.42,31.4042304 40.2109125,31.6474027 39.9284023,31.6896081 C36.914038,32.139182 36.7082931,32.3455837 36.2600344,35.3696854 C36.2180785,35.6530973 35.9755647,35.8628522 35.6900576,35.8628522" id="Fill-34" fill="#BEBDBF"></path>
            </g>
        </g>
    </g>
</svg>