<?xml version="1.0" encoding="UTF-8"?>
<svg width="36px" height="24px" viewBox="0 0 36 24" version="1.1" xmlns="http://www.w3.org/2000/svg" xmlns:xlink="http://www.w3.org/1999/xlink">
    <!-- Generator: Sketch 64 (93537) - https://sketch.com -->
    <title>icon-cvv</title>
    <desc>Created with Sketch.</desc>
    <g id="Page-1" stroke="none" stroke-width="1" fill="none" fill-rule="evenodd">
        <g id="icon-cvv">
            <rect id="Rectangle" stroke="#A774C8" stroke-width="0.705882353" fill="#FFFFFF" x="0.352941176" y="0.352941176" width="35.2941176" height="23.2941176" rx="2.82352941"></rect>
            <rect id="Rectangle-2" fill="#A774C8" x="0" y="4" width="36" height="5"></rect>
            <rect id="Rectangle-2-Copy" fill="#A774C8" x="3" y="13" width="12" height="2"></rect>
            <rect id="Rectangle-3" stroke="#DA1D4C" stroke-width="0.705882353" x="17.3529412" y="11.3529412" width="15.2941176" height="9.29411765" rx="2"></rect>
            <path d="M22.164,17.8200271 L22.164,18.4458728 L19.364,18.4458728 L19.364,17.8200271 L20.3895,17.8200271 L20.3895,14.9682003 C20.3895,14.8554347 20.393,14.7392879 20.4,14.6197564 L19.672,15.2083897 C19.6299998,15.2399641 19.5885835,15.2596978 19.54775,15.2675913 C19.5069165,15.2754849 19.4684168,15.2760487 19.43225,15.2692828 C19.3960832,15.2625169 19.3640001,15.2506767 19.336,15.2337618 C19.3079999,15.216847 19.2870001,15.198241 19.273,15.1779432 L19,14.8159675 L20.5435,13.5473613 L21.254,13.5473613 L21.254,17.8200271 L22.164,17.8200271 Z M26.535,17.6677943 C26.6283338,17.6677943 26.7024164,17.6931662 26.75725,17.7439107 C26.8120836,17.7946552 26.8395,17.8617497 26.8395,17.9451962 L26.8395,18.4458728 L23.3675,18.4458728 L23.3675,18.1684709 C23.3675,18.1120881 23.3797499,18.0528871 23.40425,17.990866 C23.4287501,17.928845 23.4678331,17.8730269 23.5215,17.82341 L25.058,16.334912 C25.186334,16.2086146 25.3012495,16.0879573 25.40275,15.9729364 C25.5042505,15.8579155 25.588833,15.744024 25.6565,15.6312585 C25.724167,15.5184929 25.7760832,15.4040376 25.81225,15.287889 C25.8484168,15.1717405 25.8665,15.0493917 25.8665,14.920839 C25.8665,14.8035628 25.8490002,14.7003838 25.814,14.6112991 C25.7789998,14.5222143 25.729417,14.4472263 25.66525,14.3863329 C25.601083,14.3254395 25.5240838,14.2797701 25.43425,14.2493234 C25.3444162,14.2188767 25.2435006,14.2036536 25.1315,14.2036536 C25.0288328,14.2036536 24.9337504,14.2177491 24.84625,14.2459405 C24.7587496,14.2741319 24.681167,14.3135992 24.6135,14.3643437 C24.545833,14.4150882 24.4886669,14.4742892 24.442,14.5419486 C24.3953331,14.6096079 24.3603334,14.6840321 24.337,14.7652233 C24.2973331,14.8689676 24.2460003,14.9377536 24.183,14.9715832 C24.1199997,15.0054129 24.0290006,15.0133064 23.91,14.9952639 L23.455,14.917456 C23.4900002,14.6829037 23.5576662,14.4771096 23.658,14.3000677 C23.7583338,14.1230257 23.8837492,13.9753051 24.03425,13.8569012 C24.1847508,13.7384974 24.3574157,13.6494139 24.55225,13.5896482 C24.7470843,13.5298824 24.9564989,13.5 25.1805,13.5 C25.4138345,13.5 25.6273324,13.5332653 25.821,13.599797 C26.0146676,13.6663287 26.1803326,13.7604865 26.318,13.8822733 C26.4556674,14.0040601 26.5629996,14.1506532 26.64,14.3220568 C26.7170004,14.4934605 26.7555,14.6840314 26.7555,14.8937754 C26.7555,15.0742003 26.7280836,15.2410908 26.67325,15.394452 C26.6184164,15.5478131 26.5449171,15.6944062 26.45275,15.8342355 C26.3605829,15.9740647 26.2526673,16.1093814 26.129,16.2401894 C26.0053327,16.3709975 25.875834,16.5040589 25.7405,16.6393775 L24.5995,17.7658999 C24.7091672,17.7343255 24.8182495,17.7100813 24.92675,17.6931664 C25.0352505,17.6762516 25.1384995,17.6677943 25.2365,17.6677943 L26.535,17.6677943 Z M28.0395,14.917456 C28.0745002,14.6829037 28.1421662,14.4771096 28.2425,14.3000677 C28.3428338,14.1230257 28.4682492,13.9753051 28.61875,13.8569012 C28.7692508,13.7384974 28.9419157,13.6494139 29.13675,13.5896482 C29.3315843,13.5298824 29.5409989,13.5 29.765,13.5 C29.9983345,13.5 30.2089157,13.5321377 30.39675,13.5964141 C30.5845843,13.6606904 30.7449993,13.7497739 30.878,13.8636671 C31.0110007,13.9775603 31.113083,14.1111855 31.18425,14.2645467 C31.255417,14.4179078 31.291,14.5836707 31.291,14.7618403 C31.291,14.9174568 31.2729168,15.0544649 31.23675,15.1728687 C31.2005832,15.2912726 31.148667,15.3944515 31.081,15.4824087 C31.013333,15.5703658 30.9293338,15.64479 30.829,15.7056834 C30.7286662,15.7665768 30.6155006,15.8173205 30.4895,15.8579161 C30.7928348,15.9503839 31.0191659,16.0913387 31.1685,16.2807848 C31.3178341,16.470231 31.3925,16.7081628 31.3925,16.9945873 C31.3925,17.2381609 31.3458338,17.4535399 31.2525,17.6407307 C31.1591662,17.8279215 31.0331675,17.9852271 30.8745,18.1126522 C30.7158325,18.2400773 30.5320844,18.3364904 30.32325,18.4018945 C30.1144156,18.4672985 29.8933345,18.5 29.66,18.5 C29.4056654,18.5 29.1840009,18.471809 28.995,18.4154263 C28.8059991,18.3590435 28.6415007,18.2755982 28.5015,18.165088 C28.3614993,18.0545777 28.2425005,17.9192611 28.1445,17.759134 C28.0464995,17.5990069 27.9625003,17.4140741 27.8925,17.2043302 L28.274,17.0520974 C28.3743338,17.0115018 28.4682496,17.0007893 28.55575,17.0199594 C28.6432504,17.0391296 28.7068331,17.0847989 28.7465,17.1569689 C28.7885002,17.2359048 28.8345831,17.3137118 28.88475,17.3903924 C28.9349169,17.467073 28.9949997,17.5352951 29.065,17.5950609 C29.1350003,17.6548266 29.2172495,17.7033151 29.31175,17.7405277 C29.4062505,17.7777404 29.5188327,17.7963464 29.6495,17.7963464 C29.7965007,17.7963464 29.9248328,17.7732298 30.0345,17.7269959 C30.1441672,17.6807621 30.2357496,17.6204334 30.30925,17.5460081 C30.3827504,17.4715828 30.4375832,17.3887014 30.47375,17.2973613 C30.5099168,17.2060212 30.528,17.1141186 30.528,17.0216509 C30.528,16.9043747 30.5151668,16.7978128 30.4895,16.7019621 C30.4638332,16.6061114 30.4101671,16.5243576 30.3285,16.4566982 C30.2468329,16.3890389 30.1295841,16.3360399 29.97675,16.2976996 C29.8239159,16.2593593 29.6191679,16.2401894 29.3625,16.2401894 L29.3625,15.6447903 C29.5748344,15.6425349 29.7509993,15.6233651 29.891,15.5872801 C30.0310007,15.5511951 30.1424163,15.5010152 30.22525,15.4367388 C30.3080837,15.3724625 30.3658332,15.2952192 30.3985,15.2050068 C30.4311668,15.1147943 30.4475,15.0155621 30.4475,14.9073072 C30.4475,14.6772654 30.3810007,14.5024814 30.248,14.3829499 C30.1149993,14.2634184 29.9376678,14.2036536 29.716,14.2036536 C29.6133328,14.2036536 29.5188338,14.2177491 29.4325,14.2459405 C29.3461662,14.2741319 29.2685837,14.3135992 29.19975,14.3643437 C29.1309163,14.4150882 29.0731669,14.4742892 29.0265,14.5419486 C28.9798331,14.6096079 28.9448335,14.6840321 28.9215,14.7652233 C28.8818331,14.8689676 28.829917,14.9377536 28.76575,14.9715832 C28.701583,15.0054129 28.6111673,15.0133064 28.4945,14.9952639 L28.0395,14.917456 Z" id="123" fill="#25182E"></path>
        </g>
    </g>
</svg>