<?xml version="1.0" encoding="UTF-8"?>
<svg width="49px" height="29px" viewBox="0 0 49 29" version="1.1" xmlns="http://www.w3.org/2000/svg" xmlns:xlink="http://www.w3.org/1999/xlink">
    <!-- Generator: Sketch 64 (93537) - https://sketch.com -->
    <title>Rectangle</title>
    <desc>Created with Sketch.</desc>
    <defs>
        <rect id="path-1" x="0" y="0" width="328" height="82" rx="8"></rect>
        <filter x="-2.0%" y="-7.9%" width="105.2%" height="120.7%" filterUnits="objectBoundingBox" id="filter-3">
            <feOffset dx="2" dy="2" in="SourceAlpha" result="shadowOffsetOuter1"></feOffset>
            <feGaussianBlur stdDeviation="2.5" in="shadowOffsetOuter1" result="shadowBlurOuter1"></feGaussianBlur>
            <feComposite in="shadowBlurOuter1" in2="SourceAlpha" operator="out" result="shadowBlurOuter1"></feComposite>
            <feColorMatrix values="0 0 0 0 0   0 0 0 0 0   0 0 0 0 0  0 0 0 0.08 0" type="matrix" in="shadowBlurOuter1"></feColorMatrix>
        </filter>
    </defs>
    <g id="Page-1" stroke="none" stroke-width="1" fill="none" fill-rule="evenodd">
        <g id="LL21---Manage-Card" transform="translate(-32.000000, -174.000000)">
            <rect fill="#FFFFFF" x="0" y="0" width="360" height="732"></rect>
            <g id="Group-3" transform="translate(16.000000, 157.000000)">
                <mask id="mask-2" fill="white">
                    <use xlink:href="#path-1"></use>
                </mask>
                <g id="Rectangle">
                    <use fill="black" fill-opacity="1" filter="url(#filter-3)" xlink:href="#path-1"></use>
                    <rect stroke="#E5E5E5" stroke-width="1" stroke-linejoin="square" fill="#FFFFFF" fill-rule="evenodd" x="0.5" y="0.5" width="327" height="81" rx="8"></rect>
                </g>
                <g id="CC/visa" mask="url(#mask-2)">
                    <g transform="translate(16.000000, 17.000000)" id="Group-6">
                        <g>
                            <rect id="Rectangle" fill="#FFFFFF" x="0" y="0" width="48.8" height="29" rx="4"></rect>
                            <g id="jcb" transform="translate(11.000000, 6.000000)" fill-rule="nonzero">
                                <path d="M1.90818413,17.9791206 L6.24305899,17.9791206 C7.76725334,17.9791206 9.52952659,16.5503506 9.52952659,14.692653 L9.52952659,0.0181395805 L5.33804774,0.0181395805 C3.3852224,0.0181395805 1.90818413,1.25628335 1.90818413,3.40003151 L1.90818413,17.9791206 Z" id="Path" fill="#006CB9"></path>
                                <path d="M10.4825095,17.9791206 L14.8173844,17.9791206 C16.3415787,17.9791206 18.104371,16.5503506 18.104371,14.692653 L18.104371,0.0181395805 L13.9123731,0.0181395805 C11.9589546,0.0181395805 10.4825095,1.25628335 10.4825095,3.40003151 L10.4825095,17.9791206 L10.4825095,17.9791206 Z" id="Path" fill="#E10238"></path>
                                <path d="M19.1750217,17.9791206 L23.5098965,17.9791206 C25.0340909,17.9791206 26.7968831,16.5503506 26.7968831,14.692653 L26.7968831,0.0181395805 L22.6051819,0.0181395805 C20.6523565,0.0181395805 19.1753182,1.25628335 19.1753182,3.40003151 L19.1753182,17.9791206 L19.1750217,17.9791206 L19.1750217,17.9791206 L19.1750217,17.9791206 Z" id="Path" fill="#54B230"></path>
                                <g id="Group" transform="translate(0.652171, 6.183204)" fill="#F3F2F2">
                                    <path d="M1.23851449,3.33562559 L0.0480458207,3.33562559 C0.381771498,4.66949027 1.95319607,5.71789753 3.71598834,5.71789753 C5.33560702,5.71789753 7.52680785,4.81236727 7.52680785,3.09754668 L7.52680785,0.0014828957 L4.81155168,0.0014828957 L4.81155168,3.09762083 C4.81155168,4.00315109 4.0968701,4.71753609 3.09643451,4.71753609 C2.19179399,4.71723951 1.38168807,4.14573151 1.23851449,3.33562559 Z" id="Path"></path>
                                    <path d="M25.0055512,3.95510527 C25.0055512,4.66919369 24.3868871,5.24099827 23.5767812,5.24099827 L17.5751316,5.24099827 L17.5751316,0.00111217178 L23.5767812,0.00111217178 C24.2908696,0.00111217178 24.9109424,0.620591851 24.9109424,1.33527343 C24.9109424,2.04936186 24.2911662,2.66913812 23.5767812,2.66913812 C24.3868871,2.66898983 25.0055512,3.24072026 25.0055512,3.95510527 Z M19.8611636,2.38323582 L21.7191577,2.38323582 C22.195538,2.38323582 22.624169,1.95460482 22.624169,1.47770557 C22.624169,1.00191848 22.195538,0.572694319 21.7191577,0.572694319 L19.8611636,0.572694319 L19.8611636,2.38323582 Z M21.7668328,4.66926784 C22.2426199,4.66926784 22.6718441,4.24063683 22.6718441,3.76425659 C22.6718441,3.28787635 22.2426941,2.85924534 21.7668328,2.85924534 L19.8611636,2.85924534 L19.8611636,4.66897126 L21.7668328,4.66897126 L21.7668328,4.66926784 Z" id="Shape"></path>
                                    <path d="M16.1390954,4.33606117 L16.1390954,5.24107242 L11.5659192,5.24107242 C10.1371492,5.24107242 8.94616147,4.05030717 8.94616147,2.62131473 C8.94616147,1.1928413 10.1371492,0.00155704049 11.5659192,0.00155704049 L16.1390954,0.00155704049 L16.1390954,0.954539962 C15.043532,0.716238623 13.9948282,0.573361623 13.4710694,0.573361623 C12.32835,0.573361623 11.4233387,1.47837287 11.4233387,2.62161131 C11.4233387,3.76484975 12.32835,4.66986099 13.4710694,4.66986099 C13.9948282,4.66926784 15.043532,4.57436251 16.1390954,4.33606117 Z" id="Path"></path>
                                </g>
                            </g>
                        </g>
                    </g>
                </g>
            </g>
        </g>
    </g>
</svg>