<?xml version="1.0" encoding="UTF-8"?>
<svg width="43px" height="40px" viewBox="0 0 43 40" version="1.1" xmlns="http://www.w3.org/2000/svg" xmlns:xlink="http://www.w3.org/1999/xlink">
    <!-- Generator: Sketch 64 (93537) - https://sketch.com -->
    <title>Linkaja</title>
    <desc>Created with Sketch.</desc>
    <g id="Page-1" stroke="none" stroke-width="1" fill="none" fill-rule="evenodd">
        <g id="Linkaja" fill="#EA232A" fill-rule="nonzero">
            <path d="M1.49183626,39.2038095 C0.683415205,38.7748571 0.0456608187,38.4 0.0748538012,38.3687619 C0.178152047,38.263619 4.04884211,37.4232381 6.75106433,36.9211429 C12.5993918,35.8300952 19.5510643,34.9569524 26.4780351,34.4434286 C29.3299649,34.232381 39.6523041,34.2247619 41.4383158,34.4335238 L42.6112749,34.5699048 L41.2893567,34.5904762 C38.941193,34.6278095 33.5569591,35.0110476 29.3381988,35.4415238 C21.3527953,36.2567619 12.4751345,37.7592381 6.0534269,39.3828571 C4.7419883,39.7150476 3.50839766,39.9862857 3.31527485,39.9862857 C3.12215205,39.9862857 2.30100585,39.6327619 1.49183626,39.2038095 Z M12.6562807,31.0232381 C12.5365146,30.6857143 13.0380351,30.5348571 13.2551111,30.4388571 C14.2379415,30.0099048 14.9295906,29.3104762 15.1616374,28.512 C15.2724211,28.1310476 15.6107602,25.9695238 15.9101754,23.712 C16.2095906,21.4544762 16.482807,19.7074286 16.5090058,19.6053333 C16.5414846,19.401568 16.7065498,19.2467697 16.9087251,19.2304762 C17.7208889,19.2228571 18.3242105,19.2304762 19.1543392,19.2304762 C19.6139415,19.1855238 19.5233684,19.6975238 19.4874386,20.0259048 C19.4515088,20.440381 19.3414737,21.240381 19.2142222,22.216381 L18.6969825,26.1706667 C18.4080468,28.3801905 18.2478596,29.0659048 17.7478363,30.2034286 C17.1527485,31.5588571 16.2425263,32.3466667 14.5942456,32.9074286 C14.2611462,33.0133333 13.3060117,33.344 13.2019649,33.0499048 C12.986386,32.3466667 12.8336842,31.735619 12.6472982,31.0209524 L12.6562807,31.0232381 Z M31.5942924,30.2811429 C30.4954386,29.8300952 30.5463392,28.0860952 31.6998363,27.3706667 C32.4296608,26.9180952 33.4544094,26.9950476 33.9806316,27.5314286 C35.2756023,28.8518095 33.3675789,31.0095238 31.5883041,30.2811429 L31.5942924,30.2811429 Z M23.2855205,29.239619 C20.0548304,28.6780952 20.076538,24.7573333 20.7996257,22.5173333 C21.7061053,19.9268571 23.9142924,19.1702857 25.7294971,19.1047619 C27.2617544,19.0514286 29.3853567,19.3409524 29.9213099,19.6761905 C30.0710175,19.7691429 29.9961637,20.6666667 29.5882105,24.0007619 C29.302269,26.3146667 28.9893801,28.3047619 28.8943158,28.4198095 C28.3823158,29.047619 24.9555088,29.5466667 23.2885146,29.2373333 L23.2855205,29.239619 Z M26.1037661,26.1371429 C26.4503392,24.823619 26.5963041,23.6380952 26.8448187,22.2514286 C26.8141287,21.7744762 26.0214269,21.7706667 25.8208187,21.7699048 C24.7728655,21.7699048 24.1523275,22.3695238 23.8237193,23.7013333 C23.3745965,25.5299048 23.8439298,26.5470476 25.138152,26.5470476 C25.5483509,26.5089524 25.974269,26.5325714 26.1045146,26.1371429 L26.1037661,26.1371429 Z M2.49338012,28.1813333 C3.37665497,25.9855238 6.92322807,18.1241905 7.77506433,16.4952381 C7.936,16.0891429 8.35967251,16.0091429 8.64935673,15.9809524 C9.48397661,15.9420952 10.2048187,15.952 10.9376374,15.9580952 C11.6921637,15.9641905 11.7033918,16.2339048 11.8007018,16.8053333 C11.9189708,17.3744762 13.3920936,26.3238095 13.725193,28.472381 C13.7678596,28.8289524 13.8539415,28.9401905 13.3973333,28.9409524 C12.7655673,28.9409524 11.2437895,29.0262857 10.7272982,28.9866667 C10.5836077,28.9762119 10.4628023,28.8729233 10.427883,28.7306667 C10.3649722,28.3870928 10.3192524,28.0404872 10.2909006,27.6921905 L10.1973333,26.6255238 L6.40823392,26.6255238 L5.9942924,27.6548571 C5.8445848,28.0205714 5.6851462,28.3817143 5.56538012,28.6209524 C5.48154386,28.8411429 5.35578947,28.9424762 5.16865497,28.983619 C4.7045614,28.9798095 3.06077193,29.0415238 2.44247953,28.983619 C2.13707602,28.840381 2.41328655,28.3817143 2.49338012,28.1813333 Z M9.86423392,23.6426667 C9.81108772,23.064381 9.44804678,20.0822857 9.36271345,19.6411429 C9.34100585,19.5939048 9.32977778,19.6091429 9.30732164,19.6373333 C9.08276023,19.9794286 7.87162573,23.0064762 7.66577778,23.7089524 C7.64032749,23.8064762 7.70245614,23.8415238 7.7922807,23.8339048 C8.09992982,23.8125714 9.35597661,23.7881905 9.73847953,23.7737143 C9.84776608,23.7653333 9.85824561,23.7264762 9.86498246,23.6426667 L9.86423392,23.6426667 Z M31.7372632,25.0902857 C31.7859181,24.7001905 31.8937076,23.6426667 31.9752982,22.7382857 C32.0568889,21.8339048 32.1893801,20.424381 32.2679766,19.6038095 C32.3278596,18.9805714 32.3802573,18.375619 32.403462,18.0571429 C32.4491228,17.7721905 32.7882105,17.7386667 33.0105263,17.736381 C33.753076,17.744 34.4522105,17.6998095 35.1199064,17.7622857 C35.4350409,17.7950476 35.5690292,17.8659048 35.5690292,18.0571429 C35.269614,19.6289524 34.1864795,25.0521905 34.1026433,25.3881905 C34.0277895,25.6777143 34.0023392,25.7630476 33.5674386,25.7881905 C33.0359766,25.7798095 32.5943392,25.808 32.0523977,25.8049524 C31.7425029,25.8011429 31.6601637,25.7089524 31.7380117,25.0902857 L31.7372632,25.0902857 Z M16.7575205,17.0346667 C16.7575205,16.0761905 17.3630877,15.3462857 18.1213567,15.0392381 C18.777076,14.8053333 19.5113918,14.8060952 19.9028772,15.2609524 C20.5967719,16.0822857 20.1409123,17.2952381 19.3302456,17.927619 C18.2912749,18.6552381 16.7739883,18.2247619 16.7575205,17.0346667 Z M35.3676725,15.015619 C35.1431111,14.5020952 34.4132865,12.8822857 33.7500819,11.4179048 C33.0868772,9.95352381 32.580117,8.65980952 32.6235322,8.54628571 C32.6669474,8.4327619 33.4042573,7.49866667 34.2643275,6.47161905 L35.6640936,4.79542857 C35.7554152,4.68266667 35.8609591,4.5447619 35.987462,4.5432381 C36.8310643,4.5432381 37.7090994,4.59885714 38.5100351,4.59047619 C39.1088655,4.58514286 39.4082807,4.54552381 38.9666433,5.00495238 C38.6821988,5.36380952 38.1207953,6.02057143 37.4792982,6.74209524 C36.5511111,7.78361905 35.7920936,8.66361905 35.7920936,8.69790476 C35.7920936,8.73219048 36.4882339,10.2872381 37.3378246,12.1546667 C38.006269,13.6220952 38.5579415,14.9340952 38.7435789,15.4819048 C38.8236725,15.6685714 38.7533099,15.8278095 38.5833918,15.8712381 C38.3588304,15.9245714 37.9538713,15.9474286 37.257731,15.9474286 L36.214269,15.9474286 C35.9590175,15.9748571 35.771883,15.9291429 35.6738246,15.7074286 L35.3676725,15.015619 Z M4.14690058,13.9230476 C3.20823392,13.4468571 2.76435088,12.8441905 2.68350877,11.936 C2.63560234,11.3912381 3.50690058,4.07314286 3.89763743,1.74628571 C3.99270175,1.2 4.03312281,1.1687619 4.54811696,1.1687619 L5.56088889,1.1687619 C6.09309942,1.1687619 6.57665497,1.15961905 6.88130994,1.17714286 C7.29749708,1.1832381 7.22189474,1.45066667 7.1897076,1.76990476 C7.1148538,2.48380952 6.89553216,4.02971429 6.61557895,6.01980952 C6.11929825,9.5512381 5.99279532,10.7977143 6.11181287,10.9897143 C6.2502924,11.2137143 6.60360234,11.2510476 8.94278363,11.2868571 L11.0341988,11.3180952 C11.5327251,11.2899048 11.6330292,11.4148571 11.5866199,11.8704762 C11.4646082,12.624 11.3979883,13.224381 11.2767251,13.9001905 C11.1928889,14.3215238 10.9256608,14.2110476 10.5094737,14.2369524 L8.064,14.272 C4.92762573,14.311619 4.91040936,14.3100952 4.14690058,13.9230476 Z M28.2722807,14.1942857 C28.2400936,14.1325714 28.3276725,13.2761905 28.466152,12.2895238 C28.6046316,11.3028571 28.8943158,9.18780952 29.1098947,7.58704762 C29.7207018,3.04152381 29.9213099,1.67161905 30.0081404,1.14819048 C30.0979649,0.538666667 30.0979649,0.569904762 30.6870643,0.569904762 L31.6204912,0.569904762 C31.9842807,0.569904762 32.2687251,0.565333333 32.4880468,0.569904762 C33.3264094,0.597333333 33.220117,0.523428571 33.0082807,1.84533333 C32.9281871,2.34438095 32.6624561,4.54171429 32.4169357,6.38933333 C31.7986433,11.0415238 31.3936842,13.8940952 31.3188304,14.1150476 C31.2477193,14.3238095 28.3763275,14.4 28.2722807,14.1942857 Z M12.3284211,13.84 C12.7146667,10.5142857 13.0866901,8 13.5185965,4.90742857 C13.548538,4.53714286 13.9085848,4.4952381 14.3270175,4.4952381 C14.8023392,4.4952381 15.2851462,4.48761905 15.7380117,4.50361905 C16.6145497,4.50361905 16.8450994,4.62552381 16.7545263,5.22285714 C16.3660351,8.1272381 15.8854737,10.7192381 15.3817076,13.672381 C15.2873918,14.1721905 15.172117,14.1577143 14.7027836,14.1577143 C14.1563509,14.1577143 13.1862456,14.1782857 12.691462,14.1645714 C12.4010292,14.112 12.3351579,14.0784762 12.3254269,13.8407619 L12.3284211,13.84 Z M18.5135906,6.4 C18.7538713,5.11390476 18.9207953,4.91352381 19.269614,4.68038095 C19.7007719,4.39314286 22.8858012,4.09371429 23.9854035,4.23695238 C24.1386043,4.25930159 24.2848187,4.2872381 24.4240468,4.3207619 C27.6427602,5.10019048 27.1449825,8.816 26.9353918,10.520381 C26.7145731,12.152381 26.4982456,13.6388571 26.4540819,13.8232381 C26.3792281,14.1447619 26.3088655,14.1592381 24.8492164,14.1592381 C24.507109,14.1627809 24.1650549,14.1480305 23.8244678,14.1150476 C23.375345,14.0853333 23.3319298,13.9824762 23.375345,13.6487619 C23.5400234,12.2857143 23.7615906,11.1100952 23.926269,9.8392381 C24.1508304,8.10133333 24.0894503,6.38552381 21.9710877,6.75428571 C21.6080468,6.848 21.5084912,6.87771429 21.4583392,7.24647619 C21.1941053,8.96304762 20.9620585,10.736 20.7202807,12.4152381 C20.6671345,12.8152381 20.5930292,13.2342857 20.5166784,13.6053333 C20.4972164,13.6998095 20.4859883,13.784381 20.4695205,13.847619 C20.4530526,13.9108571 20.3946667,14 20.3497544,13.9238095 C20.0091696,13.2929524 18.4072982,13.3980952 17.7396023,13.8605714 C17.4042573,14.0982857 17.3346433,14.2255238 17.4723743,13.5024762 C17.4963275,13.3500952 17.5197817,13.1977143 17.5427368,13.0453333 C17.8743392,10.8297143 18.0974035,8.65142857 18.5158363,6.40609524 L18.5135906,6.4 Z M13.9407719,2.59047619 C13.5822222,1.34780952 14.6481404,0.120380952 15.8413099,0.0761904762 C17.4574035,-0.0335238095 17.9035322,2.22933333 16.2500117,3.25561905 C15.291883,3.70590476 14.2850994,3.61142857 13.9407719,2.59047619 Z" id="path826"></path>
        </g>
    </g>
</svg>