<?xml version="1.0" encoding="UTF-8"?>
<svg width="49px" height="29px" viewBox="0 0 49 29" version="1.1" xmlns="http://www.w3.org/2000/svg" xmlns:xlink="http://www.w3.org/1999/xlink">
    <!-- Generator: Sketch 64 (93537) - https://sketch.com -->
    <title>Rectangle</title>
    <desc>Created with Sketch.</desc>
    <defs>
        <rect id="path-1" x="0" y="0" width="328" height="82" rx="8"></rect>
        <filter x="-2.0%" y="-7.9%" width="105.2%" height="120.7%" filterUnits="objectBoundingBox" id="filter-3">
            <feOffset dx="2" dy="2" in="SourceAlpha" result="shadowOffsetOuter1"></feOffset>
            <feGaussianBlur stdDeviation="2.5" in="shadowOffsetOuter1" result="shadowBlurOuter1"></feGaussianBlur>
            <feComposite in="shadowBlurOuter1" in2="SourceAlpha" operator="out" result="shadowBlurOuter1"></feComposite>
            <feColorMatrix values="0 0 0 0 0   0 0 0 0 0   0 0 0 0 0  0 0 0 0.08 0" type="matrix" in="shadowBlurOuter1"></feColorMatrix>
        </filter>
    </defs>
    <g id="Page-1" stroke="none" stroke-width="1" fill="none" fill-rule="evenodd">
        <g id="LL21---Manage-Card" transform="translate(-32.000000, -174.000000)">
            <rect fill="#FFFFFF" x="0" y="0" width="360" height="732"></rect>
            <g id="Group-3" transform="translate(16.000000, 157.000000)">
                <mask id="mask-2" fill="white">
                    <use xlink:href="#path-1"></use>
                </mask>
                <g id="Rectangle">
                    <use fill="black" fill-opacity="1" filter="url(#filter-3)" xlink:href="#path-1"></use>
                    <rect stroke="#E5E5E5" stroke-width="1" stroke-linejoin="square" fill="#FFFFFF" fill-rule="evenodd" x="0.5" y="0.5" width="327" height="81" rx="8"></rect>
                </g>
                <g id="CC/visa" mask="url(#mask-2)">
                    <g transform="translate(16.000000, 17.000000)" id="Group-6">
                        <g>
                            <rect id="Rectangle" fill="#FFFFFF" x="0" y="0" width="48.8" height="29" rx="4"></rect>
                            <g id="mastercard-seeklogo.com" transform="translate(13.000000, 6.000000)" fill-rule="nonzero">
                                <path d="M4.09465522,17.4215967 L4.09465522,16.262732 C4.09465522,15.8185006 3.82425347,15.5287844 3.36070761,15.5287844 C3.12893468,15.5287844 2.87784734,15.606042 2.70401765,15.8571294 C2.56881677,15.6446709 2.37567266,15.5287844 2.08595651,15.5287844 C1.8928124,15.5287844 1.69966829,15.5867277 1.54515301,15.7991863 L1.54515301,15.5674133 L1.13955039,15.5674133 L1.13955039,17.4215967 L1.54515301,17.4215967 L1.54515301,16.397933 C1.54515301,16.069588 1.71898271,15.9150727 1.98938445,15.9150727 C2.2597862,15.9150727 2.39498708,16.0889023 2.39498708,16.397933 L2.39498708,17.4215967 L2.8005897,17.4215967 L2.8005897,16.397933 C2.8005897,16.069588 2.99373381,15.9150727 3.24482114,15.9150727 C3.51522289,15.9150727 3.65042378,16.0889023 3.65042378,16.397933 L3.65042378,17.4215967 L4.09465522,17.4215967 L4.09465522,17.4215967 Z M10.1014369,15.5674133 L9.44474695,15.5674133 L9.44474695,15.0072954 L9.03914441,15.0072954 L9.03914441,15.5674133 L8.67217055,15.5674133 L8.67217055,15.934387 L9.03914441,15.934387 L9.03914441,16.7842212 C9.03914441,17.2091382 9.21297403,17.4602256 9.67651996,17.4602256 C9.85034958,17.4602256 10.0434937,17.4022823 10.1786946,17.3250246 L10.0628082,16.9773653 C9.94692166,17.0546229 9.81172081,17.0739373 9.71514874,17.0739373 C9.52200468,17.0739373 9.44474695,16.9580509 9.44474695,16.7649067 L9.44474695,15.934387 L10.1014369,15.934387 L10.1014369,15.5674133 L10.1014369,15.5674133 Z M13.539402,15.5287844 C13.3076291,15.5287844 13.1531138,15.6446709 13.0565418,15.7991863 L13.0565418,15.5674133 L12.6509391,15.5674133 L12.6509391,17.4215967 L13.0565418,17.4215967 L13.0565418,16.3786185 C13.0565418,16.069588 13.1917426,15.8957583 13.44283,15.8957583 C13.5200876,15.8957583 13.6166597,15.9150727 13.6939173,15.934387 L13.8098038,15.5480988 C13.7325462,15.5287844 13.6166597,15.5287844 13.539402,15.5287844 L13.539402,15.5287844 L13.539402,15.5287844 Z M8.34382556,15.7219286 C8.15068146,15.5867277 7.88027972,15.5287844 7.59056355,15.5287844 C7.12701771,15.5287844 6.8179871,15.7605574 6.8179871,16.1275312 C6.8179871,16.4365618 7.04976007,16.6103915 7.45536266,16.6683348 L7.6485068,16.6876491 C7.86096529,16.7262779 7.97685175,16.7842212 7.97685175,16.8807932 C7.97685175,17.0159941 7.82233647,17.1125662 7.55193473,17.1125662 C7.28153299,17.1125662 7.06907446,17.0159941 6.93387356,16.919422 L6.74072946,17.2284527 C6.953188,17.3829679 7.24290417,17.4602256 7.5326203,17.4602256 C8.07342382,17.4602256 8.38245438,17.2091382 8.38245438,16.8614788 C8.38245438,16.5331338 8.13136703,16.3593042 7.74507883,16.3013609 L7.55193473,16.2820465 C7.37810502,16.262732 7.24290417,16.2241033 7.24290417,16.1082168 C7.24290417,15.9730159 7.37810502,15.8957583 7.59056355,15.8957583 C7.82233647,15.8957583 8.05410939,15.9923303 8.16999585,16.0502735 L8.34382556,15.7219286 L8.34382556,15.7219286 Z M19.1212667,15.5287844 C18.8894938,15.5287844 18.7349785,15.6446709 18.6384065,15.7991863 L18.6384065,15.5674133 L18.2328038,15.5674133 L18.2328038,17.4215967 L18.6384065,17.4215967 L18.6384065,16.3786185 C18.6384065,16.069588 18.7736073,15.8957583 19.0246947,15.8957583 C19.1019523,15.8957583 19.1985244,15.9150727 19.275782,15.934387 L19.3916685,15.5480988 C19.3144109,15.5287844 19.1985244,15.5287844 19.1212667,15.5287844 L19.1212667,15.5287844 L19.1212667,15.5287844 Z M13.9450047,16.494505 C13.9450047,17.0546229 14.3312929,17.4602256 14.9300397,17.4602256 C15.2004414,17.4602256 15.3935855,17.4022823 15.5867296,17.247767 L15.3935855,16.919422 C15.2390702,17.0353085 15.0845549,17.0932517 14.9107252,17.0932517 C14.5823802,17.0932517 14.3506073,16.8614788 14.3506073,16.494505 C14.3506073,16.1468456 14.5823802,15.9150727 14.9107252,15.8957583 C15.0845549,15.8957583 15.2390702,15.9537015 15.3935855,16.069588 L15.5867296,15.741243 C15.3935855,15.5867277 15.2004414,15.5287844 14.9300397,15.5287844 C14.3312929,15.5287844 13.9450047,15.934387 13.9450047,16.494505 L13.9450047,16.494505 L13.9450047,16.494505 Z M17.6920004,16.494505 L17.6920004,15.5674133 L17.2863977,15.5674133 L17.2863977,15.7991863 C17.1511969,15.6253565 16.9580527,15.5287844 16.7069654,15.5287844 C16.1854763,15.5287844 15.7798737,15.934387 15.7798737,16.494505 C15.7798737,17.0546229 16.1854763,17.4602256 16.7069654,17.4602256 C16.9773672,17.4602256 17.1705113,17.3636534 17.2863977,17.1898238 L17.2863977,17.4215967 L17.6920004,17.4215967 L17.6920004,16.494505 Z M16.2047908,16.494505 C16.2047908,16.16616 16.4172492,15.8957583 16.7649087,15.8957583 C17.0932537,15.8957583 17.3250266,16.1468456 17.3250266,16.494505 C17.3250266,16.8228499 17.0932537,17.0932517 16.7649087,17.0932517 C16.4172492,17.0739373 16.2047908,16.8228499 16.2047908,16.494505 L16.2047908,16.494505 Z M11.3568736,15.5287844 C10.8160701,15.5287844 10.4297819,15.9150727 10.4297819,16.494505 C10.4297819,17.0739373 10.8160701,17.4602256 11.376188,17.4602256 C11.6465898,17.4602256 11.9169915,17.3829679 12.12945,17.2091382 L11.936306,16.919422 C11.7817907,17.0353085 11.5886465,17.1125662 11.3955025,17.1125662 C11.1444151,17.1125662 10.8933278,16.9966797 10.8353846,16.6683348 L12.2067076,16.6683348 L12.2067076,16.5138194 C12.2260221,15.9150727 11.8783627,15.5287844 11.3568736,15.5287844 L11.3568736,15.5287844 L11.3568736,15.5287844 Z M11.3568736,15.8764438 C11.607961,15.8764438 11.7817907,16.0309592 11.8204194,16.3206753 L10.854699,16.3206753 C10.8933278,16.069588 11.0671575,15.8764438 11.3568736,15.8764438 L11.3568736,15.8764438 Z M21.4196816,16.494505 L21.4196816,14.8334657 L21.014079,14.8334657 L21.014079,15.7991863 C20.8788781,15.6253565 20.685734,15.5287844 20.4346467,15.5287844 C19.9131576,15.5287844 19.5075549,15.934387 19.5075549,16.494505 C19.5075549,17.0546229 19.9131576,17.4602256 20.4346467,17.4602256 C20.7050484,17.4602256 20.8981925,17.3636534 21.014079,17.1898238 L21.014079,17.4215967 L21.4196816,17.4215967 L21.4196816,16.494505 Z M19.932472,16.494505 C19.932472,16.16616 20.1449305,15.8957583 20.4925899,15.8957583 C20.8209349,15.8957583 21.0527078,16.1468456 21.0527078,16.494505 C21.0527078,16.8228499 20.8209349,17.0932517 20.4925899,17.0932517 C20.1449305,17.0739373 19.932472,16.8228499 19.932472,16.494505 L19.932472,16.494505 Z M6.3737557,16.494505 L6.3737557,15.5674133 L5.96815306,15.5674133 L5.96815306,15.7991863 C5.83295217,15.6253565 5.63980807,15.5287844 5.38872072,15.5287844 C4.86723163,15.5287844 4.461629,15.934387 4.461629,16.494505 C4.461629,17.0546229 4.86723163,17.4602256 5.38872072,17.4602256 C5.65912246,17.4602256 5.8522666,17.3636534 5.96815306,17.1898238 L5.96815306,17.4215967 L6.3737557,17.4215967 L6.3737557,16.494505 Z M4.86723163,16.494505 C4.86723163,16.16616 5.07969016,15.8957583 5.42734954,15.8957583 C5.75569453,15.8957583 5.98746745,16.1468456 5.98746745,16.494505 C5.98746745,16.8228499 5.75569453,17.0932517 5.42734954,17.0932517 C5.07969016,17.0739373 4.86723163,16.8228499 4.86723163,16.494505 Z" id="Shape" fill="#000000"></path>
                                <rect id="Rectangle" fill="#FF5F00" x="8.20871925" y="1.48720984" width="6.08403935" height="10.9319561"></rect>
                                <path d="M8.59491291,6.95318615 C8.59491291,4.73202889 9.6378911,2.76195902 11.2409872,1.48720791 C10.0628081,0.560116196 8.57559848,-1.71335558e-06 6.953188,-1.71335558e-06 C3.10962027,-1.71335558e-06 1.51843016e-07,3.1096184 1.51843016e-07,6.95318615 C1.51843016e-07,10.7967538 3.10962027,13.906374 6.953188,13.906374 C8.57559848,13.906374 10.0628081,13.3462561 11.2409872,12.4191644 C9.6378911,11.1637276 8.59491291,9.17434341 8.59491291,6.95318615 Z" id="Path" fill="#EB001B"></path>
                                <path d="M22.5014777,6.95318615 C22.5014777,10.7967538 19.3918576,13.906374 15.5482898,13.906374 C13.9258793,13.906374 12.4386696,13.3462561 11.2604907,12.4191644 C12.8829011,11.1444133 13.9065648,9.17434341 13.9065648,6.95318615 C13.9065648,4.73202889 12.8635867,2.76195902 11.2604907,1.48720791 C12.4386696,0.560116196 13.9258793,-1.71335558e-06 15.5482898,-1.71335558e-06 C19.3918576,-1.71335558e-06 22.5014777,3.12893282 22.5014777,6.95318615 Z" id="Path" fill="#F79E1B"></path>
                            </g>
                        </g>
                    </g>
                </g>
            </g>
        </g>
    </g>
</svg>