<?xml version="1.0" encoding="UTF-8"?>
<svg width="68px" height="23px" viewBox="0 0 68 23" version="1.1" xmlns="http://www.w3.org/2000/svg" xmlns:xlink="http://www.w3.org/1999/xlink">
    <!-- Generator: Sketch 64 (93537) - https://sketch.com -->
    <title>ovo_logo_1</title>
    <desc>Created with Sketch.</desc>
    <g id="Page-1" stroke="none" stroke-width="1" fill="none" fill-rule="evenodd">
        <g id="ovo_logo_1" fill="#412A8C" fill-rule="nonzero">
            <path d="M22.8643137,1.11332209 L31.5482353,1.11332209 L31.5482353,4.58869239 L29.414902,4.58869239 L34.4796863,16.5844871 L39.4641569,4.59370735 L37.2655686,4.59370735 L37.2655686,1.11833705 L44.2076863,1.11833705 L44.2076863,3.12432279 L35.84,22.6024444 C33.8321569,22.6024444 32.512,21.8752745 31.8243137,20.3507254 L24.9273725,4.59370735 L22.8643137,4.59370735 L22.8643137,1.11332209 Z M10.9276863,0.501496436 C15.3847014,0.47102429 19.419838,3.12992791 21.1466395,7.23514991 C22.873441,11.340372 21.9507487,16.080857 18.8099283,19.2403928 C15.6691079,22.3999287 10.930681,23.3542961 6.80989766,21.6573211 C2.68911436,19.9603462 -7.38573749e-05,15.9472947 -7.38573749e-05,11.4942983 C-0.0106684066,8.58859456 1.13480807,5.79774072 3.18429436,3.73604201 C5.23378066,1.6743433 8.01928734,0.510790103 10.9276863,0.501496436 Z M10.892549,4.09722588 C7.08768627,4.09722588 4.01568627,7.44722207 4.01568627,11.5745377 C4.01568627,15.7018534 7.08768627,19.0568646 10.892549,19.0568646 C14.6974118,19.0568646 17.7894902,15.7118833 17.7894902,11.5795527 C17.7894902,7.44722207 14.7024314,4.09722588 10.892549,4.09722588 Z M56.5358431,0.501496436 C60.9928584,0.47102429 65.0279951,3.12992791 66.7547964,7.23514991 C68.4815977,11.340372 67.5589055,16.080857 64.4180851,19.2403928 C61.2772648,22.3999287 56.5388378,23.3542961 52.4180545,21.6573211 C48.2972712,19.9603462 45.608083,15.9472947 45.608083,11.4942983 C45.5974884,8.58859456 46.742965,5.79774072 48.7924512,3.73604201 C50.8419373,1.6743433 53.6274442,0.510790103 56.5358431,0.501496436 L56.5358431,0.501496436 Z M56.5007059,4.09722588 C52.6958431,4.09722588 49.6087843,7.44722207 49.6087843,11.5745377 C49.6087843,15.7018534 52.7058824,19.0568646 56.5007059,19.0568646 C60.2955294,19.0568646 63.3926275,15.7118833 63.3926275,11.5795527 C63.3926275,7.44722207 60.3105882,4.09722588 56.5007059,4.09722588 Z" id="Shape"></path>
        </g>
    </g>
</svg>