<?xml version="1.0" encoding="UTF-8"?>
<svg width="73px" height="20px" viewBox="0 0 73 20" version="1.1" xmlns="http://www.w3.org/2000/svg" xmlns:xlink="http://www.w3.org/1999/xlink">
    <!-- Generator: Sketch 64 (93537) - https://sketch.com -->
    <title>Group 4</title>
    <desc>Created with Sketch.</desc>
    <g id="Page-1" stroke="none" stroke-width="1" fill="none" fill-rule="evenodd">
        <g id="Components-/-Form-/-Checkbox-/-Default" transform="translate(0.000000, -64.000000)">
            <g id="Group-4" transform="translate(0.000000, 64.000000)">
                <g id="icon_shield">
                    <g id="credit-card" fill-rule="nonzero">
                        <path d="M10,5.71392857 L10,4.28535714 L1.42857143,4.28535714 C0.641428571,4.28535714 0,4.92678571 0,5.71392857 L0,8.57107143 L10.3014286,8.57107143 C10.1028571,7.69821429 10,6.75821429 10,5.71392857 Z" id="Path" fill="#D4B1EF"></path>
                        <path d="M22.7985714,11.4282143 C21.8242857,12.9296429 20.3385714,14.2067857 18.21,15.4296429 C17.8828571,15.6167857 17.5142857,15.7139286 17.1428571,15.7139286 C16.7714286,15.7139286 16.4028571,15.6167857 16.08,15.4325 C13.9514286,14.2067857 12.4657143,12.9282143 11.49,11.4282143 L0,11.4282143 L0,18.5710714 C0,19.3596429 0.641428571,19.9996429 1.42857143,19.9996429 L21.4285714,19.9996429 C22.2171429,19.9996429 22.8571429,19.3596429 22.8571429,18.5710714 L22.8571429,11.4282143 L22.7985714,11.4282143 L22.7985714,11.4282143 Z M6.42857143,15.7139286 L3.57142857,15.7139286 C3.17714286,15.7139286 2.85714286,15.3939286 2.85714286,14.9996429 C2.85714286,14.6053571 3.17714286,14.2853571 3.57142857,14.2853571 L6.42857143,14.2853571 C6.82285714,14.2853571 7.14285714,14.6053571 7.14285714,14.9996429 C7.14285714,15.3939286 6.82285714,15.7139286 6.42857143,15.7139286 Z" id="Shape" fill="#D4B1EF"></path>
                        <path d="M22.4242857,2.20107143 L17.4242857,0.0582142857 C17.2428571,-0.0189285714 17.0414286,-0.0189285714 16.86,0.0582142857 L11.86,2.20107143 C11.5985714,2.3125 11.4285714,2.57107143 11.4285714,2.85678571 L11.4285714,5.71392857 C11.4285714,9.64392857 12.8814286,11.9410714 16.7871429,14.1910714 C16.8971429,14.2539286 17.02,14.2853571 17.1428571,14.2853571 C17.2657143,14.2853571 17.3885714,14.2539286 17.4985714,14.1910714 C21.4042857,11.9467857 22.8571429,9.64964286 22.8571429,5.71392857 L22.8571429,2.85678571 C22.8571429,2.57107143 22.6871429,2.3125 22.4242857,2.20107143 Z M19.8442857,5.44678571 L16.9871429,9.01821429 C16.85,9.18678571 16.6442857,9.28535714 16.4285714,9.28535714 C16.4185714,9.28535714 16.4071429,9.28535714 16.3985714,9.28535714 C16.1714286,9.27535714 15.9614286,9.15821429 15.8342857,8.96821429 L14.4057143,6.82535714 C14.1871429,6.49678571 14.2757143,6.05392857 14.6042857,5.83535714 C14.93,5.61821429 15.3742857,5.70392857 15.5942857,6.03392857 L16.4814286,7.36392857 L18.7271429,4.55535714 C18.9742857,4.24821429 19.4242857,4.19964286 19.7314286,4.44392857 C20.04,4.68821429 20.0885714,5.13821429 19.8442857,5.44678571 Z" id="Shape" fill="#F05B68"></path>
                    </g>
                    <g id="Group-5" transform="translate(31.000000, 1.500000)" fill="#25182E">
                        <path d="M2.37277339,7.33090909 C1.07298391,7.33090909 0.402457598,6.79127273 0.103299703,6.53672727 C0.000141808398,6.45527273 -0.0411213495,6.39418182 0.0517207558,6.23127273 L0.423089177,5.6 C0.505615493,5.45745455 0.680983914,5.45745455 0.773826019,5.52872727 C1.19677339,5.84436364 1.66098391,6.16 2.33151023,6.16 C2.86793128,6.16 3.27024707,5.81381818 3.27024707,5.376 C3.27024707,4.85672727 2.82666812,4.50036364 1.96014181,4.15418182 C0.990457598,3.76727273 0.0207733873,3.15636364 0.0207733873,1.95490909 C0.0207733873,1.04872727 0.701615493,7.54951657e-14 2.34182602,7.54951657e-14 C3.39403655,7.54951657e-14 4.19866812,0.529454545 4.40498391,0.682181818 C4.50814181,0.743272727 4.53908918,0.916363636 4.46687865,1.01818182 L4.07487865,1.59854545 C3.99235233,1.72072727 3.83761549,1.80218182 3.71382602,1.72072727 C3.27024707,1.44581818 2.8472997,1.16072727 2.27993128,1.16072727 C1.69193128,1.16072727 1.37214181,1.48654545 1.37214181,1.87345455 C1.37214181,2.352 1.75382602,2.67781818 2.58940497,3.01381818 C3.59003655,3.41090909 4.74540497,4.00145455 4.74540497,5.31490909 C4.74540497,6.36363636 3.8272997,7.33090909 2.37277339,7.33090909 Z M6.76140497,7.03563636 L6.76140497,0.295272727 C6.76140497,0.193454545 6.84393128,0.101818182 6.95740497,0.101818182 L11.1559313,0.101818182 C11.269405,0.101818182 11.3519313,0.193454545 11.3519313,0.295272727 L11.3519313,1.13018182 C11.3519313,1.232 11.269405,1.32363636 11.1559313,1.32363636 L8.1024576,1.32363636 L8.1024576,2.99345455 L10.6504576,2.99345455 C10.7536155,2.99345455 10.8464576,3.08509091 10.8464576,3.18690909 L10.8464576,4.032 C10.8464576,4.144 10.7536155,4.22545455 10.6504576,4.22545455 L8.1024576,4.22545455 L8.1024576,6.00727273 L11.1559313,6.00727273 C11.269405,6.00727273 11.3519313,6.09890909 11.3519313,6.20072727 L11.3519313,7.03563636 C11.3519313,7.13745455 11.269405,7.22909091 11.1559313,7.22909091 L6.95740497,7.22909091 C6.84393128,7.22909091 6.76140497,7.13745455 6.76140497,7.03563636 Z M12.9037208,3.67563636 C12.9037208,1.63927273 14.5645629,7.54951657e-14 16.6277208,7.54951657e-14 C17.6696155,7.54951657e-14 18.4226681,0.325818182 19.1241418,0.946909091 C19.2169839,1.02836364 19.2169839,1.15054545 19.1344576,1.232 L18.5051944,1.87345455 C18.4329839,1.95490909 18.329826,1.95490909 18.2472997,1.87345455 C17.8140365,1.49672727 17.2363523,1.27272727 16.6586681,1.27272727 C15.3382471,1.27272727 14.3582471,2.36218182 14.3582471,3.64509091 C14.3582471,4.91781818 15.3485629,5.99709091 16.6689839,5.99709091 C17.2879313,5.99709091 17.8140365,5.76290909 18.2472997,5.41672727 C18.329826,5.34545455 18.4432997,5.35563636 18.5051944,5.41672727 L19.1447734,6.06836364 C19.2272997,6.13963636 19.2066681,6.272 19.1344576,6.34327273 C18.4329839,7.01527273 17.545826,7.33090909 16.6277208,7.33090909 C14.5645629,7.33090909 12.9037208,5.712 12.9037208,3.67563636 Z M21.0885629,4.61236364 L21.0885629,0.295272727 C21.0885629,0.193454545 21.181405,0.101818182 21.2845629,0.101818182 L22.2645629,0.101818182 C22.3780365,0.101818182 22.4605629,0.193454545 22.4605629,0.295272727 L22.4605629,4.54109091 C22.4605629,5.40654545 23.0588787,6.00727273 23.9563523,6.00727273 C24.853826,6.00727273 25.4624576,5.40654545 25.4624576,4.55127273 L25.4624576,0.295272727 C25.4624576,0.193454545 25.5449839,0.101818182 25.6584576,0.101818182 L26.6384576,0.101818182 C26.7416155,0.101818182 26.8344576,0.193454545 26.8344576,0.295272727 L26.8344576,4.61236364 C26.8344576,6.16 25.5862471,7.33090909 23.9563523,7.33090909 C22.3367734,7.33090909 21.0885629,6.16 21.0885629,4.61236364 Z M29.2527734,7.03563636 L29.2527734,0.295272727 C29.2527734,0.193454545 29.3352997,0.101818182 29.4487734,0.101818182 L32.3990892,0.101818182 C33.6369839,0.101818182 34.6479313,1.07927273 34.6479313,2.29090909 C34.6479313,3.22763636 34.0186681,3.99127273 33.1211944,4.34763636 L34.5344576,6.93381818 C34.6066681,7.06618182 34.5344576,7.22909091 34.3590892,7.22909091 L33.2759313,7.22909091 C33.1830892,7.22909091 33.1315102,7.17818182 33.1108787,7.13745455 L31.7388787,4.43927273 L30.593826,4.43927273 L30.593826,7.03563636 C30.593826,7.13745455 30.5009839,7.22909091 30.397826,7.22909091 L29.4487734,7.22909091 C29.3352997,7.22909091 29.2527734,7.13745455 29.2527734,7.03563636 Z M30.6041418,3.34981818 L32.2856155,3.34981818 C32.8323523,3.34981818 33.3068787,2.88145455 33.3068787,2.31127273 C33.3068787,1.77163636 32.8323523,1.32363636 32.2856155,1.32363636 L30.6041418,1.32363636 L30.6041418,3.34981818 Z M36.7980365,7.03563636 L36.7980365,0.295272727 C36.7980365,0.193454545 36.8805629,0.101818182 36.9940365,0.101818182 L41.1925629,0.101818182 C41.3060365,0.101818182 41.3885629,0.193454545 41.3885629,0.295272727 L41.3885629,1.13018182 C41.3885629,1.232 41.3060365,1.32363636 41.1925629,1.32363636 L38.1390892,1.32363636 L38.1390892,2.99345455 L40.6870892,2.99345455 C40.7902471,2.99345455 40.8830892,3.08509091 40.8830892,3.18690909 L40.8830892,4.032 C40.8830892,4.144 40.7902471,4.22545455 40.6870892,4.22545455 L38.1390892,4.22545455 L38.1390892,6.00727273 L41.1925629,6.00727273 C41.3060365,6.00727273 41.3885629,6.09890909 41.3885629,6.20072727 L41.3885629,7.03563636 C41.3885629,7.13745455 41.3060365,7.22909091 41.1925629,7.22909091 L36.9940365,7.22909091 C36.8805629,7.22909091 36.7980365,7.13745455 36.7980365,7.03563636 Z" id="SECURE"></path>
                        <path d="M0.927,18.142 C1.026,18.142 1.125,18.043 1.125,17.944 L1.125,15.928 C1.314,16 1.71,16.099 2.124,16.099 C3.366,16.099 4.185,15.145 4.185,13.93 C4.185,12.67 3.33,11.752 2.196,11.752 C1.314,11.752 0.837,12.373 0.837,12.373 L0.729,12.04 C0.693,11.923 0.63,11.842 0.531,11.842 L0.198,11.842 C0.09,11.842 1.98951966e-13,11.932 1.98951966e-13,12.04 L1.98951966e-13,17.944 C1.98951966e-13,18.043 0.09,18.142 0.198,18.142 L0.927,18.142 Z M1.989,15.073 C1.467,15.073 1.125,14.839 1.125,14.839 L1.125,13.354 C1.215,13.12 1.503,12.778 2.043,12.778 C2.691,12.778 3.024,13.345 3.024,13.93 C3.024,14.515 2.673,15.073 1.989,15.073 Z M6.21,16.099 C6.858,16.099 7.272,15.811 7.515,15.577 L7.632,15.856 C7.686,15.973 7.74,16 7.812,16 L8.118,16 C8.226,16 8.316,15.91 8.316,15.802 L8.316,13.561 C8.316,12.427 8.046,11.752 6.75,11.752 C6.075,11.752 5.418,11.923 5.328,11.959 C5.238,11.986 5.157,12.058 5.193,12.211 L5.283,12.679 C5.301,12.805 5.382,12.904 5.517,12.859 C5.76,12.787 6.309,12.706 6.687,12.706 C7.128,12.706 7.281,12.958 7.263,13.489 C7.263,13.489 6.885,13.372 6.462,13.372 C5.409,13.372 4.806,13.939 4.806,14.677 C4.806,15.568 5.382,16.099 6.21,16.099 Z M6.489,15.262 C6.102,15.262 5.886,15.028 5.886,14.677 C5.886,14.308 6.147,14.083 6.624,14.083 C6.957,14.083 7.236,14.209 7.236,14.209 L7.236,14.821 C7.182,14.974 6.858,15.262 6.489,15.262 Z M10.458,18.142 C10.539,18.142 10.611,18.079 10.638,18.016 L13.086,12.112 C13.149,11.977 13.068,11.842 12.906,11.842 L12.141,11.842 C12.015,11.842 11.943,11.851 11.88,11.959 L10.935,14.443 L10.917,14.443 L10.17,11.959 C10.152,11.887 10.089,11.842 9.999,11.842 L9.135,11.842 C8.973,11.842 8.901,11.968 8.955,12.112 L10.251,15.757 L9.414,17.863 C9.351,18.007 9.432,18.142 9.594,18.142 L10.458,18.142 Z M14.76,16 C14.859,16 14.958,15.91 14.958,15.802 L14.958,13.426 C15.057,13.138 15.246,12.778 15.759,12.778 C16.29,12.778 16.443,13.111 16.443,13.651 L16.443,15.802 C16.443,15.91 16.524,16 16.641,16 L17.379,16 C17.478,16 17.577,15.91 17.577,15.802 L17.577,13.606 C17.577,13.417 17.559,13.21 17.559,13.21 C17.559,13.21 17.73,12.778 18.333,12.778 C18.855,12.778 19.053,13.111 19.053,13.651 L19.053,15.802 C19.053,15.91 19.143,16 19.251,16 L19.971,16 C20.088,16 20.178,15.91 20.178,15.802 L20.178,13.678 C20.178,12.598 19.863,11.752 18.531,11.752 C17.784,11.752 17.37,12.193 17.19,12.382 C16.848,11.968 16.551,11.752 15.948,11.752 C15.219,11.752 14.85,12.157 14.679,12.355 L14.526,11.959 C14.508,11.887 14.445,11.842 14.355,11.842 L14.031,11.842 C13.932,11.842 13.833,11.923 13.833,12.04 L13.833,15.802 C13.833,15.91 13.932,16 14.031,16 L14.76,16 Z M23.139,16.099 C23.814,16.099 24.327,15.838 24.687,15.532 C24.786,15.442 24.777,15.343 24.705,15.262 L24.354,14.794 C24.291,14.704 24.183,14.713 24.084,14.794 C23.895,14.947 23.607,15.1 23.193,15.1 C22.59,15.1 22.167,14.65 22.158,14.137 L24.822,14.137 C24.912,14.137 25.011,14.056 25.02,13.948 C25.029,13.885 25.038,13.741 25.038,13.678 C25.038,12.553 24.21,11.752 23.13,11.752 C21.897,11.752 21.033,12.751 21.033,13.921 C21.033,15.109 21.897,16.099 23.139,16.099 Z M23.904,13.399 L22.221,13.399 C22.275,12.985 22.599,12.679 23.103,12.679 C23.562,12.679 23.886,12.994 23.904,13.399 Z M26.748,16 C26.946,16 27.009,15.955 27.009,15.802 L27.009,13.426 C27.108,13.138 27.369,12.778 27.909,12.778 C28.413,12.778 28.629,13.111 28.629,13.651 L28.629,15.802 C28.629,15.91 28.719,16 28.827,16 L29.556,16 C29.655,16 29.754,15.91 29.754,15.802 L29.754,13.651 C29.754,12.643 29.412,11.752 28.089,11.752 C27.288,11.752 26.901,12.184 26.748,12.355 L26.595,11.968 C26.568,11.887 26.523,11.842 26.424,11.842 L26.082,11.842 C25.983,11.842 25.884,11.923 25.884,12.04 L25.884,15.802 C25.884,15.91 25.983,16 26.082,16 L26.748,16 Z M32.265,16.099 C32.697,16.099 33.291,15.91 33.435,15.829 C33.534,15.775 33.579,15.694 33.552,15.586 L33.435,15.037 C33.417,14.938 33.318,14.884 33.201,14.929 C33.093,14.965 32.751,15.064 32.571,15.064 C32.364,15.064 32.229,15.001 32.229,14.722 L32.229,12.85 L33.201,12.85 C33.309,12.85 33.399,12.751 33.399,12.652 L33.399,12.04 C33.399,11.923 33.309,11.842 33.201,11.842 L32.229,11.842 L32.229,10.69 C32.229,10.582 32.148,10.492 32.04,10.492 L31.302,10.492 C31.203,10.492 31.104,10.582 31.104,10.69 L31.104,11.842 L30.699,11.842 C30.591,11.842 30.51,11.923 30.51,12.04 L30.51,12.652 C30.51,12.751 30.591,12.85 30.699,12.85 L31.104,12.85 L31.104,14.758 C31.104,15.478 31.338,16.099 32.265,16.099 Z" id="payment" fill-rule="nonzero"></path>
                    </g>
                </g>
            </g>
        </g>
    </g>
</svg>