<?xml version="1.0" encoding="UTF-8"?>
<svg width="49px" height="29px" viewBox="0 0 49 29" version="1.1" xmlns="http://www.w3.org/2000/svg" xmlns:xlink="http://www.w3.org/1999/xlink">
    <!-- Generator: Sketch 64 (93537) - https://sketch.com -->
    <title>Rectangle</title>
    <desc>Created with Sketch.</desc>
    <g id="Page-1" stroke="none" stroke-width="1" fill="none" fill-rule="evenodd">
        <g id="CC/visa">
            <g id="Group-6">
                <rect id="Rectangle" fill="#FFFFFF" x="0" y="0" width="48.8" height="29" rx="4"></rect>
                <g id="visa" transform="translate(6.000000, 8.000000)">
                    <g id="Group" transform="translate(0.549495, 0.581818)">
                        <polyline id="Fill-3" fill="#26337A" points="12.395015 11.2451948 14.1767149 0.192447376 17.0246982 0.192447376 15.2431612 11.2451948 12.395015 11.2451948"></polyline>
                        <path d="M25.5736978,0.463734516 C25.0105842,0.241905862 24.1249467,-2.71298135e-13 23.0216871,-2.71298135e-13 C20.2059562,-2.71298135e-13 18.2239006,1.49991428 18.2074486,3.64768576 C18.1895306,5.23639679 19.6218297,6.12240558 20.701633,6.65045245 C21.8114082,7.19172089 22.1842654,7.53809352 22.1798673,8.02206848 C22.1722114,8.76231347 21.294067,9.10150401 20.4752147,9.10150401 C19.3349789,9.10150401 18.7291879,8.93452041 17.7925656,8.52187667 L17.4262241,8.34591546 L17.0279561,10.8199824 C17.692062,11.1278329 18.9231909,11.3950393 20.2009066,11.409077 C23.1933741,11.409077 25.1378019,9.92728118 25.1606067,7.63374591 C25.1708688,6.37394197 24.4119604,5.41905041 22.7683919,4.63065276 C21.7731289,4.11811268 21.1622883,3.77859568 21.1692926,3.25985288 C21.1699441,2.80052555 21.6853307,2.30871559 22.8008072,2.30871559 C23.7323798,2.2936985 24.4067479,2.50883475 24.9322337,2.7334383 L25.1879723,2.8597778 L25.5736978,0.463734516" id="Fill-4" fill="#26337A"></path>
                        <path d="M29.3659593,7.32654832 C29.6019881,6.69125978 30.5004939,4.23710686 30.5004939,4.23710686 C30.4838791,4.26632491 30.7352196,3.59692144 30.8790522,3.18264541 L31.0712634,4.13590467 C31.0712634,4.13590467 31.6177621,6.77401705 31.7303197,7.32654832 L29.3659593,7.32654832 L29.3659593,7.32654832 Z M32.8795145,0.203710199 L30.6785336,0.203710199 C29.9958581,0.203710199 29.4848696,0.399258932 29.185802,1.11991641 L24.9563415,11.2491123 L27.9476688,11.2491123 C27.9476688,11.2491123 28.4356897,9.88647384 28.5464555,9.58743772 C28.8727258,9.58743772 31.7793498,9.59315074 32.1942328,9.59315074 C32.2795876,9.97886164 32.5410274,11.2491123 32.5410274,11.2491123 L35.1844198,11.2491123 L32.8795145,0.203710199 L32.8795145,0.203710199 Z" id="Fill-5" fill="#26337A"></path>
                        <path d="M10.0057323,0.201751447 L7.21818146,7.73707007 L6.91960256,6.20532607 C6.4001437,4.4404906 4.7831264,2.52760612 2.9743866,1.56912352 L5.52460547,11.2355642 L8.53873744,11.2337687 L13.0237736,0.201751447 L10.0057323,0.201751447" id="Fill-6" fill="#26337A"></path>
                        <path d="M4.63049769,0.194242898 L0.0377906731,0.194242898 L1.28069945e-12,0.423253643 C3.57366197,1.33880694 5.9381853,3.54876879 6.91960256,6.20532607 L5.92157043,1.12677204 C5.74939482,0.426355001 5.24899418,0.218727297 4.63049769,0.194242898" id="Fill-7" fill="#EC982D"></path>
                    </g>
                </g>
            </g>
        </g>
    </g>
</svg>