<?xml version="1.0" encoding="UTF-8"?>
<svg width="38px" height="27px" viewBox="0 0 38 27" version="1.1" xmlns="http://www.w3.org/2000/svg" xmlns:xlink="http://www.w3.org/1999/xlink">
    <title>Group 38 Copy 6</title>
    <g id="Page-1" stroke="none" stroke-width="1" fill="none" fill-rule="evenodd">
        <g id="LL22---Ribbon-Mobile-App-Copy" transform="translate(-13.000000, -110.000000)">
            <g id="Group-6-Copy-5" transform="translate(0.000000, 106.000000)">
                <g id="Group-38-Copy-6" transform="translate(13.000000, 4.000000)">
                    <rect id="Rectangle" x="0" y="5" width="38" height="22"></rect>
                    <g id="Group-17" transform="translate(7.000000, 0.000000)">
                        <rect id="Rectangle" x="0" y="0" width="24" height="24"></rect>
                        <g id="Group-11" transform="translate(12.000000, 12.000000) scale(-1, 1) translate(-12.000000, -12.000000) translate(3.000000, 3.000000)" fill="#A775C8" fill-rule="nonzero">
                            <path d="M1.76245384,11.367919 C1.90607107,11.367919 2.04364948,11.310817 2.14513415,11.209305 C2.24661881,11.1077929 2.30370538,10.9701774 2.30370538,10.8265214 L2.30370538,8.66093131 L7.445595,8.66093131 L7.445595,16.7818943 L6.36309192,16.7818943 C6.06422442,16.7818943 5.82184038,17.0243437 5.82184038,17.3232918 C5.82184038,17.62224 6.06422442,17.8646894 6.36309192,17.8646894 L14.2112392,17.8646894 C14.9287455,17.863783 15.6166375,17.5782823 16.1239062,17.0708846 C16.6311749,16.5634868 16.9166077,15.8754015 16.9174969,15.1577017 L16.9174969,9.74372638 C16.9174969,9.44477826 16.6751129,9.20232885 16.3762454,9.20232885 C16.0773779,9.20232885 15.8349938,9.44477826 15.8349938,9.74372638 L15.8349938,15.1577017 C15.8345408,15.5883834 15.6632857,16.001083 15.3588471,16.3056192 C15.0544086,16.6101553 14.6418048,16.7814689 14.2112392,16.7818943 L10.6931042,16.7818943 L10.6931042,11.367919 C10.6931042,11.0689709 10.4507202,10.8265214 10.1518527,10.8265214 C9.85298519,10.8265214 9.61060115,11.0689709 9.61060115,11.367919 L9.61060115,16.7818943 L8.52809808,16.7818943 L8.52809808,8.66093131 L16.3762454,8.66093131 C16.806811,8.66047813 17.2193993,8.48917681 17.5238533,8.18465617 C17.8283073,7.88013553 17.9995747,7.46742045 18,7.03673872 L18,5.41254612 C17.9995469,4.98186438 17.8282918,4.56916478 17.5238533,4.26462866 C17.2194148,3.96009255 16.806811,3.7887789 16.3762454,3.78835352 L12.9875468,3.78835352 C13.4566186,3.08666365 13.528953,2.19212024 13.1787362,1.42426385 C12.8285233,0.656291452 12.105589,0.124561733 11.2683502,0.0191052277 C10.4311114,-0.0863512774 9.59897584,0.249620696 9.06936121,0.906726482 C8.53974658,0.249624563 7.707611,-0.0863512774 6.87037219,0.0191052277 C6.03313338,0.124561733 5.31021463,0.656291452 4.95998623,1.42426385 C4.60977329,2.19208157 4.68211155,3.08666365 5.1511756,3.78835352 L1.76247704,3.78835352 C1.33191144,3.78880671 0.919323125,3.96010802 0.614869135,4.26462866 C0.310415144,4.56914931 0.139147693,4.98186438 0.138722424,5.41254612 L0.138722424,7.03673872 C0.13917549,7.37224277 0.243377275,7.69944797 0.437288371,7.97331778 C0.631044824,8.24718759 0.905007022,8.45431081 1.2212139,8.56622542 L1.2212139,10.8265214 C1.2212139,10.9701774 1.27830048,11.1077929 1.37978514,11.209305 C1.4812698,11.310817 1.61884821,11.367919 1.76246544,11.367919 L1.76245384,11.367919 Z M9.61060115,4.87114859 L9.61060115,7.57813625 L8.52809808,7.57813625 L8.52809808,4.87114859 L9.61060115,4.87114859 Z M10.96373,1.08136586 C11.3225488,1.08136586 11.6667384,1.2239661 11.9205854,1.47774619 C12.1742971,1.73167711 12.3168588,2.0759518 12.3168588,2.43485969 C12.3168588,2.79376758 12.1742971,3.13805774 11.9205854,3.39197318 C11.666723,3.64575328 11.3225411,3.78835352 10.96373,3.78835352 C10.6049189,3.78835352 10.2607216,3.64575328 10.0068746,3.39197318 C9.75316294,3.13804227 9.61060115,2.79376758 9.61060115,2.43485969 C9.61105422,2.07609488 9.75376605,1.73197101 10.0073385,1.47821025 C10.2610502,1.22458097 10.6050735,1.08182991 10.96373,1.08136586 Z M5.82184038,2.43485969 C5.82184038,2.07594406 5.96440217,1.73166164 6.21811383,1.47774619 C6.47197627,1.2239661 6.81615812,1.08136586 7.17496923,1.08136586 C7.53378034,1.08136586 7.87797766,1.2239661 8.13182463,1.47774619 C8.38553629,1.73167711 8.52809808,2.0759518 8.52809808,2.43485969 C8.52809808,2.79376758 8.38553629,3.13805774 8.13182463,3.39197318 C7.87796219,3.64575328 7.53378034,3.78835352 7.17496923,3.78835352 C6.81630116,3.78790033 6.47227009,3.64515001 6.21857776,3.39150913 C5.96501688,3.13772904 5.82230431,2.7936129 5.82184038,2.43485969 Z" id="Shape"></path>
                            <path d="M10.6931042,9.74372638 C10.6931042,10.0426745 10.4507202,10.2851239 10.1518527,10.2851239 C9.85298519,10.2851239 9.61060115,10.0426745 9.61060115,9.74372638 C9.61060115,9.44477826 9.85298519,9.20232885 10.1518527,9.20232885 C10.4507202,9.20232885 10.6931042,9.44477826 10.6931042,9.74372638" id="Path"></path>
                            <path d="M2.46469381,17.6286075 C2.68526862,17.8654434 2.9942032,18 3.31779227,18 C3.64138135,18 3.95032945,17.8654569 4.17089074,17.6286075 L5.97169605,15.6851658 C6.45048615,15.2092609 6.68863012,14.5423649 6.6199562,13.8705629 C6.55867039,13.3445503 6.31735815,12.8560932 5.93724074,12.4877456 C5.55712333,12.1193981 5.06128479,11.8939303 4.53400704,11.8496759 C4.1147952,11.8157102 3.69423085,11.8964611 3.31742033,12.0833382 C2.79132604,11.8249603 2.18773267,11.7727549 1.62518812,11.9372984 C0.879445483,12.1543111 0.298168602,12.7403075 0.0867029743,13.4880999 C-0.0234525618,13.8708268 -0.0287375118,14.2761884 0.0713816911,14.661588 C0.171630059,15.0471231 0.373584129,15.3985199 0.656107483,15.6789675 L2.46469381,17.6286075 Z" id="Shape"></path>
                        </g>
                    </g>
                </g>
            </g>
        </g>
    </g>
</svg>