<?xml version="1.0" encoding="UTF-8"?>
<svg width="35px" height="38px" viewBox="0 0 35 38" version="1.1" xmlns="http://www.w3.org/2000/svg" xmlns:xlink="http://www.w3.org/1999/xlink">
    <!-- Generator: Sketch 64 (93537) - https://sketch.com -->
    <title>Group 29</title>
    <desc>Created with Sketch.</desc>
    <g id="Page-1" stroke="none" stroke-width="1" fill="none" fill-rule="evenodd">
        <g id="Group-29">
            <path d="M34.2955371,37.269742 L8.60632862,37.269742 L8.60632862,29.0370353 C8.60632862,21.9431201 14.3570848,16.1924982 21.451,16.1924982 L21.451,16.1924982 C28.5447809,16.1924982 34.2955371,21.9431201 34.2955371,29.0370353 L34.2955371,37.269742 Z" id="Fill-1" fill="#F5EEFF"></path>
            <path d="M9.27773357,36.5983908 L33.6240516,36.5983908 L33.6240516,29.0369279 C33.6240516,22.324624 28.1631965,16.8637689 21.4508926,16.8637689 C14.7385887,16.8637689 9.27773357,22.324624 9.27773357,29.0369279 L9.27773357,36.5983908 Z M34.9668078,37.941147 L7.93497739,37.941147 L7.93497739,29.0369279 C7.93497739,21.5843625 13.9981929,15.5210127 21.4508926,15.5210127 C28.9035922,15.5210127 34.9668078,21.5843625 34.9668078,29.0369279 L34.9668078,37.941147 Z" id="Fill-3" fill="#A179C5"></path>
            <path d="M21.4509731,0.671364664 C16.5585067,0.671364664 12.592542,4.6374636 12.592542,9.52979576 L12.592542,13.3974707 L15.9330509,13.3974707 C15.1636516,12.3021845 14.7099343,10.9692304 14.7099343,9.52912438 C14.7099343,9.10091943 14.7506198,8.68238233 14.8270226,8.27633286 C15.1108813,8.31956961 15.4013194,8.34293357 15.6972629,8.34293357 C18.8159484,8.34293357 21.3576516,5.87709611 21.4817223,2.78875689 C21.4856163,2.78875689 21.4896445,2.78889117 21.4936728,2.78889117 C21.6177435,5.87723039 24.1594466,8.34293357 27.2781322,8.34293357 C27.5493689,8.34293357 27.8160403,8.32373216 28.0770721,8.28720919 C28.1522664,8.68976749 28.192012,9.10481343 28.192012,9.52912438 C28.192012,10.9692304 27.7382947,12.3021845 26.9688954,13.3974707 L30.3094042,13.3974707 L30.3094042,9.52979576 C30.3094042,4.6374636 26.3434396,0.671364664 21.4509731,0.671364664" id="Fill-5" fill="#D4B1EF"></path>
            <path d="M28.138342,12.7261194 L29.6380664,12.7261194 L29.6380664,9.52982261 C29.6380664,5.01547633 25.9652254,1.34276961 21.4508792,1.34276961 C16.9365329,1.34276961 13.2639604,5.01547633 13.2639604,9.52982261 L13.2639604,12.7261194 L14.7636848,12.7261194 C14.2867378,11.7334198 14.0385965,10.6472643 14.0385965,9.52915124 C14.0385965,9.06885442 14.0818332,8.60560353 14.1672325,8.15215477 C14.234236,7.79659293 14.5718049,7.55811943 14.9283067,7.61263534 C15.1850417,7.65170954 15.4437908,7.67158233 15.6973032,7.67158233 C18.4541159,7.67158233 20.7002784,5.51498163 20.8109216,2.76179435 C20.8256919,2.39737032 21.1307661,2.10867774 21.4929074,2.11740565 C21.4958615,2.11740565 21.5035152,2.1176742 21.506335,2.1176742 C21.8667307,2.1176742 22.149918,2.40193569 22.1645541,2.76192862 C22.2751972,5.51498163 24.5213597,7.67158233 27.2781724,7.67158233 C27.5123491,7.67158233 27.7497484,7.65506643 27.9841936,7.62230318 C28.3388155,7.57302403 28.671282,7.8110947 28.737077,8.16397102 C28.820865,8.61298869 28.8632961,9.07221131 28.8632961,9.52915124 C28.8632961,10.6472643 28.615289,11.7334198 28.138342,12.7261194 M30.3094445,14.0688756 L26.9689357,14.0688756 C26.7183774,14.0688756 26.4887661,13.9293633 26.3731548,13.7071371 C26.2576777,13.4847767 26.2755364,13.2166283 26.4194799,13.0115894 C27.1397343,11.9861265 27.5205399,10.7819428 27.5205399,9.52915124 C27.5205399,9.35633852 27.5131548,9.18312297 27.4983845,9.0105788 C27.4249357,9.01313004 27.3514869,9.01433852 27.2781724,9.01433852 C24.7396919,9.01433852 22.5441512,7.56577314 21.4878049,5.43280495 C20.4313244,7.56577314 18.2357837,9.01433852 15.6973032,9.01433852 C15.5999534,9.01433852 15.5020664,9.01205583 15.403911,9.00749046 C15.3888721,9.18124311 15.3813527,9.35539859 15.3813527,9.52915124 C15.3813527,10.7819428 15.7621583,11.9861265 16.4824127,13.0115894 C16.6264905,13.2166283 16.6442148,13.4847767 16.5287378,13.7071371 C16.4132608,13.9293633 16.1836495,14.0688756 15.9330912,14.0688756 L12.5925823,14.0688756 C12.2217131,14.0688756 11.9212042,13.7682325 11.9212042,13.3974975 L11.9212042,9.52982261 C11.9212042,4.27508057 16.1961371,1.34275618e-05 21.4508792,1.34275618e-05 C26.7057555,1.34275618e-05 30.9808226,4.27508057 30.9808226,9.52982261 L30.9808226,13.3974975 C30.9808226,13.7682325 30.6803138,14.0688756 30.3094445,14.0688756" id="Fill-7" fill="#A179C5"></path>
            <path d="M28.1913541,9.50208127 C28.1897428,9.08716961 28.1506686,8.68112014 28.0770855,8.28715548 C27.8159194,8.32367845 27.5493823,8.34301413 27.2781456,8.34301413 C24.1594601,8.34301413 21.6177569,5.87717668 21.4936862,2.78897173 C21.489658,2.78883746 21.4856297,2.78870318 21.4817357,2.78870318 C21.357665,5.8770424 18.8159618,8.34301413 15.697142,8.34301413 C15.4011986,8.34301413 15.1108947,8.3195159 14.827036,8.27627915 C14.7522445,8.67373498 14.7122304,9.08340989 14.7106191,9.50221555 C14.737877,13.2017774 17.7449795,16.192364 21.4509866,16.192364 C25.1569936,16.192364 28.1640961,13.2016431 28.1913541,9.50208127" id="Fill-9" fill="#FFEBDE"></path>
            <path d="M15.4041929,9.00750389 C15.390094,9.17279717 15.3825746,9.33889611 15.3819032,9.50499505 C15.4066099,12.818783 18.1290481,15.5210799 21.4508926,15.5210799 C24.7717972,15.5210799 27.4934297,12.8207972 27.519882,9.50083251 C27.5192106,9.33715053 27.5119597,9.17333428 27.4981293,9.01059223 C27.4246806,9.01314346 27.3513661,9.01435194 27.2781859,9.01435194 C24.7397053,9.01435194 22.5441647,7.56578657 21.4878184,5.43281837 C20.4312035,7.56578657 18.2357972,9.01435194 15.6973166,9.01435194 C15.5999668,9.01435194 15.5022141,9.01206926 15.4041929,9.00750389 M21.4508926,16.863836 C17.3940233,16.863836 14.0692247,13.5636099 14.039147,9.50714346 C14.0410269,9.04698092 14.0841293,8.59366643 14.1673802,8.15203392 C14.2342495,7.79660636 14.5722212,7.55799859 14.9283201,7.61264876 C15.1850551,7.65172297 15.4438042,7.67159576 15.6973166,7.67159576 C18.4541293,7.67159576 20.7002919,5.51499505 20.810935,2.76180777 C20.8253025,2.40181484 21.1213802,2.11741908 21.481776,2.11741908 C21.4866099,2.11741908 21.4993661,2.11741908 21.5043343,2.11741908 C21.8586876,2.12547562 22.1502,2.40758869 22.1645675,2.76194205 C22.2752106,5.51499505 24.5213731,7.67159576 27.2781859,7.67159576 C27.5123625,7.67159576 27.7497618,7.65507986 27.9842071,7.62231661 C28.338829,7.57290318 28.6712954,7.81110813 28.7370905,8.16385018 C28.81873,8.60118587 28.8610269,9.05060636 28.8626382,9.49948975 L28.8626382,9.50700919 C28.832829,13.5636099 25.5078961,16.863836 21.4508926,16.863836" id="Fill-11" fill="#A179C5"></path>
            <path d="M21.4509194,14.3284438 C20.2491527,14.3284438 19.2714919,13.3506488 19.2714919,12.148882 L20.6142481,12.148882 C20.6142481,12.6103873 20.9895484,12.9856876 21.4509194,12.9856876 C21.9124247,12.9856876 22.2877251,12.6103873 22.2877251,12.148882 L23.6304813,12.148882 C23.6304813,13.3506488 22.6526862,14.3284438 21.4509194,14.3284438" id="Fill-13" fill="#A179C5"></path>
            <path d="M15.4281074,21.3779541 C15.4281074,24.2678339 13.0854007,26.6105406 10.1955208,26.6105406 C7.30564099,26.6105406 4.96293428,24.2678339 4.96293428,21.3779541 C4.96293428,18.4880742 7.30564099,16.1453675 10.1955208,16.1453675 C13.0854007,16.1453675 15.4281074,18.4880742 15.4281074,21.3779541" id="Fill-15" fill="#F8CAC3"></path>
            <path d="M10.1955074,16.8167993 C7.68052509,16.8167993 5.63429894,18.8628912 5.63429894,21.3780078 C5.63429894,23.8929901 7.68052509,25.9392163 10.1955074,25.9392163 C12.7104898,25.9392163 14.7567159,23.8929901 14.7567159,21.3780078 C14.7567159,18.8628912 12.7104898,16.8167993 10.1955074,16.8167993 M10.1955074,27.2819724 C6.94012933,27.2819724 4.29154276,24.6333859 4.29154276,21.3780078 C4.29154276,18.1224954 6.94012933,15.4740431 10.1955074,15.4740431 C13.4508855,15.4740431 16.0994721,18.1224954 16.0994721,21.3780078 C16.0994721,24.6333859 13.4508855,27.2819724 10.1955074,27.2819724" id="Fill-17" fill="#A179C5"></path>
            <path d="M10.1955074,24.8038353 C9.17984664,24.8038353 8.35351449,23.9775032 8.35351449,22.9617081 L9.69627067,22.9617081 C9.69627067,23.2371074 9.9202424,23.4610792 10.1955074,23.4610792 C10.4709067,23.4610792 10.6948784,23.2371074 10.6948784,22.9617081 L12.0376346,22.9617081 C12.0376346,23.9775032 11.2111682,24.8038353 10.1955074,24.8038353" id="Fill-19" fill="#A179C5"></path>
            <path d="M10.1955477,26.6105138 L10.1955477,26.6105138 C15.4556608,26.6105138 19.7197173,30.8745703 19.7197173,36.1346834 L19.7197173,37.2850226 L0.671378092,37.2850226 L0.671378092,36.1346834 C0.671378092,30.8745703 4.9355689,26.6105138 10.1955477,26.6105138" id="Fill-21" fill="#D4B1EF"></path>
            <path d="M1.34275618,36.6136042 L19.0483392,36.6136042 L19.0483392,36.1346431 C19.0483392,31.2533216 15.0770035,27.2818516 10.1955477,27.2818516 C5.31409187,27.2818516 1.34275618,31.2533216 1.34275618,36.1346431 L1.34275618,36.6136042 Z M19.7197173,37.9563604 L0.671378092,37.9563604 C0.300508834,37.9563604 0,37.6557173 0,37.2849823 L0,36.1346431 C0,30.5127915 4.57369611,25.9390954 10.1955477,25.9390954 C15.8173993,25.9390954 20.3910954,30.5127915 20.3910954,36.1346431 L20.3910954,37.2849823 C20.3910954,37.6557173 20.0905866,37.9563604 19.7197173,37.9563604 L19.7197173,37.9563604 Z" id="Fill-23" fill="#A179C5"></path>
            <path d="M15.3026806,20.2405322 C14.7831682,17.8978254 12.6946452,16.1453943 10.1956417,16.1453943 C7.69650389,16.1453943 5.60798092,17.8978254 5.08846855,20.2405322 C5.50418587,20.3744049 5.94729541,20.4474509 6.40759223,20.4474509 C8.04508339,20.4474509 9.4686735,19.5323625 10.1956417,18.1858466 C10.9224756,19.5323625 12.3460657,20.4474509 13.9835569,20.4474509 C14.4438537,20.4474509 14.8869633,20.3744049 15.3026806,20.2405322" id="Fill-25" fill="#D4B1EF"></path>
            <path d="M10.1956417,17.5144686 L10.1956417,17.5144686 C10.4424403,17.5144686 10.6692318,17.6498184 10.7864544,17.866942 C11.4221152,19.0445392 12.6471117,19.7760728 13.9835569,19.7760728 C14.141465,19.7760728 14.2985675,19.7658678 14.4540587,19.7455922 C13.7869774,18.0151823 12.0905392,16.8167724 10.1956417,16.8167724 C8.30074417,16.8167724 6.60417173,18.0151823 5.93709046,19.7455922 C6.09258163,19.7658678 6.2496841,19.7760728 6.40759223,19.7760728 C7.74390318,19.7760728 8.96903392,19.0445392 9.60496325,17.866942 C9.72205159,17.6498184 9.94897739,17.5144686 10.1956417,17.5144686 M13.9835569,21.118829 C12.5069279,21.118829 11.1297972,20.4671894 10.1956417,19.3688148 C9.26135194,20.4670551 7.88408693,21.118829 6.40759223,21.118829 C5.88875124,21.118829 5.3756841,21.0382636 4.8827583,20.8795498 C4.55284311,20.7733378 4.35787491,20.4334862 4.43293498,20.0951117 C5.02683604,17.4175216 7.45037668,15.4740163 10.1956417,15.4740163 C12.9407724,15.4740163 15.3643131,17.4175216 15.9582141,20.0951117 C16.0332742,20.4334862 15.838306,20.7733378 15.5083908,20.8795498 C15.015465,21.0382636 14.5023979,21.118829 13.9835569,21.118829" id="Fill-27" fill="#A179C5"></path>
        </g>
    </g>
</svg>