<?xml version="1.0" encoding="UTF-8"?>
<svg width="191px" height="170px" viewBox="0 0 191 170" version="1.1" xmlns="http://www.w3.org/2000/svg" xmlns:xlink="http://www.w3.org/1999/xlink">
    <title>Group 167</title>
    <defs>
        <polygon id="path-1" points="0 0.27076703 44.7549008 0.27076703 44.7549008 64.3095725 0 64.3095725"></polygon>
        <polygon id="path-3" points="0.474637405 0.0833129771 77.8363168 0.0833129771 77.8363168 78.360916 0.474637405 78.360916"></polygon>
        <polygon id="path-5" points="8.10030534 0.108358779 0.351679389 44.620458 74.1102672 44.620458 66.3616412 0.108358779"></polygon>
        <polygon id="path-7" points="0.344412214 0.216977099 32.8767023 0.216977099 32.8767023 23.2082443 0.344412214 23.2082443"></polygon>
        <polygon id="path-9" points="0.226137227 0.568461832 25.9329809 0.568461832 25.9329809 43.3227481 0.226137227 43.3227481"></polygon>
        <polygon id="path-11" points="0.564244091 0.232290076 36.5982748 0.232290076 36.5982748 12.8265649 0.564244091 12.8265649"></polygon>
        <polygon id="path-13" points="0.264727247 0.225768019 87.0871494 0.225768019 87.0871494 78.360916 0.264727247 78.360916"></polygon>
        <path d="M0.0311450382,27.7833206 C-0.237480916,43.2688931 7.54164122,55.961145 17.4061832,56.1324427 L17.4061832,56.1324427 C27.2720229,56.3043893 35.4871756,43.8891985 35.7564504,28.4042748 L35.7564504,28.4042748 C36.0250763,12.9193511 28.2459542,0.227099237 18.3807634,0.0558015267 L18.3807634,0.0558015267 C18.3132824,0.0545038168 18.2470992,0.0538549618 18.1796183,0.0538549618 L18.1796183,0.0538549618 C8.40461832,0.0545038168 0.298473282,12.4041603 0.0311450382,27.7833206" id="path-15"></path>
        <path d="M0.0311450382,27.7833206 C-0.237480916,43.2688931 7.54164122,55.961145 17.4061832,56.1324427 L17.4061832,56.1324427 C27.2720229,56.3043893 35.4871756,43.8891985 35.7564504,28.4042748 L35.7564504,28.4042748 C36.0250763,12.9193511 28.2459542,0.227099237 18.3807634,0.0558015267 L18.3807634,0.0558015267 C18.3132824,0.0545038168 18.2470992,0.0538549618 18.1796183,0.0538549618 L18.1796183,0.0538549618 C8.40461832,0.0545038168 0.298473282,12.4041603 0.0311450382,27.7833206" id="path-17"></path>
        <path d="M0.368549618,6.39965649 C0.368549618,9.74580153 3.16316794,12.459313 6.6098855,12.459313 L6.6098855,12.459313 C10.0559542,12.459313 12.8505725,9.74580153 12.8505725,6.39965649 L12.8505725,6.39965649 C12.8505725,3.0528626 10.0559542,0.340648855 6.6098855,0.340648855 L6.6098855,0.340648855 C3.16316794,0.340648855 0.368549618,3.0528626 0.368549618,6.39965649" id="path-19"></path>
        <path d="M0.368549618,6.39965649 C0.368549618,9.74580153 3.16316794,12.459313 6.6098855,12.459313 L6.6098855,12.459313 C10.0559542,12.459313 12.8505725,9.74580153 12.8505725,6.39965649 L12.8505725,6.39965649 C12.8505725,3.0528626 10.0559542,0.340648855 6.6098855,0.340648855 L6.6098855,0.340648855 C3.16316794,0.340648855 0.368549618,3.0528626 0.368549618,6.39965649" id="path-21"></path>
        <polygon id="path-23" points="0.514392618 0.509120729 31.9650198 0.509120729 31.9650198 23.8570992 0.514392618 23.8570992"></polygon>
        <polygon id="path-25" points="0.219168798 0.292813836 8.96459456 0.292813836 8.96459456 10.231145 0.219168798 10.231145"></polygon>
        <polygon id="path-27" points="0.292441094 0.144518459 11.9399024 0.144518459 11.9399024 5.04030534 0.292441094 5.04030534"></polygon>
        <path d="M2.32549618,2.42996183 L1.22114504,3.98980916 C-0.487938931,6.40484733 0.0837022901,9.74645038 2.49874046,11.4555344 L2.49874046,11.4555344 C4.91312977,13.1639695 8.25473282,12.5923282 9.96381679,10.1779389 L9.96381679,10.1779389 L11.0675191,8.6180916 C12.7766031,6.20370229 12.2049618,2.86145038 9.78992366,1.15236641 L9.78992366,1.15236641 C8.85038168,0.487290076 7.77068702,0.168053435 6.70137405,0.168053435 L6.70137405,0.168053435 C5.0221374,0.168053435 3.36885496,0.955763359 2.32549618,2.42996183" id="path-29"></path>
        <path d="M2.32549618,2.42996183 L1.22114504,3.98980916 C-0.487938931,6.40484733 0.0837022901,9.74645038 2.49874046,11.4555344 L2.49874046,11.4555344 C4.91312977,13.1639695 8.25473282,12.5923282 9.96381679,10.1779389 L9.96381679,10.1779389 L11.0675191,8.6180916 C12.7766031,6.20370229 12.2049618,2.86145038 9.78992366,1.15236641 L9.78992366,1.15236641 C8.85038168,0.487290076 7.77068702,0.168053435 6.70137405,0.168053435 L6.70137405,0.168053435 C5.0221374,0.168053435 3.36885496,0.955763359 2.32549618,2.42996183" id="path-31"></path>
        <polyline id="path-33" points="0.414618321 0.689732824 0.527519084 39.9895802 41.5799237 39.8727863 41.4670229 0.572290076"></polyline>
        <polygon id="path-35" points="0.629859345 0.544519084 68.8720161 0.544519084 68.8720161 77.7120611 0.629859345 77.7120611"></polygon>
    </defs>
    <g id="Page-1" stroke="none" stroke-width="1" fill="none" fill-rule="evenodd">
        <g id="play/ic_launcher_APP" transform="translate(-161.000000, -143.000000)">
            <g id="Group-11" transform="translate(76.000000, 65.000000)">
                <g id="Group-167" transform="translate(85.000000, 78.000000)">
                    <g id="Group-20" transform="translate(0.000000, 17.120038)">
                        <path d="M150.750679,151.65155 L18.5627023,151.65155 L18.5627023,82.6549084 C18.5627023,60.977313 36.1356412,43.404374 57.8132366,43.404374 L190.001214,43.404374 L190.001214,112.401015 C190.001214,134.078611 172.428275,151.65155 150.750679,151.65155" id="Fill-1" fill="#E9D9FF"></path>
                        <g id="Group-5">
                            <mask id="mask-2" fill="white">
                                <use xlink:href="#path-1"></use>
                            </mask>
                            <g id="Clip-4"></g>
                            <path d="M44.7549008,46.859916 L20.7096336,3.35743511 C19.1134504,0.468732824 15.4766183,-0.579167939 12.587916,1.01766412 L3.08673282,6.26949618 C0.197381679,7.86632824 -0.849870229,11.5025115 0.746961832,14.3912137 L24.7915802,57.8936947 L42.5007786,64.3095725 L44.7549008,46.859916 Z" id="Fill-3" fill="#81E5E4" mask="url(#mask-2)"></path>
                        </g>
                        <line x1="10.0922901" y1="15.1443397" x2="29.9641221" y2="51.0967443" id="Fill-6" fill="#FFFFFF"></line>
                        <polygon id="Fill-8" fill="#FFFFFF" points="28.1257214 52.1135649 8.25324046 16.1611603 11.9309504 14.1282977 31.8034313 50.0807023"></polygon>
                        <line x1="16.9517252" y1="11.3529504" x2="36.8235573" y2="47.305355" id="Fill-10" fill="#FFFFFF"></line>
                        <polygon id="Fill-12" fill="#FFFFFF" points="34.9849618 48.3217863 15.1131298 12.3693817 18.7908397 10.3365191 38.6626718 46.2889237"></polygon>
                        <polygon id="Fill-14" fill="#4975D6" points="32.2349847 60.6449046 43.7644885 54.1414313 42.6088779 64.3083397"></polygon>
                        <polygon id="Fill-16" fill="#5F80D6" points="4.0813626 21.0559275 1.34384351 16.1032176 21.8418206 4.77356107 24.5793397 9.72627099"></polygon>
                        <polygon id="Fill-18" fill="#5F80D6" points="25.077271 58.5006985 22.3741412 53.5304695 42.4828053 42.5920725 45.1859351 47.5629504"></polygon>
                    </g>
                    <g id="Group-26" transform="translate(70.076336, 13.226908)">
                        <path d="M79.2937099,32.2549695 C84.2568015,54.1564198 70.8534046,75.8606183 49.3561908,80.7322214 C27.8589771,85.6031756 6.40848092,71.7974885 1.44603817,49.8960382 C-3.51705344,27.9939389 9.88634351,6.29038931 31.3835573,1.41878626 C52.8801221,-3.45281679 74.3306183,10.3535191 79.2937099,32.2549695" id="Fill-21" fill="#241F20"></path>
                        <g id="Group-25" transform="translate(14.923664, 77.213740)">
                            <mask id="mask-4" fill="white">
                                <use xlink:href="#path-3"></use>
                            </mask>
                            <g id="Clip-24"></g>
                            <path d="M77.8363168,41.4536565 C77.8363168,64.3017863 60.5183779,82.824 39.1554771,82.824 C17.7925763,82.824 0.474637405,64.3017863 0.474637405,41.4536565 C0.474637405,18.6055267 17.7925763,0.0833129771 39.1554771,0.0833129771 C60.5183779,0.0833129771 77.8363168,18.6055267 77.8363168,41.4536565" id="Fill-23" fill="#9277C8" mask="url(#mask-4)"></path>
                        </g>
                    </g>
                    <g id="Group-29" transform="translate(72.671756, 124.181107)">
                        <mask id="mask-6" fill="white">
                            <use xlink:href="#path-5"></use>
                        </mask>
                        <g id="Clip-28"></g>
                        <polygon id="Fill-27" fill="#8161C9" mask="url(#mask-6)" points="78.6548473 70.7251908 62.4646183 70.7251908 59.8653053 65.6595802 57.1011832 70.7251908 -4.19290076 70.7251908 8.10030534 0.108358779 66.3616412 0.108358779"></polygon>
                    </g>
                    <g id="Group-42" transform="translate(49.312977, 90.440649)">
                        <g id="Group-32" transform="translate(5.190840, 55.152672)">
                            <mask id="mask-8" fill="white">
                                <use xlink:href="#path-7"></use>
                            </mask>
                            <g id="Clip-31"></g>
                            <path d="M14.9462443,0.216977099 L32.8767023,21.7563664 L31.1494504,23.194229 C24.0392977,29.1137328 13.4765878,28.1475878 7.55708397,21.0367863 L0.344412214,12.372626 L14.9462443,0.216977099 Z" id="Fill-30" fill="#F6C2C0" mask="url(#mask-8)"></path>
                        </g>
                        <g id="Group-35" transform="translate(0.000000, 35.038168)">
                            <mask id="mask-10" fill="white">
                                <use xlink:href="#path-9"></use>
                            </mask>
                            <g id="Clip-34"></g>
                            <path d="M6.53286641,0.568461832 C6.53286641,0.568461832 -0.211980916,10.7626221 0.248706107,20.8503702 C0.268171756,21.2708282 0.297370229,21.6873931 0.335003817,22.1000649 C1.12206489,30.6513244 5.94435496,38.3162481 13.1764924,42.9464771 L14.735042,43.9437672 C15.6440878,44.5264389 16.8561489,44.2201794 17.3804237,43.2760954 L25.9329809,27.8651412 L6.53286641,0.568461832 Z" id="Fill-33" fill="#6F5FB1" mask="url(#mask-10)"></path>
                        </g>
                        <g id="Group-38" transform="translate(13.625954, 65.534351)">
                            <mask id="mask-12" fill="white">
                                <use xlink:href="#path-11"></use>
                            </mask>
                            <g id="Clip-37"></g>
                            <path d="M36.5982748,1.78889313 L0.582282443,0.232290076 L0.582282443,0.232290076 C0.129381679,10.7158397 8.26018321,19.581145 18.743084,20.0340458 L35.7781221,20.7704962 L36.5982748,1.78889313 Z" id="Fill-36" fill="#FFD8D5" mask="url(#mask-12)"></path>
                        </g>
                        <g id="Group-41" transform="translate(14.274809, 0.000000)">
                            <mask id="mask-14" fill="white">
                                <use xlink:href="#path-13"></use>
                            </mask>
                            <g id="Clip-40"></g>
                            <path d="M1.76157634,57.5177481 C-7.47487405,19.2177863 27.3958893,-11.0694656 68.8765382,4.31358779 C110.991118,18.6532824 68.4729504,45.8980534 56.6443244,80.6390458" id="Fill-39" fill="#9277C8" mask="url(#mask-14)"></path>
                        </g>
                    </g>
                    <g id="Group-49" transform="translate(52.557252, 106.662023)">
                        <g id="Group-45">
                            <mask id="mask-16" fill="white">
                                <use xlink:href="#path-15"></use>
                            </mask>
                            <g id="Clip-44"></g>
                            <path d="M38.6169275,28.2654847 C38.2801718,47.6467824 27.4747901,63.1751794 14.4827672,62.9493779 C1.49074427,62.7235763 -8.76830153,46.8292252 -8.4315458,27.4479275 C-8.09479008,8.06662977 2.70994275,-7.46176718 15.7026145,-7.23596565 C28.6946374,-7.01016412 38.9536832,8.88418702 38.6169275,28.2654847" id="Fill-43" fill="#D9FFFD" mask="url(#mask-16)"></path>
                        </g>
                        <g id="Group-48">
                            <mask id="mask-18" fill="white">
                                <use xlink:href="#path-17"></use>
                            </mask>
                            <g id="Clip-47"></g>
                            <path d="M36.5463015,28.4021985 C36.2770267,43.8871221 28.061874,56.3016641 18.1966832,56.1303664 C8.33149237,55.9584198 0.552370229,43.2668168 0.820996183,27.7812443 C1.09027099,12.2963206 9.30607252,-0.118221374 19.1712634,0.0537251908 C29.0364542,0.225022901 36.8155763,12.9172748 36.5463015,28.4021985" id="Fill-46" fill="#9AE4E4" mask="url(#mask-18)"></path>
                        </g>
                    </g>
                    <g id="Group-88" transform="translate(56.450382, 19.715458)">
                        <path d="M78.475374,25.4467939 C82.5449924,24.7096947 86.4420153,27.4115267 87.1791145,31.481145 C87.9162137,35.5507634 85.2143817,39.4477863 81.1447634,40.1848855" id="Fill-50" fill="#FFD8D5"></path>
                        <path d="M80.9743092,30.5556183 C81.0645,30.6205038 80.9548435,30.5361527 81.0074008,30.5783282 C81.0365992,30.6023359 81.0651489,30.6263435 81.0936985,30.651 C81.1572863,30.7061527 81.2189275,30.7639008 81.2779733,30.8235954 C81.3441565,30.8904275 81.4051489,30.9605038 81.4667901,31.031229 C81.4966374,31.0662672 81.5135076,31.0889771 81.4752252,31.0390153 C81.5037748,31.076 81.5310267,31.1142824 81.5576298,31.1532137 C81.6536603,31.2920687 81.7393092,31.4374122 81.8152252,31.5885954 C81.8359885,31.630771 81.8561031,31.6729466 81.8755687,31.715771 C81.8963321,31.7598931 81.9028206,31.7826031 81.8801107,31.7242061 C81.9145,31.8118015 81.9462939,31.9000458 81.9748435,31.9895878 C82.0254542,32.1518015 82.0617901,32.3159618 82.0929351,32.4827176 C82.1033168,32.5385191 82.1020191,32.5489008 82.0948817,32.4866107 C82.1000725,32.5333282 82.1052634,32.5800458 82.1085076,32.6267634 C82.115645,32.7104656 82.1195382,32.7948168 82.120187,32.8791679 C82.1208359,32.9732519 82.1182405,33.066687 82.1117519,33.1601221 C82.1085076,33.1977557 82.1046145,33.2347405 82.1013702,33.2717252 C82.0903397,33.3904656 82.1130496,33.232145 82.0968282,33.3035191 C82.0565992,33.4780611 82.0235076,33.6500076 81.9657595,33.8206565 C81.8638893,34.1262672 82.0838511,34.5058473 82.3953015,34.5772214 C82.7353015,34.6544351 83.0422099,34.4747023 83.1512176,34.1476794 C83.7209122,32.4483282 83.0279351,30.5277176 81.5946145,29.4940916 C81.333126,29.3052748 80.899042,29.4402366 80.7536985,29.7147023 C80.585645,30.0326412 80.6953015,30.3544733 80.9743092,30.5556183" id="Fill-52" fill="#FFA8A5"></path>
                        <polygon id="Fill-54" fill="#FFD8D5" points="67.0121183 77.2204885 52.1014313 79.5161374 50.2762023 66.8050687 65.1862405 64.5094198"></polygon>
                        <polygon id="Fill-56" fill="#E9A3A1" points="50.803916 70.6155344 51.6487252 76.9944275 62.3853282 69.6227863"></polygon>
                        <path d="M79.9517137,29.2230649 C84.3185076,48.4947061 74.5662176,67.1291718 58.1696527,70.8451641 C41.7724389,74.5605076 24.9398435,61.9500115 20.5724008,42.6790191 C16.2056069,23.4073779 25.9578969,4.77291221 42.3551107,1.05691985 C58.7523244,-2.65842366 75.5849198,9.95142366 79.9517137,29.2230649" id="Fill-58" fill="#FFD8D5"></path>
                        <path d="M66.7881336,75.4050573 C67.8425229,79.3079198 65.4015305,83.3626145 61.3351565,84.461126 C57.2687824,85.5602863 53.1174084,83.2873473 52.0623702,79.3844847" id="Fill-60" fill="#FFD8D5"></path>
                        <path d="M42.6541679,71.2939122 C45.9795496,72.0472328 48.0643206,75.3531489 47.3116489,78.6785305 C46.5583282,82.0032634 43.2524122,84.0886832 39.9270305,83.3353626" id="Fill-62" fill="#E9A3A1"></path>
                        <path d="M42.4173359,85.8542176 C36.8631374,95.9919275 23.4830992,99.3458588 12.532374,93.3458969 C1.58164885,87.3459351 -2.7929313,74.2637214 2.76191603,64.1260115 C8.3161145,53.9889504 21.6961527,50.6350191 32.6468779,56.6349809 C43.5976031,62.6349427 47.9715344,75.7165076 42.4173359,85.8542176" id="Fill-64" fill="#FFCDCA"></path>
                        <path d="M25.5667672,73.9537634 C25.035355,74.5267023 24.1399351,74.5597939 23.5669962,74.0283817 C22.9947061,73.4969695 22.9609656,72.6021985 23.4923779,72.0292595 C24.0237901,71.4563206 24.9192099,71.4225802 25.4921489,71.9539924 C26.0644389,72.4854046 26.0981794,73.3808244 25.5667672,73.9537634" id="Fill-66" fill="#FF7E7F"></path>
                        <path d="M35.2926489,82.753145 C33.7165802,84.4518473 31.0608168,84.551771 29.3621145,82.9750534 C27.6634122,81.3989847 27.5634885,78.7438702 29.1402061,77.0445191 C30.7162748,75.3458168 33.3713893,75.246542 35.0707405,76.8226107 C36.7694427,78.3986794 36.8687176,81.0544427 35.2926489,82.753145" id="Fill-68" fill="#FFA8A5"></path>
                        <path d="M18.4938588,79.485187 C16.9177901,81.1838893 14.2620267,81.283813 12.5633244,79.7070954 C10.8646221,78.1310267 10.7646985,75.4759122 12.341416,73.7765611 C13.9174847,72.0778588 16.5725992,71.978584 18.2719504,73.5546527 C19.9706527,75.1307214 20.0699275,77.7864847 18.4938588,79.485187" id="Fill-70" fill="#FFA8A5"></path>
                        <path d="M16.3418015,72.9935229 C16.1367634,72.9935229 15.9291298,72.9747061 15.7227939,72.935126 C13.9300076,72.5970725 12.747145,70.8633321 13.0851985,69.0711947 C13.1390534,68.7869962 13.4122214,68.5968817 13.6990153,68.6533321 C13.9832137,68.707187 14.1707328,68.9810038 14.1168779,69.2665 C14.004626,69.8589046 14.1311527,70.4597443 14.4705038,70.957416 C14.8111527,71.4557366 15.3250458,71.7911947 15.9174504,71.9034466 C16.509855,72.0156985 17.1106947,71.8898206 17.6083664,71.5491718 C18.106687,71.2098206 18.442145,70.6959275 18.5537481,70.1035229 C18.6076031,69.8180267 18.8859618,69.6292099 19.166916,69.6843626 C19.4517634,69.7382176 19.6392824,70.0126832 19.5854275,70.2975305 C19.421916,71.1663473 18.930084,71.9183702 18.2001221,72.4166908 C17.6440534,72.796271 17.0010382,72.9935229 16.3418015,72.9935229" id="Fill-72" fill="#241F20"></path>
                        <path d="M32.7247405,76.2884733 C32.5216489,76.2884733 32.3159618,76.2703053 32.109626,76.2307252 C30.3174885,75.8926718 29.134626,74.1595802 29.4726794,72.3674427 C29.5265344,72.0832443 29.8003511,71.8950763 30.0864962,71.9495802 C30.3706947,72.0034351 30.5582137,72.2772519 30.5043588,72.5627481 C30.2740153,73.7858397 31.0811908,74.9680534 32.3049313,75.1990458 C33.5312672,75.4300382 34.7108855,74.6228626 34.9418779,73.3991221 C34.9957328,73.1142748 35.2689008,72.9248092 35.5550458,72.9806107 C35.8398931,73.0344656 36.0274122,73.3089313 35.9735573,73.5944275 C35.6737863,75.1795802 34.2819924,76.2884733 32.7247405,76.2884733" id="Fill-74" fill="#241F20"></path>
                        <path d="M17.164874,60.7398321 C17.7092634,63.1490305 20.3040344,63.9412824 22.488729,63.5999847 C23.5677748,63.4306336 24.7350649,63.0504046 25.4053321,62.1322748 C25.9957901,61.3225038 26.0762481,60.0851374 25.3151412,59.3493359 C24.6857519,58.7400611 23.6482328,58.7141069 22.9085382,59.1300229 C22.0410191,59.6179618 21.6951794,60.6457481 21.8547977,61.5950229 C22.2447595,63.9107863 25.0082328,64.7250992 27.0359046,64.4467405 C29.6436527,64.0885725 31.5908664,61.9103664 31.4870496,59.2481145 C31.4591489,58.538916 30.3528511,58.5350229 30.3807519,59.2481145 C30.4592634,61.2595649 29.1148359,62.9284198 27.1416679,63.3151374 C25.6551412,63.6064733 22.4815916,63.0075802 22.9435763,60.8404046 C23.0915153,60.1435344 24.1653702,59.5096031 24.6578511,60.2856336 C25.2775076,61.2628092 23.8954466,62.0920458 23.1570496,62.319145 C21.3603702,62.8719695 18.7273168,62.6409771 18.2315916,60.4459008 C18.0752176,59.751626 17.0078511,60.0455573 17.164874,60.7398321" id="Fill-76" fill="#241F20"></path>
                        <path d="M45.6087939,38.4186374 C46.1518855,40.1880649 45.8884504,42.1307366 44.8892137,43.6912328 C44.6660076,44.0396679 44.2474962,44.3803168 44.127458,44.7767672 C43.9600534,45.332187 44.3889466,45.6851641 44.7899389,45.9745534 C45.6269618,46.5786374 46.6086794,46.9848206 47.6202443,47.1814237 C48.3203588,47.3183321 48.6194809,46.245126 47.9161221,46.1082176 C46.990855,45.9278359 46.1142519,45.5735611 45.3518473,45.0129504 C45.2947481,44.9759656 45.241542,44.9350878 45.1915802,44.8890191 C45.0851679,44.7793626 45.0845191,44.8598206 45.1896336,45.1316908 C45.2246718,45.1297443 45.3297863,44.965584 45.3537939,44.9357366 C45.4907023,44.7670344 45.6224198,44.5931412 45.7450534,44.4134084 C45.9994046,44.0409656 46.2096336,43.6438664 46.386771,43.2298969 C47.075855,41.6200878 47.1971908,39.8006985 46.682,38.1227595 C46.4730687,37.4395153 45.397916,37.7308511 45.6087939,38.4186374" id="Fill-78" fill="#241F20"></path>
                        <path d="M47.7244504,53.6938511 C44.7844885,53.6938511 41.9626183,52.3442328 40.2697557,50.0479351 C40.0978092,49.8143473 40.1471221,49.4860267 40.3807099,49.3134313 C40.6142977,49.140187 40.9426183,49.1920954 41.1145649,49.4243855 C42.8489542,51.7777824 45.9381527,53.0067137 48.978687,52.5512176 C52.0652901,52.0911794 54.4971985,49.9525534 55.6502137,46.6849198 C55.7468931,46.4124008 56.042771,46.2696527 56.3198321,46.3650344 C56.593,46.4617137 56.7363969,46.7608359 56.6397176,47.0346527 C55.353687,50.6805687 52.6174656,53.0703015 49.1337634,53.5900344 C48.6633435,53.6594618 48.1922748,53.6938511 47.7244504,53.6938511" id="Fill-80" fill="#241F20"></path>
                        <path d="M37.4105763,98.3868511 L36.3062252,99.9466985 C34.5977901,102.361088 31.2555382,102.933378 28.8411489,101.224294 L28.8411489,101.224294 C26.4267595,99.5158588 25.8551183,96.1736069 27.5635534,93.7592176 L28.6679046,92.1993702 C30.3763397,89.7849809 33.7185916,89.2126908 36.1329809,90.9217748 L36.1329809,90.9217748 C38.5473702,92.6302099 39.1190115,95.9724618 37.4105763,98.3868511" id="Fill-82" fill="#FDB7B5"></path>
                        <path d="M57.7702824,39.2263969 C55.9508931,39.2263969 54.2839847,38.0065496 53.7986412,36.1657481 C53.7116947,35.8374275 53.9082977,35.5019695 54.2366183,35.4150229 C54.5610458,35.3280763 54.9003969,35.5240305 54.9873435,35.853 C55.392229,37.3862443 56.9676489,38.3050229 58.5028397,37.9014351 C59.2457786,37.7054809 59.8680305,37.2324656 60.2553969,36.5680382 C60.6421145,35.9049084 60.747229,35.1301756 60.5512748,34.3865878 C60.4643282,34.0582672 60.6609313,33.7228092 60.9892519,33.6358626 C61.3169237,33.5476183 61.6530305,33.7448702 61.7399771,34.0738397 C62.0196336,35.1340687 61.8690992,36.2397176 61.3175725,37.1876947 C60.7647481,38.1350229 59.8764656,38.8104809 58.8155878,39.0901374 C58.4665038,39.1822748 58.1154733,39.2263969 57.7702824,39.2263969" id="Fill-84" fill="#241F20"></path>
                        <path d="M33.4198588,44.0858681 C32.7022252,44.0865153 31.9949733,43.8964008 31.3577977,43.5259046 C30.4104695,42.9730802 29.7350115,42.0847977 29.4560038,41.0239198 C29.3690573,40.6955992 29.5656603,40.3594924 29.8933321,40.2731947 C30.2235992,40.1868969 30.5577595,40.3828511 30.6447061,40.7111718 C30.8400115,41.4541107 31.3136756,42.0763626 31.9774542,42.463729 C32.6412328,42.8510954 33.4166145,42.9549122 34.1595534,42.7602557 C35.6934466,42.3560191 36.612874,40.7793015 36.2086374,39.2447595 C36.1223397,38.9164389 36.3182939,38.5803321 36.6466145,38.4940344 C36.9736374,38.4064389 37.3103931,38.6036908 37.3973397,38.9320115 C37.9741718,41.1218969 36.6615382,43.372126 34.4723015,43.948958 C34.1238664,44.0410954 33.7702405,44.0858681 33.4198588,44.0858681" id="Fill-86" fill="#241F20"></path>
                    </g>
                    <g id="Group-95" transform="translate(73.320611, 94.982634)">
                        <g id="Group-91">
                            <mask id="mask-20" fill="white">
                                <use xlink:href="#path-19"></use>
                            </mask>
                            <g id="Clip-90"></g>
                            <path d="M14.5599809,5.81069084 C14.5599809,9.98412595 11.0756298,13.3672557 6.7776145,13.3672557 C2.47895038,13.3672557 -1.00540076,9.98412595 -1.00540076,5.81069084 C-1.00540076,1.63725573 2.47895038,-1.74587405 6.7776145,-1.74587405 C11.0756298,-1.74587405 14.5599809,1.63725573 14.5599809,5.81069084" id="Fill-89" fill="#F8D432" mask="url(#mask-20)"></path>
                        </g>
                        <g id="Group-94">
                            <mask id="mask-22" fill="white">
                                <use xlink:href="#path-21"></use>
                            </mask>
                            <g id="Clip-93"></g>
                            <path d="M13.9294885,6.30972519 C13.9294885,9.65587023 11.1355191,12.3687328 7.68880153,12.3687328 C4.24208397,12.3687328 1.4481145,9.65587023 1.4481145,6.30972519 C1.4481145,2.96358015 4.24208397,0.250717557 7.68880153,0.250717557 C11.1355191,0.250717557 13.9294885,2.96358015 13.9294885,6.30972519" id="Fill-92" fill="#FFE66D" mask="url(#mask-22)"></path>
                        </g>
                    </g>
                    <g id="Group-127" transform="translate(52.557252, 0.249809)">
                        <path d="M76.7447481,163.665489 L59.3139084,158.498656 L83.2871527,96.7153359 L85.7800534,97.4238855 C97.4996718,100.754458 104.300969,112.954229 100.970397,124.673847 L89.1080305,159.246786 C87.5455878,162.894 80.5489847,164.793198 76.7447481,163.665489" id="Fill-96" fill="#9277C8"></path>
                        <path d="M65.031813,109.228828 C64.9695229,110.071042 64.2356679,110.703027 63.3934542,110.640737 C62.5512405,110.578447 61.9192557,109.844592 61.9815458,109.002378 C62.0444847,108.160164 62.7776908,107.528179 63.6199046,107.590469 C64.4621183,107.653408 65.0941031,108.386615 65.031813,109.228828" id="Fill-98" fill="#FFFFFF"></path>
                        <path d="M64.5999351,114.901702 C64.537645,115.743916 63.8037901,116.375901 62.9615763,116.313611 C62.1193626,116.251321 61.4873779,115.517466 61.5496679,114.675252 C61.6126069,113.833038 62.345813,113.201053 63.1880267,113.263344 C64.0302405,113.326282 64.6622252,114.059489 64.5999351,114.901702" id="Fill-100" fill="#FFFFFF"></path>
                        <path d="M41.5444313,118.24934 L40.4400802,119.809187 C38.731645,122.223576 35.3893931,122.795866 32.9750038,121.086782 L32.9750038,121.086782 C30.5606145,119.378347 29.9889733,116.036095 31.6974084,113.621706 L32.8017595,112.061859 C34.5101947,109.647469 37.8524466,109.075179 40.2668359,110.784263 L40.2668359,110.784263 C42.6812252,112.492698 43.2528664,115.83495 41.5444313,118.24934" id="Fill-102" fill="#FFCDCA"></path>
                        <path d="M4.17337023,92.5683092 C1.01669084,91.2796832 -0.497736641,87.6765916 0.790889313,84.5199122 C2.07951527,81.3632328 5.68325573,79.8488053 8.83993511,81.1374313" id="Fill-104" fill="#FFCDCA"></path>
                        <path d="M4.36925954,83.977729 C3.95918321,84.1373473 3.64189313,84.3845611 3.38883969,84.7446756 C3.18120611,85.0405534 3.06960305,85.3941794 3.02223664,85.7484542 C2.91387786,86.5530344 3.213,87.3297137 3.87418321,87.8092176 C4.13177863,87.9954389 4.55937405,87.8617748 4.70147328,87.5918511 C4.86758015,87.2784542 4.75922137,86.9637595 4.48475573,86.7645611 C4.39521374,86.6996756 4.59765649,86.8696756 4.50032824,86.7749427 C4.47891603,86.7535305 4.45620611,86.7340649 4.43544275,86.7133015 C4.41078626,86.6879962 4.38872519,86.662042 4.36536641,86.6360878 C4.29658779,86.5595229 4.44712214,86.7580725 4.38872519,86.6646374 C4.35758015,86.6146756 4.3251374,86.5660115 4.2978855,86.5134542 C4.28425954,86.4875 4.27387786,86.4595992 4.25960305,86.433645 C4.34719847,86.5900191 4.29464122,86.5173473 4.27712214,86.4686832 C4.25570992,86.4076908 4.23819084,86.3454008 4.22456489,86.2824618 C4.21742748,86.2493702 4.21483206,86.2123855 4.20509924,86.1799427 C4.2200229,86.2286069 4.22196947,86.3317748 4.21223664,86.2214695 C4.2070458,86.161126 4.20509924,86.1007824 4.20574809,86.0404389 C4.20639695,86.0099427 4.2070458,85.9794466 4.20899237,85.9495992 C4.21093893,85.9249427 4.22845802,85.7880344 4.21029008,85.9093702 C4.19212214,86.026813 4.21093893,85.9093702 4.21548092,85.8847137 C4.22196947,85.8503244 4.22975573,85.8159351 4.23819084,85.7815458 C4.25246565,85.7225 4.26998473,85.6647519 4.29009924,85.6076527 C4.30696947,85.5609351 4.35628244,85.4817748 4.27322901,85.6407443 C4.28750382,85.6141412 4.2978855,85.5862405 4.31151145,85.5596374 C4.34006107,85.5018893 4.37250382,85.4454389 4.40819084,85.3922328 C4.42181679,85.3714695 4.49059542,85.2819275 4.42051908,85.368874 C4.34784733,85.4597137 4.43349618,85.3558969 4.44841985,85.3390267 C4.488,85.2955534 4.53212214,85.2566221 4.57429771,85.2157443 C4.65475573,85.1391794 4.45231298,85.2987977 4.54509924,85.2378053 C4.56975573,85.221584 4.59376336,85.2040649 4.6190687,85.1884924 C4.64437405,85.1729198 4.67032824,85.1579962 4.6969313,85.1443702 C4.83708397,85.0716985 4.5931145,85.1820038 4.69044275,85.1437214 C4.98437405,85.0295229 5.22055725,84.7329962 5.11284733,84.4001336 C5.02070992,84.1146374 4.68460305,83.8550954 4.36925954,83.977729" id="Fill-106" fill="#FFA8A5"></path>
                        <polygon id="Fill-108" fill="#9AE4E4" points="34.8010763 154.751065 18.4966489 153.10492 21.9771069 118.631905 38.2821832 120.278698"></polygon>
                        <path d="M32.5926336,130.717607 L30.0711832,133.239057 C26.9203435,136.389897 21.8125573,136.389897 18.6623664,133.239057 L10.6217557,125.199095 C7.45793893,122.035279 7.45793893,116.905431 10.6217557,113.741615 L10.6217557,113.741615 C13.7855725,110.577798 18.9154198,110.577798 22.0792366,113.741615 L32.5926336,124.255011 C34.3769847,126.039363 34.3769847,128.933256 32.5926336,130.717607" id="Fill-110" fill="#63D3D1"></path>
                        <g id="Group-114" transform="translate(12.977099, 144.694656)">
                            <mask id="mask-24" fill="white">
                                <use xlink:href="#path-23"></use>
                            </mask>
                            <g id="Clip-113"></g>
                            <path d="M31.191042,19.7054008 L26.7035611,26.0985687 C25.3513473,28.0250191 22.6936374,28.4902481 20.767187,27.1380344 L3.98974427,15.3606679 C0.297759542,12.7691412 -0.593767176,7.67627863 1.99775954,3.98429389 L1.99775954,3.98429389 C4.5886374,0.292958015 9.68214885,-0.599217557 13.3741336,1.99230916 L30.1515763,13.7690267 C32.0780267,15.1212405 32.5432557,17.7789504 31.191042,19.7054008" id="Fill-112" fill="#63D3D1" mask="url(#mask-24)"></path>
                        </g>
                        <path d="M30.3802328,101.443607 C31.2172557,102.38834 32.1126756,103.123492 32.4961489,103.123492 C32.4987443,103.123492 32.5019885,103.122844 32.504584,103.122844 C32.4935534,103.107271 32.7044313,102.874981 32.8562634,102.04834 C33.0372939,101.069866 32.8588588,100.806431 32.8569122,100.803836 C32.5869885,100.642271 31.5325992,100.901164 30.3802328,101.443607 M32.526645,105.579408 C30.375042,105.579408 28.200729,102.75105 27.5486298,101.827729 C27.2916832,101.463721 27.2598893,101.008874 27.4253473,100.628645 C27.5129427,100.368454 27.6874847,100.134866 27.9379427,99.9778435 C28.9242023,99.3601336 32.2937061,97.4505534 34.2480573,98.7787595 C35.2576756,99.4639504 35.6028664,100.714294 35.2745458,102.494103 C34.951416,104.249256 34.1955,105.269256 33.0288588,105.525553 C32.8621031,105.562538 32.6940496,105.579408 32.526645,105.579408" id="Fill-115" fill="#FFFFFF"></path>
                        <path d="M107.628557,25.2638817 C104.121496,35.0155229 93.3732137,40.0785382 83.6215725,36.5714771 C73.8699313,33.0650649 68.806916,22.3167824 72.3139771,12.5644924 C75.8203893,2.81285115 86.5686718,-2.25016412 96.3209618,1.25689695 C106.072603,4.76395802 111.135618,15.5122405 107.628557,25.2638817" id="Fill-117" fill="#241F20"></path>
                        <path d="M86.6922137,18.2696145 C84.4549618,24.4908359 76.8782824,27.4619427 69.7687786,24.9054542 C62.6592748,22.3489656 58.7096947,15.2329733 60.9469466,9.01175191 C63.1841985,2.79053053 70.7608779,-0.180576336 77.8703817,2.37591221 C84.9798855,4.93240076 88.9294656,12.0483931 86.6922137,18.2696145" id="Fill-119" fill="#241F20"></path>
                        <g id="Group-123" transform="translate(18.167939, 158.320611)">
                            <mask id="mask-26" fill="white">
                                <use xlink:href="#path-25"></use>
                            </mask>
                            <g id="Clip-122"></g>
                            <path d="M7.85529771,11.8953931 L7.85529771,11.8953931 C6.79441985,12.5079122 5.43831298,12.1445534 4.82579389,11.0836756 L0.516748092,3.61989695 C-0.0957709924,2.55901908 0.267587786,1.20291221 1.32846565,0.59039313 L1.32846565,0.59039313 C2.38934351,-0.0221259542 3.74545038,0.341232824 4.35796947,1.40211069 L8.66701527,8.86588931 C9.27953435,9.92676718 8.91617557,11.282874 7.85529771,11.8953931" id="Fill-121" fill="#FFD8D5" mask="url(#mask-26)"></path>
                        </g>
                        <g id="Group-126" transform="translate(21.412214, 163.511450)">
                            <mask id="mask-28" fill="white">
                                <use xlink:href="#path-27"></use>
                            </mask>
                            <g id="Clip-125"></g>
                            <path d="M8.72651527,2.63000382 C11.6009427,5.15664504 12.7623931,8.53458397 11.3206374,10.1748893 C9.87888168,11.8145458 6.37960687,11.0956145 3.50582824,8.56897328 C0.631400763,6.04233206 -0.530049618,2.66439313 0.911706107,1.02408779 C2.35346183,-0.615568702 5.85208779,0.103362595 8.72651527,2.63000382" id="Fill-124" fill="#FFD8D5" mask="url(#mask-28)"></path>
                        </g>
                    </g>
                    <g id="Group-134" transform="translate(83.053435, 109.906298)">
                        <g id="Group-130">
                            <mask id="mask-30" fill="white">
                                <use xlink:href="#path-29"></use>
                            </mask>
                            <g id="Clip-129"></g>
                            <path d="M6.03298855,3.72442748 C5.97718702,3.72442748 5.92073664,3.70561069 5.87466794,3.66667939 C5.77085115,3.57908397 5.75722519,3.42400763 5.84482061,3.32019084 L8.84382824,-0.244618321 C8.93207252,-0.34778626 9.08714885,-0.361412214 9.19031679,-0.274465649 C9.29413359,-0.186870229 9.30775954,-0.0317938931 9.22016412,0.0720229008 L6.22115649,3.63683206 C6.17249237,3.69458015 6.10241603,3.72442748 6.03298855,3.72442748" id="Fill-128" fill="#FFFFFF" mask="url(#mask-30)"></path>
                        </g>
                        <g id="Group-133">
                            <mask id="mask-32" fill="white">
                                <use xlink:href="#path-31"></use>
                            </mask>
                            <g id="Clip-132"></g>
                            <path d="M8.51116031,5.71472519 C8.45535878,5.71472519 8.3989084,5.6959084 8.35283969,5.6569771 C8.2490229,5.56938168 8.23539695,5.41430534 8.32299237,5.31048855 L11.3213511,1.74567939 C11.4095954,1.64251145 11.5640229,1.6288855 11.6678397,1.71583206 C11.7716565,1.80342748 11.7852824,1.95850382 11.697687,2.06232061 L8.69932824,5.62712977 C8.65066412,5.68487786 8.58058779,5.71472519 8.51116031,5.71472519" id="Fill-131" fill="#FFFFFF" mask="url(#mask-32)"></path>
                        </g>
                    </g>
                    <g id="Group-149" transform="translate(69.427481, 12.578053)">
                        <path d="M5.88790458,156.116645 C5.81069084,156.116645 5.73412595,156.07966 5.68611069,156.011531 L1.89290458,150.576073 C1.81504198,150.464469 1.84229389,150.31134 1.95389695,150.234126 C2.06485115,150.156912 2.21862977,150.182866 2.29584351,150.294469 L6.08969847,155.729927 C6.16756107,155.841531 6.14030916,155.995309 6.02870611,156.072523 C5.98523282,156.10237 5.9365687,156.116645 5.88790458,156.116645" id="Fill-135" fill="#FFFFFF"></path>
                        <path d="M14.4243053,100.905771 L22.4415573,107.093252 C23.7697634,108.118443 24.0156794,110.026076 22.9904885,111.354282 L16.4415954,119.840008 C13.1097252,124.158137 6.90796947,124.957527 2.58983969,121.625008 L2.58983969,121.625008 C-0.176877863,119.490275 -0.688824427,115.516687 1.44655725,112.749969 L10.1632748,101.454702 C11.1884656,100.126496 13.0960992,99.8805802 14.4243053,100.905771" id="Fill-137" fill="#63D3D1"></path>
                        <polygon id="Fill-139" fill="#63D3D1" points="2.38570992 111.529408 2.0158626 111.204981 8.07616794 104.307004 8.44601527 104.631431"></polygon>
                        <path d="M85.2762824,39.6630115 C83.2349847,30.494042 77.9182672,22.4242328 70.3065496,16.938813 L70.5939924,16.5391183 C78.3043359,22.0952634 83.6891832,30.2695382 85.7564351,39.5565992 L85.2762824,39.6630115 Z" id="Fill-141" fill="#241F20"></path>
                        <path d="M86.1995382,36.0182634 C82.4705687,27.3975763 75.7302634,20.4716985 67.2211794,16.5162786 L67.428813,16.0705153 C76.0475534,20.0765458 82.8735076,27.0913168 86.6504924,35.822958 L86.1995382,36.0182634 Z" id="Fill-143" fill="#241F20"></path>
                        <path d="M49.2838435,3.33089695 C40.5852939,-0.21509542 30.9244924,-0.443492366 22.0780038,2.68788168 L21.9144924,2.22395038 C30.8738817,-0.948301527 40.6605611,-0.715362595 49.469416,2.87604962 L49.2838435,3.33089695 Z" id="Fill-145" fill="#241F20"></path>
                        <path d="M23.2359504,8.81651145 C23.2359504,8.81651145 26.5405687,22.0349847 40.2359504,27.697542 C53.9313321,33.3594504 59.0319809,32.2044885 66.7909885,32.4108244 C74.5499962,32.6165115 66.1551107,24.2021603 66.1551107,24.2021603 L55.4989656,10.5483053 L41.1910649,4.88769466 L23.2359504,8.81651145 Z" id="Fill-147" fill="#241F20"></path>
                    </g>
                    <g id="Group-152" transform="translate(58.396947, 17.768893)">
                        <mask id="mask-34" fill="white">
                            <use xlink:href="#path-33"></use>
                        </mask>
                        <g id="Clip-151"></g>
                        <path d="M79.9059046,29.8837939 C82.409187,26.0295954 77.7023931,22.0650916 75.2062481,18.2063511 C72.7094542,14.3476107 69.0784618,11.3635267 65.3086145,8.73436641 C59.2093779,4.48047328 52.1284237,0.876732824 44.709416,1.377 C40.3633855,1.66963359 36.2379656,3.35600763 32.3117443,5.2409313 C30.0589198,6.32257252 27.8236145,7.48856489 25.8848359,9.06528244 C22.4231947,11.8800153 20.1015916,15.8393282 18.1070115,19.8291374 C16.7522023,22.5387557 15.5122405,25.3048244 14.3916679,28.1189084 C13.8193779,29.5541756 13.3294924,31.2846718 13.7278893,32.6816565 C13.8602557,33.1475344 14.0918969,33.5764275 14.4520115,33.9449771 C15.532355,35.0525725 17.3141107,35.0564656 18.8226985,34.7119237 C23.1025458,33.7353969 26.7802557,30.447 28.2278511,26.3021145 C29.1083473,23.781313 29.1978893,21.0444427 30.004416,18.4989847 C30.8764771,15.7471908 32.6991107,13.187458 35.3230802,11.9844809 C37.9470496,10.780855 41.3931183,11.2207786 43.2559809,13.4255878 C43.2559809,13.4255878 46.7247595,23.4173053 53.6519351,27.2987557 C60.5791107,31.180855 75.7292252,36.3158931 79.9059046,29.8837939" id="Fill-150" fill="#241F20" mask="url(#mask-34)"></path>
                    </g>
                    <g id="Group-164" transform="translate(83.053435, 43.074237)">
                        <path d="M48.6397252,119.39087 L32.2185038,114.52316 L54.8031985,56.3182748 L57.1520534,56.9859466 C68.1923206,60.1231603 74.5997634,71.6169771 71.4625496,82.6578931 L55.1023206,114.868351 C53.6300687,118.304687 52.224,120.453046 48.6397252,119.39087" id="Fill-153" fill="#9277C8"></path>
                        <g id="Group-157" transform="translate(9.083969, 48.015267)">
                            <mask id="mask-36" fill="white">
                                <use xlink:href="#path-35"></use>
                            </mask>
                            <g id="Clip-156"></g>
                            <path d="M30.6903206,0.544519084 C30.6903206,0.544519084 52.9129542,1.4490229 60.890626,13.8038702 C64.5884504,19.5306641 72.0781832,38.2280687 67.3577634,55.3156641 C61.982,74.7761221 44.3324962,81.7091374 33.6646718,84.1910076 C22.4485649,86.8007023 8.38852672,85.9617328 4.05352672,85.8124962 C2.8479542,85.7716183 1.7299771,85.2966565 1.65341221,84.0936794 L0.637954198,68.1389847 C0.52440458,66.3611221 1.61512977,64.7273053 3.30085496,64.1504733 L47.9557023,48.8673435 C48.5085267,48.6778779 48.9445573,48.2450916 49.137916,47.6935649 L30.6903206,0.544519084 Z" id="Fill-155" fill="#9277C8" mask="url(#mask-36)"></path>
                        </g>
                        <path d="M11.5489046,111.67008 C11.3613855,111.67008 11.1946298,111.537714 11.1569962,111.34695 C11.1154695,111.130233 11.2575687,110.920653 11.4736374,110.878477 C11.7292863,110.829164 37.1196298,105.875156 44.3712328,100.453324 C52.3430649,94.491645 53.9463855,87.776645 54.2481031,85.8605763 C54.2811947,85.6425611 54.4875305,85.4881336 54.7042481,85.5283626 C54.9222634,85.5627519 55.0702023,85.7664924 55.035813,85.9845076 C54.7230649,87.9758435 53.062645,94.9503855 44.8487901,101.093095 C37.4518435,106.624584 12.6759656,111.459851 11.6254695,111.662943 C11.5995153,111.667485 11.5742099,111.67008 11.5489046,111.67008" id="Fill-158" fill="#6F5FB1"></path>
                        <path d="M26.0549656,3.9019542 C27.3351565,1.49794656 30.5262252,0.490923664 32.8024084,2.14745038 C33.2566069,2.47771756 33.6919885,1.72180153 33.2423321,1.39477863 C30.5950038,-0.531671756 26.7875229,0.672603053 25.3022939,3.46203053 C25.0388588,3.95710687 25.7908817,4.39767939 26.0549656,3.9019542" id="Fill-160" fill="#241F20"></path>
                        <path d="M0.89321374,8.89703435 C2.17340458,6.49302672 5.36447328,5.48600382 7.64065649,7.14253053 C8.09485496,7.47279771 8.53023664,6.71688168 8.08058015,6.38985878 C5.43325191,4.4634084 1.62577099,5.66768321 0.140541985,8.45711069 C-0.12289313,8.95218702 0.629129771,9.39275954 0.89321374,8.89703435" id="Fill-162" fill="#241F20"></path>
                    </g>
                    <path d="M43.9089237,86.9710267 C47.2972443,93.4569809 46.6866718,101.666294 42.6624733,107.729844 C38.6577405,113.764844 31.2251069,116.846905 24.1136565,116.294729 C20.7214427,116.031294 16.7932748,114.885416 14.4158702,112.320492 C12.1954885,109.92492 12.5510611,105.778088 15.4760992,104.085225 C16.9100687,103.255989 18.7489237,103.139844 20.2841145,103.764691 C21.8841908,104.415492 22.9567481,105.911752 23.6133893,107.453431 C25.0538473,110.837859 25.234229,114.873088 24.9247252,118.490454 C24.2259084,126.659538 19.968771,134.669653 13.3640763,139.580836 C12.6626641,140.102515 12.305145,140.984309 12.7827023,141.79992 C13.1869389,142.492248 14.2945344,142.907515 15.0017863,142.381943 C21.9938473,137.182668 26.6948015,129.222515 27.9224351,120.592095 C28.5336565,116.294729 28.4493053,111.680721 27.0828168,107.524805 C26.3366336,105.25576 25.1343053,103.158011 23.1916336,101.715607 C21.3268244,100.33095 18.9338473,99.9098435 16.6699924,100.273202 C12.0183511,101.018737 9.16403817,105.558775 9.83106107,110.083889 C10.5130076,114.714118 15.0932748,117.398431 19.1875496,118.640989 C27.3799924,121.127401 36.9473588,118.720149 42.9116336,112.557324 C48.9563664,106.311447 50.9639237,96.4877824 48.0246107,88.3258359 C47.6554122,87.300645 47.2141908,86.298813 46.7100305,85.3333168 C45.7432366,83.4821336 42.9421298,85.1204924 43.9089237,86.9710267" id="Fill-165" fill="#4975D6"></path>
                </g>
            </g>
        </g>
    </g>
</svg>