<?xml version="1.0" encoding="UTF-8"?>
<svg width="25px" height="25px" viewBox="0 0 25 25" version="1.1" xmlns="http://www.w3.org/2000/svg" xmlns:xlink="http://www.w3.org/1999/xlink">
    <title>Group 17</title>
    <g id="Symbols" stroke="none" stroke-width="1" fill="none" fill-rule="evenodd">
        <g id="Header" transform="translate(-734.000000, -117.000000)">
            <g transform="translate(0.000000, -3.000000)" id="sub-header">
                <g transform="translate(0.000000, 110.000000)">
                    <g id="Group-17" transform="translate(734.000000, 10.000000)">
                        <rect id="Rectangle" x="0" y="0" width="25" height="25"></rect>
                        <g id="gift-card-(1)" transform="translate(1.500000, 5.000000)" fill="#A775C8" fill-rule="nonzero">
                            <path d="M11.4844297,6.25 C11.1944336,7.08304167 10.4243906,7.589125 9.57734766,7.589125 C9.44169531,7.589125 9.30866406,7.55820833 9.175375,7.53175 L10.2042617,9.02833333 C10.401918,9.31579167 10.3219531,9.703375 10.0255117,9.89504167 C9.72434375,10.0885833 9.32615234,10.0049167 9.13171875,9.72170833 L7.734375,7.68920833 L7.734375,15 L20.0664062,15 C21.1326328,15 22,14.1589167 22,13.125 L22,6.25 L11.4844297,6.25 Z M18.7773438,12.5 L13.5351562,12.5 C13.1789023,12.5 12.890625,12.2204583 12.890625,11.875 C12.890625,11.5295417 13.1789023,11.25 13.5351562,11.25 L18.7773438,11.25 C19.1335977,11.25 19.421875,11.5295417 19.421875,11.875 C19.421875,12.2204583 19.1335977,12.5 18.7773438,12.5 Z M18.7773438,10 L13.5351562,10 C13.1789023,10 12.890625,9.72045833 12.890625,9.375 C12.890625,9.02954167 13.1789023,8.75 13.5351562,8.75 L18.7773438,8.75 C19.1335977,8.75 19.421875,9.02954167 19.421875,9.375 C19.421875,9.72045833 19.1335977,10 18.7773438,10 Z" id="Shape"></path>
                            <path d="M9.17008984,5.031125 L8.25176172,5.625 L9.17008984,6.218875 C9.65898828,6.534875 10.3125,6.195375 10.3125,5.625625 C10.3125,5.05333333 9.65709766,4.71629167 9.17008984,5.031125 Z" id="Path"></path>
                            <path d="M1.93359375,0 C0.867367187,0 0,0.841083333 0,1.875 L0,5 L2.69525781,5 C3.13121875,3.74779167 4.63082812,3.28466667 5.72459766,3.99108333 L6.4453125,4.45708333 L6.4453125,0 L1.93359375,0 Z" id="Path"></path>
                            <path d="M20.0664062,0 L7.734375,0 L7.734375,4.45708333 L8.45504687,3.99108333 C9.53725781,3.29 11.0457617,3.73854167 11.4846875,5 L22,5 L22,1.875 C22,0.841083333 21.1326328,0 20.0664062,0 Z" id="Path"></path>
                            <path d="M5.00959766,5.031125 C4.51996875,4.71458333 3.8671875,5.05616667 3.8671875,5.624375 C3.8671875,6.19429167 4.51833594,6.53591667 5.00959766,6.218875 L5.92792578,5.625 L5.00959766,5.031125 Z" id="Path"></path>
                            <path d="M5.04796875,9.72166667 C4.8503125,10.0079167 4.45066016,10.0842083 4.15417578,9.895 C3.85773438,9.70333333 3.77776953,9.31579167 3.97542578,9.02829167 L5.0043125,7.53170833 C4.87102344,7.55816667 4.73799219,7.58908333 4.60233984,7.58908333 C3.75323437,7.58908333 2.98409375,7.08095833 2.69495703,6.24995833 L0,6.24995833 L0,13.125 C0,14.1589167 0.867367187,15 1.93359375,15 L6.4453125,15 L6.4453125,7.68920833 L5.04796875,9.72166667 Z" id="Path"></path>
                        </g>
                    </g>
                </g>
            </g>
        </g>
    </g>
</svg>