<?xml version="1.0" encoding="UTF-8"?>
<svg width="50px" height="50px" viewBox="0 0 50 50" version="1.1" xmlns="http://www.w3.org/2000/svg" xmlns:xlink="http://www.w3.org/1999/xlink">
    <title>Group 5</title>
    <defs>
        <circle id="path-1" cx="25" cy="25" r="25"></circle>
    </defs>
    <g id="Page-1" stroke="none" stroke-width="1" fill="none" fill-rule="evenodd">
        <g id="LL21---Home" transform="translate(-42.000000, -1004.000000)">
            <g id="Group-6" transform="translate(0.000000, 988.000000)">
                <g id="Group-12" transform="translate(16.000000, 16.000000)">
                    <g id="Group-5" transform="translate(26.000000, 0.000000)">
                        <g id="Group-13">
                            <mask id="mask-2" fill="white">
                                <use xlink:href="#path-1"></use>
                            </mask>
                            <use id="Oval" fill="#8B7FBF" xlink:href="#path-1"></use>
                            <circle id="Oval" fill="#7365B0" mask="url(#mask-2)" cx="44.5" cy="14.5" r="24.5"></circle>
                        </g>
                        <g id="menu-(1)" transform="translate(14.000000, 14.000000)" fill="#FFFFFF" fill-rule="nonzero">
                            <path d="M19.421875,11.859375 L14.4375,11.859375 C13.0159219,11.859375 11.859375,13.0159219 11.859375,14.4375 L11.859375,19.421875 C11.859375,20.8434531 13.0159219,22 14.4375,22 L19.421875,22 C20.8434531,22 22,20.8434531 22,19.421875 L22,14.4375 C22,13.0159219 20.8434531,11.859375 19.421875,11.859375 Z M20.28125,19.421875 C20.28125,19.8957344 19.8957344,20.28125 19.421875,20.28125 L14.4375,20.28125 C13.9636406,20.28125 13.578125,19.8957344 13.578125,19.421875 L13.578125,14.4375 C13.578125,13.9636406 13.9636406,13.578125 14.4375,13.578125 L19.421875,13.578125 C19.8957344,13.578125 20.28125,13.9636406 20.28125,14.4375 L20.28125,19.421875 Z M7.5625,11.859375 L2.578125,11.859375 C1.15654687,11.859375 0,13.0159219 0,14.4375 L0,19.421875 C0,20.8434531 1.15654687,22 2.578125,22 L7.5625,22 C8.98407812,22 10.140625,20.8434531 10.140625,19.421875 L10.140625,14.4375 C10.140625,13.0159219 8.98407812,11.859375 7.5625,11.859375 Z M8.421875,19.421875 C8.421875,19.8957344 8.03635937,20.28125 7.5625,20.28125 L2.578125,20.28125 C2.10426563,20.28125 1.71875,19.8957344 1.71875,19.421875 L1.71875,14.4375 C1.71875,13.9636406 2.10426563,13.578125 2.578125,13.578125 L7.5625,13.578125 C8.03635937,13.578125 8.421875,13.9636406 8.421875,14.4375 L8.421875,19.421875 Z M7.5625,0 L2.578125,0 C1.15654687,0 0,1.15654687 0,2.578125 L0,7.5625 C0,8.98407812 1.15654687,10.140625 2.578125,10.140625 L7.5625,10.140625 C8.98407812,10.140625 10.140625,8.98407812 10.140625,7.5625 L10.140625,2.578125 C10.140625,1.15654687 8.98407812,0 7.5625,0 Z M8.421875,7.5625 C8.421875,8.03635937 8.03635937,8.421875 7.5625,8.421875 L2.578125,8.421875 C2.10426563,8.421875 1.71875,8.03635937 1.71875,7.5625 L1.71875,2.578125 C1.71875,2.10426563 2.10426563,1.71875 2.578125,1.71875 L7.5625,1.71875 C8.03635937,1.71875 8.421875,2.10426563 8.421875,2.578125 L8.421875,7.5625 Z M19.421875,0 L14.4375,0 C13.0159219,0 11.859375,1.15654687 11.859375,2.578125 L11.859375,7.5625 C11.859375,8.98407812 13.0159219,10.140625 14.4375,10.140625 L19.421875,10.140625 C20.8434531,10.140625 22,8.98407812 22,7.5625 L22,2.578125 C22,1.15654687 20.8434531,0 19.421875,0 Z M20.28125,7.5625 C20.28125,8.03635937 19.8957344,8.421875 19.421875,8.421875 L14.4375,8.421875 C13.9636406,8.421875 13.578125,8.03635937 13.578125,7.5625 L13.578125,2.578125 C13.578125,2.10426563 13.9636406,1.71875 14.4375,1.71875 L19.421875,1.71875 C19.8957344,1.71875 20.28125,2.10426563 20.28125,2.578125 L20.28125,7.5625 Z" id="Shape"></path>
                        </g>
                    </g>
                </g>
            </g>
        </g>
    </g>
</svg>