<?xml version="1.0" encoding="UTF-8"?>
<svg width="24px" height="24px" viewBox="0 0 24 24" version="1.1" xmlns="http://www.w3.org/2000/svg" xmlns:xlink="http://www.w3.org/1999/xlink">
    <title>Group 17</title>
    <g id="Page-1" stroke="none" stroke-width="1" fill="none" fill-rule="evenodd">
        <g id="Group-17">
            <rect id="Rectangle" x="0" y="0" width="24" height="24"></rect>
            <g id="Group-15" transform="translate(2.057115, 5.485705)">
                <path d="M5.32927249,0 L0.456844385,0 C0.204574916,0 0,0.200508716 0,0.447763993 L0,4.79116427 C0,5.03841955 0.204574916,5.23892827 0.456844385,5.23892827 C1.36724388,5.23892827 2.10787999,5.96484325 2.10787999,6.85714733 C2.10787999,7.74945142 1.36724388,8.4753664 0.456844385,8.4753664 C0.204574916,8.4753664 0,8.67587512 0,8.9231304 L0,13.2665307 C0,13.513786 0.204574916,13.7142947 0.456844385,13.7142947 L5.32927249,13.7142947 L5.32927249,0 Z" id="Fill-1" fill="#A179C5"></path>
                <path d="M20.1146573,0 L6.24294299,0 L6.24294299,13.7142947 L20.1146573,13.7142947 C20.3669268,13.7142947 20.5715017,13.513786 20.5715017,13.2665307 L20.5715017,0.447763993 C20.5715017,0.200508716 20.3669268,0 20.1146573,0" id="Fill-4" fill="#A179C5"></path>
                <path d="M11.4183686,4.39119461 C11.0519794,4.39119461 10.7538427,4.68340539 10.7538427,5.04251211 C10.7538427,5.40170839 11.0519794,5.69382962 11.4183686,5.69382962 C11.7847578,5.69382962 12.0828944,5.40170839 12.0828944,5.04251211 C12.0828944,4.68340539 11.7847578,4.39119461 11.4183686,4.39119461 M11.4183686,6.5893576 C10.5481714,6.5893576 9.84015396,5.89550252 9.84015396,5.04251211 C9.84015396,4.18961126 10.5481714,3.49566662 11.4183686,3.49566662 C12.2885658,3.49566662 12.9965832,4.18961126 12.9965832,5.04251211 C12.9965832,5.89550252 12.2885658,6.5893576 11.4183686,6.5893576" id="Fill-7" fill="#FFFFFF"></path>
                <line x1="15.1617332" y1="3.94343062" x2="10.8581677" y2="9.63585425" id="Fill-9" fill="#A179C5"></line>
                <polygon id="Fill-11" fill="#FFFFFF" points="11.2252422 9.90240816 10.4911846 9.36930035 14.7946587 3.67687671 15.5288077 4.20998452"></polygon>
                <path d="M14.6971225,7.88541048 C14.3307333,7.88541048 14.0325966,8.17762126 14.0325966,8.53672798 C14.0325966,8.89592426 14.3307333,9.18804548 14.6971225,9.18804548 C15.0635116,9.18804548 15.3616483,8.89592426 15.3616483,8.53672798 C15.3616483,8.17762126 15.0635116,7.88541048 14.6971225,7.88541048 M14.6971225,10.0835735 C13.8269253,10.0835735 13.1189078,9.38962883 13.1189078,8.53672798 C13.1189078,7.68382713 13.8269253,6.98988249 14.6971225,6.98988249 C15.5673196,6.98988249 16.2753371,7.68382713 16.2753371,8.53672798 C16.2753371,9.38962883 15.5673196,10.0835735 14.6971225,10.0835735" id="Fill-13" fill="#FFFFFF"></path>
            </g>
        </g>
    </g>
</svg>