<?xml version="1.0" encoding="UTF-8"?>
<svg width="50px" height="50px" viewBox="0 0 50 50" version="1.1" xmlns="http://www.w3.org/2000/svg" xmlns:xlink="http://www.w3.org/1999/xlink">
    <title>Group 25</title>
    <defs>
        <circle id="path-1" cx="25" cy="25" r="25"></circle>
    </defs>
    <g id="Page-1" stroke="none" stroke-width="1" fill="none" fill-rule="evenodd">
        <g id="LL21---Home" transform="translate(-269.000000, -1004.000000)">
            <g id="Group-6" transform="translate(0.000000, 988.000000)">
                <g id="Group-12" transform="translate(16.000000, 16.000000)">
                    <g id="Group-11-Copy" transform="translate(227.000000, 0.000000)">
                        <g id="Group-25" transform="translate(26.000000, 0.000000)">
                            <g id="Group-16">
                                <mask id="mask-2" fill="white">
                                    <use xlink:href="#path-1"></use>
                                </mask>
                                <use id="Oval" fill="#8B7FBF" xlink:href="#path-1"></use>
                                <circle id="Oval" fill="#7365B0" mask="url(#mask-2)" cx="45.5" cy="38.5" r="24.5"></circle>
                            </g>
                            <g id="best" transform="translate(13.000000, 13.000000)" fill="#FFFFFF" fill-rule="nonzero">
                                <path d="M11.2468872,10.4437866 C11.6352539,10.4437866 11.9500122,10.1290283 11.9500122,9.74066161 C11.9500122,9.35229492 11.6352539,9.03753661 11.2468872,9.03753661 L9.36401367,9.03753661 C8.97583008,9.03753661 8.66088867,9.35229492 8.66088867,9.74066161 L8.66088867,14.2593384 C8.66088867,14.6477051 8.97583008,14.9624634 9.36401367,14.9624634 L11.2468872,14.9624634 C11.6352539,14.9624634 11.9500122,14.6477051 11.9500122,14.2593384 C11.9500122,13.8709717 11.6352539,13.5562134 11.2468872,13.5562134 L10.0671387,13.5562134 L10.0671387,12.703125 L10.8702393,12.703125 C11.258606,12.703125 11.5733643,12.3883667 11.5733643,12 C11.5733643,11.6116333 11.258606,11.296875 10.8702393,11.296875 L10.0671387,11.296875 L10.0671387,10.4437866 L11.2468872,10.4437866 Z" id="Path"></path>
                                <path d="M13.8828735,11.296875 C13.3183594,11.296875 13.3185425,10.4437866 13.8828735,10.4437866 L14.6359863,10.4437866 C15.0241699,10.4437866 15.3391113,10.1290283 15.3391113,9.74066161 C15.3391113,9.35229492 15.0241699,9.03753661 14.6359863,9.03753661 L13.8828735,9.03753661 C12.8721314,9.03753661 12.0499878,9.85968019 12.0499878,10.8702393 C12.0499878,11.8809815 12.8721314,12.703125 13.8828735,12.703125 C14.4472046,12.703125 14.4470215,13.5562134 13.8828735,13.5562134 L13.1297607,13.5562134 C12.741394,13.5562134 12.4266357,13.8709717 12.4266357,14.2593384 C12.4266357,14.6477051 12.741394,14.9624634 13.1297607,14.9624634 L13.8828735,14.9624634 C14.8934326,14.9624634 15.7155762,14.1403198 15.7155762,13.1297607 C15.7155762,12.1190185 14.8934326,11.296875 13.8828735,11.296875 L13.8828735,11.296875 Z" id="Path"></path>
                                <path d="M6.3515625,9.03753661 L5.22180178,9.03753661 C4.83361819,9.03753661 4.51867678,9.35229492 4.51867678,9.74066161 L4.51867678,14.2593384 C4.51867678,14.6477051 4.83361819,14.9624634 5.22180178,14.9624634 L6.3515625,14.9624634 C7.37438963,14.9624634 8.18444822,14.12677 8.18444822,13.1297607 C8.18444822,12.7038574 8.03851317,12.3116455 7.79388427,12 C8.04400636,11.6790161 8.18444822,11.277832 8.18444822,10.8695068 C8.18444822,9.86938477 7.37054442,9.03753661 6.3515625,9.03753661 L6.3515625,9.03753661 Z M6.65130614,13.4324341 C6.57312009,13.5111694 6.46380614,13.5562134 6.3515625,13.5562134 L5.92492678,13.5562134 L5.92492678,12.703125 L6.3515625,12.703125 C6.58685302,12.703125 6.77819822,12.8944702 6.77819822,13.1297607 C6.77819822,13.241272 6.73205569,13.3515015 6.65130614,13.4324341 L6.65130614,13.4324341 Z M6.65185547,11.1730957 C6.57330323,11.2516479 6.46398928,11.296875 6.3515625,11.296875 L5.92492678,11.296875 L5.92492678,10.4437866 L6.3515625,10.4437866 C6.46398928,10.4437866 6.57330323,10.4888306 6.65167238,10.5675659 C6.73205569,10.6481323 6.77801567,10.7581787 6.77801567,10.8711548 C6.77819822,10.9824829 6.73205569,11.0925293 6.65185547,11.1730957 Z" id="Shape"></path>
                                <path d="M18.7781982,9.03753661 L16.5186768,9.03753661 C16.1304932,9.03753661 15.8155518,9.35229492 15.8155518,9.74066161 C15.8155518,10.1290283 16.1304932,10.4437866 16.5186768,10.4437866 L16.9453125,10.4437866 L16.9453125,14.2593384 C16.9453125,14.6477051 17.2600708,14.9624634 17.6484375,14.9624634 C18.0368042,14.9624634 18.3515625,14.6477051 18.3515625,14.2593384 L18.3515625,10.4437866 L18.7781982,10.4437866 C19.1663818,10.4437866 19.4813232,10.1290283 19.4813232,9.74066161 C19.4813232,9.35229492 19.1663818,9.03753661 18.7781982,9.03753661 L18.7781982,9.03753661 Z" id="Path"></path>
                                <path d="M24,12 C24,11.4345703 23.8035278,10.8815918 23.4473877,10.4436035 L22.4408569,9.20343019 L22.6918945,7.62414553 C22.9026489,6.30670167 22.0592651,5.28057863 21.1345825,4.92810056 L19.6398926,4.35571289 L19.0704346,2.86651612 C18.6558838,1.76971434 17.5206299,1.12426758 16.3742065,1.30737305 L14.7952881,1.55895994 L13.5558472,0.553527844 C13.1189575,0.196472156 12.5665283,0 12,0 C11.4345703,0 10.8815918,0.196472156 10.4436035,0.552612281 L9.20343019,1.55914308 L7.62414553,1.30810547 C6.30670167,1.09735106 5.28057863,1.94073487 4.92810056,2.86541747 L4.35571289,4.35992433 L2.86651612,4.92938231 C1.76971434,5.34411619 1.12426758,6.479187 1.30737305,7.62579347 L1.55895994,9.20471194 L0.553527844,10.4441528 C0.196472156,10.8810425 0,11.4334717 0,12 C0,12.5654297 0.196472156,13.1184082 0.552612281,13.5563965 L1.55914308,14.7965698 L1.30810547,16.3758545 C1.09735106,17.6932983 1.94073487,18.7194214 2.86541747,19.0718994 L4.36010742,19.6442871 L4.92956541,21.1334839 C5.34411619,22.2302857 6.47937009,22.8757324 7.62579347,22.692627 L9.20471194,22.4410401 L10.4443359,23.4464722 C10.8810425,23.8035278 11.4334717,24 12,24 C12.5654297,24 13.1184082,23.8035278 13.5563965,23.4473877 L14.7965698,22.4408569 L16.3758545,22.6918945 C17.6932983,22.9026489 18.7194214,22.0592651 19.0718994,21.1345825 L19.6442871,19.6398926 L21.1334839,19.0704346 C22.2302857,18.6558838 22.8757324,17.5206299 22.692627,16.3742065 L22.4410401,14.7952881 L23.4464722,13.5556641 C23.8035278,13.1189575 24,12.5665283 24,12 Z M22.3560791,12.6679687 L21.253418,14.0273437 C21.2503052,14.0313721 21.2470093,14.0354004 21.2437134,14.0394287 C20.9699707,14.3926392 21.0106201,14.7566528 21.0285645,14.8670654 L21.3039551,16.5957642 C21.3700561,17.010498 21.1774292,17.5506592 20.633606,17.7561035 L18.9992065,18.3812256 C18.9964599,18.3821411 18.9937134,18.3832397 18.9911499,18.3843384 C18.7399292,18.4839478 18.4995117,18.6923218 18.3837891,18.9993896 L17.7583008,20.6326904 C17.6085205,21.0256348 17.1710815,21.3951416 16.597229,21.3034057 L14.8687134,21.0283814 C14.8665161,21.0280151 14.8643189,21.0276489 14.8621216,21.0274658 C14.4536133,20.9664917 14.1600952,21.1430054 14.0245972,21.2563477 L12.6697998,22.3560791 C12.2828979,22.6706543 11.7225952,22.6750488 11.3320312,22.3560791 L9.97265625,21.253418 C9.96862791,21.2503052 9.96459961,21.2470093 9.96057131,21.2438965 C9.60736083,20.9701538 9.24334716,21.0106201 9.13293459,21.0285645 L7.40423583,21.3039551 C6.98950195,21.3702393 6.44934084,21.1774292 6.24389648,20.6337891 L5.61877444,18.9992065 C5.61785887,18.9964599 5.61676027,18.9938965 5.61566161,18.9911499 C5.51605223,18.7399292 5.30767823,18.4996948 5.00061037,18.3837891 L3.36730959,17.7583008 C2.97436523,17.6085205 2.60485837,17.1712646 2.69659425,16.5974121 L2.97161864,14.8688965 C2.97198487,14.8665161 2.97235106,14.8643189 2.97253416,14.8621216 C3.03350831,14.4536133 2.85699464,14.1602783 2.74365234,14.0245972 L1.64392087,12.6697998 C1.3293457,12.2828979 1.32495117,11.7225952 1.64392087,11.3322143 L2.74658203,9.97283934 C2.74969481,9.96862791 2.75299073,9.96459961 2.75610352,9.96057131 C3.0298462,9.60736083 2.98937991,9.24334716 2.97143555,9.13311769 L2.69604492,7.40423583 C2.62976072,6.98950195 2.82257081,6.44952394 3.36621094,6.24389648 L5.00079347,5.61877444 C5.00354006,5.61785888 5.00610352,5.61676027 5.00885011,5.61566161 C5.26007081,5.51623538 5.50030519,5.30767823 5.61621094,5.00061038 L6.24169922,3.36749269 C6.39147947,2.97436523 6.82873537,2.60504152 7.40258789,2.69677734 L9.13110352,2.97161864 C9.13348387,2.97198488 9.13568114,2.97235106 9.13787841,2.97253416 C9.54638672,3.03350831 9.83972166,2.85699464 9.97540284,2.74365234 L11.3302002,1.64410402 C11.7171021,1.3293457 12.2774048,1.32495117 12.6677857,1.64392088 L14.0271607,2.74658203 C14.0313721,2.74969481 14.0354004,2.75299073 14.0394287,2.75628661 C14.3926392,3.0300293 14.7566528,2.98937991 14.8668823,2.97143555 L16.5957642,2.69604492 C17.010498,2.62994386 17.5504761,2.82257081 17.7561035,3.36639403 L18.3812256,5.00079347 C18.3821411,5.00354006 18.3832397,5.00628661 18.3843384,5.00885011 C18.4837646,5.26007081 18.6923218,5.50048828 18.9993896,5.61621094 L20.6325073,6.24169922 C21.0256348,6.39147947 21.3949585,6.82891847 21.3032227,7.40277098 L21.0283814,9.13128661 C21.0280151,9.13348387 21.0276489,9.13568114 21.0274658,9.13787841 C20.9664917,9.54638672 21.1430054,9.8399048 21.2563477,9.97540284 L22.355896,11.3302002 C22.6706543,11.7171021 22.6750488,12.2774048 22.3560791,12.6679687 Z" id="Shape"></path>
                            </g>
                        </g>
                    </g>
                </g>
            </g>
        </g>
    </g>
</svg>