<svg width="28" height="28" viewBox="0 0 28 28" fill="none" xmlns="http://www.w3.org/2000/svg">
<g id="Group 3924">
<g id="Group 8">
<path id="Fill 1" fill-rule="evenodd" clip-rule="evenodd" d="M20.7846 11.6523L20.2977 10.7687C20.6118 10.5956 20.8999 10.379 21.1541 10.1247C21.8723 9.40654 22.2678 8.45169 22.2678 7.43607C22.2678 5.33954 20.5621 3.63385 18.4656 3.63385C16.3691 3.63385 14.6634 5.33954 14.6634 7.43607C14.6634 8.27798 14.9329 9.0755 15.4426 9.74249L14.641 10.355C13.9956 9.51062 13.6545 8.50122 13.6545 7.43607C13.6545 4.78318 15.8127 2.625 18.4656 2.625C21.1185 2.625 23.2767 4.78318 23.2767 7.43607C23.2767 8.72118 22.7763 9.92933 21.8676 10.838C21.5463 11.1593 21.1819 11.4334 20.7846 11.6523Z" fill="#A179C5"/>
<g id="Group 5">
<mask id="mask0_2225_8574" style="mask-type:luminance" maskUnits="userSpaceOnUse" x="5" y="20" width="15" height="6">
<path id="Clip 4" fill-rule="evenodd" clip-rule="evenodd" d="M5.25 20.5112H19.433V25.3106H5.25V20.5112Z" fill="white"/>
</mask>
<g mask="url(#mask0_2225_8574)">
<path id="Fill 3" fill-rule="evenodd" clip-rule="evenodd" d="M5.25 20.5112V24.764C5.25 25.0658 5.49478 25.3106 5.79662 25.3106H18.8863C19.1883 25.3106 19.433 25.0658 19.433 24.764V20.5112H5.25Z" fill="#A179C5"/>
</g>
</g>
<path id="Fill 6" fill-rule="evenodd" clip-rule="evenodd" d="M14.6026 8.52303C15.3396 8.52303 15.9392 9.12256 15.9392 9.85952C15.9392 10.5965 15.3396 11.1961 14.6026 11.1961C13.8656 11.1961 13.266 10.5965 13.266 9.85952C13.266 9.12256 13.8656 8.52303 14.6026 8.52303ZM19.433 19.4083V5.71044C19.433 5.4086 19.1882 5.16382 18.8863 5.16382H7.76447C6.37802 5.16382 5.25 6.29183 5.25 7.67829V19.4083H19.433Z" fill="#A179C5"/>
</g>
</g>
</svg>
