<?xml version="1.0" encoding="UTF-8"?>
<svg width="51px" height="50px" viewBox="0 0 51 50" version="1.1" xmlns="http://www.w3.org/2000/svg" xmlns:xlink="http://www.w3.org/1999/xlink">
    <title>Group 27</title>
    <defs>
        <circle id="path-1" cx="25.5" cy="25" r="25"></circle>
    </defs>
    <g id="Page-1" stroke="none" stroke-width="1" fill="none" fill-rule="evenodd">
        <g id="LL21---Home" transform="translate(-155.000000, -1100.000000)">
            <g id="Group-6" transform="translate(0.000000, 988.000000)">
                <g id="Group-12" transform="translate(16.000000, 16.000000)">
                    <g id="Group-11-Copy-4" transform="translate(113.500000, 96.000000)">
                        <g id="Group-27" transform="translate(25.500000, 0.000000)">
                            <g id="Group-15">
                                <mask id="mask-2" fill="white">
                                    <use xlink:href="#path-1"></use>
                                </mask>
                                <use id="Oval" fill="#8B7FBF" xlink:href="#path-1"></use>
                                <circle id="Oval" fill="#7365B0" mask="url(#mask-2)" cx="9.5" cy="9.5" r="24.5"></circle>
                            </g>
                            <g id="new" transform="translate(13.500000, 13.000000)" fill="#FFFFFF" fill-rule="nonzero">
                                <path d="M22.8305625,14.142 L21.9353906,12.3109219 C21.8388281,12.1133906 21.8388281,11.88675 21.9353906,11.6892187 L22.8305156,9.85804687 C23.3288906,8.83846875 22.9340156,7.62323437 21.9315469,7.09129687 L20.131125,6.13607812 C19.936875,6.033 19.8036563,5.84967187 19.7656875,5.63315625 L19.4135625,3.62559375 C19.2174844,2.50776562 18.1834219,1.75692187 17.0600625,1.91564062 L15.0419531,2.20110937 C14.8242656,2.23209375 14.6087813,2.161875 14.4507188,2.00896875 L12.9858281,0.591890625 C12.1701563,-0.197296875 10.8923438,-0.19725 10.0767656,0.59184375 L8.61182813,2.00896875 C8.45376563,2.16182812 8.23832813,2.23190625 8.02059375,2.20110937 L6.00248438,1.91564062 C4.87917188,1.7570625 3.8450625,2.5078125 3.64898438,3.62559375 L3.29685938,5.63315625 C3.25889063,5.84971875 3.12567188,6.03304687 2.93146875,6.13607812 L1.131,7.09139062 C0.128484375,7.62323437 -0.266390625,8.83851562 0.23203125,9.85814062 L1.12715625,11.6892187 C1.22371875,11.88675 1.22371875,12.1133906 1.12715625,12.3109219 L0.23203125,14.1420937 C-0.26634375,15.1616719 0.12853125,16.3769062 1.131,16.9088437 L2.93142188,17.8640625 C3.12567188,17.9671406 3.25889063,18.1504687 3.29685938,18.3669844 L3.64898438,20.3745937 C3.8450625,21.4924219 4.87907813,22.2430781 6.00248438,22.0845469 L8.02059375,21.7990781 C8.23842188,21.7682344 8.4538125,21.8383594 8.61182813,21.9912187 L10.0767188,23.4082969 C10.484625,23.8029375 11.0078438,24.0001406 11.53125,24.0001406 C12.0545625,24.0001406 12.5780625,23.8028437 12.9857813,23.4083437 L14.4507188,21.9912187 C14.6087813,21.8383594 14.824125,21.7682812 15.0419531,21.7990781 L17.0600625,22.0845469 C17.1609375,22.0987969 17.2609219,22.1057344 17.3598281,22.1057344 C18.3624375,22.1056406 19.2351094,21.3920156 19.4136094,20.3746406 L19.7657344,18.3670781 C19.8037031,18.1505156 19.9369219,17.9671875 20.131125,17.8641562 L21.9315938,16.9088437 C22.9341094,16.3769062 23.3289844,15.161625 22.8305625,14.142 Z M20.6917969,12.9187969 L21.5869219,14.749875 C21.7555313,15.094875 21.6219375,15.5060156 21.28275,15.6859687 L19.4822344,16.6412344 C18.9082031,16.945875 18.5145469,17.4877031 18.4022344,18.1277344 L18.0501094,20.1352969 C17.9837812,20.5134375 17.6338594,20.7673125 17.2538438,20.7137812 L15.2357344,20.4283125 C14.5921406,20.3372344 13.9553438,20.5442812 13.4881875,20.9961562 L12.02325,22.4133281 C11.7473438,22.6802344 11.3150156,22.6802812 11.0390156,22.4132812 L9.574125,20.9961562 C9.17934375,20.6143125 8.66325,20.4072656 8.12442187,20.4072656 C8.02570312,20.4072656 7.9261875,20.41425 7.82657812,20.4283125 L5.80846875,20.7137812 C5.42817187,20.7673594 5.07857812,20.5134844 5.01220312,20.1352969 L4.66007812,18.1276875 C4.54776562,17.4876094 4.15415625,16.9457812 3.58003125,16.6411406 L1.77960937,15.685875 C1.44042187,15.5059219 1.30682812,15.0947344 1.4754375,14.7498281 L2.3705625,12.9186562 C2.6559375,12.3348281 2.6559375,11.6650781 2.3705625,11.08125 L2.3705625,11.08125 L1.4754375,9.25017187 C1.30682812,8.90517187 1.44042187,8.49403125 1.77960937,8.31407812 L3.580125,7.3588125 C4.15415625,7.05417187 4.5478125,6.51234375 4.660125,5.8723125 L5.01229687,3.86475 C5.078625,3.48660937 5.42821875,3.23235937 5.8085625,3.28626562 L7.82667187,3.57173437 C8.47003125,3.66276562 9.1070625,3.45571875 9.57421875,3.00389062 L11.0391562,1.58671875 C11.3150625,1.3198125 11.7473906,1.31976562 12.0233906,1.58676562 L13.4882812,3.00389062 C13.9553906,3.45576562 14.592375,3.66248437 15.2358281,3.57173437 L17.2539375,3.28626562 C17.6341406,3.23259375 17.9838281,3.4865625 18.0502031,3.86475 L18.4023281,5.8723125 C18.5146406,6.51239062 18.90825,7.05421875 19.482375,7.35885937 L21.2828437,8.31407812 C21.6220312,8.49403125 21.755625,8.90521875 21.5870156,9.250125 L20.6918906,11.0812969 C20.406375,11.6651719 20.406375,12.3349219 20.6917969,12.9187969 Z" id="Shape"></path>
                                <path d="M8.30132812,8.53945313 C7.91910937,8.53945313 7.60921875,8.84934375 7.60921875,9.2315625 L7.60921875,11.8366406 L6.15196875,8.92204688 C6.0084375,8.6349375 5.68621875,8.4841875 5.37389062,8.55796875 C5.06146875,8.63175 4.84078125,8.9105625 4.84078125,9.2315625 L4.84078125,14.7684375 C4.84078125,15.1506563 5.15067187,15.4605469 5.53289062,15.4605469 C5.91510937,15.4605469 6.225,15.1506563 6.225,14.7684375 L6.225,12.1633594 L7.68225,15.0779531 C7.80140625,15.3162656 8.0435625,15.4606406 8.30114062,15.4606406 C8.353875,15.4606406 8.40721875,15.4545469 8.46032812,15.4420313 C8.77275,15.36825 8.9934375,15.0894375 8.9934375,14.7684375 L8.9934375,9.2315625 C8.9934375,8.84934375 8.68359375,8.53945313 8.30132812,8.53945313 Z" id="Path"></path>
                                <path d="M12.915375,14.0763281 L10.8390469,14.0763281 L10.8390469,12.6921094 L12.4539844,12.6921094 C12.8362031,12.6921094 13.1460938,12.3822188 13.1460938,12 C13.1460938,11.6177813 12.8362031,11.3078906 12.4539844,11.3078906 L10.8390469,11.3078906 L10.8390469,9.92367188 L12.915375,9.92367188 C13.2975938,9.92367188 13.6074844,9.61378125 13.6074844,9.2315625 C13.6074844,8.84934375 13.2975938,8.53945313 12.915375,8.53945313 L10.1469375,8.53945313 C9.76471875,8.53945313 9.45482813,8.84934375 9.45482813,9.2315625 L9.45482813,14.7684375 C9.45482813,15.1506563 9.76471875,15.4605469 10.1469375,15.4605469 L12.915375,15.4605469 C13.2975938,15.4605469 13.6074844,15.1506563 13.6074844,14.7684375 C13.6074844,14.3862188 13.2976406,14.0763281 12.915375,14.0763281 Z" id="Path"></path>
                                <path d="M17.5294687,8.53945313 C17.14725,8.53945313 16.8373594,8.84934375 16.8373594,9.2315625 L16.8373594,11.8366406 L16.7643281,11.6905313 C16.6470937,11.4560625 16.4074219,11.3079375 16.14525,11.3079375 C15.8830781,11.3079375 15.6434531,11.4560625 15.5261719,11.6905313 L15.4531406,11.8366406 L15.4531406,9.2315625 C15.4531406,8.84934375 15.14325,8.53945313 14.7610312,8.53945313 C14.3788125,8.53945313 14.0689219,8.84934375 14.0689219,9.2315625 L14.0689219,14.7684375 C14.0689219,15.0894375 14.2896094,15.36825 14.6020312,15.4420313 C14.9145469,15.5158594 15.2365312,15.3651094 15.3801094,15.0779531 L16.14525,13.547625 L16.9103906,15.0779531 C17.0295937,15.3162656 17.2717031,15.4606459 17.5292812,15.4606459 C17.5820156,15.4606459 17.6353594,15.4545469 17.6884687,15.4420313 C18.0008906,15.36825 18.2215781,15.0894375 18.2215781,14.7684375 L18.2215781,9.2315625 C18.2215781,8.84934375 17.9117344,8.53945313 17.5294687,8.53945313 Z" id="Path"></path>
                            </g>
                        </g>
                    </g>
                </g>
            </g>
        </g>
    </g>
</svg>