<?xml version="1.0" encoding="UTF-8"?>
<svg width="24px" height="24px" viewBox="0 0 24 24" version="1.1" xmlns="http://www.w3.org/2000/svg" xmlns:xlink="http://www.w3.org/1999/xlink">
    <title>Group 17</title>
    <defs>
        <polygon id="path-1" points="0 0 14.4 0 14.4 17.1428571 0 17.1428571"></polygon>
    </defs>
    <g id="Page-1" stroke="none" stroke-width="1" fill="none" fill-rule="evenodd">
        <g id="Group-17">
            <rect id="Rectangle" x="0" y="0" width="24" height="24"></rect>
            <g id="Group-10" transform="translate(4.800000, 4.114286)">
                <polygon id="Fill-1" fill="#A179C5" points="13.9891618 12.9801963 7.19997535 16.7198913 0.410788876 12.9801963 0.410788876 0.422932025 13.9891618 0.422932025"></polygon>
                <g id="Group-9">
                    <g id="Group-4">
                        <mask id="mask-2" fill="white">
                            <use xlink:href="#path-1"></use>
                        </mask>
                        <g id="Clip-3"></g>
                        <path d="M0.82162705,12.726789 L7.2,16.2401972 L13.578373,12.726789 L13.578373,0.845931724 L0.82162705,0.845931724 L0.82162705,12.726789 Z M7.2,17.142891 C7.13336605,17.142891 7.06673209,17.1261415 7.00617818,17.0928118 L0.216991704,13.3531169 C0.0833951456,13.2795208 0,13.13622 0,12.9802302 L0,0.422965862 C0,0.189404113 0.183962296,0 0.410813525,0 L13.9891865,0 C14.2160377,0 14.4,0.189404113 14.4,0.422965862 L14.4,12.9802302 C14.4,13.13622 14.3165227,13.2795208 14.1829261,13.3531169 L7.39382182,17.0928118 C7.33326791,17.1261415 7.26663395,17.142891 7.2,17.142891 L7.2,17.142891 Z" id="Fill-2" fill="#A179C5" mask="url(#mask-2)"></path>
                    </g>
                    <path d="M7.19658203,9.11096382 C7.25532837,9.11096382 7.31415686,9.1298281 7.36419395,9.16738747 L9.34866976,10.6519131 L8.60846595,8.2365242 C8.57009597,8.11521759 8.61175246,7.98333684 8.71223745,7.90830269 L10.6965489,6.4238617 L8.23676188,6.40229044 C8.11294268,6.40229044 8.00399493,6.32091181 7.96554279,6.1996052 L7.20750967,3.79741289 C7.20619507,3.79335241 7.20504479,3.78929194 7.19658203,3.78929194 L6.42762128,6.19952061 C6.38916913,6.32091181 6.28022138,6.40229044 6.15640219,6.40229044 L3.70343463,6.40229044 L5.68109094,7.90847188 C5.7814116,7.98333684 5.82306809,8.11521759 5.78469811,8.2366088 L5.02674716,10.6384627 L7.02897011,9.16738747 C7.07908936,9.1298281 7.1378357,9.11096382 7.19658203,9.11096382" id="Fill-5" fill="#FFFFFF"></path>
                    <path d="M7.19659025,8.68799796 C7.34456528,8.68799796 7.48613162,8.73553933 7.60608917,8.82546187 L8.58185345,9.55541635 L8.21664023,8.36375233 C8.12420719,8.07114455 8.22592462,7.74909834 8.47085164,7.56603872 L9.44686241,6.83591505 L8.23331926,6.82525631 C7.93473999,6.82525631 7.66877931,6.62663154 7.57503167,6.3309784 L7.19864432,5.13821467 L6.81790234,6.33148596 C6.72456551,6.62646235 6.45860483,6.82525631 6.1564104,6.82525631 L4.94960459,6.82525631 L5.92545104,7.56840733 C6.16733804,7.74909834 6.26897331,8.07114455 6.17538999,8.36747443 L5.8026178,9.54881809 L6.79037783,8.82309326 C6.90704888,8.73553933 7.04861522,8.68799796 7.19659025,8.68799796 L7.19659025,8.68799796 Z M9.34867798,11.0748789 C9.26388607,11.0748789 9.17917632,11.0478937 9.10720179,10.9940924 L7.19593295,9.56429864 L5.26535587,10.9826724 C5.12107816,11.0888368 4.92684552,11.0874833 4.78388242,10.9795424 C4.64083715,10.8716015 4.58118702,10.6813515 4.63598955,10.5077663 L5.36608734,8.19456599 L3.45909096,6.742355 C3.31653867,6.63373736 3.25771017,6.44323354 3.31325216,6.26990213 C3.36879415,6.09648613 3.52613573,5.97932458 3.70344285,5.97932458 L6.06545629,5.97932458 L6.80623524,3.65732659 C6.86169506,3.4837414 7.0191188,3.36632608 7.19659025,3.36632608 C7.37923794,3.36632608 7.54044117,3.4862792 7.59762641,3.66485539 L8.32821718,5.98008592 L10.7000902,6.00089584 C10.8773973,6.00250311 11.0337529,6.12101815 11.087816,6.29485712 C11.141879,6.46878068 11.0814894,6.65877694 10.9380333,6.76604109 L9.0267645,8.19583489 L9.74042976,10.5246003 C9.79383551,10.6987777 9.73270646,10.8884356 9.5887574,10.9951076 C9.51702936,11.0483167 9.43289475,11.0748789 9.34867798,11.0748789 L9.34867798,11.0748789 Z" id="Fill-7" fill="#FFFFFF"></path>
                </g>
            </g>
        </g>
    </g>
</svg>