<?xml version="1.0" encoding="UTF-8"?>
<svg width="51px" height="50px" viewBox="0 0 51 50" version="1.1" xmlns="http://www.w3.org/2000/svg" xmlns:xlink="http://www.w3.org/1999/xlink">
    <title>Group 22</title>
    <defs>
        <circle id="path-1" cx="25.5" cy="25" r="25"></circle>
    </defs>
    <g id="Page-1" stroke="none" stroke-width="1" fill="none" fill-rule="evenodd">
        <g id="LL21---Home" transform="translate(-155.000000, -1004.000000)">
            <g id="Group-6" transform="translate(0.000000, 988.000000)">
                <g id="Group-12" transform="translate(16.000000, 16.000000)">
                    <g id="Group-11-Copy-2" transform="translate(113.500000, 0.000000)">
                        <g id="Group-22" transform="translate(25.500000, 0.000000)">
                            <g id="Group-15">
                                <mask id="mask-2" fill="white">
                                    <use xlink:href="#path-1"></use>
                                </mask>
                                <use id="Oval" fill="#8B7FBF" xlink:href="#path-1"></use>
                                <circle id="Oval" fill="#7365B0" mask="url(#mask-2)" cx="9.5" cy="9.5" r="24.5"></circle>
                            </g>
                            <g id="tag" transform="translate(13.500000, 13.000000)" fill="#FFFFFF" fill-rule="nonzero">
                                <path d="M22.7875776,1.18191304 C22.0670807,0.461416149 21.0732919,0.0440248447 19.9900621,0.00427329193 C18.9614907,-0.0354782609 17.9080745,0.252720497 16.9540373,0.839055901 C16.531677,1.09744099 16.3975155,1.64899379 16.6559006,2.06638509 C16.9142857,2.48874534 17.4658385,2.62290683 17.8832298,2.36452174 C19.1801242,1.56949068 20.6757764,1.60427329 21.5204969,2.44899379 C22.0173913,2.9458882 22.2459627,3.66638509 22.1614907,4.47632298 C22.0720497,5.35582609 21.6397516,6.22042236 20.9440994,6.91607453 C20.2484472,7.61172671 19.378882,8.04402484 18.5043478,8.13346584 C17.6944099,8.21296894 16.973913,7.98439752 16.4770186,7.49247205 C16.1540373,7.16949068 15.7267081,6.99557764 15.2745342,6.99557764 C14.8173913,6.99557764 14.3900621,7.17445963 14.0670807,7.49247205 C13.7440994,7.81545342 13.5701863,8.24278261 13.5701863,8.69992547 C13.5701863,9.15706832 13.7490683,9.58439752 14.0720497,9.90737888 C14.3950311,10.2303602 14.8223602,10.4042733 15.2745342,10.4042733 C15.731677,10.4042733 16.1590062,10.2253913 16.4819876,9.90737888 C16.5515528,9.83781366 16.6161491,9.7632795 16.6708075,9.6837764 C17.1428571,9.8527205 17.6496894,9.94216149 18.1863354,9.94216149 C18.3503106,9.94216149 18.5192547,9.9322236 18.6881988,9.91731677 C18.7031056,9.91731677 18.7180124,9.91234783 18.7329193,9.91234783 L18.8869565,12.1434037 C18.9217391,12.650236 18.7329193,13.1471304 18.3751553,13.5098634 L10.042236,21.8328447 C9.57515528,22.2999255 8.80993789,22.2999255 8.34285714,21.8328447 L2.13664596,15.6266335 C1.90807453,15.3980621 1.78385093,15.0949565 1.78385093,14.7769441 C1.78385093,14.4539627 1.90807453,14.1558261 2.13664596,13.9272547 L10.4645963,5.59930435 C10.8223602,5.24154037 11.3192547,5.0527205 11.826087,5.08750311 L19.2248447,5.57942857 C19.7167702,5.61421118 20.1440994,5.24154037 20.178882,4.74464596 C20.2136646,4.2527205 19.8409938,3.8253913 19.3440994,3.7906087 L11.9453416,3.29868323 C10.9267081,3.22911801 9.92298137,3.60675776 9.20248447,4.3322236 L0.874534161,12.6601739 C0.308074534,13.2266335 -2.82451771e-15,13.9769441 -2.82451771e-15,14.7769441 C-2.82451771e-15,15.5769441 0.313043478,16.3272547 0.874534161,16.8937143 L7.0757764,23.0949565 C7.65714286,23.676323 8.42732919,23.9694907 9.19254658,23.9694907 C9.95776398,23.9694907 10.7229814,23.676323 11.3093168,23.0949565 L19.6372671,14.7670062 C20.3627329,14.0415404 20.7403727,13.0378137 20.6708075,12.0142112 L20.4919255,9.40054658 C21.1180124,9.10240994 21.6993789,8.68998758 22.2161491,8.17818634 C23.2,7.1943354 23.8161491,5.94216149 23.9453416,4.65520497 C24.0795031,3.29868323 23.6670807,2.06638509 22.7875776,1.18191304 Z" id="Path"></path>
                            </g>
                        </g>
                    </g>
                </g>
            </g>
        </g>
    </g>
</svg>