<?xml version="1.0" encoding="UTF-8"?>
<svg width="27px" height="27px" viewBox="0 0 27 27" version="1.1" xmlns="http://www.w3.org/2000/svg" xmlns:xlink="http://www.w3.org/1999/xlink">
    <title>Group 17</title>
    <g id="Page-1" stroke="none" stroke-width="1" fill="none" fill-rule="evenodd">
        <g id="Group-17" transform="translate(-4.000000, -4.000000)">
            <rect id="Rectangle" x="0" y="0" width="35" height="35"></rect>
            <g id="Group-31" transform="translate(5.000000, 5.000000)" fill="#A775C8" fill-rule="nonzero">
                <g id="Group-11" transform="translate(12.500000, 12.500000) scale(-1, 1) translate(-12.500000, -12.500000) ">
                    <path d="M3.57545993,14.9993375 C3.76495489,14.9993375 3.94648196,14.9239947 4.08038533,14.7900552 C4.21428871,14.6561157 4.28961127,14.4745396 4.28961127,14.2849936 L4.28961127,11.4276177 L11.074049,11.4276177 L11.074049,22.1427772 L9.64574628,22.1427772 C9.25140722,22.1427772 8.93159495,22.4626757 8.93159495,22.8571212 C8.93159495,23.2515666 9.25140722,23.5714651 9.64574628,23.5714651 L20.0009407,23.5714651 C20.9476503,23.5702692 21.8552856,23.193567 22.5245984,22.5240838 C23.1939113,21.8546006 23.5705241,20.9467103 23.5716973,19.9997453 L23.5716973,12.8563056 C23.5716973,12.4618602 23.2518851,12.1419617 22.857546,12.1419617 C22.4632069,12.1419617 22.1433947,12.4618602 22.1433947,12.8563056 L22.1433947,19.9997453 C22.1427969,20.5680059 21.9168352,21.1125401 21.5151455,21.5143586 C21.1134558,21.9161771 20.569048,22.1422159 20.0009407,22.1427772 L15.358957,22.1427772 L15.358957,14.9993375 C15.358957,14.6048921 15.0391447,14.2849936 14.6448056,14.2849936 C14.2504666,14.2849936 13.9306543,14.6048921 13.9306543,14.9993375 L13.9306543,22.1427772 L12.5023516,22.1427772 L12.5023516,11.4276177 L22.857546,11.4276177 C23.4256534,11.4270198 23.9700407,11.2009972 24.3717509,10.7991991 C24.773461,10.397401 24.9994389,9.85284643 25,9.28458581 L25,7.14155391 C24.9994022,6.57329328 24.7734406,6.02875908 24.3717509,5.6269406 C23.9700611,5.22512212 23.4256534,4.99908328 22.857546,4.99852201 L18.3863465,4.99852201 C19.0052607,4.0726812 19.1007019,2.89238087 18.6386103,1.87923703 C18.1765237,0.865940111 17.2226522,0.164352286 16.1179621,0.0252082865 C15.013272,-0.113935713 13.9153153,0.32936064 13.2165183,1.19637522 C12.5177212,0.329365743 11.4197645,-0.113935713 10.3150744,0.0252082865 C9.21038433,0.164352286 8.2565332,0.865940111 7.79442627,1.87923703 C7.33233975,2.89232985 7.42778608,4.0726812 8.04669003,4.99852201 L3.57549054,4.99852201 C3.00738315,4.99911996 2.46299579,5.22514253 2.06128566,5.6269406 C1.65957554,6.02873867 1.43359765,6.57329328 1.43303653,7.14155391 L1.43303653,9.28458581 C1.43363433,9.72726476 1.57112279,10.1589938 1.82697771,10.5203498 C2.08262859,10.8817058 2.44410649,11.1549934 2.8613239,11.3026585 L2.8613239,14.2849936 C2.8613239,14.4745396 2.93664646,14.6561157 3.07054984,14.7900552 C3.20445321,14.9239947 3.38598028,14.9993375 3.57547524,14.9993375 L3.57545993,14.9993375 Z M13.9306543,6.42720994 L13.9306543,9.99892977 L12.5023516,9.99892977 L12.5023516,6.42720994 L13.9306543,6.42720994 Z M15.7160326,1.42680217 C16.1894742,1.42680217 16.6436132,1.61495527 16.9785502,1.94980401 C17.3133086,2.28485174 17.501411,2.73910307 17.501411,3.21266209 C17.501411,3.68622112 17.3133086,4.14049285 16.9785502,4.47552017 C16.6435928,4.81036891 16.189464,4.99852201 15.7160326,4.99852201 C15.2426013,4.99852201 14.7884521,4.81036891 14.4535151,4.47552017 C14.1187567,4.14047244 13.9306543,3.68622112 13.9306543,3.21266209 C13.9312521,2.73929186 14.1195524,2.28523952 14.4541272,1.9504163 C14.7888857,1.61576656 15.2428054,1.42741447 15.7160326,1.42680217 Z M8.93159495,3.21266209 C8.93159495,2.73909286 9.11969731,2.28483133 9.45445575,1.94980401 C9.78941313,1.61495527 10.243542,1.42680217 10.7169733,1.42680217 C11.1904046,1.42680217 11.6445539,1.61495527 11.9794908,1.94980401 C12.3142493,2.28485174 12.5023516,2.73910307 12.5023516,3.21266209 C12.5023516,3.68622112 12.3142493,4.14049285 11.9794908,4.47552017 C11.6445334,4.81036891 11.1904046,4.99852201 10.7169733,4.99852201 C10.2437307,4.99792405 9.78980081,4.80957293 9.45506788,4.47490788 C9.12050838,4.14005915 8.93220708,3.68601702 8.93159495,3.21266209 Z" id="Shape"></path>
                    <path d="M15.358957,12.8563056 C15.358957,13.2507511 15.0391447,13.5706496 14.6448056,13.5706496 C14.2504666,13.5706496 13.9306543,13.2507511 13.9306543,12.8563056 C13.9306543,12.4618602 14.2504666,12.1419617 14.6448056,12.1419617 C15.0391447,12.1419617 15.358957,12.4618602 15.358957,12.8563056" id="Path"></path>
                    <path d="M3.7182902,24.4399033 C4.05105412,24.7970753 4.51711948,25 5.00529293,25 C5.49346638,25 5.95955214,24.7970957 6.29229566,24.4399033 L9.00902936,21.509001 C9.73134242,20.7912894 10.0906116,19.7855442 9.9870086,18.7724003 C9.89455151,17.9791213 9.53050266,17.2424796 8.95704934,16.6869752 C8.38359602,16.1314707 7.63556331,15.791443 6.84010074,15.7247028 C6.20766872,15.6734792 5.57319627,15.7952596 5.00473181,16.0770887 C4.21105462,15.6874294 3.30046066,15.6086985 2.45179382,15.8568462 C1.32675041,16.1841229 0.449823579,17.0678634 0.130801976,18.1956084 C-0.0353810401,18.7727983 -0.0433540297,19.3841237 0.107687958,19.9653445 C0.258924806,20.5467695 0.563597069,21.0767107 0.989817889,21.4996533 L3.7182902,24.4399033 Z" id="Shape"></path>
                </g>
            </g>
        </g>
    </g>
</svg>