<?xml version="1.0" encoding="UTF-8"?>
<svg width="50px" height="50px" viewBox="0 0 50 50" version="1.1" xmlns="http://www.w3.org/2000/svg" xmlns:xlink="http://www.w3.org/1999/xlink">
    <title>Group 26</title>
    <defs>
        <circle id="path-1" cx="25" cy="25" r="25"></circle>
    </defs>
    <g id="Page-1" stroke="none" stroke-width="1" fill="none" fill-rule="evenodd">
        <g id="LL21---Home" transform="translate(-42.000000, -1100.000000)">
            <g id="Group-6" transform="translate(0.000000, 988.000000)">
                <g id="Group-12" transform="translate(16.000000, 16.000000)">
                    <g id="Group-11-Copy-3" transform="translate(0.000000, 96.000000)">
                        <g id="Group-26" transform="translate(26.000000, 0.000000)">
                            <g id="Group-13">
                                <mask id="mask-2" fill="white">
                                    <use xlink:href="#path-1"></use>
                                </mask>
                                <use id="Oval" fill="#8B7FBF" xlink:href="#path-1"></use>
                                <circle id="Oval" fill="#7365B0" mask="url(#mask-2)" cx="44.5" cy="14.5" r="24.5"></circle>
                            </g>
                            <g id="promotions" transform="translate(14.000000, 14.000000)" fill="#FFFFFF" fill-rule="nonzero">
                                <path d="M19.9909531,11.3652773 C19.8465781,11.1433867 19.8465781,10.8567852 19.9909531,10.6348945 L20.7943828,9.39997266 C21.5262266,8.27513672 21.0331172,6.76392578 19.7822969,6.285125 L18.4064375,5.75832812 C18.1592383,5.663625 17.9906719,5.43172266 17.9770938,5.16733594 L17.9012539,3.69608594 C17.8321602,2.35614844 16.5450313,1.42295312 15.2515,1.771 L13.8288477,2.15350781 C13.5732695,2.22217187 13.3005469,2.13361328 13.1341719,1.92775 L12.2079805,0.781988281 C11.3644609,-0.261464844 9.774875,-0.259789063 8.93277344,0.781988281 L8.00653906,1.92779297 C7.84016406,2.13369922 7.56752734,2.22217187 7.31186328,2.15355078 L5.889125,1.77104297 C4.59305859,1.42248047 3.30829297,2.35876953 3.23937109,3.69612891 L3.16353125,5.16737891 C3.14986719,5.43172266 2.98138672,5.66366797 2.7341875,5.75832812 L1.35841406,6.285125 C0.104972656,6.76491406 -0.384183594,8.27737109 0.346242188,9.40001562 L1.14971484,10.6348945 C1.29404688,10.8567422 1.29404688,11.1434297 1.14971484,11.3652773 L0.346371094,12.6001562 C-0.385558594,13.7251211 0.107722656,15.236375 1.35845703,15.7150469 L2.73431641,16.2418438 C2.98151563,16.3365469 3.15003906,16.5684492 3.16366016,16.8328359 L3.2395,18.3040859 C3.30859375,19.6442813 4.5959375,20.5770898 5.88925391,20.2291719 L7.31190625,19.8466641 C7.56761328,19.7780859 7.84020703,19.8665586 8.006625,20.0724219 L8.93281641,21.2181406 C9.77650781,22.2618945 11.3660508,22.2597461 12.2080234,21.2181406 L13.1342148,20.0724219 C13.3005898,19.8666016 13.5733984,19.7781289 13.8288906,19.8466641 L15.2516289,20.2291719 C16.5473516,20.5778633 17.832418,19.6416172 17.9013828,18.3040859 L17.9772227,16.8328359 C17.9908867,16.5684922 18.1593672,16.3365469 18.4065664,16.2418867 L19.7823398,15.7150898 C21.0356953,15.2353008 21.5248945,13.7228867 20.7945547,12.6001563 L19.9909531,11.3652773 Z M19.2688203,14.3739492 L17.8929609,14.9007461 C17.1156992,15.1983477 16.5858086,15.9276992 16.5429688,16.7588438 L16.4671289,18.2300938 C16.4451719,18.6563867 16.0358945,18.9528711 15.6244258,18.8423555 L14.2016875,18.4598477 C13.397957,18.2436289 12.5404727,18.5223672 12.0173281,19.1696055 L11.0912227,20.3153242 C10.8228828,20.6472578 10.3173984,20.6465703 10.0495742,20.3153242 L9.12346875,19.1696055 C8.71792969,18.6679023 8.11155469,18.3876602 7.48498438,18.3876602 C7.30326953,18.3876602 7.11979297,18.411207 6.93902344,18.4598477 L5.51628516,18.8423555 C5.10395703,18.953043 4.69558203,18.6555273 4.67358203,18.2300938 L4.59774219,16.7588438 C4.55490234,15.9276992 4.02496875,15.1983047 3.24775,14.9007461 L1.87189063,14.3739063 C1.47326953,14.2212813 1.31776563,13.740375 1.55005469,13.3833477 L2.35348438,12.1484687 C2.80736328,11.4508281 2.80736328,10.5492578 2.35348438,9.85170313 L1.55005469,8.61682422 C1.31725,8.25906641 1.47408594,7.77854687 1.87193359,7.62622266 L3.24779297,7.09942578 C4.02505469,6.80182422 4.55494531,6.07247266 4.59778516,5.24132812 L4.673625,3.77007812 C4.69558203,3.34378516 5.10485938,3.04730078 5.51632813,3.15781641 L6.93906641,3.54032422 C7.74279688,3.7565 8.60023828,3.47780469 9.12342578,2.83056641 L10.0496172,1.68480469 C10.317957,1.35291406 10.8234844,1.35360156 11.0912227,1.68480469 L12.0174141,2.83060937 C12.5406875,3.47784766 13.397957,3.75654297 14.2017734,3.54032422 L15.6245117,3.15781641 C16.0367969,3.04708594 16.4452148,3.34464453 16.4672148,3.77007812 L16.5429688,5.24132812 C16.5858086,6.07247266 17.1157422,6.80186719 17.8929609,7.09942578 L19.2688633,7.62626562 C19.6674414,7.77880469 19.8229453,8.25979687 19.5906992,8.61682422 L18.7873125,9.85166016 C18.3333477,10.5492578 18.3333477,11.4508281 18.7872695,12.1484687 L19.5906992,13.3833047 C19.823418,13.7411484 19.666668,14.221625 19.2688203,14.3739492 Z" id="Shape"></path>
                                <path d="M14.1575586,7.34099609 C13.8771875,7.060625 13.4225352,7.060625 13.1421211,7.34099609 L6.44045703,14.0426602 C6.16008594,14.3230312 6.16008594,14.7776836 6.4405,15.0580977 C6.58070703,15.1983047 6.76448437,15.2684297 6.94821875,15.2684297 C7.13195313,15.2684297 7.31577344,15.1983047 7.4559375,15.0580977 L14.1576016,8.35639062 C14.4380156,8.0760625 14.4380156,7.62141016 14.1575586,7.34099609 Z" id="Path"></path>
                                <path d="M7.66622656,7.13066406 C6.87435547,7.13066406 6.23016797,7.77489453 6.23016797,8.56672266 C6.23016797,9.35859375 6.87444141,10.0027812 7.66622656,10.0027812 C8.45809766,10.0027812 9.10228516,9.35855078 9.10228516,8.56672266 C9.10232813,7.77489453 8.45809766,7.13066406 7.66622656,7.13066406 Z" id="Path"></path>
                                <path d="M12.931832,12.3962695 C12.1399609,12.3962695 11.4957734,13.0405 11.4957734,13.8323281 C11.4957734,14.6241992 12.1400039,15.2683867 12.931832,15.2683867 C13.7236602,15.2683867 14.3678906,14.6241563 14.3678906,13.8323281 C14.3679336,13.0405 13.7237031,12.3962695 12.931832,12.3962695 Z" id="Path"></path>
                            </g>
                        </g>
                    </g>
                </g>
            </g>
        </g>
    </g>
</svg>