<?xml version="1.0" encoding="UTF-8"?>
<svg width="25px" height="31px" viewBox="0 0 25 31" version="1.1" xmlns="http://www.w3.org/2000/svg" xmlns:xlink="http://www.w3.org/1999/xlink">
    <!-- Generator: Sketch 64 (93537) - https://sketch.com -->
    <title>Group 8</title>
    <desc>Created with Sketch.</desc>
    <defs>
        <polygon id="path-1" points="0 0.01491875 19.3350577 0.01491875 19.3350577 6.55769231 0 6.55769231"></polygon>
    </defs>
    <g id="Page-1" stroke="none" stroke-width="1" fill="none" fill-rule="evenodd">
        <g id="Group-8">
            <path d="M21.17765,12.3066125 L20.5138327,11.1020837 C20.9420202,10.8660067 21.3348856,10.5707615 21.6814,10.2240981 C22.6604337,9.24506442 23.1996548,7.9433625 23.1996548,6.55879519 C23.1996548,3.70068462 20.8743567,1.37538654 18.0162462,1.37538654 C15.1581356,1.37538654 12.8328375,3.70068462 12.8328375,6.55879519 C12.8328375,7.70654038 13.2002173,8.79377596 13.8950346,9.70305962 L12.8022846,10.5381221 C11.9225106,9.38694904 11.4575106,8.01087692 11.4575106,6.55879519 C11.4575106,2.94222788 14.3996788,5.96153846e-05 18.0162462,5.96153846e-05 C21.6328135,5.96153846e-05 24.5749817,2.94222788 24.5749817,6.55879519 C24.5749817,8.31074231 23.8928327,9.95776635 22.654025,11.196574 C22.216001,11.6345981 21.7192558,12.0082375 21.17765,12.3066125" id="Fill-1" fill="#A179C5"></path>
            <g id="Group-5" transform="translate(0.000000, 24.368832)">
                <mask id="mask-2" fill="white">
                    <use xlink:href="#path-1"></use>
                </mask>
                <g id="Clip-4"></g>
                <path d="M0,0.01491875 L0,5.8125149 C0,6.2240101 0.333697115,6.55770721 0.745192308,6.55770721 L18.5898654,6.55770721 C19.0015096,6.55770721 19.3350577,6.2240101 19.3350577,5.8125149 L19.3350577,0.01491875 L0,0.01491875 Z" id="Fill-3" fill="#A179C5" mask="url(#mask-2)"></path>
            </g>
            <path d="M12.749987,8.0406101 C13.7546553,8.0406101 14.5721312,8.85793702 14.5721312,9.86260529 C14.5721312,10.8672736 13.7546553,11.6847495 12.749987,11.6847495 C11.7453188,11.6847495 10.9278428,10.8672736 10.9278428,9.86260529 C10.9278428,8.85793702 11.7453188,8.0406101 12.749987,8.0406101 L12.749987,8.0406101 Z M19.3351024,22.8800716 L19.3351024,4.2062976 C19.3351024,3.7948024 19.0014053,3.46110529 18.5899101,3.46110529 L3.42792933,3.46110529 C1.53782356,3.46110529 4.47115385e-05,4.99888413 4.47115385e-05,6.8889899 L4.47115385e-05,22.8800716 L19.3351024,22.8800716 Z" id="Fill-6" fill="#A179C5"></path>
        </g>
    </g>
</svg>