<?xml version="1.0" encoding="UTF-8"?>
<svg width="24px" height="24px" viewBox="0 0 24 24" version="1.1" xmlns="http://www.w3.org/2000/svg" xmlns:xlink="http://www.w3.org/1999/xlink">
    <title>Group 17</title>
    <g id="Page-1" stroke="none" stroke-width="1" fill="none" fill-rule="evenodd">
        <g id="Group-17">
            <rect id="Rectangle" x="0" y="0" width="24" height="24"></rect>
            <g id="gift-card-(1)" transform="translate(1.440000, 4.800000)" fill="#A775C8" fill-rule="nonzero">
                <path d="M11.0250525,6 C10.7466563,6.79972 10.007415,7.28556 9.19425375,7.28556 C9.0640275,7.28556 8.9363175,7.25588 8.80836,7.23048 L9.79609125,8.6672 C9.98584125,8.94316 9.909075,9.31524 9.62449125,9.49924 C9.33537,9.68504 8.95310625,9.60472 8.76645,9.33284 L7.425,7.38164 L7.425,14.4 L19.26375,14.4 C20.2873275,14.4 21.12,13.59256 21.12,12.6 L21.12,6 L11.0250525,6 Z M18.02625,12 L12.99375,12 C12.6517463,12 12.375,11.73164 12.375,11.4 C12.375,11.06836 12.6517463,10.8 12.99375,10.8 L18.02625,10.8 C18.3682538,10.8 18.645,11.06836 18.645,11.4 C18.645,11.73164 18.3682538,12 18.02625,12 Z M18.02625,9.6 L12.99375,9.6 C12.6517463,9.6 12.375,9.33164 12.375,9 C12.375,8.66836 12.6517463,8.4 12.99375,8.4 L18.02625,8.4 C18.3682538,8.4 18.645,8.66836 18.645,9 C18.645,9.33164 18.3682538,9.6 18.02625,9.6 Z" id="Shape"></path>
                <path d="M8.80328625,4.82988 L7.92169125,5.4 L8.80328625,5.97012 C9.27262875,6.27348 9.9,5.94756 9.9,5.4006 C9.9,4.8512 9.27081375,4.52764 8.80328625,4.82988 Z" id="Path"></path>
                <path d="M1.85625,0 C0.8326725,0 0,0.80744 0,1.8 L0,4.8 L2.5874475,4.8 C3.00597,3.59788 4.445595,3.15328 5.49561375,3.83144 L6.1875,4.2788 L6.1875,0 L1.85625,0 Z" id="Path"></path>
                <path d="M19.26375,0 L7.425,0 L7.425,4.2788 L8.116845,3.83144 C9.1557675,3.1584 10.6039313,3.589 11.0253,4.8 L21.12,4.8 L21.12,1.8 C21.12,0.80744 20.2873275,0 19.26375,0 Z" id="Path"></path>
                <path d="M4.80921375,4.82988 C4.33917,4.526 3.7125,4.85392 3.7125,5.3994 C3.7125,5.94652 4.3376025,6.27448 4.80921375,5.97012 L5.69080875,5.4 L4.80921375,4.82988 Z" id="Path"></path>
                <path d="M4.84605,9.3328 C4.6563,9.6076 4.27263375,9.68084 3.98800875,9.4992 C3.703425,9.3152 3.62665875,8.94316 3.81640875,8.66716 L4.80414,7.23044 C4.6761825,7.25584 4.5484725,7.28552 4.41824625,7.28552 C3.603105,7.28552 2.86473,6.79772 2.58715875,5.99996 L0,5.99996 L0,12.6 C0,13.59256 0.8326725,14.4 1.85625,14.4 L6.1875,14.4 L6.1875,7.38164 L4.84605,9.3328 Z" id="Path"></path>
            </g>
        </g>
    </g>
</svg>