<?xml version="1.0" encoding="UTF-8"?>
<svg width="81px" height="100px" viewBox="0 0 81 100" version="1.1" xmlns="http://www.w3.org/2000/svg" xmlns:xlink="http://www.w3.org/1999/xlink">
    <title>maternity (1)</title>
    <g id="Page-1" stroke="none" stroke-width="1" fill="none" fill-rule="evenodd">
        <g id="LL21---Homepage-Copy-6" transform="translate(-140.000000, -390.000000)" fill-rule="nonzero">
            <g id="Group-22" transform="translate(0.000000, 285.000000)">
                <g id="maternity-(1)" transform="translate(140.000000, 105.000000)">
                    <path d="M15.9044834,34.6777778 C11.320078,25.22846 12.1534113,14.5282651 18.880117,7.80136452 C27.8048733,-1.12339181 43.7237817,0.325925926 54.4362573,11.0384016 C64.5959064,21.1980507 66.4235867,36.0409357 58.9719298,45.1588694 L15.9044834,34.6777778 Z" id="XMLID_1883_" fill="#EF6354"></path>
                    <path d="M45.4832359,41.6220273 L16.2463938,39.160039 C6.63294347,54.9524366 6.50662768,73.2265107 17.2194932,83.9393762 C19.8730994,86.5929825 22.9908382,88.5808967 26.4196881,89.9249513 C26.1341131,93.0668616 28.1896686,96.1684211 31.5493177,96.8670565 C34.6559454,97.5130604 37.9251462,97.8576998 41.3001949,97.8576998 C61.7253411,97.8576998 78.2832359,85.2290448 78.2832359,69.6506823 C78.2832359,55.1510721 63.9389864,43.2066277 45.4832359,41.6220273 Z" id="XMLID_1882_" fill="#8B7FBF"></path>
                    <path d="M27.2705653,87.2606238 C25.057115,91.0844055 27.2235867,95.9676413 31.5493177,96.8670565 C33.0734893,97.1840156 34.637232,97.4272904 36.2329435,97.594152 L38.1493177,84.845614 L38.1440546,84.8419103 C36.8592593,84.7064327 35.6087719,84.4925926 34.4046784,84.2015595 C31.6120858,83.5265107 28.7097466,84.774269 27.2705653,87.2606238 L27.2705653,87.2606238 Z" id="Path" fill="#FCF2F2"></path>
                    <path d="M38.7561404,61.9775828 L42.3417154,60.5730994 C46.6506823,58.8851852 50.2578947,55.7218324 52.3385965,51.5881092 C53.5791423,49.1235867 54.2348928,46.4645224 54.2517511,43.7095517 C54.2526316,43.5678363 54.2460039,43.4272904 54.2333333,43.2881092 L54.2037037,43.2076023 C54.2109162,43.2097466 54.2181287,43.2118908 54.2255361,43.2140351 C53.9888889,41.020078 52.1179337,39.1927875 49.8775828,39.1597541 C47.3949318,39.1241715 45.3711501,41.125731 45.3711501,43.6001949 C45.3711501,49.1132554 39.8639376,53.9389864 32.4619883,55.6220273 C28.4107212,56.5432749 23.5050682,58.0315789 19.6120858,59.465692 L19.611501,59.4625731 C18.1294347,60.0637427 16.5103314,60.3978558 14.8124756,60.3978558 C12.8384016,60.3978558 10.9690058,59.9495127 9.3,59.1500975 C8.35380117,68.6697856 10.9001949,77.619883 17.2192982,83.9389864 C19.8729045,86.5925926 22.9906433,88.5805068 26.4194932,89.9245614 C26.5015595,89.0210526 26.7760234,88.11423 27.2703704,87.2602339 C28.7095517,84.7738791 31.6118908,83.5261209 34.4042885,84.2011696 C36.5750487,84.7259259 38.8927875,85.0095517 41.2998051,85.0095517 C44.711501,85.0095517 47.9432749,84.4389864 50.8319688,83.4204678 L50.1916179,82.4130604 C50.1916179,76.402924 45.6923977,71.4434698 39.8783626,70.7192982 C38.8658869,70.5931774 37.9212476,70.142885 37.1998051,69.4214425 C34.8836257,67.1050682 35.7054581,63.1727096 38.7561404,61.9775828 L38.7561404,61.9775828 Z" id="XMLID_1829_" fill="#D7CDF5"></path>
                    <path d="M22.7795322,35.6302144 L23.3705653,35.0403509 C26.6534113,31.7633528 27.9403509,26.9847953 26.7471735,22.5023392 L31.377193,22.5023392 C32.8046784,22.5023392 34.208577,22.1389864 35.4567251,21.4463938 C38.7380117,19.625731 42.82846,20.1998051 45.4818713,22.8532164 L46.0120858,23.3834308 C50.9107212,28.2820663 50.9107212,36.2243665 46.0120858,41.1230019 C41.1134503,46.0216374 33.1711501,46.0216374 28.2725146,41.1230019 L22.7795322,35.6302144 Z" id="Path" fill="#FCF2F2"></path>
                    <circle id="Oval" fill="#FCF2F2" cx="14.8124756" cy="47.6216374" r="12.7766082"></circle>
                    <circle id="Oval" fill="#FCF2F2" cx="12.5499025" cy="78.9643275" r="6.41773879"></circle>
                    <path d="M38.4072125,32.505848 C37.3307992,32.505848 36.4578947,33.3787524 36.4578947,34.4551657 C36.4578947,34.6762183 36.2781676,34.8559454 36.057115,34.8559454 C34.9807018,34.8559454 34.1077973,35.7288499 34.1077973,36.8052632 C34.1077973,37.8816764 34.9807018,38.7545809 36.057115,38.7545809 C38.4276803,38.7545809 40.3565302,36.825731 40.3565302,34.4551657 C40.3565302,33.3787524 39.4838207,32.505848 38.4072125,32.505848 Z" id="XMLID_46_" fill="#000000"></path>
                    <g id="XMLID_80_" fill="#000000">
                        <path d="M77.3079922,76.3871345 C76.3130604,75.9732943 75.1729045,76.4446394 74.7596491,77.4385965 C70.1658869,88.4861598 56.7194932,95.908577 41.3001949,95.908577 C40.3580897,95.908577 39.4192982,95.8769981 38.4844055,95.8210526 L39.8805068,86.9247563 C40.3522417,86.9454191 40.8253411,86.9592593 41.3001949,86.9592593 C47.651462,86.9592593 53.6444444,85.1095517 58.1752437,81.7508772 C62.8810916,78.2623782 65.4727096,73.5693957 65.4727096,68.5362573 C65.4727096,67.4598441 64.5998051,66.5869396 63.5233918,66.5869396 C62.4469786,66.5869396 61.5740741,67.4598441 61.5740741,68.5362573 C61.5740741,73.7185185 57.7653021,78.2746589 52.0487329,80.845809 C51.3364522,74.6307992 46.448538,69.5738791 40.120078,68.7851852 C39.5311891,68.7120858 38.9842105,68.448538 38.5789474,68.0432749 C37.9487329,67.4128655 37.6916179,66.5508772 37.8740741,65.6779727 C38.0565302,64.8050682 38.637232,64.1179337 39.4676413,63.7927875 L43.0530214,62.3883041 C47.8982456,60.4902534 51.814425,56.9660819 54.079922,52.4647173 C55.1426901,50.3534113 55.8087719,48.1350877 56.0719298,45.8469786 C64.8777778,48.939961 71.748538,54.754191 74.7037037,61.7292398 C75.0185185,62.4723197 75.7401559,62.9187135 76.4996101,62.9187135 C76.7532164,62.9187135 77.0109162,62.8688109 77.2590643,62.7637427 C78.2502924,62.3436647 78.7134503,61.1996101 78.2935673,60.2083821 C76.4633528,55.8892788 73.3247563,51.8783626 69.2165692,48.6093567 C67.0818713,46.9107212 64.6773879,45.4103314 62.0865497,44.1430799 C64.9272904,39.5604288 66.0327485,33.9072125 65.2070175,27.9795322 C64.2750487,21.2906433 60.9393762,14.7846004 55.8148148,9.66003899 C50.3118908,4.15730994 43.3335283,0.767251462 36.1645224,0.114619883 C28.8631579,-0.550097466 22.2345029,1.69005848 17.5017544,6.42280702 C10.922807,13.0017544 9.29025341,23.205653 13.0588694,33.0035088 C5.76315789,33.8736842 0.0865497076,40.0953216 0.0865497076,47.6216374 C0.0865497076,52.9791423 2.96335283,57.6762183 7.25243665,60.2530214 C6.97641326,64.2959064 7.30838207,68.1666667 8.2417154,71.7945419 C5.81150097,73.2602339 4.18265107,75.9255361 4.18265107,78.9643275 C4.18265107,83.5779727 7.93606238,87.331384 12.5497076,87.331384 C14.0832359,87.331384 15.5204678,86.9148148 16.7575049,86.1918129 C19.0247563,88.2649123 21.6099415,89.9512671 24.4699805,91.2216374 C24.5504873,92.1526316 24.785575,93.0791423 25.1832359,93.9684211 C26.3007797,96.4670565 28.4764133,98.2194932 31.1522417,98.7758285 C34.4440546,99.4602339 37.8580897,99.8072125 41.2998051,99.8072125 C49.6491228,99.8072125 57.6054581,97.797271 64.3091618,93.9953216 C70.9766082,90.2136452 75.8348928,85.0060429 78.3590643,78.9356725 C78.7727096,77.9413255 78.3019493,76.8003899 77.3079922,76.3871345 Z M20.2586745,9.1797271 C24.1586745,5.2797271 29.6818713,3.44035088 35.8111111,3.99707602 C42.0736842,4.56725146 48.1986355,7.55730994 53.0578947,12.4165692 C61.9664717,21.3247563 64.1660819,34.0448343 58.462768,42.5709552 C57.6116959,42.2465887 56.7463938,41.945809 55.8684211,41.67154 C55.105653,39.4046784 53.1077973,37.6465887 50.7302144,37.2820663 C52.6249513,32.1384016 51.514425,26.128655 47.3908382,22.0048733 L46.8604288,21.4744639 C43.6091618,18.2235867 38.5309942,17.5111111 34.5107212,19.7415205 C33.5545809,20.2723197 32.4709552,20.5526316 31.377193,20.5526316 L26.7471735,20.5526316 C26.1417154,20.5526316 25.5705653,20.8339181 25.2015595,21.3140351 C24.8325536,21.794152 24.7076023,22.4183236 24.8635478,23.0033138 C25.8744639,26.8005848 24.7748538,30.8842105 21.9935673,33.6602339 C21.9935673,33.6602339 21.314425,34.3426901 21.2738791,34.3918129 C20.0444444,33.7888889 18.7187135,33.3547758 17.3270955,33.11423 C13.3424951,24.3031189 14.4602339,14.9779727 20.2586745,9.1797271 L20.2586745,9.1797271 Z M29.1695906,44.3582846 C31.5783626,45.945614 34.3602339,46.7395712 37.1421053,46.7395712 C39.1951267,46.7395712 41.2473684,46.3052632 43.1502924,45.4407407 C42.0666667,49.1481481 37.7976608,52.4099415 32.0300195,53.7216374 C30.6658869,54.0317739 29.1746589,54.4146199 27.6385965,54.8438596 C28.8460039,52.7081871 29.5387914,50.2450292 29.5387914,47.6216374 C29.5385965,46.5 29.4083821,45.4087719 29.1695906,44.3582846 L29.1695906,44.3582846 Z M29.6506823,39.7446394 L25.5077973,35.6017544 C28.1633528,32.5181287 29.4387914,28.4707602 29.0668616,24.4516569 L31.3769981,24.4516569 C33.1309942,24.4516569 34.868616,24.0017544 36.4023392,23.1508772 C38.9091618,21.7594542 42.0760234,22.2042885 44.1033138,24.2315789 L44.6337232,24.7619883 C46.6348928,26.762963 47.7368421,29.4233918 47.7368421,32.2534113 C47.7368421,35.0834308 46.6348928,37.7438596 44.6337232,39.7448343 C40.5031189,43.8756335 33.7816764,43.8756335 29.6506823,39.7446394 L29.6506823,39.7446394 Z M3.98518519,47.6216374 C3.98518519,41.6512671 8.84230019,36.794152 14.8124756,36.794152 C20.7122807,36.794152 25.5216374,41.5378168 25.6346979,47.4109162 C25.3962963,47.8643275 24.862963,48.1035088 24.3538012,47.954386 C23.3204678,47.6530214 22.2380117,48.2450292 21.9356725,49.2783626 C21.6335283,50.3116959 22.2263158,51.394152 23.2596491,51.6964912 C23.7245614,51.8321637 24.1980507,51.8996101 24.6690058,51.8996101 C24.6988304,51.8996101 24.728655,51.897271 24.7584795,51.8968811 C23.097271,55.7467836 19.2651072,58.4489279 14.8126706,58.4489279 C8.84230019,58.4489279 3.98518519,53.5918129 3.98518519,47.6216374 Z M12.5499025,83.4327485 C10.0859649,83.4327485 8.08148148,81.4282651 8.08148148,78.9643275 C8.08148148,76.5001949 10.0859649,74.4957115 12.5499025,74.4957115 C15.0138402,74.4957115 17.0183236,76.5001949 17.0183236,78.9643275 C17.0183236,81.4282651 15.0136452,83.4327485 12.5499025,83.4327485 L12.5499025,83.4327485 Z M25.5834308,86.2840156 C25.4068226,86.5890838 25.2512671,86.9013645 25.1153996,87.2187135 C23.0910331,86.219883 21.2385965,84.9727096 19.5816764,83.4902534 C20.4251462,82.1844055 20.9169591,80.6311891 20.9169591,78.9643275 C20.9169591,74.3506823 17.1635478,70.597076 12.5499025,70.597076 C12.3528265,70.597076 12.1578947,70.6064327 11.9639376,70.619883 C11.2746589,67.8575049 10.977193,64.9259259 11.0734893,61.8651072 C12.2680312,62.1789474 13.5208577,62.3475634 14.8124756,62.3475634 C16.7035088,62.3475634 18.5103314,61.9853801 20.1729045,61.3331384 C24.1553606,59.8662768 29.0820663,58.3898635 32.894347,57.5231969 C36.8483431,56.6241715 40.4401559,54.8350877 43.0079922,52.4859649 C45.8294347,49.9052632 47.3204678,46.8325536 47.3204678,43.6005848 C47.3204678,42.9282651 47.5842105,42.2978558 48.0631579,41.8259259 C48.5417154,41.354191 49.1672515,41.1033138 49.8493177,41.1094381 C51.1645224,41.128655 52.3107212,42.3380117 52.3023849,43.6976608 C52.2875244,46.1337232 51.7138402,48.4935673 50.597271,50.711501 C48.7643275,54.3534113 45.579922,57.2109162 41.6306043,58.7576998 L38.0452242,60.1621832 C35.9980507,60.9641326 34.5072125,62.7278752 34.0575049,64.880117 C33.6076023,67.0321637 34.2674464,69.2452242 35.8218324,70.7994152 C36.8374269,71.8150097 38.1925926,72.4734893 39.6380117,72.6534113 C44.4674464,73.2551657 48.1251462,77.3317739 48.2374269,82.1838207 C46.0721248,82.7504873 43.7356725,83.060039 41.3,83.060039 C39.0978558,83.060039 36.9319688,82.8064327 34.8625731,82.3064327 C31.2592593,81.4358674 27.4432749,83.0711501 25.5834308,86.2840156 L25.5834308,86.2840156 Z M34.6003899,95.4235867 C33.7076023,95.2935673 32.8216374,95.1405458 31.9461988,94.9586745 C30.5105263,94.6602339 29.3430799,93.7192982 28.7424951,92.3768031 C28.1382066,91.025731 28.2167641,89.5169591 28.9575049,88.2374269 C29.9582846,86.508577 32.0095517,85.6288499 33.9467836,86.0964912 C34.6224172,86.2598441 35.3074074,86.3974659 35.9986355,86.5146199 L34.6003899,95.4235867 Z" id="XMLID_1818_"></path>
                        <path d="" id="XMLID_1867_"></path>
                    </g>
                    <path d="M78.2729045,67.7013645 C77.1964912,67.7013645 76.3235867,68.574269 76.3235867,69.6506823 C76.3235867,70.7270955 77.1964912,71.6 78.2729045,71.6 L78.2832359,71.6 C79.3596491,71.6 80.2274854,70.7270955 80.2274854,69.6506823 C80.2274854,68.574269 79.3493177,67.7013645 78.2729045,67.7013645 Z" id="XMLID_1869_" fill="#000000"></path>
                </g>
            </g>
        </g>
    </g>
</svg>