<?xml version="1.0" encoding="UTF-8"?>
<svg width="30px" height="42px" viewBox="0 0 30 42" version="1.1" xmlns="http://www.w3.org/2000/svg" xmlns:xlink="http://www.w3.org/1999/xlink">
    <!-- Generator: Sketch 64 (93537) - https://sketch.com -->
    <title>Group 38</title>
    <desc>Created with Sketch.</desc>
    <defs>
        <polygon id="path-1" points="0 0.0158226371 14.6193957 0.0158226371 14.6193957 21.0783857 0 21.0783857"></polygon>
    </defs>
    <g id="Page-1" stroke="none" stroke-width="1" fill="none" fill-rule="evenodd">
        <g id="Group-38">
            <path d="M23.2420429,38.9237286 L18.3363286,40.2423 C17.2149,40.5437286 16.0620429,39.8794429 15.7606143,38.7580143 C15.6277571,38.2651571 15.6820429,37.7637286 15.8806143,37.3337286 C16.1334714,36.7865857 16.6177571,36.3508714 17.2449,36.1823 L22.1506143,34.8637286 C24.2149,34.3094429 25.4420429,32.1794429 24.8877571,30.1151571 L23.3157571,24.2161571 C23.1920429,23.7517286 23.1259,23.2738714 23.1189,22.7934429 L23.0663286,19.1880143 C23.8449,19.6980143 24.6203286,20.2423 25.2034714,20.9608714 C27.7947571,24.1538714 28.9477571,29.0237286 28.9477571,29.0237286 C30.1034714,33.3265857 27.5449,37.7680143 23.2420429,38.9237286" id="Fill-1" fill="#FFEBDE"></path>
            <path d="M23.8011429,20.5848 L23.8331429,22.7830857 C23.8392857,23.2045143 23.8974286,23.6248 24.006,24.0320857 L25.578,29.9312286 C26.234,32.3745143 24.7798571,34.8973714 22.3358571,35.5536571 L17.4302857,36.8720857 C17.0315714,36.9792286 16.703,37.2568 16.5288571,37.6335143 C16.3938571,37.9258 16.3658571,38.2592286 16.4502857,38.5722286 C16.6491429,39.3115143 17.412,39.7510857 18.1508571,39.5525143 L23.0565714,38.2339429 L23.0567143,38.2339429 C26.9782857,37.1805143 29.3115714,33.1319429 28.2578571,29.2089429 C28.2561429,29.2022286 28.2544286,29.1952286 28.2527143,29.1885143 C28.2415714,29.1413714 27.1035714,24.4356571 24.6488571,21.4109429 C24.4024286,21.1072286 24.1121429,20.8353714 23.8011429,20.5848 M17.7912857,41.0289429 C16.5485714,41.0289429 15.4082857,40.1992286 15.0708571,38.9433714 C14.8995714,38.3083714 14.9568571,37.6302286 15.2321429,37.0343714 C15.5844286,36.2718 16.2505714,35.7098 17.0595714,35.4925143 L21.9651429,34.1739429 C23.6485714,33.7219429 24.65,31.9842286 24.1978571,30.3003714 L22.6255714,24.4000857 C22.4868571,23.8793714 22.4125714,23.3423714 22.4048571,22.8038 L22.3521429,19.1983714 C22.3482857,18.9342286 22.4905714,18.6893714 22.7221429,18.5620857 C22.9535714,18.4348 23.2365714,18.4456571 23.4578571,18.5905143 C24.2242857,19.0926571 25.0972857,19.6966571 25.7581429,20.5106571 C28.3861429,23.7488 29.5625714,28.5242286 29.6402857,28.8485143 C30.8914286,33.5289429 28.1062857,38.3568 23.4272857,39.6135143 L18.5217143,40.9320857 C18.2778571,40.9976571 18.0325714,41.0289429 17.7912857,41.0289429" id="Fill-3" fill="#A179C5"></path>
            <path d="M13.9050857,37.0577 L13.8365143,37.0762714 L13.3236571,37.2162714 L8.04937143,38.6548429 C7.94794286,38.6834143 7.84508571,38.7062714 7.74365714,38.7277 C7.69222857,38.7377 7.64222857,38.7477 7.5908,38.7562714 C7.43794286,38.7819857 7.28508571,38.8005571 7.13222857,38.8105571 C6.9708,38.8219857 6.8108,38.8248429 6.6508,38.8177 C6.59794286,38.8162714 6.54365714,38.8119857 6.4908,38.8077 C6.47937143,38.8062714 6.46651429,38.8062714 6.45508571,38.8048429 C6.41222857,38.8019857 6.36937143,38.7977 6.32651429,38.7934143 C6.30365714,38.7919857 6.28222857,38.7891286 6.2608,38.7862714 C6.25222857,38.7862714 6.24222857,38.7848429 6.23365714,38.7834143 C6.23222857,38.7834143 6.2308,38.7834143 6.22937143,38.7819857 C4.86222857,38.3262714 3.6908,37.5305571 2.78365714,36.5162714 C1.02365714,34.5477 0.257942857,31.7577 0.992228571,29.0234143 C0.992228571,29.0234143 2.14508571,24.1534143 4.73651429,20.9605571 C5.31937143,20.2419857 6.09508571,19.6977 6.87365714,19.1877 L6.8208,22.7934143 C6.81365714,23.2734143 6.74794286,23.7519857 6.62365714,24.2162714 L5.17937143,29.6391286 L5.12651429,29.8348429 L5.05222857,30.1148429 C4.49794286,32.1791286 5.72508571,34.3091286 7.78937143,34.8634143 L12.6950857,36.1819857 C13.2122286,36.3205571 13.6322286,36.6419857 13.9050857,37.0577" id="Fill-5" fill="#FFEBDE"></path>
            <g id="Group-9" transform="translate(0.000000, 18.457571)">
                <mask id="mask-2" fill="white">
                    <use xlink:href="#path-1"></use>
                </mask>
                <g id="Clip-8"></g>
                <path d="M6.5563,19.6388143 C6.59415714,19.6418143 6.63287143,19.6451 6.67058571,19.6461 C6.81215714,19.6523857 6.94258571,19.6503857 7.08187143,19.6405286 C7.20944286,19.6321 7.3393,19.6166714 7.47201429,19.5942429 C7.51315714,19.5875286 7.55201429,19.5798143 7.59158571,19.5719571 L7.60658571,19.5691 C7.68201429,19.5531 7.77301429,19.5331 7.85587143,19.5096714 L12.1887286,18.3279571 L7.60401429,17.0956714 C6.42158571,16.7781 5.43287143,16.0176714 4.82001429,14.9543857 C4.20744286,13.8915286 4.04487143,12.6546714 4.36244286,11.4721 L5.93344286,5.57495714 C6.04215714,5.16881429 6.10044286,4.74881429 6.10672857,4.32524286 L6.13887143,2.12681429 C5.82772857,2.37738571 5.53758571,2.64924286 5.2913,2.95295714 C2.83644286,5.97767143 1.69844286,10.6833857 1.6873,10.7306714 C1.68558571,10.7373857 1.68401429,10.7443857 1.68215714,10.7511 C1.03501429,13.1605286 1.64587143,15.7143857 3.31615714,17.5826714 C4.14887143,18.5138143 5.2103,19.2188143 6.38887143,19.6242429 C6.39144286,19.6245286 6.39387143,19.6248143 6.39715714,19.6251 C6.43558571,19.6289571 6.46844286,19.6323857 6.50144286,19.6345286 C6.50844286,19.6349571 6.5153,19.6355286 6.5223,19.6361 C6.53401429,19.6368143 6.54544286,19.6378143 6.5563,19.6388143 M6.82815714,21.0783857 C6.7583,21.0783857 6.68872857,21.0768143 6.61901429,21.0736714 C6.56572857,21.0723857 6.49858571,21.0673857 6.43344286,21.0621 L6.42372857,21.0613857 C6.4143,21.0606714 6.40501429,21.0599571 6.39615714,21.0591 C6.35244286,21.0561 6.30901429,21.0519571 6.26544286,21.0475286 C6.24044286,21.0456714 6.21615714,21.0431 6.1923,21.0401 C6.16687143,21.0379571 6.14115714,21.0346714 6.1143,21.0301 L6.1143,21.0299571 C6.07672857,21.0236714 6.03972857,21.0142429 6.00358571,21.0019571 L6.00358571,21.0021 C4.56287143,20.5218143 3.2653,19.6686714 2.2513,18.5348143 C0.260585714,16.3083857 -0.468557143,13.2645286 0.299728571,10.3905286 C0.377442857,10.0662429 1.55387143,5.29081429 4.18201429,2.05281429 C4.8423,1.23881429 5.71558571,0.634814286 6.4823,0.132671429 C6.7033,-0.0123285714 6.98644286,-0.0230428571 7.21787143,0.104242857 C7.44944286,0.231528571 7.59172857,0.476385714 7.58787143,0.740528571 L7.53501429,4.34638571 C7.52701429,4.88752857 7.45244286,5.42481429 7.31372857,5.94338571 L5.74272857,11.8402429 C5.52358571,12.6568143 5.63558571,13.5086714 6.05772857,14.2411 C6.47987143,14.9736714 7.16058571,15.4973857 7.97472857,15.7159571 L12.8805857,17.0346714 C13.5468714,17.2132429 14.1230143,17.6299571 14.5023,18.2083857 C14.6278714,18.3998143 14.6541571,18.6396714 14.5728714,18.8536714 C14.4915857,19.0676714 14.3127286,19.2298143 14.0918714,19.2896714 L13.5117286,19.4478143 L8.23744286,20.8863857 C8.12001429,20.9193857 8.00115714,20.9456714 7.8913,20.9689571 L7.8663,20.9739571 C7.81344286,20.9842429 7.76158571,20.9943857 7.70815714,21.0032429 C7.5293,21.0333857 7.35072857,21.0545286 7.17887143,21.0656714 C7.06001429,21.0741 6.94372857,21.0783857 6.82815714,21.0783857" id="Fill-7" fill="#A179C5" mask="url(#mask-2)"></path>
            </g>
            <path d="M24.9177714,30.1505571 C24.9177714,30.1505571 23.4287714,25.8359857 23.1692,23.6448429 C22.9096286,21.4537 23.0992,19.2191286 23.0992,19.2191286 C21.1720571,17.9591286 18.8692,17.2277 16.3963429,17.2277 L14.9579143,17.2277 L13.5193429,17.2277 C11.0464857,17.2277 8.74362857,17.9591286 6.81662857,19.2191286 C6.81662857,19.2191286 7.00605714,21.4537 6.74648571,23.6448429 C6.48691429,25.8359857 4.99805714,30.1505571 4.99805714,30.1505571 C4.54548571,31.8358429 5.28062857,33.5644143 6.68877143,34.4441286 L14.9579143,34.4441286 L23.2270571,34.4441286 C24.6352,33.5644143 25.3703429,31.8358429 24.9177714,30.1505571" id="Fill-10" fill="#F5EEFF"></path>
            <path d="M6.90508571,33.7298857 L23.0105143,33.7298857 C24.0635143,32.9760286 24.5626571,31.6203143 24.2339429,30.3583143 C24.0985143,29.9637429 22.7178,25.9063143 22.4599429,23.7288857 C22.2609429,22.0500286 22.3152286,20.3706 22.3582286,19.5968857 C20.5630857,18.5128857 18.5108,17.9418857 16.3962286,17.9418857 L13.5193714,17.9418857 C11.4049429,17.9418857 9.35265714,18.5128857 7.55751429,19.5968857 C7.60037143,20.3706 7.65465714,22.0501714 7.45565714,23.7288857 C7.19794286,25.9064571 5.81722857,29.9641714 5.6818,30.3584571 C5.35322857,31.6204571 5.85208571,32.9760286 6.90508571,33.7298857 L6.90508571,33.7298857 Z M23.4318,35.1584571 L6.48394286,35.1584571 L6.31022857,35.0500286 C4.61237143,33.9891714 3.78908571,31.8983143 4.30808571,29.9653143 L4.3228,29.9176 C4.33737143,29.8751714 5.78965714,25.6498857 6.03722857,23.5608857 C6.28465714,21.4716 6.10651429,19.3010286 6.10465714,19.2793143 L6.06894286,18.8547429 L6.42565714,18.6213143 C8.53465714,17.2423143 10.9876571,16.5133143 13.5193714,16.5133143 L16.3962286,16.5133143 C18.9280857,16.5133143 21.3810857,17.2423143 23.4900857,18.6213143 L23.8466571,18.8546 L23.8109429,19.2793143 C23.8090857,19.3010286 23.6310857,21.4716 23.8783714,23.5608857 C24.1260857,25.6498857 25.5783714,29.8751714 25.5929429,29.9176 L25.6076571,29.9653143 C26.1268,31.8983143 25.3033714,33.9891714 23.6053714,35.0500286 L23.4318,35.1584571 Z" id="Fill-12" fill="#A179C5"></path>
            <path d="M14.9578714,0.714342857 C9.75272857,0.714342857 5.5333,4.93391429 5.5333,10.1389143 L5.5333,14.2537714 L9.0873,14.2537714 C8.26872857,13.0884857 7.78601429,11.6703429 7.78601429,10.1382 C7.78601429,9.68262857 7.8293,9.23734286 7.91058571,8.80534286 C8.21258571,8.85134286 8.52158571,8.8762 8.83644286,8.8762 C12.1544429,8.8762 14.8585857,6.25277143 14.9905857,2.96705714 C14.9947286,2.96705714 14.9990143,2.9672 15.0033,2.9672 C15.1354429,6.25291429 17.8394429,8.8762 21.1574429,8.8762 C21.4460143,8.8762 21.7297286,8.85577143 22.0074429,8.81691429 C22.0874429,9.2452 22.1297286,9.68677143 22.1297286,10.1382 C22.1297286,11.6703429 21.6470143,13.0884857 20.8284429,14.2537714 L24.3824429,14.2537714 L24.3824429,10.1389143 C24.3824429,4.93391429 20.1630143,0.714342857 14.9578714,0.714342857" id="Fill-14" fill="#D4B1EF"></path>
            <path d="M22.0726286,13.5394571 L23.6682,13.5394571 L23.6682,10.1390286 C23.6682,5.33602857 19.7606286,1.4286 14.9577714,1.4286 C10.1549143,1.4286 6.24762857,5.33602857 6.24762857,10.1390286 L6.24762857,13.5394571 L7.8432,13.5394571 C7.33591429,12.4834571 7.07177143,11.3277429 7.07177143,10.1381714 C7.07177143,9.6486 7.11777143,9.1556 7.20862857,8.67317143 C7.27991429,8.29502857 7.63634286,8.04102857 8.01834286,8.09917143 C8.2912,8.14074286 8.56662857,8.16188571 8.83648571,8.16188571 C11.7694857,8.16188571 14.1592,5.86745714 14.2769143,2.93831429 C14.2924857,2.55074286 14.6126286,2.24574286 15.0024857,2.25274286 C15.0056286,2.25288571 15.0137714,2.25302857 15.0167714,2.25317143 C15.4002,2.25317143 15.7014857,2.5556 15.7170571,2.9386 C15.8347714,5.8676 18.2244857,8.16188571 21.1574857,8.16188571 C21.4069143,8.16188571 21.6594857,8.14431429 21.9086286,8.10945714 C22.2870571,8.05717143 22.6396286,8.31045714 22.7096286,8.68574286 C22.7987714,9.16345714 22.8439143,9.65217143 22.8439143,10.1381714 C22.8439143,11.3277429 22.5799143,12.4834571 22.0726286,13.5394571 M24.3824857,14.9680286 L20.8284857,14.9680286 C20.5619143,14.9680286 20.3176286,14.8196 20.1946286,14.5830286 C20.0717714,14.3466 20.0907714,14.0613143 20.2439143,13.8431714 C21.0103429,12.7521714 21.4153429,11.4710286 21.4153429,10.1381714 C21.4153429,9.95431429 21.4074857,9.77002857 21.3917714,9.58645714 C18.5997714,9.68102857 16.1533429,8.11488571 14.9970571,5.78017143 C13.8730571,8.04945714 11.5372,9.59045714 8.83648571,9.59045714 C8.73277143,9.59045714 8.62877143,9.58802857 8.52434286,9.58317143 C8.50834286,9.76802857 8.50034286,9.95345714 8.50034286,10.1381714 C8.50034286,11.4710286 8.90534286,12.7521714 9.67177143,13.8431714 C9.82505714,14.0613143 9.84391429,14.3466 9.72105714,14.5830286 C9.5982,14.8196 9.35391429,14.9680286 9.08734286,14.9680286 L5.53334286,14.9680286 C5.13877143,14.9680286 4.81905714,14.6481714 4.81905714,14.2537429 L4.81905714,10.1390286 C4.81905714,4.54831429 9.3672,2.85714286e-05 14.9577714,2.85714286e-05 C20.5484857,2.85714286e-05 25.0967714,4.54831429 25.0967714,10.1390286 L25.0967714,14.2537429 C25.0967714,14.6481714 24.7770571,14.9680286 24.3824857,14.9680286" id="Fill-16" fill="#A179C5"></path>
            <path d="M22.1290429,10.1094429 C22.1273286,9.66801429 22.0857571,9.23601429 22.0074714,8.81687143 C21.7296143,8.85572857 21.4460429,8.8763 21.1574714,8.8763 C17.8394714,8.8763 15.1353286,6.25287143 15.0033286,2.9673 C14.9990429,2.96715714 14.9947571,2.96701429 14.9906143,2.96701429 C14.8586143,6.25272857 12.1544714,8.8763 8.83632857,8.8763 C8.52147143,8.8763 8.21261429,8.8513 7.91061429,8.8053 C7.83104286,9.22815714 7.78847143,9.66401429 7.78675714,10.1095857 C7.81575714,14.0455857 11.0150429,17.2274429 14.9579,17.2274429 C18.9007571,17.2274429 22.1000429,14.0454429 22.1290429,10.1094429" id="Fill-18" fill="#FFEBDE"></path>
            <path d="M8.52464286,9.58327143 C8.50964286,9.75898571 8.50178571,9.9357 8.50107143,10.1122714 C8.52721429,13.6381286 11.4236429,16.5131286 14.9577857,16.5131286 C18.4909286,16.5131286 21.3865,13.6402714 21.4146429,10.1081286 C21.4139286,9.93398571 21.4062143,9.7597 21.3915,9.58655714 C21.3133571,9.58927143 21.2353571,9.59055714 21.1575,9.59055714 C18.4567857,9.59055714 16.1209286,8.04941429 14.9970714,5.78012857 C13.8729286,8.04941429 11.5372143,9.59055714 8.8365,9.59055714 C8.73307143,9.59055714 8.62892857,9.58812857 8.52464286,9.58327143 M14.9577857,17.9417 C10.6416429,17.9417 7.10435714,14.4305571 7.0725,10.1148429 C7.07435714,9.6257 7.12021429,9.14327143 7.20878571,8.67312857 C7.27992857,8.29498571 7.63935714,8.04098571 8.01807143,8.09927143 C8.29192857,8.14084286 8.56735714,8.16198571 8.8365,8.16198571 C11.7695,8.16198571 14.1592143,5.86755714 14.2769286,2.93827143 C14.2925,2.5507 14.6126429,2.24584286 15.0025,2.25272469 C15.3812143,2.25912857 15.7017857,2.56012857 15.7170714,2.93855714 C15.8347857,5.86755714 18.2245,8.16198571 21.1575,8.16198571 C21.4066429,8.16198571 21.6592143,8.14441429 21.9086429,8.10955714 C22.2870714,8.05712857 22.6396429,8.31041429 22.7096429,8.6857 C22.7965,9.15098571 22.8415,9.62912857 22.8432143,10.1067 L22.8432143,10.1147 C22.8115,14.4305571 19.2740714,17.9417 14.9577857,17.9417" id="Fill-20" fill="#A179C5"></path>
            <path d="M14.9578143,15.2442571 C13.6792429,15.2442571 12.6391,14.2039714 12.6391,12.9254 L14.0676714,12.9254 C14.0676714,13.4164 14.4669571,13.8156857 14.9578143,13.8156857 C15.4488143,13.8156857 15.8481,13.4164 15.8481,12.9254 L17.2766714,12.9254 C17.2766714,14.2039714 16.2363857,15.2442571 14.9578143,15.2442571" id="Fill-22" fill="#A179C5"></path>
            <path d="M22.8351143,34.6205571 L20.3265429,35.3048429 L20.3236857,35.3048429 L14.8279714,36.8062714 L13.9151143,37.0548429 L13.9051143,37.0577 L13.8365429,37.0762714 L13.3236857,37.2162714 L8.0494,38.6548429 C7.94797143,38.6834143 7.84511429,38.7062714 7.74368571,38.7277 C7.69225714,38.7377 7.64225714,38.7477 7.59082857,38.7562714 C7.43797143,38.7819857 7.28511429,38.8005571 7.13225714,38.8105571 C6.97082857,38.8219857 6.81082857,38.8248429 6.65082857,38.8177 C6.59797143,38.8162714 6.54368571,38.8119857 6.49082857,38.8077 C6.4794,38.8062714 6.46654286,38.8062714 6.45511429,38.8048429 C6.41225714,38.8019857 6.3694,38.7977 6.32654286,38.7934143 C6.30368571,38.7919857 6.28225714,38.7891286 6.26082857,38.7862714 C6.25225714,38.7862714 6.24225714,38.7848429 6.23368571,38.7834143 C6.20225714,38.7791286 6.17082857,38.7748429 6.1394,38.7705571 C6.08225714,38.7619857 6.02368571,38.7519857 5.96654286,38.7419857 C5.9594,38.7405571 5.95082857,38.7391286 5.94368571,38.7377 L5.94225714,38.7377 C5.89225714,38.7291286 5.84368571,38.7191286 5.79511429,38.7077 C5.7194,38.6905571 5.64368571,38.6719857 5.5694,38.6505571 C5.53225714,38.6405571 5.49511429,38.6305571 5.45797143,38.6191286 C5.38654286,38.5977 5.31797143,38.5748429 5.24797143,38.5505571 C5.23797143,38.5462714 5.22654286,38.5419857 5.21654286,38.5391286 C5.18797143,38.5277 5.15797143,38.5162714 5.12797143,38.5048429 C5.01654286,38.4619857 4.90654286,38.4148429 4.79797143,38.3634143 C4.75654286,38.3434143 4.71654286,38.3234143 4.67654286,38.3019857 C4.62082857,38.2748429 4.56511429,38.2448429 4.51082857,38.2119857 C4.50797143,38.2105571 4.50368571,38.2091286 4.4994,38.2062714 C4.44368571,38.1748429 4.38797143,38.1419857 4.33368571,38.1077 C4.31511429,38.0962714 4.29654286,38.0848429 4.2794,38.0719857 C4.22225714,38.0362714 4.16654286,37.9991286 4.11225714,37.9591286 C4.0494,37.9148429 3.98654286,37.8691286 3.92654286,37.8205571 C3.86511429,37.7734143 3.80654286,37.7234143 3.74797143,37.6734143 C3.6894,37.6234143 3.63225714,37.5705571 3.57654286,37.5177 C3.52082857,37.4634143 3.46511429,37.4091286 3.41225714,37.3519857 C3.3594,37.2948429 3.30654286,37.2377 3.25654286,37.1777 C3.20225714,37.1148429 3.1494,37.0491286 3.09797143,36.9819857 C3.0594,36.9319857 3.02225714,36.8819857 2.98654286,36.8291286 C2.97511429,36.8162714 2.96654286,36.8034143 2.95654286,36.7891286 C2.95511429,36.7848429 2.95225714,36.7819857 2.9494,36.7777 C2.90225714,36.7077 2.85654286,36.6362714 2.81225714,36.5634143 C2.80225714,36.5477 2.79368571,36.5319857 2.78368571,36.5162714 C2.7594,36.4762714 2.73511429,36.4348429 2.71368571,36.3919857 L2.71225714,36.3905571 C2.66225714,36.2991286 2.61511429,36.2062714 2.57082857,36.1119857 C2.54368571,36.0548429 2.5194,35.9962714 2.49511429,35.9377 C2.47654286,35.8962714 2.46082857,35.8534143 2.44511429,35.8105571 C2.4294,35.7705571 2.41368571,35.7291286 2.3994,35.6877 C2.36368571,35.5848429 2.33082857,35.4791286 2.30082857,35.3719857 L2.27225714,35.2648429 C2.25797143,35.2134143 2.24511429,35.1619857 2.23225714,35.1105571 C2.19511429,34.9548429 2.16654286,34.8005571 2.14654286,34.6462714 C2.1394,34.5948429 2.13368571,34.5434143 2.1294,34.4934143 C2.12368571,34.4419857 2.1194,34.3905571 2.11654286,34.3391286 C2.11368571,34.2877 2.11082857,34.2377 2.1094,34.1862714 C2.10511429,34.0777 2.10511429,33.9691286 2.1094,33.8619857 C2.11225714,33.7491286 2.12082857,33.6377 2.13368571,33.5262714 C2.1394,33.4705571 2.14654286,33.4162714 2.15511429,33.3605571 C2.16511429,33.2919857 2.17654286,33.2234143 2.1894,33.1548429 C2.21511429,33.0191286 2.24654286,32.8848429 2.28511429,32.7519857 C2.30511429,32.6848429 2.32511429,32.6205571 2.34654286,32.5548429 C2.3494,32.5477 2.35082857,32.5419857 2.35225714,32.5362714 C2.38654286,32.4391286 2.42225714,32.3419857 2.46082857,32.2477 C2.46225714,32.2462714 2.46368571,32.2434143 2.46368571,32.2405571 C2.48225714,32.1991286 2.4994,32.1577 2.51797143,32.1162714 C2.52368571,32.1048429 2.52797143,32.0934143 2.53368571,32.0819857 C2.55511429,32.0362714 2.57654286,31.9905571 2.5994,31.9448429 C2.62368571,31.8962714 2.6494,31.8477 2.67511429,31.7991286 C2.70225714,31.7505571 2.7294,31.7034143 2.75654286,31.6562714 C2.78511429,31.6091286 2.81368571,31.5619857 2.84225714,31.5162714 C2.90225714,31.4234143 2.96368571,31.3319857 3.0294,31.2448429 C3.06225714,31.2005571 3.09654286,31.1562714 3.13082857,31.1134143 C3.16511429,31.0705571 3.1994,31.0277 3.23511429,30.9862714 C3.27082857,30.9448429 3.30797143,30.9034143 3.34511429,30.8619857 C3.38225714,30.8219857 3.42082857,30.7819857 3.4594,30.7419857 C3.49797143,30.7034143 3.53797143,30.6648429 3.57797143,30.6262714 C3.61797143,30.5891286 3.6594,30.5519857 3.70082857,30.5148429 C3.78511429,30.4419857 3.87082857,30.3705571 3.9594,30.3034143 C4.00368571,30.2691286 4.0494,30.2362714 4.09511429,30.2048429 C4.18654286,30.1405571 4.28082857,30.0791286 4.37797143,30.0205571 C4.42225714,29.9934143 4.4694,29.9677 4.51511429,29.9419857 C4.60511429,29.8919857 4.69797143,29.8434143 4.79225714,29.8005571 C4.80511429,29.7934143 4.81797143,29.7877 4.83082857,29.7819857 L4.83511429,29.7819857 C4.91797143,29.7448429 5.00082857,29.7048429 5.08797143,29.6719857 C5.10082857,29.6662714 5.11368571,29.6619857 5.12654286,29.6577 C5.14368571,29.6505571 5.16082857,29.6448429 5.1794,29.6391286 C5.30225714,29.5919857 5.42797143,29.5519857 5.55654286,29.5162714 L13.8779714,27.2462714 C14.8322571,26.9862714 15.7936857,26.9448429 16.7108286,27.0934143 C19.2236857,27.5005571 21.3922571,29.3305571 22.1065429,31.9462714 L22.8351143,34.6205571 Z" id="Fill-24" fill="#F5EEFF"></path>
            <path d="M2.98111429,36.7810857 L2.96097143,36.7955143 L2.98297143,36.7805143 L2.98111429,36.7810857 Z M2.27782857,37.0116571 C2.28082857,37.0206571 2.28382857,37.0293714 2.28711429,37.0378 L2.27782857,37.0116571 Z M6.55611429,38.0963714 C6.59397143,38.0995143 6.63282857,38.1026571 6.67054286,38.1036571 C6.81211429,38.1099429 6.94254286,38.1079429 7.08182857,38.0980857 C7.20954286,38.0896571 7.3394,38.0742286 7.47211429,38.0519429 C7.51325714,38.0450857 7.55197143,38.0373714 7.59154286,38.0295143 L7.60654286,38.0266571 C7.68197143,38.0106571 7.77297143,37.9906571 7.85582857,37.9672286 L21.9582571,34.1193714 L21.4174,32.1340857 C20.8004,29.8749429 18.9081143,28.1730857 16.5965429,27.7985143 C15.7521143,27.6616571 14.9008286,27.7078 14.0656857,27.9355143 L5.7444,30.2053714 C5.63082857,30.2369429 5.52854286,30.2702286 5.43525714,30.3060857 L5.33982857,30.3403714 C5.28868571,30.3596571 5.23982857,30.3825143 5.19111429,30.4048 L5.0484,30.4692286 C4.99268571,30.4958 4.93125714,30.5279429 4.86182857,30.5665143 L4.83497143,30.5816571 C4.8064,30.5973714 4.77782857,30.6132286 4.75068571,30.6299429 C4.66368571,30.6823714 4.58282857,30.7350857 4.50625714,30.7889429 C4.46568571,30.8169429 4.43054286,30.8420857 4.3964,30.8683714 C4.32525714,30.9223714 4.2544,30.9803714 4.16825714,31.0549429 C4.13668571,31.0835143 4.1024,31.1142286 4.06882857,31.1450857 L4.05525714,31.1583714 C4.02611429,31.1865143 3.99711429,31.2145143 3.96882857,31.2425143 C3.93168571,31.2812286 3.8994,31.3148 3.86811429,31.3485143 C3.83682857,31.3835143 3.80582857,31.4180857 3.77597143,31.4526571 C3.74797143,31.4850857 3.72168571,31.5183714 3.69511429,31.5515143 C3.65982857,31.5956571 3.63054286,31.6335143 3.6024,31.6713714 C3.55397143,31.7355143 3.50525714,31.8063714 3.44182857,31.9043714 C3.42297143,31.9349429 3.39725714,31.9772286 3.37154286,32.0193714 L3.30154286,32.1420857 C3.27911429,32.1848 3.25825714,32.2243714 3.23854286,32.2639429 C3.21811429,32.3045143 3.19954286,32.3440857 3.18097143,32.3839429 L3.17811429,32.3903714 C3.17797143,32.3903714 3.17797143,32.3905143 3.17797143,32.3905143 L3.17797143,32.5565143 L3.06725714,32.6593714 C3.05582857,32.6896571 3.04482857,32.7202286 3.03397143,32.7506571 C3.03054286,32.7628 3.0264,32.7750857 3.02168571,32.7883714 C3.00368571,32.8438 2.98668571,32.8985143 2.96982857,32.9553714 C2.93982857,33.0582286 2.91382857,33.1682286 2.89125714,33.2875143 C2.8804,33.3455143 2.87054286,33.4048 2.86182857,33.4640857 C2.85454286,33.5118 2.84882857,33.5540857 2.84454286,33.5973714 C2.83211429,33.7053714 2.82568571,33.7940857 2.8234,33.8796571 C2.81954286,33.9786571 2.81954286,34.0685143 2.82325714,34.1579429 C2.82468571,34.2112286 2.82725714,34.2542286 2.82968571,34.2985143 C2.83182857,34.3383714 2.83511429,34.3763714 2.8394,34.4145143 L2.84111429,34.4319429 C2.84425714,34.4693714 2.8484,34.5079429 2.85382857,34.5463714 C2.8714,34.6820857 2.89568571,34.8133714 2.92697143,34.9449429 C2.93668571,34.9836571 2.94782857,35.0280857 2.96025714,35.0725143 L2.99097143,35.1878 C3.0154,35.2750857 3.04411429,35.3672286 3.07411429,35.4535143 C3.08554286,35.4869429 3.09768571,35.5182286 3.10954286,35.5485143 L3.11625714,35.5660857 C3.12611429,35.5929429 3.1354,35.6199429 3.14697143,35.6458 L3.15497143,35.6643714 C3.17454286,35.7116571 3.19382857,35.7590857 3.21597143,35.8052286 C3.24197143,35.8609429 3.26882857,35.9150857 3.2964,35.9682286 L3.30368571,35.9758 L3.35297143,36.0733714 C3.3654,36.0985143 3.38025714,36.1225143 3.39454286,36.1459429 L3.42297143,36.1928 C3.4584,36.2513714 3.49511429,36.3086571 3.53254286,36.3649429 L3.59711429,36.4565143 C3.61854286,36.4866571 3.64054286,36.5159429 3.66311429,36.5452286 C3.70811429,36.6038 3.75197143,36.6586571 3.79711429,36.7109429 C3.84525714,36.7685143 3.88768571,36.8138 3.92968571,36.8593714 C3.98097143,36.9149429 4.02782857,36.9602286 4.07454286,37.0056571 C4.11468571,37.0435143 4.16225714,37.0879429 4.21125714,37.1298 C4.26111429,37.1723714 4.30982857,37.2143714 4.36111429,37.2536571 L4.37597143,37.2653714 C4.42368571,37.3039429 4.47368571,37.3400857 4.52368571,37.3752286 L4.5364,37.3843714 C4.57568571,37.4133714 4.61611429,37.4402286 4.65768571,37.4660857 L4.70854286,37.4996571 C4.75282857,37.5276571 4.79311429,37.5515143 4.83254286,37.5739429 L4.88082857,37.6009429 C4.91654286,37.6226571 4.95354286,37.6422286 4.99011429,37.6602286 L5.01354286,37.6720857 C5.04454286,37.6888 5.07554286,37.7042286 5.10782857,37.7198 C5.19525714,37.7612286 5.28982857,37.8018 5.38468571,37.8383714 C5.41011429,37.8479429 5.43582857,37.8578 5.46097143,37.8676571 C5.47311429,37.8718 5.48525714,37.8763714 5.49725714,37.8809429 C5.5524,37.9000857 5.60668571,37.9179429 5.66297143,37.9349429 C5.69654286,37.9452286 5.72468571,37.9526571 5.75297143,37.9602286 L5.7674,37.9642286 C5.82854286,37.9819429 5.89068571,37.9969429 5.95297143,38.0110857 C5.97268571,38.0156571 5.99097143,38.0198 6.00854286,38.0233714 L6.01168571,38.0233714 L6.10154286,38.0405143 C6.14168571,38.0475143 6.19425714,38.0565143 6.24554286,38.0642286 L6.39711429,38.0826571 C6.43568571,38.0865143 6.4684,38.0899429 6.50154286,38.0920857 L6.52897143,38.0940857 C6.53825714,38.0948 6.5474,38.0955143 6.55611429,38.0963714 L6.55611429,38.0963714 Z M6.82825714,39.5359429 C6.75825714,39.5359429 6.68868571,39.5343714 6.61911429,39.5312286 C6.56582857,39.5299429 6.49854286,39.5249429 6.4334,39.5196571 L6.41868571,39.5185143 C6.41111429,39.5179429 6.40354286,39.5173714 6.39611429,39.5166571 C6.35268571,39.5136571 6.30911429,39.5095143 6.26554286,39.5052286 C6.2404,39.5032286 6.21625714,39.5006571 6.1924,39.4976571 C6.17168571,39.4958 6.15068571,39.4933714 6.12911429,39.4900857 L6.04368571,39.4783714 C5.97025714,39.4675143 5.90568571,39.4565143 5.84268571,39.4453714 L5.82168571,39.4418 C5.75697143,39.4306571 5.69411429,39.4178 5.6314,39.4029429 C5.54811429,39.3840857 5.45882857,39.3620857 5.3714,39.3369429 C5.3364,39.3275143 5.29197143,39.3153714 5.24754286,39.3018 C5.1714,39.2789429 5.09325714,39.2529429 5.01368571,39.2252286 L4.87697143,39.1736571 C4.74325714,39.1220857 4.61568571,39.0673714 4.49211429,39.0089429 C4.44168571,38.9846571 4.39625714,38.9619429 4.35111429,38.9379429 C4.29397143,38.9096571 4.23854286,38.8800857 4.18568571,38.8495143 L4.13211429,38.8190857 C4.07154286,38.7846571 4.01097143,38.7486571 3.95182857,38.7113714 C3.93068571,38.6983714 3.9064,38.6828 3.88197143,38.6658 C3.81425714,38.6230857 3.75282857,38.5813714 3.69468571,38.5386571 C3.62368571,38.4885143 3.55268571,38.4365143 3.48454286,38.3818 C3.41554286,38.3285143 3.3494,38.2723714 3.28354286,38.2160857 C3.21654286,38.1589429 3.15011429,38.0976571 3.08525714,38.0362286 C3.01368571,37.9666571 2.94911429,37.9032286 2.88768571,37.8368 C2.82154286,37.7650857 2.76311429,37.7013714 2.70754286,37.6348 C2.6524,37.5710857 2.59068571,37.4943714 2.53082857,37.4159429 C2.49125714,37.3649429 2.45182857,37.3118 2.41325714,37.2562286 C2.40025714,37.2393714 2.38768571,37.2220857 2.37511429,37.2039429 L2.31182857,37.1086571 C2.27525714,37.0526571 2.23982857,36.9965143 2.20497143,36.9395143 C2.19754286,36.9273714 2.19011429,36.9152286 2.18282857,36.9030857 L2.17297143,36.8866571 C2.14468571,36.8399429 2.1164,36.7916571 2.09054286,36.7420857 L2.08568571,36.7336571 C2.02882857,36.6296571 1.9744,36.5226571 1.92425714,36.4153714 C1.89454286,36.3530857 1.86625714,36.2862286 1.83854286,36.2190857 C1.81625714,36.1682286 1.7964,36.1162286 1.77711429,36.0638 C1.75868571,36.0168 1.7404,35.9682286 1.72382857,35.9196571 C1.68525714,35.8083714 1.64768571,35.6880857 1.61311429,35.5645143 L1.58211429,35.4490857 C1.56825714,35.3999429 1.55397143,35.3425143 1.53968571,35.2852286 C1.49454286,35.0959429 1.46097143,34.9148 1.43811429,34.7378 C1.43054286,34.6843714 1.42382857,34.6233714 1.41854286,34.5635143 C1.41182857,34.5015143 1.40668571,34.4396571 1.4034,34.3778 C1.40011429,34.3212286 1.39697143,34.2642286 1.3954,34.2056571 C1.39068571,34.0873714 1.39068571,33.9590857 1.39568571,33.8332286 C1.39854286,33.7156571 1.40797143,33.5848 1.42425714,33.4445143 C1.42982857,33.3870857 1.43854286,33.3208 1.44897143,33.2526571 C1.45982857,33.1790857 1.47268571,33.1012286 1.48725714,33.0233714 C1.51825714,32.8595143 1.55582857,32.7015143 1.59925714,32.5523714 C1.62082857,32.4799429 1.64154286,32.4133714 1.6634,32.3460857 L1.67882857,32.2982286 C1.70154286,32.2335143 1.72511429,32.1689429 1.7494,32.1049429 L1.7494,32.0879429 L1.87425714,31.8065143 C1.87911429,31.7953714 1.88382857,31.7850857 1.88882857,31.7749429 C1.91225714,31.7248 1.93582857,31.6749429 1.96068571,31.6250857 C1.9864,31.5735143 2.01382857,31.5215143 2.04154286,31.4692286 L2.05182857,31.4499429 C2.0764,31.4062286 2.10082857,31.3638 2.12511429,31.3213714 L2.14597143,31.2853714 C2.17911429,31.2309429 2.20754286,31.1840857 2.23582857,31.1386571 C2.29811429,31.0422286 2.37297143,30.9290857 2.45897143,30.8149429 C2.49411429,30.7676571 2.5334,30.7168 2.57254286,30.6679429 C2.61768571,30.6115143 2.65525714,30.5648 2.6944,30.5195143 C2.72968571,30.4785143 2.76668571,30.4370857 2.80382857,30.3958 L2.82211429,30.3755143 C2.86025714,30.3345143 2.89954286,30.2935143 2.93897143,30.2526571 L2.95468571,30.2363714 C2.98982857,30.2015143 3.02568571,30.1666571 3.06182857,30.1316571 L3.0924,30.1023714 C3.13297143,30.0646571 3.17511429,30.0268 3.21725714,29.9890857 L3.23354286,29.9746571 C3.3434,29.8795143 3.43682857,29.8032286 3.52754286,29.7343714 C3.57697143,29.6960857 3.63325714,29.6556571 3.68954286,29.6168 C3.78782857,29.5476571 3.89711429,29.4763714 4.00882857,29.4090857 C4.04811429,29.3849429 4.09311429,29.3595143 4.13782857,29.3346571 L4.16497143,29.3193714 C4.28097143,29.2549429 4.38268571,29.2029429 4.47797143,29.1589429 C4.4994,29.1479429 4.52082857,29.1380857 4.54282857,29.1283714 L4.68111429,29.0676571 C4.7274,29.0472286 4.77411429,29.0273714 4.82197143,29.0090857 C4.84125714,29.0010857 4.8604,28.9939429 4.87968571,28.9872286 C4.90082857,28.9790857 4.92197143,28.9715143 4.94411429,28.9643714 C5.07411429,28.9152286 5.21211429,28.8706571 5.36511429,28.8280857 L13.6899714,26.5572286 C14.7236857,26.2755143 15.7785429,26.2188 16.8249714,26.3883714 C19.6878286,26.8520857 22.0315429,28.9598 22.7955429,31.7580857 L23.7121143,35.1216571 L8.2374,39.3439429 C8.12011429,39.3769429 8.00125714,39.4032286 7.89125714,39.4265143 L7.86625714,39.4315143 C7.8134,39.4418 7.76154286,39.4519429 7.70825714,39.4608 C7.52925714,39.4909429 7.35068571,39.5120857 7.17897143,39.5232286 C7.06011429,39.5316571 6.94368571,39.5359429 6.82825714,39.5359429 L6.82825714,39.5359429 Z" id="Fill-26" fill="#A179C5"></path>
            <path d="M25.3816857,28.9848714 C24.6538286,26.3175857 21.9015429,24.7454429 19.2342571,25.4734429 C16.5671143,26.2013 14.9949714,28.9535857 15.7228286,31.6207286 C16.4506857,34.2880143 19.2029714,35.8601571 21.8702571,35.1323 C24.5374,34.4043 26.1095429,31.6521571 25.3816857,28.9848714" id="Fill-28" fill="#F8CAC3"></path>
            <path d="M20.5591,26.0091857 C20.1798143,26.0091857 19.7982429,26.0599 19.4223857,26.1624714 C18.3163857,26.4643286 17.3942429,27.1787571 16.8255286,28.1740429 C16.2571,29.1694714 16.1101,30.3267571 16.4119571,31.4326143 C16.7138143,32.5386143 17.4281,33.4609 18.4235286,34.0294714 C19.4192429,34.5980429 20.5759571,34.7447571 21.6821,34.4431857 C22.7882429,34.1413286 23.7103857,33.4269 24.2789571,32.4316143 C24.8475286,31.4360429 24.9943857,30.2789 24.6926714,29.1729 C24.3906714,28.0669 23.6763857,27.1447571 22.6811,26.5761857 C22.0238143,26.2007571 21.2959571,26.0091857 20.5591,26.0091857 M20.5432429,36.0256143 C19.5608143,36.0256143 18.5909571,35.7703286 17.7149571,35.2699 C16.3882429,34.5120429 15.4361,33.2829 15.0338143,31.8087571 C14.6315286,30.3347571 14.8272429,28.7921857 15.5852429,27.4654714 C16.3429571,26.1387571 17.5722429,25.1866143 19.0462429,24.7843286 C20.5205286,24.3821857 22.0625286,24.5779 23.3895286,25.3357571 C24.7163857,26.0936143 25.6685286,27.3227571 26.0706714,28.7967571 C26.4729571,30.2709 26.2772429,31.8133286 25.5193857,33.1401857 C24.7615286,34.4669 23.5322429,35.4190429 22.0582429,35.8213286 C21.5573857,35.9580429 21.0486714,36.0256143 20.5432429,36.0256143" id="Fill-30" fill="#A179C5"></path>
            <path d="M14.8279286,36.8062714 L13.9150714,37.0548429 L13.9050714,37.0577 L13.8365,37.0762714 L13.3236429,37.2162714 L8.04935714,38.6548429 C7.94792857,38.6834143 7.84507143,38.7062714 7.74364286,38.7277 C7.69221429,38.7377 7.64221429,38.7477 7.59078571,38.7562714 C7.43807143,38.7819857 7.28507143,38.8005571 7.13221429,38.8105571 C6.97078571,38.8206124 6.81078571,38.8234143 6.65078571,38.8177 C6.64792857,38.8162714 6.6465,38.8162714 6.64364286,38.8162714 C6.59364286,38.8148429 6.54221429,38.8119857 6.49078571,38.8077 C6.47935714,38.8062714 6.4665,38.8062714 6.45507143,38.8048429 C6.41221429,38.8019857 6.36935714,38.7977 6.3265,38.7934143 C6.30364286,38.7919857 6.28221429,38.7891286 6.26078571,38.7862714 C6.25221429,38.7862714 6.24221429,38.7848429 6.23364286,38.7834143 C6.23221429,38.7834143 6.23078571,38.7834143 6.22935714,38.7819857 C6.19935714,38.7791286 6.16935714,38.7748429 6.13935714,38.7705571 C6.08221429,38.7619857 6.02364286,38.7519857 5.9665,38.7419857 C5.95935714,38.7405571 5.95078571,38.7391286 5.94364286,38.7377 L5.94221429,38.7377 C5.89221429,38.7291286 5.84364286,38.7191286 5.79521429,38.7077 C5.71935714,38.6905571 5.64364286,38.6719857 5.56935714,38.6505571 C5.53221429,38.6405571 5.49507143,38.6305571 5.45792857,38.6191286 C5.3865,38.5977 5.31792857,38.5748429 5.24792857,38.5505571 C5.23792857,38.5462714 5.2265,38.5419857 5.2165,38.5391286 C5.18807143,38.5277 5.15792857,38.5162714 5.12792857,38.5048429 C5.0165,38.4619857 4.9065,38.4148429 4.79792857,38.3634143 C4.7565,38.3434143 4.7165,38.3234143 4.6765,38.3019857 C4.62078571,38.2748429 4.56507143,38.2448429 4.51078571,38.2119857 C4.50792857,38.2105571 4.50364286,38.2091286 4.49935714,38.2062714 C4.44364286,38.1748429 4.38792857,38.1419857 4.33364286,38.1077 C4.31507143,38.0962714 4.2965,38.0848429 4.27935714,38.0719857 C4.22221429,38.0362714 4.1665,37.9991286 4.11221429,37.9591286 C4.04935714,37.9148429 3.9865,37.8691286 3.9265,37.8205571 C3.86507143,37.7734143 3.8065,37.7234143 3.74792857,37.6734143 C3.68935714,37.6234143 3.63221429,37.5705571 3.5765,37.5177 C3.52078571,37.4634143 3.46507143,37.4091286 3.41221429,37.3519857 C3.35935714,37.2948429 3.3065,37.2377 3.2565,37.1777 C3.20221429,37.1148429 3.14935714,37.0491286 3.09792857,36.9819857 C3.05935714,36.9319857 3.02221429,36.8819857 2.9865,36.8291286 C2.97507143,36.8162714 2.9665,36.8034143 2.9565,36.7891286 C2.95507143,36.7848429 2.95221429,36.7819857 2.94935714,36.7777 C2.90235714,36.7077 2.8565,36.6362714 2.81221429,36.5634143 C2.80221429,36.5477 2.79364286,36.5319857 2.78364286,36.5162714 C2.7595,36.4762714 2.73507143,36.4348429 2.71364286,36.3919857 L2.71221429,36.3905571 C2.66221429,36.2991286 2.61507143,36.2062714 2.57078571,36.1119857 C2.54364286,36.0548429 2.51935714,35.9962714 2.49507143,35.9377 C2.4765,35.8962714 2.46078571,35.8534143 2.44507143,35.8105571 C2.42935714,35.7705571 2.41364286,35.7291286 2.39935714,35.6877 C2.36364286,35.5848429 2.33092857,35.4791286 2.30078571,35.3719857 L2.27221429,35.2648429 C2.25792857,35.2134143 2.24507143,35.1619857 2.23221429,35.1105571 C2.1965,34.9562714 2.16792857,34.8005571 2.1465,34.6462714 C2.13935714,34.5948429 2.13364286,34.5434143 2.12935714,34.4934143 C2.12364286,34.4419857 2.11935714,34.3905571 2.11664286,34.3391286 C2.11364286,34.2877 2.11078571,34.2377 2.10935714,34.1862714 C2.10507143,34.0777 2.10507143,33.9691286 2.10935714,33.8619857 C2.11364286,33.7491286 2.12221429,33.6377 2.13364286,33.5262714 C2.13935714,33.4705571 2.1465,33.4162714 2.15507143,33.3605571 C2.16507143,33.2919857 2.1765,33.2234143 2.18935714,33.1548429 C2.21507143,33.0191286 2.24792857,32.8834143 2.28507143,32.7519857 C2.30507143,32.6848429 2.32507143,32.6205571 2.3465,32.5548429 C2.34935714,32.5477 2.35078571,32.5419857 2.35221429,32.5362714 C2.3865,32.4391286 2.42221429,32.3419857 2.46078571,32.2477 C2.46221429,32.2462714 2.46364286,32.2434143 2.46364286,32.2405571 C2.48221429,32.1991286 2.49935714,32.1577 2.51792857,32.1162714 C2.52364286,32.1048429 2.52792857,32.0934143 2.53364286,32.0819857 C2.55507143,32.0362714 2.5765,31.9905571 2.59935714,31.9448429 C2.62364286,31.8962714 2.64935714,31.8477 2.67507143,31.7991286 C2.70221429,31.7505571 2.72935714,31.7034143 2.7565,31.6562714 C2.78507143,31.6091286 2.81364286,31.5619857 2.84221429,31.5162714 C2.90235714,31.4234143 2.96364286,31.3319857 3.02935714,31.2448429 C3.06221429,31.2005571 3.0965,31.1562714 3.13078571,31.1134143 C3.16507143,31.0705571 3.19935714,31.0277 3.23507143,30.9862714 C3.27078571,30.9448429 3.30792857,30.9034143 3.34507143,30.8619857 C3.38221429,30.8219857 3.42078571,30.7819857 3.45935714,30.7419857 C3.49792857,30.7034143 3.53792857,30.6648429 3.57792857,30.6262714 C3.61792857,30.5891286 3.65935714,30.5519857 3.70078571,30.5148429 C3.78507143,30.4419857 3.87078571,30.3705571 3.95935714,30.3034143 C4.00364286,30.2691286 4.04935714,30.2362714 4.09507143,30.2048429 C4.1865,30.1405571 4.28078571,30.0791286 4.37792857,30.0205571 C4.42221429,29.9934143 4.46935714,29.9677 4.51507143,29.9419857 C4.60507143,29.8919857 4.69792857,29.8434143 4.79221429,29.8005571 C4.80507143,29.7934143 4.81792857,29.7877 4.83092857,29.7819857 L4.83507143,29.7819857 C4.85507143,29.7848429 4.8765,29.7891286 4.89792857,29.7934143 C4.94792857,29.8019857 4.99792857,29.8105571 5.04792857,29.8205571 C5.05935714,29.8219857 5.06935714,29.8248429 5.08092857,29.8262714 C5.0965,29.8291286 5.11078571,29.8319857 5.1265,29.8348429 C9.31221429,30.5877 12.8436429,33.2134143 14.8279286,36.8062714" id="Fill-32" fill="#D4B1EF"></path>
            <path d="M2.98104286,36.7811286 L2.96104286,36.7955571 L2.9829,36.7804143 L2.98104286,36.7811286 Z M2.27818571,37.0124143 C2.29747143,37.0714143 2.32261429,37.1208429 2.34618571,37.1592714 C2.31847143,37.1128429 2.29447143,37.0619857 2.27818571,37.0124143 L2.27818571,37.0124143 Z M6.70704286,38.1048429 C6.83075714,38.1082714 6.95518571,38.1059857 7.0879,38.0977 C7.20947143,38.0897 7.33932857,38.0742714 7.47204286,38.0518429 C7.51318571,38.0449857 7.55204286,38.0374143 7.59161429,38.0295571 L7.60647143,38.0267 C7.68204286,38.0107 7.7729,37.9907 7.85575714,37.9672714 L13.7323286,36.3644143 C11.7514714,33.2922714 8.61518571,31.1881286 5.00004286,30.5378429 L4.96075714,30.5304143 C4.95232857,30.5291286 4.94432857,30.5277 4.93604286,30.5261286 C4.91232857,30.5387 4.88761429,30.5521286 4.86175714,30.5664143 L4.8349,30.5815571 C4.80647143,30.5974143 4.7779,30.6132714 4.75047143,30.6299857 C4.66375714,30.6822714 4.58275714,30.7349857 4.50618571,30.7889857 C4.46561429,30.8169857 4.43047143,30.8419857 4.39647143,30.8684143 C4.32532857,30.9222714 4.25447143,30.9804143 4.16818571,31.0549857 C4.13661429,31.0834143 4.10232857,31.1142714 4.0689,31.1451286 L4.05518571,31.1584143 C4.02618571,31.1864143 3.99718571,31.2144143 3.9689,31.2425571 C3.93175714,31.2812714 3.89932857,31.3148429 3.86804286,31.3485571 C3.8369,31.3835571 3.8059,31.4181286 3.77604286,31.4527 C3.74804286,31.4851286 3.72161429,31.5182714 3.69504286,31.5514143 C3.65975714,31.5955571 3.63047143,31.6335571 3.60232857,31.6714143 C3.5539,31.7355571 3.50518571,31.8062714 3.44175714,31.9044143 C3.4229,31.9349857 3.39732857,31.9772714 3.37161429,32.0194143 L3.30161429,32.1422714 C3.27904286,32.1847 3.25832857,32.2242714 3.23847143,32.2639857 C3.21818571,32.3044143 3.19961429,32.3441286 3.18104286,32.3839857 C3.18018571,32.3857 3.17932857,32.3874143 3.17847143,32.3891286 C3.17475714,32.3977 3.17118571,32.4057 3.16747143,32.4135571 L3.12175714,32.5182714 C3.09075714,32.5944143 3.0619,32.6724143 3.03404286,32.7507 C3.03047143,32.7627 3.02647143,32.7751286 3.0219,32.7884143 C3.00375714,32.8438429 2.98661429,32.8984143 2.96975714,32.9552714 C2.93904286,33.0648429 2.91161429,33.1797 2.89132857,33.2875571 C2.88032857,33.3455571 2.87047143,33.4047 2.86175714,33.4639857 C2.85461429,33.5117 2.8489,33.5539857 2.84447143,33.5974143 C2.83332857,33.7049857 2.82647143,33.7995571 2.82318571,33.8884143 C2.81961429,33.9787 2.81961429,34.0685571 2.82318571,34.1578429 C2.82475714,34.2111286 2.82718571,34.2542714 2.82975714,34.2984143 C2.8319,34.3384143 2.83504286,34.3764143 2.83932857,34.4145571 L2.84104286,34.4318429 C2.84418571,34.4694143 2.84847143,34.5079857 2.8539,34.5464143 C2.87304286,34.6837 2.89775714,34.8188429 2.92804286,34.9494143 C2.93675714,34.9837 2.94775714,35.0281286 2.96018571,35.0725571 L2.99104286,35.1877 C3.01547143,35.2751286 3.04418571,35.3672714 3.07418571,35.4534143 C3.08561429,35.4869857 3.09775714,35.5182714 3.10961429,35.5484143 C3.11175714,35.5542714 3.11404286,35.5601286 3.11632857,35.5661286 C3.12604286,35.5928429 3.13547143,35.6198429 3.14704286,35.6457 C3.14975714,35.6518429 3.15247143,35.6581286 3.1549,35.6642714 C3.17461429,35.7115571 3.1939,35.7589857 3.2159,35.8052714 C3.2519,35.8821286 3.28932857,35.9561286 3.32832857,36.0282714 C3.33718571,36.0429857 3.34532857,36.0581286 3.3529,36.0734143 C3.36547143,36.0984143 3.38018571,36.1225571 3.39447143,36.1459857 L3.41147143,36.1741286 C3.41461429,36.1789857 3.42004286,36.1879857 3.4229,36.1929857 C3.4599,36.2538429 3.49818571,36.3135571 3.53732857,36.3719857 C3.54047143,36.3768429 3.5439,36.3815571 3.54704286,36.3864143 C3.55804286,36.4001286 3.56832857,36.4144143 3.57818571,36.4289857 C3.60547143,36.4692714 3.6339,36.5071286 3.66332857,36.5452714 C3.70804286,36.6038429 3.75204286,36.6585571 3.79704286,36.7109857 C3.84518571,36.7684143 3.88761429,36.8138429 3.92961429,36.8594143 C3.9809,36.9149857 4.0279,36.9602714 4.07461429,37.0057 C4.11461429,37.0435571 4.16218571,37.0879857 4.21132857,37.1298429 C4.26104286,37.1722714 4.30975714,37.2142714 4.36118571,37.2537 C4.36604286,37.2575571 4.37104286,37.2614143 4.3759,37.2652714 C4.42361429,37.3038429 4.47375714,37.3399857 4.52361429,37.3751286 C4.5279,37.3781286 4.53218571,37.3812714 4.53632857,37.3842714 C4.57575714,37.4134143 4.61618571,37.4401286 4.65775714,37.4661286 C4.67118571,37.4745571 4.68432857,37.4834143 4.69718571,37.4927 L4.70847143,37.4997 C4.75418571,37.5284143 4.79532857,37.5528429 4.83575714,37.5758429 C4.85104286,37.5837 4.86604286,37.5919857 4.88075714,37.6008429 C4.91647143,37.6225571 4.95347143,37.6422714 4.99018571,37.6602714 C4.99804286,37.6641286 5.00575714,37.6681286 5.01347143,37.6721286 C5.04461429,37.6888429 5.07561429,37.7042714 5.10775714,37.7198429 C5.19518571,37.7612714 5.2899,37.8018429 5.38475714,37.8384143 C5.41004286,37.8479857 5.43575714,37.8577 5.46104286,37.8677 C5.47318571,37.8718429 5.48547143,37.8764143 5.49747143,37.8809857 C5.55232857,37.8999857 5.60661429,37.9179857 5.66304286,37.9348429 C5.69647143,37.9452714 5.72475714,37.9527 5.75304286,37.9602714 C5.75704286,37.9612714 5.76347143,37.9631286 5.76732857,37.9642714 C5.82847143,37.9818429 5.89075714,37.9969857 5.9529,38.0111286 C5.98818571,38.0194143 6.0189,38.0258429 6.04975714,38.0314143 C6.06032857,38.0328429 6.07075714,38.0347 6.08118571,38.0367 L6.10147143,38.0405571 C6.14161429,38.0474143 6.19432857,38.0564143 6.24547143,38.0642714 C6.26261429,38.0665571 6.27961429,38.0692714 6.2969,38.0709857 C6.31175714,38.0722714 6.32632857,38.0741286 6.34104286,38.0765571 C6.3459,38.0771286 6.35075714,38.0775571 6.35575714,38.0782714 L6.37618571,38.0808429 C6.38447143,38.0814143 6.3889,38.0818429 6.39718571,38.0827 C6.43561429,38.0864143 6.46847143,38.0898429 6.50147143,38.0919857 C6.50847143,38.0924143 6.51532857,38.0929857 6.52232857,38.0937 C6.53418571,38.0944143 6.54547143,38.0952714 6.55647143,38.0964143 C6.59247143,38.0992714 6.62861429,38.1012714 6.66361429,38.1022714 C6.67804286,38.1027 6.69261429,38.1035571 6.70704286,38.1048429 L6.70704286,38.1048429 Z M6.8159,39.5349857 C6.75204286,39.5349857 6.68861429,39.5338429 6.62518571,39.5315571 C6.61175714,39.5311286 6.59818571,39.5301286 6.58475714,39.5289857 C6.53432857,39.5269857 6.48304286,39.5238429 6.4319,39.5195571 C6.42918571,39.5194143 6.42647143,39.5191286 6.42375714,39.5188429 C6.41432857,39.5182714 6.40518571,39.5175571 6.39632857,39.5167 C6.35261429,39.5137 6.30904286,39.5094143 6.26547143,39.5051286 C6.24047143,39.5032714 6.21618571,39.5005571 6.19232857,39.4975571 C6.16861429,39.4957 6.14432857,39.4925571 6.11947143,39.4884143 C6.09475714,39.4855571 6.07004286,39.4821286 6.04547143,39.4787 C5.97018571,39.4674143 5.90561429,39.4565571 5.84275714,39.4454143 C5.84175714,39.4452714 5.83461429,39.4439857 5.83061429,39.4431286 C5.82761429,39.4427 5.82475714,39.4422714 5.82161429,39.4417 C5.7569,39.4307 5.69418571,39.4177 5.63132857,39.4029857 C5.54804286,39.3841286 5.45875714,39.3621286 5.37147143,39.3368429 C5.33647143,39.3275571 5.2919,39.3154143 5.24761429,39.3017 C5.17132857,39.2789857 5.09332857,39.2529857 5.01361429,39.2252714 C5.0049,39.2222714 4.99632857,39.2191286 4.98775714,39.2157 C4.97547143,39.2115571 4.96332857,39.2071286 4.95118571,39.2022714 L4.8769,39.1735571 C4.74318571,39.1221286 4.61575714,39.0674143 4.49218571,39.0088429 C4.44161429,38.9847 4.39632857,38.9618429 4.35104286,38.9378429 C4.2859,38.9058429 4.22318571,38.8717 4.16361429,38.8365571 C4.15861429,38.8338429 4.15347143,38.8311286 4.14861429,38.8282714 L4.14847143,38.8284143 C4.08247143,38.7912714 4.01632857,38.7521286 3.95175714,38.7114143 C3.93075714,38.6984143 3.90632857,38.6828429 3.8819,38.6658429 C3.81432857,38.6231286 3.7529,38.5812714 3.69475714,38.5387 C3.62361429,38.4885571 3.55261429,38.4365571 3.48461429,38.3817 C3.41547143,38.3284143 3.34947143,38.2724143 3.28361429,38.2161286 C3.21661429,38.1589857 3.15004286,38.0977 3.08518571,38.0361286 C3.01361429,37.9667 2.94918571,37.9032714 2.88761429,37.8368429 C2.82147143,37.7651286 2.76304286,37.7014143 2.70747143,37.6347 C2.65247143,37.5711286 2.59061429,37.4944143 2.53075714,37.4159857 C2.49132857,37.3649857 2.45175714,37.3118429 2.41332857,37.2561286 C2.40018571,37.2392714 2.38761429,37.2221286 2.37504286,37.2039857 C2.36918571,37.1957 2.36347143,37.1871286 2.3579,37.1782714 L2.3579,37.1782714 C2.30447143,37.0988429 2.25404286,37.0199857 2.20504286,36.9395571 C2.19732857,36.9274143 2.19004286,36.9152714 2.1829,36.9029857 C2.18061429,36.8994143 2.17518571,36.8902714 2.1729,36.8865571 C2.14447143,36.8397 2.11632857,36.7912714 2.09018571,36.7415571 C2.08875714,36.7389857 2.08732857,36.7362714 2.08575714,36.7337 C2.02875714,36.6297 1.97447143,36.5227 1.92418571,36.4154143 C1.89447143,36.3531286 1.86632857,36.2862714 1.83847143,36.2191286 C1.81604286,36.1682714 1.79618571,36.1159857 1.77718571,36.0637 C1.75875714,36.0167 1.74047143,35.9681286 1.7239,35.9197 C1.68518571,35.8084143 1.64761429,35.6881286 1.61304286,35.5645571 L1.58204286,35.4491286 C1.56832857,35.3998429 1.5539,35.3425571 1.53975714,35.2852714 C1.49661429,35.0998429 1.46375714,34.9225571 1.43904286,34.7447 C1.43061429,34.6847 1.42375714,34.6234143 1.41847143,34.5635571 C1.41175714,34.5015571 1.40675714,34.4397 1.40332857,34.3778429 C1.40004286,34.3211286 1.39704286,34.2642714 1.39547143,34.2057 C1.39075714,34.0874143 1.39075714,33.9589857 1.39575714,33.8331286 C1.40004286,33.7152714 1.40918571,33.5901286 1.42318571,33.4532714 C1.42975714,33.3869857 1.43861429,33.3208429 1.44904286,33.2527 C1.45975714,33.1791286 1.47275714,33.1012714 1.48718571,33.0234143 C1.51575714,32.8731286 1.55275714,32.7169857 1.59775714,32.5578429 C1.62161429,32.4771286 1.64304286,32.4081286 1.6659,32.3379857 C1.6699,32.3245571 1.67418571,32.3111286 1.67875714,32.2982714 C1.7169,32.1902714 1.75661429,32.0824143 1.79947143,31.9777 C1.80018571,31.9758429 1.80104286,31.9739857 1.80175714,31.9722714 C1.8049,31.9642714 1.80818571,31.9564143 1.81175714,31.9487 L1.86604286,31.8242714 C1.86832857,31.8191286 1.87061429,31.8141286 1.87318571,31.8091286 C1.87847143,31.7969857 1.88361429,31.7858429 1.88875714,31.7748429 C1.91218571,31.7248429 1.93575714,31.6749857 1.96075714,31.6249857 C1.98647143,31.5735571 2.0139,31.5214143 2.04147143,31.4692714 C2.04418571,31.4639857 2.04904286,31.4551286 2.0519,31.4498429 C2.07632857,31.4062714 2.10075714,31.3638429 2.12504286,31.3214143 L2.1369,31.3007 C2.14004286,31.2955571 2.1429,31.2904143 2.14604286,31.2854143 C2.17904286,31.2309857 2.20747143,31.1841286 2.2359,31.1387 C2.29804286,31.0422714 2.37304286,30.9289857 2.4589,30.8149857 C2.49404286,30.7675571 2.53347143,30.7168429 2.57247143,30.6678429 C2.61761429,30.6115571 2.65532857,30.5648429 2.69447143,30.5195571 C2.72975714,30.4785571 2.76661429,30.4371286 2.80375714,30.3957 C2.80675714,30.3924143 2.81918571,30.3787 2.82204286,30.3754143 C2.86032857,30.3345571 2.89947143,30.2935571 2.93904286,30.2527 C2.94232857,30.2491286 2.95118571,30.2398429 2.95475714,30.2364143 C2.98975714,30.2015571 3.02575714,30.1665571 3.0619,30.1315571 L3.08104286,30.1131286 C3.08475714,30.1095571 3.08847143,30.1059857 3.09247143,30.1024143 C3.13304286,30.0647 3.17518571,30.0268429 3.21732857,29.9891286 C3.22047143,29.9861286 3.23032857,29.9774143 3.23347143,29.9747 C3.34347143,29.8795571 3.4369,29.8032714 3.52761429,29.7344143 C3.5769,29.6961286 3.63332857,29.6555571 3.68947143,29.6168429 C3.7879,29.5475571 3.89718571,29.4764143 4.0089,29.4089857 C4.04804286,29.3849857 4.09318571,29.3595571 4.13775714,29.3345571 L4.16504286,29.3194143 C4.2809,29.2549857 4.38261429,29.2028429 4.4779,29.1588429 C4.49932857,29.1479857 4.5209,29.1379857 4.54275714,29.1284143 C4.66461429,29.0747 4.80461429,29.0562714 4.93661429,29.0749857 C4.96575714,29.0791286 4.99704286,29.0848429 5.02832857,29.0911286 C5.08061429,29.1001286 5.1269,29.1081286 5.17261429,29.1171286 C5.18075714,29.1185571 5.18875714,29.1198429 5.19661429,29.1214143 C5.20061429,29.1221286 5.20447143,29.1227 5.20832857,29.1234143 L5.25204286,29.1315571 C9.59418571,29.9127 13.3120429,32.5839857 15.4531857,36.4609857 C15.5590429,36.6528429 15.5711857,36.8827 15.4857571,37.0845571 C15.4003286,37.2864143 15.2270429,37.4378429 15.0156143,37.4954143 L8.23732857,39.3439857 C8.12004286,39.3769857 8.00118571,39.4032714 7.89132857,39.4265571 L7.86632857,39.4314143 C7.81347143,39.4418429 7.76147143,39.4519857 7.70818571,39.4608429 C7.52918571,39.4909857 7.35061429,39.5119857 7.1789,39.5232714 C7.05361429,39.5311286 6.93375714,39.5349857 6.8159,39.5349857 L6.8159,39.5349857 Z" id="Fill-34" fill="#A179C5"></path>
            <path d="M19.545,32.5573857 C19.2628571,32.5573857 18.9824286,32.4926714 18.7217143,32.3643857 C18.2742857,32.1441 17.9394286,31.7626714 17.7788571,31.2903857 C17.6181429,30.8182429 17.651,30.3116714 17.8712857,29.8642429 C18.0915714,29.4166714 18.473,29.0816714 18.9452857,28.9211 L19.4052857,30.2736714 C19.2942857,30.3113857 19.2047143,30.3901 19.153,30.4951 C19.1012857,30.6003857 19.0935714,30.7193857 19.1312857,30.8303857 C19.2091429,31.0595286 19.4595714,31.1826714 19.688,31.1045286 L20.1481429,32.4569571 C19.9508571,32.5241 19.7474286,32.5573857 19.545,32.5573857" id="Fill-36" fill="#A179C5"></path>
        </g>
    </g>
</svg>