<?xml version="1.0" encoding="UTF-8"?>
<svg width="28px" height="44px" viewBox="0 0 28 44" version="1.1" xmlns="http://www.w3.org/2000/svg" xmlns:xlink="http://www.w3.org/1999/xlink">
    <!-- Generator: Sketch 64 (93537) - https://sketch.com -->
    <title>Group 29</title>
    <desc>Created with Sketch.</desc>
    <defs>
        <polygon id="path-1" points="0.0187679012 0.0863703704 16.5986198 0.0863703704 16.5986198 12.3781778 0.0187679012 12.3781778"></polygon>
        <polygon id="path-3" points="0 0.0819131688 11.7252077 0.0819131688 11.7252077 17.5895975 0 17.5895975"></polygon>
    </defs>
    <g id="Page-1" stroke="none" stroke-width="1" fill="none" fill-rule="evenodd">
        <g id="Group-29">
            <path d="M17.7190716,22.8673568 L17.7190716,20.2020975 C17.7190716,16.8594556 15.1999358,14.1499247 12.0925037,14.1499247 L8.51628148,14.1499247 C5.40884938,14.1499247 2.88971358,16.8594556 2.88971358,20.2020975 L2.88971358,22.866542 L2.88971358,24.6500358 L2.88971358,43.2346037 L17.687158,43.2346037 C22.9162321,43.2346037 27.1550346,38.6750358 27.1550346,33.0505049 C27.1550346,27.4375173 22.9333432,22.8859617 17.7190716,22.8673568" id="Fill-1" fill="#E9D9FF"></path>
            <path d="M3.56868519,42.5556049 L17.6871173,42.5556049 C22.5333642,42.5556049 26.4761173,38.291679 26.4761173,33.0505185 C26.4761173,27.8271481 22.546537,23.5636296 17.7167222,23.5463827 L17.0400185,23.5439383 L17.0400185,20.2021111 C17.0400185,17.2393086 14.8205988,14.8289506 12.0925988,14.8289506 L8.51637654,14.8289506 C5.78824074,14.8289506 3.56868519,17.2393086 3.56868519,20.2021111 L3.56868519,42.5556049 Z M17.6871173,43.9136296 L2.21066049,43.9136296 L2.21066049,20.2021111 C2.21066049,16.4904938 5.03929012,13.4709259 8.51637654,13.4709259 L12.0925988,13.4709259 C15.5694136,13.4709259 18.3980432,16.4904938 18.3980432,20.2021111 L18.3980432,22.2147037 C23.6598457,22.6074444 27.834142,27.3244074 27.834142,33.0505185 C27.834142,39.0404938 23.282179,43.9136296 17.6871173,43.9136296 L17.6871173,43.9136296 Z" id="Fill-3" fill="#A179C5"></path>
            <path d="M18.5669136,37.6167815 C18.3717654,37.4983617 13.7882963,34.6829049 13.7882963,31.7010901 C13.7882963,30.2626704 14.958642,29.0923247 16.3970617,29.0923247 C17.3645185,29.0923247 18.2384074,29.6298309 18.6879136,30.4529296 C19.1374198,29.6298309 20.0111728,29.0923247 20.9786296,29.0923247 C22.4171852,29.0923247 23.5875309,30.2626704 23.5875309,31.7010901 C23.5875309,34.6829049 19.0040617,37.4983617 18.8087778,37.6167815 L18.6879136,37.6902506 L18.5669136,37.6167815 Z" id="Fill-5" fill="#F8CAC3"></path>
            <path d="M16.397116,29.7712691 C15.3329679,29.7712691 14.4672272,30.6370099 14.4672272,31.7010222 C14.4672272,33.0039111 15.6093259,34.3426519 16.5675481,35.2360963 C17.4163136,36.0278247 18.2842272,36.6261704 18.6878321,36.8894914 C19.0917086,36.6258988 19.9594864,36.0276889 20.808116,35.2360963 C21.7663383,34.3426519 22.908437,33.0039111 22.908437,31.7010222 C22.908437,30.6370099 22.0426963,29.7712691 20.9785481,29.7712691 C20.2725111,29.7712691 19.6231037,30.1572198 19.2837333,30.7783802 C19.1647704,30.9963432 18.936079,31.1318741 18.6878321,31.1318741 C18.4394494,31.1318741 18.2108938,30.9963432 18.0917951,30.7783802 C17.7525605,30.157084 17.1032889,29.7712691 16.397116,29.7712691 M18.6878321,38.3693309 C18.5657457,38.3693309 18.4435235,38.3363309 18.3352889,38.2706025 L18.2144247,38.1971333 C17.6895481,37.8788123 13.1092025,35.0053679 13.1092025,31.7010222 C13.1092025,29.8881951 14.5841531,28.4132444 16.397116,28.4132444 C17.265437,28.4132444 18.0829679,28.7551951 18.6878321,29.3429481 C19.2928321,28.7553309 20.1104988,28.4132444 20.9785481,28.4132444 C22.7915111,28.4132444 24.2664617,29.8881951 24.2664617,31.7010222 C24.2664617,35.0063185 19.6834,37.8805778 19.1609679,38.1974049 L19.0403753,38.2706025 C18.9321407,38.3363309 18.8100543,38.3693309 18.6878321,38.3693309" id="Fill-7" fill="#A179C5"></path>
            <path d="M10.0740852,0.814774074 C5.87072716,0.814774074 2.4631716,4.22232963 2.4631716,8.42568765 L2.4631716,11.7486383 L5.33322099,11.7486383 C4.67240617,10.8075272 4.28251728,9.66230494 4.28251728,8.42514444 C4.28251728,8.05711975 4.31741852,7.69751481 4.38314691,7.34863827 C4.62704815,7.38584815 4.87651728,7.40594691 5.13073951,7.40594691 C7.81012222,7.40594691 9.99382593,5.28729259 10.1004309,2.63398395 C10.1039617,2.63398395 10.1073568,2.63411975 10.1107519,2.63411975 C10.2174926,5.2874284 12.4011963,7.40594691 15.080579,7.40594691 C15.313616,7.40594691 15.5427148,7.38937901 15.7670605,7.35800864 C15.8315667,7.70389753 15.8656531,8.06037901 15.8656531,8.42514444 C15.8656531,9.66230494 15.4757642,10.8075272 14.8149494,11.7486383 L17.6849988,11.7486383 L17.6849988,8.42568765 C17.6849988,4.22232963 14.2774432,0.814774074 10.0740852,0.814774074" id="Fill-9" fill="#D4B1EF"></path>
            <g id="Group-13" transform="translate(1.765432, 0.049432)">
                <mask id="mask-2" fill="white">
                    <use xlink:href="#path-1"></use>
                </mask>
                <g id="Clip-12"></g>
                <path d="M14.2144716,11.0201531 L15.2405951,11.0201531 L15.2405951,8.37621481 C15.2405951,4.55405432 12.1308543,1.44431358 8.30869383,1.44431358 C4.48639753,1.44431358 1.37679259,4.55405432 1.37679259,8.37621481 L1.37679259,11.0201531 L2.40278025,11.0201531 C2.03108889,10.1936593 1.83797778,9.29695556 1.83797778,8.3756716 C1.83797778,7.97437531 1.87586667,7.56995556 1.95028642,7.17368395 C2.01805185,6.81407901 2.35878025,6.57262222 2.72001481,6.62802963 C2.93553333,6.66089383 3.15268148,6.67746173 3.36521235,6.67746173 C5.67874321,6.67746173 7.56368148,4.86762222 7.65657037,2.55721481 C7.67123704,2.19258519 7.97136049,1.90549877 8.3347679,1.90549877 C8.33924938,1.90549877 8.34373086,1.90549877 8.34807654,1.90563457 C8.70727407,1.91256049 9.00929877,2.19842469 9.02369383,2.55735062 C9.11671852,4.86775802 11.0017926,6.67746173 13.3151877,6.67746173 C13.5116938,6.67746173 13.7110519,6.66360988 13.907558,6.63617778 C14.2668914,6.58593086 14.6024593,6.82725185 14.6691383,7.18414074 C14.7423358,7.57647407 14.7792741,7.97736296 14.7792741,8.3756716 C14.7792741,9.29695556 14.586163,10.1936593 14.2144716,11.0201531 M15.9196074,12.3781778 L13.049558,12.3781778 C12.7961506,12.3781778 12.5639284,12.237079 12.4470025,12.0123259 C12.3302123,11.787437 12.3482741,11.5162395 12.4938543,11.3088691 C13.1006198,10.4450296 13.4212494,9.43072099 13.4212494,8.3756716 C13.4212494,8.26214074 13.4174469,8.14833827 13.409842,8.03480741 C13.3783358,8.03535062 13.3466938,8.03548642 13.3151877,8.03548642 C11.165163,8.03548642 9.29597778,6.84748642 8.3402,5.07865926 C7.3610642,6.8906716 5.42207654,8.09836296 3.20754568,8.03331358 C3.19994074,8.14752346 3.19600247,8.26173333 3.19600247,8.3756716 C3.19600247,9.43072099 3.5167679,10.4450296 4.12339753,11.3088691 C4.26911358,11.5162395 4.28703951,11.787437 4.17024938,12.0123259 C4.05345926,12.237079 3.82123704,12.3781778 3.56782963,12.3781778 L0.697780247,12.3781778 C0.322693827,12.3781778 0.0187679012,12.074116 0.0187679012,11.6991654 L0.0187679012,8.37621481 C0.0187679012,3.80523951 3.73758272,0.0862888889 8.30869383,0.0862888889 C12.8798049,0.0862888889 16.5986198,3.80523951 16.5986198,8.37621481 L16.5986198,11.6991654 C16.5986198,12.074116 16.294558,12.3781778 15.9196074,12.3781778" id="Fill-11" fill="#A179C5" mask="url(#mask-2)"></path>
            </g>
            <path d="M15.8651778,8.40181358 C15.863684,8.0453321 15.8301407,7.69645556 15.7669926,7.3580358 C15.5426469,7.38940617 15.3135481,7.40597407 15.0806469,7.40597407 C12.4011284,7.40597407 10.2174247,5.28745556 10.110684,2.63414691 C10.1074247,2.63414691 10.1038938,2.63387531 10.1004988,2.63387531 C9.99389383,5.28731975 7.81019012,7.40597407 5.1306716,7.40597407 C4.87631358,7.40597407 4.62698025,7.38587531 4.38307901,7.34866543 C4.31884444,7.69007284 4.28448642,8.04207284 4.28299259,8.40181358 C4.30648642,11.5804062 6.88999259,14.1499247 10.0740173,14.1499247 C13.2581778,14.1499247 15.841684,11.5804062 15.8651778,8.40181358" id="Fill-14" fill="#FFEBDE"></path>
            <path d="M4.97339877,8.0827321 C4.96620123,8.18988025 4.96239877,8.2973 4.96199136,8.40471975 C4.98263333,11.1947815 7.27592963,13.4709667 10.0741395,13.4709667 C12.8708556,13.4709667 15.1632012,11.1966827 15.1861519,8.40064568 C15.1856086,8.29499136 15.181942,8.18947284 15.175016,8.08422593 C12.9873741,8.12170741 11.0754111,6.92284321 10.1056457,5.12807778 C9.1497321,6.89704074 7.28081852,8.08504074 5.13065802,8.08504074 C5.07837407,8.08504074 5.02595432,8.08422593 4.97339877,8.0827321 M10.0741395,14.8289914 C6.53254691,14.8289914 3.63004074,11.9480778 3.60396667,8.40689259 C3.6055963,8.00423827 3.64321358,7.60850988 3.7158679,7.22296667 C3.78336173,6.86349753 4.12422593,6.62217654 4.48546049,6.67744815 C4.70097901,6.71031235 4.91812716,6.72701605 5.13065802,6.72701605 C7.44418889,6.72701605 9.32912716,4.91704074 9.42201605,2.60663333 C9.43654691,2.24254691 9.73599136,1.95491728 10.1004852,1.95491728 C10.1057815,1.95491728 10.1144728,1.95505309 10.1211272,1.95518889 C10.4808679,1.96062099 10.7746086,2.24621358 10.7891395,2.60676914 C10.8821642,4.91717654 12.7672383,6.72701605 15.0806333,6.72701605 C15.2771395,6.72701605 15.4764975,6.7130284 15.6730037,6.6855963 C16.032337,6.63534938 16.3679049,6.87667037 16.434584,7.23355926 C16.5057444,7.6150284 16.5425469,8.00709012 16.5441765,8.39901605 L16.5441765,8.40689259 C16.5181025,11.947942 13.6155963,14.8289914 10.0741395,14.8289914" id="Fill-16" fill="#A179C5"></path>
            <path d="M10.0740852,12.6506111 C8.98508519,12.6506111 8.09924568,11.7647716 8.09924568,10.6757716 L9.45727037,10.6757716 C9.45727037,11.0159568 9.7339,11.2925864 10.0740852,11.2925864 C10.4141346,11.2925864 10.6907642,11.0159568 10.6907642,10.6757716 L12.0487889,10.6757716 C12.0487889,11.7647716 11.1629494,12.6506111 10.0740852,12.6506111" id="Fill-18" fill="#A179C5"></path>
            <path d="M8.75040494,33.2823741 L4.90963951,31.8396086 C1.54173827,30.5744728 -0.169101235,26.8050037 1.09617037,23.4371025 L3.00935556,18.3442383 C3.33894815,17.4665469 4.31767654,17.0224728 5.1952321,17.3520654 C6.07292346,17.6817938 6.51713333,18.6605222 6.18740494,19.5380778 L4.27435556,24.630942 C3.66745432,26.2464481 4.48797284,28.0545222 6.10347901,28.6614235 L9.94424444,30.1041889 C10.8219358,30.4337815 11.2661457,31.4126457 10.9365531,32.2902012 C10.6068247,33.1678926 9.62796049,33.6121025 8.75040494,33.2823741" id="Fill-24" fill="#FFEBDE"></path>
            <g id="Group-28" transform="translate(0.000000, 16.481531)">
                <mask id="mask-4" fill="white">
                    <use xlink:href="#path-3"></use>
                </mask>
                <g id="Clip-27"></g>
                <path d="M4.59782346,1.44064691 C4.45455185,1.44064691 4.31182346,1.47120247 4.17737901,1.53217778 C3.92967531,1.64462222 3.74063827,1.8468321 3.64489753,2.10146173 L1.73184815,7.19432593 C0.598304938,10.211721 2.1309716,13.5888568 5.14850247,14.7224 L8.9892679,16.1651654 C9.24349012,16.2607704 9.52052716,16.2516716 9.76823086,16.1392272 C10.0160704,16.0267827 10.2052432,15.8245728 10.3008481,15.5699432 C10.3964531,15.3153136 10.3873543,15.0385481 10.2749099,14.7908444 C10.1624654,14.5430049 9.96011975,14.3539679 9.70549012,14.2582272 L5.86472469,12.8154617 C3.89884815,12.0769679 2.90015679,9.8766963 3.63878642,7.91068395 L5.5517,2.81781975 C5.64744074,2.56319012 5.63820617,2.28642469 5.52576173,2.03872099 C5.41331728,1.79101728 5.21124321,1.60184444 4.95661358,1.50623951 C4.83995926,1.46251111 4.71882346,1.44064691 4.59782346,1.44064691 M9.34846543,17.5895975 C9.0662679,17.5895975 8.78352716,17.5386716 8.51151481,17.4365481 L4.67088519,15.9937827 C0.952341975,14.5967827 -0.936398765,10.4352519 0.460465432,6.71684444 L2.37365062,1.62398025 C2.59690988,1.02970864 3.0382679,0.557930864 3.61610741,0.295560494 C4.19435432,0.0333259259 4.83995926,0.0117333333 5.43409506,0.234992593 C6.66066296,0.69577037 7.28386049,2.06873333 6.82308272,3.29543704 L4.91003333,8.38830123 C4.43486049,9.65330123 5.07720617,11.069042 6.34234198,11.5442148 L10.1829716,12.9869802 C10.7772432,13.2102395 11.2491568,13.6514617 11.5113914,14.2295728 C11.7738975,14.807684 11.7953543,15.4532889 11.5720951,16.0475605 C11.3489716,16.6418321 10.9076136,17.1134741 10.3295025,17.3758444 C10.0159346,17.5181654 9.68267531,17.5895975 9.34846543,17.5895975" id="Fill-26" fill="#A179C5" mask="url(#mask-4)"></path>
            </g>
        </g>
    </g>
</svg>