<?xml version="1.0" encoding="UTF-8"?>
<svg width="35px" height="32px" viewBox="0 0 35 32" version="1.1" xmlns="http://www.w3.org/2000/svg" xmlns:xlink="http://www.w3.org/1999/xlink">
    <title>Group 51</title>
    <defs>
        <path d="M0.00969848581,0.85631472 C0.00969848581,1.31168172 0.381088915,1.68091693 0.839226911,1.68091693 L0.839226911,1.68091693 C1.29728794,1.68091693 1.66875534,1.31168172 1.66875534,0.85631472 L1.66875534,0.85631472 C1.66875534,0.400793775 1.29728794,0.031558565 0.839226911,0.031558565 L0.839226911,0.031558565 C0.381088915,0.031558565 0.00969848581,0.400793775 0.00969848581,0.85631472 L0.00969848581,0.85631472 Z" id="path-1"></path>
        <path d="M0.0213212744,0.887411452 C0.0213212744,1.34277845 0.392711703,1.71201366 0.850772728,1.71201366 L0.850772728,1.71201366 C1.3089877,1.71201366 1.68030115,1.34277845 1.68030115,0.887411452 L1.68030115,0.887411452 C1.68030115,0.431890507 1.3089877,0.0626552972 0.850772728,0.0626552972 L0.850772728,0.0626552972 C0.392711703,0.0626552972 0.0213212744,0.431890507 0.0213212744,0.887411452 L0.0213212744,0.887411452 Z" id="path-3"></path>
    </defs>
    <g id="Page-1" stroke="none" stroke-width="1" fill="none" fill-rule="evenodd">
        <g id="LL21---Home" transform="translate(-16.000000, -115.000000)">
            <g id="Group-10" transform="translate(-1.000000, 0.000000)">
                <g id="Group-9" transform="translate(0.000000, 55.000000)">
                    <g id="Group-4" transform="translate(0.000000, 51.000000)">
                        <g id="Group-51" transform="translate(17.000000, 9.000000)">
                            <g id="Group-19" transform="translate(0.000000, 0.055959)">
                                <path d="M33.2180298,15.4591786 C33.2180298,23.9612869 26.3257161,30.8536005 17.8236078,30.8536005 C9.32149951,30.8536005 2.4291859,23.9612869 2.4291859,15.4591786 C2.4291859,6.95707025 9.32149951,0.0647566358 17.8236078,0.0647566358 C26.3257161,0.0647566358 33.2180298,6.95707025 33.2180298,15.4591786" id="Fill-1" fill="#F3F0FC"></path>
                                <path d="M22.5861032,14.6327059 C22.5861032,14.6327059 19.8747606,14.279327 19.8747606,14.8986446 C19.8747606,15.5179622 20.4520514,17.5784286 20.4520514,17.5784286 L20.7323839,22.3049779 L15.9819731,25.9577664 L15.3748171,26.2328647 L13.0231652,26.1648983 L14.0571316,27.2459716 L15.6349829,27.5248415 L18.2822846,26.8424838 L21.2019137,25.4268897 L23.2026498,23.3815868 L23.767625,17.6413148 L23.7867141,15.0451225 L22.5861032,14.6327059 Z" id="Fill-3" fill="#FFE1BB"></path>
                                <path d="M20.2100357,10.1136811 L19.7370421,11.7795884 L18.1635782,13.5976697 L17.1774885,14.3413742 L16.861595,14.5796798 L19.0223561,13.972216 L20.2511388,12.6616118 L20.6096749,12.8912966 L21.1380884,11.2459408 C21.1380884,11.2459408 21.1186145,10.3708449 21.4256562,9.67086052 C21.732698,8.97095313 21.3024239,6.69519574 21.3024239,6.69519574 L17.4199507,5.97535257 L17.6629516,8.26311761 C17.6629516,8.26311761 18.2157653,8.9346223 18.3817172,9.48358738 C18.5476691,10.0326294 20.2100357,10.1136811 20.2100357,10.1136811" id="Fill-5" fill="#FFE1BB"></path>
                                <path d="M18.3452709,14.460273 L16.8616335,14.5796568 L16.5116413,15.1440932 L16.0695135,16.6178012 L14.3845171,17.1569909 L12.1026789,20.4995817 C12.1026789,20.4995817 11.2408222,25.3212686 12.5177125,25.8319785 C13.7946028,26.3426885 15.3748402,26.2328493 15.3748402,26.2328493 L18.0924945,24.4886613 L20.7324069,22.3049625 C20.7324069,22.3049625 20.7049279,20.3593385 20.6207204,19.6851398 C20.536436,19.0110181 20.4520745,17.5784132 20.4520745,17.5784132 C20.4520745,17.5784132 20.3724084,15.4247335 20.9577043,15.0501873 C21.6101199,14.6326905 22.5861263,14.6326905 22.5861263,14.6326905 L20.9343818,12.6055531 L18.3452709,14.460273 Z" id="Fill-7" fill="#FFAD94"></path>
                                <path d="M5.43906479,13.4373829 C4.5412621,13.4373829 3.75329862,12.9583085 3.31717464,12.2425449 C3.29138899,12.2002872 3.26721974,12.156798 3.24389719,12.1130008 C3.23758548,12.1009932 3.23150468,12.0888316 3.22534692,12.076747 C3.20795122,12.0424174 3.19124827,12.007626 3.17531504,11.9724498 C3.17008094,11.96075 3.16461592,11.9492812 3.15953576,11.9375814 C3.13990787,11.8922448 3.12151154,11.8463694 3.1045007,11.7998013 C3.10149879,11.7914114 3.09895871,11.7829444 3.09603377,11.7745545 C3.08225576,11.7354526 3.06947839,11.695812 3.05770166,11.6557865 C3.05339122,11.6413157 3.04923473,11.626845 3.04523218,11.6122203 C3.03445608,11.5728875 3.02460365,11.5333239 3.01575186,11.4932214 C3.0134427,11.4831381 3.01082565,11.4731317 3.0087474,11.4630483 C2.99851011,11.414171 2.9899662,11.364678 2.98265385,11.314877 C2.98065258,11.301022 2.97911314,11.2870131 2.97734278,11.2730812 C2.97233959,11.234903 2.96826007,11.1964169 2.96510421,11.1577 C2.96387266,11.1418437 2.96248716,11.1260644 2.96148652,11.1100542 C2.95840764,11.0605612 2.95640636,11.0108372 2.95632939,10.9606514 C2.95632939,10.9585731 2.95617545,10.9565719 2.95617545,10.9544166 C2.95617545,10.9113892 2.93870278,10.8722874 2.91037704,10.8441156 C2.88220525,10.8157899 2.84318039,10.7983172 2.80007601,10.7983172 C2.71386725,10.7983172 2.64397657,10.8681309 2.64397657,10.9543397 C2.64397657,11.0049103 2.64212924,11.0551731 2.63912733,11.1049741 C2.63828064,11.1183672 2.63704908,11.1316834 2.63604844,11.1450766 C2.63320048,11.1823311 2.62958279,11.2194316 2.62504143,11.2562243 C2.62342502,11.2702332 2.62165466,11.2842421 2.61973036,11.2981741 C2.61395745,11.3395851 2.6071839,11.3806882 2.59940972,11.4214834 C2.59810119,11.4284109 2.59702358,11.4354923 2.59571506,11.4424198 C2.58586263,11.491528 2.57454773,11.5400974 2.56184733,11.588128 C2.56015394,11.5945167 2.5580757,11.6009054 2.55638231,11.6072941 C2.54514438,11.6482432 2.53290582,11.6888075 2.51974359,11.728987 C2.51627984,11.7393782 2.51266215,11.7497694 2.50919841,11.7601607 C2.49572829,11.7991855 2.48141148,11.8377486 2.46609403,11.8758498 C2.46332303,11.8827772 2.46078295,11.8897047 2.45793498,11.8964783 C2.41983379,11.9889218 2.37634455,12.0785943 2.32777515,12.165034 C2.32554295,12.1691135 2.32307985,12.173193 2.32069371,12.1773495 C2.29798694,12.2172211 2.27427953,12.2564768 2.24949451,12.2949629 L2.24225913,12.3062778 C2.15905228,12.4337436 2.06453053,12.5532813 1.96007938,12.6631205 L1.95923268,12.6639672 C1.81806584,12.8122924 1.65888751,12.943222 1.48508449,13.0532151 C1.39110154,13.1126376 1.29280816,13.1659793 1.19089709,13.2127014 C1.18712545,13.2144717 1.18335382,13.2160881 1.17965916,13.2177815 C1.07974936,13.2629641 0.976375816,13.3016811 0.870154305,13.3335476 C0.862764983,13.3357798 0.855298688,13.337781 0.847986337,13.3398593 C0.802957653,13.3528676 0.757313192,13.3646443 0.711129927,13.3750355 C0.701893273,13.3771908 0.692733592,13.3794999 0.683496939,13.3815012 C0.631694709,13.3926622 0.579353675,13.4022837 0.526473835,13.4101348 C0.517391127,13.4114433 0.508077501,13.412444 0.498994792,13.4135986 C0.455428578,13.4196794 0.411477504,13.4243747 0.367141569,13.4279924 C0.351978063,13.4293009 0.336814557,13.4304555 0.32157408,13.4315331 C0.270464599,13.4348429 0.218970257,13.4369981 0.167014083,13.4370751 C0.165012809,13.4370751 0.163011534,13.437229 0.161087231,13.437229 C0.0748784683,13.437229 0.0049877927,13.5070427 0.0049877927,13.5932515 C0.0049877927,13.6364328 0.0224604616,13.6754577 0.0507861979,13.7037064 C0.0789579901,13.7319552 0.11798285,13.7494279 0.161164203,13.7494279 C0.167706832,13.7494279 0.174095518,13.7498897 0.180638147,13.7499667 C0.226821413,13.7503515 0.272850734,13.7520449 0.318495195,13.7549699 C0.335890892,13.7560475 0.353209617,13.757433 0.370451369,13.7588955 C0.411323559,13.7623592 0.451810889,13.7667466 0.492067302,13.7721347 C0.504305868,13.7737511 0.516698378,13.7750596 0.528936943,13.77683 C0.579969452,13.7845272 0.630386184,13.7937638 0.680418055,13.8045399 C0.69227176,13.807003 0.703894548,13.8100049 0.715748253,13.812622 C0.758852634,13.8225514 0.801572155,13.8334814 0.843829844,13.845643 C0.853220441,13.848337 0.862764983,13.8508771 0.872078608,13.8536481 C0.976991593,13.8852067 1.07890267,13.9233079 1.17758091,13.9679517 C1.18281501,13.9702609 1.18804912,13.972647 1.19336019,13.9750331 C1.2938088,14.0212934 1.39079365,14.0737884 1.48354505,14.1324411 L1.48739365,14.1349812 C1.52957437,14.1616905 1.57090839,14.1896314 1.61131875,14.2188038 C1.61208847,14.2193426 1.61285819,14.2198814 1.61362791,14.2204972 C1.73639843,14.309323 1.85070201,14.4093098 1.95523013,14.5186102 C1.95800113,14.5215351 1.9608491,14.5244601 1.96354312,14.527308 C2.06583906,14.6352999 2.15851348,14.7525284 2.24018088,14.8774541 C2.24418343,14.8835349 2.24810901,14.8896927 2.25203459,14.8957735 C2.27497228,14.9314886 2.2969863,14.9678964 2.31799969,15.004766 C2.32169435,15.0112317 2.32554295,15.0176204 2.32916064,15.024086 C2.37688335,15.1092941 2.41960287,15.1974272 2.45716526,15.2883313 C2.46078295,15.2970291 2.46409275,15.3058809 2.4675565,15.3146557 C2.48195028,15.3506787 2.49557434,15.3872404 2.50827474,15.4241101 C2.51243124,15.4358868 2.51643379,15.4477405 2.52035936,15.4595942 C2.53290582,15.4978494 2.54452861,15.5364894 2.55515076,15.5753603 C2.55738295,15.5835193 2.56,15.5915244 2.56215522,15.5997604 C2.5746247,15.6470983 2.58578566,15.6949749 2.59556111,15.7433904 C2.59710056,15.7513955 2.59833211,15.7597085 2.59987155,15.7677905 C2.60741482,15.8074312 2.61403442,15.8473797 2.61957641,15.8876361 C2.62157769,15.9021069 2.62342502,15.9167316 2.6251184,15.9312023 C2.62958279,15.9675332 2.6331235,16.0040949 2.63597147,16.0408106 C2.63704908,16.0545116 2.63828064,16.0681357 2.63912733,16.0818367 C2.64205227,16.1316377 2.64397657,16.1816696 2.64397657,16.2322402 C2.64397657,16.2537924 2.64844095,16.274267 2.65636908,16.2930482 C2.67999952,16.3490069 2.73549641,16.3883397 2.80015298,16.3883397 C2.88636174,16.3883397 2.95617545,16.318526 2.95617545,16.2323172 C2.95617545,16.230239 2.95632939,16.2282377 2.95632939,16.2260825 C2.95640636,16.1758967 2.95840764,16.1261727 2.96148652,16.0766796 C2.96248716,16.0605924 2.96394963,16.0445822 2.96518119,16.028572 C2.96833704,15.990163 2.97233959,15.9520618 2.97726581,15.9141915 C2.97903616,15.8998747 2.98065258,15.8855579 2.98273083,15.871395 C2.9899662,15.8219019 2.99851011,15.7727937 3.00859345,15.7243013 C3.01097959,15.7129864 3.01382756,15.7020564 3.01629067,15.6908184 C3.02498851,15.6521784 3.03445608,15.6138463 3.04492429,15.5758991 C3.04915776,15.5603507 3.05362214,15.5448023 3.05808652,15.5293309 C3.06947839,15.4910758 3.08171696,15.4530516 3.09487919,15.4155662 C3.09826596,15.4057137 3.10134485,15.3956304 3.10488556,15.3858549 C3.12158851,15.3400565 3.13975393,15.2949509 3.15899696,15.250461 C3.16469289,15.2372218 3.17077369,15.2242905 3.17670054,15.2112822 C3.19178708,15.1780302 3.20748939,15.1452401 3.22388445,15.1129888 C3.23096588,15.0990569 3.23789337,15.0851249 3.24512875,15.0714239 C3.2676046,15.0291662 3.29092715,14.9873703 3.31571217,14.9464981 C3.75160523,14.229426 4.54033844,13.7494279 5.43906479,13.7494279 C5.52519658,13.7494279 5.59501028,13.6795372 5.59501028,13.5934054 C5.59501028,13.5071967 5.52511961,13.4373829 5.43906479,13.4373829" id="Fill-9" fill="#EF6354"></path>
                                <path d="M33.8787506,21.8114097 C32.980948,21.8114097 32.1929845,21.3323353 31.7568605,20.6165716 C31.7310748,20.5743139 31.7069056,20.5309017 31.68366,20.4870276 C31.6772713,20.4750199 31.6712675,20.4628583 31.6651097,20.4507737 C31.6476371,20.4164441 31.6309341,20.3817297 31.6150779,20.3464765 C31.6097668,20.3347767 31.6043018,20.3233079 31.5992986,20.3116081 C31.5796707,20.2662715 31.5611974,20.2203962 31.5441866,20.173828 C31.5411846,20.1654381 31.5386446,20.1569711 31.5357196,20.1485812 C31.5219416,20.1094794 31.5091643,20.0698387 31.4973875,20.0298132 C31.4930771,20.0153425 31.4889976,20.0008717 31.484918,19.986247 C31.4742189,19.9469143 31.4643665,19.9073506 31.4554377,19.8672481 C31.4531286,19.8571648 31.4505115,19.8471584 31.4484333,19.8370751 C31.438196,19.7881978 31.4296521,19.7387047 31.4223397,19.6889037 C31.4203384,19.6750488 31.418799,19.6610398 31.4170286,19.6471079 C31.4121024,19.6089297 31.4080229,19.5705206 31.404867,19.5317267 C31.4035585,19.5158704 31.402173,19.5000912 31.4011724,19.484081 C31.3980935,19.4346649 31.3961692,19.3849409 31.3960153,19.3346781 C31.3960153,19.3325999 31.3958613,19.3305986 31.3958613,19.3284434 C31.3958613,19.285416 31.3783886,19.2463141 31.3500629,19.2181423 C31.3218911,19.1898166 31.2828662,19.1723439 31.2397619,19.1723439 C31.1535531,19.1723439 31.0836624,19.2422346 31.0836624,19.3283664 C31.0836624,19.3789371 31.0818151,19.4291999 31.0788132,19.4790008 C31.0779665,19.4924709 31.0768119,19.5057101 31.0757343,19.5191033 C31.0728863,19.5563578 31.0692686,19.5934583 31.0647273,19.630251 C31.0631109,19.6442599 31.0613405,19.6582688 31.0594162,19.6722008 C31.0536433,19.7136118 31.0469467,19.7547149 31.0390956,19.7955101 C31.0377871,19.8024376 31.0367094,19.809519 31.0354009,19.8164465 C31.0255485,19.8655547 31.0142336,19.9141241 31.0015332,19.9621547 C30.9998398,19.9685434 30.9978385,19.9749321 30.9960682,19.9813208 C30.9848302,20.02227 30.9726686,20.0628343 30.9594294,20.1030137 C30.9559657,20.1134049 30.952425,20.1237962 30.9488843,20.1341874 C30.9354141,20.1732123 30.9210973,20.2117753 30.9057799,20.2498765 C30.9030089,20.256804 30.9004688,20.2637315 30.8976978,20.270505 C30.8595196,20.3630255 30.8161074,20.452621 30.767538,20.5390607 C30.7652288,20.5431402 30.7628427,20.5472197 30.7603796,20.5513762 C30.7376728,20.5912478 30.7139654,20.6305036 30.6891804,20.6689896 L30.681945,20.6803045 C30.5987381,20.8077703 30.5042934,20.927308 30.3997652,21.0371472 C30.3995343,21.0374551 30.3992264,21.037686 30.3989185,21.0379939 C30.2577517,21.1863192 30.0985734,21.3172487 29.9248473,21.4272419 C29.8307874,21.4866643 29.732494,21.540006 29.6305829,21.5867281 C29.6268883,21.5884984 29.6231166,21.5901149 29.619345,21.5918082 C29.5194352,21.6369909 29.4160617,21.6757078 29.3098402,21.7075743 C29.3024508,21.7098065 29.2950615,21.7118078 29.2876722,21.713886 C29.2426435,21.7268943 29.196999,21.738671 29.1508158,21.7490623 C29.1416561,21.7512175 29.1324194,21.7535266 29.1232598,21.7555279 C29.0713806,21.7666889 29.0191165,21.7763104 28.9661597,21.7841615 C28.957077,21.7854701 28.9477634,21.7864707 28.9386806,21.7876253 C28.8951914,21.7937061 28.8511634,21.7984014 28.8068274,21.8020191 C28.7917409,21.8033276 28.7765004,21.8044822 28.7612599,21.8055598 C28.7101505,21.8088696 28.6586561,21.8110248 28.6067769,21.8111018 C28.6046987,21.8111018 28.6026974,21.8112557 28.6007731,21.8112557 C28.5145643,21.8112557 28.4446737,21.8810694 28.4446737,21.9672782 C28.4446737,22.0104595 28.4622233,22.0494844 28.4904721,22.0777332 C28.5186438,22.1059819 28.5577457,22.1234546 28.6008501,22.1234546 C28.6073927,22.1234546 28.6137814,22.1239164 28.620324,22.1239934 C28.6665073,22.1243783 28.7125366,22.1260717 28.7581811,22.1289966 C28.7755767,22.1300742 28.7928955,22.1314597 28.8101372,22.1329222 C28.8510094,22.1363859 28.8914967,22.1407733 28.9316762,22.1461614 C28.9440687,22.1477778 28.9564612,22.1490863 28.9686228,22.1508567 C29.0196553,22.1585539 29.070149,22.1677905 29.1201809,22.1785666 C29.1319576,22.1810297 29.1435804,22.1840317 29.1554341,22.1866487 C29.1985385,22.1965781 29.241258,22.2075081 29.2835157,22.2196697 C29.2929833,22.2223638 29.3024508,22.2249038 29.3118414,22.2276748 C29.4166775,22.2592334 29.5185885,22.2973346 29.6172668,22.3419784 C29.6225009,22.3442876 29.627735,22.3466737 29.6330461,22.3490599 C29.7334947,22.3953201 29.8304795,22.4478151 29.9233079,22.5064678 C29.9246164,22.5073145 29.925848,22.5081612 29.9270795,22.5090079 C29.9692602,22.5357172 30.0105942,22.5636581 30.0510046,22.5928305 C30.0517743,22.5933693 30.052544,22.5939081 30.0533138,22.5945239 C30.1760843,22.6833497 30.2903879,22.7833365 30.394916,22.8926369 C30.397687,22.8955618 30.400458,22.8984868 30.403306,22.9013347 C30.5055249,23.0093266 30.5981993,23.1265551 30.6799437,23.2514809 C30.6838693,23.2575617 30.6877949,23.2637194 30.6917204,23.2698002 C30.7146581,23.3055153 30.7366722,23.3419231 30.7577625,23.3787927 C30.7614572,23.3852584 30.7652288,23.3916471 30.7689235,23.3981127 C30.8165692,23.4833209 30.8592887,23.5714539 30.8968511,23.662358 C30.9004688,23.6710558 30.9037786,23.6799076 30.9073193,23.6886825 C30.9216361,23.7247054 30.9352602,23.7612672 30.9480376,23.7981368 C30.9521171,23.8099905 30.9561196,23.8217672 30.9600452,23.8336209 C30.9725917,23.8718761 30.9842145,23.9105161 30.9949136,23.949387 C30.9970688,23.957546 30.9996859,23.9655511 31.0018411,23.9737871 C31.0143106,24.021125 31.0254715,24.0690016 31.035247,24.1174171 C31.0367864,24.1254222 31.038018,24.1337352 31.0395574,24.1418173 C31.0471007,24.1814579 31.0537203,24.2214064 31.0593392,24.2616628 C31.0613405,24.2761336 31.0631109,24.2907583 31.0648812,24.3052291 C31.0692686,24.3415599 31.0728863,24.3781216 31.0756573,24.4148373 C31.0767349,24.4285384 31.0779665,24.4421624 31.0788132,24.4558635 C31.0818151,24.5056644 31.0836624,24.5556963 31.0836624,24.606267 C31.0836624,24.6278192 31.0881268,24.6483707 31.0960549,24.6670749 C31.1196854,24.7230337 31.1751823,24.7623664 31.2398388,24.7623664 C31.3260476,24.7623664 31.3958613,24.6925527 31.3958613,24.6063439 C31.3958613,24.6042657 31.3960153,24.6022644 31.3960153,24.6001092 C31.3961692,24.5499234 31.3980935,24.5001994 31.4011724,24.4507063 C31.40225,24.4346192 31.4036355,24.418609 31.404867,24.4025988 C31.4080229,24.3641897 31.4120254,24.3260885 31.4169517,24.2882182 C31.418799,24.2739014 31.4203384,24.2595846 31.4224167,24.2454217 C31.4296521,24.1959287 31.438196,24.1468205 31.4483563,24.098328 C31.4506654,24.0870131 31.4535134,24.0760831 31.4559765,24.0648452 C31.4646744,24.0262052 31.4742189,23.987873 31.4846101,23.9499258 C31.4888436,23.9343774 31.493308,23.9188291 31.4978494,23.9033577 C31.5091643,23.8651025 31.5214028,23.8270783 31.534565,23.7895929 C31.5380288,23.7797405 31.5410307,23.7696571 31.5446484,23.7598817 C31.5612744,23.7140833 31.5794398,23.6689776 31.5986828,23.6244877 C31.6043788,23.6113255 31.6105365,23.5983942 31.6163864,23.5853089 C31.6314729,23.5521339 31.6471752,23.5192668 31.6636473,23.4870155 C31.6706517,23.4730836 31.6775792,23.4591516 31.6848916,23.4454506 C31.7073674,23.4031929 31.730613,23.361397 31.755398,23.3205249 C32.1912911,22.6034527 32.9800243,22.1234546 33.8787506,22.1234546 C33.9648824,22.1234546 34.0347731,22.0535639 34.0347731,21.9674321 C34.0347731,21.8812234 33.9648824,21.8114097 33.8787506,21.8114097" id="Fill-11" fill="#8B7FBF"></path>
                                <path d="M30.0759205,14.4078088 C29.536269,14.3875652 29.0734357,14.0819859 28.8273559,13.6419363 C28.8128082,13.6159198 28.7992611,13.5892874 28.7862528,13.5624241 C28.7827121,13.5550348 28.7793253,13.5475685 28.7759385,13.5402562 C28.7661631,13.5191658 28.7569264,13.4979215 28.7482286,13.4763693 C28.7453036,13.4692879 28.7423017,13.4622065 28.7395307,13.455048 C28.7287546,13.4274151 28.7186713,13.3993202 28.7095116,13.3709175 C28.7078952,13.3659143 28.7065097,13.3606802 28.7048933,13.3556771 C28.6975809,13.3318157 28.6908074,13.3077234 28.6846496,13.2834002 C28.6824174,13.2745485 28.6801852,13.2657736 28.678107,13.2569218 C28.672565,13.2330605 28.6674848,13.2090452 28.6630974,13.184722 C28.6619428,13.1786412 28.6605573,13.1725604 28.6595567,13.1664026 C28.6544765,13.1368453 28.650397,13.1069802 28.6471642,13.0768071 C28.6462405,13.0684171 28.6457017,13.0599502 28.644855,13.0515602 C28.6427768,13.0284686 28.6411604,13.005223 28.6402367,12.9819775 C28.6397749,12.9724329 28.639313,12.9628884 28.6390821,12.9532669 C28.6383124,12.9234017 28.6382354,12.8934595 28.639313,12.8632865 C28.63939,12.8620549 28.639313,12.8607464 28.63939,12.8595918 C28.6403137,12.8336522 28.6306921,12.8097909 28.6143741,12.7922412 C28.598056,12.7745376 28.5749643,12.7632227 28.5490247,12.7622221 C28.4972225,12.7602978 28.4536563,12.8007081 28.451732,12.8525104 C28.4506544,12.8829144 28.4482682,12.9130105 28.4453433,12.9429526 C28.4446506,12.9509577 28.4435729,12.9589628 28.4426493,12.9668909 C28.4401092,12.9892128 28.4371073,13.0114578 28.4335666,13.0335488 C28.432258,13.0418618 28.4308726,13.0502517 28.4294101,13.0586417 C28.4250227,13.0833497 28.4200195,13.1079038 28.4144005,13.132304 C28.4133999,13.1363835 28.4127071,13.140617 28.4117065,13.1447735 C28.404702,13.1740998 28.3968509,13.2030414 28.3880761,13.231598 C28.3869215,13.2354466 28.385536,13.2391413 28.3843814,13.2429129 C28.3767612,13.26739 28.3684482,13.2914823 28.3595964,13.3153437 C28.3573642,13.3215014 28.3549781,13.3276592 28.3525149,13.333817 C28.3435862,13.3569856 28.3341186,13.3798463 28.3240353,13.4023222 C28.3222649,13.4064017 28.3204945,13.4105582 28.3187242,13.4146377 C28.2937852,13.4692879 28.2655365,13.5221677 28.2344397,13.5730463 L28.2299753,13.5802817 C28.2153506,13.6038351 28.2002641,13.6268498 28.1844848,13.6494026 C28.1828684,13.6516348 28.1814059,13.653867 28.1797895,13.6560222 C28.1269867,13.7307621 28.0674872,13.8004989 28.0022918,13.8642318 C28.0020609,13.8643088 28.001907,13.8645397 28.0016761,13.8646936 C27.913466,13.9506715 27.8148648,14.0257962 27.7079505,14.0879897 C27.6500675,14.1215495 27.5897983,14.1514147 27.5275279,14.1772774 C27.5252187,14.178201 27.5229095,14.1790477 27.5206774,14.1800483 C27.4596385,14.2049873 27.3965983,14.2259237 27.3320187,14.2426267 C27.3275543,14.2437813 27.323013,14.2448589 27.3185486,14.2459365 C27.2911465,14.252787 27.2635135,14.2587138 27.2355727,14.2640249 C27.2298767,14.2651025 27.2243347,14.2662571 27.2187927,14.2673347 C27.1873881,14.2727997 27.1557526,14.2774181 27.1237322,14.2810358 C27.1181902,14.2814976 27.1126482,14.2818824 27.1071832,14.2824213 C27.0808587,14.2850383 27.0542264,14.2869626 27.027594,14.2881172 C27.0184343,14.2885021 27.0092747,14.2888869 27.000115,14.2891948 C26.9693261,14.2900415 26.9383064,14.2901954 26.9070557,14.2891178 C26.9058241,14.2890409 26.9046696,14.2890409 26.903438,14.2890409 C26.8516358,14.2871166 26.8081465,14.3275269 26.8062222,14.3793291 C26.8052216,14.4052687 26.8148431,14.4290531 26.8312382,14.4466797 C26.8475563,14.4643063 26.8705709,14.4756982 26.8965105,14.4766989 C26.9004361,14.4767758 26.9042847,14.4772377 26.9082103,14.4773916 C26.9359972,14.4787001 26.9635532,14.4807784 26.9909553,14.4834724 C27.0014235,14.48455 27.0117378,14.4858585 27.022129,14.4870901 C27.0466061,14.490015 27.0708523,14.4936327 27.0948676,14.4977892 C27.102257,14.4990977 27.1096463,14.5000214 27.1170356,14.5014839 C27.1474396,14.5071798 27.1776127,14.5138764 27.2074009,14.5214966 C27.2144823,14.523267 27.2214098,14.5252683 27.2284143,14.5271926 C27.2541229,14.5341201 27.2796007,14.5415863 27.3046936,14.5498993 C27.3102356,14.5516697 27.3160085,14.5534401 27.3215505,14.5553644 C27.3838209,14.5766087 27.444321,14.6018555 27.5025119,14.630797 C27.5055908,14.6324134 27.5087467,14.6339529 27.5118256,14.6354923 C27.571248,14.6655884 27.6282844,14.6993022 27.6827806,14.7366337 C27.6835503,14.7371725 27.6843201,14.7377113 27.6850128,14.7381731 C27.7097978,14.7552609 27.7339671,14.7729645 27.7576745,14.7914378 C27.7580593,14.7917457 27.7585212,14.7921306 27.758906,14.7924385 C27.830798,14.8487051 27.8972249,14.9112834 27.957571,14.9794037 C27.9591875,14.9811741 27.9608039,14.9830214 27.9624203,14.9847918 C28.0214579,15.0519884 28.0744917,15.1245731 28.1208289,15.2014682 C28.1230611,15.2051629 28.1252163,15.2089345 28.1275255,15.2127062 C28.1404568,15.2347202 28.1529263,15.2570421 28.16478,15.2797489 C28.1667812,15.2837514 28.1690134,15.287677 28.1710147,15.2916026 C28.197724,15.3438666 28.2214314,15.3978241 28.241983,15.453244 C28.2439073,15.4585551 28.2457546,15.4640201 28.247602,15.4693312 C28.2555301,15.4913452 28.2627655,15.5135901 28.269616,15.535989 C28.2718482,15.5432244 28.2740034,15.5504598 28.2760816,15.5576182 C28.2827782,15.5808638 28.288859,15.6043403 28.294401,15.6280477 C28.2956326,15.6329739 28.2969411,15.6378231 28.2980187,15.6428263 C28.3044843,15.6715369 28.3101803,15.7006324 28.3148756,15.7299587 C28.3157223,15.734808 28.3162611,15.7398112 28.3169538,15.7446604 C28.3205715,15.7686757 28.3236504,15.792845 28.3261905,15.8171681 C28.3270372,15.825943 28.3278069,15.8347178 28.3284996,15.8434926 C28.330347,15.8654297 28.3316555,15.8875207 28.3325792,15.9096117 C28.3328101,15.9178477 28.3332719,15.9260837 28.3335028,15.9343967 C28.3341956,15.9643388 28.3341956,15.9944349 28.333041,16.0248389 C28.3326561,16.0377702 28.3347344,16.0502397 28.3391218,16.0616316 C28.3520531,16.0958842 28.3844584,16.1207461 28.4233293,16.1221316 C28.4752085,16.1241329 28.5187747,16.0836456 28.520699,16.0319203 C28.520699,16.0306888 28.5208529,16.0293803 28.5209299,16.0282257 C28.5220845,15.9979756 28.5244706,15.9681105 28.5273956,15.9384762 C28.5283962,15.9288547 28.5295508,15.9192332 28.5307054,15.9096886 C28.5334764,15.886674 28.5367092,15.8638132 28.5405578,15.8411834 C28.5418663,15.8326395 28.5431749,15.8240187 28.5447143,15.8155517 C28.5502563,15.7859175 28.556491,15.7565911 28.5636494,15.7276496 C28.5652659,15.72103 28.5672671,15.7144874 28.5690375,15.7078678 C28.5751183,15.6847761 28.5816609,15.6619154 28.5888193,15.6393626 C28.5917443,15.6301259 28.5946692,15.6208893 28.5978251,15.6117296 C28.6054453,15.5889458 28.6136813,15.566393 28.6223792,15.5441481 C28.6246883,15.5382982 28.6267666,15.5322944 28.6290757,15.5264445 C28.6401597,15.4993503 28.6520904,15.472641 28.6647138,15.4462396 C28.6684085,15.4385423 28.672411,15.4308451 28.6761827,15.4230709 C28.6859581,15.403597 28.6961954,15.3842 28.7068176,15.3651109 C28.7112819,15.3569519 28.7158233,15.3487929 28.7205186,15.3406338 C28.7349124,15.3157718 28.749845,15.2911408 28.7657782,15.2671255 C29.0438015,14.8459341 29.5287258,14.5751462 30.068839,14.5953899 C30.1207182,14.5973142 30.1642075,14.5569038 30.1662088,14.5051016 C30.1680561,14.4532993 30.1276457,14.4096562 30.0759205,14.4078088" id="Fill-13" fill="#EF6354"></path>
                                <path d="M8.08362635,19.1224198 C7.54397489,19.1022531 7.08114159,18.7966738 6.83506176,18.3565473 C6.820591,18.3305307 6.80704391,18.3038984 6.79403562,18.2770351 C6.79049491,18.2697228 6.78710813,18.2622565 6.78364439,18.2548672 C6.7739459,18.2338538 6.76470925,18.2125325 6.75593443,18.1909803 C6.75300949,18.1839759 6.75000758,18.1768944 6.74723658,18.169736 C6.73646049,18.1420261 6.72637714,18.1140082 6.71721746,18.0856055 C6.71567802,18.0806023 6.71421555,18.0753682 6.7126761,18.070288 C6.70528678,18.0464267 6.69851324,18.0223344 6.69235547,17.9980882 C6.69012328,17.9892364 6.68789108,17.9803846 6.68588981,17.9716098 C6.68027085,17.9476715 6.67519069,17.9236562 6.67080328,17.89941 C6.66964869,17.8932522 6.6682632,17.8872484 6.66726256,17.8810906 C6.6621824,17.8514563 6.65810288,17.8215912 6.65487005,17.7914181 C6.65402336,17.7831051 6.65340758,17.7746382 6.65263786,17.7662482 C6.65055961,17.7431566 6.6489432,17.719911 6.64794256,17.6966654 C6.6475577,17.6870439 6.64701889,17.6774994 6.64678798,17.6678779 C6.64601826,17.6380896 6.64594128,17.6081475 6.64701889,17.5779744 C6.64709587,17.5766659 6.64701889,17.5754344 6.64709587,17.5742028 C6.6480965,17.5483402 6.63847499,17.5244018 6.62207993,17.5068522 C6.60576184,17.4892256 6.58267021,17.4778337 6.55673061,17.4768331 C6.50492838,17.4749857 6.46143914,17.5153191 6.45943786,17.5671214 C6.45836025,17.5975253 6.45597412,17.6276984 6.45312615,17.6575636 C6.45235643,17.6655687 6.45127882,17.6735738 6.45035515,17.6815789 C6.44781507,17.7039008 6.44481316,17.7260688 6.44127245,17.7481598 C6.43996392,17.7565497 6.43865539,17.7649397 6.43711595,17.7732527 C6.43272854,17.7980377 6.42772535,17.8225918 6.42210639,17.846915 C6.42118272,17.8509945 6.420413,17.8553049 6.41941237,17.8594614 C6.4124079,17.8887108 6.40455675,17.9176524 6.39578193,17.946209 C6.39470432,17.9500576 6.39331882,17.9537523 6.39208727,17.9576009 C6.38446703,17.982001 6.37615404,18.0060933 6.36730225,18.0299547 C6.36507006,18.0361894 6.36268392,18.0422702 6.36029779,18.048428 C6.35129205,18.0715966 6.34182448,18.0945343 6.33181811,18.1170101 C6.32997077,18.1210896 6.32827739,18.1251692 6.32643006,18.1292487 C6.30149109,18.1839759 6.27324233,18.2368557 6.2421456,18.2877343 C6.2407601,18.2901204 6.23914369,18.2925835 6.23768122,18.2949696 C6.22313349,18.3184461 6.20796998,18.3414608 6.1921907,18.3640136 C6.19057428,18.3662458 6.18911181,18.368478 6.18757237,18.3706332 C6.13469253,18.4454501 6.07519309,18.5151099 6.00999771,18.5788428 C6.0097668,18.5789967 6.00961285,18.5791507 6.00945891,18.5793046 C5.92124887,18.6653594 5.82257063,18.7404072 5.71565637,18.8026777 C5.65785031,18.8362375 5.59758115,18.8661027 5.53531071,18.8918883 C5.53292458,18.892889 5.53069239,18.8937357 5.52838322,18.8947363 C5.46734434,18.9195983 5.40430418,18.9406117 5.33980156,18.9573146 C5.3352602,18.9584692 5.33071885,18.9595468 5.32633144,18.9605475 C5.29885239,18.967398 5.27121941,18.9734018 5.24327853,18.9787129 C5.23765957,18.9797135 5.23211757,18.9809451 5.22649861,18.9819457 C5.19517096,18.9874877 5.16345845,18.992106 5.13143806,18.9956467 C5.12597304,18.9961856 5.12035407,18.9965704 5.11488905,18.9971092 C5.08856459,18.9997263 5.06200921,19.0016506 5.03529989,19.0027282 C5.02614021,19.00319 5.01698053,19.0035749 5.00782085,19.0038828 C4.977032,19.0047295 4.94601224,19.0048834 4.91483854,19.0037288 C4.91360699,19.0037288 4.9124524,19.0037288 4.91122085,19.0036518 C4.85934165,19.0018045 4.81585241,19.0421379 4.8139281,19.0939401 C4.81292747,19.1198797 4.82254898,19.1437411 4.83894404,19.1613677 C4.85526213,19.1789173 4.87827679,19.1903862 4.90421639,19.1913868 C4.90814197,19.1914638 4.91199057,19.1918487 4.91591615,19.1920796 C4.94370308,19.1933881 4.9712591,19.1953894 4.99866117,19.1981604 C5.00912937,19.199238 5.01944364,19.2004695 5.02983487,19.2017011 C5.054312,19.204703 5.07855822,19.2083207 5.10257351,19.2124002 C5.10996284,19.2137087 5.11742913,19.2147094 5.12474148,19.2160949 C5.15522244,19.2217908 5.18531853,19.2285643 5.21510674,19.2361076 C5.22218817,19.237878 5.22911566,19.2398793 5.2361971,19.2418036 C5.26190578,19.248731 5.28730658,19.2562743 5.31239949,19.2645103 C5.31801845,19.2663577 5.32371439,19.268128 5.32925638,19.2699753 C5.39152681,19.2912966 5.45202689,19.3164665 5.51021781,19.345485 C5.51337366,19.3470244 5.51645255,19.3485639 5.51953143,19.3501803 C5.5789539,19.3801994 5.63606721,19.4139132 5.69048649,19.4512447 L5.69271868,19.4528611 C5.7175037,19.4699489 5.74167294,19.4876525 5.76538035,19.5060488 C5.76584218,19.5064337 5.76630402,19.5067416 5.7666119,19.5071264 C5.83850385,19.5633161 5.90493079,19.6259714 5.96527692,19.6940147 C5.96689333,19.6957851 5.96850975,19.6976324 5.97012616,19.6994027 C6.02924074,19.7666764 6.08219755,19.8391841 6.12861174,19.9161562 C6.13084393,19.9198509 6.13299915,19.9236225 6.13523134,19.9273941 C6.14816265,19.9493312 6.16063213,19.9717301 6.17248584,19.9943599 C6.17448711,19.9983624 6.1767193,20.002288 6.17872058,20.0062136 C6.20550687,20.0584776 6.22913731,20.1124351 6.24968886,20.167932 C6.25161317,20.1732431 6.2534605,20.1787081 6.2553848,20.1840191 C6.26323596,20.2059562 6.27054831,20.2282011 6.27739882,20.250677 C6.27963101,20.2579124 6.28178623,20.2651478 6.28378751,20.2723062 C6.29048408,20.2955517 6.29656488,20.3190282 6.30210687,20.3427356 C6.30333842,20.3476619 6.30472392,20.3525111 6.30580153,20.3575143 C6.31219022,20.3862249 6.31788615,20.4152434 6.32258145,20.4445697 C6.32342815,20.449419 6.32396695,20.4544991 6.3246597,20.4593484 C6.32827739,20.4833637 6.33135627,20.507456 6.33389635,20.5318561 C6.33474305,20.5406309 6.33551277,20.5494058 6.33628249,20.5581806 C6.33805285,20.5800407 6.33943834,20.6021316 6.34028504,20.6242996 C6.34051595,20.6325356 6.34097779,20.6407716 6.3412087,20.6490077 C6.34190145,20.6790268 6.34190145,20.7091229 6.34074687,20.7394499 C6.34036201,20.7524582 6.34251723,20.7649277 6.34690464,20.7763195 C6.35975898,20.8105721 6.39224121,20.8353571 6.43111213,20.8368196 C6.48291436,20.8387439 6.52648057,20.7983336 6.52840487,20.7466083 C6.52848185,20.7452998 6.52863579,20.7440682 6.52863579,20.7428367 C6.52979037,20.7126636 6.53217651,20.6827214 6.53517842,20.6531642 C6.53610208,20.6434657 6.53725667,20.6339211 6.53841125,20.6242996 C6.54118224,20.601285 6.54449204,20.5785012 6.54826368,20.5557944 C6.54964918,20.5473275 6.55088073,20.5386297 6.55242017,20.5301627 C6.55796216,20.5006054 6.5641969,20.4712791 6.57135531,20.4423375 C6.5730487,20.4357179 6.574973,20.4291753 6.57674336,20.4224787 C6.58282415,20.3994641 6.58936678,20.3766034 6.59652519,20.3539736 C6.59945013,20.3447369 6.60245204,20.3355003 6.60553093,20.3263406 C6.61315117,20.3035568 6.62138718,20.281081 6.63008503,20.2587591 C6.63239419,20.2529862 6.63447244,20.2469054 6.63685858,20.2411325 C6.64794256,20.2140383 6.65987324,20.187252 6.67241969,20.1609275 C6.67611435,20.1531533 6.6801169,20.1455331 6.68388853,20.1377589 C6.69366399,20.118208 6.70390128,20.098888 6.71452343,20.0797989 C6.71898782,20.0715629 6.72352917,20.0634039 6.72822447,20.0553218 C6.74269523,20.0303828 6.75755084,20.0058287 6.77348407,19.9818134 C7.0515843,19.5605451 7.53643162,19.2898341 8.07662189,19.3100778 C8.12842412,19.3119251 8.17191336,19.2715148 8.17391463,19.2197895 C8.17583894,19.1679103 8.13542858,19.1243441 8.08362635,19.1224198" id="Fill-15" fill="#8B7FBF"></path>
                                <path d="M10.3665575,7.47587766 C10.3665575,7.93124466 9.99516711,8.30047987 9.53710609,8.30047987 C9.07889112,8.30047987 8.70757766,7.93124466 8.70757766,7.47587766 C8.70757766,7.02043369 9.07889112,6.65119848 9.53710609,6.65119848 C9.99516711,6.65119848 10.3665575,7.02043369 10.3665575,7.47587766" id="Fill-17" fill="#8B7FBF"></path>
                            </g>
                            <g id="Group-23" transform="translate(8.697848, 6.675560)">
                                <mask id="mask-2" fill="white">
                                    <use xlink:href="#path-1"></use>
                                </mask>
                                <g id="Clip-21"></g>
                                <polygon id="Fill-20" fill="#8B7FBF" mask="url(#mask-2)" points="-17.6266131 20.2125681 20.7303595 20.2125681 20.7303595 -18.1444045 -17.6266131 -18.1444045"></polygon>
                                <polygon id="Fill-22" fill="#8B7FBF" mask="url(#mask-2)" points="-0.629554885 2.3201703 2.30793174 2.3201703 2.30793174 -0.607694806 -0.629554885 -0.607694806"></polygon>
                            </g>
                            <path d="M27.2350185,25.4204856 C27.2350185,25.8758526 26.863705,26.2450879 26.405567,26.2450879 C25.947429,26.2450879 25.5760386,25.8758526 25.5760386,25.4204856 C25.5760386,24.9649647 25.947429,24.5957295 26.405567,24.5957295 C26.863705,24.5957295 27.2350185,24.9649647 27.2350185,25.4204856" id="Fill-24" fill="#EF6354"></path>
                            <g id="Group-29" transform="translate(25.554740, 24.533090)">
                                <mask id="mask-4" fill="white">
                                    <use xlink:href="#path-3"></use>
                                </mask>
                                <g id="Clip-27"></g>
                                <polygon id="Fill-26" fill="#EF6354" mask="url(#mask-4)" points="-17.6149903 20.2436648 20.7419053 20.2436648 20.7419053 -18.1132308 -17.6149903 -18.1132308"></polygon>
                                <polygon id="Fill-28" fill="#EF6354" mask="url(#mask-4)" points="-0.618009068 2.35119006 2.31955452 2.35119006 2.31955452 -0.576598073 -0.618009068 -0.576598073"></polygon>
                            </g>
                            <g id="Group-50" transform="translate(9.621514, 3.288787)">
                                <path d="M4.62671654,15.4481331 C4.37370921,15.7136868 4.15118284,16.0081821 3.96537217,16.3234599 C3.90417935,16.4273722 3.93873982,16.5611498 4.0425752,16.6223426 C4.07736659,16.6428172 4.11554476,16.6525926 4.15326109,16.6525926 C4.22792404,16.6525926 4.30081663,16.6141836 4.3414579,16.5451396 C4.51033471,16.2584954 4.71269438,15.9907864 4.94276402,15.749248 C5.02597087,15.6619616 5.0225841,15.5237966 4.93529773,15.4405898 C4.84801135,15.3574599 4.70984642,15.3608467 4.62671654,15.4481331" id="Fill-30" fill="#F3F0FC"></path>
                                <path d="M3.74041348,18.7553013 C3.74041348,18.2072599 3.84078512,17.6729965 4.03860344,17.1673667 C4.08255451,17.0551414 4.02721157,16.9285223 3.91490926,16.8845712 C3.80268392,16.8406971 3.67598783,16.896117 3.63211373,17.0083423 C3.41435963,17.5647737 3.30382768,18.1526097 3.30382768,18.7553013 C3.30382768,19.8202874 3.64573779,20.828776 4.29238048,21.6717746 C4.33533092,21.7277333 4.40014144,21.7571366 4.46572167,21.7571366 C4.51198191,21.7571366 4.55878095,21.7425119 4.59834462,21.712031 C4.69409792,21.6386766 4.7121094,21.5016662 4.638678,21.4060668 C4.05099595,20.6399634 3.74041348,19.7233796 3.74041348,18.7553013" id="Fill-32" fill="#F3F0FC"></path>
                                <path d="M9.45709358,4.76983078 C9.45709358,4.91307588 9.34094267,5.02922679 9.19769757,5.02922679 C9.05445248,5.02922679 8.93830156,4.91307588 8.93830156,4.76983078 C8.93830156,4.62658569 9.05445248,4.51043477 9.19769757,4.51043477 C9.34094267,4.51043477 9.45709358,4.62658569 9.45709358,4.76983078" id="Fill-34" fill="#7A63AD"></path>
                                <path d="M7.88375287,3.26105428 C7.88375287,3.26105428 7.44408818,5.61332195 8.76023428,6.25080496 C8.76023428,6.25080496 9.27640925,6.23202377 9.52980144,5.84724019" id="Stroke-36" stroke="#7A63AD" stroke-width="0.618855761" stroke-linecap="round" stroke-linejoin="round"></path>
                                <path d="M14.1651696,11.8892275 C14.1524692,11.8892275 14.1398458,11.8860717 14.1283,11.8798369 C14.0835792,11.8555137 13.0252127,11.2728349 12.3925789,10.4115939 C11.7798809,9.57760112 11.3207423,8.87068926 11.440357,8.00252084 L11.4421273,7.98951255 C11.5538908,7.1779956 11.6001511,6.84208931 12.1811365,6.4408337 C12.6632898,6.10777539 11.9030363,3.97718739 11.6150836,3.50226947 C11.5474252,3.39058294 11.3653092,3.3385498 11.0420263,3.3385498 C10.8851571,3.3385498 10.7154336,3.35001864 10.5357038,3.36210326 C10.3560508,3.37411091 10.1703171,3.38665737 9.99843843,3.38665737 C9.8014668,3.38665737 9.646368,3.36964653 9.52436721,3.33485514 C8.91151527,3.15974359 7.78741458,2.81968081 7.77609968,2.81621706 C7.75485538,2.8097514 7.73738271,2.79451093 7.7283,2.77419029 C7.71914032,2.75394662 7.71921729,2.73077802 7.72845394,2.71053435 L8.50256245,1.01953408 C8.51110635,1.00075288 8.52696261,0.986205155 8.54635958,0.979200693 L10.7579222,0.180384139 C10.7663892,0.177305255 10.775241,0.175765812 10.7840928,0.175765812 C10.7926367,0.175765812 10.8011036,0.177228282 10.8091857,0.179999278 C10.9151763,0.21656103 13.4109199,1.08703862 13.910238,2.1200813 C14.0994355,2.51156145 14.2008847,2.75948862 14.2823212,2.95869244 C14.4089403,3.26835123 14.478677,3.43892143 14.7539293,3.82208859 C14.8282844,3.92569305 15.0546593,4.24089384 14.8429091,6.81576485 C14.7392276,8.07656801 14.5778171,9.27533164 14.5762777,9.28726232 L14.241449,11.8223387 C14.2381392,11.8475086 14.2226678,11.8693687 14.200038,11.8809145 C14.189108,11.8864565 14.1771003,11.8892275 14.1651696,11.8892275" id="Fill-38" fill="#7A63AD"></path>
                                <path d="M10.7841158,0.0988167944 C10.7664123,0.0988167944 10.7487087,0.101895679 10.7317748,0.107976475 L8.52021215,0.906793029 C8.48134124,0.920878925 8.44978267,0.949974383 8.43254092,0.987536772 L7.65850939,2.67853705 C7.63995911,2.71887043 7.63980516,2.76536159 7.65812453,2.80584892 C7.67644389,2.84633625 7.71131225,2.87704812 7.75387783,2.88990246 C7.76511576,2.89336621 8.88983222,3.2336599 9.50314599,3.4089254 C9.63399858,3.44625687 9.79132957,3.46365257 9.99846152,3.46365257 C10.1729573,3.46365257 10.3599225,3.45110611 10.540884,3.43894452 C10.7192284,3.4268599 10.8877973,3.415545 11.0421264,3.415545 C11.3276929,3.415545 11.49834,3.45818755 11.5492956,3.54216412 C11.6686024,3.7389818 11.9360804,4.38393111 12.1074973,5.03519213 C12.3314092,5.88550302 12.2696776,6.28614286 12.1373625,6.37750875 C11.5284361,6.79808436 11.4774806,7.1683202 11.365871,7.97937532 L11.3640237,7.99207572 C11.2405605,8.88887777 11.7073963,9.60902883 12.3304855,10.4571845 C12.9732026,11.3321265 14.0461938,11.9227335 14.0916074,11.9475185 C14.1145451,11.959988 14.1398689,11.9662997 14.1651927,11.9662997 C14.1890541,11.9662997 14.2130694,11.9606807 14.2349295,11.9495198 C14.2801891,11.9265821 14.3111319,11.8827849 14.3178284,11.8324452 L14.6525801,9.29721481 C14.6541196,9.285669 14.815838,8.08490409 14.9196733,6.82209965 C15.0115011,5.70461857 15.1007887,4.17318147 14.8164538,3.77723694 C14.5465895,3.40138213 14.4820869,3.24374325 14.3536205,2.92962007 C14.2717991,2.72949259 14.1698111,2.48025689 13.979613,2.08662153 C13.4665169,1.02502219 10.9415238,0.144230339 10.8343017,0.107206754 C10.8179836,0.101664762 10.8011267,0.0988167944 10.7841158,0.0988167944 M10.7841158,0.252761014 C10.7841158,0.252761014 13.3498272,1.13747844 13.8409862,2.15358726 C14.3320683,3.16961911 14.2366228,3.23381385 14.691451,3.86706339 C15.1461253,4.50023597 14.4999444,9.27704812 14.4999444,9.27704812 L14.1651927,11.8123555 C14.1651927,11.8123555 13.0844273,11.2234419 12.4545646,10.3660495 C11.8247018,9.5086572 11.4034334,8.83468941 11.5165824,8.01308911 C11.6296545,7.19141184 11.6688333,6.88829567 12.2248798,6.50428181 C12.7807724,6.12019099 11.9342331,3.88014865 11.6809179,3.46234404 C11.5843179,3.3029348 11.3407781,3.26160078 11.0421264,3.26160078 C10.7199211,3.26160078 10.3336751,3.30970835 9.99846152,3.30970835 C9.82966168,3.30970835 9.67371619,3.29754675 9.54548065,3.26083106 C8.92616306,3.08387218 7.79844468,2.74257784 7.79844468,2.74257784 L8.57255319,1.05157757 L10.7841158,0.252761014" id="Fill-40" fill="#7A63AD"></path>
                                <path d="M11.4931752,3.27263088 C11.6005513,3.27263088 11.6984598,3.33151455 11.7488766,3.42619024 C11.7638092,3.45413112 12.1160335,4.12217206 12.2765974,5.01628008 C12.3724276,5.54931194 12.3805097,6.05432595 12.3006896,6.51723622 C12.1990095,7.10715047 11.9547,7.62748193 11.5746117,8.0636059 C11.4658501,8.18845466 11.4314436,8.35933275 11.4695448,8.58578469 C11.5481333,9.05238962 11.9181382,9.66616523 12.5113623,10.3139625 C12.9681148,10.8128957 13.5233916,11.2898919 14.0866735,11.6683637 C14.0772829,10.729304 14.0708942,8.74442421 14.1658008,7.66081085 C14.176269,7.53973372 14.1925101,7.38933022 14.2112913,7.21537325 C14.347455,5.95626349 14.6299426,3.34375311 13.7791699,2.1995627 C13.2641495,1.50689069 12.7394306,1.07931062 12.1278872,0.854013254 C11.7855153,0.727855966 11.4174347,0.666586167 11.002478,0.666586167 C10.6288554,0.666586167 10.2130521,0.719004173 9.76653686,0.822531661 C9.28253623,0.934680025 8.77529003,1.22247874 8.40967251,1.59256065 C8.06737754,1.93908908 7.8787189,2.32933768 7.87494726,2.69657161 C8.01903905,2.77346675 8.29005785,2.9013944 8.68315441,3.01908475 C9.11265879,3.14770515 9.82249558,3.30103359 10.765096,3.30103359 C10.9960124,3.30103359 11.2334713,3.29179694 11.4709303,3.27355455 C11.4780887,3.27293877 11.485632,3.27263088 11.4931752,3.27263088 L11.4931752,3.27263088 Z M5.98736022,24.7948025 C4.87226527,24.7948025 4.02318592,24.5123148 3.46367566,23.9551907 C2.95719918,23.4507925 2.84574356,22.8738865 2.82157432,22.6277297 C2.45972843,22.1414969 2.17631713,21.605848 1.97942247,21.0357155 C1.76551698,20.4166289 1.65706327,19.767677 1.65706327,19.1067175 C1.65706327,18.4158928 1.77529243,17.739231 2.00844095,17.0955132 C2.23381529,16.4733477 2.56071584,15.8966726 2.98013687,15.3814213 C3.82121111,14.3481477 4.99696008,13.6226856 6.29078427,13.3386585 C6.30887272,13.3347329 6.32703814,13.3308843 6.34520356,13.3271127 C6.27377344,13.1191341 6.233594,12.9176981 6.22258698,12.713722 C6.20134268,12.3199326 6.29270858,11.9403832 6.49406762,11.5855418 C6.75177024,11.0027089 7.35900321,10.4438914 8.29898661,9.92471454 C8.95348046,9.56325351 9.40522977,9.04292205 9.64184204,8.37811394 C9.7694618,8.01950088 9.80894849,7.68805898 9.81756937,7.45444863 C9.80302164,7.45298616 9.78839694,7.45129277 9.77354132,7.44944544 C9.2674497,7.38532767 8.56069179,7.10907477 8.06876303,6.15716069 C7.35630919,4.77843626 7.37855413,3.20212443 7.37986265,3.1356975 C7.38024751,3.11391439 7.38317245,3.09259312 7.38832958,3.07188762 C7.34237724,3.02493463 7.31389755,2.96497336 7.30620034,2.89923918 C7.238157,2.31378931 7.48362106,1.70509387 7.99740989,1.1850703 C8.43676669,0.740325448 9.04923377,0.393643066 9.63568427,0.25771032 C10.1253039,0.144253431 10.5853662,0.0867552648 11.0032477,0.0867552648 C11.4870175,0.0867552648 11.9204474,0.159878769 12.3283226,0.310051355 C13.0405455,0.572372304 13.6672525,1.07730934 14.2443893,1.85357307 C14.6827455,2.44317943 14.9113527,3.34152092 14.9432191,4.59986097 C14.9685429,5.60473186 14.8600123,6.60891 14.7881973,7.27341023 C14.7694931,7.44621261 14.7534829,7.59461484 14.7433225,7.71122758 C14.6217836,9.09988141 14.6727391,12.15883 14.673201,12.1896189 C14.6750483,12.2935312 14.620552,12.3911319 14.5309565,12.4440887 C14.4863127,12.4704901 14.4352802,12.484499 14.383401,12.484499 C14.3329073,12.484499 14.2830293,12.4711828 14.2393092,12.4460899 C14.2379237,12.4453202 14.2366921,12.4445505 14.2353066,12.4437808 C14.3384493,13.1570813 14.4121116,13.9609011 14.4491351,14.7801922 C14.4533686,14.8721739 14.4204245,14.9596911 14.3566147,15.0265029 C14.2932666,15.092699 14.2044408,15.1308001 14.112767,15.1308001 C13.9840697,15.1308001 13.8793106,15.0299667 13.8739995,14.9012693 C13.8310491,13.8682266 13.7270598,12.8477304 13.5809667,12.0233591 C13.0369279,11.63719 12.520445,11.1825158 12.0837822,10.7054426 C11.4158182,9.97605494 10.9946269,9.25744332 10.8978729,8.68199983 C10.8309842,8.28497769 10.9138831,7.93944989 11.1375641,7.6827479 C11.4456065,7.329215 11.6443484,6.90594537 11.728325,6.42479272 C11.7971381,6.0304646 11.7902876,5.59472549 11.7080044,5.12981394 C11.6099419,4.57669236 11.4286726,4.11524457 11.3164473,3.86485429 C11.1292511,3.87578433 10.9388991,3.88132633 10.7533193,3.88132633 C9.45826356,3.88132633 8.5363686,3.61915932 7.96515857,3.38008395 C7.98678774,3.83498912 8.090931,4.93715275 8.58378342,5.89099114 C9.00397417,6.70404753 9.60189351,6.88300769 10.0332452,6.88862665 C10.0514106,6.88393135 10.0684984,6.8813143 10.0855093,6.88015972 C10.091744,6.87977486 10.0976709,6.87962091 10.1035977,6.87962091 C10.1227638,6.87962091 10.1419298,6.88154522 10.160788,6.88531685 C10.3890873,6.87076912 10.544494,6.81504131 10.5616587,6.80865263 C10.594218,6.79626012 10.6288554,6.78987143 10.6641086,6.78987143 C10.7834154,6.78987143 10.892254,6.86499621 10.9348195,6.97668274 C10.9623756,7.0491135 10.9599894,7.12793294 10.9281999,7.19867031 C10.8964105,7.2693307 10.8390662,7.32336512 10.7667124,7.35092114 C10.7603238,7.35338425 10.6179254,7.40726472 10.3979391,7.44051668 C10.389934,7.72392798 10.3449823,8.13172622 10.1881131,8.57246852 C9.90254657,9.3745179 9.36135567,10.0002242 8.57931904,10.4321917 C8.07692208,10.7096761 7.68390249,10.9932414 7.40834233,11.2766527 C7.42365978,11.2768836 7.43897723,11.2769606 7.45437166,11.2769606 C7.70453101,11.2769606 7.95345881,11.2488657 8.19407363,11.1932149 C8.6061823,11.0980004 8.99758548,10.9239665 9.35719918,10.6760393 C9.81110371,10.3629937 10.2175164,9.92940984 10.5648146,9.3872183 C10.6183872,9.30362659 10.7096761,9.25367169 10.8091241,9.25367169 C10.8688544,9.25367169 10.9264296,9.27183711 10.9755378,9.30632061 C11.1012332,9.39445368 11.1327918,9.57603089 11.0459673,9.71096299 C10.6550259,10.3183499 10.1931163,10.806661 9.67301574,11.1624261 C9.24974611,11.4518412 8.78822134,11.6540469 8.30106486,11.7634243 C8.02458104,11.8255408 7.74247826,11.8570224 7.46291556,11.8570224 C7.28033772,11.8570224 7.12916449,11.8433213 7.0231739,11.8293894 C7.01963318,11.8352393 7.01616943,11.8410892 7.01270569,11.846939 L7.00154473,11.8743411 C6.99030681,11.9032056 6.9746045,11.9300689 6.95482266,11.9540072 C6.69719701,12.4741848 6.80765199,12.926165 6.92919095,13.235285 C6.93557964,13.2348231 6.94196832,13.2345922 6.94828003,13.2345922 C7.03241055,13.2345922 7.11223063,13.271154 7.16741963,13.3349639 C7.22337835,13.3996204 7.24731668,13.4829043 7.23469325,13.5694979 C7.21621995,13.6980413 7.10715047,13.7984899 6.96960131,13.8137304 C6.78371366,13.8343589 6.59721024,13.8649938 6.41509423,13.9049423 C5.24858191,14.1610285 4.18836807,14.8152915 3.42973096,15.7472698 C3.05141304,16.2121813 2.75660986,16.7322819 2.55355743,17.2929467 C2.34342358,17.8732394 2.2368172,18.4833974 2.2368172,19.1067175 C2.2368172,20.2709207 2.60528269,21.3757783 3.30257303,22.3030613 C4.21469253,22.8655735 5.21248199,22.9262275 5.60119114,22.9262275 C5.65029935,22.9262275 5.69178732,22.9253039 5.72457744,22.9241493 C8.04012941,20.9872231 10.0189284,19.6680751 11.0223368,19.0368268 C10.6040704,17.4099443 10.2197486,15.6640629 10.4381955,13.7741667 C10.4550524,13.6278427 10.5786696,13.5175417 10.7257633,13.5175417 C10.7409268,13.5175417 10.7563212,13.5186963 10.7718696,13.5211594 C10.9226579,13.5451747 11.0305728,13.6949624 11.0124074,13.8550644 C10.8328315,15.4308374 11.0793732,16.8913062 11.5400512,18.7198557 C11.5865424,18.6943009 11.634419,18.6819084 11.6829115,18.6819084 C11.7859002,18.6819084 11.8819613,18.7372514 11.9336866,18.8261542 C11.9726345,18.8931969 11.9831027,18.9712466 11.9632439,19.0461405 C11.9434621,19.1209573 11.8956624,19.1836126 11.8286197,19.2224836 C11.822231,19.2262552 11.1687378,19.607498 10.1353102,20.3107922 C9.17839297,20.9620532 7.68805898,22.0318886 6.02284436,23.4301639 C5.97766173,23.4681881 5.92262667,23.4912798 5.86374301,23.4967448 C5.84542365,23.4985921 5.74551385,23.507213 5.58379545,23.507213 C5.16922366,23.507213 4.37587213,23.4500997 3.54672857,23.0847901 C3.59368155,23.1833913 3.65002514,23.2766815 3.71545143,23.363737 C3.89864505,23.6075846 4.15149843,23.802401 4.46693014,23.9427212 C4.87288104,24.1234517 5.38297521,24.2150485 5.9832807,24.2150485 L6.01322285,24.2149716 C6.98376418,24.2108151 8.59563712,23.4938199 10.6745768,22.1414199 C12.0555335,21.2430014 13.2375941,20.3218762 13.5116918,20.1055076 C13.7550007,18.9483089 13.8877776,17.573741 13.8960905,16.1280508 C13.8969372,15.9805722 14.0171677,15.8605727 14.1641074,15.8605727 L14.1821189,15.8605727 C14.2609383,15.8605727 14.3349855,15.8913616 14.3906363,15.9473973 C14.4459023,16.003202 14.4761524,16.0770953 14.4756136,16.1553759 C14.4654532,17.6760369 14.3204378,19.1194949 14.0564234,20.3297274 C14.0424915,20.3939991 14.0064685,20.452113 13.9551281,20.493601 C13.8993234,20.5383987 12.5841009,21.5904535 10.9937032,22.6253435 C8.7886062,24.0601037 7.11377007,24.7900302 6.01568595,24.7948025 L5.98736022,24.7948025 Z" id="Fill-42" fill="#7A63AD"></path>
                                <path d="M10.0243857,6.81154678 C9.29238096,6.7982306 8.87434544,6.28551938 8.65220393,5.85563015 C8.20538083,4.99115639 8.08245637,4.00175689 8.0489735,3.49712774 C8.63211421,3.72535004 9.52783865,3.95834462 10.7532346,3.95834462 C10.9218036,3.95834462 11.094375,3.95372629 11.2674853,3.94472056 C11.3785561,4.19965218 11.541506,4.63185058 11.6321792,5.14325327 C11.7129229,5.59915908 11.7197734,6.02589246 11.6524998,6.4115997 C11.5709863,6.87874343 11.3781712,7.28946661 11.0795194,7.63214644 C10.8402131,7.90678293 10.7511564,8.27424778 10.8218938,8.69482339 C10.8496807,8.85946673 10.9029454,9.03527103 10.9801484,9.2191574 C10.9274995,9.19129349 10.8692316,9.17674576 10.8091164,9.17674576 C10.6834209,9.17674576 10.5678858,9.23986289 10.5000734,9.34569954 C10.1582402,9.87919324 9.75906286,10.3054648 9.31347132,10.6126605 C8.96178575,10.8551226 8.57938831,11.025231 8.17667023,11.1182133 C7.98924315,11.1616256 7.79658196,11.1877961 7.60222738,11.1967248 C7.86039184,10.9632684 8.20006976,10.7295811 8.61656584,10.4995884 C9.41545937,10.0583073 9.96858095,9.41859213 10.2605362,8.59837733 C10.4095542,8.17987997 10.459663,7.7909399 10.4725173,7.50629704 C10.6589438,7.47312206 10.7787124,7.4288631 10.7941838,7.42285927 C10.9833812,7.35081338 11.0787497,7.13837036 11.0067808,6.94932685 C10.9529003,6.80792909 10.8151972,6.71294551 10.6641779,6.71294551 C10.6194571,6.71294551 10.57566,6.72102758 10.5337102,6.7369608 C10.5284761,6.73896208 10.3815363,6.79284256 10.1653217,6.80785212 C10.1449241,6.80438837 10.1242186,6.80269499 10.1035131,6.80269499 C10.0961237,6.80269499 10.0885805,6.8029259 10.0809602,6.80338773 C10.0620251,6.80454232 10.0430899,6.80731331 10.0243857,6.81154678 M7.95345112,2.65074242 C7.97177048,2.31745319 8.15080761,1.96407423 8.46446895,1.64656428 C8.82015707,1.28656572 9.31347132,1.00654119 9.78392486,0.897548679 C10.2248211,0.795406689 10.6347746,0.74360446 11.0025473,0.74360446 C11.4081903,0.74360446 11.7674961,0.803334817 12.1012472,0.926259276 C12.6981659,1.14616859 13.2117238,1.5653587 13.7174306,2.24548426 C14.5501918,3.36550543 14.2698594,5.95792608 14.1351582,7.20379665 C14.1162231,7.37898517 14.099828,7.53038931 14.0890519,7.65400652 C13.9988406,8.68543279 13.9999182,10.5322246 14.0083851,11.5213932 C13.4916714,11.160394 12.9878119,10.7204984 12.568083,10.2620525 C11.9847114,9.62495436 11.621557,9.02511071 11.5455086,8.57305351 C11.5108711,8.36792284 11.538658,8.22206069 11.632641,8.11422276 C12.0221199,7.66724572 12.2723562,7.13436781 12.3765764,6.53044463 C12.457859,6.05868257 12.4496999,5.54466283 12.3523302,5.0027022 C12.1895342,4.09627864 11.8319218,3.41838527 11.8168352,3.38998256 C11.7528714,3.27013699 11.6289463,3.19570496 11.4931675,3.19570496 C11.4837769,3.19570496 11.4743863,3.19601284 11.4649188,3.19678257 C11.2294611,3.21487101 10.9939264,3.22410766 10.7648574,3.22410766 C9.83187848,3.22410766 9.12981587,3.07254958 8.70516074,2.94531468 C8.35370609,2.84009381 8.1022382,2.72702178 7.95345112,2.65074242 M11.00324,0.0098293384 C10.5796625,0.0098293384 10.1136734,0.0680202533 9.61835785,0.182785669 C9.01820631,0.321874271 8.39173031,0.676330836 7.94259805,1.13100509 C7.41210627,1.66796252 7.158945,2.29905685 7.22975934,2.90813715 C7.23784141,2.97741205 7.26447376,3.04183771 7.30580779,3.09494846 C7.3041144,3.10787978 7.30311376,3.12104201 7.30295982,3.13420424 C7.30157432,3.20140089 7.27863663,4.79587814 8.0004041,6.1924601 C8.4991064,7.15753641 9.21471611,7.4495686 9.73727976,7.52223027 C9.72373267,7.74406389 9.68147498,8.03748157 9.56940359,8.3522975 C9.33925698,8.99886322 8.8992844,9.50518576 8.26180139,9.85733316 C7.30857878,10.3838994 6.69072366,10.9536469 6.42524685,11.5508735 C6.21780702,11.9178765 6.12367013,12.3104343 6.14568415,12.7178477 C6.15561355,12.901888 6.18848064,13.08385 6.24559395,13.2698916 C4.94607382,13.5620008 3.76609138,14.2938516 2.92039881,15.3328211 C2.49551277,15.854846 2.16437875,16.4391413 1.93607947,17.0693889 C1.69985207,17.7215736 1.58008347,18.4070872 1.58008347,19.1066867 C1.58008347,19.7762671 1.68999964,20.4337629 1.90667613,21.0609316 C2.10395564,21.6318337 2.38659723,22.1685603 2.74721157,22.6567174 C2.77661491,22.922656 2.89961634,23.5021021 3.40940262,24.0098101 C3.98376851,24.5817898 4.85116721,24.8718208 5.98735252,24.8718208 L6.0158322,24.8718208 C7.12915679,24.8669715 8.81800185,24.1328885 11.0356453,22.6898924 C12.6557543,21.6357593 13.9900658,20.5643845 14.003305,20.5536084 C14.0682695,20.5013444 14.1139139,20.4276051 14.1316175,20.3461686 C14.3968634,19.130625 14.5424176,17.681702 14.552578,16.1558839 C14.5532707,16.0568978 14.5150925,15.9635306 14.4452019,15.8931011 C14.3749263,15.8225177 14.2815592,15.7836468 14.1821112,15.7836468 L14.1640997,15.7836468 C13.9749793,15.7836468 13.8201883,15.9378989 13.8191107,16.1275582 C13.8108747,17.5572381 13.6805609,18.9164117 13.4419474,20.0624494 C13.0724043,20.3537119 11.9580791,21.214491 10.6325424,22.0768095 C8.02164841,23.775353 6.67925481,24.1351977 6.01290726,24.1381226 L5.983273,24.1381996 C5.3940515,24.1381996 4.89442554,24.048758 4.49825009,23.8724149 C4.19482603,23.7374058 3.95213297,23.5507484 3.77702142,23.317446 C3.75816325,23.29243 3.74007481,23.2667983 3.72291003,23.2406278 C4.48770491,23.535354 5.19761868,23.5842313 5.58386472,23.5842313 C5.7489699,23.5842313 5.85211252,23.5752256 5.87112463,23.5734552 C5.94555666,23.5663738 6.01506248,23.5372013 6.07232973,23.4890938 C7.73508124,22.0928967 9.22310607,21.0247547 10.1786378,20.3744943 C11.2129121,19.6706614 11.8608633,19.2928053 11.867252,19.2891106 C12.0422866,19.1874305 12.101863,18.962441 12.0002598,18.7875603 C11.9347565,18.6749501 11.8132176,18.6050595 11.6829038,18.6050595 C11.6526537,18.6050595 11.6226346,18.6088311 11.5935392,18.6161435 C11.1484864,16.8355476 10.9134136,15.4037894 11.088833,13.8638854 C11.1120786,13.6600633 10.9782241,13.4760999 10.7839465,13.4452341 C10.7647035,13.4421552 10.7450756,13.4405388 10.7256786,13.4405388 C10.5395601,13.4405388 10.3830758,13.5802432 10.3616775,13.7653611 C10.1442313,15.6472522 10.5191624,17.3830503 10.9337342,19.0016198 C9.91647083,19.644029 7.96661335,20.9498608 5.69508942,22.84807 C5.66514727,22.8489167 5.63381962,22.8492246 5.60133739,22.8492246 C5.22001756,22.8492246 4.24277966,22.7899561 3.35506031,22.2446857 C2.6737032,21.333182 2.31378162,20.2487989 2.31378162,19.1066867 C2.31378162,18.4924493 2.41877157,17.8910662 2.62590352,17.3192404 C2.82603101,16.7665037 3.11660072,16.2541003 3.48945362,15.7960393 C4.23716069,14.8773772 5.28205708,14.2325048 6.43163554,13.9801903 C6.6111345,13.9407805 6.79502087,13.9106075 6.97806054,13.8902868 C7.1504011,13.8711978 7.28725751,13.7438859 7.31088795,13.5805511 C7.32643631,13.473098 7.29533958,13.3652601 7.22552588,13.2845933 C7.16325544,13.2126244 7.07619998,13.1680575 6.9826019,13.1592827 C6.87530278,12.8679433 6.79332748,12.4595293 7.0198564,11.9960802 C7.03948429,11.9712952 7.05618723,11.9429694 7.06904158,11.9125655 C7.1721842,11.9241113 7.30626962,11.9340407 7.46290786,11.9340407 C7.74808953,11.9340407 8.0357343,11.9019433 8.31791406,11.8385953 C8.81453811,11.7270627 9.28514559,11.5210083 9.71642032,11.2259742 C10.2450648,10.8643593 10.7142098,10.3687359 11.1106931,9.75257412 C11.141251,9.7051593 11.1599553,9.65304918 11.1677294,9.60016934 C11.3750923,9.9700973 11.6654311,10.362732 12.0269691,10.757599 C12.4609379,11.2315162 12.9728794,11.6835734 13.5106065,12.0678182 C13.6532358,12.8831068 13.754762,13.8875928 13.7970967,14.9046253 C13.8041012,15.0745797 13.9427279,15.2077415 14.1125284,15.2077415 C14.2252926,15.2077415 14.334439,15.1610964 14.4122578,15.0797369 C14.4907694,14.9976076 14.5311797,14.8899236 14.5260226,14.7766207 C14.4910003,14.0022043 14.4233418,13.2414889 14.3291279,12.5574378 C14.3469855,12.5602088 14.3652278,12.5615173 14.3833933,12.5615173 C14.4489735,12.5615173 14.5135531,12.5438907 14.5701276,12.5104078 C14.6834306,12.4434421 14.7524745,12.3199788 14.7501654,12.1883565 C14.7497035,12.1576447 14.6992868,9.09677174 14.8199791,7.71797034 C14.8300624,7.60289704 14.8459956,7.45541848 14.864392,7.28461736 C14.9366688,6.61596065 15.0456613,5.60839573 15.0201066,4.59790588 C14.9879322,3.32324774 14.7543988,2.41051247 14.3061902,1.8076669 C13.7198167,1.0189337 13.081487,0.505452752 12.3548703,0.237820727 C11.9441471,0.0865705317 11.4893959,0.0098293384 11.00324,0.0098293384 M10.7648574,3.37805188 C10.9893851,3.37805188 11.226921,3.36950798 11.4767725,3.35026495 C11.4822375,3.34980312 11.4877795,3.34964918 11.4931675,3.34964918 C11.5713712,3.34964918 11.6438019,3.39259961 11.6809025,3.46233634 C11.6956042,3.48989236 12.0421326,4.14623354 12.2007721,5.02995033 C12.294986,5.55420737 12.3030681,6.05021564 12.2248644,6.50427412 C12.1255704,7.0800255 11.8872647,7.58765656 11.516567,8.01300444 C11.3917183,8.15640348 11.3514619,8.34791009 11.3936426,8.59860825 C11.4746172,9.07960696 11.8513187,9.70723754 12.4545492,10.3660418 C12.9497877,10.9068479 13.5572516,11.4193282 14.1619445,11.8101926 C14.1623294,11.8105004 14.1627142,11.8105004 14.1631761,11.8105004 C14.1641767,11.8105004 14.1651773,11.8097307 14.1651773,11.8084992 C14.155094,10.9306323 14.1431633,8.80196856 14.2424573,7.66747664 C14.2530795,7.54609162 14.2693206,7.39514931 14.2882557,7.22034565 C14.4250352,5.95500114 14.709755,3.32209316 13.8409708,2.15357956 C13.3165598,1.4483611 12.780757,1.01246804 12.1545119,0.781859598 C11.806598,0.653701036 11.4247393,0.58966024 11.0025473,0.58966024 C10.6196111,0.58966024 10.2034229,0.642309163 9.74921043,0.747607009 C9.25150877,0.86291123 8.73033062,1.1585611 8.35501461,1.53841846 C7.98169988,1.91635152 7.7868065,2.33946721 7.79842929,2.74133859 C7.79842929,2.74210831 7.79881415,2.74280106 7.7995069,2.74318592 C7.93366928,2.81769493 8.22323836,2.96170974 8.66105572,3.09279325 C9.12404296,3.23142002 9.83372581,3.37805188 10.7648574,3.37805188 M11.00324,0.163773558 C11.4756179,0.163773558 11.9060459,0.236589173 12.3016826,0.382297377 C12.9992808,0.639307251 13.6146728,1.13554644 14.182573,1.8995716 C14.6113077,2.4760927 14.8348347,3.35996344 14.8662393,4.60183146 C14.8914862,5.60208402 14.7831864,6.60349117 14.7116023,7.26606709 C14.6928981,7.43856158 14.6768109,7.58750262 14.6666506,7.70465417 C14.544111,9.10400712 14.5957593,12.1602617 14.5962212,12.1909736 C14.5976066,12.2675608 14.5577351,12.3389909 14.49177,12.3778619 C14.4582871,12.3976437 14.4208787,12.4075731 14.3833933,12.4075731 C14.3468315,12.4075731 14.3103467,12.3981825 14.2775566,12.3794013 C14.2302957,12.3522301 14.1828809,12.3243662 14.1353891,12.2957326 C14.2509243,13.0468265 14.3326686,13.9073746 14.3722323,14.7836251 C14.3789289,14.9309498 14.2602379,15.0537973 14.1127593,15.0537973 L14.1125284,15.0537973 C14.0255499,15.0537973 13.9545047,14.9850612 13.950887,14.8982366 C13.9073208,13.8510311 13.8027926,12.8231455 13.6513115,11.9796082 C13.6512346,11.9790694 13.6509267,11.9786075 13.6504648,11.9782996 C13.1109673,11.5982883 12.5826308,11.1364557 12.140503,10.6536096 C11.4825454,9.93499802 11.0682045,9.23024138 10.9737597,8.66926864 C10.9108735,8.29564602 10.9876147,7.9719783 11.1955933,7.73336476 C11.5129494,7.36905577 11.7176952,6.93331666 11.8041348,6.43800113 C11.8745643,6.03466728 11.8676368,5.5899994 11.7837372,5.11646698 C11.6762072,4.50969584 11.4677667,4.00853043 11.3651629,3.78615801 C11.364778,3.78546526 11.3640853,3.7850804 11.3633156,3.7850804 L11.3631616,3.7850804 C11.1511804,3.7983196 10.9479741,3.8044004 10.7532346,3.8044004 C9.34680025,3.8044004 8.38865142,3.48696742 7.8867163,3.2623628 C7.88640841,3.26220886 7.88610052,3.26213189 7.88579263,3.26213189 C7.88471502,3.26213189 7.88379136,3.26290161 7.88379136,3.26413316 C7.89364379,3.64422144 7.96876857,4.86853982 8.51542449,5.92636752 C8.95739834,6.78152766 9.59187944,6.96272 10.0426281,6.96572191 C10.042859,6.96572191 10.043013,6.96564494 10.0432439,6.96564494 C10.0582535,6.96110359 10.0741097,6.9580247 10.0904278,6.95702407 C10.0948152,6.95671618 10.0992026,6.95663921 10.1035131,6.95663921 C10.1211397,6.95663921 10.1382275,6.95879442 10.1546995,6.96279697 C10.3993938,6.94871108 10.5695022,6.88790311 10.5885143,6.88082168 C10.6133763,6.87135411 10.638931,6.86688973 10.6641009,6.86688973 C10.7498479,6.86688973 10.8305916,6.91915379 10.8629199,7.004131 C10.9047927,7.11404717 10.8492189,7.23712557 10.7393027,7.2789984 C10.7286805,7.28307792 10.5682707,7.34296222 10.3240381,7.37298135 C10.3229605,7.37313529 10.3221138,7.37390501 10.3221138,7.37490565 C10.3194968,7.64946516 10.2820114,8.07912348 10.1155977,8.54672905 C9.83657378,9.33053604 9.30715961,9.94223339 8.54205684,10.3648103 C7.96014769,10.6862458 7.5257171,11.0139161 7.2428446,11.3435876 C7.24169002,11.3448961 7.24245974,11.3469744 7.2442301,11.3470514 C7.30819392,11.3513618 7.37854643,11.3540558 7.45436396,11.3540558 C7.67181017,11.3540558 7.9333614,11.3324267 8.21130768,11.2682319 C8.63303787,11.1708622 9.03321587,10.9929027 9.40083467,10.7393566 C9.86336007,10.4205381 10.2767773,9.97948789 10.6296174,9.42875245 C10.6703357,9.36532743 10.7389178,9.33068998 10.8091164,9.33068998 C10.8512201,9.33068998 10.8939396,9.34315946 10.9313481,9.36940695 C11.0263317,9.4360648 11.0440353,9.57168966 10.981226,9.66929029 C10.5959036,10.2680563 10.1411524,10.7489781 9.6295188,11.0988933 C9.21440822,11.3828434 8.76173524,11.5812005 8.28427724,11.6883457 C7.97315598,11.7582364 7.69243869,11.7800965 7.46290786,11.7800965 C7.25762325,11.7800965 7.09328779,11.7626238 6.98421831,11.7461518 C6.96997847,11.7683967 6.95650835,11.7906416 6.94357704,11.8127326 C6.93888174,11.8238936 6.93418644,11.8352085 6.92979903,11.8464464 C6.92033146,11.8709235 6.9067074,11.8925527 6.89023537,11.911103 C6.89015839,11.9112569 6.89008142,11.9113339 6.89000445,11.9114878 C6.57849832,12.5314982 6.77577784,13.0683017 6.87915138,13.3167677 C6.88238421,13.3180762 6.8840776,13.3189229 6.88731043,13.3203084 C6.90793895,13.3143815 6.92833656,13.3116105 6.94827234,13.3116105 C7.0736599,13.3116105 7.17834197,13.4219116 7.15856014,13.558537 C7.14447424,13.6559068 7.05895823,13.7264132 6.96112668,13.7372663 C6.77262198,13.7581257 6.58342454,13.7892225 6.39869147,13.8298637 C5.21524529,14.0895676 4.13963703,14.7532981 3.37006988,15.6988235 C2.98628694,16.1702777 2.68725029,16.6978445 2.48119595,17.2667454 C2.26790624,17.8555051 2.1598374,18.4745148 2.1598374,19.1066867 C2.1598374,20.2930578 2.53646193,21.4170046 3.24906972,22.3599129 C3.24922366,22.3601438 3.24937761,22.3603748 3.2496855,22.3605287 C4.16688516,22.9339709 5.17090935,23.0031688 5.60133739,23.0031688 C5.6650703,23.0031688 5.71625675,23.0017064 5.75266456,23.00009 C5.75312639,23.000013 5.75358822,22.999859 5.75389611,22.9996281 C8.15611868,20.988039 10.2203567,19.630251 11.1096155,19.072896 C11.1103852,19.0724341 11.1106931,19.0715105 11.1104622,19.0706638 C10.666641,17.3495674 10.299484,15.6448661 10.5146211,13.7829877 C10.5270906,13.674534 10.6189183,13.594483 10.7256786,13.594483 C10.7369165,13.594483 10.7483084,13.5954067 10.7597773,13.597177 C10.8750815,13.6155734 10.9491287,13.7304927 10.9359664,13.8464897 C10.7547741,15.4355019 10.9982369,16.9019746 11.4907814,18.8385159 C11.544354,18.8063415 11.5734494,18.7893307 11.5760665,18.7877913 C11.6097803,18.7682403 11.6465729,18.7590037 11.6829038,18.7590037 C11.7562582,18.7590037 11.8276113,18.7969509 11.867098,18.8649173 C11.9262126,18.9665975 11.8917291,19.0968343 11.789972,19.1559489 C11.7835063,19.1597205 11.1308598,19.5401936 10.0920442,20.2472594 C9.13366447,20.8994441 7.6410983,21.9708189 5.9733436,23.3713264 C5.94024559,23.3990364 5.89952734,23.4161242 5.85657691,23.4201268 C5.84149037,23.4215892 5.74327396,23.4302871 5.58386472,23.4302871 C5.15566888,23.4302871 4.28673073,23.3677088 3.40624677,22.9343558 C3.40593888,22.9342018 3.40555402,22.9341249 3.40524613,22.9341249 C3.40386063,22.9341249 3.40278302,22.9354334 3.40324486,22.9368189 C3.45266095,23.080064 3.53071067,23.2459389 3.65386604,23.4099664 C3.84506476,23.6643593 4.10807846,23.8673347 4.43567176,24.0131969 C4.85070538,24.197853 5.37103684,24.2921438 5.983273,24.2921438 C5.99335634,24.2921438 6.00343969,24.2920668 6.01352304,24.2920668 C6.99884301,24.2878334 8.62510975,23.5664507 10.7165189,22.2058917 C12.1231842,21.2907703 13.3074771,20.3654116 13.5805742,20.149197 C13.580959,20.1488121 13.5811899,20.1485042 13.5813439,20.1480424 C13.8305796,18.9740638 13.964665,17.593569 13.973055,16.1284818 C13.9736707,16.0230301 14.0587249,15.937591 14.1640997,15.937591 L14.1821112,15.937591 C14.3018028,15.937591 14.3994804,16.0351147 14.3986337,16.1548833 C14.3884734,17.6716957 14.2456902,19.1012987 13.981214,20.3133015 C13.9708997,20.3607163 13.9446522,20.4032819 13.906782,20.4337629 C13.8936197,20.444385 12.5678521,21.5092172 10.9517457,22.5608101 C8.75919516,23.9875652 7.09836795,24.7131812 6.01537037,24.7178765 C6.00597977,24.7178765 5.99666615,24.7178765 5.98735252,24.7178765 C4.89327095,24.7178765 4.06266492,24.4429322 3.51801027,23.9007406 C3.0093016,23.3941872 2.9140871,22.8090452 2.89630654,22.599681 C2.89622957,22.5992962 2.8961526,22.5989883 2.89592168,22.5987574 C2.53299818,22.1145258 2.24904807,21.5807243 2.05215342,21.0106688 C1.84109589,20.3995872 1.73402769,19.7590253 1.73402769,19.1066867 C1.73402769,18.4249447 1.8507174,17.7571347 2.08086401,17.1218069 C2.30315946,16.5078774 2.62582655,15.9385917 3.03985953,15.4300369 C3.86984978,14.4102334 5.03028131,13.6942389 6.30732558,13.4139065 C6.35320096,13.4039001 6.39923028,13.3943555 6.44556749,13.3854268 C6.44679904,13.3851189 6.44756876,13.3839643 6.44710693,13.3827328 C6.38668383,13.2235544 6.31456096,12.9898671 6.29939745,12.7096117 C6.27892287,12.3287537 6.36736383,11.963444 6.56287298,11.6203024 L6.56287298,11.6201484 C6.81272445,11.0518633 7.4087195,10.5045147 8.33615645,9.99203435 C9.00758416,9.6212597 9.47126415,9.08691931 9.71441904,8.40386881 C9.85881872,7.99830276 9.89307131,7.62675839 9.89630414,7.38598963 C9.89638111,7.38483505 9.89553441,7.38398836 9.89445681,7.38391139 C9.85797203,7.38121736 9.82094844,7.37783059 9.78323211,7.37313529 C9.2953059,7.31124971 8.61371787,7.04400255 8.13710657,6.1217997 C7.43319663,4.75962428 7.45551854,3.20278639 7.45682707,3.13720615 C7.45744284,3.10495484 7.46537097,3.07462783 7.47876412,3.04761062 L7.47630101,3.04591723 C7.42342117,3.01074098 7.39001527,2.95347373 7.38270292,2.8903566 C7.3173536,2.32861414 7.55504348,1.74239455 8.05212936,1.2391509 C8.48171071,0.804335454 9.08016886,0.465504227 9.65307227,0.332727338 C10.1391511,0.220117142 10.5874367,0.163773558 11.00324,0.163773558" id="Fill-44" fill="#7A63AD"></path>
                                <path d="M1.94637834,9.46790816 C1.74024703,9.28386785 1.47553995,9.10429192 1.19482266,9.10429192 C0.896093906,9.10429192 0.615453594,9.21867247 0.403934237,9.42611231 C0.193107629,9.6333982 0.0764179104,9.90957413 0.0764179104,10.2033767 C0.0764179104,10.4966404 0.193107629,10.7726624 0.403934237,10.9801022 L1.74024703,12.2929385 C1.79728337,12.3488203 1.87179237,12.3766842 1.94660926,12.3766842 C2.02119523,12.3766842 2.09570423,12.3488203 2.1526636,12.2929385 L3.48843759,10.9801022 C3.69995694,10.7726624 3.81633877,10.4966404 3.81633877,10.2033767 C3.81633877,9.90957413 3.69995694,9.6333982 3.48843759,9.42611231 C3.27761098,9.21867247 2.99658581,9.10429192 2.69808796,9.10429192 C2.41721674,9.10429192 2.15243268,9.28386785 1.94637834,9.46790816" id="Fill-46" fill="#EF6354"></path>
                                <path d="M15.0069828,4.9497069 C15.0069828,4.9497069 14.9412486,7.00078271 15.5185395,8.38628068 C16.0958303,9.77177866 17.4395324,11.6335031 15.6306878,12.8650568 C14.1412005,13.8791644 12.69374,13.0320863 12.0932806,12.5427746 C11.0541571,11.6960814 10.6422024,8.49719749 10.8494113,8.17984149 C12.080965,6.2940248 15.0069828,4.9497069 15.0069828,4.9497069" id="Fill-48" fill="#7A63AD"></path>
                            </g>
                        </g>
                    </g>
                </g>
            </g>
        </g>
    </g>
</svg>