<?xml version="1.0" encoding="UTF-8"?>
<svg width="35px" height="32px" viewBox="0 0 35 32" version="1.1" xmlns="http://www.w3.org/2000/svg" xmlns:xlink="http://www.w3.org/1999/xlink">
    <title>Group 98</title>
    <defs>
        <path d="M0.00995723051,0.900576181 C0.00995723051,1.36801284 0.391255938,1.74709883 0.861616541,1.74709883 L0.861616541,1.74709883 C1.33197714,1.74709883 1.71319683,1.36801284 1.71319683,0.900576181 L1.71319683,0.900576181 C1.71319683,0.43290245 1.33197714,0.0538954858 0.861616541,0.0538954858 L0.861616541,0.0538954858 C0.391255938,0.0538954858 0.00995723051,0.43290245 0.00995723051,0.900576181 L0.00995723051,0.900576181 Z" id="path-1"></path>
    </defs>
    <g id="Page-1" stroke="none" stroke-width="1" fill="none" fill-rule="evenodd">
        <g id="LL21---Home-Copy" transform="translate(-17.000000, -790.000000)">
            <g id="Group-4-Copy-2" transform="translate(0.000000, 781.000000)">
                <g id="Group-98" transform="translate(17.000000, 9.000000)">
                    <g id="Group-91">
                        <path d="M18.1268062,31.6102477 C9.39787123,31.6102477 2.32167844,24.5340549 2.32167844,15.8051199 C2.32167844,7.07618489 9.39787123,-7.90256389e-06 18.1268062,-7.90256389e-06 C26.8557412,-7.90256389e-06 33.931934,7.07618489 33.931934,15.8051199 C33.931934,24.5340549 26.8557412,31.6102477 18.1268062,31.6102477 Z" id="Fill-1" fill="#F3F0FC"></path>
                        <path d="M34.5986733,12.1613741 C34.0446246,12.1405904 33.5694434,11.8268586 33.3167984,11.375069 C33.3019416,11.3483583 33.2880331,11.3210155 33.2746778,11.2934355 C33.2710426,11.2858491 33.2675655,11.2782626 33.2640093,11.2706761 C33.2540521,11.2490231 33.244569,11.227212 33.2355601,11.2050849 C33.2325571,11.1978145 33.2294751,11.1905441 33.2266302,11.1831948 C33.2155666,11.1548246 33.2052142,11.1260592 33.1958892,11.0968988 C33.1941507,11.0916831 33.1927282,11.0863093 33.1911477,11.0811727 C33.1835612,11.0566747 33.176607,11.0319397 33.1702849,11.0070466 C33.1679932,10.9979587 33.1657805,10.9888707 33.1636468,10.9797828 C33.1578779,10.9552848 33.1527412,10.9306288 33.1481577,10.9056567 C33.1469723,10.8994137 33.1455499,10.8931707 33.1445226,10.8868486 C33.1393069,10.8565028 33.1351185,10.8258408 33.1317994,10.7948628 C33.1309301,10.786328 33.1302979,10.7775562 33.1295077,10.7689424 C33.127374,10.7452347 33.1257145,10.7214479 33.1246871,10.6975032 C33.124213,10.687704 33.1237388,10.6779048 33.1235017,10.6680266 C33.1227905,10.6374437 33.1227115,10.6066237 33.1237388,10.5757247 C33.1238178,10.5743812 33.1237388,10.5731168 33.1238178,10.5718524 C33.1248452,10.5452208 33.114967,10.5207228 33.0981345,10.502705 C33.0813811,10.4845291 33.0576734,10.4729123 33.0311208,10.471885 C32.9778575,10.4699093 32.933208,10.5113978 32.9311533,10.5645821 C32.930047,10.5957972 32.9276762,10.6266962 32.9246732,10.6574372 C32.923883,10.6656558 32.9227766,10.6738745 32.9218283,10.6820142 C32.9192205,10.7050106 32.9161385,10.72777 32.9125823,10.7504504 C32.9111598,10.7589851 32.9097374,10.7675989 32.9082359,10.7762127 C32.9037314,10.801659 32.8985948,10.8267891 32.8929049,10.8518403 C32.8918776,10.8560286 32.8910873,10.860375 32.89006,10.8646424 C32.8828687,10.8947512 32.874808,10.9244648 32.8658782,10.9537833 C32.8646928,10.9577346 32.8632703,10.9615278 32.8620059,10.9654791 C32.8541824,10.9905302 32.8456476,11.0152653 32.8366387,11.0397632 C32.8342679,11.0460853 32.8318181,11.0524073 32.8293683,11.0587294 C32.8202013,11.0825161 32.8104812,11.1059867 32.8001288,11.1291412 C32.7982322,11.1332506 32.7964936,11.1375179 32.794597,11.1417063 C32.7689927,11.1978935 32.7400693,11.2521051 32.708143,11.3043411 C32.7065625,11.3069489 32.704982,11.3093197 32.7034805,11.3118485 C32.6885446,11.3359513 32.6729766,11.35958 32.6567763,11.3827345 C32.6551958,11.3850262 32.6536153,11.387318 32.6520348,11.3895307 C32.5977442,11.4662646 32.5367364,11.5378618 32.4697226,11.6032951 C32.4694855,11.6033741 32.4693275,11.6036112 32.4691694,11.6037692 C32.3786061,11.6920408 32.2772952,11.7691699 32.1675286,11.8330226 C32.1081803,11.8675568 32.0463032,11.8981397 31.9823715,11.9246923 C31.9800007,11.9256406 31.97763,11.9265889 31.9752592,11.9275373 C31.9125919,11.9531416 31.8479489,11.9746365 31.7816464,11.9917851 C31.7769839,11.9930495 31.7724004,11.9940768 31.7678169,11.9951832 C31.7396838,12.0022165 31.7112345,12.0083015 31.6825482,12.0138332 C31.6767794,12.0148606 31.6710895,12.016125 31.6653206,12.0171523 C31.6330782,12.0228422 31.6005986,12.0275837 31.567724,12.0312189 C31.5621132,12.0317721 31.5563443,12.0320882 31.5507335,12.0327204 C31.5237067,12.0353282 31.4964429,12.0373039 31.469021,12.0384892 C31.4596959,12.0388844 31.4502129,12.0393585 31.4408088,12.0395956 C31.4091985,12.0404649 31.3773512,12.0406229 31.3453458,12.0395166 C31.3440814,12.0394376 31.342817,12.0395166 31.3416316,12.0394376 C31.2884474,12.0374619 31.2437189,12.0789504 31.2417432,12.1321346 C31.2407159,12.1587663 31.2505941,12.1831852 31.2674266,12.2013611 C31.28418,12.2193789 31.3078877,12.2311538 31.3345193,12.2321021 C31.3385496,12.2321811 31.3424219,12.2326552 31.3464522,12.2328133 C31.3749804,12.2342358 31.4033507,12.2362904 31.4314048,12.2391353 C31.4421522,12.2402417 31.4528207,12.2415061 31.4634892,12.2427705 C31.4885403,12.2458525 31.5134334,12.2494877 31.5381684,12.2537551 C31.5456758,12.2550985 31.5533413,12.2560468 31.5608487,12.2575483 C31.5921429,12.2633962 31.6230419,12.2702714 31.6536249,12.278095 C31.6608952,12.2799126 31.6680865,12.2819672 31.6752779,12.2839429 C31.7016724,12.2910552 31.7277509,12.2987207 31.7535923,12.3072554 C31.7592821,12.309073 31.76513,12.3109697 31.7708199,12.3128663 C31.8348306,12.3346773 31.8968658,12.3605978 31.9566882,12.3903114 C31.9598492,12.3919709 31.9630102,12.3935514 31.9662503,12.395132 C32.027179,12.426031 32.0858161,12.4606442 32.1417662,12.4989716 C32.1424775,12.4995248 32.1432677,12.500078 32.1439789,12.5006312 C32.1694252,12.5180959 32.1943183,12.5362717 32.2185791,12.5552379 C32.2189743,12.555554 32.2194484,12.5559491 32.2199226,12.5562652 C32.2936535,12.614033 32.3618526,12.6782808 32.4238878,12.7482185 C32.4254683,12.7500361 32.4271278,12.7519327 32.4287873,12.7537503 C32.4894,12.8227397 32.5439277,12.8972609 32.5915011,12.9762865 C32.5937139,12.9800007 32.5960056,12.983952 32.5982973,12.9878242 C32.6115736,13.0103466 32.6243758,13.033264 32.6365457,13.0565766 C32.6386794,13.0606859 32.6408922,13.0647162 32.6429468,13.0687465 C32.6704477,13.1224049 32.6947876,13.1778019 32.7158085,13.2347794 C32.7178631,13.2401531 32.7196807,13.2457639 32.7216564,13.2512167 C32.729717,13.273818 32.7372244,13.2966564 32.7442577,13.3197319 C32.7465494,13.3270813 32.7486831,13.3345097 32.7508958,13.3418591 C32.7577711,13.3657249 32.7640141,13.3899067 32.7697039,13.4141676 C32.7708893,13.4192252 32.7723118,13.4242038 32.7734182,13.4293405 C32.7800563,13.4588961 32.7858252,13.4886887 32.7907248,13.5187975 C32.791515,13.5237761 32.7920682,13.5289128 32.7927794,13.5338914 C32.7965727,13.5585474 32.7997337,13.5833615 32.8022625,13.6084126 C32.8031318,13.6173425 32.8039221,13.6263514 32.8046333,13.6353603 C32.8065299,13.6578826 32.8078733,13.680563 32.8088216,13.7032434 C32.8091377,13.7116991 32.8096119,13.7201548 32.8097699,13.7286896 C32.8104812,13.7594306 32.8105602,13.7903296 32.8093748,13.8215447 C32.8089007,13.8349001 32.8111134,13.8476232 32.8155388,13.859319 C32.8288151,13.8944854 32.8621639,13.9200107 32.9020719,13.9214331 C32.9552561,13.9234878 32.9999847,13.8819994 33.0019603,13.8288151 C33.0020393,13.8275507 33.0021184,13.8262863 33.0021974,13.8250219 C33.0034618,13.7939648 33.0058326,13.7633028 33.0089146,13.732878 C33.0098629,13.7229998 33.0111273,13.7131216 33.0122336,13.7033224 C33.0150786,13.6796937 33.0183976,13.6562231 33.0223489,13.6329896 C33.0237714,13.6242177 33.0250358,13.6153668 33.0266953,13.606674 C33.0323061,13.5762492 33.0387072,13.5461404 33.0460566,13.5165058 C33.0477952,13.5097096 33.0497708,13.5029134 33.0515884,13.4961172 C33.0578314,13.4724095 33.0645486,13.4489389 33.071898,13.4257843 C33.074901,13.4163013 33.077983,13.4068182 33.081144,13.3974141 C33.0889675,13.3740225 33.0974233,13.350868 33.1064322,13.3280296 C33.1087239,13.3220237 33.1108576,13.3158597 33.1133074,13.3099328 C33.1246871,13.2820367 33.1368571,13.2546148 33.1498173,13.227588 C33.1536105,13.2196064 33.1577198,13.2117039 33.1616711,13.2038013 C33.1717074,13.1837288 33.1821388,13.1638143 33.1930443,13.144216 C33.1977068,13.1358393 33.2022903,13.1274626 33.2071109,13.1190858 C33.2219677,13.0935606 33.2372987,13.0682723 33.2535779,13.0436163 C33.5390976,12.6111881 34.0368801,12.3331759 34.591482,12.3539596 C34.6446663,12.3559352 34.6893948,12.3144468 34.6913704,12.2612625 C34.6933461,12.2080783 34.6518576,12.1633498 34.5986733,12.1613741" id="Fill-13" fill="#EF6354"></path>
                        <path d="M5.65364436,13.9551929 C4.73188931,13.9551929 3.92290384,13.4633373 3.47514457,12.7284779 C3.44867098,12.6850928 3.42385693,12.6405224 3.39999119,12.5954778 C3.39343206,12.5831498 3.38726806,12.5706637 3.38094601,12.5582567 C3.36300719,12.5230112 3.34585862,12.4873707 3.32950032,12.4511769 C3.32412657,12.439165 3.31851575,12.4273902 3.31330006,12.4153783 C3.29314852,12.3688322 3.2742614,12.3217329 3.25679673,12.2739224 C3.25371473,12.2653086 3.25110688,12.2566158 3.24810391,12.248002 C3.23395832,12.207857 3.22084006,12.1671588 3.20874914,12.1260655 C3.20432371,12.1112086 3.20013535,12.0963518 3.19602601,12.0813369 C3.1848834,12.0409548 3.17476812,12.0003357 3.16568017,11.9591633 C3.16338842,11.948811 3.16070155,11.9385376 3.15848883,11.9281853 C3.14797842,11.878004 3.13920658,11.8271905 3.13169914,11.7760609 C3.12964448,11.7618363 3.12806396,11.7474536 3.12624637,11.73315 C3.12118873,11.6939533 3.11700037,11.6545195 3.11376032,11.6146906 C3.11241689,11.5984113 3.11107345,11.582211 3.11004612,11.5657737 C3.10688509,11.5150392 3.10483043,11.4639887 3.10467237,11.4123849 C3.10467237,11.4102512 3.10451432,11.4081966 3.10451432,11.4059838 C3.10451432,11.3618085 3.0865755,11.3217425 3.05757309,11.2927401 C3.02857068,11.2636587 2.98850469,11.2457198 2.94425033,11.2457198 C2.85574161,11.2457198 2.78406536,11.3174751 2.78406536,11.4059048 C2.78406536,11.4578247 2.78208972,11.5094284 2.77900772,11.560558 C2.77813843,11.5743875 2.77687402,11.5879799 2.77584669,11.6017303 C2.77292274,11.6399788 2.76920854,11.6780691 2.76462505,11.7158434 C2.76288649,11.730226 2.7610689,11.7446087 2.75917228,11.7589123 C2.75316633,11.8014281 2.74621208,11.8436278 2.73823049,11.8855114 C2.73688705,11.8926237 2.73585972,11.8998941 2.73443726,11.9070064 C2.72432197,11.9574247 2.71270521,12.0072899 2.69966598,12.0566019 C2.69792741,12.0632401 2.69587274,12.0697202 2.69405515,12.0762793 C2.68259644,12.1183209 2.67003136,12.1599675 2.65643895,12.2012188 C2.6528828,12.2118873 2.64924762,12.2225558 2.64561244,12.2332242 C2.63178295,12.2732902 2.61708418,12.3128821 2.60135808,12.3519998 C2.59851316,12.3591121 2.59590531,12.3662244 2.59298136,12.3731786 C2.55386367,12.4681675 2.50921419,12.5601533 2.45942803,12.6488991 C2.45705726,12.6530874 2.45452844,12.6572758 2.45215767,12.6615432 C2.42884511,12.7024785 2.40442619,12.7427815 2.37897993,12.7822944 C2.37645111,12.7861666 2.37408034,12.7900389 2.37155152,12.7939111 C2.28612481,12.9247776 2.18916035,13.0475044 2.08184353,13.160274 C2.08152743,13.1605901 2.08129035,13.1609062 2.08097425,13.1611433 C1.93612025,13.3134257 1.7726162,13.4478483 1.59417631,13.5607759 C1.49768601,13.6217837 1.39677027,13.6765485 1.29214032,13.7245171 C1.28826806,13.7263346 1.28447483,13.7279942 1.28060258,13.7298118 C1.17810632,13.7761998 1.07197489,13.8158707 0.962840482,13.8485873 C0.955254021,13.8508791 0.94766756,13.8529337 0.940081098,13.8550674 C0.8938511,13.8684227 0.846988896,13.8805137 0.799652538,13.8911821 C0.790169461,13.8933949 0.780686385,13.8957656 0.771203308,13.8978203 C0.718019053,13.909279 0.664360644,13.9191572 0.609991004,13.9272178 C0.600665979,13.9285613 0.591182902,13.9295886 0.581778851,13.930774 C0.53705034,13.937017 0.4919267,13.9418376 0.446486957,13.9455518 C0.430918907,13.9468952 0.41527183,13.9480806 0.399624754,13.949187 C0.347151729,13.9525851 0.294283577,13.9547978 0.240941271,13.9548768 C0.238886604,13.9548768 0.236910963,13.9550348 0.234856296,13.9550348 C0.146347581,13.9550348 0.0745923006,14.0267111 0.0745923006,14.1152198 C0.0745923006,14.1595532 0.0926101463,14.1996192 0.121612556,14.2286216 C0.150614965,14.257624 0.190680964,14.2755628 0.234935322,14.2755628 C0.241652501,14.2755628 0.248211629,14.276037 0.254928809,14.276116 C0.302423218,14.2765111 0.349601524,14.2782497 0.396463728,14.2812527 C0.414323522,14.282359 0.432104291,14.2837815 0.44988506,14.285362 C0.491768649,14.2888391 0.53341516,14.2933436 0.574666544,14.2989544 C0.58723162,14.3005349 0.599954748,14.3018784 0.612519825,14.303696 C0.664992849,14.3115985 0.716754643,14.3210816 0.768042282,14.3321452 C0.780212231,14.334674 0.792224128,14.337756 0.804315051,14.3404429 C0.848569408,14.3506372 0.892428638,14.3618588 0.935813714,14.3743449 C0.945533867,14.3771108 0.955254021,14.3797186 0.964816123,14.3825636 C1.07252807,14.4149641 1.17723704,14.4540818 1.27846888,14.4999166 C1.28392165,14.5022874 1.2892954,14.5047372 1.29466914,14.507187 C1.3977976,14.5546814 1.4973699,14.6085769 1.59267482,14.6687944 C1.59401826,14.6696637 1.59528267,14.670533 1.59662611,14.6714023 C1.63985313,14.6988242 1.68236893,14.7275105 1.72377836,14.7574612 C1.72456862,14.7580144 1.72535887,14.7585675 1.72614913,14.7591998 C1.85219502,14.8503953 1.9695481,14.9530496 2.07694394,15.0652661 C2.07970984,15.068269 2.08263379,15.071272 2.08539968,15.0741959 C2.19042476,15.1850689 2.28557163,15.305425 2.36949686,15.4336836 C2.37360619,15.4399266 2.37755747,15.4462487 2.38158778,15.4524917 C2.40513742,15.4891596 2.42773875,15.5265387 2.44939178,15.564392 C2.45310598,15.5710301 2.45705726,15.5775893 2.46085049,15.5842274 C2.50976736,15.6717088 2.55362659,15.7621932 2.59219111,15.8555224 C2.59590531,15.8644523 2.59930341,15.8735403 2.60285957,15.8825492 C2.61771639,15.9195332 2.6316249,15.9570704 2.64466413,15.9949237 C2.64893151,16.0070936 2.65304085,16.0191845 2.65707116,16.0313545 C2.66995233,16.0706302 2.68188521,16.1103011 2.69286977,16.150209 C2.69516151,16.1585858 2.69776936,16.1668044 2.69998208,16.1752602 C2.71278423,16.2238609 2.72424295,16.2730149 2.73427921,16.322722 C2.73593874,16.3309407 2.73712413,16.3394755 2.73870464,16.3477731 C2.74644915,16.3884713 2.75324536,16.4294857 2.75901423,16.4708161 C2.7610689,16.4856729 2.76288649,16.5006878 2.76470408,16.5155446 C2.76920854,16.5528447 2.77284372,16.5903819 2.77576767,16.6280771 C2.77687402,16.6421436 2.77813843,16.6561312 2.77900772,16.6701978 C2.78208972,16.7213273 2.78406536,16.772694 2.78406536,16.8246139 C2.78406536,16.846741 2.78856982,16.8678409 2.79670946,16.8870441 C2.82104936,16.9444957 2.87794782,16.9848778 2.94432935,16.9848778 C3.03283807,16.9848778 3.10451432,16.9132016 3.10451432,16.8246929 C3.10451432,16.8225592 3.10467237,16.8205045 3.10467237,16.8182918 C3.10483043,16.7667671 3.10688509,16.7157165 3.11004612,16.664903 C3.11107345,16.6483867 3.11249591,16.6319493 3.11376032,16.615512 C3.11700037,16.5760782 3.12118873,16.5369605 3.12616735,16.4980799 C3.12806396,16.4833811 3.12964448,16.4686824 3.13177817,16.4541417 C3.13920658,16.4033282 3.14797842,16.3529098 3.15833078,16.3031237 C3.16078058,16.2915069 3.16378355,16.2802852 3.16631237,16.2687475 C3.17516324,16.2290766 3.1848834,16.1897219 3.19563089,16.1507622 C3.1999773,16.134799 3.20456078,16.1188359 3.2092233,16.1029517 C3.22084006,16.063676 3.23348417,16.0246373 3.24691852,15.9861518 C3.25039565,15.9760365 3.25355668,15.9656842 3.25719186,15.9556479 C3.27434042,15.9086277 3.29299047,15.8623186 3.31274688,15.8166418 C3.31859478,15.8031284 3.32491683,15.7898521 3.3310018,15.7764178 C3.3464118,15.7423577 3.36253303,15.7086138 3.37944452,15.675502 C3.38663585,15.6611984 3.39374816,15.6468948 3.4012556,15.6328282 C3.42433108,15.5894431 3.44819683,15.5465322 3.47372211,15.5045696 C3.92116528,14.7683667 4.730941,14.2755628 5.65364436,14.2755628 C5.74215307,14.2755628 5.81382933,14.2038076 5.81382933,14.1153779 C5.81382933,14.0268692 5.74207405,13.9551929 5.65364436,13.9551929" id="Fill-83" fill="#EF6354"></path>
                        <path d="M34.0145869,18.9335 C33.0928319,18.9335 32.2838464,18.4416444 31.8360871,17.706785 C31.8096136,17.6633999 31.7848785,17.6188294 31.7609338,17.5737848 C31.7544537,17.5614568 31.7482106,17.5489708 31.7418886,17.5365637 C31.7239498,17.5013183 31.7068012,17.4656777 31.6905219,17.429484 C31.6850692,17.4174721 31.6795374,17.4056973 31.6743217,17.3936854 C31.6541701,17.3471393 31.635204,17.30004 31.6177393,17.2522295 C31.6146573,17.2436157 31.6120495,17.2349229 31.6090465,17.2263091 C31.5949009,17.1861641 31.5818617,17.1454658 31.5696917,17.1043725 C31.5652663,17.0895157 31.5610779,17.0746589 31.5569686,17.059644 C31.545905,17.0192619 31.5357897,16.9786427 31.5266227,16.9374704 C31.524331,16.927118 31.5216441,16.9168447 31.5194314,16.9064923 C31.508921,16.856311 31.5001492,16.8054975 31.4926417,16.754368 C31.4905871,16.7401433 31.4890065,16.7257607 31.487189,16.711457 C31.4821313,16.6722603 31.477943,16.6328265 31.4747029,16.5929976 C31.4733595,16.5767973 31.472016,16.5605181 31.4709887,16.5441598 C31.4678277,16.4933463 31.465773,16.4422957 31.465615,16.390692 C31.465615,16.3885583 31.4654569,16.3865036 31.4654569,16.3842909 C31.4654569,16.3401156 31.4475181,16.3000496 31.4185157,16.2710472 C31.3895133,16.2419657 31.3494473,16.2240269 31.3051929,16.2240269 C31.2166842,16.2240269 31.1450079,16.2957822 31.1450079,16.3842119 C31.1450079,16.4362107 31.1430323,16.4877355 31.1399503,16.538865 C31.13916,16.5526945 31.1378956,16.5662869 31.1367893,16.5800374 C31.1338653,16.6182858 31.1301511,16.6563762 31.1255676,16.6941504 C31.1238291,16.7085331 31.1220905,16.7229158 31.1201149,16.7372194 C31.1141089,16.7797352 31.1072337,16.8219349 31.0991731,16.8638185 C31.0978296,16.8709308 31.0968023,16.8782011 31.0953798,16.8853134 C31.0852646,16.9357318 31.0736478,16.985597 31.0606876,17.034909 C31.05887,17.0415471 31.0568153,17.0480272 31.0549977,17.0545864 C31.043539,17.096628 31.0309739,17.1382745 31.0173815,17.1795259 C31.0139044,17.1901944 31.0101902,17.2008628 31.006555,17.2115313 C30.9927255,17.2515973 30.9780268,17.2911891 30.9623007,17.3303068 C30.9594557,17.3374191 30.9568479,17.3445314 30.954003,17.3514857 C30.9148062,17.4464745 30.8702358,17.5384603 30.8203706,17.6272061 C30.8179998,17.6313945 30.81555,17.6355829 30.8131003,17.6398502 C30.7897877,17.6807855 30.7653688,17.7210886 30.7399225,17.7606014 C30.7374727,17.7644737 30.7350229,17.7683459 30.7324941,17.7722182 C30.6470674,17.9030846 30.5501029,18.0258115 30.4427861,18.1385811 C30.442549,18.1388972 30.4422329,18.1392133 30.4419959,18.1394503 C30.2970628,18.2917327 30.1335588,18.4261554 29.9551979,18.539083 C29.8587076,18.6000908 29.7577128,18.6548556 29.6530829,18.7028241 C29.6492897,18.7046417 29.6454174,18.7063012 29.6415452,18.7081188 C29.5390489,18.7545069 29.4329175,18.7941778 29.3237831,18.8268944 C29.3161966,18.8291861 29.3086101,18.8312408 29.3010237,18.8333745 C29.2547937,18.8467298 29.2079315,18.8588207 29.1605951,18.8694892 C29.151112,18.8717019 29.141629,18.8740727 29.1322249,18.8761273 C29.0789616,18.8875861 29.0253032,18.8974643 28.9709336,18.9055249 C28.9616086,18.9068683 28.9521255,18.9078956 28.9428005,18.909081 C28.8980719,18.9153241 28.8528693,18.9201446 28.8074295,18.9238588 C28.7918615,18.9252023 28.7762144,18.9263876 28.7605673,18.927494 C28.7080943,18.9308921 28.6552262,18.9331048 28.6019629,18.9331839 C28.5998292,18.9331839 28.5978535,18.9333419 28.5957989,18.9333419 C28.5072902,18.9333419 28.4355349,19.0050182 28.4355349,19.0935269 C28.4355349,19.1378603 28.4535527,19.1779263 28.4825551,19.2069287 C28.5115575,19.2359311 28.5516235,19.2538699 28.5958779,19.2538699 C28.6025951,19.2538699 28.6091542,19.254344 28.6158714,19.2544231 C28.6633658,19.2548182 28.7105441,19.2565568 28.7574063,19.2595597 C28.7752661,19.2606661 28.7930469,19.2620886 28.8108276,19.2636691 C28.8527112,19.2671462 28.8943577,19.2716507 28.9356091,19.2772615 C28.9482532,19.278842 28.9609764,19.2801854 28.9734624,19.282003 C29.0259354,19.2899056 29.0776972,19.2993887 29.1290639,19.3104523 C29.1412338,19.3130601 29.1531667,19.3160631 29.1652576,19.3187499 C29.209512,19.3289443 29.2533712,19.3401659 29.2967563,19.3526519 C29.3064764,19.3554178 29.3161966,19.3580257 29.3258377,19.3608706 C29.4334706,19.3932711 29.5381796,19.4324678 29.6394115,19.4782237 C29.6448642,19.4805945 29.650238,19.4830442 29.6556117,19.485494 C29.7587402,19.5329885 29.8583915,19.586963 29.9536174,19.6471015 C29.9549608,19.6479708 29.9562252,19.64884 29.9575687,19.6497093 C30.0007957,19.6771312 30.0433115,19.7058175 30.0847209,19.7357682 C30.0855112,19.7364004 30.0863805,19.7368746 30.0870917,19.7375068 C30.2131376,19.8287024 30.3304907,19.9313567 30.4378865,20.0435731 C30.4407314,20.0465761 30.4435764,20.0495791 30.4464213,20.052503 C30.5513673,20.163376 30.6465142,20.283732 30.7304394,20.4119906 C30.7345488,20.4182337 30.7385,20.4245557 30.7425304,20.4307987 C30.76608,20.4674666 30.7886813,20.5048458 30.8103344,20.542699 C30.8141276,20.5493372 30.8179998,20.5558963 30.8217931,20.5625345 C30.8707099,20.6500159 30.9145692,20.7405002 30.9531337,20.8338295 C30.9568479,20.8427594 30.960246,20.8518473 30.9638812,20.8608563 C30.978659,20.8978403 30.9925675,20.9353774 31.0056857,20.9732307 C31.0098741,20.9854007 31.0139834,20.9974916 31.0180137,21.0096615 C31.0308949,21.0489373 31.0428278,21.0886082 31.0538123,21.1285161 C31.0561041,21.1368928 31.0587119,21.1451115 31.0609247,21.1535672 C31.0738058,21.202168 31.0851855,21.2513219 31.0952218,21.3010291 C31.0968813,21.3092477 31.0980667,21.3177825 31.0996472,21.3260802 C31.1073917,21.3667784 31.1141879,21.4077927 31.1199568,21.4491231 C31.1220115,21.4639799 31.1238291,21.4789948 31.1256467,21.4938516 C31.1301511,21.5311517 31.1338653,21.5686889 31.1367102,21.6063841 C31.1378166,21.6204507 31.139081,21.6344382 31.1399503,21.6485048 C31.1430323,21.6996344 31.1450079,21.7510011 31.1450079,21.8029209 C31.1450079,21.8250481 31.1495124,21.8461479 31.157652,21.8653512 C31.1819919,21.9228028 31.2388904,21.9631849 31.3052719,21.9631849 C31.3937806,21.9631849 31.4654569,21.8915086 31.4654569,21.8029999 C31.4654569,21.8008662 31.465615,21.7988116 31.465615,21.7965989 C31.465773,21.7450741 31.4678277,21.6940236 31.4709887,21.6432101 C31.472016,21.6266937 31.4734385,21.6102564 31.4747819,21.5938191 C31.477943,21.5543853 31.4821313,21.5152676 31.4871099,21.476387 C31.4890065,21.4616882 31.4905871,21.4469894 31.4927207,21.4324487 C31.5001492,21.3816352 31.508921,21.3312169 31.5193524,21.2814307 C31.5217232,21.2698139 31.5247261,21.2585923 31.527255,21.2470546 C31.5361058,21.2073837 31.545905,21.1680289 31.5565735,21.1290693 C31.5609989,21.1131061 31.5655034,21.0971429 31.5701659,21.0813378 C31.5817826,21.041983 31.5944267,21.0029444 31.6078611,20.9644589 C31.6114173,20.9543436 31.6144993,20.9439912 31.6182135,20.933955 C31.635283,20.8869347 31.653933,20.8406257 31.6736895,20.7949489 C31.6796164,20.7814355 31.6858594,20.7681592 31.6919444,20.7547248 C31.7073544,20.7206648 31.7234756,20.6869208 31.7403871,20.6538091 C31.7475784,20.6395054 31.7546907,20.6252808 31.7621982,20.6111352 C31.7852737,20.5677502 31.8091394,20.5248392 31.8346647,20.4828766 C32.2821079,19.7466738 33.0918836,19.2538699 34.0145869,19.2538699 C34.1030957,19.2538699 34.1747719,19.1821146 34.1747719,19.0936849 C34.1747719,19.0051762 34.1030166,18.9335 34.0145869,18.9335" id="Fill-85" fill="#8B7FBF"></path>
                        <path d="M7.37391398,21.2337308 C6.81986523,21.2129471 6.34468406,20.8992153 6.09203909,20.4474257 C6.07718227,20.4207151 6.06327376,20.3933722 6.04991843,20.3657922 C6.04628325,20.3582058 6.04280612,20.3506193 6.03924996,20.3430329 C6.02929273,20.3213798 6.01980966,20.2995688 6.01080073,20.2774416 C6.00779776,20.2701712 6.00471576,20.2629799 6.00187084,20.2555515 C5.99080725,20.2271813 5.98045489,20.1984159 5.97112986,20.1692555 C5.96947033,20.1640398 5.96796884,20.1587451 5.96638833,20.1535294 C5.95880186,20.1290314 5.95184761,20.1042964 5.94552556,20.0794033 C5.94323381,20.0703154 5.9410211,20.0612274 5.9388874,20.0521395 C5.93311853,20.0276415 5.92798186,20.0029855 5.92339838,19.9780134 C5.92221299,19.9717704 5.92079053,19.9655274 5.9197632,19.9592844 C5.91454751,19.9288595 5.91035915,19.8981975 5.90704007,19.8672195 C5.90617079,19.8586847 5.90553858,19.8499129 5.90474833,19.8412991 C5.90261463,19.8176704 5.9009551,19.7938047 5.89992776,19.7698599 C5.89945361,19.7600607 5.89897946,19.7502615 5.89874238,19.7403833 C5.89803115,19.7098004 5.89795212,19.6789804 5.89897946,19.6480814 C5.89905848,19.646738 5.89897946,19.6454735 5.89905848,19.6442091 C5.90008581,19.6175775 5.89020761,19.5930795 5.87337515,19.5750617 C5.85662171,19.5568858 5.83291402,19.545269 5.80636141,19.5442417 C5.75317715,19.5422661 5.70844864,19.5837545 5.70639397,19.6369388 C5.70528761,19.6681539 5.70291684,19.6990529 5.69991387,19.7297939 C5.69912361,19.7380126 5.69801726,19.7462312 5.69714797,19.7544499 C5.69454013,19.7773673 5.6913791,19.8001267 5.68782295,19.8228071 C5.68640049,19.8314209 5.68497802,19.8399556 5.68347654,19.8485694 C5.67897208,19.8740157 5.67383541,19.8992249 5.66814556,19.924197 C5.66711823,19.9283853 5.66632797,19.9327317 5.66530064,19.9369991 C5.65810931,19.9671079 5.65004869,19.9968215 5.6411188,20.02614 C5.63993341,20.0300913 5.63851095,20.0338846 5.63724654,20.0378358 C5.629423,20.062887 5.62096726,20.087622 5.61187931,20.1121199 C5.60950854,20.118442 5.60705874,20.124764 5.60460895,20.1310861 C5.59544198,20.1548728 5.58572182,20.1783434 5.57536946,20.2014189 C5.57347285,20.2056863 5.57173428,20.2098747 5.56983767,20.214063 C5.54423336,20.2702502 5.51530998,20.3245409 5.48338362,20.3766978 C5.48180311,20.3792266 5.48022259,20.3816764 5.47872111,20.3842052 C5.46378526,20.408308 5.44821721,20.4319367 5.43201695,20.4550912 C5.43043644,20.457383 5.42885593,20.4596747 5.42727542,20.4618874 C5.3729848,20.5387003 5.31197701,20.6102185 5.24496327,20.6756518 C5.24472619,20.6758098 5.24456814,20.6759679 5.24441009,20.6761259 C5.15384671,20.7644766 5.05253584,20.8415266 4.94284825,20.9053793 C4.88342097,20.9399135 4.82154389,20.9705755 4.75761215,20.997049 C4.75524138,20.9979974 4.75287061,20.9989457 4.75049984,20.999973 C4.68783251,21.0254983 4.62318954,21.0470723 4.55688703,21.0641418 C4.55222452,21.0654062 4.54764103,21.0664336 4.54305754,21.0675399 C4.51492441,21.0745732 4.48647518,21.0807372 4.45778888,21.08619 C4.45202001,21.0872173 4.44633016,21.0884817 4.44056129,21.089509 C4.40831883,21.0951989 4.37583929,21.0999404 4.34296462,21.1035756 C4.3373538,21.1041288 4.33158493,21.1044449 4.32597411,21.1050771 C4.29894734,21.1076849 4.2716835,21.1096606 4.2442616,21.110846 C4.23493658,21.1113201 4.2254535,21.1117153 4.21604945,21.1119523 C4.18443919,21.1128216 4.15259186,21.1130587 4.12058648,21.1118733 C4.11932207,21.1117943 4.11805766,21.1118733 4.11687227,21.1117943 C4.06368802,21.1098186 4.0189595,21.1513071 4.01698386,21.2044914 C4.01595653,21.231123 4.02583474,21.2555419 4.0426672,21.2737178 C4.05942063,21.2917357 4.08312832,21.3035105 4.10975996,21.3045378 C4.11379027,21.3046168 4.11766253,21.305012 4.12169284,21.30517 C4.15030012,21.3065925 4.1785913,21.3086471 4.2066454,21.3114921 C4.21739288,21.3125984 4.22806135,21.3138628 4.23872981,21.3151272 C4.26378093,21.3182092 4.28867401,21.3218444 4.31340904,21.3261118 C4.32091647,21.3274552 4.32858196,21.3284826 4.33608939,21.329905 C4.36738355,21.3357529 4.39828257,21.3426282 4.42886549,21.3504517 C4.43613585,21.3522693 4.44332719,21.354324 4.45051852,21.3562996 C4.47691308,21.3634119 4.50299154,21.3710774 4.52883293,21.3796122 C4.53452277,21.3815088 4.54037067,21.3833264 4.54606052,21.385223 C4.61007128,21.4070341 4.67210641,21.4329545 4.73192882,21.4627471 C4.73508984,21.4643277 4.73825087,21.4659082 4.74149092,21.4674887 C4.80241969,21.4983877 4.86105671,21.5330009 4.91700687,21.5713284 C4.9177181,21.5718815 4.91850835,21.5724347 4.91921958,21.5729879 C4.94466584,21.5904526 4.96955892,21.6086285 4.99381979,21.6275946 C4.99429394,21.6279897 4.99468907,21.6283059 4.99516322,21.628701 C5.06889414,21.6863897 5.13709327,21.7507166 5.1991284,21.8205752 C5.20070891,21.8223928 5.20236845,21.8242894 5.20402799,21.826107 C5.26464065,21.8950964 5.31916834,21.9696176 5.36674178,22.0486432 C5.36895449,22.0523574 5.37124624,22.0563087 5.37353798,22.060181 C5.38681429,22.0827033 5.39961644,22.1056207 5.41178639,22.1289333 C5.41392008,22.1330426 5.4161328,22.1370729 5.41818747,22.1411032 C5.44568839,22.1947616 5.47002829,22.2501586 5.49104911,22.3071361 C5.49310377,22.3125889 5.49492136,22.3181207 5.496897,22.3235734 C5.50495762,22.3461748 5.51246506,22.3690132 5.51949834,22.3920887 C5.52179008,22.3995171 5.5240028,22.4068664 5.52613649,22.4142949 C5.53301172,22.4381606 5.53925475,22.4622634 5.54494459,22.4866033 C5.54612998,22.4915819 5.54755244,22.4965605 5.5486588,22.5016972 C5.55529695,22.5312528 5.56106582,22.5610455 5.56596541,22.5911542 C5.56675567,22.5961329 5.56730885,22.6012695 5.56802008,22.6063272 C5.57181331,22.6309832 5.57497434,22.6557182 5.57750316,22.6807693 C5.57837244,22.6896992 5.57916269,22.6987081 5.57995295,22.7077171 C5.58177054,22.7302394 5.58311398,22.7529197 5.58406228,22.7756791 C5.58437839,22.7840558 5.58485254,22.7925906 5.58501059,22.8010463 C5.58572182,22.8318663 5.58580085,22.8626863 5.58461546,22.8939015 C5.58414131,22.9072568 5.58635403,22.9200589 5.59077946,22.9316757 C5.6041348,22.9668421 5.63740459,22.9923674 5.67731254,22.9937899 C5.73049679,22.9958445 5.7752253,22.9543561 5.77720095,22.9011718 C5.77727997,22.8999074 5.777359,22.898643 5.77743802,22.8973786 C5.77870243,22.8664005 5.7810732,22.8356596 5.7841552,22.8052347 C5.78510351,22.7953565 5.78636792,22.7855573 5.78747428,22.7756791 C5.7903192,22.7520504 5.79363828,22.7285798 5.79758956,22.7053463 C5.79901202,22.6965744 5.80027643,22.6877236 5.80193597,22.6790307 C5.80754679,22.6486849 5.81394787,22.6185761 5.82129725,22.5888625 C5.82303582,22.5820663 5.82501146,22.5752701 5.82682905,22.5684739 C5.83307207,22.5447662 5.83978925,22.5213746 5.84713864,22.4981411 C5.85014161,22.488658 5.85322361,22.4791749 5.85638464,22.4697709 C5.86420817,22.4463793 5.87266392,22.4232248 5.88167284,22.4003863 C5.88396458,22.3943804 5.88609828,22.3882164 5.88854807,22.3822895 C5.89992776,22.3543934 5.91209771,22.3269715 5.92505792,22.2999448 C5.92885115,22.2919632 5.93296048,22.2840606 5.93691176,22.276158 C5.94694802,22.2560855 5.9573794,22.2362501 5.96828494,22.2166517 C5.97294745,22.208196 5.97753094,22.1998193 5.9823515,22.1915216 C5.99720832,22.1659173 6.0125393,22.1406291 6.02881858,22.1160521 C6.31433821,21.6835448 6.81212071,21.4056116 7.36672265,21.4263163 C7.4199069,21.428292 7.46463541,21.3868035 7.46661106,21.3336192 C7.4685867,21.280435 7.42709824,21.2357065 7.37391398,21.2337308" id="Fill-87" fill="#8B7FBF"></path>
                        <path d="M7.95623021,10.699708 C7.95623021,11.1672237 7.5749315,11.5463097 7.10464992,11.5463097 C6.63428932,11.5463097 6.25299061,11.1672237 6.25299061,10.699708 C6.25299061,10.2321133 6.63428932,9.8530273 7.10464992,9.8530273 C7.5749315,9.8530273 7.95623021,10.2321133 7.95623021,10.699708" id="Fill-89" fill="#8B7FBF"></path>
                    </g>
                    <g id="Group-95" transform="translate(5.792321, 9.835215)">
                        <mask id="mask-2" fill="white">
                            <use xlink:href="#path-1"></use>
                        </mask>
                        <g id="Clip-93"></g>
                        <polygon id="Fill-92" fill="#8B7FBF" mask="url(#mask-2)" points="-18.0968713 20.7732326 21.2834222 20.7732326 21.2834222 -18.6069818 -18.0968713 -18.6069818"></polygon>
                        <polygon id="Fill-94" fill="#8B7FBF" mask="url(#mask-2)" points="-0.646350701 2.40348578 2.36958378 2.40348578 2.36958378 -0.602491471 -0.646350701 -0.602491471"></polygon>
                    </g>
                    <path d="M26.5269341,6.84342277 C26.3153824,6.65447247 26.0435342,6.47002662 25.7554067,6.47002662 C25.4486292,6.47002662 25.1605017,6.58753775 24.9433393,6.80051185 C24.7268881,7.01332789 24.6071642,7.29687189 24.6071642,7.59851275 C24.6071642,7.89960043 24.7268881,8.18298637 24.9433393,8.39596047 L26.3153824,9.74382177 C26.3738614,9.80119438 26.4503582,9.82980166 26.5271711,9.82980166 C26.603747,9.82980166 26.6802438,9.80119438 26.7387228,9.74382177 L28.1102127,8.39596047 C28.3273752,8.18298637 28.4467829,7.89960043 28.4467829,7.59851275 C28.4467829,7.29687189 28.3273752,7.01332789 28.1102127,6.80051185 C27.8936825,6.58753775 27.6051599,6.47002662 27.2986984,6.47002662 C27.0103339,6.47002662 26.7384857,6.65447247 26.5269341,6.84342277" id="Fill-96" fill="#EF6354"></path>
                    <g id="mother" transform="translate(9.000000, 6.000000)" fill-rule="nonzero">
                        <path d="M9.02812356,11.1040846 L8.04391708,9.72614943 C7.8133544,9.40337158 7.44110129,9.21182266 7.04443432,9.21182266 L5.5270936,9.21182266 L5.5270936,11.3612479 L6.75533662,11.3612479 L8.04883005,12.8653083 C8.39747853,13.2706714 8.90503005,13.5045791 9.43970012,13.5062976 L10.7471264,13.5106732 L10.7471264,11.3612479 L9.52786494,11.3612479 C9.32953146,11.3612529 9.1434049,11.2654735 9.02812356,11.1040846 L9.02812356,11.1040846 Z" id="Path" fill="#8B7FBF"></path>
                        <path d="M7.36945813,15.045977 L1.84236453,15.045977 L1.84236453,10.2865353 C1.84236453,9.6929879 2.32352977,9.21182266 2.91707718,9.21182266 L6.29474548,9.21182266 C6.88829289,9.21182266 7.36945813,9.6929879 7.36945813,10.2865353 L7.36945813,15.045977 Z" id="Path" fill="#8B7FBF"></path>
                        <path d="M3.68472906,8.59770115 L3.68472906,9.36535304 C3.68472906,9.95890044 4.1658943,10.4400657 4.75944171,10.4400657 C5.35298911,10.4400657 5.83415435,9.95890044 5.83415435,9.36535304 L5.83415435,8.59770115 L3.68472906,8.59770115 Z" id="Path" fill="#FFE1BB"></path>
                        <path d="M7.36945813,16.27422 C7.36945813,17.1221449 6.68207921,17.8095238 5.83415435,17.8095238 L3.37766831,17.8095238 C2.52974345,17.8095238 1.84236453,17.1221449 1.84236453,16.27422 L1.84236453,15.045977 L7.36945813,15.045977 L7.36945813,16.27422 Z" id="Path" fill="#E0E0DE"></path>
                        <path d="M3.37766831,17.8095238 L3.37766831,17.5024631 C3.37766831,16.8241232 3.92757144,16.27422 4.60591133,16.27422 C5.28425122,16.27422 5.83415435,16.8241232 5.83415435,17.5024631 L5.83415435,17.8095238 L3.37766831,17.8095238 Z" id="Path" fill="#FFE1BB"></path>
                        <path d="M3.37766831,11.6683087 L3.37766831,10.2865353 C3.37766831,9.6929879 2.89650307,9.21182266 2.30295567,9.21182266 C1.70940826,9.21182266 1.22824302,9.6929879 1.22824302,10.2865353 L1.22824302,12.7430213 C1.22824302,13.3365688 1.70940826,13.817734 2.30295567,13.817734 L5.83415435,13.817734 L5.83415435,11.6683087 L3.37766831,11.6683087 Z" id="Path" fill="#8B7FBF"></path>
                        <path d="M5.83415435,11.6683087 L6.32107594,11.1813871 C6.43624698,11.0662101 6.59245598,11.0015039 6.75533662,11.0015039 C6.91821725,11.0015039 7.07442626,11.0662101 7.18959729,11.1813871 C7.30475665,11.2965524 7.36945388,11.4527453 7.36945813,11.6156094 L7.36945813,11.6683087 L7.55853079,11.7313329 C7.99569416,11.8771136 8.29057132,12.286222 8.29064039,12.7470515 C8.29053444,13.3383292 7.81123563,13.817628 7.21995792,13.817734 L5.83415435,13.817734 L5.83415435,11.6683087 Z" id="Path" fill="#FFE1BB"></path>
                        <path d="M3.37766831,15.0934563 C3.37766831,15.5088577 3.09963551,15.8728644 2.69887213,15.9821669 L1.22824302,16.383265 C0.935857699,16.4630088 0.623009745,16.4018676 0.382160457,16.2179114 C0.141311169,16.0339552 -8.18174209e-16,15.7482208 -8.18174209e-16,15.445156 L-8.18174209e-16,12.9779228 C-8.18174209e-16,12.2855729 0.463374242,11.6788747 1.13132697,11.4967001 L2.60195608,11.0956404 C2.78661556,11.0452772 2.9841985,11.0838915 3.13630987,11.2000712 C3.28842124,11.3162509 3.37766831,11.4967099 3.37766831,11.6881141 L3.37766831,15.0934563 Z" id="Path" fill="#FFE1BB"></path>
                        <g id="Group" transform="translate(1.113095, 11.821839)" fill="#FFAD94">
                            <rect id="Rectangle" transform="translate(1.195222, 0.602924) rotate(-15.953262) translate(-1.195222, -0.602924) " x="0.0769041434" y="0.295699647" width="2.23663521" height="1" rx="0.307060755"></rect>
                            <rect id="Rectangle" transform="translate(1.195567, 1.831743) rotate(-15.953262) translate(-1.195567, -1.831743) " x="0.0772495868" y="1.52451841" width="2.23663521" height="1" rx="0.307060755"></rect>
                            <rect id="Rectangle" transform="translate(1.195951, 3.060562) rotate(-15.953262) translate(-1.195951, -3.060562) " x="0.0776334127" y="2.75333717" width="2.23663521" height="1" rx="0.307060755"></rect>
                        </g>
                        <path d="M11.7969288,13.5106732 L10.7471264,13.5106732 L10.7471264,11.3612479 L11.5462904,11.0948727 C11.6271065,11.067927 11.7117389,11.0541872 11.7969288,11.0541872 C12.2346488,11.0541872 12.589491,11.4090294 12.589491,11.8467494 L12.589491,12.7180343 C12.5895113,12.9282481 12.5060185,13.1298592 12.357382,13.27851 C12.2087456,13.4271608 12.0071426,13.5106732 11.7969288,13.5106732 L11.7969288,13.5106732 Z" id="Path" fill="#FFE1BB"></path>
                        <path d="M7.06239737,6.62022989 C7.05285921,7.93556717 6.06616176,9.03834064 4.75997455,9.1935119 C3.45378734,9.34868316 2.23618601,8.507774 1.91874589,7.23128079 L1.61014984,5.97118021 C1.27428079,4.6061241 2.09111683,3.22295978 3.44867611,2.85796798 C3.47477627,2.85067529 3.50087644,2.84415025 3.52736043,2.83762521 C4.92717365,2.4987069 6.33811782,3.3523358 6.67895525,4.74408867 L6.98755131,6.00418924 C7.0372148,6.2057732 7.06239737,6.41261835 7.06239737,6.62022989 L7.06239737,6.62022989 Z" id="Path" fill="#FFE1BB"></path>
                        <path d="M4.42359401,5.97501847 C4.36659322,5.74188421 4.14012478,5.5915938 3.90315884,5.62964403 C3.6661929,5.66769426 3.49816111,5.88133057 3.51701384,6.12059037 C3.53586657,6.35985017 3.73528435,6.5445329 3.9752853,6.545 C4.01227971,6.54488693 4.04912958,6.54037733 4.08505952,6.53156609 C4.33213329,6.47123179 4.48363549,6.22216356 4.42359401,5.97501847 L4.42359401,5.97501847 Z" id="Path" fill="#8B7FBF"></path>
                        <path d="M6.51199097,5.46683292 C6.45507296,5.23381499 6.22877055,5.08355137 5.99192451,5.1215115 C5.75507847,5.15947164 5.58707146,5.3729326 5.60582694,5.61206698 C5.62458242,5.85120135 5.82381419,6.03585951 6.06368227,6.03643062 C6.10067668,6.03631755 6.13752654,6.03180795 6.17345649,6.02299672 C6.2921926,5.99429186 6.39462335,5.91951316 6.4581383,5.81516717 C6.52165325,5.71082118 6.54102986,5.58548779 6.51199097,5.46683292 L6.51199097,5.46683292 Z" id="Path" fill="#8B7FBF"></path>
                        <path d="M4.84691564,6.77498851 L4.51605768,7.29238588 C4.71249844,7.42363244 4.94255537,7.49558352 5.17877155,7.49965189 C5.53189142,7.49965189 5.86098378,7.32101929 6.08947537,6.978992 L5.57898686,6.63780911 C5.39617057,6.91132348 5.13616687,6.95999261 4.84691564,6.77498851 L4.84691564,6.77498851 Z" id="Path" fill="#8B7FBF"></path>
                        <path d="M2.14788998,7.42503612 C1.92517165,7.4244398 1.71015366,7.34346732 1.54236617,7.19700513 C1.43770926,7.10671364 1.35545611,6.9933462 1.30209113,6.86584011 C1.18134196,6.58378775 1.20918348,6.26009768 1.37632307,6.00280747 C1.51053743,5.80093717 1.71683223,5.65799728 1.95298317,5.60324466 C2.1059363,5.5660013 2.26012442,5.65978919 2.29739019,5.81273686 L2.30506671,5.84451765 C2.32367934,5.92089137 2.31118564,6.00153099 2.27033483,6.06869189 C2.22948402,6.13585279 2.16362339,6.18403182 2.08724548,6.20262726 C2.01106505,6.21982895 1.94376485,6.26420451 1.89794253,6.32744745 C1.84731401,6.39978256 1.83027287,6.4904109 1.85116969,6.57619515 C1.87206651,6.6619794 1.92887887,6.73461722 2.00710263,6.77556424 C2.07687651,6.81060158 2.1570174,6.8190468 2.23256199,6.79932307 C2.30893086,6.78071131 2.38956555,6.79320606 2.45672031,6.83405752 C2.52387506,6.87490897 2.57204648,6.94076932 2.59063321,7.01714429 L2.59316646,7.02754598 C2.6332767,7.19229502 2.53225635,7.35837117 2.36751519,7.39851375 C2.29562472,7.41607191 2.22189353,7.42497583 2.14788998,7.42503612 L2.14788998,7.42503612 Z" id="Path" fill="#8B7FBF"></path>
                        <polygon id="Path" fill="#8B7FBF" points="17.8095238 13.817734 17.8095238 17.8095238 16.0357106 17.8095238"></polygon>
                        <path d="M16.27422,12.589491 L16.27422,15.045977 L14.4318555,17.8095238 C13.2692478,18.5079365 12.3992423,18.8571429 11.8218391,18.8571429 C11.2060357,18.8571429 10.0660208,19.1262696 9.07095854,18.8571429 C8.66568059,18.7475305 8.09851378,18.3983241 7.36945813,17.8095238 C7.36945813,16.8384287 7.80830546,15.9193448 8.56354064,15.3088978 L11.9753695,12.589491 L16.27422,12.589491 Z" id="Path" fill="#FFAD94"></path>
                        <path d="M16.27422,12.589491 L11.9753695,12.589491 L11.8218391,11.0549548 L11.7009339,9.84513547 C11.6925358,9.76056049 11.6494593,9.68324913 11.5819585,9.63160519 C11.5144577,9.57996126 11.4285709,9.55860457 11.3447434,9.57261905 L10.823124,9.65974754 C10.2437891,9.75641334 9.67709297,9.42939286 9.47090517,8.87942939 L9.30701149,8.44263547 L9.07095854,7.81277709 L8.9047619,7.36945813 L8.22001642,7.36945813 C8.16128871,7.36938242 8.1055749,7.34344614 8.06770983,7.29855532 C8.02984476,7.2536645 8.01367188,7.19437575 8.02349754,7.13647578 L8.29716544,5.54474959 C8.08717823,5.04763376 7.98048738,4.51300421 7.9835143,3.97336617 C7.98396346,3.87894499 7.98780172,3.78567529 7.99509442,3.69278941 C8.14900862,1.63356322 9.88505337,1.09089895e-15 11.9757533,1.09089895e-15 L12.0129844,1.09089895e-15 C14.2028854,0.0206365198 15.9672565,1.80179157 15.9671593,3.99178982 C15.9671593,4.53759031 15.6600985,8.9047619 15.6600985,8.9047619 L16.27422,12.589491 Z" id="Path" fill="#FFE1BB"></path>
                        <path d="M7.98357964,3.68472906 C7.98357964,3.68472906 9.21182266,4.60591133 12.3594257,4.86691297 L12.5618555,4.65707533 C12.7310139,4.4817559 12.9635347,4.38177558 13.2071466,4.37961014 C13.4507585,4.3774447 13.6850198,4.47327585 13.8572681,4.64556055 C14.1843208,4.97267538 14.2131659,5.4933745 13.9242457,5.85461227 L13.2036125,6.75533662 L13.2036125,10.075431 C13.2036125,11.463908 14.3291955,12.589491 15.7176724,12.589491 C16.4439924,12.5895036 17.1170536,12.970582 17.4907564,13.5933877 L17.8095238,14.1247947 L17.8095238,13.4562851 C17.8095238,12.879455 17.760754,12.3036575 17.66367,11.735056 L17.0755718,8.29064039 L16.18333,3.06458149 C15.8811021,1.2944501 14.3468553,-2.18179789e-15 12.5511084,-2.18179789e-15 L11.6683087,-2.18179789e-15 C9.63328903,-2.18179789e-15 7.98357964,1.64970939 7.98357964,3.68472906 Z" id="Path" fill="#8B7FBF"></path>
                        <path d="M11.6683087,17.8095238 L14.8694171,13.2744284 C15.1726427,12.8448791 15.6656741,12.589491 16.1914672,12.589491 C16.6206025,12.589491 17.0321615,12.7599643 17.335606,13.0634088 C17.6390505,13.3668533 17.8095238,13.7784123 17.8095238,14.2075476 L17.8095238,14.5713762 C17.8095238,14.8812504 17.7205488,15.1846083 17.5531665,15.4453863 L16.0357106,17.8095238 L11.6683087,17.8095238 Z" id="Path" fill="#FFE1BB"></path>
                        <path d="M10.1330049,5.22003284 C9.79383498,5.22003284 9.51888342,5.49498441 9.51888342,5.83415435 C9.51888342,6.1733243 9.79383498,6.44827586 10.1330049,6.44827586 C10.4721749,6.44827586 10.7471264,6.1733243 10.7471264,5.83415435 C10.7466824,5.49516851 10.4719908,5.22047689 10.1330049,5.22003284 L10.1330049,5.22003284 Z" id="Path" fill="#8B7FBF"></path>
                        <path d="M10.503397,7.83849343 C10.2091066,8.20139877 9.77375483,8.42123952 9.30701149,8.44263547 L9.07095854,7.81277709 C9.07825123,7.81546388 9.08554392,7.81815066 9.09283662,7.82122126 C9.10204844,7.82198892 9.11164409,7.82314039 9.12123974,7.82390805 L9.14849138,7.82659483 C9.48605117,7.85502473 9.81565176,7.71374678 10.0278366,7.44967775 C10.1352051,7.31835539 10.3287023,7.29893693 10.4600246,7.40630542 C10.591347,7.5136739 10.6107654,7.70717107 10.503397,7.83849343 L10.503397,7.83849343 Z" id="Path" fill="#8B7FBF"></path>
                    </g>
                </g>
            </g>
        </g>
    </g>
</svg>