<?xml version="1.0" encoding="UTF-8"?>
<svg width="20px" height="20px" viewBox="0 0 20 20" version="1.1" xmlns="http://www.w3.org/2000/svg" xmlns:xlink="http://www.w3.org/1999/xlink">
    <!-- Generator: Sketch 52.2 (67145) - http://www.bohemiancoding.com/sketch -->
    <title>Disc</title>
    <desc>Created with Sketch.</desc>
    <g id="Page-1" stroke="none" stroke-width="1" fill="none" fill-rule="evenodd">
        <g id="Desktop-HD" transform="translate(-181.000000, -784.000000)" fill-rule="nonzero">
            <g id="Disc" transform="translate(181.000000, 784.000000)">
                <path d="M19.8028305,11.7117071 C20.259588,12.6087799 19.8973822,13.6789704 18.9786313,14.1469089 L17.4343313,14.9335368 C17.3014373,15.0012531 17.210751,15.1210959 17.1847361,15.2633683 L16.882668,16.916422 C16.702946,17.899995 15.7548992,18.5613461 14.7249106,18.4214669 L12.9940486,18.1864202 C12.8448622,18.1663168 12.6981606,18.2120563 12.5900749,18.3124044 L11.3335643,19.4793027 C10.969378,19.8175916 10.4931591,19.9999576 10.0000106,20 C9.50684097,20.0000424 9.03085807,19.8177366 8.66644327,19.4793106 L7.40997726,18.3124163 C7.30174481,18.211932 7.15497641,18.1661197 7.00612121,18.1864025 L5.27512962,18.4214668 C5.18365236,18.4338898 5.09191285,18.4400833 5.00074653,18.4400833 C4.07285383,18.4401666 3.27948495,17.8038779 3.11733066,16.9164581 L2.81530637,15.263347 C2.7892851,15.1210705 2.69858146,15.001216 2.56568346,14.9335448 L1.02136868,14.1469093 C0.102608407,13.6789248 -0.259584537,12.60881 0.197170029,11.7117428 L0.964945737,10.2039333 C1.03102276,10.0741689 1.03102276,9.92605017 0.96494427,9.7962521 L0.197208758,8.28844259 C-0.259548666,7.39136981 0.102657088,6.32117932 1.02140802,5.85324078 L2.565708,5.06661289 C2.69860202,4.99889655 2.78928834,4.87905374 2.81530273,4.73678398 L3.11733111,3.08372773 C3.29705007,2.10017111 4.24520542,1.43875918 5.27508851,1.57868278 L7.0059985,1.813736 C7.15515318,1.83389241 7.3018012,1.78815881 7.40991978,1.68774938 L8.66643704,0.520729057 C9.41393879,-0.173581687 10.5860267,-0.17356909 11.333596,0.520723273 L12.5900752,1.68762977 C12.6982255,1.78806767 12.8448832,1.83382884 12.9939181,1.81363138 L14.7249067,1.57856751 C15.7545959,1.43870604 16.7029704,2.10017241 16.8826684,3.08361444 L17.1846927,4.73672545 C17.210714,4.87900203 17.3014176,4.99885647 17.4343156,5.06652772 L18.9786304,5.85316314 C19.8973907,6.32114768 20.2595836,7.39126253 19.8028296,8.28832862 L19.0350534,9.79617779 C18.9689763,9.92594218 18.9689763,10.0740609 19.0350584,10.2038661 L19.8028305,11.7117071 Z" id="Path" fill="#DA2A51"></path>
                <g id="Group" transform="translate(6.000000, 5.000000)" fill="#FFFFFF">
                    <path d="M8.17822415,1.84756471 L1.13619178,8.88959707 C1.01377938,9.01209442 0.85014375,9.07844625 0.680361337,9.07844625 C0.510629284,9.07844625 0.347024617,9.0120908 0.224558144,8.88962433 C-0.027180327,8.63788586 -0.027180327,8.22972028 0.224557943,7.97798201 L7.26661777,0.935886058 C7.51835737,0.684146451 7.92656434,0.684146451 8.1782671,0.935892872 C8.43004277,1.18766855 8.43002927,1.59580324 8.17822415,1.84756471 Z" id="Path"></path>
                    <path d="M2.06735321,-4.4408921e-14 C3.20738123,-4.4408921e-14 4.13470641,0.927325181 4.13470641,2.06735321 C4.13470641,3.20738123 3.20738123,4.13470641 2.06735321,4.13470641 C0.927325181,4.13470641 6.92779167e-14,3.20738123 6.92779167e-14,2.06735321 C6.92779167e-14,0.927325181 0.927325181,-4.4408921e-14 2.06735321,-4.4408921e-14 Z M2.06735321,3.06764228 C2.61901492,3.06764228 3.06763775,2.61901944 3.06767841,2.06732526 C3.06767841,1.51565948 2.61902176,1.067028 2.06735321,1.067028 C1.51569013,1.067028 1.06706414,1.515654 1.06706414,2.06731707 C1.06706414,2.61900999 1.51568384,3.06764228 2.06735321,3.06764228 Z" id="Shape"></path>
                    <path d="M6.33546522,5.69084011 C7.47549325,5.69084011 8.40281843,6.61816529 8.40281843,7.75819332 C8.40281843,8.89822134 7.47549325,9.82554652 6.33546522,9.82554652 C5.1954372,9.82554652 4.26811201,8.89822134 4.26811201,7.75819332 C4.26811201,6.61816529 5.1954372,5.69084011 6.33546522,5.69084011 Z M6.33546522,8.75848238 C6.8871283,8.75848238 7.33575429,8.30985639 7.33575429,7.75819332 C7.33575429,7.20653024 6.8871283,6.75790425 6.33546522,6.75790425 C5.78377231,6.75790425 5.33514002,7.20652395 5.33514002,7.75819332 C5.33514002,8.30985091 5.78379666,8.75848238 6.33546522,8.75848238 Z" id="Shape"></path>
                </g>
            </g>
        </g>
    </g>
</svg>