<?xml version="1.0" encoding="UTF-8"?>
<svg width="20px" height="16px" viewBox="0 0 20 16" version="1.1" xmlns="http://www.w3.org/2000/svg" xmlns:xlink="http://www.w3.org/1999/xlink">
    <!-- Generator: Sketch 63.1 (92452) - https://sketch.com -->
    <title>Voucher</title>
    <desc>Created with Sketch.</desc>
    <g id="Desktop" stroke="none" stroke-width="1" fill="none" fill-rule="evenodd">
        <g id="partner-promo-detail" transform="translate(-182.000000, -888.000000)" fill="#EB395F">
            <g id="Group-7" transform="translate(165.000000, 177.000000)">
                <g id="Group-4" transform="translate(0.000000, 480.000000)">
                    <g id="Group-2" transform="translate(1.000000, 133.000000)">
                        <path d="M21.996,98 L21.9961777,100.250478 C21.9961777,100.664427 22.3317502,101 22.7456999,101 C23.1596496,101 23.4952221,100.664427 23.4952221,100.250478 L23.4952221,100.250478 L23.495,98 L33.6015289,98 C34.9261679,98 36,99.0745166 36,100.4 L36,102.819749 C36,103.339916 35.7335033,103.6 35.2005098,103.6 C33.8758706,103.6 32.8020386,104.674517 32.8020386,106 C32.8020386,107.325483 33.8758706,108.4 35.2005096,108.4 C35.7335032,108.4 36,108.663696 36,109.191088 L36,111.6 C36,112.925483 34.9261679,114 33.6015289,114 L23.495,114 L23.4952221,111.749522 C23.4952221,111.370068 23.213248,111.056473 22.8474056,111.006842 L22.7456999,111 C22.3317502,111 21.9961777,111.335573 21.9961777,111.749522 L21.9961777,111.749522 L21.996,114 L18.3984711,114 C17.0738321,114 16,112.925483 16,111.6 L16,109.180251 C16,108.660084 16.2664967,108.4 16.7994902,108.4 C18.1241294,108.4 19.1979614,107.325483 19.1979614,106 C19.1979614,104.674517 18.1241294,103.6 16.7994904,103.6 C16.2664968,103.6 16,103.336304 16,102.808912 L16,100.4 C16,99.0745166 17.0738321,98 18.3984711,98 L21.996,98 Z M22.7456999,104 C22.3317502,104 21.9961777,104.335573 21.9961777,104.749522 L21.9961777,104.749522 L21.9961777,107.250478 C21.9961777,107.664427 22.3317502,108 22.7456999,108 C23.1596496,108 23.4952221,107.664427 23.4952221,107.250478 L23.4952221,107.250478 L23.4952221,104.749522 C23.4952221,104.335573 23.1596496,104 22.7456999,104 Z" id="Voucher"></path>
                    </g>
                </g>
            </g>
        </g>
    </g>
</svg>