<?xml version="1.0" encoding="UTF-8"?>
<svg width="8px" height="13px" viewBox="0 0 8 13" version="1.1" xmlns="http://www.w3.org/2000/svg" xmlns:xlink="http://www.w3.org/1999/xlink">
    <title>arrow_carrot-down copy</title>
    <g id="Page-1" stroke="none" stroke-width="1" fill="none" fill-rule="evenodd">
        <g id="LL21---My-Profile-Copy" transform="translate(-320.000000, -615.000000)" fill="#A775C8" fill-rule="nonzero">
            <g id="Group-9" transform="translate(16.000000, 544.000000)">
                <g id="Group-2" transform="translate(0.000000, 52.000000)">
                    <g id="arrow_carrot-down-copy" transform="translate(308.000000, 25.500000) rotate(-90.000000) translate(-308.000000, -25.500000) translate(302.000000, 22.000000)">
                        <path d="M10.3365,0.6 L6,4.9365 L1.6635,0.6 C1.371,0.3075 0.8955,0.3075 0.603,0.6 C0.3105,0.8925 0.3105,1.368 0.603,1.6605 L5.4675,6.525 C5.6145,6.672 5.808,6.7455 6,6.7440225 C6.1935,6.7440225 6.3855,6.672 6.5325,6.525 L11.397,1.6605 C11.6895,1.368 11.6895,0.8925 11.397,0.6 C11.1045,0.3075 10.629,0.3075 10.3365,0.6 Z" id="Path"></path>
                    </g>
                </g>
            </g>
        </g>
    </g>
</svg>