<?xml version="1.0" encoding="UTF-8"?>
<svg width="48px" height="49px" viewBox="0 0 48 49" version="1.1" xmlns="http://www.w3.org/2000/svg" xmlns:xlink="http://www.w3.org/1999/xlink">
    <title>Group 5</title>
    <defs>
        <circle id="path-1" cx="21.9156328" cy="22.2088935" r="21.9156328"></circle>
    </defs>
    <g id="Page-1" stroke="none" stroke-width="1" fill="none" fill-rule="evenodd">
        <g id="LL21---popup-anak" transform="translate(-14.000000, -516.000000)">
            <g id="Group-22" transform="translate(0.000000, 417.000000)">
                <g id="Group-2" transform="translate(0.000000, 89.000000)">
                    <g id="Group-5" transform="translate(16.000000, 12.000000)">
                        <g id="Group-12" transform="translate(0.000000, 0.049171)">
                            <mask id="mask-2" fill="white">
                                <use xlink:href="#path-1"></use>
                            </mask>
                            <circle stroke="#FFFFFF" stroke-width="2" cx="21.9156328" cy="22.2088935" r="22.9156328"></circle>
                            <g id="Group-13" mask="url(#mask-2)">
                                <g transform="translate(-4.109181, -3.815920)">
                                    <polygon id="Fill-1" fill="#FFC7BF" points="0 50.9492561 50.9492561 50.9492561 50.9492561 0 0 0"></polygon>
                                    <polygon id="Fill-2" fill="#FFB4AD" points="0 -5.96055286e-05 0 50.9491965 50.9492561 -5.96055286e-05"></polygon>
                                    <polygon id="Fill-3" fill="#A179C5" points="24.7336717 15.9997928 26.2154652 15.9997928 26.2154652 13.9155067 24.7336717 13.9155067"></polygon>
                                    <polygon id="Fill-4" fill="#A179C5" points="28.9475919 17.2527964 27.9770947 16.1331662 29.6771635 14.6594791 30.6476608 15.7789901"></polygon>
                                    <polygon id="Fill-5" fill="#A179C5" points="22.0016881 17.2527964 20.3015 15.7789901 21.2719972 14.6594791 22.9721853 16.1331662"></polygon>
                                    <g id="Group-12" stroke-width="1" fill="none" transform="translate(14.424538, 15.662783)">
                                        <path d="M21.3863683,11.0346881 C21.3863683,16.7432288 16.7587143,21.371002 11.0500544,21.371002 C5.34151368,21.371002 0.713859653,16.7432288 0.713859653,11.0346881 C0.713859653,5.32614738 5.34151368,0.698374137 11.0500544,0.698374137 C16.7587143,0.698374137 21.3863683,5.32614738 21.3863683,11.0346881" id="Fill-6" fill="#FFEBDE"></path>
                                        <path d="M11.0501021,1.29448903 C5.67928629,1.29448903 1.30984341,5.66393191 1.30984341,11.0347477 C1.30984341,16.4054442 5.67928629,20.7748871 11.0501021,20.7748871 C16.4209178,20.7748871 20.7903607,16.4054442 20.7903607,11.0347477 C20.7903607,5.66393191 16.4209178,1.29448903 11.0501021,1.29448903 M11.0501021,21.9669977 C5.02195652,21.9669977 0.11773284,17.062774 0.11773284,11.0347477 C0.11773284,5.00660214 5.02195652,0.102378456 11.0501021,0.102378456 C17.0782476,0.102378456 21.9824713,5.00660214 21.9824713,11.0347477 C21.9824713,17.062774 17.0782476,21.9669977 11.0501021,21.9669977" id="Fill-8" fill="#A179C5"></path>
                                        <path d="M11.0501021,17.9602306 C9.4463557,17.9602306 8.14159068,16.6554656 8.14159068,15.0516 L9.33370125,15.0516 C9.33370125,15.9981358 10.1036855,16.76812 11.0501021,16.76812 C11.9965186,16.76812 12.7665029,15.9981358 12.7665029,15.0516 L13.9586134,15.0516 C13.9586134,16.6554656 12.6538484,17.9602306 11.0501021,17.9602306" id="Fill-10" fill="#A179C5"></path>
                                    </g>
                                </g>
                            </g>
                        </g>
                    </g>
                </g>
            </g>
        </g>
    </g>
</svg>