<?xml version="1.0" encoding="UTF-8"?>
<svg width="24px" height="24px" viewBox="0 0 24 24" version="1.1" xmlns="http://www.w3.org/2000/svg" xmlns:xlink="http://www.w3.org/1999/xlink">
    <title>Group 3</title>
    <g id="Symbols" stroke="none" stroke-width="1" fill="none" fill-rule="evenodd">
        <g id="Group-3">
            <rect id="Rectangle" x="0" y="0" width="24" height="24"></rect>
            <g id="qr-code" transform="translate(3.000000, 3.000000)" fill="#404040" fill-rule="nonzero" stroke="#404040" stroke-width="0.5">
                <path d="M0.3515625,7.2421875 L5.484375,7.2421875 L5.484375,9 C5.484375,9.19416797 5.64180469,9.3515625 5.8359375,9.3515625 C6.03007031,9.3515625 6.1875,9.19416797 6.1875,9 L6.1875,7.2421875 L6.890625,7.2421875 C7.08475781,7.2421875 7.2421875,7.08479297 7.2421875,6.890625 L7.2421875,2.91796875 L8.6484375,2.91796875 L8.6484375,4.67578125 C8.6484375,4.86994922 8.80586719,5.02734375 9,5.02734375 C9.19413281,5.02734375 9.3515625,4.86994922 9.3515625,4.67578125 L9.3515625,2.56640625 C9.3515625,2.37223828 9.19413281,2.21484375 9,2.21484375 L7.2421875,2.21484375 L7.2421875,0.3515625 C7.2421875,0.157394531 7.08475781,0 6.890625,0 L1.40625,0 C0.63084375,0 0,0.63084375 0,1.40625 L0,6.890625 C0,7.08479297 0.157429687,7.2421875 0.3515625,7.2421875 Z M0.703125,1.40625 C0.703125,1.01854687 1.01854687,0.703125 1.40625,0.703125 L6.5390625,0.703125 L6.5390625,6.5390625 L0.703125,6.5390625 L0.703125,1.40625 Z" id="Shape"></path>
                <path d="M4.67578125,2.21484375 L2.56640625,2.21484375 C2.37227344,2.21484375 2.21484375,2.37223828 2.21484375,2.56640625 L2.21484375,4.67578125 C2.21484375,4.86994922 2.37227344,5.02734375 2.56640625,5.02734375 L4.67578125,5.02734375 C4.86991406,5.02734375 5.02734375,4.86994922 5.02734375,4.67578125 L5.02734375,2.56640625 C5.02734375,2.37223828 4.86991406,2.21484375 4.67578125,2.21484375 Z M4.32421875,4.32421875 L2.91796875,4.32421875 L2.91796875,2.91796875 L4.32421875,2.91796875 L4.32421875,4.32421875 Z" id="Shape"></path>
                <path d="M5.02734375,15.4335938 L5.02734375,13.3242188 C5.02734375,13.1300508 4.86991406,12.9726562 4.67578125,12.9726562 L2.56640625,12.9726562 C2.37227344,12.9726562 2.21484375,13.1300508 2.21484375,13.3242188 L2.21484375,15.4335938 C2.21484375,15.6277617 2.37227344,15.7851563 2.56640625,15.7851563 L4.67578125,15.7851563 C4.86991406,15.7851563 5.02734375,15.6277617 5.02734375,15.4335938 Z M4.32421875,15.0820313 L2.91796875,15.0820313 L2.91796875,13.6757813 L4.32421875,13.6757813 L4.32421875,15.0820313 Z" id="Shape"></path>
                <path d="M16.59375,0 L11.109375,0 C10.9152422,0 10.7578125,0.157394531 10.7578125,0.3515625 L10.7578125,6.890625 C10.7578125,7.08479297 10.9152422,7.2421875 11.109375,7.2421875 L17.6484375,7.2421875 C17.8425703,7.2421875 18,7.08479297 18,6.890625 L18,1.40625 C18,0.63084375 17.3691563,0 16.59375,0 Z M17.296875,6.5390625 L11.4609375,6.5390625 L11.4609375,0.703125 L16.59375,0.703125 C16.9814531,0.703125 17.296875,1.01854688 17.296875,1.40625 L17.296875,6.5390625 Z" id="Shape"></path>
                <path d="M15.4335938,2.21484375 L13.3242188,2.21484375 C13.1300859,2.21484375 12.9726562,2.37223828 12.9726562,2.56640625 L12.9726562,4.67578125 C12.9726562,4.86994922 13.1300859,5.02734375 13.3242188,5.02734375 L15.4335938,5.02734375 C15.6277266,5.02734375 15.7851563,4.86994922 15.7851563,4.67578125 L15.7851563,2.56640625 C15.7851563,2.37223828 15.6277266,2.21484375 15.4335938,2.21484375 Z M15.0820313,4.32421875 L13.6757813,4.32421875 L13.6757813,2.91796875 L15.0820313,2.91796875 L15.0820313,4.32421875 Z" id="Shape"></path>
                <path d="M17.6484375,10.7578125 C17.4543047,10.7578125 17.296875,10.915207 17.296875,11.109375 L17.296875,13.3242188 C17.296875,13.5183867 17.4543047,13.6757813 17.6484375,13.6757813 C17.8425703,13.6757813 18,13.5183867 18,13.3242188 L18,11.109375 C18,10.915207 17.8425703,10.7578125 17.6484375,10.7578125 Z" id="Path"></path>
                <path d="M17.6484375,15.0820312 C17.4543047,15.0820312 17.296875,15.2394258 17.296875,15.4335938 L17.296875,16.59375 C17.296875,16.9814531 16.9814531,17.296875 16.59375,17.296875 L13.3242187,17.296875 C13.1300859,17.296875 12.9726562,17.4543047 12.9726562,17.6484375 C12.9726562,17.8425703 13.1300859,18 13.3242187,18 L16.59375,18 C17.3691563,18 18,17.3691562 18,16.59375 L18,15.4335938 C18,15.2394258 17.8425703,15.0820312 17.6484375,15.0820312 Z" id="Path"></path>
                <path d="M11.109375,15.0820312 C10.9152422,15.0820312 10.7578125,15.2394258 10.7578125,15.4335938 L10.7578125,17.6484375 C10.7578125,17.8425703 10.9152422,18 11.109375,18 C11.3035078,18 11.4609375,17.8425703 11.4609375,17.6484375 L11.4609375,15.4335938 C11.4609375,15.2394258 11.3035078,15.0820312 11.109375,15.0820312 Z" id="Path"></path>
                <path d="M11.109375,10.7578125 C10.9152422,10.7578125 10.7578125,10.915207 10.7578125,11.109375 L10.7578125,13.3242188 C10.7578125,13.5183867 10.9152422,13.6757813 11.109375,13.6757813 C11.3035078,13.6757813 11.4609375,13.5183867 11.4609375,13.3242188 L11.4609375,11.4609375 L15.4335938,11.4609375 C15.6277266,11.4609375 15.7851562,11.303543 15.7851562,11.109375 L15.7851562,9 C15.7851562,8.80583203 15.6277266,8.6484375 15.4335938,8.6484375 L13.3242188,8.6484375 C13.1300859,8.6484375 12.9726562,8.80583203 12.9726562,9 C12.9726562,9.19416797 13.1300859,9.3515625 13.3242188,9.3515625 L15.0820312,9.3515625 L15.0820312,10.7578125 L11.109375,10.7578125 Z" id="Path"></path>
                <path d="M15.4335938,12.9726562 L13.3242188,12.9726562 C13.1300859,12.9726562 12.9726562,13.1300508 12.9726562,13.3242188 L12.9726562,15.4335938 C12.9726562,15.6277617 13.1300859,15.7851563 13.3242188,15.7851563 L15.4335938,15.7851563 C15.6277266,15.7851563 15.7851563,15.6277617 15.7851563,15.4335938 L15.7851563,13.3242188 C15.7851563,13.1300508 15.6277266,12.9726562 15.4335938,12.9726562 Z M15.0820313,15.0820313 L13.6757813,15.0820313 L13.6757813,13.6757813 L15.0820313,13.6757813 L15.0820313,15.0820313 Z" id="Shape"></path>
                <path d="M11.109375,8.6484375 L9.3515625,8.6484375 L9.3515625,6.890625 C9.3515625,6.69645703 9.19413281,6.5390625 9,6.5390625 C8.80586719,6.5390625 8.6484375,6.69645703 8.6484375,6.890625 L8.6484375,9 C8.6484375,9.19416797 8.80586719,9.3515625 9,9.3515625 L11.109375,9.3515625 C11.3035078,9.3515625 11.4609375,9.19416797 11.4609375,9 C11.4609375,8.80583203 11.3035078,8.6484375 11.109375,8.6484375 Z" id="Path"></path>
                <path d="M9,15.0820312 C8.80586719,15.0820312 8.6484375,15.2394258 8.6484375,15.4335938 L8.6484375,16.59375 C8.6484375,16.787918 8.80586719,16.9453125 9,16.9453125 C9.19413281,16.9453125 9.3515625,16.787918 9.3515625,16.59375 L9.3515625,15.4335938 C9.3515625,15.2394258 9.19413281,15.0820312 9,15.0820312 Z" id="Path"></path>
                <circle id="Oval" cx="3.62109375" cy="17.6484375" r="1"></circle>
                <path d="M1.40625,18 L2.0390625,18 C2.23319531,18 2.390625,17.8425703 2.390625,17.6484375 C2.390625,17.4543047 2.23319531,17.296875 2.0390625,17.296875 L1.40625,17.296875 C1.01854688,17.296875 0.703125,16.9814531 0.703125,16.59375 L0.703125,11.4609375 L6.5390625,11.4609375 L6.5390625,17.296875 L5.203125,17.296875 C5.00899219,17.296875 4.8515625,17.4543047 4.8515625,17.6484375 C4.8515625,17.8425703 5.00899219,18 5.203125,18 L6.890625,18 C7.08475781,18 7.2421875,17.8425703 7.2421875,17.6484375 L7.2421875,12.515625 L8.6484375,12.515625 L8.6484375,13.3242188 C8.6484375,13.5183867 8.80586719,13.6757813 9,13.6757813 C9.19413281,13.6757813 9.3515625,13.5183867 9.3515625,13.3242188 L9.3515625,12.1640625 C9.3515625,11.9698945 9.19413281,11.8125 9,11.8125 L7.2421875,11.8125 L7.2421875,11.109375 C7.2421875,10.915207 7.08475781,10.7578125 6.890625,10.7578125 L1.7578125,10.7578125 L1.7578125,9.3515625 L3.62109375,9.3515625 C3.81522656,9.3515625 3.97265625,9.19416797 3.97265625,9 C3.97265625,8.80583203 3.81522656,8.6484375 3.62109375,8.6484375 L1.40625,8.6484375 C1.21211719,8.6484375 1.0546875,8.80583203 1.0546875,9 L1.0546875,10.7578125 L0.3515625,10.7578125 C0.157429687,10.7578125 0,10.915207 0,11.109375 L0,16.59375 C0,17.3691563 0.63084375,18 1.40625,18 Z" id="Path"></path>
            </g>
        </g>
    </g>
</svg>