<?xml version="1.0" encoding="UTF-8"?>
<svg width="21px" height="28px" viewBox="0 0 21 28" version="1.1" xmlns="http://www.w3.org/2000/svg" xmlns:xlink="http://www.w3.org/1999/xlink">
    <title>Group 3</title>
    <defs>
        <polygon id="path-1" points="0 3.78378378e-05 20.208749 3.78378378e-05 20.208749 27.8800541 0 27.8800541"></polygon>
    </defs>
    <g id="Page-1" stroke="none" stroke-width="1" fill="none" fill-rule="evenodd">
        <g id="LL21---My-Profile" transform="translate(-282.000000, -366.000000)">
            <g id="Group-6" transform="translate(16.000000, 67.000000)">
                <g id="Group" transform="translate(0.000000, 290.000000)">
                    <g id="Group-14-Copy-5" transform="translate(226.000000, 0.000000)">
                        <g id="Group-3" transform="translate(40.000000, 9.000000)">
                            <mask id="mask-2" fill="white">
                                <use xlink:href="#path-1"></use>
                            </mask>
                            <g id="Clip-2"></g>
                            <path d="M10.1043928,13.0639297 C7.93729369,13.0639297 6.1743027,11.3009387 6.1743027,9.13383964 C6.1743027,6.96686667 7.93729369,5.20374955 10.1043928,5.20374955 C12.2714919,5.20374955 14.0344829,6.96686667 14.0344829,9.13383964 C14.0344829,11.3009387 12.2714919,13.0639297 10.1043928,13.0639297 M16.6078342,2.33576757 C14.7716901,0.80774955 12.5228613,3.78378378e-05 10.1043928,3.78378378e-05 C7.68592432,3.78378378e-05 5.4370955,0.80774955 3.60095135,2.33576757 C-0.355751351,5.62841622 -1.16056216,11.3980559 1.72886126,15.7565964 L9.57882523,27.5978216 C9.69561802,27.7741459 9.89300541,27.8800919 10.1043928,27.8800919 C10.3157802,27.8800919 10.5131676,27.7741459 10.6299604,27.5978216 L18.4799243,15.7565964 C21.3692216,11.3980559 20.5645369,5.62841622 16.6078342,2.33576757" id="Fill-1" fill="#A179C5" mask="url(#mask-2)"></path>
                        </g>
                    </g>
                </g>
            </g>
        </g>
    </g>
</svg>