<svg width="32" height="32" viewBox="0 0 32 32" fill="none" xmlns="http://www.w3.org/2000/svg">
<circle cx="16" cy="16" r="16" fill="white"/>
<path fill-rule="evenodd" clip-rule="evenodd" d="M28.4111 16.5642C28.4111 23.3199 22.9344 28.7965 16.1787 28.7965C9.42295 28.7965 3.94629 23.3199 3.94629 16.5642C3.94629 9.80838 9.42295 4.33179 16.1787 4.33179C22.9344 4.33179 28.4111 9.80838 28.4111 16.5642Z" fill="white"/>
<path opacity="0.6" fill-rule="evenodd" clip-rule="evenodd" d="M27.9795 16.6227C27.9795 23.3785 22.5028 28.8551 15.7471 28.8551C8.99131 28.8551 3.51465 23.3785 3.51465 16.6227C3.51465 9.86697 8.99131 4.39038 15.7471 4.39038C22.5028 4.39038 27.9795 9.86697 27.9795 16.6227Z" fill="#F7C3DA"/>
<path fill-rule="evenodd" clip-rule="evenodd" d="M7.74408 7.86608C12.2291 3.31358 19.5818 3.25847 24.1343 7.74347L25.3621 6.49724C20.1222 1.33496 11.6599 1.39854 6.4978 6.63828C1.33575 11.878 1.39851 20.3403 6.63836 25.5026L7.86622 24.2563C3.31372 19.7713 3.25902 12.4186 7.74408 7.86608Z" fill="#F4AFB2"/>
<path fill-rule="evenodd" clip-rule="evenodd" d="M25.5035 25.3619C30.6656 20.1222 30.6024 11.6594 25.3625 6.49707L24.1347 7.74336C28.6874 12.2287 28.7423 19.5816 24.2572 24.1341C19.7722 28.6866 12.419 28.7412 7.86647 24.2562L6.63867 25.5025C11.8786 30.6648 20.3414 30.6016 25.5035 25.3619Z" fill="#F7C3DA"/>
<path fill-rule="evenodd" clip-rule="evenodd" d="M12.9612 15.0122L11.535 16.4301C11.6006 16.458 11.6664 16.4859 11.7322 16.5124C12.9676 17.0093 13.5997 17.5208 13.5997 18.2665C13.5997 18.8951 13.0264 19.392 12.2615 19.392C11.3059 19.392 10.6442 18.9388 10.0415 18.4859C9.90891 18.3836 9.6591 18.3836 9.54136 18.5882L9.01224 19.4943C8.87982 19.7286 8.93869 19.8159 9.08579 19.933C9.512 20.2986 10.4679 21.0734 12.3205 21.0734C14.3937 21.0734 15.7023 19.6846 15.7023 18.1788C15.7023 16.4378 14.2989 15.5821 12.9612 15.0122Z" fill="#EE82A5"/>
<path fill-rule="evenodd" clip-rule="evenodd" d="M11.5135 16.3813C11.5788 16.4089 11.6444 16.4367 11.7099 16.4629C12.9406 16.9559 13.5704 17.4634 13.5704 18.2034C13.5704 18.827 12.9993 19.3201 12.2372 19.3201C11.2852 19.3201 10.626 18.8705 10.0256 18.421C9.89348 18.3195 9.64466 18.3195 9.52731 18.5225L9.00018 19.4216C8.86826 19.6541 8.92691 19.7408 9.07346 19.8569C9.49807 20.2196 10.4504 20.9884 12.2961 20.9884C14.3615 20.9884 15.6651 19.6105 15.6651 18.1164C15.6651 16.389 14.267 15.5398 12.9343 14.9745L11.5135 16.3813Z" fill="#D8D8D8"/>
<path fill-rule="evenodd" clip-rule="evenodd" d="M11.5135 16.3813C11.5788 16.4089 11.6444 16.4367 11.7099 16.4629C12.9406 16.9559 13.5704 17.4634 13.5704 18.2034C13.5704 18.827 12.9993 19.3201 12.2372 19.3201C11.2852 19.3201 10.626 18.8705 10.0256 18.421C9.89348 18.3195 9.64466 18.3195 9.52731 18.5225L9.00018 19.4216C8.86826 19.6541 8.92691 19.7408 9.07346 19.8569C9.49807 20.2196 10.4504 20.9884 12.2961 20.9884C14.3615 20.9884 15.6651 19.6105 15.6651 18.1164C15.6651 16.389 14.267 15.5398 12.9343 14.9745L11.5135 16.3813Z" fill="#EE82A5"/>
<path fill-rule="evenodd" clip-rule="evenodd" d="M11.5113 16.4267L12.942 15.0146C12.8259 14.9654 12.7103 14.9175 12.5961 14.8722C11.4012 14.3918 10.8554 13.9258 10.8554 13.2418C10.8554 12.6882 11.3128 12.2222 12.1537 12.2222C12.9648 12.2222 13.5698 12.6303 14.2041 13.0233C14.3809 13.1398 14.6025 13.0233 14.7204 12.8483L15.2809 12.0185C15.3841 11.8728 15.3398 11.6254 15.1925 11.5383C14.8972 11.3198 13.7465 10.5623 12.2421 10.5623C9.89674 10.5623 8.92285 12.062 8.92285 13.3579C8.92285 14.9996 10.1893 15.8696 11.5113 16.4267Z" fill="#B22755"/>
<path fill-rule="evenodd" clip-rule="evenodd" d="M8.95508 13.3513C8.95508 14.9779 10.2103 15.8398 11.5206 16.3918L12.9385 14.9928C12.8235 14.944 12.7088 14.8965 12.5957 14.8517C11.4114 14.3758 10.8705 13.914 10.8705 13.2363C10.8705 12.6879 11.3239 12.2262 12.1573 12.2262C12.9611 12.2262 13.5608 12.6304 14.1894 13.0199C14.3647 13.1352 14.5842 13.0199 14.7011 12.8464L15.2566 12.0243C15.3589 11.88 15.3149 11.6349 15.169 11.5485C14.8763 11.332 13.7359 10.5815 12.2448 10.5815C9.92035 10.5815 8.95508 12.0675 8.95508 13.3513Z" fill="#D8D8D8"/>
<path fill-rule="evenodd" clip-rule="evenodd" d="M8.95508 13.3513C8.95508 14.9779 10.2103 15.8398 11.5206 16.3918L12.9385 14.9928C12.8235 14.944 12.7088 14.8965 12.5957 14.8517C11.4114 14.3758 10.8705 13.914 10.8705 13.2363C10.8705 12.6879 11.3239 12.2262 12.1573 12.2262C12.9611 12.2262 13.5608 12.6304 14.1894 13.0199C14.3647 13.1352 14.5842 13.0199 14.7011 12.8464L15.2566 12.0243C15.3589 11.88 15.3149 11.6349 15.169 11.5485C14.8763 11.332 13.7359 10.5815 12.2448 10.5815C9.92035 10.5815 8.95508 12.0675 8.95508 13.3513Z" fill="#B22755"/>
<path fill-rule="evenodd" clip-rule="evenodd" d="M19.7142 12.4418H21.5346C21.8493 12.4418 22.1367 12.5292 22.3742 12.6812L23.7192 11.3239C23.136 10.8608 22.3964 10.5818 21.5953 10.5818H18.0304C17.8635 10.5818 17.7422 10.7179 17.7422 10.8691V17.3552L19.7142 15.3653V12.4418Z" fill="#EE82A5"/>
<path fill-rule="evenodd" clip-rule="evenodd" d="M18.0304 21.1674H19.426C19.5777 21.1674 19.7142 21.0313 19.7142 20.8801V17.3263H21.6104C23.4611 17.3263 24.9932 15.799 24.9932 13.9239C24.9932 12.8798 24.4942 11.9393 23.7192 11.324L22.3742 12.6812C22.7777 12.9396 23.0364 13.3851 23.0364 13.9087C23.0364 14.8009 22.3841 15.4814 21.5346 15.4814H19.7142V15.3654L17.7422 17.3553V20.8801C17.7422 21.0313 17.8635 21.1674 18.0304 21.1674Z" fill="#B22755"/>
</svg>
