<?xml version="1.0" encoding="UTF-8"?>
<svg width="24px" height="22px" viewBox="0 0 24 22" version="1.1" xmlns="http://www.w3.org/2000/svg" xmlns:xlink="http://www.w3.org/1999/xlink">
    <title>Group 5</title>
    <g id="Page-1" stroke="none" stroke-width="1" fill="none" fill-rule="evenodd">
        <g id="LL21---My-Profile" transform="translate(-168.000000, -369.000000)">
            <g id="Group-6" transform="translate(16.000000, 67.000000)">
                <g id="Group" transform="translate(0.000000, 290.000000)">
                    <g id="Group-14-Copy-4" transform="translate(113.000000, 0.000000)">
                        <g id="Group-5" transform="translate(41.000000, 14.000000)">
                            <path d="M9.72836634,17.3542871 C9.3310396,17.113297 4.95049505e-05,11.3813168 4.95049505e-05,5.31111881 C4.95049505e-05,2.38260396 2.38262376,2.97029703e-05 5.3110396,2.97029703e-05 C7.28064356,2.97029703e-05 9.05945545,1.09448515 9.97470297,2.76993069 C10.8898515,1.09448515 12.6686634,2.97029703e-05 14.6382673,2.97029703e-05 C17.5667822,2.97029703e-05 19.9493564,2.38260396 19.9493564,5.31111881 C19.9493564,11.3813168 10.6182673,17.113297 10.2209406,17.3542871 L9.97470297,17.5038911 L9.72836634,17.3542871 Z" id="Fill-1" fill="#A179C5"></path>
                            <path d="M9.72836634,17.3542871 C9.3310396,17.113297 4.95049505e-05,11.3813168 4.95049505e-05,5.31111881 C4.95049505e-05,2.38260396 2.38262376,2.97029703e-05 5.3110396,2.97029703e-05 C7.28064356,2.97029703e-05 9.05945545,1.09448515 9.97470297,2.76993069 C10.8898515,1.09448515 12.6686634,2.97029703e-05 14.6382673,2.97029703e-05 C17.5667822,2.97029703e-05 19.9493564,2.38260396 19.9493564,5.31111881 C19.9493564,11.3813168 10.6182673,17.113297 10.2209406,17.3542871 L9.97470297,17.5038911 L9.72836634,17.3542871 Z" id="Stroke-3" stroke="#A179C5" stroke-width="4" stroke-linejoin="round"></path>
                        </g>
                    </g>
                </g>
            </g>
        </g>
    </g>
</svg>