<svg width="40" height="41" viewBox="0 0 40 41" fill="none" xmlns="http://www.w3.org/2000/svg">
<path fill-rule="evenodd" clip-rule="evenodd" d="M40 15.4253V40.5H3.74693C1.67675 40.5 0 38.6968 0 36.4736V4.52638C0 2.30321 1.67831 0.5 3.74693 0.5H25.0747C33.318 0.5 40 7.18202 40 15.4253Z" fill="white"/>
<g clip-path="url(#clip0_4630_46939)">
<path d="M14.9228 30.9832H5.17129C4.38782 30.9832 3.75 30.343 3.75 29.5546V15.9689C3.75 15.1805 4.38782 14.5386 5.17129 14.5386H24.4867C25.2702 14.5386 25.9064 15.1805 25.9064 15.9689V16.3716H24.2323V16.2233H5.42407V29.2985H14.9228V30.9832Z" fill="#B075CC"/>
<path d="M14.8283 5.5C16.0321 6.71154 16.031 8.67835 14.8283 9.88869C13.6244 8.67716 13.6256 6.71034 14.8283 5.5Z" fill="#B075CC"/>
<path d="M17.531 35.5003C17.0756 35.5003 16.6353 35.2527 16.411 34.8197L10.9837 24.3845C10.6606 23.7645 10.9 22.9946 11.516 22.6711L28.8745 13.5213C29.4905 13.1962 30.2556 13.4371 30.577 14.0571L32.1724 17.1266C32.457 17.6725 32.3097 18.3447 31.8225 18.7221C31.3672 19.0759 31.2299 19.706 31.4977 20.2198C31.7656 20.7337 32.3565 20.9796 32.9056 20.8044C33.4916 20.6174 34.1227 20.8769 34.4073 21.4244L36.0027 24.494C36.3258 25.114 36.0864 25.8822 35.4703 26.2073L18.1119 35.3571C17.926 35.4548 17.7252 35.502 17.5293 35.502L17.531 35.5003ZM12.6577 23.9717L17.7034 33.6707L34.3319 24.9051L33.0781 22.4942C31.856 22.7284 30.6071 22.1337 30.0162 20.9982C29.4252 19.8626 29.6529 18.493 30.5402 17.6152L29.2863 15.2044L12.6577 23.9717Z" fill="#B075CC"/>
<path d="M23.4957 27.983C24.0902 27.983 24.5721 27.498 24.5721 26.8997C24.5721 26.3014 24.0902 25.8164 23.4957 25.8164C22.9012 25.8164 22.4193 26.3014 22.4193 26.8997C22.4193 27.498 22.9012 27.983 23.4957 27.983Z" fill="#B075CC"/>
<path d="M20.2215 22.5095L19.147 29.4067L20.8009 29.6677L21.8754 22.7704L20.2215 22.5095Z" fill="#B075CC"/>
<path d="M17.6415 26.4009C18.236 26.4009 18.7179 25.9159 18.7179 25.3177C18.7179 24.7194 18.236 24.2344 17.6415 24.2344C17.047 24.2344 16.565 24.7194 16.565 25.3177C16.565 25.9159 17.047 26.4009 17.6415 26.4009Z" fill="#B075CC"/>
<path d="M24.4537 16.8061L22.9705 17.5874L28.7917 28.779L30.2749 27.9976L24.4537 16.8061Z" fill="#B075CC"/>
<path d="M13.3809 21.7964H4.58704V23.4811H13.3809V21.7964Z" fill="#B075CC"/>
<path d="M16.3223 16.2232H13.3358C12.8737 16.2232 12.4987 15.8458 12.4987 15.3809V10.3385C12.4987 9.87347 12.8737 9.49609 13.3358 9.49609H16.3223C16.7843 9.49609 17.1593 9.87347 17.1593 10.3385V15.3792C17.1593 15.8442 16.7843 16.2215 16.3223 16.2215V16.2232ZM14.1728 14.5385H15.4853V11.1825H14.1728V14.5385Z" fill="#B075CC"/>
</g>
<defs>
<clipPath id="clip0_4630_46939">
<rect width="32.4" height="30" fill="white" transform="translate(3.75 5.5)"/>
</clipPath>
</defs>
</svg>
