<?xml version="1.0" encoding="UTF-8"?>
<svg width="48px" height="49px" viewBox="0 0 48 49" version="1.1" xmlns="http://www.w3.org/2000/svg" xmlns:xlink="http://www.w3.org/1999/xlink">
    <title>Group 5</title>
    <defs>
        <circle id="path-1" cx="21.9156328" cy="22.2088935" r="21.9156328"></circle>
    </defs>
    <g id="Page-1" stroke="none" stroke-width="1" fill="none" fill-rule="evenodd">
        <g id="LL21---popup-anak" transform="translate(-14.000000, -586.000000)">
            <g id="Group-22" transform="translate(0.000000, 417.000000)">
                <g id="Group-2-Copy" transform="translate(0.000000, 159.000000)">
                    <g id="Group-5" transform="translate(16.000000, 12.000000)">
                        <g id="Group-12" transform="translate(0.000000, 0.049171)">
                            <mask id="mask-2" fill="white">
                                <use xlink:href="#path-1"></use>
                            </mask>
                            <circle stroke="#FFFFFF" stroke-width="2" cx="21.9156328" cy="22.2088935" r="22.9156328"></circle>
                            <g id="Group-21" mask="url(#mask-2)">
                                <g transform="translate(-4.109181, -3.815920)">
                                    <polygon id="Fill-1" fill="#FFC7BF" points="0 51.0223325 51.0223325 51.0223325 51.0223325 0.342431762 0 0.342431762"></polygon>
                                    <polygon id="Fill-2" fill="#FFB4AD" points="0 0.342431762 0 51.0223325 51.0223325 0.342431762"></polygon>
                                    <g id="Group-20" stroke-width="1" fill="none" transform="translate(13.354839, 11.870968)">
                                        <path d="M22.4560675,15.5377644 C22.4560675,21.246305 17.8284135,25.8740783 12.1197536,25.8740783 C6.4112129,25.8740783 1.78355887,21.246305 1.78355887,15.5377644 C1.78355887,9.82922367 6.4112129,5.20145043 12.1197536,5.20145043 C17.8284135,5.20145043 22.4560675,9.82922367 22.4560675,15.5377644" id="Fill-3" fill="#FFEBDE"></path>
                                        <path d="M12.1197417,5.79757724 C6.74892591,5.79757724 2.37960224,10.1670201 2.37960224,15.5378359 C2.37960224,20.9085324 6.74892591,25.2779753 12.1197417,25.2779753 C17.4905574,25.2779753 21.8600003,20.9085324 21.8600003,15.5378359 C21.8600003,10.1670201 17.4905574,5.79757724 12.1197417,5.79757724 M12.1197417,26.4700859 C6.09171535,26.4700859 1.18749166,21.5658622 1.18749166,15.5378359 C1.18749166,9.50969035 6.09171535,4.60546667 12.1197417,4.60546667 C18.1478872,4.60546667 23.0521109,9.50969035 23.0521109,15.5378359 C23.0521109,21.5658622 18.1478872,26.4700859 12.1197417,26.4700859" id="Fill-5" fill="#A179C5"></path>
                                        <path d="M12.1198609,21.186926 C10.5159953,21.186926 9.21123029,19.882161 9.21123029,18.2784146 L10.4033409,18.2784146 C10.4033409,19.2248312 11.1733251,19.9948154 12.1197417,19.9948154 C13.0661583,19.9948154 13.8362617,19.2248312 13.8362617,18.2784146 L15.0283723,18.2784146 C15.0283723,19.882161 13.7236072,21.186926 12.1198609,21.186926" id="Fill-7" fill="#A179C5"></path>
                                        <path d="M4.56621913,1.47939511 L8.10130383,1.47939511 C10.1569793,1.47939511 11.8234307,3.14584648 11.8234307,5.20152195 L11.8234307,5.20152195 L8.28834597,5.20152195 C6.2326705,5.20152195 4.56621913,3.53507058 4.56621913,1.47939511 Z" id="Fill-9" fill="#D4B1EF"></path>
                                        <path d="M5.21935267,2.07543848 C5.49842576,3.51503121 6.76838115,4.60545475 8.28832213,4.60545475 L11.1702494,4.60545475 C10.8911764,3.16586202 9.62122096,2.07543848 8.10127998,2.07543848 L5.21935267,2.07543848 Z M8.28832213,5.79756532 C5.90731969,5.79756532 3.97014,3.86050485 3.97014,1.47938319 C3.97014,1.15024146 4.23705356,0.883327905 4.56619529,0.883327905 L8.10127998,0.883327905 C10.4822824,0.883327905 12.4193429,2.82050759 12.4193429,5.20151003 C12.4193429,5.53065176 12.1525486,5.79756532 11.8232876,5.79756532 L8.28832213,5.79756532 Z" id="Fill-11" fill="#A179C5"></path>
                                        <path d="M19.0207267,1.47939511 L15.485642,1.47939511 C13.4299666,1.47939511 11.7635152,3.14584648 11.7635152,5.20152195 L11.7635152,5.20152195 L15.2985999,5.20152195 C17.3542754,5.20152195 19.0207267,3.53507058 19.0207267,1.47939511 Z" id="Fill-13" fill="#D4B1EF"></path>
                                        <path d="M12.416613,4.60541898 L15.2986595,4.60541898 C16.8186005,4.60541898 18.0885559,3.51511465 18.3676289,2.07540271 L15.4855824,2.07540271 C13.9656414,2.07540271 12.6956861,3.16582626 12.416613,4.60541898 M15.2986595,5.79752956 L11.7634556,5.79752956 C11.4343139,5.79752956 11.1674003,5.53073521 11.1674003,5.20147427 C11.1674003,2.82047182 13.10458,0.883292142 15.4855824,0.883292142 L19.0206671,0.883292142 C19.3499281,0.883292142 19.6167224,1.1502057 19.6167224,1.47934743 C19.6167224,3.86046909 17.6796619,5.79752956 15.2986595,5.79752956" id="Fill-15" fill="#A179C5"></path>
                                        <polygon id="Fill-17" fill="#FFFFFF" points="10.9300034 5.20148619 12.678472 5.20148619 12.678472 2.78317068 10.9300034 2.78317068"></polygon>
                                        <path d="M11.5260587,4.6054309 L12.0824167,4.6054309 L12.0824167,3.37910676 L11.5260587,3.37910676 L11.5260587,4.6054309 Z M12.678472,5.79754148 L10.9300034,5.79754148 C10.6007425,5.79754148 10.3339481,5.53074713 10.3339481,5.20148619 L10.3339481,2.78317068 C10.3339481,2.45390974 10.6007425,2.1871154 10.9300034,2.1871154 L12.678472,2.1871154 C13.0076137,2.1871154 13.2745273,2.45390974 13.2745273,2.78317068 L13.2745273,5.20148619 C13.2745273,5.53074713 13.0076137,5.79754148 12.678472,5.79754148 L12.678472,5.79754148 Z" id="Fill-19" fill="#A179C5"></path>
                                    </g>
                                </g>
                            </g>
                        </g>
                    </g>
                </g>
            </g>
        </g>
    </g>
</svg>