<?xml version="1.0" encoding="UTF-8"?>
<svg width="24px" height="24px" viewBox="0 0 24 24" version="1.1" xmlns="http://www.w3.org/2000/svg" xmlns:xlink="http://www.w3.org/1999/xlink">
    <title>Group 3</title>
    <g id="Page-1" stroke="none" stroke-width="1" fill="none" fill-rule="evenodd">
        <g id="LL21---My-Profile-" transform="translate(-320.000000, -16.000000)">
            <g id="Group-3" transform="translate(320.000000, 16.000000)">
                <rect id="Rectangle" x="0" y="0" width="24" height="24"></rect>
                <g id="Settings-2" transform="translate(3.000000, 3.000000)" fill="#404040">
                    <path d="M9.088,5.76 C7.3206888,5.76 5.888,7.1926888 5.888,8.96 C5.888,10.7273112 7.3206888,12.16 9.088,12.16 C10.8553112,12.16 12.288,10.7273112 12.288,8.96 C12.288,7.1926888 10.8553112,5.76 9.088,5.76 Z M9.088,10.96 C7.9834305,10.96 7.088,10.0645695 7.088,8.96 C7.088,7.8554305 7.9834305,6.96 9.088,6.96 C10.1925695,6.96 11.088,7.8554305 11.088,8.96 C11.088,10.0645695 10.1925695,10.96 9.088,10.96 L9.088,10.96 Z" id="Shape"></path>
                    <path d="M16.688,6.56 L15.448,6.56 C15.3973333,6.424 15.3413333,6.29066667 15.28,6.16 L16.156,5.284 C16.6239254,4.81549193 16.6239254,4.05650807 16.156,3.588 L14.46,1.892 C13.9914919,1.4240746 13.2325081,1.4240746 12.764,1.892 L11.888,2.768 C11.7573333,2.70933333 11.624,2.65333333 11.488,2.6 L11.488,1.36 C11.488,0.6972583 10.9507417,0.16 10.288,0.16 L7.888,0.16 C7.2252583,0.16 6.688,0.6972583 6.688,1.36 L6.688,2.6 C6.552,2.65066667 6.41866667,2.70666667 6.288,2.768 L5.412,1.892 C4.94349193,1.4240746 4.18450807,1.4240746 3.716,1.892 L2.02,3.588 C1.5520746,4.05650807 1.5520746,4.81549193 2.02,5.284 L2.888,6.16 C2.82933333,6.29066667 2.77333333,6.424 2.72,6.56 L1.48,6.56 C0.8172583,6.56 0.28,7.0972583 0.28,7.76 L0.28,10.16 C0.28,10.8227417 0.8172583,11.36 1.48,11.36 L2.72,11.36 C2.77066667,11.496 2.82666667,11.6293333 2.888,11.76 L2.012,12.636 C1.5440746,13.1045081 1.5440746,13.8634919 2.012,14.332 L3.708,16.028 C4.17650807,16.4959254 4.93549193,16.4959254 5.404,16.028 L6.28,15.152 C6.41066667,15.2106667 6.544,15.2666667 6.68,15.32 L6.68,16.56 C6.68,17.2227417 7.2172583,17.76 7.88,17.76 L10.28,17.76 C10.9427417,17.76 11.48,17.2227417 11.48,16.56 L11.48,15.32 C11.616,15.2693333 11.7493333,15.2133333 11.88,15.152 L12.756,16.028 C13.2245081,16.4959254 13.9834919,16.4959254 14.452,16.028 L16.148,14.332 C16.6159254,13.8634919 16.6159254,13.1045081 16.148,12.636 L15.288,11.76 C15.3466667,11.6293333 15.4026667,11.496 15.456,11.36 L16.696,11.36 C17.3587417,11.36 17.896,10.8227417 17.896,10.16 L17.896,7.76 C17.8960071,7.44034926 17.7684813,7.1339059 17.5417044,6.90863086 C17.3149276,6.68335582 17.0076436,6.55786899 16.688,6.56 Z M16.688,10.16 L14.556,10.16 C14.4139346,10.8054542 14.1579289,11.4204097 13.8,11.976 L15.308,13.484 L13.612,15.18 L12.088,13.672 C11.5324097,14.0299289 10.9174542,14.2859346 10.272,14.428 L10.272,16.56 L7.872,16.56 L7.872,14.428 C7.22654582,14.2859346 6.6115903,14.0299289 6.056,13.672 L4.548,15.18 L2.852,13.484 L4.36,11.976 C4.0020711,11.4204097 3.74606539,10.8054542 3.604,10.16 L1.488,10.16 L1.488,7.76 L3.62,7.76 C3.76206539,7.11454582 4.0180711,6.4995903 4.376,5.944 L2.868,4.436 L4.564,2.74 L6.072,4.248 C6.6275903,3.8900711 7.24254582,3.63406539 7.888,3.492 L7.888,1.36 L10.288,1.36 L10.288,3.492 C10.9334542,3.63406539 11.5484097,3.8900711 12.104,4.248 L13.612,2.74 L15.308,4.436 L13.8,5.944 C14.1579289,6.4995903 14.4139346,7.11454582 14.556,7.76 L16.688,7.76 L16.688,10.16 Z" id="Shape"></path>
                </g>
            </g>
        </g>
    </g>
</svg>