<svg width="40" height="41" viewBox="0 0 40 41" fill="none" xmlns="http://www.w3.org/2000/svg">
<path fill-rule="evenodd" clip-rule="evenodd" d="M40 15.4253V40.5H3.74693C1.67675 40.5 0 38.6968 0 36.4736V4.52638C0 2.30321 1.67831 0.5 3.74693 0.5H25.0747C33.318 0.5 40 7.18202 40 15.4253Z" fill="white"/>
<path fill-rule="evenodd" clip-rule="evenodd" d="M32.7132 21.1349C32.7132 28.7351 26.552 34.8962 18.9518 34.8962C11.3516 34.8962 5.19043 28.7351 5.19043 21.1349C5.19043 13.5347 11.3516 7.37354 18.9518 7.37354C26.552 7.37354 32.7132 13.5347 32.7132 21.1349Z" fill="white"/>
<path opacity="0.6" fill-rule="evenodd" clip-rule="evenodd" d="M32.2261 21.2003C32.2261 28.8005 26.0649 34.9616 18.4648 34.9616C10.8646 34.9616 4.70337 28.8005 4.70337 21.2003C4.70337 13.6001 10.8646 7.43896 18.4648 7.43896C26.0649 7.43896 32.2261 13.6001 32.2261 21.2003Z" fill="#F7C3DA"/>
<path fill-rule="evenodd" clip-rule="evenodd" d="M9.46169 11.3493C14.5074 6.22782 22.7791 6.16582 27.9006 11.2114L29.2819 9.80942C23.387 4.00188 13.867 4.07342 8.05963 9.96808C2.25236 15.8627 2.32296 25.3828 8.21776 31.1903L9.59909 29.7883C4.47756 24.7426 4.41603 16.4709 9.46169 11.3493Z" fill="#F4AFB2"/>
<path fill-rule="evenodd" clip-rule="evenodd" d="M29.4406 31.0319C35.2479 25.1372 35.1768 15.6167 29.2819 9.80908L27.9006 11.2111C33.0224 16.2571 33.0842 24.5291 28.0385 29.6506C22.9929 34.7721 14.7206 34.8336 9.59904 29.7879L8.21777 31.19C14.1127 36.9976 23.6332 36.9265 29.4406 31.0319Z" fill="#F7C3DA"/>
<path fill-rule="evenodd" clip-rule="evenodd" d="M15.3308 19.3887L13.7263 20.9838C13.8002 21.0151 13.8742 21.0466 13.9482 21.0763C15.338 21.6354 16.0492 22.2108 16.0492 23.0498C16.0492 23.7569 15.4042 24.3159 14.5437 24.3159C13.4686 24.3159 12.7242 23.8061 12.0462 23.2966C11.897 23.1815 11.616 23.1815 11.4835 23.4116L10.8883 24.431C10.7393 24.6946 10.8055 24.7928 10.971 24.9245C11.4505 25.3358 12.5259 26.2075 14.6101 26.2075C16.9424 26.2075 18.4146 24.6451 18.4146 22.9511C18.4146 20.9925 16.8358 20.0298 15.3308 19.3887Z" fill="#EE82A5"/>
<path fill-rule="evenodd" clip-rule="evenodd" d="M13.702 20.9289C13.7755 20.9599 13.8493 20.9911 13.9229 21.0207C15.3075 21.5753 16.016 22.1462 16.016 22.9787C16.016 23.6803 15.3735 24.235 14.5162 24.235C13.4452 24.235 12.7036 23.7292 12.0281 23.2235C11.8795 23.1094 11.5996 23.1094 11.4676 23.3377L10.8745 24.3491C10.7261 24.6107 10.7921 24.7082 10.957 24.8389C11.4347 25.2469 12.506 26.1117 14.5824 26.1117C16.9059 26.1117 18.3726 24.5616 18.3726 22.8808C18.3726 20.9375 16.7997 19.9822 15.3003 19.3462L13.702 20.9289Z" fill="#D8D8D8"/>
<path fill-rule="evenodd" clip-rule="evenodd" d="M13.702 20.9289C13.7755 20.9599 13.8493 20.9911 13.9229 21.0207C15.3075 21.5753 16.016 22.1462 16.016 22.9787C16.016 23.6803 15.3735 24.235 14.5162 24.235C13.4452 24.235 12.7036 23.7292 12.0281 23.2235C11.8795 23.1094 11.5996 23.1094 11.4676 23.3377L10.8745 24.3491C10.7261 24.6107 10.7921 24.7082 10.957 24.8389C11.4347 25.2469 12.506 26.1117 14.5824 26.1117C16.9059 26.1117 18.3726 24.5616 18.3726 22.8808C18.3726 20.9375 16.7997 19.9822 15.3003 19.3462L13.702 20.9289Z" fill="#EE82A5"/>
<path fill-rule="evenodd" clip-rule="evenodd" d="M13.7003 20.9803L15.3097 19.3917C15.1792 19.3363 15.0491 19.2825 14.9207 19.2315C13.5763 18.6911 12.9624 18.1668 12.9624 17.3973C12.9624 16.7745 13.477 16.2503 14.423 16.2503C15.3355 16.2503 16.0161 16.7094 16.7296 17.1515C16.9285 17.2825 17.1778 17.1515 17.3105 16.9546L17.941 16.021C18.0571 15.8572 18.0072 15.5789 17.8416 15.4808C17.5094 15.235 16.2149 14.3828 14.5224 14.3828C11.8839 14.3828 10.7883 16.07 10.7883 17.5279C10.7883 19.3748 12.213 20.3535 13.7003 20.9803Z" fill="#B22755"/>
<path fill-rule="evenodd" clip-rule="evenodd" d="M10.8248 17.5198C10.8248 19.3497 12.2369 20.3193 13.711 20.9403L15.3061 19.3664C15.1768 19.3115 15.0477 19.2581 14.9204 19.2077C13.5882 18.6723 12.9797 18.1528 12.9797 17.3904C12.9797 16.7734 13.4897 16.254 14.4273 16.254C15.3316 16.254 16.0062 16.7088 16.7134 17.1469C16.9106 17.2767 17.1576 17.1469 17.2891 16.9518L17.914 16.0269C18.0291 15.8646 17.9796 15.5888 17.8155 15.4917C17.4862 15.2481 16.2032 14.4038 14.5257 14.4038C11.9108 14.4038 10.8248 16.0755 10.8248 17.5198Z" fill="#D8D8D8"/>
<path fill-rule="evenodd" clip-rule="evenodd" d="M10.8248 17.5198C10.8248 19.3497 12.2369 20.3193 13.711 20.9403L15.3061 19.3664C15.1768 19.3115 15.0477 19.2581 14.9204 19.2077C13.5882 18.6723 12.9797 18.1528 12.9797 17.3904C12.9797 16.7734 13.4897 16.254 14.4273 16.254C15.3316 16.254 16.0062 16.7088 16.7134 17.1469C16.9106 17.2767 17.1576 17.1469 17.2891 16.9518L17.914 16.0269C18.0291 15.8646 17.9796 15.5888 17.8155 15.4917C17.4862 15.2481 16.2032 14.4038 14.5257 14.4038C11.9108 14.4038 10.8248 16.0755 10.8248 17.5198Z" fill="#B22755"/>
<path fill-rule="evenodd" clip-rule="evenodd" d="M22.9292 16.4968H24.9771C25.3311 16.4968 25.6545 16.5951 25.9217 16.7661L27.4348 15.2392C26.7787 14.7182 25.9467 14.4043 25.0454 14.4043H21.0349C20.8472 14.4043 20.7107 14.5575 20.7107 14.7276V22.0244L22.9292 19.7857V16.4968Z" fill="#EE82A5"/>
<path fill-rule="evenodd" clip-rule="evenodd" d="M21.0349 26.313H22.605C22.7756 26.313 22.9292 26.1599 22.9292 25.9898V21.9919H25.0624C27.1444 21.9919 28.868 20.2736 28.868 18.1641C28.868 16.9895 28.3067 15.9315 27.4348 15.2393L25.9217 16.7661C26.3756 17.0568 26.6666 17.558 26.6666 18.1471C26.6666 19.1508 25.9328 19.9164 24.9771 19.9164H22.9292V19.7858L20.7107 22.0245V25.9898C20.7107 26.1599 20.8472 26.313 21.0349 26.313Z" fill="#B22755"/>
<ellipse cx="30.6031" cy="29.8532" rx="5.3303" ry="5.3303" fill="#B075CC"/>
<path fill-rule="evenodd" clip-rule="evenodd" d="M30.725 25.5171C28.263 25.5171 26.2671 27.513 26.2671 29.975C26.2671 32.437 28.263 34.4329 30.725 34.4329C33.187 34.4329 35.1829 32.437 35.1829 29.975C35.1829 27.513 33.187 25.5171 30.725 25.5171ZM23.75 29.975C23.75 26.1228 26.8728 23 30.725 23C34.5772 23 37.7 26.1228 37.7 29.975C37.7 33.8272 34.5772 36.95 30.725 36.95C26.8728 36.95 23.75 33.8272 23.75 29.975Z" fill="#B075CC"/>
<path d="M31.8 29.507H33.8313V30.9695H31.8V32.9178H30.3728V30.9695H28.3188V29.507H30.3728V27.5688H31.8V29.507Z" fill="white"/>
</svg>
