<svg width="40" height="41" viewBox="0 0 40 41" fill="none" xmlns="http://www.w3.org/2000/svg">
<path fill-rule="evenodd" clip-rule="evenodd" d="M40 15.4253V40.5H3.74693C1.67675 40.5 0 38.6968 0 36.4736V4.52638C0 2.30321 1.67831 0.5 3.74693 0.5H25.0747C33.318 0.5 40 7.18202 40 15.4253Z" fill="white"/>
<g clip-path="url(#clip0_4630_46921)">
<path d="M24.1 29.9101H16.3764V28.2822H23.2899V12.128H8.34657V28.2822H10.2244V29.9101H7.89453C7.24968 29.9101 6.72635 29.3843 6.72635 28.7364V11.6738C6.72635 11.0258 7.24968 10.5 7.89453 10.5H23.7419C24.3868 10.5 24.9101 11.0258 24.9101 11.6738V29.0962C24.9101 29.5455 24.5472 29.9101 24.1 29.9101Z" fill="#B075CC"/>
<path d="M24.9101 21.0346H23.2899V13.1943H27.7228C30.2957 13.1943 32.389 15.2977 32.389 17.8829V19.9601H30.7688V17.8829C30.7688 16.1947 29.403 14.8223 27.7228 14.8223H24.9101V21.0346Z" fill="#B075CC"/>
<path d="M35.0818 29.9101H32.948V28.2821H34.6298V23.1784C34.6298 21.8533 33.5556 20.774 32.2367 20.774H24.9101V28.2821H26.796V29.9101H24.1C23.6528 29.9101 23.2899 29.5454 23.2899 29.0961V19.96C23.2899 19.5107 23.6528 19.146 24.1 19.146H32.2367C34.45 19.146 36.25 20.9547 36.25 23.1784V28.7363C36.25 29.3842 35.7267 29.9101 35.0818 29.9101Z" fill="#B075CC"/>
<path d="M13.2996 33.0002C11.156 33.0002 9.41431 31.2485 9.41431 29.0948C9.41431 26.941 11.1577 25.1909 13.2996 25.1909C15.4415 25.1909 17.1849 26.9426 17.1849 29.0948C17.1849 31.2469 15.4415 33.0002 13.2996 33.0002ZM13.2996 26.8189C12.0504 26.8189 11.0345 27.8396 11.0345 29.0948C11.0345 30.3499 12.0504 31.3723 13.2996 31.3723C14.5488 31.3723 15.5647 30.3515 15.5647 29.0948C15.5647 27.838 14.5488 26.8189 13.2996 26.8189Z" fill="#B075CC"/>
<path d="M29.8728 33.0002C27.7293 33.0002 25.9875 31.2485 25.9875 29.0948C25.9875 26.941 27.7309 25.1909 29.8728 25.1909C32.0148 25.1909 33.7581 26.9426 33.7581 29.0948C33.7581 31.2469 32.0148 33.0002 29.8728 33.0002ZM29.8728 26.8189C28.6236 26.8189 27.6078 27.8396 27.6078 29.0948C27.6078 30.3499 28.6236 31.3723 29.8728 31.3723C31.122 31.3723 32.1379 30.3515 32.1379 29.0948C32.1379 27.838 31.122 26.8189 29.8728 26.8189Z" fill="#B075CC"/>
<path d="M12.167 18.3907H2.06011C1.61293 18.3907 1.25 18.026 1.25 17.5767C1.25 17.1274 1.61293 16.7627 2.06011 16.7627H12.167C12.6142 16.7627 12.9772 17.1274 12.9772 17.5767C12.9772 18.026 12.6142 18.3907 12.167 18.3907Z" fill="#B075CC"/>
<path d="M12.167 21.2281H3.68032C3.23314 21.2281 2.87021 20.8634 2.87021 20.4141C2.87021 19.9648 3.23314 19.6001 3.68032 19.6001H12.167C12.6142 19.6001 12.9771 19.9648 12.9771 20.4141C12.9771 20.8634 12.6142 21.2281 12.167 21.2281Z" fill="#B075CC"/>
<path d="M12.1671 24.064H5.30056C4.85338 24.064 4.49045 23.6993 4.49045 23.25C4.49045 22.8007 4.85338 22.436 5.30056 22.436H12.1671C12.6142 22.436 12.9772 22.8007 12.9772 23.25C12.9772 23.6993 12.6142 24.064 12.1671 24.064Z" fill="#B075CC"/>
</g>
<defs>
<clipPath id="clip0_4630_46921">
<rect width="35" height="22.5" fill="white" transform="translate(1.25 10.5)"/>
</clipPath>
</defs>
</svg>
