<?xml version="1.0" encoding="UTF-8"?>
<svg width="136px" height="136px" viewBox="0 0 136 136" version="1.1" xmlns="http://www.w3.org/2000/svg" xmlns:xlink="http://www.w3.org/1999/xlink">
    <title>Group 5</title>
    <defs>
        <circle id="path-1" cx="64" cy="64.8564065" r="64"></circle>
        <polygon id="path-3" points="0 149 148.786596 149 148.786596 0.213404206 0 0.213404206"></polygon>
    </defs>
    <g id="Page-1" stroke="none" stroke-width="1" fill="none" fill-rule="evenodd">
        <g id="LL21---congratulation!" transform="translate(-112.000000, -194.000000)">
            <g id="Group-21" transform="translate(16.000000, 197.000000)">
                <g id="Group-5" transform="translate(100.000000, 0.000000)">
                    <g id="Group-12" transform="translate(0.000000, 0.143594)">
                        <mask id="mask-2" fill="white">
                            <use xlink:href="#path-1"></use>
                        </mask>
                        <circle stroke="#FFFFFF" stroke-width="4" cx="64" cy="64.8564065" r="66"></circle>
                        <g id="Group-21" mask="url(#mask-2)">
                            <g transform="translate(-12.000000, -11.143594)">
                                <polygon id="Fill-1" fill="#EEE3FF" points="0 149 149 149 149 1 0 1"></polygon>
                                <polygon id="Fill-2" fill="#F5EEFF" points="0 1 0 149 149 1"></polygon>
                                <g id="Group-20" stroke-width="1" fill="none">
                                    <path d="M104.578226,80.0414423 C104.578226,96.7120357 91.064135,110.226475 74.3931935,110.226475 C57.7226,110.226475 44.2085089,96.7120357 44.2085089,80.0414423 C44.2085089,63.3708488 57.7226,49.8564096 74.3931935,49.8564096 C91.064135,49.8564096 104.578226,63.3708488 104.578226,80.0414423" id="Fill-3" fill="#FFEBDE"></path>
                                    <path d="M74.3931586,51.5972727 C58.7088199,51.5972727 45.9491283,64.3573124 45.9491283,80.0416512 C45.9491283,95.7256418 58.7088199,108.485682 74.3931586,108.485682 C90.0774974,108.485682 102.837537,95.7256418 102.837537,80.0416512 C102.837537,64.3573124 90.0774974,51.5972727 74.3931586,51.5972727 M74.3931586,111.96699 C56.7895745,111.96699 42.4678199,97.6452353 42.4678199,80.0416512 C42.4678199,62.4377189 56.7895745,48.1159643 74.3931586,48.1159643 C91.9970909,48.1159643 106.318846,62.4377189 106.318846,80.0416512 C106.318846,97.6452353 91.9970909,111.96699 74.3931586,111.96699" id="Fill-5" fill="#A179C5"></path>
                                    <path d="M74.3935068,96.5386318 C69.7097544,96.5386318 65.8994624,92.7283397 65.8994624,88.0449355 L69.3807708,88.0449355 C69.3807708,90.8087463 71.6293479,93.0573234 74.3931586,93.0573234 C77.1569694,93.0573234 79.4058946,90.8087463 79.4058946,88.0449355 L82.887203,88.0449355 C82.887203,92.7283397 79.076911,96.5386318 74.3935068,96.5386318" id="Fill-7" fill="#A179C5"></path>
                                    <path d="M52.3346834,38.9869292 L62.6581554,38.9869292 C68.6613236,38.9869292 73.5278446,43.8534502 73.5278446,49.8566185 L73.5278446,49.8566185 L63.2043727,49.8566185 C57.2012044,49.8566185 52.3346834,44.9900974 52.3346834,38.9869292 Z" id="Fill-9" fill="#D4B1EF"></path>
                                    <path d="M54.2420227,40.7275486 C55.056997,44.9315766 58.7656348,48.1159294 63.204303,48.1159294 L71.6203661,48.1159294 C70.8053918,43.9119014 67.096754,40.7275486 62.6580857,40.7275486 L54.2420227,40.7275486 Z M63.204303,51.5972379 C56.2510857,51.5972379 50.5939596,45.9404598 50.5939596,38.9868944 C50.5939596,38.0257051 51.3734245,37.2462402 52.3346138,37.2462402 L62.6580857,37.2462402 C69.611303,37.2462402 75.2680811,42.9033664 75.2680811,49.8565836 C75.2680811,50.8177729 74.4889643,51.5972379 73.5274269,51.5972379 L63.204303,51.5972379 Z" id="Fill-11" fill="#A179C5"></path>
                                    <path d="M94.5460353,38.9869292 L84.2225633,38.9869292 C78.2193951,38.9869292 73.3528741,43.8534502 73.3528741,49.8566185 L73.3528741,49.8566185 L83.676346,49.8566185 C89.6795143,49.8566185 94.5460353,44.9900974 94.5460353,38.9869292 Z" id="Fill-13" fill="#D4B1EF"></path>
                                    <path d="M75.2601089,48.115825 L83.6765201,48.115825 C88.1151883,48.115825 91.8238262,44.9318203 92.6388005,40.7274442 L84.2223893,40.7274442 C79.783721,40.7274442 76.0750832,43.911797 75.2601089,48.115825 M83.6765201,51.5971334 L73.3527,51.5971334 C72.3915107,51.5971334 71.6120458,50.8180166 71.6120458,49.8564792 C71.6120458,42.9032619 77.269172,37.2461357 84.2223893,37.2461357 L94.5458612,37.2461357 C95.5073986,37.2461357 96.2865154,38.0256007 96.2865154,38.98679 C96.2865154,45.9403554 90.6297374,51.5971334 83.6765201,51.5971334" id="Fill-15" fill="#A179C5"></path>
                                    <mask id="mask-4" fill="white">
                                        <use xlink:href="#path-3"></use>
                                    </mask>
                                    <g id="Clip-18"></g>
                                    <polygon id="Fill-17" fill="#FFFFFF" mask="url(#mask-4)" points="70.918778 49.856514 76.0248131 49.856514 76.0248131 42.7943318 70.918778 42.7943318"></polygon>
                                    <path d="M72.6594322,48.1158598 L74.2841589,48.1158598 L74.2841589,44.5346379 L72.6594322,44.5346379 L72.6594322,48.1158598 Z M76.0248131,51.5971682 L70.918778,51.5971682 C69.9572407,51.5971682 69.1781238,50.8180514 69.1781238,49.856514 L69.1781238,42.7943318 C69.1781238,41.8327944 69.9572407,41.0536776 70.918778,41.0536776 L76.0248131,41.0536776 C76.9860023,41.0536776 77.7654673,41.8327944 77.7654673,42.7943318 L77.7654673,49.856514 C77.7654673,50.8180514 76.9860023,51.5971682 76.0248131,51.5971682 L76.0248131,51.5971682 Z" id="Fill-19" fill="#A179C5" mask="url(#mask-4)"></path>
                                </g>
                            </g>
                        </g>
                    </g>
                </g>
            </g>
        </g>
    </g>
</svg>