<?xml version="1.0" encoding="UTF-8"?>
<svg width="24px" height="24px" viewBox="0 0 24 24" version="1.1" xmlns="http://www.w3.org/2000/svg" xmlns:xlink="http://www.w3.org/1999/xlink">
    <title>icon</title>
    <g id="Page-1" stroke="none" stroke-width="1" fill="none" fill-rule="evenodd">
        <g id="LL21---Settings" transform="translate(-16.000000, -703.000000)">
            <g id="Components/nav/list-cat-Copy-13" transform="translate(0.000000, 690.000000)">
                <g id="icon" transform="translate(16.000000, 13.000000)">
                    <rect id="Rectangle-2" x="0" y="0" width="24" height="24"></rect>
                    <path d="M12.9629495,11.5234764 L23.9497137,11.5234764 C23.4507971,5.63851524 18.5094366,1 12.4997745,1 C6.15953077,1 1,6.15941802 1,12.4996618 C1,18.840582 6.15953077,24 12.4997745,24 C18.4492284,24 23.3592445,19.4549541 23.9404683,13.6541041 L12.9629495,13.6541041 L13.8076689,14.4988235 C14.2230382,14.9166732 14.2230382,15.5911408 13.8076689,16.0059463 C13.3906085,16.4236833 12.7183958,16.4236833 12.3006588,16.0059463 L9.63672595,13.3425772 L8.88355916,12.5888466 L9.63672595,11.8374838 L9.63672595,11.8350033 L12.1230784,9.34921468 C12.3320032,9.14040256 12.6054208,9.037124 12.8769216,9.037124 C13.1503392,9.037124 13.4212763,9.14040256 13.6302012,9.34921468 C14.0479382,9.76390741 14.0479382,10.4384878 13.6302012,10.8563375 L12.9629495,11.5234764 Z" id="Keluar" fill="#EF6354"></path>
                </g>
            </g>
        </g>
    </g>
</svg>