<svg width="28" height="28" viewBox="0 0 28 28" fill="none" xmlns="http://www.w3.org/2000/svg">
<g id="Page-1">
<g id="SP">
<path id="Fill-1" fill-rule="evenodd" clip-rule="evenodd" d="M27.0324 14.5927C27.0324 21.6862 21.2819 27.4366 14.1885 27.4366C7.09493 27.4366 1.34448 21.6862 1.34448 14.5927C1.34448 7.49917 7.09493 1.74878 14.1885 1.74878C21.2819 1.74878 27.0324 7.49917 27.0324 14.5927Z" fill="white"/>
<path id="Fill-1_2" opacity="0.6" fill-rule="evenodd" clip-rule="evenodd" d="M27.0324 14.5927C27.0324 21.6862 21.2819 27.4366 14.1885 27.4366C7.09493 27.4366 1.34448 21.6862 1.34448 14.5927C1.34448 7.49917 7.09493 1.74878 14.1885 1.74878C21.2819 1.74878 27.0324 7.49917 27.0324 14.5927Z" fill="#F7C3DA"/>
<path id="Fill-3" fill-rule="evenodd" clip-rule="evenodd" d="M5.33091 5.45939C10.0402 0.679295 17.7605 0.621428 22.5406 5.33066L23.8298 4.02212C18.3279 -1.39824 9.44249 -1.33148 4.02232 4.17021C-1.3978 9.6719 -1.3319 18.5573 4.16991 23.9777L5.45915 22.6691C0.679057 17.9598 0.621625 10.2395 5.33091 5.45939Z" fill="#F4AFB2"/>
<path id="Fill-5" fill-rule="evenodd" clip-rule="evenodd" d="M23.9779 23.83C29.398 18.3284 29.3317 9.44252 23.8298 4.02209L22.5406 5.33069C27.3209 10.0402 27.3786 17.7608 22.6693 22.5409C17.96 27.321 10.2393 27.3783 5.4591 22.669L4.16992 23.9776C9.67186 29.3981 18.5577 29.3317 23.9779 23.83Z" fill="#F7C3DA"/>
<path id="Fill-7" fill-rule="evenodd" clip-rule="evenodd" d="M9.61502 13.0222L7.86795 14.7592C7.94834 14.7932 8.02891 14.8275 8.10949 14.8599C9.62286 15.4686 10.3973 16.0952 10.3973 17.0087C10.3973 17.7787 9.69498 18.3874 8.75791 18.3874C7.58732 18.3874 6.77675 17.8323 6.03843 17.2775C5.87603 17.1522 5.57002 17.1522 5.42579 17.4028L4.77762 18.5127C4.6154 18.7997 4.68752 18.9068 4.86772 19.0501C5.38982 19.498 6.56078 20.4471 8.83021 20.4471C11.3699 20.4471 12.9729 18.7459 12.9729 16.9013C12.9729 14.7686 11.2538 13.7203 9.61502 13.0222Z" fill="#EE82A5"/>
<path id="Fill-14" fill-rule="evenodd" clip-rule="evenodd" d="M7.83957 14.7555L9.59208 13.0257C9.44994 12.9654 9.30824 12.9067 9.16841 12.8512C7.70461 12.2628 7.0361 11.6919 7.0361 10.854C7.0361 10.1759 7.59643 9.60501 8.6265 9.60501C9.62011 9.60501 10.3612 10.1049 11.1382 10.5863C11.3548 10.729 11.6262 10.5863 11.7706 10.3719L12.4573 9.35538C12.5837 9.17696 12.5294 8.87391 12.349 8.76713C11.9873 8.49947 10.5776 7.57153 8.73474 7.57153C5.8617 7.57153 4.6687 9.40874 4.6687 10.9962C4.6687 13.0072 6.22008 14.0729 7.83957 14.7555Z" fill="#B22755"/>
<path id="Fill-20" fill-rule="evenodd" clip-rule="evenodd" d="M16.7978 9.87338H19.0277C19.4132 9.87338 19.7654 9.98036 20.0563 10.1666L21.7039 8.50393C20.9894 7.93665 20.0835 7.59485 19.1021 7.59485H14.7351C14.5307 7.59485 14.3821 7.76162 14.3821 7.94685V15.8923L16.7978 13.4546V9.87338Z" fill="#EE82A5"/>
<path id="Fill-22" fill-rule="evenodd" clip-rule="evenodd" d="M14.7351 20.562H16.4448C16.6306 20.562 16.7978 20.3953 16.7978 20.21V15.8568H19.1206C21.3877 15.8568 23.2645 13.9858 23.2645 11.6888C23.2645 10.4098 22.6533 9.25768 21.7039 8.50391L20.0563 10.1665C20.5505 10.483 20.8674 11.0288 20.8674 11.6702C20.8674 12.7632 20.0684 13.5968 19.0277 13.5968H16.7978V13.4546L14.3821 15.8922V20.21C14.3821 20.3953 14.5307 20.562 14.7351 20.562Z" fill="#B22755"/>
</g>
</g>
</svg>
