<?xml version="1.0" encoding="UTF-8"?>
<svg width="136px" height="136px" viewBox="0 0 136 136" version="1.1" xmlns="http://www.w3.org/2000/svg" xmlns:xlink="http://www.w3.org/1999/xlink">
    <title>Group 5</title>
    <defs>
        <circle id="path-1" cx="64" cy="64.8564065" r="64"></circle>
    </defs>
    <g id="Page-1" stroke="none" stroke-width="1" fill="none" fill-rule="evenodd">
        <g id="LL21---congratulation!-Copy-2" transform="translate(-112.000000, -194.000000)">
            <g id="Group-21" transform="translate(16.000000, 197.000000)">
                <g id="Group-5" transform="translate(100.000000, 0.000000)">
                    <g id="Group-12" transform="translate(0.000000, 0.143594)">
                        <mask id="mask-2" fill="white">
                            <use xlink:href="#path-1"></use>
                        </mask>
                        <circle stroke="#FFFFFF" stroke-width="4" cx="64" cy="64.8564065" r="66"></circle>
                        <g id="Group-13" mask="url(#mask-2)">
                            <g transform="translate(-12.000000, -11.143594)">
                                <polygon id="Fill-1" fill="#EEE3FF" points="0 148.786596 148.786596 148.786596 148.786596 0 0 0"></polygon>
                                <polygon id="Fill-2" fill="#F5EEFF" points="0 -0.000174065421 0 148.786422 148.786596 -0.000174065421"></polygon>
                                <polygon id="Fill-3" fill="#A179C5" points="72.2294907 46.7240327 76.556757 46.7240327 76.556757 40.6373131 72.2294907 40.6373131"></polygon>
                                <polygon id="Fill-4" fill="#A179C5" points="84.5353589 50.3831664 81.7012257 47.1135215 86.6659196 42.809928 89.5000528 46.0792248"></polygon>
                                <polygon id="Fill-5" fill="#A179C5" points="64.2513065 50.3831664 59.2862645 46.0792248 62.1203977 42.809928 67.0854397 47.1135215"></polygon>
                                <g id="Group-12" stroke-width="1" fill="none" transform="translate(42.123832, 45.739867)">
                                    <path d="M62.4543944,32.2244876 C62.4543944,48.8950811 48.9403033,62.4095203 32.2693617,62.4095203 C15.5987682,62.4095203 2.0846771,48.8950811 2.0846771,32.2244876 C2.0846771,15.5538942 15.5987682,2.03945491 32.2693617,2.03945491 C48.9403033,2.03945491 62.4543944,15.5538942 62.4543944,32.2244876" id="Fill-6" fill="#FFEBDE"></path>
                                    <path d="M32.2695009,3.78028318 C16.5851621,3.78028318 3.82512243,16.5403229 3.82512243,32.2246617 C3.82512243,47.9086523 16.5851621,60.6686921 32.2695009,60.6686921 C47.9538397,60.6686921 60.7138794,47.9086523 60.7138794,32.2246617 C60.7138794,16.5403229 47.9538397,3.78028318 32.2695009,3.78028318 M32.2695009,64.1500005 C14.6655687,64.1500005 0.343814019,49.8282458 0.343814019,32.2246617 C0.343814019,14.6207294 14.6655687,0.298974766 32.2695009,0.298974766 C49.8734332,0.298974766 64.1951879,14.6207294 64.1951879,32.2246617 C64.1951879,49.8282458 49.8734332,64.1500005 32.2695009,64.1500005" id="Fill-8" fill="#A179C5"></path>
                                    <path d="M32.2695009,52.4490792 C27.5860967,52.4490792 23.7758047,48.6387871 23.7758047,43.9550348 L27.2571131,43.9550348 C27.2571131,46.7191937 29.5056902,48.9677708 32.2695009,48.9677708 C35.0333117,48.9677708 37.2818888,46.7191937 37.2818888,43.9550348 L40.7631972,43.9550348 C40.7631972,48.6387871 36.9529051,52.4490792 32.2695009,52.4490792" id="Fill-10" fill="#A179C5"></path>
                                </g>
                            </g>
                        </g>
                    </g>
                </g>
            </g>
        </g>
    </g>
</svg>