<?xml version="1.0" encoding="UTF-8"?>
<svg width="48px" height="48px" viewBox="0 0 48 48" version="1.1" xmlns="http://www.w3.org/2000/svg" xmlns:xlink="http://www.w3.org/1999/xlink">
    <title>Group 4</title>
    <defs>
        <filter x="-28.1%" y="-28.1%" width="162.5%" height="162.5%" filterUnits="objectBoundingBox" id="filter-1">
            <feOffset dx="0" dy="2" in="SourceAlpha" result="shadowOffsetOuter1"></feOffset>
            <feGaussianBlur stdDeviation="1" in="shadowOffsetOuter1" result="shadowBlurOuter1"></feGaussianBlur>
            <feColorMatrix values="0 0 0 0 0   0 0 0 0 0   0 0 0 0 0  0 0 0 0.5 0" type="matrix" in="shadowBlurOuter1" result="shadowMatrixOuter1"></feColorMatrix>
            <feMerge>
                <feMergeNode in="shadowMatrixOuter1"></feMergeNode>
                <feMergeNode in="SourceGraphic"></feMergeNode>
            </feMerge>
        </filter>
        <circle id="path-2" cx="16" cy="16" r="16"></circle>
        <filter x="-7.8%" y="-7.8%" width="121.9%" height="121.9%" filterUnits="objectBoundingBox" id="filter-3">
            <feOffset dx="1" dy="1" in="SourceAlpha" result="shadowOffsetOuter1"></feOffset>
            <feGaussianBlur stdDeviation="1" in="shadowOffsetOuter1" result="shadowBlurOuter1"></feGaussianBlur>
            <feColorMatrix values="0 0 0 0 0   0 0 0 0 0   0 0 0 0 0  0 0 0 0.04 0" type="matrix" in="shadowBlurOuter1"></feColorMatrix>
        </filter>
    </defs>
    <g id="Page-1" stroke="none" stroke-width="1" fill="none" fill-rule="evenodd">
        <g id="LL21---Add-Photo" transform="translate(-861.000000, -563.000000)">
            <g id="Group-21-Copy" transform="translate(470.000000, 93.000000)">
                <g id="Group-2" transform="translate(24.000000, 124.000000)">
                    <g id="Group-4" filter="url(#filter-1)" transform="translate(374.000000, 353.000000)">
                        <g id="Oval">
                            <use fill="black" fill-opacity="1" filter="url(#filter-3)" xlink:href="#path-2"></use>
                            <use fill="#FFFFFF" fill-rule="evenodd" xlink:href="#path-2"></use>
                        </g>
                        <path d="M22.8571429,9.78285714 L22.8571429,9.14285714 L22.2171429,9.14285714 L19.4742857,11.8857143 L12.8,11.8857143 L12.8,9.14285714 L10.9714286,9.14285714 L10.9714286,11.8857143 L8.22857143,11.8857143 L8.22857143,13.7142857 L10.9714286,13.7142857 L10.9714286,21.0285714 L18.2857143,21.0285714 L18.2857143,23.7714286 L20.1142857,23.7714286 L20.1142857,21.0285714 L22.8571429,21.0285714 L22.8571429,19.2 L20.1142857,19.2 L20.1142857,12.5257143 L22.8571429,9.78285714 Z M12.8,13.7142857 L17.6457143,13.7142857 L12.8,18.56 L12.8,13.7142857 L12.8,13.7142857 Z M18.2857143,19.2 L13.44,19.2 L18.2857143,14.3542857 L18.2857143,19.2 Z" id="Shape" fill="#404040" fill-rule="nonzero"></path>
                    </g>
                </g>
            </g>
        </g>
    </g>
</svg>