<?xml version="1.0" encoding="UTF-8"?>
<svg width="72px" height="65px" viewBox="0 0 72 65" version="1.1" xmlns="http://www.w3.org/2000/svg" xmlns:xlink="http://www.w3.org/1999/xlink">
    <title>Group 22</title>
    <defs>
        <polygon id="path-1" points="0 0.194510599 71.8734729 0.194510599 71.8734729 42.6538743 0 42.6538743"></polygon>
    </defs>
    <g id="Page-1" stroke="none" stroke-width="1" fill="none" fill-rule="evenodd">
        <g id="LL21---My-Orders-Copy-3" transform="translate(-844.000000, -444.000000)">
            <g id="Group-5" transform="translate(774.000000, 444.000000)">
                <g id="Group-21" transform="translate(70.000000, 0.000000)">
                    <g id="Group-3" transform="translate(0.000000, 21.472541)">
                        <mask id="mask-2" fill="white">
                            <use xlink:href="#path-1"></use>
                        </mask>
                        <g id="Clip-2"></g>
                        <path d="M55.921772,42.6538743 L-2.24299065e-05,42.6538743 L-2.24299065e-05,16.0762675 C-2.24299065e-05,7.30497844 7.14188411,0.194510599 15.9516785,0.194510599 L71.8734729,0.194510599 L71.8734729,26.771894 C71.8734729,35.5434064 64.7315664,42.6538743 55.921772,42.6538743" id="Fill-1" fill="#FFEBDE" mask="url(#mask-2)"></path>
                    </g>
                    <polygon id="Fill-4" fill="#F8CAC3" points="19.7842991 11.7791689 30.4936822 11.7791689 30.4936822 1.11659357 19.7842991 1.11659357"></polygon>
                    <path d="M20.9055701,10.6625753 L29.3719626,10.6625753 L29.3719626,2.23318713 L20.9055701,2.23318713 L20.9055701,10.6625753 Z M30.4936822,12.8957624 L19.7840748,12.8957624 C19.164785,12.8957624 18.6625794,12.3957518 18.6625794,11.7791689 L18.6625794,1.11659357 C18.6625794,0.500010599 19.164785,0 19.7840748,0 L30.4936822,0 C31.112972,0 31.6151776,0.500010599 31.6151776,1.11659357 L31.6151776,11.7791689 C31.6151776,12.3957518 31.112972,12.8957624 30.4936822,12.8957624 L30.4936822,12.8957624 Z" id="Fill-6" fill="#A179C5"></path>
                    <polygon id="Fill-7" fill="#FFFFFF" points="19.7842991 5.10551243 30.4936822 5.10551243 30.4936822 1.11659357 19.7842991 1.11659357"></polygon>
                    <path d="M20.9055701,3.98891886 L29.3719626,3.98891886 L29.3719626,2.23318713 L20.9055701,2.23318713 L20.9055701,3.98891886 Z M30.4936822,6.22210599 L19.7840748,6.22210599 C19.164785,6.22210599 18.6625794,5.72209539 18.6625794,5.10551243 L18.6625794,1.11659357 C18.6625794,0.500010599 19.164785,0 19.7840748,0 L30.4936822,0 C31.112972,0 31.6151776,0.500010599 31.6151776,1.11659357 L31.6151776,5.10551243 C31.6151776,5.72209539 31.112972,6.22210599 30.4936822,6.22210599 L30.4936822,6.22210599 Z" id="Fill-8" fill="#A179C5"></path>
                    <path d="M38.0643364,53.4471803 L12.2136449,53.4471803 L12.2136449,23.2553836 C12.2136449,16.1482655 18.0005607,10.3866427 25.1388785,10.3866427 L25.1388785,10.3866427 C32.2774206,10.3866427 38.0643364,16.1482655 38.0643364,23.2553836 L38.0643364,53.4471803 Z" id="Fill-9" fill="#D4B1EF"></path>
                    <path d="M13.3351402,52.3305421 L36.9428411,52.3305421 L36.9428411,23.2553389 C36.9428411,16.7752998 31.6478131,11.5031916 25.1388785,11.5031916 C18.6301682,11.5031916 13.3351402,16.7752998 13.3351402,23.2553389 L13.3351402,52.3305421 Z M38.0643364,54.5637292 L12.2136449,54.5637292 C11.5941308,54.5637292 11.0921495,54.0637186 11.0921495,53.4471357 L11.0921495,23.2553389 C11.0921495,15.5436971 17.3936075,9.27000446 25.1388785,9.27000446 C32.8843738,9.27000446 39.1858318,15.5436971 39.1858318,23.2553389 L39.1858318,53.4471357 C39.1858318,54.0637186 38.6838505,54.5637292 38.0643364,54.5637292 L38.0643364,54.5637292 Z" id="Fill-10" fill="#A179C5"></path>
                    <polygon id="Fill-11" fill="#F8CAC3" points="12.213757 53.447091 38.0644486 53.447091 38.0644486 45.9627876 12.213757 45.9627876"></polygon>
                    <path d="M13.3352523,52.3304974 L36.9429533,52.3304974 L36.9429533,47.0793812 L13.3352523,47.0793812 L13.3352523,52.3304974 Z M38.0644486,54.5636846 L12.213757,54.5636846 C11.594243,54.5636846 11.0922617,54.063674 11.0922617,53.447091 L11.0922617,45.9627876 C11.0922617,45.3462047 11.594243,44.8461941 12.213757,44.8461941 L38.0644486,44.8461941 C38.6837383,44.8461941 39.1859439,45.3462047 39.1859439,45.9627876 L39.1859439,53.447091 C39.1859439,54.063674 38.6837383,54.5636846 38.0644486,54.5636846 L38.0644486,54.5636846 Z" id="Fill-12" fill="#A179C5"></path>
                    <polygon id="Fill-13" fill="#FFFFFF" points="32.4919626 38.4869704 58.1013084 38.4869704 58.1013084 31.3588604 32.4919626 31.3588604"></polygon>
                    <path d="M33.6136822,37.3703768 L56.9800374,37.3703768 L56.9800374,32.4754539 L33.6136822,32.4754539 L33.6136822,37.3703768 Z M58.1015327,39.603564 L32.4921869,39.603564 C31.8726729,39.603564 31.3706916,39.1037767 31.3706916,38.4869704 L31.3706916,31.3590837 C31.3706916,30.7422774 31.8726729,30.2424901 32.4921869,30.2424901 L58.1015327,30.2424901 C58.7208224,30.2424901 59.223028,30.7422774 59.223028,31.3590837 L59.223028,38.4869704 C59.223028,39.1037767 58.7208224,39.603564 58.1015327,39.603564 L58.1015327,39.603564 Z" id="Fill-14" fill="#A179C5"></path>
                    <path d="M54.7938841,53.4471803 L35.7997907,53.4471803 C33.9730991,53.4471803 32.4920523,51.9728302 32.4920523,50.1541226 L32.4920523,38.4870597 L58.1013981,38.4870597 L58.1013981,50.1541226 C58.1013981,51.9728302 56.6205757,53.4471803 54.7938841,53.4471803" id="Fill-15" fill="#F8CAC3"></path>
                    <path d="M33.613615,39.6036756 L33.613615,50.1541449 C33.613615,51.3542597 34.5942505,52.3306091 35.7996336,52.3306091 L54.7939514,52.3306091 C55.9993346,52.3306091 56.9799701,51.3542597 56.9799701,50.1541449 L56.9799701,39.6036756 L33.613615,39.6036756 Z M54.7939514,54.5637962 L35.7996336,54.5637962 C33.3574654,54.5637962 31.3706243,52.5856391 31.3706243,50.1541449 L31.3706243,37.3704885 L59.2229607,37.3704885 L59.2229607,50.1541449 C59.2229607,52.5856391 57.2358953,54.5637962 54.7939514,54.5637962 L54.7939514,54.5637962 Z" id="Fill-16" fill="#A179C5"></path>
                    <path d="M43.5621981,7.84829053 L43.5621981,22.5705767 L43.5621981,24.4824082 L43.5621981,27.4114565 L46.879357,24.4824082 L64.4399551,24.4824082 C65.5109832,24.4824082 66.3790206,23.6181648 66.3790206,22.5518179 L66.3790206,7.84829053 L43.5621981,7.84829053 Z" id="Fill-17" stroke="#A775C8" stroke-width="2" fill="#F8CAC3"></path>
                    <path d="M44.2375402,8.52072551 L44.2375402,25.91636 L46.4314093,23.9795168 C46.5549981,23.870314 46.7142505,23.8100179 46.8795589,23.8100179 L64.440157,23.8100179 C65.1368299,23.8100179 65.7036336,23.2456915 65.7036336,22.5518403 L65.7036336,8.52072551 L44.2375402,8.52072551 Z M43.5619514,28.0838914 C43.4681944,28.0838914 43.3739888,28.0644627 43.2851664,28.024712 C43.0426991,27.9161791 42.8868112,27.6761115 42.8868112,27.4114788 L42.8868112,7.84831287 C42.8868112,7.47693385 43.1891664,7.17590022 43.5621757,7.17590022 L66.3789981,7.17590022 C66.7522318,7.17590022 67.0543626,7.47693385 67.0543626,7.84831287 L67.0543626,22.5518403 C67.0543626,23.9871096 65.8817271,25.1548432 64.440157,25.1548432 L47.1357084,25.1548432 L44.0103252,27.9146159 C43.8842692,28.0258286 43.7241196,28.0838914 43.5619514,28.0838914 L43.5619514,28.0838914 Z" id="Fill-18" fill="#A179C5"></path>
                    <path d="M53.1618337,19.6177661 C53.0138707,19.6177661 52.8659076,19.5706677 52.7397673,19.4762216 C52.487007,19.2870804 52.3793321,18.9504139 52.473098,18.6416576 L53.0397702,16.7764109 L51.5234485,15.6315954 C51.2714077,15.4412082 51.1651717,15.1042925 51.2603764,14.7957854 C51.3553414,14.4872783 51.6301642,14.2769553 51.941678,14.2742141 L53.8241903,14.2575178 C53.8241903,14.2575178 54.4069298,12.3942646 54.4086084,12.3887823 C54.5102881,12.0880003 54.7930247,11.8796708 55.0997423,11.8796708 C55.4117357,11.8796708 55.688477,12.0880003 55.7858401,12.396009 L56.3733757,14.2547766 L58.2455762,14.2547766 C58.55709,14.2547766 58.8338313,14.4626077 58.9314342,14.770118 C59.029037,15.0776283 58.9256787,15.41579 58.674837,15.60842 L57.1616328,16.7714269 L57.7405353,18.6234662 C57.8366993,18.9312257 57.7321419,19.2688889 57.4808206,19.460273 C57.353721,19.557211 57.2038394,19.6055554 57.0537181,19.6055554 C56.9069541,19.6055554 56.7599502,19.5589553 56.6342895,19.4660045 L55.1021404,18.329911 L53.5862983,19.4744772 C53.4596784,19.5699201 53.3107561,19.6177661 53.1618337,19.6177661" id="Fill-19" fill="#FFFFFF"></path>
                    <path d="M55.433837,11.1969271 C54.7991168,11.1969271 54.238128,11.6147016 54.0377922,12.2366045 C54.036822,12.2398605 54.0358519,12.243367 54.0346392,12.2466231 L53.6116541,13.5916165 L52.2337995,13.6036388 C51.603445,13.609149 51.0475495,14.0319327 50.8552174,14.6518319 C50.6628853,15.2719816 50.8775308,15.9494876 51.3875868,16.3321971 L52.4954973,17.1634882 L52.081001,18.5202534 C51.8910943,19.1411545 52.1086503,19.8176586 52.620404,20.1981139 C52.8753108,20.3877154 53.1746018,20.4826414 53.4738929,20.4826414 C53.7751242,20.4826414 54.0763556,20.3864631 54.3322325,20.1943569 L55.440143,19.3633163 L56.5616356,20.1895981 C56.8155721,20.376695 57.1129229,20.4701181 57.4100311,20.4701181 C57.7134453,20.4701181 58.016617,20.372938 58.2737065,20.1783272 C58.7820648,19.7933635 58.9940424,19.1151062 58.7990424,18.4957079 L58.3760573,17.1509649 L59.4837252,16.3048965 C59.9906282,15.9176786 60.1996954,15.2384194 60.00227,14.620023 C59.8050872,14.0016266 59.2457961,13.5838521 58.6151991,13.5838521 L57.2506841,13.5838521 L56.821393,12.2346008 C56.6244527,11.615453 56.0649191,11.1969271 55.433837,11.1969271 M55.4337262,12.7445461 L56.114875,14.9187561 C56.1488381,15.0280726 56.2453027,15.1015273 56.3549752,15.1015273 L58.5274342,15.1015273 L56.7759761,16.4600685 C56.6870588,16.5278348 56.6502655,16.6467968 56.6842286,16.7561132 L57.3554715,18.9226562 L55.5820789,17.5957723 C55.5377382,17.5618891 55.4858501,17.5448239 55.4337262,17.5448239 C55.3816022,17.5448239 55.3297142,17.5618891 55.2853735,17.5957723 L53.5277831,18.9350223 L54.1832237,16.7561132 C54.2171868,16.6467968 54.1803935,16.5278348 54.0914762,16.4600685 L52.3338859,15.1210657 L54.5124771,15.1015273 C54.6221496,15.1015273 54.7186143,15.0280726 54.7528132,14.9187561 L55.4240561,12.7519658 C55.4252354,12.748256 55.4264147,12.7445461 55.4337262,12.7445461" id="Fill-20" fill="#A179C5"></path>
                </g>
            </g>
        </g>
    </g>
</svg>