<?xml version="1.0" encoding="UTF-8"?>
<svg width="125px" height="16px" viewBox="0 0 125 16" version="1.1" xmlns="http://www.w3.org/2000/svg" xmlns:xlink="http://www.w3.org/1999/xlink">
    <title>Group</title>
    <defs>
        <polygon id="path-1" points="0.118479405 0.0942857143 9.48928138 0.0942857143 9.48928138 8.26911429 0.118479405 8.26911429"></polygon>
    </defs>
    <g id="Page-1" stroke="none" stroke-width="1" fill="none" fill-rule="evenodd">
        <g id="LL21---Write-Review-&lt;150" transform="translate(-902.000000, -285.000000)">
            <g id="Group" transform="translate(902.000000, 285.000000)">
                <rect id="Rectangle" fill="#F4F3F4" x="0" y="0" width="125" height="16" rx="8"></rect>
                <g id="Group-2" transform="translate(4.000000, 2.000000)">
                    <text id="TRUSTED-REVIEW" font-family="Satoshi-Black, Satoshi" font-size="10" font-weight="800" line-spacing="12" letter-spacing="0.833333333" fill="#25182E">
                        <tspan x="17" y="10">TRUSTED REVIEW</tspan>
                    </text>
                    <g id="verified">
                        <path d="M0.714314286,6.12831429 C0.714314286,8.9246 2.98117143,11.1914571 5.77745714,11.1914571 C8.57374286,11.1914571 10.8406,8.9246 10.8406,6.12831429 C10.8406,3.33202857 8.57374286,1.06517143 5.77745714,1.06517143 C2.98117143,1.06517143 0.714314286,3.33202857 0.714314286,6.12831429" id="Fill-1" fill="#FFFFFF"></path>
                        <path d="M5.77748571,1.77944286 C3.37948571,1.77944286 1.42862857,3.7303 1.42862857,6.1283 C1.42862857,8.5263 3.37948571,10.4771571 5.77748571,10.4771571 C8.17548571,10.4771571 10.1263429,8.5263 10.1263429,6.1283 C10.1263429,3.7303 8.17548571,1.77944286 5.77748571,1.77944286 M5.77748571,11.9057286 C2.59177143,11.9057286 5.71428571e-05,9.31401429 5.71428571e-05,6.1283 C5.71428571e-05,2.94258571 2.59177143,0.350871429 5.77748571,0.350871429 C8.9632,0.350871429 11.5549143,2.94258571 11.5549143,6.1283 C11.5549143,9.31401429 8.9632,11.9057286 5.77748571,11.9057286" id="Fill-3" fill="#A179C5"></path>
                        <g id="Group-7" transform="translate(2.571429, 0.048629)">
                            <mask id="mask-2" fill="white">
                                <use xlink:href="#path-1"></use>
                            </mask>
                            <g id="Clip-6"></g>
                            <path d="M3.12221429,8.26911429 C2.93764286,8.26911429 2.75964286,8.19754286 2.62607143,8.06868571 L0.336642857,5.85811429 C0.0527857143,5.58411429 0.0449285714,5.13197143 0.318928571,4.84811429 C0.5925,4.5644 1.04507143,4.55625714 1.32878571,4.8304 L3.06692857,6.50854286 L8.2275,0.349685714 C8.48078571,0.0475428571 8.93121429,0.00754285714 9.23364286,0.260971429 C9.53607143,0.5144 9.57592857,0.964971429 9.32235714,1.26725714 L3.66964286,8.01354286 C3.54235714,8.1654 3.35764286,8.25768571 3.15992857,8.26811429 C3.14735714,8.26882857 3.13478571,8.26911429 3.12221429,8.26911429" id="Fill-5" fill="#A179C5" mask="url(#mask-2)"></path>
                        </g>
                    </g>
                </g>
            </g>
        </g>
    </g>
</svg>