<?xml version="1.0" encoding="UTF-8"?>
<svg width="14px" height="14px" viewBox="0 0 14 14" version="1.1" xmlns="http://www.w3.org/2000/svg" xmlns:xlink="http://www.w3.org/1999/xlink">
    <title>Components / Icons / Close</title>
    <defs>
        <path d="M1.04249369,12.9575063 C0.769585438,12.6845981 0.769585438,12.2406519 1.04249369,11.9677437 L6.0411733,7.03093592 L1.04249369,2.03225631 C0.769585438,1.75934806 0.769585438,1.31540194 1.04249369,1.04249369 C1.31540194,0.769585438 1.75934806,0.769585438 2.03225631,1.04249369 L6.96906408,6.0411733 L11.9677437,1.04249369 C12.2406519,0.769585438 12.6845981,0.769585438 12.9575063,1.04249369 C13.2304146,1.31540194 13.2304146,1.75934806 12.9575063,2.03225631 L7.9588267,6.96906408 L12.9575063,11.9677437 C13.2304146,12.2406519 13.2304146,12.6845981 12.9575063,12.9575063 C12.6845981,13.2304146 12.2406519,13.2304146 11.9677437,12.9575063 L7.03093592,7.9588267 L2.03225631,12.9575063 C1.75934806,13.2304146 1.31540194,13.2304146 1.04249369,12.9575063 Z" id="path-1"></path>
    </defs>
    <g id="Page-1" stroke="none" stroke-width="1" fill="none" fill-rule="evenodd">
        <g id="LL21---A2B-with-size" transform="translate(-330.000000, -234.000000)">
            <g id="Pop-Up-Added-to-Shopping-Bag" transform="translate(0.000000, 218.000000)">
                <g id="Components-/-Icons-/-Close" transform="translate(326.000000, 12.000000)">
                    <polygon id="Bound" points="0 0 22 0 22 22 0 22"></polygon>
                    <g id="Close" transform="translate(4.000000, 4.000000)">
                        <mask id="mask-2" fill="white">
                            <use xlink:href="#path-1"></use>
                        </mask>
                        <use id="Path" fill="#404040" fill-rule="nonzero" xlink:href="#path-1"></use>
                    </g>
                </g>
            </g>
        </g>
    </g>
</svg>