<?xml version="1.0" encoding="UTF-8"?>
<svg width="42px" height="45px" viewBox="0 0 42 45" version="1.1" xmlns="http://www.w3.org/2000/svg" xmlns:xlink="http://www.w3.org/1999/xlink">
    <!-- Generator: Sketch 60.1 (88133) - https://sketch.com -->
    <title>Group 28</title>
    <desc>Created with Sketch.</desc>
    <defs>
        <polygon id="path-1" points="0 0.0318403042 61.8562563 0.0318403042 61.8562563 37.6844106 0 37.6844106"></polygon>
    </defs>
    <g id="Page-1" stroke="none" stroke-width="1" fill="none" fill-rule="evenodd">
        <g id="PDP---Bundle---popup-bundle-OOS" transform="translate(-558.000000, -252.000000)">
            <g id="Group-34" transform="translate(544.000000, 252.000000)">
                <g id="Group-28">
                    <g id="Group-3" transform="translate(0.000000, 15.154373)">
                        <mask id="mask-2" fill="white">
                            <use xlink:href="#path-1"></use>
                        </mask>
                        <g id="Clip-2"></g>
                    </g>
                    <path d="M24.1058608,7.85957757 C24.1058608,4.07541787 27.1603139,1.00766502 30.928068,1.00766502 C34.695822,1.00766502 37.7502751,4.07541787 37.7502751,7.85957757" id="Fill-4" fill="#FFFFFF"></path>
                    <path d="M38.7535515,7.85955741 L36.747079,7.85955741 C36.747079,4.6370365 34.1366583,2.01524943 30.9281081,2.01524943 C27.7195579,2.01524943 25.1091372,4.6370365 25.1091372,7.85955741 L23.1026647,7.85955741 C23.1026647,3.52585019 26.613189,4.03041825e-05 30.9281081,4.03041825e-05 C35.2430272,4.03041825e-05 38.7535515,3.52585019 38.7535515,7.85955741" id="Fill-6" fill="#A179C5"></path>
                    <path d="M44.1613761,43.3734065 L17.6950006,43.3734065 C16.5362628,43.3734065 15.597033,42.4300871 15.597033,41.2663038 L15.597033,10.1363608 C15.597033,8.97277909 16.5362628,8.0294597 17.6950006,8.0294597 L44.1613761,8.0294597 C45.3201139,8.0294597 46.2593437,8.97277909 46.2593437,10.1363608 L46.2593437,41.2663038 C46.2593437,42.4300871 45.3201139,43.3734065 44.1613761,43.3734065" id="Fill-8" fill="#D4B1EF"></path>
                    <path d="M17.6950006,9.0370038 C17.0912531,9.0370038 16.6002693,9.53012548 16.6002693,10.1365019 L16.6002693,41.2664449 C16.6002693,41.8726198 17.0912531,42.3657414 17.6950006,42.3657414 L44.1613761,42.3657414 C44.764923,42.3657414 45.2559068,41.8726198 45.2559068,41.2664449 L45.2559068,10.1365019 C45.2559068,9.53012548 44.764923,9.0370038 44.1613761,9.0370038 L17.6950006,9.0370038 Z M44.1613761,44.3809506 L17.6950006,44.3809506 C15.9850848,44.3809506 14.5937968,42.9838061 14.5937968,41.2664449 L14.5937968,10.1365019 C14.5937968,8.41893916 15.9850848,7.02179468 17.6950006,7.02179468 L44.1613761,7.02179468 C45.8714926,7.02179468 47.2623793,8.41893916 47.2623793,10.1365019 L47.2623793,41.2664449 C47.2623793,42.9838061 45.8714926,44.3809506 44.1613761,44.3809506 L44.1613761,44.3809506 Z" id="Fill-10" fill="#A179C5"></path>
                    <path d="M17.6950006,42.9703445 C16.7593825,42.9703445 15.9983275,42.2059757 15.9983275,41.2662837 L15.9983275,10.1363407 C15.9983275,9.19685019 16.7593825,8.43248137 17.6950006,8.43248137 L44.1613761,8.43248137 C45.0967935,8.43248137 45.8578485,9.19685019 45.8578485,10.1363407 L45.8578485,41.2662837 C45.8578485,42.2059757 45.0967935,42.9703445 44.1613761,42.9703445 L17.6950006,42.9703445 Z" id="Fill-12" fill="#D4B1EF"></path>
                    <path d="M44.1613761,8.02935894 L17.6950006,8.02935894 C16.5362628,8.02935894 15.597033,8.97267833 15.597033,10.1364616 L15.597033,41.2664046 C15.597033,42.4299863 16.5362628,43.3733057 17.6950006,43.3733057 L44.1613761,43.3733057 C45.3201139,43.3733057 46.2593437,42.4299863 46.2593437,41.2664046 L46.2593437,10.1364616 C46.2593437,8.97267833 45.3201139,8.02935894 44.1613761,8.02935894 M44.1613761,8.83544259 C44.8756803,8.83544259 45.4567547,9.41904715 45.4567547,10.1364616 L45.4567547,41.2664046 C45.4567547,41.9836175 44.8756803,42.5672221 44.1613761,42.5672221 L17.6950006,42.5672221 C16.9806964,42.5672221 16.399622,41.9836175 16.399622,41.2664046 L16.399622,10.1364616 C16.399622,9.41904715 16.9806964,8.83544259 17.6950006,8.83544259 L44.1613761,8.83544259" id="Fill-14" fill="#A179C5"></path>
                    <path d="M18.1715379,43.0915795 C16.9694602,43.0915795 15.9915055,42.109165 15.9915055,40.9018532 L15.9915055,36.770876 L46.1160816,36.770876 L46.1160816,40.9018532 C46.1160816,42.109165 45.1379262,43.0915795 43.9358485,43.0915795 L18.1715379,43.0915795 Z" id="Fill-16" fill="#FFEBDE"></path>
                    <path d="M46.6176796,36.2671141 L45.6144434,36.2671141 L16.4929029,36.2671141 L15.4896667,36.2671141 L15.4896667,37.2747186 L15.4896667,40.9018935 C15.4896667,42.3871027 16.6927476,43.5954221 18.1715178,43.5954221 L43.9358285,43.5954221 C45.4145987,43.5954221 46.6176796,42.3871027 46.6176796,40.9018935 L46.6176796,37.2747186 L46.6176796,36.2671141 Z M45.6144434,37.2747186 L45.6144434,40.9018935 C45.6144434,41.8329202 44.8630194,42.5878175 43.9358285,42.5878175 L18.1715178,42.5878175 C17.2445275,42.5878175 16.4929029,41.8329202 16.4929029,40.9018935 L16.4929029,37.2747186 L45.6144434,37.2747186 L45.6144434,37.2747186 Z" id="Fill-18" fill="#A179C5"></path>
                    <polygon id="Fill-20" fill="#FFFFFF" points="26.8203172 27.5283612 29.2206602 27.5283612 29.2206602 20.2083156 26.8203172 20.2083156"></polygon>
                    <path d="M29.2206602,27.5284418 L32.9761748,27.5284418 C33.2761424,27.5284418 33.5193269,27.2841985 33.5193269,26.9827232 L33.5193269,24.4820502 L32.2538447,24.4820502 C30.5786408,24.4820502 29.2206602,25.8459437 29.2206602,27.5284418 Z" id="Fill-22" fill="#FFFFFF"></path>
                    <path d="M35.0359793,20.2084567 C35.0359793,21.0496049 34.356989,21.7315517 33.5194874,21.7315517 C32.6817851,21.7315517 32.0027948,21.0496049 32.0027948,20.2084567 C32.0027948,19.3673084 32.6817851,18.6853616 33.5194874,18.6853616 C34.356989,18.6853616 35.0359793,19.3673084 35.0359793,20.2084567" id="Fill-23" fill="#FFFFFF"></path>
                    <path d="M54.6935909,15.1863137 C54.6935909,19.8646217 50.9174097,23.6572452 46.2593838,23.6572452 C41.6011573,23.6572452 37.8249761,19.8646217 37.8249761,15.1863137 C37.8249761,10.5080057 41.6011573,6.71538213 46.2593838,6.71538213 C50.9174097,6.71538213 54.6935909,10.5080057 54.6935909,15.1863137" id="Fill-24" fill="#FFFFFF"></path>
                    <path d="M46.2594039,7.72294639 C42.1617858,7.72294639 38.8282324,11.0710148 38.8282324,15.1862734 C38.8282324,19.3017335 42.1617858,22.6496004 46.2594039,22.6496004 C50.3568214,22.6496004 53.6903748,19.3017335 53.6903748,15.1862734 C53.6903748,11.0710148 50.3568214,7.72294639 46.2594039,7.72294639 M46.2594039,24.6648095 C41.0554168,24.6648095 36.8217599,20.4127183 36.8217599,15.1862734 C36.8217599,9.95982852 41.0554168,5.70773726 46.2594039,5.70773726 C51.4633909,5.70773726 55.6968472,9.95982852 55.6968472,15.1862734 C55.6968472,20.4127183 51.4633909,24.6648095 46.2594039,24.6648095" id="Fill-25" fill="#A179C5"></path>
                    <path d="M49.1700731,18.7539392 C48.9910958,18.7539392 48.8121184,18.6856236 48.6750764,18.5489924 L43.3428757,13.2274297 C43.0677883,12.9527567 43.0663838,12.5063878 43.3396654,12.2299011 C43.6129469,11.953616 44.0577819,11.9520038 44.3328693,12.2266768 L49.6650699,17.5482395 C49.9401573,17.8229125 49.9415618,18.2694829 49.6680796,18.5457681 C49.5310375,18.6844144 49.350455,18.7539392 49.1700731,18.7539392" id="Fill-26" fill="#A179C5"></path>
                    <path d="M43.8378324,18.7539392 C43.6574505,18.7539392 43.476868,18.6844144 43.3398259,18.5457681 C43.0663437,18.2694829 43.0677482,17.8229125 43.3428356,17.5482395 L48.6750362,12.2266768 C48.9501236,11.9520038 49.3949586,11.953616 49.6682401,12.2299011 C49.9415217,12.5063878 49.9401172,12.9527567 49.6650298,13.2274297 L44.3328291,18.5489924 C44.1957871,18.6856236 44.0168097,18.7539392 43.8378324,18.7539392" id="Fill-27" fill="#A179C5"></path>
                </g>
            </g>
        </g>
    </g>
</svg>