<svg width="18" height="18" viewBox="0 0 18 18" fill="none" xmlns="http://www.w3.org/2000/svg">
<path d="M6.75 16.875C7.68198 16.875 8.4375 16.1195 8.4375 15.1875C8.4375 14.2555 7.68198 13.5 6.75 13.5C5.81802 13.5 5.0625 14.2555 5.0625 15.1875C5.0625 16.1195 5.81802 16.875 6.75 16.875Z" fill="#A775C8"/>
<path d="M12.375 16.875C13.307 16.875 14.0625 16.1195 14.0625 15.1875C14.0625 14.2555 13.307 13.5 12.375 13.5C11.443 13.5 10.6875 14.2555 10.6875 15.1875C10.6875 16.1195 11.443 16.875 12.375 16.875Z" fill="#A775C8"/>
<path fill-rule="evenodd" clip-rule="evenodd" d="M15.0503 8.07862L14.8314 8.88131C14.6312 9.61594 13.9641 10.125 13.203 10.125H5.22057L5.39494 10.8242C5.45794 11.0745 5.68294 11.25 5.94112 11.25H14.0625C14.373 11.25 14.625 11.502 14.625 11.8125C14.625 12.123 14.373 12.375 14.0625 12.375H5.94112C5.16656 12.375 4.49156 11.8479 4.30369 11.097L3.9555 9.70481L2.27419 3.53813L1.84444 2.25H1.125C0.8145 2.25 0.5625 1.998 0.5625 1.6875C0.5625 1.377 0.8145 1.125 1.125 1.125H1.84444C2.32875 1.125 2.7585 1.43494 2.91206 1.89451L3.21806 2.8125H9.5895C9.53156 3.09994 9.50118 3.3975 9.50118 3.70181C9.50118 6.18525 11.5177 8.20181 14.0012 8.20181C14.3623 8.20181 14.7139 8.15906 15.0503 8.07862Z" fill="#A775C8"/>
<path d="M14.0625 7.3125C15.9265 7.3125 17.4375 5.80146 17.4375 3.9375C17.4375 2.07354 15.9265 0.5625 14.0625 0.5625C12.1985 0.5625 10.6875 2.07354 10.6875 3.9375C10.6875 5.80146 12.1985 7.3125 14.0625 7.3125Z" fill="black"/>
<path fill-rule="evenodd" clip-rule="evenodd" d="M14.0625 1.26562C14.2567 1.26562 14.4141 1.42302 14.4141 1.61719V3.58594H15.6094C15.8035 3.58594 15.9609 3.74334 15.9609 3.9375C15.9609 4.13166 15.8035 4.28906 15.6094 4.28906H14.0625C13.8683 4.28906 13.7109 4.13166 13.7109 3.9375V1.61719C13.7109 1.42302 13.8683 1.26562 14.0625 1.26562Z" fill="white"/>
</svg>
