<?xml version="1.0" encoding="UTF-8"?>
<svg width="13px" height="12px" viewBox="0 0 13 12" version="1.1" xmlns="http://www.w3.org/2000/svg" xmlns:xlink="http://www.w3.org/1999/xlink">
    <title>Components/Star/active Copy 3</title>
    <g id="Symbols" stroke="none" stroke-width="1" fill="none" fill-rule="evenodd">
        <g id="New-Product-/-Components-/-Rating-row" transform="translate(-44.000000, 0.000000)" fill-rule="nonzero">
            <g id="star" transform="translate(44.383562, 0.000000)">
                <path d="M7.18213203,0.835668097 L7.9779377,2.47058824 C8.24183085,3.01255071 8.75179916,3.38831136 9.34166691,3.47512043 L11.1213044,3.73735422 C12.0691253,3.8770284 12.4475222,5.05793611 11.7617189,5.73576952 L10.4740441,7.00843054 C10.0471637,7.43030553 9.85238545,8.03815923 9.95310374,8.63384254 L10.2571341,10.430876 C10.4189961,11.3879627 9.42822459,12.1179006 8.58046555,11.66598 L6.98866668,10.817571 C6.46106796,10.536321 5.83068786,10.536321 5.30308913,10.817571 L3.71138403,11.66598 C2.86353122,12.1179006 1.87275972,11.3879627 2.03462169,10.430876 L2.33865208,8.63384254 C2.43937036,8.03815923 2.2445921,7.43040061 1.81780544,7.00852561 L0.530036956,5.73586462 C-0.155860136,5.05803118 0.222630538,3.8770284 1.17054515,3.73735422 L2.9500889,3.47521553 C3.54005043,3.38831136 4.04992497,3.01264578 4.31381811,2.47068331 L5.10962379,0.835668097 C5.5335033,-0.0351800081 6.75825251,-0.0351800081 7.18213203,0.835668097 Z" id="Path" fill="#E3DCFA"></path>
                <path d="M5.00121564,5.13352561 C5.9464107,4.24137931 6.88757328,2.12230603 7.30807677,1.09438389 L7.18213203,0.835668097 C6.75825251,-0.0351800081 5.5335033,-0.0351800081 5.10962379,0.835668097 L4.31372434,2.47058824 C4.04992497,3.01255071 3.53995665,3.38831136 2.9500889,3.47512043 L1.17045138,3.73735422 C0.222630538,3.8770284 -0.155860136,5.05793611 0.530036956,5.73576952 L1.81771167,7.00843054 C2.2445921,7.43030553 2.43937036,8.03815923 2.3385583,8.63384254 L2.03462169,10.430876 C1.87266595,11.3879627 2.86353122,12.1179006 3.71129026,11.66598 L4.85201382,11.0579361 C5.61752898,8.30162906 3.30485356,6.73478702 5.00121564,5.13352561 Z" id="Path" fill="#C7BBEC"></path>
                <g id="Group" transform="translate(2.958904, 5.000000)" fill="#8B7FBF">
                    <path d="M6.13324902,1.33646045 C5.93425073,1.33646045 5.77313899,1.17292089 5.77313899,0.971158686 L5.77313899,0.365111562 C5.77313899,0.163349355 5.93425073,-3.55271368e-15 6.13324902,-3.55271368e-15 C6.33224737,-3.55271368e-15 6.49335906,0.163349355 6.49335906,0.365111562 L6.49335906,0.971158686 C6.49335906,1.17292089 6.33205977,1.33646045 6.13324902,1.33646045 Z" id="Path"></path>
                    <path d="M0.360110034,1.33646045 C0.161111693,1.33646045 6.62319514e-13,1.17292089 6.62319514e-13,0.971158686 L6.62319514e-13,0.365111562 C6.62319514e-13,0.163349355 0.161111693,-3.55271368e-15 0.360110034,-3.55271368e-15 C0.559108327,-3.55271368e-15 0.720220067,0.163349355 0.720220067,0.365111562 L0.720220067,0.971158686 C0.720220067,1.17292089 0.559108327,1.33646045 0.360110034,1.33646045 Z" id="Path"></path>
                    <path d="M3.24667953,2.71868659 C2.78059963,2.71868659 2.31451973,2.56579612 1.92552584,2.25982504 C1.76835284,2.13640974 1.73984413,1.90688386 1.86175636,1.74752785 C1.98348104,1.58817189 2.20986272,1.55926723 2.36703577,1.68287273 C2.88488149,2.09020029 3.60847757,2.09020029 4.12632329,1.68287273 C4.28349633,1.55926723 4.50969047,1.58817189 4.6316027,1.74752785 C4.75351493,1.90688386 4.72500622,2.13621959 4.56783321,2.25982504 C4.17883933,2.56579612 3.71275943,2.71868659 3.24667953,2.71868659 L3.24667953,2.71868659 Z" id="Path"></path>
                </g>
                <path d="M2.20886242,9.40095714 C2.11048862,9.38650481 2.04503113,9.28952205 2.06181749,9.19016227 L2.16122289,8.60303625 C2.25200062,8.06639832 2.07663453,7.51920638 1.69204827,7.13926218 L0.404373559,5.86660116 C0.0376052345,5.5040568 -0.0919030815,4.97217293 0.0663952874,4.4783215 C0.224599884,3.98456517 0.637788624,3.63143382 1.14456847,3.55670006 L2.92420602,3.29456135 C3.45555586,3.21630959 3.91460238,2.878106 4.15233128,2.38986436 L4.94813693,0.754849144 C5.17479993,0.289236803 5.63375268,0 6.14587791,0 C6.65800313,0 7.11695588,0.289236803 7.34361888,0.754849144 L8.13942453,2.38986436 C8.37705966,2.878106 8.83619995,3.21630959 9.36754979,3.29456135 L9.97889285,3.38460319 C10.0773604,3.39915062 10.1455375,3.49175963 10.1312832,3.59149974 C10.116935,3.69133495 10.0253133,3.76045894 9.92712703,3.74591151 L9.31578398,3.65586966 C8.66702326,3.56031313 8.10660202,3.14747085 7.81645087,2.55150229 L7.0206452,0.916487075 C6.85259385,0.571247465 6.52558767,0.365111562 6.14587791,0.365111562 C5.76616814,0.365111562 5.43916197,0.571247465 5.27111062,0.916487075 L4.47521117,2.55150229 C4.1851538,3.14747085 3.62463878,3.56031313 2.97597184,3.65586966 L1.19642809,3.91810345 C0.82056324,3.97344068 0.526192037,4.22502535 0.408874934,4.59118282 C0.291557831,4.95734025 0.383836027,5.33642875 0.655700353,5.60512805 L1.94346884,6.87769397 C2.412831,7.34168991 2.62692767,8.00963489 2.51608131,8.6647439 L2.41676971,9.25186992 C2.40176513,9.34077079 2.33049335,9.41873732 2.20886242,9.40095714 Z" id="Path" fill="#8B7FBF"></path>
                <path d="M8.49662745,11.8276179 L6.90492235,10.9791138 C6.4296521,10.7258177 5.86210371,10.7258177 5.38683346,10.9791138 L3.79512837,11.8276179 C3.34180236,12.0692191 2.80285643,12.0296653 2.38854234,11.72455 C1.97422824,11.4193395 1.77063477,10.9117964 1.85719248,10.3999746 L1.9203055,10.0269713 C1.93709189,9.92761156 2.03012031,9.86076952 2.1282128,9.8779792 C2.22621149,9.89499873 2.29204409,9.98931921 2.27525773,10.088679 L2.21214468,10.4616823 C2.1479063,10.8411511 2.29298189,11.2028398 2.60020076,11.4291329 C2.90741963,11.655426 3.29144321,11.68357 3.6275459,11.504342 L5.21925103,10.6559331 C5.79945955,10.3466341 6.49220247,10.3467292 7.07250479,10.6559331 L8.66420991,11.504342 C9.00031261,11.68357 9.38433618,11.655426 9.69155505,11.4291329 C9.99877392,11.2028398 10.1438495,10.8411511 10.0796111,10.4616823 L9.7756745,8.6647439 C9.66482814,8.00963489 9.87892482,7.34168991 10.348287,6.87769397 L11.6360555,5.60512805 C11.9080136,5.33642875 12.0002918,4.95734025 11.8828809,4.59118282 C11.7655638,4.22502535 11.4711926,3.97344068 11.0954215,3.91810345 L10.7031454,3.86029412 C10.6047716,3.84574671 10.5365945,3.75313767 10.5508489,3.65339757 C10.5651032,3.55356239 10.656725,3.48424822 10.7549112,3.4989858 L11.1471873,3.55670006 C11.6539672,3.63143382 12.0671559,3.98456517 12.2253605,4.4783215 C12.3836589,4.97217293 12.2541506,5.50415187 11.8873823,5.86660116 L10.5997075,7.13926218 C10.2152151,7.51920638 10.039849,8.06639832 10.1305329,8.60303625 L10.4345633,10.3999746 C10.521121,10.9117964 10.3185591,11.4207657 9.90321347,11.72455 C9.29365224,12.1701952 8.69384394,11.9326826 8.49662745,11.8276179 L8.49662745,11.8276179 Z" id="Path" fill="#8B7FBF"></path>
            </g>
        </g>
    </g>
</svg>