<?xml version="1.0" encoding="UTF-8"?>
<svg width="88px" height="22px" viewBox="0 0 88 22" version="1.1" xmlns="http://www.w3.org/2000/svg" xmlns:xlink="http://www.w3.org/1999/xlink">
    <title>Group 34</title>
    <g id="Design" stroke="none" stroke-width="1" fill="none" fill-rule="evenodd">
        <g id="PDP---Bundle-Dex" transform="translate(-418.000000, -1149.000000)">
            <g id="Group-12" transform="translate(354.000000, 1149.000000)">
                <g id="Group-34" transform="translate(64.000000, 0.000000)">
                    <path d="M88,22 L7.60278135,22 C3.40398561,22 0,18.5932836 0,14.3911194 L0,0 L80.3972186,0 C84.5960144,0 88,3.40671642 88,7.6088806 L88,22 Z" id="Fill-7" fill="#6A83CB"></path>
                    <g id="BUNDLES" transform="translate(20.545000, 6.560000)" fill="#FFFFFF" fill-rule="nonzero">
                        <path d="M0,7.44 L2.96,7.44 C4.47,7.44 5.34,6.71 5.34,5.46 C5.34,4.61 4.95,4.03 4.18,3.78 C4.87,3.49 5.23,2.91 5.23,2.1 C5.23,0.88 4.35,0.13 2.91,0.13 L0,0.13 L0,7.44 Z M2.8,1.26 C3.52,1.26 3.92,1.6 3.92,2.23 C3.92,2.88 3.53,3.25 2.83,3.25 L1.28,3.25 L1.28,1.26 L2.8,1.26 Z M2.91,4.33 C3.62,4.33 4.03,4.68 4.03,5.3 C4.03,5.96 3.63,6.31 2.91,6.31 L1.28,6.31 L1.28,4.33 L2.91,4.33 Z" id="Shape"></path>
                        <path d="M6.96,4.77 C6.96,6.49 8.08,7.56 9.85,7.56 C11.63,7.56 12.75,6.48 12.75,4.77 L12.75,0.13 L11.47,0.13 L11.47,4.69 C11.47,5.73 10.89,6.32 9.85,6.32 C8.81,6.32 8.24,5.74 8.24,4.69 L8.24,0.13 L6.96,0.13 L6.96,4.77 Z" id="Path"></path>
                        <polygon id="Path" points="16.08 7.44 16.08 2.26 19.52 7.44 20.78 7.44 20.78 0.13 19.52 0.13 19.52 5.31 16.09 0.13 14.82 0.13 14.82 7.44"></polygon>
                        <path d="M25.53,7.44 C27.65,7.44 29.11,5.95 29.11,3.8 C29.11,1.62 27.62,0.13 25.46,0.13 L22.9,0.13 L22.9,7.44 L25.53,7.44 Z M25.34,1.31 C26.85,1.31 27.76,2.25 27.76,3.8 C27.76,5.32 26.87,6.26 25.41,6.26 L24.18,6.26 L24.18,1.31 L25.34,1.31 Z" id="Shape"></path>
                        <polygon id="Path" points="32.08 0.13 30.8 0.13 30.8 7.44 35.14 7.44 35.14 6.26 32.08 6.26"></polygon>
                        <polygon id="Path" points="41.22 7.44 41.22 6.26 37.96 6.26 37.96 4.32 40.88 4.32 40.88 3.19 37.96 3.19 37.96 1.31 41.22 1.31 41.22 0.13 36.68 0.13 36.68 7.44"></polygon>
                        <path d="M42.69,2.17 C42.69,3.29 43.34,4 44.58,4.27 L45.74,4.53 C46.34,4.66 46.59,4.95 46.59,5.44 C46.59,6.05 46.05,6.42 45.2,6.42 C44.38,6.42 43.88,6.05 43.87,5.43 L42.59,5.43 C42.62,6.74 43.64,7.57 45.2,7.57 C46.81,7.57 47.87,6.69 47.87,5.33 C47.87,4.24 47.26,3.6 46.01,3.33 L44.86,3.08 C44.25,2.94 43.97,2.65 43.97,2.13 C43.97,1.52 44.48,1.14 45.27,1.14 C45.99,1.14 46.44,1.51 46.47,2.14 L47.75,2.14 C47.71,0.82 46.77,-3.55271368e-15 45.29,-3.55271368e-15 C43.75,-3.55271368e-15 42.69,0.89 42.69,2.17 Z" id="Path"></path>
                    </g>
                </g>
            </g>
        </g>
    </g>
</svg>