<?xml version="1.0" encoding="UTF-8"?>
<svg width="88px" height="22px" viewBox="0 0 88 22" version="1.1" xmlns="http://www.w3.org/2000/svg" xmlns:xlink="http://www.w3.org/1999/xlink">
    <title>Group 41</title>
    <g id="Symbols" stroke="none" stroke-width="1" fill="none" fill-rule="evenodd">
        <g id="Newprod/Desktop/OOS" transform="translate(0.000000, -164.000000)">
            <g id="Group-2" transform="translate(0.000000, 30.000000)">
                <g id="Group-41" transform="translate(0.000000, 134.000000)">
                    <path d="M88,22 L7.60278135,22 C3.40398561,22 0,18.5932836 0,14.3911194 L0,0 L80.3972186,0 C84.5960144,0 88,3.40671642 88,7.6088806 L88,22 Z" id="Fill-7" fill="#B0B0B0"></path>
                    <g id="Stok-Habis" transform="translate(18.535000, 8.060000)" fill="#FFFFFF" fill-rule="nonzero">
                        <path d="M0.1,2.17 C0.1,3.29 0.75,4 1.99,4.27 L3.15,4.53 C3.75,4.66 4,4.95 4,5.44 C4,6.05 3.46,6.42 2.61,6.42 C1.79,6.42 1.29,6.05 1.28,5.43 L0,5.43 C0.03,6.74 1.05,7.57 2.61,7.57 C4.22,7.57 5.28,6.69 5.28,5.33 C5.28,4.24 4.67,3.6 3.42,3.33 L2.27,3.08 C1.66,2.94 1.38,2.65 1.38,2.13 C1.38,1.52 1.89,1.14 2.68,1.14 C3.4,1.14 3.85,1.51 3.88,2.14 L5.16,2.14 C5.12,0.82 4.18,0 2.7,0 C1.16,0 0.1,0.89 0.1,2.17 Z" id="Path"></path>
                        <polygon id="Path" points="8.24 7.44 8.24 3.52 9.2 3.52 9.2 2.5 8.24 2.5 8.24 0.96 7.02 0.96 7.02 2.5 6.07 2.5 6.07 3.52 7.02 3.52 7.02 7.44"></polygon>
                        <path d="M9.92,4.96 C9.92,6.5 11.03,7.56 12.56,7.56 C14.09,7.56 15.2,6.5 15.2,4.96 C15.2,3.42 14.09,2.36 12.56,2.36 C11.03,2.36 9.92,3.42 9.92,4.96 Z M11.14,4.96 C11.14,4.06 11.72,3.45 12.56,3.45 C13.4,3.45 13.98,4.06 13.98,4.96 C13.98,5.86 13.4,6.47 12.56,6.47 C11.72,6.47 11.14,5.86 11.14,4.96 Z" id="Shape"></path>
                        <polygon id="Path" points="17.7 7.44 17.7 6.11 18.42 5.36 19.71 7.44 21.11 7.44 19.27 4.46 21.15 2.5 19.62 2.5 17.7 4.57 17.7 0 16.49 0 16.49 7.44"></polygon>
                        <polygon id="Path" points="26.61 7.44 26.61 4.34 29.85 4.34 29.85 7.44 31.13 7.44 31.13 0.13 29.85 0.13 29.85 3.15 26.61 3.15 26.61 0.13 25.33 0.13 25.33 7.44"></polygon>
                        <path d="M34.34,7.57 C35.11,7.57 35.78,7.22 35.99,6.71 L36.08,7.44 L37.15,7.44 L37.15,4.44 C37.15,3.07 36.33,2.35 35,2.35 C33.66,2.35 32.78,3.05 32.78,4.12 L33.82,4.12 C33.82,3.6 34.22,3.3 34.94,3.3 C35.56,3.3 35.96,3.57 35.96,4.24 L35.96,4.35 L34.48,4.46 C33.31,4.55 32.65,5.12 32.65,6.03 C32.65,6.96 33.29,7.57 34.34,7.57 Z M34.74,6.65 C34.19,6.65 33.89,6.43 33.89,5.98 C33.89,5.58 34.18,5.33 34.94,5.26 L35.97,5.18 L35.97,5.44 C35.97,6.2 35.49,6.65 34.74,6.65 Z" id="Shape"></path>
                        <path d="M39.78,7.44 L39.86,6.67 C40.15,7.24 40.78,7.57 41.52,7.57 C42.94,7.57 43.87,6.52 43.87,5 C43.87,3.44 43.01,2.34 41.6,2.34 C40.85,2.34 40.19,2.67 39.87,3.22 L39.87,0 L38.65,0 L38.65,7.44 L39.78,7.44 Z M39.88,4.95 C39.88,4.06 40.43,3.44 41.27,3.44 C42.13,3.44 42.64,4.07 42.64,4.95 C42.64,5.83 42.13,6.45 41.27,6.45 C40.43,6.45 39.88,5.84 39.88,4.95 Z" id="Shape"></path>
                        <path d="M45.75,1.51 C46.15,1.51 46.48,1.18 46.48,0.77 C46.48,0.36 46.15,0.04 45.75,0.04 C45.33,0.04 45,0.36 45,0.77 C45,1.18 45.33,1.51 45.75,1.51 Z M45.14,7.44 L46.36,7.44 L46.36,2.5 L45.14,2.5 L45.14,7.44 Z" id="Shape"></path>
                        <path d="M47.54,5.94 C47.54,6.91 48.32,7.57 49.55,7.57 C50.77,7.57 51.62,6.95 51.62,5.95 C51.62,5.19 51.2,4.81 50.37,4.62 L49.48,4.41 C49.06,4.31 48.84,4.13 48.84,3.85 C48.84,3.48 49.12,3.26 49.6,3.26 C50.07,3.26 50.35,3.53 50.36,3.95 L51.52,3.95 C51.51,2.99 50.76,2.35 49.65,2.35 C48.51,2.35 47.69,2.93 47.69,3.9 C47.69,4.69 48.12,5.11 49.01,5.31 L49.9,5.52 C50.34,5.62 50.47,5.8 50.47,6.05 C50.47,6.41 50.16,6.64 49.59,6.64 C49.03,6.64 48.71,6.37 48.7,5.94 L47.54,5.94 Z" id="Path"></path>
                    </g>
                </g>
            </g>
        </g>
    </g>
</svg>