<?xml version="1.0" encoding="UTF-8"?>
<svg width="86px" height="23px" viewBox="0 0 86 23" version="1.1" xmlns="http://www.w3.org/2000/svg" xmlns:xlink="http://www.w3.org/1999/xlink">
    <title>Group 40</title>
    <g id="Design" stroke="none" stroke-width="1" fill="none" fill-rule="evenodd">
        <g id="PDP---Bundle-Dex" transform="translate(-677.000000, -1149.000000)">
            <g id="Group-40" transform="translate(677.000000, 1149.000000)">
                <path d="M86,23 L7.42999087,23 C3.3266223,23 0,19.4384328 0,15.0452612 L0,0 L78.5700091,0 C82.6733777,0 86,3.56156716 86,7.95473881 L86,23 Z" id="Fill-7" fill="#FFE680"></path>
                <g id="EXCLUSIVE" transform="translate(14.495000, 7.560000)" fill="#25182E" fill-rule="nonzero">
                    <polygon id="Path" points="4.54 7.44 4.54 6.26 1.28 6.26 1.28 4.32 4.2 4.32 4.2 3.19 1.28 3.19 1.28 1.31 4.54 1.31 4.54 0.13 0 0.13 0 7.44"></polygon>
                    <path d="M8.27,3.79 L5.79,7.44 L7.29,7.44 L9.07,4.77 C9.36,5.3 9.62,5.74 9.94,6.23 L10.76,7.44 L12.27,7.44 L9.87,3.78 L12.26,0.13 L10.77,0.13 L9.07,2.81 C8.8,2.31 8.55,1.89 8.25,1.44 L7.36,0.13 L5.84,0.13 L8.27,3.79 Z" id="Path"></path>
                    <path d="M16.49,7.56 C18.22,7.56 19.56,6.54 19.84,5 L18.51,5 C18.27,5.81 17.51,6.33 16.52,6.33 C15.18,6.33 14.32,5.33 14.32,3.78 C14.32,2.22 15.17,1.24 16.52,1.24 C17.49,1.24 18.22,1.74 18.47,2.59 L19.82,2.59 C19.57,1.02 18.28,0.01 16.55,0.01 C14.41,0.01 12.98,1.52 12.98,3.79 C12.98,6.08 14.36,7.56 16.49,7.56 Z" id="Path"></path>
                    <polygon id="Path" points="22.77 0.13 21.49 0.13 21.49 7.44 25.83 7.44 25.83 6.26 22.77 6.26"></polygon>
                    <path d="M27.02,4.77 C27.02,6.49 28.14,7.56 29.91,7.56 C31.69,7.56 32.81,6.48 32.81,4.77 L32.81,0.13 L31.53,0.13 L31.53,4.69 C31.53,5.73 30.95,6.32 29.91,6.32 C28.87,6.32 28.3,5.74 28.3,4.69 L28.3,0.13 L27.02,0.13 L27.02,4.77 Z" id="Path"></path>
                    <path d="M34.46,2.17 C34.46,3.29 35.11,4 36.35,4.27 L37.51,4.53 C38.11,4.66 38.36,4.95 38.36,5.44 C38.36,6.05 37.82,6.42 36.97,6.42 C36.15,6.42 35.65,6.05 35.64,5.43 L34.36,5.43 C34.39,6.74 35.41,7.57 36.97,7.57 C38.58,7.57 39.64,6.69 39.64,5.33 C39.64,4.24 39.03,3.6 37.78,3.33 L36.63,3.08 C36.02,2.94 35.74,2.65 35.74,2.13 C35.74,1.52 36.25,1.14 37.04,1.14 C37.76,1.14 38.21,1.51 38.24,2.14 L39.52,2.14 C39.48,0.82 38.54,0 37.06,0 C35.52,0 34.46,0.89 34.46,2.17 Z" id="Path"></path>
                    <polygon id="Path" points="42.58 0.13 41.3 0.13 41.3 7.44 42.58 7.44"></polygon>
                    <path d="M46.75,7.44 L48.07,7.44 L50.79,0.13 L49.46,0.13 L47.88,4.34 C47.74,4.71 47.59,5.16 47.41,5.8 C47.25,5.21 47.11,4.78 46.95,4.34 L45.35,0.13 L43.99,0.13 L46.75,7.44 Z" id="Path"></path>
                    <polygon id="Path" points="56.74 7.44 56.74 6.26 53.48 6.26 53.48 4.32 56.4 4.32 56.4 3.19 53.48 3.19 53.48 1.31 56.74 1.31 56.74 0.13 52.2 0.13 52.2 7.44"></polygon>
                </g>
            </g>
        </g>
    </g>
</svg>