<?xml version="1.0" encoding="UTF-8"?>
<svg width="33px" height="28px" viewBox="0 0 33 28" version="1.1" xmlns="http://www.w3.org/2000/svg" xmlns:xlink="http://www.w3.org/1999/xlink">
    <!-- Generator: Sketch 61.2 (89653) - https://sketch.com -->
    <title>Shape</title>
    <desc>Created with Sketch.</desc>
    <g id="Desktop" stroke="none" stroke-width="1" fill="none" fill-rule="evenodd">
        <g id="Product-Detail-No-Review" transform="translate(-947.000000, -462.000000)" fill="#F384A7" fill-rule="nonzero">
            <g id="Group-3" transform="translate(947.000000, 462.000000)">
                <g id="heart-(2)">
                    <g id="Group">
                        <path d="M16.1849366,27.9558145 C16.0299123,27.9558145 15.880463,27.9020591 15.7658577,27.8047089 L4.88133528,18.5945992 C2.65752437,16.7454177 1.09099903,14.3081181 0.390570175,11.607654 C0.0871734893,10.5708861 -0.00639863548,9.49046414 0.114605263,8.4217384 C0.587977583,3.56255696 4.2764425,0.0375696203 8.89207602,0.0375696203 C11.9228752,0.0525738397 14.7105263,1.58725738 16.1886111,4.05444726 C17.7467739,1.58034599 20.5871979,0.0543459916 23.6642446,0.0381603376 C28.2798782,0.0381603376 31.9683431,3.56314768 32.441652,8.42232911 C32.5626559,9.49105485 32.4690838,10.5714768 32.1656871,11.6082447 C31.4651316,14.308827 29.8986696,16.7462447 27.674922,18.5957806 L16.6004045,27.808135 C16.4860526,27.9032405 16.3381871,27.9558145 16.1849366,27.9558145 Z" id="Shape"></path>
                    </g>
                </g>
            </g>
        </g>
    </g>
</svg>