<?xml version="1.0" encoding="UTF-8"?>
<svg width="19px" height="16px" viewBox="0 0 19 16" version="1.1" xmlns="http://www.w3.org/2000/svg" xmlns:xlink="http://www.w3.org/1999/xlink">
    <title>Add-wishlist</title>
    <g id="Symbols" stroke="none" stroke-width="1" fill="none" fill-rule="evenodd">
        <g id="Components-/-Icons-/-Wishlist-Add" transform="translate(-3.000000, -4.000000)" fill-rule="nonzero">
            <g id="Add-wishlist" transform="translate(3.000000, 4.000000)">
                <path d="M9.24853523,15.9747512 C9.15994987,15.9747512 9.07455026,15.9440338 9.00906154,15.8884051 L2.78933445,10.6254852 C1.51858535,9.56881013 0.623428014,8.17606751 0.223182957,6.63294515 C0.0498134224,6.04050633 -0.00365636313,5.42312236 0.0654887218,4.81242194 C0.33598719,2.03574684 2.44368143,0.0214683544 5.0811863,0.0214683544 C6.81307157,0.0300421941 8.40601504,0.907004219 9.25063492,2.316827 C10.1410136,0.903054852 11.7641131,0.0310548523 13.5224255,0.0218059072 C16.1599304,0.0218059072 18.2676246,2.03608439 18.5380869,4.81275949 C18.607232,5.42345992 18.5537622,6.04084388 18.3803926,6.6332827 C17.9800752,8.17647257 17.0849541,9.5692827 15.8142412,10.6261603 L9.48594542,15.8903629 C9.4206015,15.9447089 9.33610693,15.9747512 9.24853523,15.9747512 Z" id="Shape" fill="#FFFFFF"></path>
                <path d="M9.24853523,15.9747512 C9.15994987,15.9747512 9.07455026,15.9440338 9.00906154,15.8884051 L2.78933445,10.6254852 C1.51858535,9.56881013 0.623428014,8.17606751 0.223182957,6.63294515 C0.0498134224,6.04050633 -0.00365636313,5.42312236 0.0654887218,4.81242194 C0.33598719,2.03574684 2.44368143,0.0214683544 5.0811863,0.0214683544 C6.81307157,0.0300421941 8.40601504,0.907004219 9.25063492,2.316827 C10.1410136,0.903054852 11.7641131,0.0310548523 13.5224255,0.0218059072 C16.1599304,0.0218059072 18.2676246,2.03608439 18.5380869,4.81275949 C18.607232,5.42345992 18.5537622,6.04084388 18.3803926,6.6332827 C17.9800752,8.17647257 17.0849541,9.5692827 15.8142412,10.6261603 L9.48594542,15.8903629 C9.4206015,15.9447089 9.33610693,15.9747512 9.24853523,15.9747512 Z M5.0811863,0.68621097 C2.81720969,0.68621097 1.00607909,2.45188186 0.774243943,4.88452321 C0.773194096,4.89576371 0.771456419,4.90690295 0.769030911,4.91794093 C0.715705931,5.44283544 0.765989975,5.97242194 0.917312726,6.48040506 C1.28443331,7.89255696 2.1045809,9.16675105 3.26831802,10.133097 L9.25063492,15.1954093 L15.3373935,10.1317806 C16.5001532,9.16563713 17.3195405,7.89205063 17.6863353,6.48070886 C17.8381649,5.97211814 17.8882317,5.44178903 17.8339293,4.91628692 C17.5975689,2.4521519 15.7861125,0.686481013 13.5224617,0.686481013 C11.7878613,0.701839662 10.2324951,1.68624473 9.57684767,3.18372996 C9.52120579,3.3068692 9.39189362,3.38690295 9.24860763,3.38690295 C9.10532164,3.38690295 8.97597327,3.30683544 8.92036759,3.18372996 C8.30790866,1.69816034 6.78791145,0.709299578 5.0811863,0.68621097 Z" id="Shape" fill="#B0B0B0"></path>
            </g>
        </g>
    </g>
</svg>